<svg width="27" height="21" viewBox="0 0 27 21" fill="none" xmlns="http://www.w3.org/2000/svg">
<path d="M22.5416 0.166672H4.45831C3.4306 0.166672 2.44498 0.57493 1.71827 1.30163C0.991571 2.02834 0.583313 3.01396 0.583313 4.04167V16.9583C0.583313 17.9861 0.991571 18.9717 1.71827 19.6984C2.44498 20.4251 3.4306 20.8333 4.45831 20.8333H22.5416C23.5694 20.8333 24.555 20.4251 25.2817 19.6984C26.0084 18.9717 26.4166 17.9861 26.4166 16.9583V4.04167C26.4166 3.01396 26.0084 2.02834 25.2817 1.30163C24.555 0.57493 23.5694 0.166672 22.5416 0.166672ZM21.6762 2.75001L13.5 8.88542L5.32373 2.75001H21.6762ZM22.5416 18.25H4.45831C4.11574 18.25 3.7872 18.1139 3.54497 17.8717C3.30273 17.6295 3.16665 17.3009 3.16665 16.9583V4.36459L12.725 11.5333C12.9486 11.701 13.2205 11.7917 13.5 11.7917C13.7795 11.7917 14.0514 11.701 14.275 11.5333L23.8333 4.36459V16.9583C23.8333 17.3009 23.6972 17.6295 23.455 17.8717C23.2128 18.1139 22.8842 18.25 22.5416 18.25Z" fill="#231F20"/>
</svg>
