<svg width="27" height="27" viewBox="0 0 27 27" fill="none" xmlns="http://www.w3.org/2000/svg">
<path d="M20.5333 26.6668C15.0897 26.6598 9.87109 24.4942 6.02187 20.645C2.17265 16.7957 0.00705589 11.5771 0 6.13349C0 4.50682 0.646189 2.94679 1.79641 1.79656C2.94663 0.646341 4.50667 0.000152393 6.13333 0.000152393C6.47779 -0.00247134 6.82166 0.0287902 7.16 0.0934856C7.48708 0.141886 7.80862 0.222272 8.12 0.333486C8.339 0.410325 8.53414 0.542997 8.68614 0.718382C8.83815 0.893767 8.94173 1.10579 8.98667 1.33349L10.8133 9.33349C10.8626 9.55064 10.8566 9.77666 10.7961 9.99093C10.7355 10.2052 10.6223 10.4009 10.4667 10.5602C10.2933 10.7468 10.28 10.7602 8.64 11.6135C9.95332 14.4946 12.2576 16.8084 15.1333 18.1335C16 16.4802 16.0133 16.4668 16.2 16.2935C16.3593 16.1379 16.555 16.0246 16.7692 15.9641C16.9835 15.9035 17.2095 15.8976 17.4267 15.9468L25.4267 17.7735C25.6471 17.8246 25.8508 17.931 26.0188 18.0826C26.1867 18.2342 26.3133 18.4261 26.3867 18.6402C26.4992 18.9566 26.584 19.2823 26.64 19.6135C26.6937 19.9486 26.7204 20.2874 26.72 20.6268C26.6954 22.2465 26.0311 23.7907 24.872 24.9224C23.7129 26.054 22.1532 26.6811 20.5333 26.6668Z" fill="#231F20"/>
</svg>
