<svg width="12" height="12" viewBox="0 0 12 12" fill="none" xmlns="http://www.w3.org/2000/svg">
<path fill-rule="evenodd" clip-rule="evenodd" d="M6.6665 1.33334C6.6665 0.965149 6.36803 0.666672 5.99984 0.666672C5.63165 0.666672 5.33317 0.965149 5.33317 1.33334V5.33334H1.33317C0.964981 5.33334 0.666504 5.63182 0.666504 6.00001C0.666504 6.3682 0.964981 6.66667 1.33317 6.66667H5.33317V10.6667C5.33317 11.0349 5.63165 11.3333 5.99984 11.3333C6.36803 11.3333 6.6665 11.0349 6.6665 10.6667V6.66667H10.6665C11.0347 6.66667 11.3332 6.3682 11.3332 6.00001C11.3332 5.63182 11.0347 5.33334 10.6665 5.33334H6.6665V1.33334Z" fill="#313237"/>
</svg>
