<svg width="48" height="48" viewBox="0 0 48 48" fill="none" xmlns="http://www.w3.org/2000/svg">
<rect width="48" height="48" fill="white"/>
<path d="M11.565 14.1H34.386C36.453 14.1 37.9455 16.005 37.3785 17.922L34.8975 26.322C34.515 27.612 33.294 28.5 31.905 28.5H18.168C16.7775 28.5 15.555 27.6105 15.174 26.322L11.565 14.1ZM11.565 14.1L10.5 10.5M30.75 37.5C31.3467 37.5 31.919 37.2629 32.341 36.841C32.7629 36.419 33 35.8467 33 35.25C33 34.6533 32.7629 34.081 32.341 33.659C31.919 33.2371 31.3467 33 30.75 33C30.1533 33 29.581 33.2371 29.159 33.659C28.7371 34.081 28.5 34.6533 28.5 35.25C28.5 35.8467 28.7371 36.419 29.159 36.841C29.581 37.2629 30.1533 37.5 30.75 37.5ZM18.75 37.5C19.3467 37.5 19.919 37.2629 20.341 36.841C20.7629 36.419 21 35.8467 21 35.25C21 34.6533 20.7629 34.081 20.341 33.659C19.919 33.2371 19.3467 33 18.75 33C18.1533 33 17.581 33.2371 17.159 33.659C16.7371 34.081 16.5 34.6533 16.5 35.25C16.5 35.8467 16.7371 36.419 17.159 36.841C17.581 37.2629 18.1533 37.5 18.75 37.5Z" stroke="black" stroke-width="2.25" stroke-linecap="round" stroke-linejoin="round"/>
</svg>
