<svg xmlns="http://www.w3.org/2000/svg"  viewBox="0 0 48 48" width="48px" height="48px"><path fill="#8ce7f2" d="M35.288,13.867v0.972c0,1.074-0.87,1.944-1.944,1.944h-10.69c-1.074,0-1.944-0.87-1.944-1.944v-0.972	c0-2.147-1.74-3.887-3.887-3.887l0,0c-2.147,0-3.887,1.74-3.887,3.887v2.915v7.774v14.577c0,2.147,1.74,3.887,3.887,3.887h23.323	c2.147,0,2.915-1.74,2.915-3.887V24.556v-7.774v-2.915c0-2.147-1.74-3.887-3.887-3.887l0,0C37.029,9.98,35.288,11.72,35.288,13.867z"/><circle cx="19" cy="24" r="2" fill="#18193f"/><circle cx="29" cy="24" r="2" fill="#18193f"/><path fill="none" stroke="#18193f" stroke-linecap="round" stroke-linejoin="round" stroke-width="3" d="M39.5,27.106V20.5v-8v-3	c0-2.209-1.791-4-4-4l0,0c-2.209,0-4,1.791-4,4v1c0,1.105-0.895,2-2,2h-11c-1.105,0-2-0.895-2-2v-1c0-2.209-1.791-4-4-4l0,0	c-2.209,0-4,1.791-4,4v3v3.755"/><path fill="none" stroke="#18193f" stroke-linecap="round" stroke-linejoin="round" stroke-width="3" d="M8.5,23.277V35.5	c0,2.209,1.791,4,4,4h24c2.209,0,3-1.791,3-4v-1.628"/><ellipse cx="24" cy="26" fill="none" stroke="#18193f" stroke-linecap="round" stroke-linejoin="round" stroke-width="3" rx="10.5" ry="8.5"/><path fill="none" stroke="#18193f" stroke-linecap="round" stroke-linejoin="round" stroke-width="3" d="M21.5,28.5L21.5,28.5	c0.951,1.427,4.049,1.427,5,0l0,0"/></svg>