<svg width="48" height="48" viewBox="0 0 48 48" fill="none" xmlns="http://www.w3.org/2000/svg">
<rect width="48" height="48" fill="#121212"/>
<path d="M24 10.5H24.5895C22.6625 12.2906 21.4239 14.6998 21.089 17.3088C20.754 19.9179 21.3439 22.5618 22.7561 24.7811C24.1684 27.0003 26.3136 28.6546 28.8189 29.4562C31.3243 30.2578 34.0313 30.1562 36.4695 29.169C35.5316 31.4257 33.9987 33.3855 32.0343 34.8394C30.0699 36.2932 27.7477 37.1865 25.3154 37.4241C22.8831 37.6616 20.4319 37.2344 18.2234 36.1881C16.0148 35.1418 14.1317 33.5155 12.7749 31.4829C11.4181 29.4502 10.6386 27.0874 10.5194 24.6464C10.4002 22.2055 10.9458 19.7779 12.0981 17.6228C13.2504 15.4676 14.9661 13.6656 17.0622 12.4091C19.1583 11.1526 21.5562 10.4886 24 10.488V10.5Z" stroke="white" stroke-width="2.25" stroke-linecap="round" stroke-linejoin="round"/>
</svg>
