<?xml version="1.0" encoding="iso-8859-1"?>
<!-- Uploaded to: SVG Repo, www.svgrepo.com, Generator: SVG Repo Mixer Tools -->
<svg fill="#000000" height="800px" width="800px" version="1.1" id="Layer_1" xmlns="http://www.w3.org/2000/svg" xmlns:xlink="http://www.w3.org/1999/xlink" 
	 viewBox="0 0 511.999 511.999" xml:space="preserve">
<g>
	<g>
		<path d="M222.024,259.304c-18.775,0-34.049,15.274-34.049,34.049s15.274,34.049,34.049,34.049
			c18.774,0,34.048-15.274,34.048-34.049C256.073,274.578,240.798,259.304,222.024,259.304z M222.024,310.739
			c-9.586,0-17.385-7.799-17.385-17.385s7.8-17.385,17.385-17.385c9.585,0,17.384,7.799,17.384,17.385
			S231.61,310.739,222.024,310.739z"/>
	</g>
</g>
<g>
	<g>
		<path d="M338.31,259.304c-18.775,0-34.049,15.274-34.049,34.049s15.274,34.049,34.049,34.049
			c18.774,0,34.048-15.274,34.048-34.049C372.358,274.578,357.085,259.304,338.31,259.304z M338.31,310.739
			c-9.586,0-17.385-7.799-17.385-17.385s7.8-17.385,17.385-17.385s17.384,7.799,17.384,17.385S347.896,310.739,338.31,310.739z"/>
	</g>
</g>
<g>
	<g>
		<path d="M401.834,121.035c-1.583-1.945-3.957-3.075-6.465-3.075h-52.595c-4.603,0-8.332,3.731-8.332,8.332
			c0,4.601,3.729,8.332,8.332,8.332h42.348l-20.553,98.673H195.763l-20.553-98.673h139.791c4.603,0,8.332-3.731,8.332-8.332
			c0-4.602-3.729-8.332-8.332-8.332H171.712l-8.863-41.716c-0.817-3.848-4.216-6.6-8.15-6.6h-38.066
			c-4.603,0-8.332,3.731-8.332,8.332c0,4.601,3.729,8.332,8.332,8.332h31.317l32.88,157.022c0.805,3.864,4.211,6.633,8.158,6.633
			h182.359c3.947,0,7.352-2.77,8.158-6.633l24.023-115.338C404.038,125.536,403.416,122.98,401.834,121.035z"/>
	</g>
</g>
<g>
	<g>
		<path d="M471.246,24.766H40.754C18.283,24.766,0,43.049,0,65.52v59.227c0,4.602,3.731,8.332,8.332,8.332
			c4.601,0,8.332-3.731,8.332-8.332V65.52c0-13.284,10.807-24.09,24.09-24.09h430.492c13.284,0,24.09,10.807,24.09,24.09v284.411
			h-52.21c-4.602,0-8.332,3.731-8.332,8.332s3.731,8.332,8.332,8.332h52.21v15.273c0,13.284-10.807,24.09-24.09,24.09H40.754
			c-13.284,0-24.09-10.807-24.09-24.09v-15.273h398.688c4.602,0,8.332-3.731,8.332-8.332s-3.731-8.332-8.332-8.332H16.664V152.522
			c0-4.602-3.731-8.332-8.332-8.332c-4.601,0-8.332,3.73-8.332,8.332V381.87c0,22.472,18.283,40.754,40.754,40.754H183.54
			l-20.494,47.945h-40.034c-4.602,0-8.332,3.731-8.332,8.332s3.731,8.332,8.332,8.332h265.975c4.602,0,8.332-3.731,8.332-8.332
			s-3.731-8.332-8.332-8.332h-40.034l-20.494-47.945h142.786c22.472,0,40.754-18.282,40.754-40.754V65.52
			C512,43.049,493.717,24.766,471.246,24.766z M330.83,470.568H181.17l14.238-33.31h121.185L330.83,470.568z"/>
	</g>
</g>
<g>
	<g>
		<path d="M262.924,379.679c-1.914-2.906-5.583-4.299-8.952-3.457c-3.517,0.879-6.116,4.048-6.291,7.67
			c-0.364,7.534,9.106,11.629,14.33,6.172C264.674,387.282,265.089,382.887,262.924,379.679z"/>
	</g>
</g>
</svg>