<svg width="14" height="16" viewBox="0 0 14 16" fill="none" xmlns="http://www.w3.org/2000/svg">
<path fill-rule="evenodd" clip-rule="evenodd" d="M2.46683 0.933293C2.59273 0.765422 2.79032 0.666626 3.00016 0.666626H11.0002C11.21 0.666626 11.4076 0.765422 11.5335 0.933293L13.5335 3.59996C13.62 3.71536 13.6668 3.85571 13.6668 3.99996V13.3333C13.6668 13.8637 13.4561 14.3724 13.081 14.7475C12.706 15.1226 12.1973 15.3333 11.6668 15.3333H2.3335C1.80306 15.3333 1.29436 15.1226 0.919282 14.7475C0.54421 14.3724 0.333496 13.8637 0.333496 13.3333V3.99996C0.333496 3.85571 0.380281 3.71536 0.466829 3.59996L2.46683 0.933293ZM3.3335 1.99996L1.66683 4.22218V13.3333C1.66683 13.5101 1.73707 13.6797 1.86209 13.8047C1.98712 13.9297 2.15669 14 2.3335 14H11.6668C11.8436 14 12.0132 13.9297 12.1382 13.8047C12.2633 13.6797 12.3335 13.5101 12.3335 13.3333V4.22218L10.6668 1.99996H3.3335Z" fill="#313237"/>
<path fill-rule="evenodd" clip-rule="evenodd" d="M0.333496 3.99998C0.333496 3.63179 0.631973 3.33331 1.00016 3.33331H13.0002C13.3684 3.33331 13.6668 3.63179 13.6668 3.99998C13.6668 4.36817 13.3684 4.66665 13.0002 4.66665H1.00016C0.631973 4.66665 0.333496 4.36817 0.333496 3.99998Z" fill="#313237"/>
<path fill-rule="evenodd" clip-rule="evenodd" d="M4.33366 5.99997C4.70185 5.99997 5.00033 6.29845 5.00033 6.66664C5.00033 7.19707 5.21104 7.70578 5.58611 8.08085C5.96118 8.45592 6.46989 8.66664 7.00033 8.66664C7.53076 8.66664 8.03947 8.45592 8.41454 8.08085C8.78961 7.70578 9.00033 7.19707 9.00033 6.66664C9.00033 6.29845 9.2988 5.99997 9.66699 5.99997C10.0352 5.99997 10.3337 6.29845 10.3337 6.66664C10.3337 7.55069 9.98247 8.39854 9.35735 9.02366C8.73223 9.64878 7.88438 9.99997 7.00033 9.99997C6.11627 9.99997 5.26842 9.64878 4.6433 9.02366C4.01818 8.39854 3.66699 7.55069 3.66699 6.66664C3.66699 6.29845 3.96547 5.99997 4.33366 5.99997Z" fill="#313237"/>
</svg>
