<svg width="10" height="10" viewBox="0 0 10 10" fill="none" xmlns="http://www.w3.org/2000/svg">
<path fill-rule="evenodd" clip-rule="evenodd" d="M9.47157 1.47138C9.73192 1.21103 9.73192 0.788925 9.47157 0.528575C9.21122 0.268226 8.78911 0.268226 8.52876 0.528575L5.00016 4.05717L1.47157 0.528575C1.21122 0.268226 0.789108 0.268226 0.528758 0.528575C0.268409 0.788925 0.268409 1.21103 0.528758 1.47138L4.05735 4.99998L0.528758 8.52857C0.268409 8.78892 0.268409 9.21103 0.528758 9.47138C0.789108 9.73173 1.21122 9.73173 1.47157 9.47138L5.00016 5.94279L8.52876 9.47138C8.78911 9.73173 9.21122 9.73173 9.47157 9.47138C9.73192 9.21103 9.73192 8.78892 9.47157 8.52857L5.94297 4.99998L9.47157 1.47138Z" fill="#313237"/>
</svg>
