<svg width="12" height="12" viewBox="0 0 12 12" fill="none" xmlns="http://www.w3.org/2000/svg">
<path fill-rule="evenodd" clip-rule="evenodd" d="M6.6665 1.33335C6.6665 0.965164 6.36803 0.666687 5.99984 0.666687C5.63165 0.666687 5.33317 0.965164 5.33317 1.33335V5.33335H1.33317C0.964981 5.33335 0.666504 5.63183 0.666504 6.00002C0.666504 6.36821 0.964981 6.66669 1.33317 6.66669H5.33317V10.6667C5.33317 11.0349 5.63165 11.3334 5.99984 11.3334C6.36803 11.3334 6.6665 11.0349 6.6665 10.6667V6.66669H10.6665C11.0347 6.66669 11.3332 6.36821 11.3332 6.00002C11.3332 5.63183 11.0347 5.33335 10.6665 5.33335H6.6665V1.33335Z" fill="#313237"/>
</svg>
