<svg width="14" height="14" viewBox="0 0 14 14" fill="none" xmlns="http://www.w3.org/2000/svg">
<path fill-rule="evenodd" clip-rule="evenodd" d="M1.66683 6.33337C1.66683 3.75605 3.75617 1.66671 6.3335 1.66671C8.91083 1.66671 11.0002 3.75605 11.0002 6.33337C11.0002 7.59064 10.503 8.73179 9.69447 9.57092C9.67163 9.58848 9.64966 9.60772 9.62873 9.62864C9.60781 9.64956 9.58857 9.67153 9.57101 9.69438C8.73189 10.5029 7.59075 11 6.3335 11C3.75617 11 1.66683 8.9107 1.66683 6.33337ZM10.0786 11.0213C9.05216 11.8424 7.75016 12.3334 6.3335 12.3334C3.01979 12.3334 0.333496 9.64708 0.333496 6.33337C0.333496 3.01967 3.01979 0.333374 6.3335 0.333374C9.64721 0.333374 12.3335 3.01967 12.3335 6.33337C12.3335 7.75006 11.8425 9.05206 11.0214 10.0785L13.4715 12.5286C13.7319 12.789 13.7319 13.2111 13.4715 13.4715C13.2112 13.7318 12.7891 13.7318 12.5287 13.4715L10.0786 11.0213Z" fill="#313237"/>
</svg>
