<svg width="160" height="40" viewBox="0 0 160 40" fill="none" xmlns="http://www.w3.org/2000/svg">
<rect width="160" height="40" fill="#905BFF"/>
<path d="M47.7564 23.5H49.5064L45.4464 13.7H43.9344L40.0004 23.5H41.7084L42.5344 21.372H46.9164L47.7564 23.5ZM44.7184 15.8L46.3564 19.93H43.0944L44.7184 15.8ZM56.47 13.238V16.64C55.798 16.08 54.944 15.758 53.978 15.758C51.682 15.758 50.044 17.452 50.044 19.734C50.044 21.988 51.682 23.696 53.978 23.696C55.028 23.696 55.966 23.304 56.638 22.646L56.848 23.514H58.024V13.238H56.47ZM54.09 22.212C52.676 22.212 51.626 21.148 51.626 19.72C51.626 18.306 52.676 17.242 54.09 17.242C55.518 17.242 56.568 18.306 56.568 19.72C56.568 21.134 55.518 22.212 54.09 22.212ZM66.1087 13.238V16.64C65.4367 16.08 64.5827 15.758 63.6167 15.758C61.3207 15.758 59.6827 17.452 59.6827 19.734C59.6827 21.988 61.3207 23.696 63.6167 23.696C64.6667 23.696 65.6047 23.304 66.2767 22.646L66.4867 23.514H67.6627V13.238H66.1087ZM63.7287 22.212C62.3147 22.212 61.2647 21.148 61.2647 19.72C61.2647 18.306 62.3147 17.242 63.7287 17.242C65.1567 17.242 66.2067 18.306 66.2067 19.72C66.2067 21.134 65.1567 22.212 63.7287 22.212ZM76.55 22.1C75.64 22.1 75.136 21.596 75.136 20.686V17.284H77.376V15.94H75.122V14.176H74.856L72.224 16.976V17.284H73.582V20.812C73.582 22.478 74.604 23.5 76.256 23.5H77.418V22.1H76.55ZM82.3361 23.696C84.6461 23.696 86.3681 22.002 86.3681 19.72C86.3681 17.452 84.6461 15.758 82.3361 15.758C80.0121 15.758 78.2901 17.438 78.2901 19.72C78.2901 22.002 80.0121 23.696 82.3361 23.696ZM82.3361 22.212C80.8941 22.212 79.8721 21.176 79.8721 19.72C79.8721 18.278 80.8941 17.242 82.3361 17.242C83.7641 17.242 84.7861 18.278 84.7861 19.72C84.7861 21.176 83.7641 22.212 82.3361 22.212ZM94.967 23.696C96.829 23.696 98.327 22.52 98.733 20.756H97.165C96.759 21.68 95.961 22.212 94.967 22.212C93.623 22.212 92.587 21.12 92.587 19.72C92.587 18.32 93.609 17.242 94.967 17.242C95.947 17.242 96.787 17.774 97.179 18.642H98.719C98.299 16.906 96.843 15.758 94.967 15.758C92.713 15.758 91.005 17.466 91.005 19.72C91.005 21.974 92.713 23.696 94.967 23.696ZM106.602 15.94L106.42 16.892C105.734 16.178 104.768 15.758 103.648 15.758C101.394 15.758 99.714 17.452 99.714 19.72C99.714 21.988 101.394 23.696 103.648 23.696C104.754 23.696 105.706 23.276 106.392 22.59L106.546 23.5H107.792V15.94H106.602ZM103.774 22.198C102.346 22.198 101.296 21.134 101.296 19.72C101.296 18.306 102.346 17.242 103.774 17.242C105.202 17.242 106.238 18.292 106.238 19.72C106.238 21.148 105.202 22.198 103.774 22.198ZM113.648 15.898C112.612 15.898 111.87 16.262 111.324 16.976L111.072 15.94H110.022V23.5H111.576V19.482C111.576 18.11 112.206 17.368 113.494 17.368H114.32V15.898H113.648ZM118.905 22.1C117.995 22.1 117.491 21.596 117.491 20.686V17.284H119.731V15.94H117.477V14.176H117.211L114.579 16.976V17.284H115.937V20.812C115.937 22.478 116.959 23.5 118.611 23.5H119.773V22.1H118.905Z" fill="#F1F2F9"/>
</svg>
