<svg fill="#000000" xmlns="http://www.w3.org/2000/svg" viewBox="0 0 100 100" width="100px" height="100px"><path d="M 17 21 A 1.0001 1.0001 0 0 0 16 22 L 16 32 A 1.0001 1.0001 0 0 0 17 33 L 83 33 A 1.0001 1.0001 0 0 0 84 32 L 84 22 A 1.0001 1.0001 0 0 0 83 21 L 17 21 z M 18 23 L 82 23 L 82 31 L 18 31 L 18 29 L 73.5 29 A 0.50005 0.50005 0 1 0 73.5 28 L 18 28 L 18 23 z M 76.5 28 A 0.50005 0.50005 0 1 0 76.5 29 L 78.5 29 A 0.50005 0.50005 0 1 0 78.5 28 L 76.5 28 z M 17 44 A 1.0001 1.0001 0 0 0 16 45 L 16 55 A 1.0001 1.0001 0 0 0 17 56 L 83 56 A 1.0001 1.0001 0 0 0 84 55 L 84 45 A 1.0001 1.0001 0 0 0 83 44 L 17 44 z M 18 46 L 82 46 L 82 54 L 18 54 L 18 46 z M 22.5 51 A 0.50005 0.50005 0 1 0 22.5 52 L 67.5 52 A 0.50005 0.50005 0 1 0 67.5 51 L 22.5 51 z M 70.5 51 A 0.50005 0.50005 0 1 0 70.5 52 L 73.5 52 A 0.50005 0.50005 0 1 0 73.5 51 L 70.5 51 z M 76.5 51 A 0.50005 0.50005 0 1 0 76.5 52 L 78.5 52 A 0.50005 0.50005 0 1 0 78.5 51 L 76.5 51 z M 17 67 A 1.0001 1.0001 0 0 0 16 68 L 16 78 A 1.0001 1.0001 0 0 0 17 79 L 83 79 A 1.0001 1.0001 0 0 0 84 78 L 84 68 A 1.0001 1.0001 0 0 0 83 67 L 17 67 z M 18 69 L 82 69 L 82 74 L 26.5 74 A 0.50005 0.50005 0 1 0 26.5 75 L 82 75 L 82 77 L 18 77 L 18 69 z M 21.5 74 A 0.50005 0.50005 0 1 0 21.5 75 L 23.5 75 A 0.50005 0.50005 0 1 0 23.5 74 L 21.5 74 z"/></svg>