<svg width="10" height="10" viewBox="0 0 10 10" fill="none" xmlns="http://www.w3.org/2000/svg">
<path fill-rule="evenodd" clip-rule="evenodd" d="M9.47157 1.4714C9.73192 1.21105 9.73192 0.78894 9.47157 0.52859C9.21122 0.268241 8.78911 0.268241 8.52876 0.52859L5.00016 4.05719L1.47157 0.52859C1.21122 0.268241 0.789108 0.268241 0.528758 0.52859C0.268409 0.78894 0.268409 1.21105 0.528758 1.4714L4.05735 4.99999L0.528758 8.52859C0.268409 8.78894 0.268409 9.21105 0.528758 9.4714C0.789108 9.73175 1.21122 9.73175 1.47157 9.4714L5.00016 5.9428L8.52876 9.4714C8.78911 9.73175 9.21122 9.73175 9.47157 9.4714C9.73192 9.21105 9.73192 8.78894 9.47157 8.52859L5.94297 4.99999L9.47157 1.4714Z" fill="#313237"/>
</svg>
