<svg width="118" height="32" viewBox="0 0 118 32" fill="none" xmlns="http://www.w3.org/2000/svg">
<path d="M6.14228 15.632C6.75428 15.236 7.12628 14.492 7.12628 13.772C7.12628 12.536 6.09428 11.612 4.69028 11.612H1.30628V20.012H4.75028C6.20228 20.012 7.34228 18.968 7.34228 17.648C7.34228 16.748 6.89828 15.992 6.14228 15.632ZM5.74628 13.964C5.74628 14.588 5.26628 15.056 4.60628 15.056H2.66228V12.872H4.60628C5.26628 12.872 5.74628 13.34 5.74628 13.964ZM4.67828 18.692H2.66228V16.316H4.67828C5.41028 16.316 5.93828 16.82 5.93828 17.504C5.93828 18.188 5.41028 18.692 4.67828 18.692ZM14.3329 13.52L14.1769 14.336C13.5889 13.724 12.7609 13.364 11.8009 13.364C9.86894 13.364 8.42894 14.816 8.42894 16.76C8.42894 18.704 9.86894 20.168 11.8009 20.168C12.7489 20.168 13.5649 19.808 14.1529 19.22L14.2849 20H15.3529V13.52H14.3329ZM11.9089 18.884C10.6849 18.884 9.78494 17.972 9.78494 16.76C9.78494 15.548 10.6849 14.636 11.9089 14.636C13.1329 14.636 14.0209 15.536 14.0209 16.76C14.0209 17.984 13.1329 18.884 11.9089 18.884ZM20.1804 20.168C21.7764 20.168 23.0604 19.16 23.4084 17.648H22.0644C21.7164 18.44 21.0324 18.896 20.1804 18.896C19.0284 18.896 18.1404 17.96 18.1404 16.76C18.1404 15.56 19.0164 14.636 20.1804 14.636C21.0204 14.636 21.7404 15.092 22.0764 15.836H23.3964C23.0364 14.348 21.7884 13.364 20.1804 13.364C18.2484 13.364 16.7844 14.828 16.7844 16.76C16.7844 18.692 18.2484 20.168 20.1804 20.168ZM28.9413 20H30.5733L28.1373 16.64L30.3333 13.52H28.7613L27.0093 16.028H26.1933V11.204H24.8613V20H26.1933V17.24H26.9973L28.9413 20ZM37.2655 18.8C36.4855 18.8 36.0535 18.368 36.0535 17.588V14.672H37.9735V13.52H36.0415V12.008H35.8135L33.5575 14.408V14.672H34.7215V17.696C34.7215 19.124 35.5975 20 37.0135 20H38.0095V18.8H37.2655ZM42.2251 20.168C44.2051 20.168 45.6811 18.716 45.6811 16.76C45.6811 14.816 44.2051 13.364 42.2251 13.364C40.2331 13.364 38.7571 14.804 38.7571 16.76C38.7571 18.716 40.2331 20.168 42.2251 20.168ZM42.2251 18.896C40.9891 18.896 40.1131 18.008 40.1131 16.76C40.1131 15.524 40.9891 14.636 42.2251 14.636C43.4491 14.636 44.3251 15.524 44.3251 16.76C44.3251 18.008 43.4491 18.896 42.2251 18.896ZM52.828 18.8C52.048 18.8 51.616 18.368 51.616 17.588V14.672H53.536V13.52H51.604V12.008H51.376L49.12 14.408V14.672H50.284V17.696C50.284 19.124 51.16 20 52.576 20H53.572V18.8H52.828ZM57.7876 20.168C59.7676 20.168 61.2436 18.716 61.2436 16.76C61.2436 14.816 59.7676 13.364 57.7876 13.364C55.7956 13.364 54.3196 14.804 54.3196 16.76C54.3196 18.716 55.7956 20.168 57.7876 20.168ZM57.7876 18.896C56.5516 18.896 55.6756 18.008 55.6756 16.76C55.6756 15.524 56.5516 14.636 57.7876 14.636C59.0116 14.636 59.8876 15.524 59.8876 16.76C59.8876 18.008 59.0116 18.896 57.7876 18.896ZM66.1546 13.364C65.2186 13.364 64.4026 13.724 63.8146 14.324L63.5626 13.52H62.6746V22.328H64.0066V19.388C64.5706 19.88 65.3146 20.168 66.1546 20.168C68.0866 20.168 69.5146 18.704 69.5146 16.76C69.5146 14.816 68.0866 13.364 66.1546 13.364ZM66.0466 18.896C64.8226 18.896 63.9226 17.984 63.9226 16.76C63.9226 15.548 64.8226 14.636 66.0466 14.636C67.2706 14.636 68.1586 15.548 68.1586 16.76C68.1586 17.984 67.2706 18.896 66.0466 18.896Z" fill="$secondary"/>
<rect x="86.5" y="31.5" width="31" height="31" transform="rotate(-90 86.5 31.5)" stroke="#B4BDC4"/>
<path fill-rule="evenodd" clip-rule="evenodd" d="M97.5286 18.4712C97.2682 18.2109 97.2682 17.7888 97.5286 17.5284L101.529 13.5284C101.789 13.2681 102.211 13.2681 102.471 13.5284L106.471 17.5284C106.732 17.7888 106.732 18.2109 106.471 18.4712C106.211 18.7316 105.789 18.7316 105.529 18.4712L102 14.9426L98.4714 18.4712C98.211 18.7316 97.7889 18.7316 97.5286 18.4712Z" fill="#313237"/>
</svg>
