<svg style="display: none">
  <symbol
    id="icon-home"
    xmlns="http://www.w3.org/2000/svg"
    viewBox="0 0 16 16"
    fill="inherit"
  >
    <path fill-rule="evenodd" clip-rule="evenodd" d="M7.59087 0.807088C7.83161 0.619846 8.16872 0.619846 8.40946 0.807088L14.4095 5.47375C14.5718 5.60006 14.6668 5.79426 14.6668 5.99999V13.3333C14.6668 13.8638 14.4561 14.3725 14.081 14.7475C13.706 15.1226 13.1973 15.3333 12.6668 15.3333H3.3335C2.80306 15.3333 2.29436 15.1226 1.91928 14.7475C1.54421 14.3725 1.3335 13.8638 1.3335 13.3333V5.99999C1.3335 5.79426 1.42848 5.60006 1.59087 5.47375L7.59087 0.807088ZM2.66683 6.32605V13.3333C2.66683 13.5101 2.73707 13.6797 2.86209 13.8047C2.98712 13.9298 3.15669 14 3.3335 14H12.6668C12.8436 14 13.0132 13.9298 13.1382 13.8047C13.2633 13.6797 13.3335 13.5101 13.3335 13.3333V6.32605L8.00016 2.1779L2.66683 6.32605Z" fill="inherit"/>
    <path fill-rule="evenodd" clip-rule="evenodd" d="M5.3335 8.00001C5.3335 7.63182 5.63197 7.33334 6.00016 7.33334H10.0002C10.3684 7.33334 10.6668 7.63182 10.6668 8.00001V14.6667C10.6668 15.0349 10.3684 15.3333 10.0002 15.3333C9.63197 15.3333 9.3335 15.0349 9.3335 14.6667V8.66668H6.66683V14.6667C6.66683 15.0349 6.36835 15.3333 6.00016 15.3333C5.63197 15.3333 5.3335 15.0349 5.3335 14.6667V8.00001Z" fill="inherit"/>
  </symbol>

  <symbol
    id="icon-search"
    xmlns="http://www.w3.org/2000/svg"
    viewBox="0 0 16 16"
    fill="inherit"
  >
    <path fill-rule="evenodd" clip-rule="evenodd" d="M2.66683 7.33334C2.66683 4.75601 4.75617 2.66668 7.3335 2.66668C9.91083 2.66668 12.0002 4.75601 12.0002 7.33334C12.0002 8.59061 11.503 9.73176 10.6945 10.5709C10.6716 10.5884 10.6497 10.6077 10.6287 10.6286C10.6078 10.6495 10.5886 10.6715 10.571 10.6943C9.73189 11.5028 8.59075 12 7.3335 12C4.75617 12 2.66683 9.91067 2.66683 7.33334ZM11.0786 12.0213C10.0522 12.8424 8.75016 13.3333 7.3335 13.3333C4.01979 13.3333 1.3335 10.6471 1.3335 7.33334C1.3335 4.01963 4.01979 1.33334 7.3335 1.33334C10.6472 1.33334 13.3335 4.01963 13.3335 7.33334C13.3335 8.75003 12.8425 10.052 12.0214 11.0785L14.4715 13.5286C14.7319 13.789 14.7319 14.2111 14.4715 14.4714C14.2112 14.7318 13.7891 14.7318 13.5287 14.4714L11.0786 12.0213Z" fill="inherit"/>
  </symbol>

  <symbol
    id="icon-cart"
    xmlns="http://www.w3.org/2000/svg"
    viewBox="0 0 14 16"
    fill="inherit"
  >
    <path fill-rule="evenodd" clip-rule="evenodd" d="M2.46671 0.933323C2.59261 0.765453 2.7902 0.666656 3.00004 0.666656H11C11.2099 0.666656 11.4075 0.765453 11.5334 0.933323L13.5334 3.59999C13.6199 3.71539 13.6667 3.85574 13.6667 3.99999V13.3333C13.6667 13.8638 13.456 14.3725 13.0809 14.7475C12.7058 15.1226 12.1971 15.3333 11.6667 15.3333H2.33337C1.80294 15.3333 1.29423 15.1226 0.91916 14.7475C0.544088 14.3725 0.333374 13.8638 0.333374 13.3333V3.99999C0.333374 3.85574 0.380159 3.71539 0.466707 3.59999L2.46671 0.933323ZM3.33337 1.99999L1.66671 4.22221V13.3333C1.66671 13.5101 1.73695 13.6797 1.86197 13.8047C1.98699 13.9298 2.15656 14 2.33337 14H11.6667C11.8435 14 12.0131 13.9298 12.1381 13.8047C12.2631 13.6797 12.3334 13.5101 12.3334 13.3333V4.22221L10.6667 1.99999H3.33337Z" fill="inherit"/>
    <path fill-rule="evenodd" clip-rule="evenodd" d="M0.333374 4.00001C0.333374 3.63182 0.631851 3.33334 1.00004 3.33334H13C13.3682 3.33334 13.6667 3.63182 13.6667 4.00001C13.6667 4.3682 13.3682 4.66668 13 4.66668H1.00004C0.631851 4.66668 0.333374 4.3682 0.333374 4.00001Z" fill="inherit"/>
    <path fill-rule="evenodd" clip-rule="evenodd" d="M4.33329 6C4.70148 6 4.99996 6.29848 4.99996 6.66667C4.99996 7.1971 5.21067 7.70581 5.58575 8.08088C5.96082 8.45595 6.46953 8.66667 6.99996 8.66667C7.53039 8.66667 8.0391 8.45595 8.41417 8.08088C8.78925 7.70581 8.99996 7.1971 8.99996 6.66667C8.99996 6.29848 9.29844 6 9.66663 6C10.0348 6 10.3333 6.29848 10.3333 6.66667C10.3333 7.55072 9.9821 8.39857 9.35698 9.02369C8.73186 9.64881 7.88401 10 6.99996 10C6.1159 10 5.26806 9.64881 4.64294 9.02369C4.01782 8.39857 3.66663 7.55072 3.66663 6.66667C3.66663 6.29848 3.9651 6 4.33329 6Z" fill="inherit"/>
  </symbol>

  <symbol
    id="icon-heart"
    xmlns="http://www.w3.org/2000/svg"
    viewBox="0 0 16 16"
    fill="inherit"
  >
    <path fill-rule="evenodd" clip-rule="evenodd" d="M9.62852 1.63137C10.1584 1.4118 10.7264 1.29878 11.3 1.29878C11.8737 1.29878 12.4416 1.4118 12.9716 1.63137C13.5015 1.85094 13.983 2.17277 14.3885 2.57847C14.7941 2.98394 15.1158 3.46532 15.3353 3.99514C15.5549 4.52506 15.6679 5.09305 15.6679 5.66667C15.6679 6.24028 15.5549 6.80827 15.3353 7.33819C15.1158 7.86806 14.794 8.34949 14.3884 8.75497C14.3883 8.75501 14.3884 8.75493 14.3884 8.75497L8.49502 14.6483C8.22165 14.9217 7.77844 14.9217 7.50507 14.6483L1.61174 8.75497C0.792668 7.9359 0.33252 6.82501 0.33252 5.66667C0.33252 4.50833 0.792668 3.39743 1.61174 2.57836C2.43081 1.75929 3.54171 1.29914 4.70005 1.29914C5.85839 1.29914 6.96928 1.75929 7.78835 2.57836L8.00005 2.79005L8.21162 2.57847C8.21158 2.57851 8.21166 2.57844 8.21162 2.57847C8.61711 2.17283 9.09865 1.85092 9.62852 1.63137ZM13.3983 3.56819C13.1228 3.29256 12.7957 3.07392 12.4357 2.92474C12.0756 2.77556 11.6898 2.69878 11.3 2.69878C10.9103 2.69878 10.5245 2.77556 10.1644 2.92474C9.80441 3.07392 9.4773 3.29256 9.2018 3.56819L8.49502 4.27497C8.22165 4.54834 7.77844 4.54834 7.50507 4.27497L6.7984 3.56831C6.24189 3.01179 5.48708 2.69914 4.70005 2.69914C3.91301 2.69914 3.15821 3.01179 2.60169 3.56831C2.04517 4.12483 1.73252 4.87963 1.73252 5.66667C1.73252 6.4537 2.04517 7.20851 2.60169 7.76502L8.00005 13.1634L13.3984 7.76502C13.674 7.48953 13.8928 7.16231 14.042 6.80228C14.1911 6.44226 14.2679 6.05637 14.2679 5.66667C14.2679 5.27696 14.1911 4.89107 14.042 4.53105C13.8928 4.17103 13.6739 3.84369 13.3983 3.56819Z" fill="inherit"/>
  </symbol>

  <symbol
    id="icon-heart-fill"
    xmlns="http://www.w3.org/2000/svg"
    viewBox="0 0 16 16"
    fill="inherit"
  >
    <path fill-rule="evenodd" clip-rule="evenodd" d="M11.3 1.29878C10.7264 1.29878 10.1584 1.4118 9.62852 1.63137C9.09865 1.85092 8.61711 2.17283 8.21162 2.57847L8.00005 2.79005L7.78835 2.57836C6.96928 1.75929 5.85839 1.29914 4.70005 1.29914C3.54171 1.29914 2.43081 1.75929 1.61174 2.57836C0.792668 3.39743 0.33252 4.50833 0.33252 5.66667C0.33252 6.82501 0.792668 7.9359 1.61174 8.75497L7.50507 14.6483C7.77844 14.9217 8.22165 14.9217 8.49502 14.6483L14.3884 8.75497C14.794 8.34949 15.1158 7.86806 15.3353 7.33819C15.5549 6.80827 15.6679 6.24028 15.6679 5.66667C15.6679 5.09305 15.5549 4.52506 15.3353 3.99514C15.1158 3.46532 14.7941 2.98394 14.3885 2.57847C13.983 2.17277 13.5015 1.85094 12.9716 1.63137C12.4416 1.4118 11.8737 1.29878 11.3 1.29878Z" fill="inherit"/>
  </symbol>

  <symbol
    id="icon-minus"
    xmlns="http://www.w3.org/2000/svg"
    viewBox="0 0 16 16"
    fill="inherit"
  >
    <path fill-rule="evenodd" clip-rule="evenodd" d="M2.6665 7.99999C2.6665 7.63181 2.96498 7.33333 3.33317 7.33333H12.6665C13.0347 7.33333 13.3332 7.63181 13.3332 7.99999C13.3332 8.36818 13.0347 8.66666 12.6665 8.66666H3.33317C2.96498 8.66666 2.6665 8.36818 2.6665 7.99999Z" fill="inherit"/>
  </symbol>

  <symbol
    id="icon-plus"
    xmlns="http://www.w3.org/2000/svg"
    viewBox="0 0 16 16"
    fill="inherit"
  >
    <path fill-rule="evenodd" clip-rule="evenodd" d="M8.6665 3.33334C8.6665 2.96515 8.36803 2.66667 7.99984 2.66667C7.63165 2.66667 7.33317 2.96515 7.33317 3.33334V7.33334H3.33317C2.96498 7.33334 2.6665 7.63182 2.6665 8.00001C2.6665 8.3682 2.96498 8.66667 3.33317 8.66667H7.33317V12.6667C7.33317 13.0349 7.63165 13.3333 7.99984 13.3333C8.36803 13.3333 8.6665 13.0349 8.6665 12.6667V8.66667H12.6665C13.0347 8.66667 13.3332 8.3682 13.3332 8.00001C13.3332 7.63182 13.0347 7.33334 12.6665 7.33334H8.6665V3.33334Z" fill="inherit"/>
  </symbol>

  <symbol
    id="icon-close"
    xmlns="http://www.w3.org/2000/svg"
    viewBox="0 0 16 16"
    fill="inherit"
  >
    <path fill-rule="evenodd" clip-rule="evenodd" d="M12.4716 4.4714C12.7319 4.21105 12.7319 3.78894 12.4716 3.52859C12.2112 3.26824 11.7891 3.26824 11.5288 3.52859L8.00016 7.05719L4.47157 3.52859C4.21122 3.26824 3.78911 3.26824 3.52876 3.52859C3.26841 3.78894 3.26841 4.21105 3.52876 4.4714L7.05735 7.99999L3.52876 11.5286C3.26841 11.7889 3.26841 12.211 3.52876 12.4714C3.78911 12.7317 4.21122 12.7317 4.47157 12.4714L8.00016 8.9428L11.5288 12.4714C11.7891 12.7317 12.2112 12.7317 12.4716 12.4714C12.7319 12.211 12.7319 11.7889 12.4716 11.5286L8.94297 7.99999L12.4716 4.4714Z" fill="inherit"/>
  </symbol>

  <symbol
    id="icon-arrow-left"
    xmlns="http://www.w3.org/2000/svg"
    viewBox="0 0 16 16"
    fill="inherit"
  >
    <path fill-rule="evenodd" clip-rule="evenodd" d="M10.4715 3.52861C10.2111 3.26826 9.78903 3.26826 9.52868 3.52861L5.52868 7.52861C5.26833 7.78896 5.26833 8.21107 5.52868 8.47141L9.52868 12.4714C9.78903 12.7318 10.2111 12.7318 10.4715 12.4714C10.7318 12.2111 10.7318 11.789 10.4715 11.5286L6.94289 8.00001L10.4715 4.47141C10.7318 4.21107 10.7318 3.78896 10.4715 3.52861Z" fill="inherit"/>
  </symbol>

  <symbol
    id="icon-arrow-right"
    xmlns="http://www.w3.org/2000/svg"
    viewBox="0 0 16 16"
    fill="inherit"
  >
    <path fill-rule="evenodd" clip-rule="evenodd" d="M5.52876 3.52861C5.78911 3.26826 6.21122 3.26826 6.47157 3.52861L10.4716 7.52861C10.7319 7.78896 10.7319 8.21107 10.4716 8.47141L6.47157 12.4714C6.21122 12.7318 5.78911 12.7318 5.52876 12.4714C5.26841 12.2111 5.26841 11.789 5.52876 11.5286L9.05735 8.00001L5.52876 4.47141C5.26841 4.21107 5.26841 3.78896 5.52876 3.52861Z" fill="inherit"/>
  </symbol>

  <symbol
    id="icon-arrow-down"
    xmlns="http://www.w3.org/2000/svg"
    viewBox="0 0 16 16"
    fill="inherit"
  >
    <path fill-rule="evenodd" clip-rule="evenodd" d="M12.4715 5.52864C12.7318 5.78899 12.7318 6.2111 12.4715 6.47145L8.47149 10.4714C8.21114 10.7318 7.78903 10.7318 7.52868 10.4714L3.52868 6.47144C3.26833 6.2111 3.26833 5.78899 3.52868 5.52864C3.78903 5.26829 4.21114 5.26829 4.47149 5.52864L8.00008 9.05723L11.5287 5.52864C11.789 5.26829 12.2111 5.26829 12.4715 5.52864Z" fill="inherit"/>
  </symbol>

  <symbol
    id="icon-arrow-up"
    xmlns="http://www.w3.org/2000/svg"
    viewBox="0 0 16 16"
    fill="inherit"
  >
    <path fill-rule="evenodd" clip-rule="evenodd" d="M3.52876 10.4714C3.26841 10.211 3.26841 9.7889 3.52876 9.52855L7.52876 5.52856C7.78911 5.26821 8.21122 5.26821 8.47157 5.52856L12.4716 9.52856C12.7319 9.78891 12.7319 10.211 12.4716 10.4714C12.2112 10.7317 11.7891 10.7317 11.5288 10.4714L8.00016 6.94277L4.47157 10.4714C4.21122 10.7317 3.78911 10.7317 3.52876 10.4714Z" fill="inherit"/>
  </symbol>

  <symbol
    id="icon-burger"
    xmlns="http://www.w3.org/2000/svg"
    viewBox="0 0 16 16"
    fill="inherit"
  >
    <path fill-rule="evenodd" clip-rule="evenodd" d="M1.1 4C1.1 3.50294 1.50294 3.1 2 3.1H14C14.4971 3.1 14.9 3.50294 14.9 4C14.9 4.49706 14.4971 4.9 14 4.9H2C1.50294 4.9 1.1 4.49706 1.1 4ZM1.1 8C1.1 7.50294 1.50294 7.1 2 7.1H14C14.4971 7.1 14.9 7.50294 14.9 8C14.9 8.49706 14.4971 8.9 14 8.9H2C1.50294 8.9 1.1 8.49706 1.1 8ZM2 11.1C1.50294 11.1 1.1 11.5029 1.1 12C1.1 12.4971 1.50294 12.9 2 12.9H14C14.4971 12.9 14.9 12.4971 14.9 12C14.9 11.5029 14.4971 11.1 14 11.1H2Z" fill="inherit"/>
  </symbol>
</svg>
