<svg width="16" height="16" viewBox="0 0 16 16" fill="none" xmlns="http://www.w3.org/2000/svg">
<path fill-rule="evenodd" clip-rule="evenodd" d="M12.4716 4.47138C12.7319 4.21103 12.7319 3.78892 12.4716 3.52858C12.2112 3.26823 11.7891 3.26823 11.5288 3.52858L8.00016 7.05717L4.47157 3.52858C4.21122 3.26823 3.78911 3.26823 3.52876 3.52858C3.26841 3.78892 3.26841 4.21103 3.52876 4.47138L7.05735 7.99998L3.52876 11.5286C3.26841 11.7889 3.26841 12.211 3.52876 12.4714C3.78911 12.7317 4.21122 12.7317 4.47157 12.4714L8.00016 8.94279L11.5288 12.4714C11.7891 12.7317 12.2112 12.7317 12.4716 12.4714C12.7319 12.211 12.7319 11.7889 12.4716 11.5286L8.94297 7.99998L12.4716 4.47138Z" fill="#313237"/>
</svg>
