<?xml version="1.0" encoding="UTF-8" standalone="no"?>
<svg
   width="16"
   height="16"
   viewBox="0 0 16 16"
   fill="none"
   version="1.1"
   id="svg4"
   sodipodi:docname="close.svg"
   inkscape:version="1.1.2 (b8e25be833, 2022-02-05)"
   xmlns:inkscape="http://www.inkscape.org/namespaces/inkscape"
   xmlns:sodipodi="http://sodipodi.sourceforge.net/DTD/sodipodi-0.dtd"
   xmlns="http://www.w3.org/2000/svg"
   xmlns:svg="http://www.w3.org/2000/svg">
  <defs
     id="defs8" />
  <sodipodi:namedview
     id="namedview6"
     pagecolor="#ffffff"
     bordercolor="#666666"
     borderopacity="1.0"
     inkscape:pageshadow="2"
     inkscape:pageopacity="0.0"
     inkscape:pagecheckerboard="0"
     showgrid="false"
     inkscape:zoom="44.9375"
     inkscape:cx="1.6022253"
     inkscape:cy="8"
     inkscape:window-width="1271"
     inkscape:window-height="970"
     inkscape:window-x="-1798"
     inkscape:window-y="-412"
     inkscape:window-maximized="0"
     inkscape:current-layer="svg4" />
  <path
     fill-rule="evenodd"
     clip-rule="evenodd"
     d="M12.4714 4.4714C12.7318 4.21105 12.7318 3.78894 12.4714 3.52859C12.2111 3.26824 11.789 3.26824 11.5286 3.52859L8.00004 7.05719L4.47145 3.52859C4.2111 3.26824 3.78899 3.26824 3.52864 3.52859C3.26829 3.78894 3.26829 4.21105 3.52864 4.4714L7.05723 7.99999L3.52864 11.5286C3.26829 11.7889 3.26829 12.211 3.52864 12.4714C3.78899 12.7317 4.2111 12.7317 4.47145 12.4714L8.00004 8.9428L11.5286 12.4714C11.789 12.7317 12.2111 12.7317 12.4714 12.4714C12.7318 12.211 12.7318 11.7889 12.4714 11.5286L8.94285 7.99999L12.4714 4.4714Z"
     fill="#313237"
     id="path2"
     style="fill:#313237;fill-opacity:1" />
</svg>
