<svg width="16.000000" height="16.000000" viewBox="0 0 16 16" fill="none" xmlns="http://www.w3.org/2000/svg" xmlns:xlink="http://www.w3.org/1999/xlink">
	<desc>
			Created with Pixso.
	</desc>
	<defs/>
	<rect id="Icons/Close" width="16.000000" height="16.000000" fill="#FFFFFF" fill-opacity="0"/>
	<path id="Union" d="M12.4717 3.52859C12.7319 3.78894 12.7319 4.21104 12.4717 4.47141L8.94287 8L12.4717 11.5286C12.7319 11.7889 12.7319 12.211 12.4717 12.4714C12.2112 12.7318 11.7891 12.7318 11.5288 12.4714L8.00024 8.94281L4.47168 12.4714C4.21118 12.7318 3.78906 12.7318 3.52881 12.4714C3.26831 12.211 3.26831 11.7889 3.52881 11.5286L7.05737 8L3.52881 4.47141C3.26831 4.21104 3.26831 3.78894 3.52881 3.52859C3.78906 3.26823 4.21118 3.26823 4.47168 3.52859L8.00024 7.05719L11.5288 3.52859C11.7891 3.26823 12.2112 3.26823 12.4717 3.52859Z" clip-rule="evenodd" fill="#313237" fill-opacity="1.000000" fill-rule="evenodd"/>
</svg>
