<?xml version="1.0" encoding="UTF-8" standalone="no"?>
<svg
   version="1.1"
   width="256"
   height="256"
   viewBox="0 0 256 256"
   xml:space="preserve"
   id="svg8"
   sodipodi:docname="dark_mode.svg"
   inkscape:version="1.1.2 (b8e25be833, 2022-02-05)"
   xmlns:inkscape="http://www.inkscape.org/namespaces/inkscape"
   xmlns:sodipodi="http://sodipodi.sourceforge.net/DTD/sodipodi-0.dtd"
   xmlns="http://www.w3.org/2000/svg"
   xmlns:svg="http://www.w3.org/2000/svg"><sodipodi:namedview
   id="namedview10"
   pagecolor="#ffffff"
   bordercolor="#666666"
   borderopacity="1.0"
   inkscape:pageshadow="2"
   inkscape:pageopacity="0.0"
   inkscape:pagecheckerboard="0"
   showgrid="false"
   inkscape:zoom="1.4042969"
   inkscape:cx="-22.075104"
   inkscape:cy="179.80528"
   inkscape:window-width="1271"
   inkscape:window-height="970"
   inkscape:window-x="-1707"
   inkscape:window-y="-412"
   inkscape:window-maximized="0"
   inkscape:current-layer="g6" />

<defs
   id="defs2">
</defs>
<g
   style="opacity:1;fill:none;fill-rule:nonzero;stroke:none;stroke-width:0;stroke-linecap:butt;stroke-linejoin:miter;stroke-miterlimit:10;stroke-dasharray:none"
   transform="matrix(2.81,0,0,2.81,1.4065934,1.4065934)"
   id="g6">
	<path
   d="M 45,0 C 20.147,0 0,20.147 0,45 0,69.853 20.147,90 45,90 69.853,90 90,69.853 90,45 90,20.147 69.853,0 45,0 Z m 15.41,24.239 2.412,-2.412 c 1.172,-1.172 3.07,-1.172 4.242,0 1.172,1.171 1.172,3.071 0,4.242 l -2.412,2.412 c -0.586,0.586 -1.354,0.879 -2.121,0.879 -0.767,0 -1.535,-0.293 -2.121,-0.879 -1.172,-1.171 -1.172,-3.071 0,-4.242 z M 42,15.687 c 0,-1.657 1.343,-3 3,-3 1.657,0 3,1.343 3,3 v 3.412 c 0,1.657 -1.343,3 -3,3 -1.657,0 -3,-1.343 -3,-3 z m -19.065,6.14 c 1.171,-1.171 3.07,-1.172 4.243,0 l 2.413,2.412 c 1.172,1.171 1.172,3.071 0,4.243 -0.586,0.586 -1.354,0.879 -2.122,0.879 -0.768,0 -1.535,-0.293 -2.121,-0.878 l -2.413,-2.412 c -1.172,-1.173 -1.172,-3.072 0,-4.244 z m -6.14,25.064 c -1.657,0 -3,-1.343 -3,-3 0,-1.657 1.343,-3 3,-3 h 3.412 c 1.657,0 3,1.343 3,3 0,1.657 -1.343,3 -3,3 z m 12.795,16.653 -2.413,2.412 c -0.585,0.586 -1.354,0.879 -2.121,0.879 -0.768,0 -1.536,-0.293 -2.122,-0.879 -1.171,-1.172 -1.171,-3.071 0,-4.242 l 2.413,-2.412 c 1.171,-1.172 3.071,-1.172 4.243,0 1.172,1.172 1.172,3.071 0,4.242 z M 57.516,52.29 c -2.454,3.891 -4.061,8.244 -4.497,12.785 -0.069,0.724 -0.679,1.276 -1.406,1.276 h -0.286 v 2.282 1.946 c 0,1.611 -1.306,2.916 -2.916,2.916 H 41.59 c -1.611,0 -2.916,-1.306 -2.916,-2.916 V 68.633 66.35 h -0.286 c -0.728,0 -1.337,-0.551 -1.406,-1.276 C 36.546,60.533 34.94,56.18 32.485,52.289 32.03,51.568 31.644,50.8 31.317,50.002 c -0.705,-1.723 -1.101,-3.606 -1.101,-5.583 0,-8.166 6.62,-14.785 14.785,-14.785 8.165,0 14.785,6.62 14.785,14.785 0,1.977 -0.396,3.86 -1.101,5.583 -0.327,0.799 -0.714,1.566 -1.169,2.288 z m 9.548,13.666 c -0.586,0.586 -1.354,0.879 -2.121,0.879 -0.767,0 -1.535,-0.293 -2.121,-0.879 L 60.41,63.544 c -1.172,-1.171 -1.172,-3.071 0,-4.242 1.172,-1.172 3.07,-1.172 4.242,0 l 2.412,2.412 c 1.172,1.171 1.172,3.071 0,4.242 z m 6.14,-19.065 h -3.411 c -1.657,0 -3,-1.343 -3,-3 0,-1.657 1.343,-3 3,-3 h 3.411 c 1.657,0 3,1.343 3,3 0,1.657 -1.343,3 -3,3 z"
   style="opacity:1;fill:#313237;fill-opacity:1;fill-rule:nonzero;stroke:none;stroke-width:1;stroke-linecap:butt;stroke-linejoin:miter;stroke-miterlimit:10;stroke-dasharray:none"
   stroke-linecap="round"
   id="path4" />
</g>
</svg>
