<svg xmlns="http://www.w3.org/2000/svg" xmlns:xlink="http://www.w3.org/1999/xlink" version="1.1" width="256" height="256" viewBox="0 0 256 256" xml:space="preserve">

<defs>
</defs>
<g style="stroke: none; stroke-width: 0; stroke-dasharray: none; stroke-linecap: butt; stroke-linejoin: miter; stroke-miterlimit: 10; fill: none; fill-rule: nonzero; opacity: 1;" transform="translate(1.4065934065934016 1.4065934065934016) scale(2.81 2.81)" >
	<path d="M 45 0 C 20.147 0 0 20.147 0 45 c 0 24.853 20.147 45 45 45 s 45 -20.147 45 -45 C 90 20.147 69.853 0 45 0 z M 60.41 24.239 l 2.412 -2.412 c 1.172 -1.172 3.07 -1.172 4.242 0 c 1.172 1.171 1.172 3.071 0 4.242 l -2.412 2.412 c -0.586 0.586 -1.354 0.879 -2.121 0.879 s -1.535 -0.293 -2.121 -0.879 C 59.238 27.31 59.238 25.41 60.41 24.239 z M 42 15.687 c 0 -1.657 1.343 -3 3 -3 c 1.657 0 3 1.343 3 3 v 3.412 c 0 1.657 -1.343 3 -3 3 c -1.657 0 -3 -1.343 -3 -3 V 15.687 z M 22.935 21.827 c 1.171 -1.171 3.07 -1.172 4.243 0 l 2.413 2.412 c 1.172 1.171 1.172 3.071 0 4.243 c -0.586 0.586 -1.354 0.879 -2.122 0.879 c -0.768 0 -1.535 -0.293 -2.121 -0.878 l -2.413 -2.412 C 21.763 24.898 21.763 22.999 22.935 21.827 z M 16.795 46.891 c -1.657 0 -3 -1.343 -3 -3 s 1.343 -3 3 -3 h 3.412 c 1.657 0 3 1.343 3 3 s -1.343 3 -3 3 H 16.795 z M 29.59 63.544 l -2.413 2.412 c -0.585 0.586 -1.354 0.879 -2.121 0.879 c -0.768 0 -1.536 -0.293 -2.122 -0.879 c -1.171 -1.172 -1.171 -3.071 0 -4.242 l 2.413 -2.412 c 1.171 -1.172 3.071 -1.172 4.243 0 C 30.762 60.474 30.762 62.373 29.59 63.544 z M 57.516 52.29 c -2.454 3.891 -4.061 8.244 -4.497 12.785 c -0.069 0.724 -0.679 1.276 -1.406 1.276 h -0.286 v 2.282 v 1.946 c 0 1.611 -1.306 2.916 -2.916 2.916 h -6.821 c -1.611 0 -2.916 -1.306 -2.916 -2.916 v -1.946 V 66.35 h -0.286 c -0.728 0 -1.337 -0.551 -1.406 -1.276 c -0.436 -4.541 -2.042 -8.894 -4.497 -12.785 c -0.455 -0.721 -0.841 -1.489 -1.168 -2.287 c -0.705 -1.723 -1.101 -3.606 -1.101 -5.583 c 0 -8.166 6.62 -14.785 14.785 -14.785 s 14.785 6.62 14.785 14.785 c 0 1.977 -0.396 3.86 -1.101 5.583 C 58.358 50.801 57.971 51.568 57.516 52.29 z M 67.064 65.956 c -0.586 0.586 -1.354 0.879 -2.121 0.879 s -1.535 -0.293 -2.121 -0.879 l -2.412 -2.412 c -1.172 -1.171 -1.172 -3.071 0 -4.242 c 1.172 -1.172 3.07 -1.172 4.242 0 l 2.412 2.412 C 68.236 62.885 68.236 64.785 67.064 65.956 z M 73.204 46.891 h -3.411 c -1.657 0 -3 -1.343 -3 -3 s 1.343 -3 3 -3 h 3.411 c 1.657 0 3 1.343 3 3 S 74.861 46.891 73.204 46.891 z" style="stroke: none; stroke-width: 1; stroke-dasharray: none; stroke-linecap: butt; stroke-linejoin: miter; stroke-miterlimit: 10; fill: rgb(0,0,0); fill-rule: nonzero; opacity: 1;" transform=" matrix(1 0 0 1 0 0) " stroke-linecap="round" />
</g>
</svg>