<svg width="66" height="65" viewBox="0 0 66 65" fill="none" xmlns="http://www.w3.org/2000/svg">
<g filter="url(#filter0_d_2_109)">
<rect x="1" width="64" height="64" fill="white"/>
</g>
<path fill-rule="evenodd" clip-rule="evenodd" d="M34.6285 25.6314C35.1584 25.4118 35.7264 25.2988 36.3 25.2988C36.8736 25.2988 37.4416 25.4118 37.9715 25.6314C38.5014 25.8509 38.9829 26.1728 39.3884 26.5785C39.794 26.9839 40.1157 27.4653 40.3353 27.9951C40.5549 28.525 40.6679 29.093 40.6679 29.6667C40.6679 30.2403 40.5549 30.8083 40.3353 31.3382C40.1157 31.868 39.7939 32.3495 39.3883 32.755C39.3883 32.755 39.3883 32.7549 39.3883 32.755L33.495 38.6483C33.2216 38.9217 32.7784 38.9217 32.505 38.6483L26.6117 32.755C25.7926 31.9359 25.3325 30.825 25.3325 29.6667C25.3325 28.5083 25.7926 27.3974 26.6117 26.5783C27.4307 25.7593 28.5416 25.2991 29.7 25.2991C30.8583 25.2991 31.9692 25.7593 32.7883 26.5783L33 26.79L33.2116 26.5785C33.2115 26.5785 33.2116 26.5784 33.2116 26.5785C33.617 26.1728 34.0986 25.8509 34.6285 25.6314ZM38.3982 27.5682C38.1227 27.2925 37.7956 27.0739 37.4356 26.9247C37.0756 26.7755 36.6897 26.6988 36.3 26.6988C35.9103 26.6988 35.5244 26.7755 35.1644 26.9247C34.8043 27.0739 34.4772 27.2925 34.2017 27.5682L33.495 28.275C33.2216 28.5483 32.7784 28.5483 32.505 28.275L31.7983 27.5683C31.2418 27.0118 30.487 26.6991 29.7 26.6991C28.9129 26.6991 28.1581 27.0118 27.6016 27.5683C27.0451 28.1248 26.7325 28.8796 26.7325 29.6667C26.7325 30.4537 27.0451 31.2085 27.6016 31.765L33 37.1634L38.3983 31.765C38.674 31.4895 38.8927 31.1623 39.0419 30.8023C39.1911 30.4422 39.2679 30.0564 39.2679 29.6667C39.2679 29.2769 39.1911 28.8911 39.0419 28.531C38.8927 28.171 38.6739 27.8437 38.3982 27.5682Z" fill="#333333"/>
<defs>
<filter id="filter0_d_2_109" x="0" y="0" width="65" height="64" filterUnits="userSpaceOnUse" color-interpolation-filters="sRGB">
<feFlood flood-opacity="0" result="BackgroundImageFix"/>
<feColorMatrix in="SourceAlpha" type="matrix" values="0 0 0 0 0 0 0 0 0 0 0 0 0 0 0 0 0 0 127 0" result="hardAlpha"/>
<feOffset dx="-1"/>
<feColorMatrix type="matrix" values="0 0 0 0 0.886275 0 0 0 0 0.901961 0 0 0 0 0.913725 0 0 0 1 0"/>
<feBlend mode="normal" in2="BackgroundImageFix" result="effect1_dropShadow_2_109"/>
<feBlend mode="normal" in="SourceGraphic" in2="effect1_dropShadow_2_109" result="shape"/>
</filter>
</defs>
</svg>
