<svg width="14" height="16" viewBox="0 0 14 16" fill="none" xmlns="http://www.w3.org/2000/svg">
<path fill-rule="evenodd" clip-rule="evenodd" d="M2.46671 0.933293C2.59261 0.765422 2.7902 0.666626 3.00004 0.666626H11C11.2099 0.666626 11.4075 0.765422 11.5334 0.933293L13.5334 3.59996C13.6199 3.71536 13.6667 3.85571 13.6667 3.99996V13.3333C13.6667 13.8637 13.456 14.3724 13.0809 14.7475C12.7058 15.1226 12.1971 15.3333 11.6667 15.3333H2.33337C1.80294 15.3333 1.29423 15.1226 0.91916 14.7475C0.544088 14.3724 0.333374 13.8637 0.333374 13.3333V3.99996C0.333374 3.85571 0.380159 3.71536 0.466707 3.59996L2.46671 0.933293ZM3.33337 1.99996L1.66671 4.22218V13.3333C1.66671 13.5101 1.73695 13.6797 1.86197 13.8047C1.98699 13.9297 2.15656 14 2.33337 14H11.6667C11.8435 14 12.0131 13.9297 12.1381 13.8047C12.2631 13.6797 12.3334 13.5101 12.3334 13.3333V4.22218L10.6667 1.99996H3.33337Z" fill="#313237"/>
<path fill-rule="evenodd" clip-rule="evenodd" d="M0.333374 3.99998C0.333374 3.63179 0.631851 3.33331 1.00004 3.33331H13C13.3682 3.33331 13.6667 3.63179 13.6667 3.99998C13.6667 4.36817 13.3682 4.66665 13 4.66665H1.00004C0.631851 4.66665 0.333374 4.36817 0.333374 3.99998Z" fill="#313237"/>
<path fill-rule="evenodd" clip-rule="evenodd" d="M4.33329 6C4.70148 6 4.99996 6.29848 4.99996 6.66667C4.99996 7.1971 5.21067 7.70581 5.58575 8.08088C5.96082 8.45595 6.46953 8.66667 6.99996 8.66667C7.53039 8.66667 8.0391 8.45595 8.41417 8.08088C8.78925 7.70581 8.99996 7.1971 8.99996 6.66667C8.99996 6.29848 9.29844 6 9.66663 6C10.0348 6 10.3333 6.29848 10.3333 6.66667C10.3333 7.55072 9.9821 8.39857 9.35698 9.02369C8.73186 9.64881 7.88401 10 6.99996 10C6.1159 10 5.26806 9.64881 4.64294 9.02369C4.01782 8.39857 3.66663 7.55072 3.66663 6.66667C3.66663 6.29848 3.9651 6 4.33329 6Z" fill="#313237"/>
</svg>
