<svg width="16.000000" height="16.000000" viewBox="0 0 16 16" fill="none" xmlns="http://www.w3.org/2000/svg" xmlns:xlink="http://www.w3.org/1999/xlink">
	<desc>
			Created with Pixso.
	</desc>
	<defs/>
	<rect id="Icons/Home" width="16.000000" height="16.000000" fill="#FFFFFF" fill-opacity="0"/>
	<path id="Vector (Stroke)" d="M7.5907 0.807098C7.83154 0.619843 8.16858 0.619843 8.4093 0.807098L14.4093 5.47375C14.5718 5.60007 14.6667 5.79425 14.6667 6L14.6667 13.3333C14.6667 13.8638 14.4561 14.3725 14.0809 14.7475C13.7058 15.1226 13.1971 15.3333 12.6667 15.3333L3.33337 15.3333C2.80298 15.3333 2.29419 15.1226 1.91919 14.7475C1.54407 14.3725 1.33337 13.8638 1.33337 13.3333L1.33337 6C1.33337 5.79425 1.42834 5.60007 1.5907 5.47375L7.5907 0.807098ZM2.66675 6.32605L2.66675 13.3333C2.66675 13.5101 2.73694 13.6797 2.86194 13.8047C2.98694 13.9297 3.15662 14 3.33337 14L12.6667 14C12.8435 14 13.0131 13.9297 13.1381 13.8047C13.2632 13.6797 13.3334 13.5101 13.3334 13.3333L13.3334 6.32605L8 2.17789L2.66675 6.32605Z" fill="#313237" fill-opacity="1.000000" fill-rule="evenodd"/>
	<path id="Vector (Stroke)" d="M5.33337 8C5.33337 7.63181 5.63184 7.33334 6 7.33334L10 7.33334C10.3683 7.33334 10.6667 7.63181 10.6667 8L10.6667 14.6667C10.6667 15.0349 10.3683 15.3333 10 15.3333C9.63184 15.3333 9.33337 15.0349 9.33337 14.6667L9.33337 8.66669L6.66675 8.66669L6.66675 14.6667C6.66675 15.0349 6.36829 15.3333 6 15.3333C5.63184 15.3333 5.33337 15.0349 5.33337 14.6667L5.33337 8Z" fill="#313237" fill-opacity="1.000000" fill-rule="evenodd"/>
</svg>
