<svg width="16" height="16" viewBox="0 0 16 16" fill="none" xmlns="http://www.w3.org/2000/svg">
<path d="M6.00016 14C6.00016 14.3333 6.26683 14.6667 6.66683 14.6667H9.3335C9.7335 14.6667 10.0002 14.3333 10.0002 14V13.3333H6.00016V14ZM8.00016 1.33334C5.40016 1.33334 3.3335 3.4 3.3335 6C3.3335 7.6 4.1335 9 5.3335 9.8V11.3333C5.3335 11.6667 5.60016 12 6.00016 12H10.0002C10.4002 12 10.6668 11.6667 10.6668 11.3333V9.8C11.8668 8.93334 12.6668 7.53334 12.6668 6C12.6668 3.4 10.6002 1.33334 8.00016 1.33334Z" fill="#F7FF9C"/>
</svg>
