<svg width="14" height="16" viewBox="0 0 14 16" fill="none" xmlns="http://www.w3.org/2000/svg">
<path fill-rule="evenodd" clip-rule="evenodd" d="M6.59038 0.807088C6.83112 0.619846 7.16823 0.619846 7.40897 0.807088L13.409 5.47375C13.5714 5.60006 13.6663 5.79426 13.6663 5.99999V13.3333C13.6663 13.8638 13.4556 14.3725 13.0806 14.7475C12.7055 15.1226 12.1968 15.3333 11.6663 15.3333H2.33301C1.80257 15.3333 1.29387 15.1226 0.918794 14.7475C0.543721 14.3725 0.333008 13.8638 0.333008 13.3333V5.99999C0.333008 5.79426 0.42799 5.60006 0.590381 5.47375L6.59038 0.807088ZM1.66634 6.32605V13.3333C1.66634 13.5101 1.73658 13.6797 1.8616 13.8047C1.98663 13.9298 2.1562 14 2.33301 14H11.6663C11.8432 14 12.0127 13.9298 12.1377 13.8047C12.2628 13.6797 12.333 13.5101 12.333 13.3333V6.32605L6.99967 2.1779L1.66634 6.32605Z" fill="#313237"/>
</svg>
