<?xml version="1.0" encoding="iso-8859-1"?>
<!-- Uploaded to: SVG Repo, www.svgrepo.com, Generator: SVG Repo Mixer Tools -->
<svg fill="currentColor" height="800px" width="800px" version="1.1" id="Layer_1" xmlns="http://www.w3.org/2000/svg" xmlns:xlink="http://www.w3.org/1999/xlink"
	 viewBox="0 0 187.193 187.193" xml:space="preserve">
<g>
	<g>
		<g>
			<path d="M161.363,24.33c-9.226-9.895-20.166-17.585-32.514-22.858c-1.292-0.548-2.796-0.289-3.832,0.672
				c-1.031,0.963-1.398,2.443-0.937,3.777c11.533,33.276,2.347,70.294-23.404,94.308c-25.749,24.015-63.321,30.593-95.711,16.767
				c-1.295-0.55-2.8-0.291-3.832,0.672c-1.031,0.963-1.398,2.443-0.937,3.777c4.4,12.688,11.307,24.136,20.533,34.029
				c18.908,20.275,44.595,30.53,70.35,30.53c23.493-0.002,47.042-8.537,65.539-25.784c18.781-17.516,29.618-41.296,30.515-66.962
				C188.03,67.592,178.877,43.114,161.363,24.33z M180.007,93.009c-0.83,23.763-10.865,45.779-28.253,61.994
				c-35.898,33.471-92.338,31.504-125.808-4.395c-6.723-7.208-12.116-15.306-16.093-24.151c20.327,6.696,42.028,6.289,61.731-0.568
				c1.999,8.356,9.472,24.87,37.302,24.87c1.969,0,3.566-1.597,3.566-3.566s-1.597-3.566-3.566-3.566
				c-24.537,0-29.583-14.57-30.622-20.325c9.879-4.286,19.128-10.259,27.277-17.858c25.796-24.057,36.203-60.197,27.635-93.989
				c8.545,4.583,16.248,10.528,22.971,17.738C172.363,46.584,180.836,69.246,180.007,93.009z"/>
			<path d="M137.563,82.922c-1.393-1.393-3.649-1.393-5.042,0s-1.393,3.649,0,5.042l17.829,17.829
				c0.696,0.696,1.609,1.045,2.521,1.045c0.912,0,1.825-0.348,2.521-1.045c1.393-1.393,1.393-3.649,0-5.042L137.563,82.922z"/>
			<path d="M140.203,100.083l-7.132-3.566c-1.769-0.883-3.905-0.165-4.785,1.595c-0.881,1.762-0.167,3.903,1.595,4.785l7.132,3.566
				c0.512,0.256,1.057,0.376,1.591,0.376c1.309,0,2.568-0.721,3.193-1.971C142.679,103.106,141.965,100.964,140.203,100.083z"/>
		</g>
	</g>
</g>
</svg>
