<svg xmlns="http://www.w3.org/2000/svg"  viewBox="0 0 48 48" width="48px" height="48px"><path d="M 23.984375 -0.013671875 A 1.0001 1.0001 0 0 0 23 1 L 23 5 A 1.0001 1.0001 0 1 0 25 5 L 25 1 A 1.0001 1.0001 0 0 0 23.984375 -0.013671875 z M 7.7265625 6.7265625 A 1.0001 1.0001 0 0 0 7.0292969 8.4433594 L 9.8574219 11.271484 A 1.0001 1.0001 0 1 0 11.271484 9.8574219 L 8.4433594 7.0292969 A 1.0001 1.0001 0 0 0 7.7265625 6.7265625 z M 40.244141 6.7265625 A 1.0001 1.0001 0 0 0 39.556641 7.0292969 L 36.728516 9.8574219 A 1.0001 1.0001 0 1 0 38.142578 11.271484 L 40.970703 8.4433594 A 1.0001 1.0001 0 0 0 40.244141 6.7265625 z M 24 8 C 15.175283 8 8 15.17529 8 24 C 8 32.82471 15.175283 40 24 40 C 32.824717 40 40 32.82471 40 24 C 40 15.17529 32.824717 8 24 8 z M 24 10 C 31.743837 10 38 16.256168 38 24 C 38 31.743832 31.743837 38 24 38 C 16.256163 38 10 31.743832 10 24 C 10 16.256168 16.256163 10 24 10 z M 1 23 A 1.0001 1.0001 0 1 0 1 25 L 5 25 A 1.0001 1.0001 0 1 0 5 23 L 1 23 z M 43 23 A 1.0001 1.0001 0 1 0 43 25 L 47 25 A 1.0001 1.0001 0 1 0 47 23 L 43 23 z M 10.544922 36.425781 A 1.0001 1.0001 0 0 0 9.8574219 36.728516 L 7.0292969 39.556641 A 1.0001 1.0001 0 1 0 8.4433594 40.970703 L 11.271484 38.142578 A 1.0001 1.0001 0 0 0 10.544922 36.425781 z M 37.423828 36.425781 A 1.0001 1.0001 0 0 0 36.728516 38.142578 L 39.556641 40.970703 A 1.0001 1.0001 0 1 0 40.970703 39.556641 L 38.142578 36.728516 A 1.0001 1.0001 0 0 0 37.423828 36.425781 z M 23.984375 41.986328 A 1.0001 1.0001 0 0 0 23 43 L 23 47 A 1.0001 1.0001 0 1 0 25 47 L 25 43 A 1.0001 1.0001 0 0 0 23.984375 41.986328 z" fill='currentColor'/></svg>
