<svg width="10" height="10" viewBox="0 0 10 10" fill="none" xmlns="http://www.w3.org/2000/svg">
<path fill-rule="evenodd" clip-rule="evenodd" d="M9.47157 1.47145C9.73192 1.2111 9.73192 0.788986 9.47157 0.528636C9.21122 0.268287 8.78911 0.268287 8.52876 0.528636L5.00016 4.05723L1.47157 0.528636C1.21122 0.268287 0.789108 0.268287 0.528758 0.528636C0.268409 0.788986 0.268409 1.2111 0.528758 1.47145L4.05735 5.00004L0.528758 8.52864C0.268409 8.78899 0.268409 9.21109 0.528758 9.47144C0.789108 9.73179 1.21122 9.73179 1.47157 9.47144L5.00016 5.94285L8.52876 9.47144C8.78911 9.73179 9.21122 9.73179 9.47157 9.47144C9.73192 9.21109 9.73192 8.78899 9.47157 8.52864L5.94297 5.00004L9.47157 1.47145Z" fill="#B4BDC4"/>
</svg>
