<svg width="40" height="40" viewBox="0 0 40 40" fill="none" xmlns="http://www.w3.org/2000/svg">
<rect x="0.5" y="0.5" width="39" height="39" stroke="#B4BDC4"/>
<path fill-rule="evenodd" clip-rule="evenodd" d="M21.6285 13.6314C22.1584 13.4118 22.7264 13.2988 23.3 13.2988C23.8737 13.2988 24.4416 13.4118 24.9716 13.6314C25.5015 13.8509 25.983 14.1728 26.3885 14.5785C26.7941 14.9839 27.1158 15.4653 27.3353 15.9951C27.5549 16.5251 27.6679 17.093 27.6679 17.6667C27.6679 18.2403 27.5549 18.8083 27.3353 19.3382C27.1158 19.8681 26.794 20.3495 26.3884 20.755C26.3883 20.755 26.3884 20.7549 26.3884 20.755L20.495 26.6483C20.2217 26.9217 19.7784 26.9217 19.5051 26.6483L13.6117 20.755C12.7927 19.9359 12.3325 18.825 12.3325 17.6667C12.3325 16.5083 12.7927 15.3974 13.6117 14.5784C14.4308 13.7593 15.5417 13.2991 16.7 13.2991C17.8584 13.2991 18.9693 13.7593 19.7884 14.5784L20 14.79L20.2116 14.5785C20.2116 14.5785 20.2117 14.5784 20.2116 14.5785C20.6171 14.1728 21.0986 13.8509 21.6285 13.6314ZM25.3983 15.5682C25.1228 15.2926 24.7957 15.0739 24.4357 14.9247C24.0756 14.7756 23.6898 14.6988 23.3 14.6988C22.9103 14.6988 22.5245 14.7756 22.1644 14.9247C21.8044 15.0739 21.4773 15.2926 21.2018 15.5682L20.495 16.275C20.2217 16.5483 19.7784 16.5483 19.5051 16.275L18.7984 15.5683C18.2419 15.0118 17.4871 14.6991 16.7 14.6991C15.913 14.6991 15.1582 15.0118 14.6017 15.5683C14.0452 16.1248 13.7325 16.8796 13.7325 17.6667C13.7325 18.4537 14.0452 19.2085 14.6017 19.765L20 25.1634L25.3984 19.765C25.674 19.4895 25.8928 19.1623 26.042 18.8023C26.1911 18.4423 26.2679 18.0564 26.2679 17.6667C26.2679 17.277 26.1911 16.8911 26.042 16.531C25.8928 16.171 25.6739 15.8437 25.3983 15.5682Z" fill="#313237"/>
</svg>
