<svg width="16" height="16" viewBox="0 0 16 16" fill="none" xmlns="http://www.w3.org/2000/svg">
<path fill-rule="evenodd" clip-rule="evenodd" d="M3.46732 0.933323C3.59322 0.765453 3.79081 0.666656 4.00065 0.666656H12.0007C12.2105 0.666656 12.4081 0.765453 12.534 0.933323L14.534 3.59999C14.6205 3.71539 14.6673 3.85574 14.6673 3.99999V13.3333C14.6673 13.8638 14.4566 14.3725 14.0815 14.7475C13.7065 15.1226 13.1978 15.3333 12.6673 15.3333H3.33398C2.80355 15.3333 2.29484 15.1226 1.91977 14.7475C1.5447 14.3725 1.33398 13.8638 1.33398 13.3333V3.99999C1.33398 3.85574 1.38077 3.71539 1.46732 3.59999L3.46732 0.933323ZM4.33398 1.99999L2.66732 4.22221V13.3333C2.66732 13.5101 2.73756 13.6797 2.86258 13.8047C2.9876 13.9298 3.15717 14 3.33398 14H12.6673C12.8441 14 13.0137 13.9298 13.1387 13.8047C13.2637 13.6797 13.334 13.5101 13.334 13.3333V4.22221L11.6673 1.99999H4.33398Z" fill="#313237"/>
<path fill-rule="evenodd" clip-rule="evenodd" d="M1.33398 4.00001C1.33398 3.63182 1.63246 3.33334 2.00065 3.33334H14.0007C14.3688 3.33334 14.6673 3.63182 14.6673 4.00001C14.6673 4.3682 14.3688 4.66668 14.0007 4.66668H2.00065C1.63246 4.66668 1.33398 4.3682 1.33398 4.00001Z" fill="#313237"/>
<path fill-rule="evenodd" clip-rule="evenodd" d="M5.33464 6C5.70283 6 6.0013 6.29848 6.0013 6.66667C6.0013 7.1971 6.21202 7.70581 6.58709 8.08088C6.96216 8.45595 7.47087 8.66667 8.0013 8.66667C8.53173 8.66667 9.04044 8.45595 9.41552 8.08088C9.79059 7.70581 10.0013 7.1971 10.0013 6.66667C10.0013 6.29848 10.2998 6 10.668 6C11.0362 6 11.3346 6.29848 11.3346 6.66667C11.3346 7.55072 10.9834 8.39857 10.3583 9.02369C9.7332 9.64881 8.88536 10 8.0013 10C7.11725 10 6.2694 9.64881 5.64428 9.02369C5.01916 8.39857 4.66797 7.55072 4.66797 6.66667C4.66797 6.29848 4.96645 6 5.33464 6Z" fill="#313237"/>
</svg>
