<svg xmlns="http://www.w3.org/2000/svg" fill="#000" viewBox="0 0 114.5 122.9">
    <path
        d="M85.1 4v14.7h-5.4V7.1H6v98.5h44v9.5a18.1 18.1 0 0 0 1.5 7l.3.8H4a4 4 0 0 1-4-4V4a4 4 0 0 1 4-4h77.1a4 4 0 0 1 4 4ZM70.6 31H105a9.5 9.5 0 0 1 9.5 9.6v72.8a9.5 9.5 0 0 1-9.5 9.5H70.6a9.5 9.5 0 0 1-9.5-9.5V40.5a9.5 9.5 0 0 1 9.5-9.5Zm-6.3 78.7h47V41.4h-47v68.3Zm23.5 3a4 4 0 1 1-4 3.9 3.9 3.9 0 0 1 4-4Zm-47.2-3.1a4.6 4.6 0 1 1-4.5 4.6 4.6 4.6 0 0 1 4.5-4.6Z"
        style="fill-rule:evenodd" />
</svg>