<svg width="89" height="31" viewBox="0 0 89 31" fill="none" xmlns="http://www.w3.org/2000/svg">
<path d="M11.4173 0.92832V14.1519H8.70044L3.42843 6.51995H3.34433V14.1519H0.142312V0.92832H2.89799L8.11179 8.5474H8.22176V0.92832H11.4173Z" fill="#F447AF"/>
<path d="M16.6327 0.92832V14.1519H13.4307V0.92832H16.6327Z" fill="#F447AF"/>
<path d="M30.6682 5.7193H27.4339C27.3908 5.38785 27.3023 5.08868 27.1687 4.8218C27.035 4.55492 26.8582 4.32677 26.6382 4.13737C26.4183 3.94797 26.1574 3.80377 25.8555 3.70476C25.5579 3.60145 25.228 3.5498 24.8658 3.5498C24.2232 3.5498 23.6691 3.70692 23.2033 4.02115C22.7419 4.33538 22.3861 4.78951 22.136 5.38354C21.8902 5.97757 21.7673 6.69644 21.7673 7.54013C21.7673 8.41826 21.8923 9.15434 22.1425 9.74837C22.3969 10.3381 22.7527 10.7836 23.2098 11.0849C23.6712 11.382 24.2168 11.5305 24.8464 11.5305C25.2 11.5305 25.5213 11.4853 25.8102 11.3949C26.1035 11.3045 26.3601 11.1732 26.58 11.001C26.8043 10.8245 26.9875 10.6114 27.1299 10.3618C27.2765 10.1078 27.3778 9.82155 27.4339 9.50301L30.6682 9.52238C30.6122 10.1078 30.4418 10.6846 30.1572 11.2528C29.8769 11.821 29.4909 12.3397 28.9993 12.8089C28.5077 13.2738 27.9083 13.644 27.201 13.9195C26.4981 14.195 25.6916 14.3327 24.7817 14.3327C23.5828 14.3327 22.509 14.0702 21.5603 13.545C20.6158 13.0155 19.8698 12.245 19.3221 11.2334C18.7744 10.2219 18.5006 8.99077 18.5006 7.54013C18.5006 6.08519 18.7787 4.85193 19.335 3.84036C19.8913 2.82879 20.6439 2.06042 21.5926 1.53526C22.5414 1.01011 23.6044 0.747528 24.7817 0.747528C25.5838 0.747528 26.3256 0.859447 27.0069 1.08328C27.6883 1.30282 28.2878 1.62566 28.8053 2.05181C29.3227 2.47366 29.7432 2.99236 30.0667 3.60791C30.3901 4.22346 30.5906 4.92726 30.6682 5.7193Z" fill="#F447AF"/>
<path d="M32.5005 14.1519V0.92832H41.7379V3.52397H35.7025V6.23585H41.2656V8.83796H35.7025V11.5563H41.7379V14.1519H32.5005Z" fill="#F447AF"/>
<path d="M8.83628 21.9152C8.76297 21.644 8.65516 21.4051 8.51285 21.1985C8.37053 20.9876 8.19588 20.809 7.98888 20.6626C7.78188 20.5162 7.54469 20.4065 7.27732 20.3333C7.00995 20.2558 6.7167 20.2171 6.39757 20.2171C5.75501 20.2171 5.1987 20.372 4.72864 20.682C4.26289 20.9919 3.9028 21.4439 3.64836 22.0379C3.39393 22.6276 3.26671 23.3443 3.26671 24.188C3.26671 25.036 3.38961 25.7592 3.63543 26.3575C3.88124 26.9559 4.23702 27.4122 4.70277 27.7264C5.16851 28.0406 5.73345 28.1977 6.39757 28.1977C6.98407 28.1977 7.48001 28.103 7.88538 27.9136C8.29507 27.7199 8.60557 27.4466 8.81688 27.0936C9.02819 26.7406 9.13385 26.3253 9.13385 25.8474L9.72897 25.9185H6.50754V23.5875H12.2194V25.3374C12.2194 26.5211 11.9671 27.5348 11.4626 28.3785C10.9623 29.2222 10.2723 29.8701 9.39259 30.322C8.51716 30.774 7.51019 31 6.3717 31C5.10814 31 3.99767 30.7267 3.0403 30.18C2.08293 29.6333 1.33687 28.8542 0.802122 27.8426C0.267374 26.8267 0 25.6215 0 24.2268C0 23.142 0.161718 22.18 0.485155 21.3406C0.808591 20.4969 1.25925 19.7823 1.83712 19.1969C2.4193 18.6115 3.09205 18.1681 3.85536 17.8668C4.62298 17.5655 5.44883 17.4148 6.33289 17.4148C7.10051 17.4148 7.81422 17.5246 8.47403 17.7441C9.13816 17.9636 9.72466 18.2736 10.2335 18.6739C10.7467 19.0742 11.1629 19.5499 11.482 20.1008C11.8011 20.6518 11.9995 21.2566 12.0771 21.9152H8.83628Z" fill="#F447AF"/>
<path d="M16.5632 30.8192H13.1218L17.5917 17.5956H21.8546L26.3245 30.8192H22.8831L19.7717 20.9273H19.6682L16.5632 30.8192ZM16.1039 25.615H23.2971V28.0428H16.1039V25.615Z" fill="#F447AF"/>
<path d="M32.6477 30.8192H27.7508V17.5956H32.6412C33.991 17.5956 35.1532 17.8603 36.1278 18.3898C37.1068 18.9149 37.8615 19.6725 38.3919 20.6626C38.9223 21.6483 39.1876 22.8278 39.1876 24.2009C39.1876 25.5784 38.9223 26.7622 38.3919 27.7522C37.8658 28.7423 37.1133 29.502 36.1343 30.0315C35.1554 30.5566 33.9932 30.8192 32.6477 30.8192ZM30.9529 28.0944H32.5248C33.2665 28.0944 33.894 27.9696 34.4072 27.7199C34.9247 27.466 35.3149 27.0549 35.578 26.4867C35.8454 25.9142 35.9791 25.1523 35.9791 24.2009C35.9791 23.2496 35.8454 22.492 35.578 21.9281C35.3106 21.3599 34.916 20.951 34.3942 20.7013C33.8767 20.4474 33.2385 20.3204 32.4795 20.3204H30.9529V28.0944Z" fill="#F447AF"/>
<path d="M49.751 21.9152C49.6777 21.644 49.5699 21.4051 49.4276 21.1985C49.2852 20.9876 49.1106 20.809 48.9036 20.6626C48.6966 20.5162 48.4594 20.4065 48.192 20.3333C47.9247 20.2558 47.6314 20.2171 47.3123 20.2171C46.6697 20.2171 46.1134 20.372 45.6433 20.682C45.1776 20.9919 44.8175 21.4439 44.5631 22.0379C44.3086 22.6276 44.1814 23.3443 44.1814 24.188C44.1814 25.036 44.3043 25.7592 44.5501 26.3575C44.7959 26.9559 45.1517 27.4122 45.6175 27.7264C46.0832 28.0406 46.6482 28.1977 47.3123 28.1977C47.8988 28.1977 48.3947 28.103 48.8001 27.9136C49.2098 27.7199 49.5203 27.4466 49.7316 27.0936C49.9429 26.7406 50.0486 26.3253 50.0486 25.8474L50.6437 25.9185H47.4222V23.5875H53.1341V25.3374C53.1341 26.5211 52.8819 27.5348 52.3773 28.3785C51.877 29.2222 51.187 29.8701 50.3073 30.322C49.4319 30.774 48.4249 31 47.2864 31C46.0228 31 44.9124 30.7267 43.955 30.18C42.9976 29.6333 42.2516 28.8542 41.7168 27.8426C41.1821 26.8267 40.9147 25.6215 40.9147 24.2268C40.9147 23.142 41.0764 22.18 41.3999 21.3406C41.7233 20.4969 42.174 19.7823 42.7518 19.1969C43.334 18.6115 44.0068 18.1681 44.7701 17.8668C45.5377 17.5655 46.3635 17.4148 47.2476 17.4148C48.0152 17.4148 48.7289 17.5246 49.3887 17.7441C50.0529 17.9636 50.6394 18.2736 51.1482 18.6739C51.6614 19.0742 52.0776 19.5499 52.3967 20.1008C52.7158 20.6518 52.9142 21.2566 52.9918 21.9152H49.751Z" fill="#F447AF"/>
<path d="M55.0214 30.8192V17.5956H64.2587V20.1912H58.2234V22.9031H63.7865V25.5052H58.2234V28.2236H64.2587V30.8192H55.0214Z" fill="#F447AF"/>
<path d="M65.8306 20.1912V17.5956H77.028V20.1912H73.0109V30.8192H69.8542V20.1912H65.8306Z" fill="#F447AF"/>
<path d="M85.7527 21.5601C85.7096 21.0866 85.5177 20.7186 85.177 20.456C84.8406 20.1891 84.3598 20.0557 83.7345 20.0557C83.3205 20.0557 82.9755 20.1095 82.6995 20.2171C82.4235 20.3247 82.2165 20.4732 82.0785 20.6626C81.9405 20.8477 81.8693 21.0608 81.865 21.3018C81.8564 21.4998 81.8952 21.6742 81.9814 21.8248C82.072 21.9755 82.2014 22.1089 82.3696 22.2252C82.5421 22.3371 82.7491 22.4361 82.9906 22.5222C83.2321 22.6083 83.5037 22.6836 83.8056 22.7482L84.9441 23.0064C85.5996 23.1485 86.1775 23.3379 86.6777 23.5746C87.1823 23.8114 87.6049 24.0933 87.9456 24.4205C88.2906 24.7476 88.5515 25.1243 88.7283 25.5504C88.9051 25.9766 88.9957 26.4544 89 26.9839C88.9957 27.8189 88.7844 28.5356 88.3661 29.134C87.9478 29.7323 87.3462 30.1908 86.5613 30.5093C85.7807 30.8278 84.8385 30.9871 83.7345 30.9871C82.6261 30.9871 81.6602 30.8214 80.8365 30.4899C80.0128 30.1585 79.3724 29.6548 78.9153 28.979C78.4581 28.3032 78.2231 27.4487 78.2102 26.4156H81.2763C81.3022 26.8418 81.4165 27.1969 81.6192 27.481C81.8219 27.7651 82.1 27.9804 82.4537 28.1267C82.8116 28.2731 83.2256 28.3462 83.6956 28.3462C84.1269 28.3462 84.4935 28.2881 84.7953 28.1719C85.1015 28.0557 85.3365 27.8943 85.5004 27.6876C85.6643 27.481 85.7484 27.2443 85.7527 26.9774C85.7484 26.7277 85.6708 26.5147 85.5198 26.3382C85.3689 26.1574 85.136 26.0024 84.8212 25.8733C84.5107 25.7398 84.114 25.6171 83.631 25.5052L82.2467 25.1824C81.0995 24.9198 80.1961 24.4958 79.5363 23.9104C78.8764 23.3207 78.5487 22.5243 78.553 21.5214C78.5487 20.7035 78.7686 19.9868 79.2128 19.3712C79.657 18.7557 80.2715 18.2757 81.0564 17.9313C81.8413 17.587 82.7361 17.4148 83.7409 17.4148C84.7673 17.4148 85.6578 17.5891 86.4125 17.9378C87.1715 18.2822 87.7602 18.7664 88.1785 19.3906C88.5968 20.0148 88.8103 20.7379 88.8189 21.5601H85.7527Z" fill="#F447AF"/>
</svg>
