<svg width="16" height="14" viewBox="0 0 16 14" fill="none" xmlns="http://www.w3.org/2000/svg">
<path fill-rule="evenodd" clip-rule="evenodd" d="M11.3 0.298782C10.7264 0.298782 10.1584 0.411797 9.62852 0.631371C9.09865 0.850924 8.61711 1.17283 8.21162 1.57847L8.00005 1.79005L7.78835 1.57836C6.96928 0.759288 5.85839 0.299139 4.70005 0.299139C3.54171 0.299139 2.43081 0.759288 1.61174 1.57836C0.792668 2.39743 0.33252 3.50833 0.33252 4.66667C0.33252 5.82501 0.792668 6.9359 1.61174 7.75497L7.50507 13.6483C7.77844 13.9217 8.22165 13.9217 8.49502 13.6483L14.3884 7.75497C14.794 7.34949 15.1158 6.86806 15.3353 6.33819C15.5549 5.80827 15.6679 5.24028 15.6679 4.66667C15.6679 4.09305 15.5549 3.52506 15.3353 2.99514C15.1158 2.46532 14.7941 1.98394 14.3885 1.57847C13.983 1.17277 13.5015 0.850945 12.9716 0.631371C12.4416 0.411797 11.8737 0.298782 11.3 0.298782Z" fill="#EB5757"/>
</svg>
