<svg width="14" height="15" viewBox="0 0 14 15" fill="none" xmlns="http://www.w3.org/2000/svg">
<path fill-rule="evenodd" clip-rule="evenodd" d="M6.25737 0.140432C6.49811 -0.0468106 6.83522 -0.0468106 7.07596 0.140432L13.076 4.8071C13.2384 4.9334 13.3333 5.12761 13.3333 5.33333V12.6667C13.3333 13.1971 13.1226 13.7058 12.7475 14.0809C12.3725 14.456 11.8638 14.6667 11.3333 14.6667H2C1.46957 14.6667 0.960859 14.456 0.585786 14.0809C0.210714 13.7058 0 13.1971 0 12.6667V5.33333C0 5.12761 0.0949819 4.9334 0.257373 4.8071L6.25737 0.140432ZM1.33333 5.65939V12.6667C1.33333 12.8435 1.40357 13.013 1.5286 13.1381C1.65362 13.2631 1.82319 13.3333 2 13.3333H11.3333C11.5101 13.3333 11.6797 13.2631 11.8047 13.1381C11.9298 13.013 12 12.8435 12 12.6667V5.65939L6.66667 1.51124L1.33333 5.65939Z" fill="currentColor"/>
</svg>
