<svg width="16" height="17" viewBox="0 0 16 17" fill="none" xmlns="http://www.w3.org/2000/svg">
<path fill-rule="evenodd" clip-rule="evenodd" d="M9.62803 2.13137C10.158 1.9118 10.7259 1.79878 11.2996 1.79878C11.8732 1.79878 12.4412 1.9118 12.9711 2.13137C13.501 2.35094 13.9825 2.67277 14.388 3.07847C14.7936 3.48394 15.1153 3.96532 15.3349 4.49514C15.5544 5.02506 15.6674 5.59305 15.6674 6.16667C15.6674 6.74028 15.5544 7.30827 15.3349 7.83819C15.1153 8.36806 14.7935 8.84949 14.3879 9.25497C14.3878 9.25501 14.3879 9.25493 14.3879 9.25497L8.49453 15.1483C8.22117 15.4217 7.77795 15.4217 7.50458 15.1483L1.61125 9.25497C0.79218 8.4359 0.332031 7.32501 0.332031 6.16667C0.332031 5.00833 0.79218 3.89743 1.61125 3.07836C2.43032 2.25929 3.54122 1.79914 4.69956 1.79914C5.8579 1.79914 6.9688 2.25929 7.78787 3.07836L7.99956 3.29005L8.21113 3.07847C8.2111 3.07851 8.21117 3.07844 8.21113 3.07847C8.61662 2.67283 9.09816 2.35092 9.62803 2.13137ZM13.3978 4.06819C13.1223 3.79256 12.7952 3.57392 12.4352 3.42474C12.0751 3.27556 11.6893 3.19878 11.2996 3.19878C10.9099 3.19878 10.524 3.27556 10.1639 3.42474C9.80392 3.57392 9.47681 3.79256 9.20132 4.06819L8.49453 4.77497C8.22117 5.04834 7.77795 5.04834 7.50458 4.77497L6.79792 4.06831C6.2414 3.51179 5.4866 3.19914 4.69956 3.19914C3.91252 3.19914 3.15772 3.51179 2.6012 4.06831C2.04468 4.62483 1.73203 5.37963 1.73203 6.16667C1.73203 6.9537 2.04468 7.70851 2.6012 8.26502L7.99956 13.6634L13.3979 8.26502C13.6735 7.98953 13.8923 7.66231 14.0415 7.30228C14.1907 6.94226 14.2674 6.55637 14.2674 6.16667C14.2674 5.77696 14.1907 5.39107 14.0415 5.03105C13.8923 4.67103 13.6734 4.34369 13.3978 4.06819Z" fill="#313237"/>
</svg>
