<svg width="66" height="16" viewBox="0 0 66 16" fill="none" xmlns="http://www.w3.org/2000/svg">
<path d="M25.904 7.632C26.516 7.236 26.888 6.492 26.888 5.772C26.888 4.536 25.856 3.612 24.452 3.612H21.068V12.012H24.512C25.964 12.012 27.104 10.968 27.104 9.648C27.104 8.748 26.66 7.992 25.904 7.632ZM25.508 5.964C25.508 6.588 25.028 7.056 24.368 7.056H22.424V4.872H24.368C25.028 4.872 25.508 5.34 25.508 5.964ZM24.44 10.692H22.424V8.316H24.44C25.172 8.316 25.7 8.82 25.7 9.504C25.7 10.188 25.172 10.692 24.44 10.692ZM34.0947 5.52L33.9387 6.336C33.3507 5.724 32.5227 5.364 31.5627 5.364C29.6307 5.364 28.1907 6.816 28.1907 8.76C28.1907 10.704 29.6307 12.168 31.5627 12.168C32.5107 12.168 33.3267 11.808 33.9147 11.22L34.0467 12H35.1147V5.52H34.0947ZM31.6707 10.884C30.4467 10.884 29.5467 9.972 29.5467 8.76C29.5467 7.548 30.4467 6.636 31.6707 6.636C32.8947 6.636 33.7827 7.536 33.7827 8.76C33.7827 9.984 32.8947 10.884 31.6707 10.884ZM39.9421 12.168C41.5381 12.168 42.8221 11.16 43.1701 9.648H41.8261C41.4781 10.44 40.7941 10.896 39.9421 10.896C38.7901 10.896 37.9021 9.96 37.9021 8.76C37.9021 7.56 38.7781 6.636 39.9421 6.636C40.7821 6.636 41.5021 7.092 41.8381 7.836H43.1581C42.7981 6.348 41.5501 5.364 39.9421 5.364C38.0101 5.364 36.5461 6.828 36.5461 8.76C36.5461 10.692 38.0101 12.168 39.9421 12.168ZM48.703 12H50.335L47.899 8.64L50.095 5.52H48.523L46.771 8.028H45.955V3.204H44.623V12H45.955V9.24H46.759L48.703 12Z" fill="#89939A"/>
<path fill-rule="evenodd" clip-rule="evenodd" d="M10.4717 3.52861C10.2114 3.26826 9.78927 3.26826 9.52892 3.52861L5.52892 7.52861C5.26857 7.78896 5.26857 8.21107 5.52892 8.47141L9.52892 12.4714C9.78927 12.7318 10.2114 12.7318 10.4717 12.4714C10.7321 12.2111 10.7321 11.789 10.4717 11.5286L6.94313 8.00001L10.4717 4.47141C10.7321 4.21107 10.7321 3.78896 10.4717 3.52861Z" fill="#313237"/>
</svg>
