<svg version="1.0" xmlns="http://www.w3.org/2000/svg"
 width="200.000000pt" height="200.000000pt" viewBox="0 0 200.000000 200.000000"
 preserveAspectRatio="xMidYMid meet">

<g transform="translate(0.000000,200.000000) scale(0.100000,-0.100000)"
fill="white" stroke="none">
<path d="M543 1949 c-43 -12 -101 -74 -108 -113 -3 -17 -5 -404 -3 -861 l3
-830 24 -34 c13 -18 42 -42 65 -52 38 -17 73 -19 479 -19 410 0 440 1 475 19
47 24 70 50 88 98 17 50 21 1614 3 1678 -14 50 -64 100 -114 114 -50 14 -865
14 -912 0z m917 -52 c13 -7 35 -28 47 -46 19 -28 23 -47 23 -112 l0 -79 -530
0 -530 0 0 70 c0 86 18 133 62 160 32 19 49 20 468 20 328 0 441 -3 460 -13z
m70 -897 l0 -610 -530 0 -530 0 0 610 0 610 530 0 530 0 0 -610z m-2 -751 c-3
-90 -3 -91 -40 -125 l-38 -34 -449 0 c-445 0 -449 0 -476 22 -39 30 -55 77
-55 158 l0 70 531 0 531 0 -4 -91z"/>
<path d="M687 1822 c-34 -37 -11 -92 38 -92 24 0 55 33 55 57 0 19 -37 53 -58
53 -11 0 -26 -8 -35 -18z"/>
<path d="M863 1795 c-11 -30 12 -36 143 -33 121 3 129 4 129 23 0 19 -8 20
-133 23 -114 2 -133 0 -139 -13z"/>
<path d="M887 1393 c-14 -14 -6 -32 20 -45 35 -17 41 -44 13 -53 -32 -10 -60
-63 -60 -115 -1 -36 -7 -53 -34 -84 l-33 -39 -26 19 c-16 12 -24 26 -22 39 15
80 15 106 -1 112 -24 9 -32 -6 -42 -81 -8 -63 -7 -70 11 -85 69 -56 69 -56 62
-84 -6 -24 -12 -27 -51 -27 -40 0 -49 -5 -94 -52 -54 -58 -58 -66 -34 -75 10
-4 30 9 58 36 34 33 49 41 79 41 32 0 37 -3 37 -24 0 -13 3 -38 6 -55 l7 -31
-47 0 c-32 0 -48 -5 -52 -15 -3 -8 11 -51 32 -95 27 -57 42 -80 56 -80 24 0
23 19 -6 85 l-25 55 30 0 c21 0 38 -10 61 -36 90 -102 236 -106 334 -8 29 28
53 44 69 44 14 0 25 -2 25 -5 0 -2 -12 -29 -27 -60 -20 -41 -24 -58 -16 -66 7
-7 18 -9 25 -7 18 7 82 154 74 173 -3 10 -19 15 -46 15 l-40 0 0 55 0 55 38 0
c31 0 45 -7 77 -40 40 -41 75 -52 75 -24 0 9 -22 39 -49 65 -44 45 -52 49 -95
49 -46 0 -46 0 -46 34 0 28 6 38 41 60 45 30 42 16 23 146 -5 32 -10 40 -26
40 -20 0 -21 -4 -15 -69 5 -66 4 -70 -18 -85 -24 -16 -26 -15 -60 21 -29 32
-35 46 -35 83 0 42 -29 110 -47 110 -39 1 -36 46 4 61 30 11 27 43 -4 47 -27
4 -73 -38 -73 -68 0 -30 -26 -24 -40 10 -19 46 -71 75 -93 53z m185 -150 c10
-9 18 -28 18 -44 l0 -27 -59 5 c-33 3 -73 1 -90 -5 -30 -11 -31 -10 -31 20 0
49 24 68 88 68 38 0 61 -5 74 -17z m40 -145 c57 -43 73 -88 73 -198 -1 -105
-13 -139 -64 -183 -92 -77 -229 -50 -280 55 -16 34 -21 63 -21 126 0 114 24
169 95 214 46 29 150 22 197 -14z"/>
<path d="M1066 931 c-38 -38 -41 -61 -9 -61 13 0 12 -5 -6 -24 -23 -24 -21
-46 3 -46 6 0 29 18 50 39 38 38 41 61 9 61 -13 0 -12 5 6 24 23 24 21 46 -3
46 -6 0 -29 -18 -50 -39z"/>
<path d="M864 226 c-12 -31 7 -36 142 -36 135 0 135 0 132 23 -3 21 -7 22
-136 25 -109 2 -133 0 -138 -12z"/>
</g>
</svg>
