<svg width="16" height="16" viewBox="0 0 16 16" fill="none"
  xmlns="http://www.w3.org/2000/svg">
  <path fill-rule="evenodd" clip-rule="evenodd"
    d="M1.5 1C1.22386 1 1 1.22386 1 1.5C1 1.77614 1.22386 2 1.5 2H2.73828L4.43171 9.0859C4.6311 9.93157 5.37883 10.5 6.25197 10.5H11.8574C12.6144 10.5 13.2961 10.0293 13.5947 9.32129L15.3848 5.00684C15.4831 4.76992 15.4681 4.50069 15.3439 4.27478C15.2197 4.04888 15.0017 3.89007 14.75 3.84375L4.22852 1.875L4.11523 1.59375C3.96079 1.20736 3.59126 1 3.17383 1H1.5ZM5.18164 3.00781L14.1211 4.64648L12.3311 8.96094C12.2217 9.22656 11.9585 9.4 11.6699 9.4H6.06445C5.80446 9.4 5.58683 9.21404 5.52734 8.96094L5.18164 7.49219V3.00781Z"
    fill="#B4BDC3" />
  <path
    d="M5.5 14C6.32843 14 7 13.3284 7 12.5C7 11.6716 6.32843 11 5.5 11C4.67157 11 4 11.6716 4 12.5C4 13.3284 4.67157 14 5.5 14Z"
    fill="#B4BDC3" />
  <path
    d="M11 14C11.8284 14 12.5 13.3284 12.5 12.5C12.5 11.6716 11.8284 11 11 11C10.1716 11 9.5 11.6716 9.5 12.5C9.5 13.3284 10.1716 14 11 14Z"
    fill="#B4BDC3" />
</svg>
