<svg width="16" height="16" viewBox="0 0 16 16" fill="none" xmlns="http://www.w3.org/2000/svg">
<path fill-rule="evenodd" clip-rule="evenodd" d="M12.4721 4.47108C12.7324 4.21073 12.7324 3.78862 12.4721 3.52827C12.2117 3.26792 11.7896 3.26792 11.5292 3.52827L8.00065 7.05687L4.47206 3.52827C4.21171 3.26792 3.7896 3.26792 3.52925 3.52827C3.2689 3.78862 3.2689 4.21073 3.52925 4.47108L7.05784 7.99967L3.52925 11.5283C3.2689 11.7886 3.2689 12.2107 3.52925 12.4711C3.7896 12.7314 4.21171 12.7314 4.47206 12.4711L8.00065 8.94248L11.5292 12.4711C11.7896 12.7314 12.2117 12.7314 12.4721 12.4711C12.7324 12.2107 12.7324 11.7886 12.4721 11.5283L8.94346 7.99967L12.4721 4.47108Z" fill="#4A4D58"/>
</svg>
