<svg xmlns="http://www.w3.org/2000/svg" xmlns:xlink="http://www.w3.org/1999/xlink" width="300px" height="400px" version="1.1" viewBox="0 0 100 110" fill="#89939A" style="enable-background:new 0 0 100 100;"><path d="M40.4908257,12.6753263c-0.3686523-0.7421875-0.065918-1.6420898,0.6757813-2.0107422  c1.0751953-0.5341797,2.2226563-0.8881836,3.4116211-1.0532227c0.8164063-0.1152344,1.578125,0.4589844,1.6918945,1.2797852  s-0.4594727,1.578125-1.2797852,1.6918945c-0.8671875,0.1201172-1.7045898,0.378418-2.4887695,0.7680664  c-0.2143555,0.1064453-0.4423828,0.1572266-0.6665039,0.1572266C41.2837944,13.5083342,40.7530327,13.2026701,40.4908257,12.6753263  z M53.5464897,17.3076496c0.3222656,0.7099609,0.5371094,1.4584961,0.6386719,2.2250977l0.0322266,0.2807617  c0.0751953,0.7749023,0.7285156,1.3544922,1.4912109,1.3544922c0.0488281,0,0.0976563-0.0024414,0.1474609-0.0068359  c0.8242188-0.0805664,1.4277344-0.8139648,1.3476563-1.6386719c-0.0126953-0.1274414-0.0273438-0.2543945-0.0439453-0.3828125  c-0.140625-1.0605469-0.4375-2.0947266-0.8828125-3.0732422c-0.3427734-0.7539053-1.2314453-1.0878897-1.9863281-0.7451162  C53.5367241,15.6645842,53.203228,16.5537434,53.5464897,17.3076496z M36.9322319,17.1362629  c1.0029297,0,1.934082-0.4423828,2.5541992-1.2138662c0.519043-0.6455078,0.4165039-1.5898438-0.2290039-2.1088867  c-0.6455078-0.5180664-1.5888672-0.4160156-2.1088867,0.2290039c-0.1264648,0.1582031-0.2900391,0.1625977-0.425293,0.0073242  c-0.5439453-0.6254883-1.4916992-0.6914063-2.1162109-0.1474609c-0.625,0.543457-0.690918,1.4912109-0.1474609,2.11621  C35.0772514,16.7290363,35.9786186,17.1362629,36.9322319,17.1362629z M22.7769604,28.8750324  c-0.5366211,0.6313477-0.4594727,1.578125,0.171875,2.1142578l2.3632813,2.0073261  c0.2822266,0.2397461,0.6274414,0.3569336,0.9707031,0.3569336c0.4248047,0,0.847168-0.1796875,1.1435547-0.5288086  c0.5366211-0.6313477,0.4594727-1.5781269-0.171875-2.1142597l-2.3632813-2.0073242  C24.258894,28.166048,23.3121166,28.2436848,22.7769604,28.8750324z M18.0044994,21.0903645  c0.0537109,0.0058594,0.1069336,0.0083008,0.159668,0.0083008c0.7573242,0,1.4082031-0.5717773,1.4897461-1.3422852  l0.0249023-0.2128906c0.1030273-0.7895508,0.3266602-1.5600586,0.6645508-2.2905273  c0.3476563-0.7519531,0.0205078-1.6430655-0.7314453-1.99121c-0.7504883-0.3461914-1.6435547-0.0200195-1.9912109,0.7314453  c-0.4658203,1.006835-0.7744141,2.0707998-0.9169922,3.1640615l-0.0332031,0.2836914  C16.5831127,20.2646809,17.1802807,21.0029621,18.0044994,21.0903645z M21.8550854,14.522006  c0.3217773,0,0.6459961-0.1030273,0.9199219-0.315918c0.6953125-0.5405273,1.4643555-0.9614258,2.2851563-1.25  c0.7817383-0.2749023,1.1923828-1.1313477,0.9174805-1.9125977c-0.2744141-0.7817383-1.1298828-1.1933594-1.9125977-0.9174805  c-1.1269531,0.3964844-2.1801758,0.972168-3.1318359,1.7119141c-0.6538086,0.5083008-0.7719727,1.4506836-0.2631836,2.1049805  C20.9654369,14.3232756,21.4078197,14.522006,21.8550854,14.522006z M20.1680737,23.5815754  c-0.3198242-0.7646484-1.1977539-1.1225586-1.9624023-0.8061523c-0.7646484,0.3193359-1.1254883,1.1982422-0.8061523,1.9624023  c0.4516602,1.0805664,1.0991211,2.0976563,1.9243164,3.0224609c0.2963867,0.3320313,0.7070313,0.5014648,1.1196289,0.5014648  c0.3554688,0,0.7119141-0.1254883,0.9980469-0.3808594c0.6181641-0.5512695,0.6723633-1.4995117,0.1206055-2.1176758  C20.9595776,25.0874348,20.4903393,24.353548,20.1680737,23.5815754z M28.9317455,12.5908537  c0.8662109,0.1264648,1.7016602,0.390625,2.4819336,0.7856445c0.2167969,0.1098633,0.4482422,0.1621094,0.6762676,0.1621094  c0.5473633,0,1.0751953-0.3012695,1.3393555-0.8232422c0.3740234-0.7387695,0.078125-1.6416016-0.6611328-2.015625  c-1.0703106-0.5419922-2.2153301-0.9042969-3.4038067-1.0776367c-0.8125-0.1210938-1.5810547,0.4482422-1.7006836,1.2680664  S28.1119213,12.4712248,28.9317455,12.5908537z M53.6763725,23.6328449  c-0.3300781,0.7705078-0.8051758,1.5019531-1.4135742,2.1748047c-0.5556641,0.6142578-0.5078125,1.5629883,0.1069336,2.1186523  c0.2866211,0.2592773,0.6464844,0.387207,1.0058594,0.387207c0.4091797,0,0.8164063-0.1665039,1.1123047-0.4941406  c0.8310547-0.918457,1.4863281-1.9301758,1.9462891-3.0058594c0.3261719-0.7617188-0.0273438-1.6435547-0.7890625-1.9692383  C54.8834038,22.5176105,54.0015678,22.872591,53.6763725,23.6328449z M46.3868217,32.8696632  c0.2963867,0.3491211,0.71875,0.5288086,1.1435547,0.5288086c0.3432617,0,0.6884766-0.1171875,0.9707031-0.3569336  l2.3632813-2.0073261c0.6313477-0.5361328,0.7084961-1.4829102,0.171875-2.1142578s-1.4833984-0.7094727-2.1142578-0.171875  l-2.3632813,2.0073242C45.9273491,31.2915363,45.8502007,32.2383156,46.3868217,32.8696632z M48.8575249,12.9756193  c0.8193359,0.2954102,1.5864258,0.722168,2.2797852,1.2675781c0.2749023,0.2163086,0.6020508,0.3212891,0.9267578,0.3212891  c0.4443359,0,0.8837891-0.1962891,1.1796875-0.5722656c0.5126953-0.6513672,0.3994141-1.5942383-0.2509766-2.1064453  c-0.9462891-0.7446289-1.9951172-1.3276367-3.1176758-1.7324219c-0.7792969-0.2817383-1.6386719,0.1225586-1.9199219,0.9023438  C47.6744194,11.8349943,48.078228,12.6943693,48.8575249,12.9756193z M83.6216888,32.1709328  c0.0537109,0.7807617-0.0136719,1.5576172-0.2011719,2.3085938c-0.3486328,1.402832-1.1708984,2.6850586-2.3769531,3.7089844  l-9.4111328,7.9926758c-0.2792969,0.237793-0.625,0.3569336-0.9707031,0.3569336s-0.6914063-0.1186523-0.9707031-0.3564453  l-9.4121132-7.9931641C59.07481,37.16605,58.253521,35.8857765,57.902935,34.4848976  c-0.1875-0.7480469-0.2558594-1.5239258-0.2041016-2.3051758c0.2402344-3.5302753,3.0693359-6.4658222,6.5810585-6.8281269  c2.4736328-0.2548828,4.8378906,0.7543945,6.3818359,2.5458984c1.5410156-1.7875977,3.9121094-2.7993164,6.3613281-2.5473633  C80.5416107,25.7046223,83.3785248,28.6367512,83.6216888,32.1709328z M80.6295013,32.3769875  c-0.1445313-2.0947285-1.8242188-3.8325214-3.9072266-4.0419941c-2.1015625-0.2128906-3.9980469,1.0341797-4.6308594,3.0268555  c-0.1972656,0.6230469-0.7753906,1.0463886-1.4296875,1.0463886c-0.6533203,0-1.2314453-0.4228535-1.4296875-1.0454121  c-0.5869141-1.8481445-2.2636719-3.0512695-4.171875-3.0512695c-0.15625,0-0.3134766,0.0078125-0.4716797,0.0244141  c-2.0791054,0.2143555-3.7539101,1.9541016-3.8964882,4.0463886c-0.03125,0.4667969,0.0097656,0.9291992,0.1210938,1.3735352  c0.1972656,0.7895508,0.6845703,1.5317383,1.4072266,2.1459961l8.4414101,7.168457l8.4404297-7.168457  c0.7236328-0.6152344,1.2109375-1.3579102,1.4082031-2.1479492C80.6207123,33.3076515,80.6617279,32.8442726,80.6295013,32.3769875z   M69.2056732,54.7866554v4.940918c0,0.1601563-0.0107422,0.3203125-0.0332031,0.4804688l-3.4980469,25.4443321  c-0.3730469,2.7089844-2.7158241,4.7509766-5.4492226,4.7509766H39.3638725c-2.4428711,0-4.559082-1.5712891-5.2651367-3.9101563  l-1.409668-4.6708984c-0.1103516-0.3642578-0.3056641-0.7041016-0.5654297-0.9824219L18.1768627,65.8887024  c-1.1357422-1.0771484-1.8208008-2.6796837-1.8164063-4.3349571c0.0043945-1.6777344,0.684082-3.2402344,1.9145508-4.3984375  c2.2099609-2.0825195,5.7114258-2.1298828,8.1459961-0.1103516l4.6157227,3.8261719V37.8583107l-2.1791992-1.8509521  c-0.6318359-0.5366211-0.7089844-1.4829102-0.1728516-2.1142578c0.5371094-0.6323242,1.4829102-0.7089844,2.1142578-0.1728516  l0.237793,0.2019653V32.299839c0-1.6572285,0.7036133-3.2480488,1.9306622-4.3632832  c1.2265625-1.1147461,2.8818359-1.6635742,4.5400391-1.5053711c2.984375,0.2851563,5.3217773,2.9458008,5.3217773,6.0581074  v1.4327393l0.184082-0.1563721c0.6308594-0.5371094,1.5786133-0.4599609,2.1142578,0.171875  c0.5366211,0.6313477,0.4594727,1.578125-0.171875,2.1142578l-2.1264648,1.8061523v7.5405273  c1.043457-0.5864258,2.2573242-0.8500977,3.4697266-0.7338867c2.0102539,0.1914063,3.7270508,1.4604492,4.6337891,3.2197266  c1.1767578-0.8999023,2.6733398-1.3300781,4.1586914-1.1875c2.0097656,0.1918945,3.7265625,1.4614258,4.6328125,3.2207031  c1.1767578-0.8999023,2.6582031-1.3320313,4.1601563-1.1879883C66.8687592,49.0146828,69.2056732,51.6753273,69.2056732,54.7866554z   M66.2056732,54.7866554c0-1.5825195-1.1445313-2.9311523-2.6064491-3.0708008  c-0.8359375-0.0776367-1.6259766,0.1831055-2.2373047,0.7387695c-0.6025391,0.5478516-0.9482422,1.3291016-0.9482422,2.1435547  v1.5600586c0,0.828125-0.671875,1.5-1.5,1.5s-1.5-0.671875-1.5-1.5v-3.4033203c0-1.5830078-1.1455078-2.9321289-2.6074219-3.0717773  c-0.8271484-0.0786133-1.625,0.1835938-2.2358398,0.7382813c-0.6030273,0.5483398-0.9487305,1.3295898-0.9487305,2.144043v3.5927734  c0,0.828125-0.6713867,1.5-1.5,1.5s-1.5-0.671875-1.5-1.5v-5.4360352c0-1.5830078-1.1450195-2.9321289-2.6069336-3.0712891  c-0.8369141-0.0795898-1.6264648,0.1831055-2.2368164,0.7387695c-0.6025391,0.5478516-0.9487305,1.3291016-0.9487305,2.1435547  v5.625c0,0.828125-0.6713867,1.5-1.5,1.5s-1.5-0.671875-1.5-1.5V32.4892921c0-1.5830097-1.1450195-2.9321308-2.6069336-3.0717793  c-0.8295898-0.078125-1.6254883,0.1831055-2.2368164,0.7387695c-0.6030273,0.5483398-0.9487305,1.3295898-0.9487305,2.1435566  v31.7626915c0,0.5810547-0.3359375,1.1103516-0.8618164,1.3574219c-0.5253906,0.2470703-1.1474609,0.1699219-1.5957012-0.2021484  l-7.0732422-5.8632774C23.8780346,58.8330421,23.1021557,58.5723,22.3472729,58.5723  c-0.746582,0-1.4726563,0.2548828-2.0151367,0.7666016c-0.6245117,0.5878906-0.9697266,1.3769531-0.9716797,2.2226563  c-0.0024414,0.8466797,0.3339844,1.6337891,0.9472656,2.2167969l14.0097637,15.0146446  c0.5708008,0.6123047,1.0009766,1.359375,1.2431641,2.1611328l1.4101563,4.671875  c0.3208008,1.0634766,1.2827148,1.7773438,2.3930664,1.7773438h20.8613281c1.2431641,0,2.3076172-0.9287109,2.4765625-2.1591797  l3.4990273-25.4482384L66.2056732,54.7866554z"/></svg>
