<svg xmlns="http://www.w3.org/2000/svg" viewBox="0 0 1000 1000"><g><path fill="#b1bec6" d="m734.1,557.64c-15.79,24.62-34.33,47.71-54.34,69.14-9.97-5.23-20.86-8.11-32.26-8.11-.11,0-.22,0-.32.01h-.01c-.73,0-1.45.02-2.18.04-.25,0-.48.01-.72.03-.56.02-1.12.05-1.67.1-2.24.16-4.45.43-6.63.81-.14.02-.27.05-.4.08-.65.12-1.29.25-1.94.38-1.46.31-2.93.67-4.37,1.08,0,0-103.83,8.58-103.83,119.66,0,3.8.14,7.46.42,10.99-48.54,31.01-86.09,49.1-91.94,51.87-.62.18-.96.18-1.58,0-6.32-2.99-49.73-23.92-104.01-59.71.03-1.04.04-2.09.04-3.16s-.01-2.07-.03-3.09c-.01-.87-.03-1.74-.06-2.61-.01-.57-.03-1.14-.06-1.7,0-.13-.01-.25-.02-.38-.02-.74-.06-1.49-.11-2.23-.04-.69-.09-1.37-.14-2.05-.03-.55-.08-1.1-.13-1.65-.06-.8-.13-1.58-.22-2.36-.05-.57-.11-1.14-.17-1.7-.1-.94-.22-1.86-.33-2.78-.11-.88-.24-1.76-.37-2.62,0-.08-.01-.14-.02-.19-.13-.87-.27-1.73-.42-2.6-.3-1.77-.62-3.5-.99-5.2-.17-.85-.37-1.7-.56-2.53-.15-.66-.3-1.31-.46-1.96-.09-.34-.17-.68-.26-1.01-.2-.81-.42-1.62-.65-2.4-.41-1.45-.83-2.88-1.28-4.26-.23-.72-.46-1.44-.71-2.14-1.33-3.93-2.84-7.65-4.51-11.17-.27-.6-.56-1.2-.85-1.79-.3-.61-.6-1.21-.9-1.8-1.29-2.51-2.65-4.9-4.07-7.18-.25-.4-.5-.8-.75-1.18-.31-.5-.62-.98-.96-1.46-.64-.98-1.29-1.93-1.96-2.85-.33-.46-.67-.94-1.01-1.39-2.22-3-4.55-5.8-6.98-8.42-.34-.39-.7-.76-1.06-1.13-.4-.42-.8-.84-1.21-1.25-1.51-1.54-3.05-3.02-4.61-4.4-.31-.29-.62-.57-.95-.85-2.83-2.5-5.73-4.78-8.66-6.86-.41-.3-.82-.58-1.23-.86-6.84-4.76-13.81-8.49-20.42-11.4-.52-.23-1.04-.45-1.55-.67-.78-.33-1.54-.66-2.3-.96-.38-.15-.75-.3-1.13-.45-.75-.29-1.5-.58-2.23-.85-1.12-.41-2.22-.81-3.3-1.18-.36-.12-.71-.25-1.07-.36-.36-.12-.7-.24-1.04-.34-.7-.24-1.39-.45-2.07-.66-1.69-.53-3.33-.99-4.88-1.41-.62-.17-1.23-.32-1.82-.47-1.5-.38-2.9-.71-4.21-.99-.27-.06-.53-.12-.78-.17-.44-.1-.87-.18-1.29-.27-.55-.11-1.08-.22-1.57-.3-.75-.14-1.45-.27-2.1-.38-.24-.04-.46-.08-.69-.11-.13-.02-.26-.04-.38-.06-.23-.03-.43-.06-.64-.1-.95-.14-1.72-.25-2.32-.31-.12-.02-.23-.03-.32-.04-.02,0-.05-.01-.08-.01-.08-.01-.14-.01-.2-.02-.18-.02-.33-.03-.45-.04-.09-.01-.14-.02-.19-.02-.08-.01-.11-.01-.11-.01-5.88-1.66-11.99-2.52-18.24-2.52-8.1,0-15.93,1.45-23.36,4.16-15.97-17.44-30.95-35.97-44.24-55.49-36.91-54.21-60.86-116.13-57.2-184.06,13.33-249.12,289.31-215.1,349.88-88.39.76,1.57,2.71,1.57,3.48,0,12.74-26.58,34.95-49.05,62.22-65.7,21.36-13.06,45.83-22.55,71.29-27.6v147.57c0,10.32,8.37,18.68,18.68,18.68h21.06v40.54c0,12.29,14.48,18.86,23.72,10.77l58.62-51.31h93.27c.52,5.02.92,10.17,1.2,15.43,3.44,63.91-17.56,122.51-50.83,174.36Z" opacity=".5"/><path fill="#b1bec6" d="m433.12,805.86c-.43,0-.86-.07-1.36-.22l-.29-.11c-7.99-3.79-50.59-24.46-104.26-59.85l-.93-.62.04-1.12c.03-1.02.04-2.05.04-3.09s0-2.04-.03-3.05c-.01-.88-.03-1.73-.06-2.57-.01-.58-.03-1.13-.06-1.66v-.12c0-.06,0-.12-.02-.18v-.14c-.03-.72-.07-1.45-.11-2.17-.04-.67-.08-1.33-.14-2-.03-.57-.08-1.09-.13-1.61-.07-.81-.13-1.58-.21-2.33-.06-.6-.11-1.15-.17-1.7-.1-.94-.21-1.85-.33-2.75-.11-.88-.23-1.73-.36-2.58l-.02-.2c-.13-.85-.26-1.7-.41-2.54-.33-1.94-.65-3.61-.98-5.13-.17-.85-.36-1.68-.55-2.5-.15-.65-.3-1.3-.46-1.93l-.25-1c-.2-.79-.41-1.58-.63-2.35-.46-1.64-.86-2.97-1.26-4.2-.23-.72-.46-1.42-.7-2.1-1.29-3.81-2.78-7.5-4.43-10.98-.26-.59-.53-1.13-.79-1.67l-.04-.09c-.28-.57-.57-1.13-.85-1.69-1.29-2.5-2.63-4.87-4.03-7.11-.24-.38-.47-.76-.72-1.13-.32-.51-.62-.98-.94-1.44-.6-.93-1.22-1.83-1.94-2.82l-.25-.34c-.24-.34-.48-.68-.73-1-2.11-2.86-4.42-5.64-6.86-8.27-.35-.4-.69-.75-1.02-1.1-.4-.42-.79-.83-1.18-1.23-1.52-1.55-3.03-3-4.52-4.32-.33-.31-.62-.57-.93-.83-2.72-2.4-5.58-4.66-8.51-6.74-.42-.31-.81-.57-1.2-.84-6.14-4.28-12.9-8.05-20.1-11.23-.5-.22-1.02-.44-1.53-.66-.77-.33-1.51-.65-2.26-.94l-1.51-.6c-.61-.24-1.21-.47-1.8-.69-1.11-.4-2.2-.8-3.27-1.17l-.35-.12c-.21-.07-.42-.15-.63-.21l-.34-.11c-.24-.08-.48-.16-.72-.24-.72-.24-1.39-.45-2.04-.65-1.47-.46-3-.9-4.82-1.4-.55-.15-1.09-.29-1.61-.42l-.18-.05c-1.6-.4-2.95-.72-4.13-.97-.26-.06-.45-.1-.64-.14l-.14-.03c-.35-.08-.68-.14-1.01-.21l-.53-.11c-.43-.09-.85-.17-1.24-.24-.76-.14-1.45-.27-2.09-.38-.24-.04-.44-.07-.64-.1l-1.04-.17c-.9-.13-1.65-.24-2.22-.3l-.14-.02s-.05,0-.08-.01l-.25-.03c-.07,0-.16-.01-.25-.03l-.48-.04-.37.05-.12-.14c-5.75-1.62-11.71-2.44-17.7-2.44-7.68,0-15.31,1.36-22.67,4.04l-1.26.46-.9-.99c-16.8-18.35-31.74-37.09-44.41-55.71-41.52-60.98-60.88-123.32-57.54-185.29,2.88-53.76,17.97-97.39,44.87-129.67,23.41-28.09,55.73-46.91,93.48-54.41,40.96-8.14,85.96-2.82,126.71,14.98,41.02,17.92,72.47,46.27,88.56,79.83,12.46-25.91,34.21-48.88,62.92-66.41,21.51-13.15,46.39-22.79,71.94-27.85l2.39-.47v150c0,9.2,7.48,16.68,16.68,16.68h23.06v42.54c0,4.89,2.77,9.18,7.22,11.2,4.46,2.02,9.51,1.28,13.18-1.94l59.19-51.81h95.83l.18,1.8c.52,5.02.92,10.25,1.2,15.53,3.15,58.67-14.05,117.74-51.14,175.55-14.94,23.3-33.3,46.66-54.56,69.43l-1.04,1.11-1.35-.71c-9.96-5.23-20.5-7.88-31.33-7.88h-.32c-.72.01-1.42.03-2.13.05-.25,0-.42,0-.6.03h-.1c-.53.03-1.07.06-1.59.1-2.18.16-4.34.42-6.45.78l-.41.08c-.6.11-1.24.24-1.87.36-1.47.31-2.9.67-4.22,1.04l-.38.07c-.26.02-25.9,2.32-51.16,17.96-33.73,20.89-50.83,54.44-50.83,99.7,0,3.73.14,7.38.41,10.84l.09,1.2-1.01.65c-48.18,30.78-85.22,48.71-92.16,51.99l-.29.11c-.49.15-.92.22-1.36.22Zm-.09-4.02c.07.02.09.02.1.02,0,0,.02,0,.08-.02,7.23-3.43,43.42-21,90.56-51.03-.22-3.2-.34-6.54-.34-9.95,0-58.3,28.75-88.29,52.86-103.18,25.17-15.54,49.95-18.2,52.6-18.45,1.35-.38,2.8-.73,4.32-1.06.68-.14,1.34-.27,1.99-.39l.14-.03c.1-.02.21-.04.32-.06,2.2-.38,4.5-.66,6.79-.83.55-.04,1.12-.08,1.69-.1.28-.02.56-.04.85-.04.66-.02,1.38-.04,2.11-.04.13,0,.27-.01.4-.01,10.99,0,21.69,2.57,31.83,7.64,20.66-22.25,38.52-45.03,53.09-67.75h0c36.63-57.09,53.62-115.35,50.51-173.17-.24-4.59-.58-9.14-1.01-13.54h-90.71l-58.06,50.82c-4.87,4.26-11.57,5.25-17.47,2.57-5.9-2.68-9.57-8.37-9.57-14.85v-38.54h-19.06c-11.4,0-20.68-9.28-20.68-20.68v-145.12c-24.25,5.09-47.8,14.35-68.24,26.86-28.09,17.15-49.34,39.58-61.46,64.86-.7,1.43-2.05,2.31-3.54,2.31s-2.85-.88-3.54-2.3c-32.42-67.83-127.06-109.43-210.96-92.75-80.6,16.02-129.86,81.77-135.13,180.37-3.29,61.08,15.84,122.59,56.86,182.83,12.34,18.13,26.86,36.39,43.17,54.29,7.41-2.54,15.06-3.83,22.77-3.83,6.3,0,12.55.86,18.6,2.54.05,0,.1.01.15.02.17.02.31.03.48.05.03,0,.06,0,.08,0l.24.03c.11.01.22.03.33.04.6.07,1.38.18,2.33.32l1.06.17c.19.03.44.06.7.11.63.1,1.34.24,2.11.38.4.07.85.16,1.31.25l.55.11c.35.07.7.14,1.06.22l.13.03c.22.05.45.1.69.16,1.18.25,2.58.58,4.23.99l.19.05c.55.14,1.1.28,1.68.44,1.87.51,3.44.96,4.94,1.43.68.2,1.39.43,2.11.67.22.07.49.16.75.25l.28.09c.21.06.46.15.72.24l.35.12c1.11.39,2.22.79,3.35,1.2.62.23,1.24.47,1.87.71l1.55.61c.78.31,1.56.64,2.35.98.5.21,1.04.44,1.56.67,7.44,3.29,14.42,7.19,20.76,11.6.41.28.84.58,1.27.89,3.01,2.14,5.98,4.49,8.79,6.97.33.28.66.58.99.89,1.52,1.35,3.11,2.87,4.67,4.47.41.41.82.84,1.23,1.27.36.37.73.77,1.1,1.18,2.51,2.71,4.91,5.6,7.09,8.56.25.33.52.7.79,1.07l.24.33c.75,1.04,1.41,2,2.02,2.94.32.46.64.97.97,1.49.24.37.5.78.76,1.2,1.45,2.32,2.84,4.79,4.15,7.32.34.66.63,1.24.92,1.83l.05.09c.29.58.57,1.17.84,1.76,1.7,3.58,3.24,7.41,4.58,11.34.25.7.49,1.44.73,2.19.41,1.26.82,2.64,1.3,4.32.23.8.45,1.62.66,2.45l.26,1.02c.17.66.32,1.33.47,2,.2.84.39,1.71.57,2.58.33,1.55.66,3.28,1,5.26.15.86.29,1.72.42,2.6.02.1.03.21.04.33.13.85.25,1.7.36,2.57.12.92.24,1.86.34,2.81.06.54.12,1.13.17,1.71.09.77.15,1.58.22,2.4.05.54.1,1.12.13,1.69.05.65.1,1.34.14,2.04.04.75.09,1.5.11,2.24.01.15.02.29.02.42.03.57.05,1.15.07,1.73.03.84.05,1.73.06,2.62.02,1.02.03,2.06.03,3.12,0,.71,0,1.4-.02,2.09,52.67,34.64,94.4,54.96,102.68,58.89Zm-207.89-178.58s.02,0,.02,0h-.02Zm207.87-329.15h0Z"/><g><g><g><path fill="#b1bec6" d="m293.67,471.61c-.13,0-.26,0-.4,0-2.21-.02-3.99-1.82-3.97-4.03.02-2.21,1.8-3.96,4.03-3.97,7.48.05,14.69-1.67,20.78-4.99,12.85-7,20.79-21.86,18.88-35.33-.31-2.19,1.21-4.21,3.4-4.52,2.19-.31,4.21,1.21,4.52,3.4,2.39,16.92-7.06,34.8-22.98,43.48-7.17,3.91-15.55,5.97-24.27,5.97Z"/><path fill="#b1bec6" d="m292.93,471.61c-8.72,0-17.1-2.06-24.27-5.97-15.92-8.68-25.37-26.55-22.98-43.48.31-2.19,2.34-3.71,4.52-3.4,2.19.31,3.71,2.33,3.4,4.52-1.91,13.47,6.04,28.33,18.88,35.33,6.09,3.32,13.31,5.07,20.78,4.99,2.22,0,4.01,1.76,4.03,3.97.02,2.21-1.76,4.01-3.97,4.03-.13,0-.26,0-.4,0Z"/></g><g><path fill="#b1bec6" d="m455.75,471.61c-.13,0-.26,0-.4,0-2.21-.02-3.99-1.82-3.97-4.03.02-2.21,1.8-3.96,4.03-3.97,7.5.05,14.69-1.67,20.78-4.99,12.85-7,20.79-21.86,18.88-35.33-.31-2.19,1.21-4.21,3.4-4.52,2.19-.31,4.21,1.21,4.52,3.4,2.39,16.92-7.06,34.8-22.98,43.48-7.17,3.91-15.55,5.97-24.27,5.97Z"/><path fill="#b1bec6" d="m455.01,471.61c-8.72,0-17.1-2.06-24.27-5.97-15.92-8.68-25.37-26.56-22.98-43.48.31-2.19,2.33-3.71,4.52-3.4,2.19.31,3.71,2.33,3.4,4.52-1.91,13.47,6.04,28.33,18.88,35.33,6.09,3.32,13.31,5.07,20.78,4.99,2.21,0,4.01,1.76,4.03,3.97.02,2.21-1.76,4.01-3.97,4.03-.13,0-.26,0-.4,0Z"/></g></g><ellipse cx="370.41" cy="538.23" fill="#b1bec6" rx="19.8" ry="11.27"/></g><g><path fill="#b1bec6" d="m647.5,844.67s-113.85,6.77-121.65-92.82c-.28-3.53-.42-7.19-.42-10.99,0-111.08,103.83-119.66,103.83-119.66-38.28,10.69-67.17,54.4-68.33,107.18-.03,1.09-.04,2.2-.04,3.3,0,62.41,38.78,113,86.61,113Z" opacity=".5"/><path fill="#b1bec6" d="m642.73,846.78c-9.45,0-31.21-1.03-53.82-9.29-27.41-10.01-60.95-32.97-65.06-85.48-.28-3.56-.43-7.31-.43-11.15,0-58.3,28.75-88.29,52.86-103.18,26.07-16.1,51.72-18.38,52.8-18.47l.7,3.92c-38.25,10.68-65.74,53.98-66.86,105.29-.03,1.08-.04,2.17-.04,3.25,0,61.21,37.96,111,84.61,111l.12,4c-.28.02-2.01.11-4.89.11Zm4.77-.11h0,0Zm-36.88-219.64c-9.24,2.63-20.83,6.99-32.35,14.13-33.73,20.89-50.83,54.44-50.83,99.7,0,3.73.14,7.38.41,10.84,3.16,40.42,24.13,68,62.33,82,10.51,3.85,20.95,6.09,29.98,7.38-35.52-14.99-61.26-58.37-61.26-109.4,0-1.12.01-2.25.04-3.35.97-44.62,21.44-83.44,51.68-101.29Z"/><path fill="#b1bec6" d="m734.03,727.3c-1.32-45.64-23.4-84.35-54.27-100.51-9.97-5.23-20.86-8.11-32.26-8.11-.11,0-.22,0-.32.01h-.01c-.73,0-1.45.02-2.18.04-.25,0-.48.01-.72.03-.56.02-1.12.05-1.67.1-2.24.16-4.45.43-6.63.81-.14.02-.27.05-.4.08-.65.12-1.29.25-1.94.38-1.46.31-2.93.67-4.37,1.08-38.28,10.69-67.17,54.4-68.33,107.18-.03,1.09-.04,2.2-.04,3.3,0,62.41,38.78,113,86.61,113s86.6-50.59,86.6-113c0-1.46-.02-2.92-.06-4.37Zm-86.53,95.82c-38.71,0-70.09-40.94-70.09-91.44,0-.68.01-1.36.02-2.04,0-.48.01-.97.03-1.45,0-.27.01-.53.02-.79.01-.41.03-.83.05-1.24.02-.64.05-1.26.1-1.88.03-.58.08-1.15.13-1.72.02-.46.06-.93.11-1.39.04-.51.09-1,.14-1.5.06-.66.14-1.31.22-1.96.08-.66.15-1.3.25-1.95.17-1.24.36-2.48.56-3.7.13-.83.28-1.66.44-2.48.11-.57.22-1.13.33-1.7,0-.03.01-.06.02-.09.13-.64.27-1.26.41-1.9.14-.64.29-1.28.45-1.92.15-.64.31-1.27.47-1.91.33-1.26.68-2.5,1.06-3.74.37-1.24.75-2.47,1.17-3.68.2-.6.42-1.21.64-1.8.22-.6.43-1.2.66-1.79.23-.59.45-1.17.69-1.76.28-.73.58-1.45.9-2.18.17-.43.37-.86.55-1.28,1.55-3.48,3.26-6.82,5.14-9.98.26-.44.53-.88.79-1.31.02-.03.04-.06.06-.09.3-.5.61-.99.93-1.48.31-.5.65-.99.97-1.49,1.68-2.51,3.48-4.91,5.36-7.17.32-.39.66-.78.99-1.16.37-.43.75-.86,1.13-1.28.38-.42.76-.84,1.15-1.25s.79-.82,1.18-1.22c.39-.41.79-.8,1.2-1.2,1.62-1.56,3.27-3.04,4.98-4.4.36-.29.7-.56,1.06-.84,1.1-.84,2.21-1.65,3.33-2.41.29-.2.59-.4.88-.59.02-.01.03-.02.04-.03.44-.29.88-.57,1.34-.85,1.55-.97,3.13-1.86,4.75-2.68.4-.2.8-.4,1.2-.59,1.12-.54,2.26-1.04,3.41-1.51.42-.17.85-.33,1.27-.5.28-.11.57-.22.85-.31.48-.18.97-.34,1.46-.51.5-.16,1-.32,1.51-.47.51-.15,1.01-.3,1.52-.43.29-.08.57-.15.86-.22,1.01-.27,2.05-.5,3.07-.68.36-.08.71-.14,1.07-.2.18-.03.37-.05.55-.09.43-.08.87-.14,1.31-.19.11-.02.22-.03.32-.04.41-.05.82-.11,1.24-.14.03-.01.05-.01.09-.01.45-.05.89-.1,1.35-.12.33-.04.67-.06,1-.08.51-.03,1.01-.06,1.52-.08.6-.02,1.21-.03,1.81-.03.66,0,1.3.01,1.95.04.22,0,.44.01.66.03.52.01,1.03.04,1.54.09l.42.03c.45.03.9.08,1.35.14.3.02.61.05.92.1.43.05.85.11,1.28.18.17.02.33.04.51.08.45.06.9.15,1.36.24.99.17,1.97.39,2.95.64.59.14,1.17.29,1.77.45.67.18,1.35.39,2.01.6.4.13.81.26,1.21.4,1.98.68,3.92,1.46,5.83,2.37.37.17.73.34,1.1.53,3.04,1.5,5.97,3.26,8.78,5.28.43.3.85.61,1.27.93.34.26.69.53,1.03.79.26.22.53.42.79.62.05.05.12.1.18.15.37.3.73.59,1.09.9,1.48,1.24,2.91,2.55,4.31,3.93.23.22.44.44.67.67.28.29.56.57.84.87,1.11,1.16,2.2,2.37,3.25,3.61.72.85,1.42,1.71,2.1,2.6.28.36.56.72.84,1.09.4.52.79,1.06,1.16,1.58,1.3,1.82,2.55,3.7,3.74,5.65.3.48.59.98.88,1.48.31.52.61,1.04.9,1.58.82,1.48,1.62,2.98,2.38,4.52.52,1.06,1.02,2.13,1.51,3.23.23.51.44,1,.67,1.51.03.06.05.14.1.22.19.5.4.99.61,1.49.24.58.46,1.16.69,1.76.22.56.43,1.13.64,1.7.43,1.14.83,2.28,1.21,3.45.18.58.38,1.16.55,1.74.16.53.32,1.04.47,1.57.14.45.27.92.4,1.38.16.57.31,1.15.46,1.73.11.41.22.82.31,1.23.11.42.22.85.31,1.27.37,1.53.7,3.07.99,4.64.12.57.23,1.14.32,1.72.13.69.24,1.38.36,2.08.01.08.02.16.03.25.11.71.22,1.42.31,2.14.1.68.18,1.37.27,2.06.01.12.02.24.04.36.12,1.04.23,2.09.31,3.14.04.42.08.85.11,1.28.06.72.11,1.44.15,2.16.03.44.05.88.08,1.34.02.56.05,1.13.06,1.7.01.17.02.34.02.53.01.53.03,1.07.03,1.6.01.67.02,1.34.02,2.01,0,.61,0,1.23-.02,1.83-.74,49.66-31.83,89.61-70.06,89.61Z" opacity=".25"/><g><path fill="#b1bec6" d="m647.5,846.67c-48.86,0-88.61-51.59-88.61-115,0-1.12.01-2.25.04-3.35,1.16-53.04,29.86-97.89,69.79-109.04,1.4-.4,2.91-.77,4.49-1.11.68-.14,1.34-.27,1.99-.39l.14-.03c.1-.02.21-.04.32-.06,2.2-.38,4.5-.66,6.79-.83.55-.04,1.12-.08,1.69-.1.28-.02.56-.04.85-.04.66-.02,1.38-.04,2.11-.04.13,0,.27-.01.4-.01,11.48,0,22.65,2.8,33.19,8.34,32.31,16.91,54.03,57.04,55.34,102.22.04,1.47.07,2.95.07,4.43,0,63.41-39.75,115-88.6,115Zm0-225.99h-.32c-.72.01-1.42.03-2.13.05-.25,0-.42,0-.6.03h-.1c-.53.03-1.07.06-1.59.1-2.18.16-4.34.42-6.45.78l-.41.08c-.6.11-1.24.24-1.87.36-1.47.31-2.9.67-4.22,1.04-38.26,10.69-65.75,53.99-66.87,105.3-.03,1.08-.04,2.17-.04,3.25,0,61.21,37.96,111,84.61,111s84.6-49.8,84.6-111c0-1.44-.02-2.88-.06-4.31h0c-1.27-43.76-22.15-82.54-53.2-98.8-9.96-5.23-20.51-7.88-31.33-7.88Z"/><path fill="#b1bec6" d="m647.5,825.11c-39.75,0-72.09-41.92-72.09-93.45,0-.69.01-1.38.02-2.07,0-.48.01-1,.03-1.51,0-.21,0-.5.02-.78,0-.4.03-.83.05-1.26.02-.62.05-1.27.1-1.92.03-.58.08-1.18.13-1.77.02-.4.06-.89.11-1.39.04-.51.09-1.02.14-1.53.06-.65.14-1.31.22-1.97.08-.68.16-1.35.26-2.01.17-1.24.36-2.49.56-3.74.13-.83.29-1.69.45-2.54.09-.5.19-1,.3-1.52v-.27l.11-.23c.09-.45.19-.89.29-1.34l.08-.37c.14-.66.3-1.32.47-1.98.15-.62.31-1.26.47-1.91.39-1.46.73-2.67,1.08-3.83.39-1.33.79-2.56,1.2-3.75.21-.61.43-1.22.65-1.83.21-.6.44-1.21.67-1.81.23-.61.46-1.2.71-1.8.27-.71.58-1.46.93-2.24.11-.28.26-.63.42-.98l.12-.28c1.6-3.59,3.36-7.01,5.25-10.2.21-.36.43-.73.65-1.09l.15-.24c.04-.06.08-.13.12-.19.29-.48.6-.96.9-1.43.21-.33.44-.68.67-1.03l.3-.46c1.71-2.56,3.56-5.03,5.5-7.36.33-.4.67-.79,1.01-1.19.35-.41.73-.84,1.1-1.25.44-.49.84-.93,1.24-1.35.4-.42.81-.85,1.23-1.26.36-.38.78-.79,1.2-1.2,1.71-1.65,3.43-3.17,5.13-4.54.29-.24.6-.48.9-.72l.17-.13c1.19-.91,2.34-1.74,3.44-2.49.2-.14.42-.29.65-.44l.3-.21c.46-.3.91-.59,1.38-.88,1.59-.99,3.24-1.92,4.9-2.76.37-.19.75-.38,1.13-.56l.09-.04c1.19-.57,2.37-1.09,3.54-1.57.32-.13.65-.26.97-.38l.32-.12c.3-.12.61-.23.91-.33.46-.18.98-.35,1.5-.52.52-.17,1.04-.33,1.56-.49.59-.17,1.09-.32,1.59-.45l.16-.04c.25-.07.5-.13.76-.19.97-.26,2.06-.5,3.16-.7.3-.07.67-.13,1.04-.2l.58-.09c.45-.08.9-.14,1.35-.2.14-.02.29-.04.43-.06.31-.04.66-.09,1.03-.12l.08-.03h.26c.44-.06.88-.1,1.32-.12.37-.04.74-.07,1.1-.08.48-.03,1.01-.06,1.55-.08,1.25-.05,2.6-.05,3.9.01.17,0,.42,0,.67.03.53.01,1.07.05,1.59.09l.4.03c.47.03.94.08,1.41.14.32.02.66.06.98.11.43.05.88.11,1.34.19.12.01.32.04.53.08.4.05.88.15,1.37.24.96.17,1.98.38,3.06.66.58.14,1.19.29,1.8.46.7.19,1.41.41,2.1.63l.22.07c.34.11.69.22,1.04.34,2.04.7,4.07,1.52,6.02,2.45.37.18.75.35,1.14.55,3.09,1.52,6.14,3.36,9.04,5.44.41.29.82.59,1.23.9l1.19.9c.16.13.32.26.47.38l.77.62c.29.24.57.47.85.71,1.43,1.2,2.92,2.56,4.39,4.01.14.13.3.3.47.46l.51.52c.2.2.4.41.59.62,1.11,1.16,2.23,2.41,3.31,3.67.79.93,1.49,1.8,2.16,2.67.27.34.56.72.84,1.09.41.53.81,1.09,1.2,1.63,1.35,1.89,2.64,3.83,3.82,5.78.3.48.6.99.9,1.5.32.52.63,1.08.94,1.64.85,1.53,1.67,3.08,2.41,4.58.58,1.17,1.08,2.25,1.55,3.31l.8,1.8c.19.47.38.95.59,1.42.26.63.49,1.23.72,1.84.22.57.44,1.16.65,1.74.42,1.1.82,2.26,1.22,3.5l.19.58c.13.4.26.81.38,1.21l.1.33c.13.42.26.84.38,1.27.13.43.27.91.4,1.39.16.58.32,1.17.47,1.77.13.48.23.88.32,1.27.1.4.21.85.31,1.28.4,1.65.73,3.2,1.01,4.73.12.55.23,1.15.33,1.76.08.45.17.93.25,1.42l.15.96c.11.71.21,1.42.31,2.14.09.67.18,1.36.27,2.06.01.15.02.21.03.27l.02.13c.12,1.07.23,2.13.32,3.21.04.4.08.84.11,1.29.07.71.11,1.45.15,2.2.03.43.05.89.08,1.36l.02.55c.02.4.04.8.04,1.21,0,.13.02.34.02.57v.47c.02.38.03.76.03,1.14.01.65.02,1.33.02,2.01,0,.64,0,1.28-.02,1.9-.37,24.43-7.96,47.39-21.4,64.59-13.57,17.38-31.56,26.95-50.66,26.95Zm-65.77-116.66c-.1.5-.2.99-.29,1.48-.16.81-.31,1.61-.43,2.42-.21,1.23-.39,2.45-.55,3.67-.1.64-.17,1.27-.24,1.9-.07.64-.15,1.28-.21,1.93-.05.5-.1.98-.14,1.47-.04.45-.08.88-.1,1.31-.06.64-.1,1.19-.13,1.74-.04.63-.08,1.23-.1,1.84-.02.43-.04.83-.05,1.22-.01.26-.02.49-.02.73-.02.54-.03,1-.03,1.45-.01.7-.02,1.37-.02,2.04,0,49.32,30.54,89.45,68.09,89.45,17.84,0,34.72-9.03,47.51-25.41,12.9-16.52,20.2-38.62,20.55-62.23.02-.62.02-1.21.02-1.8,0-.67-.01-1.32-.02-1.98,0-.38,0-.72-.02-1.06v-.54c-.01-.18-.02-.31-.03-.44-.01-.46-.03-.83-.04-1.19l-.02-.56c-.02-.42-.04-.84-.07-1.27-.04-.73-.08-1.43-.15-2.13-.03-.44-.06-.86-.1-1.26-.09-1.06-.19-2.06-.3-3.07-.02-.15-.04-.3-.05-.46-.08-.62-.16-1.29-.26-1.95-.1-.72-.2-1.41-.31-2.1l-.14-.9c-.08-.46-.15-.92-.24-1.38-.1-.59-.2-1.14-.32-1.68-.28-1.5-.59-2.98-.98-4.58-.1-.42-.2-.84-.3-1.24-.09-.4-.19-.76-.28-1.12l-.03-.1c-.15-.57-.29-1.13-.45-1.69-.13-.45-.25-.9-.38-1.33-.13-.44-.25-.84-.37-1.24l-.11-.34c-.12-.39-.24-.76-.36-1.14l-.19-.58c-.38-1.17-.76-2.26-1.17-3.34-.21-.59-.42-1.15-.63-1.69-.22-.58-.44-1.15-.67-1.71-.2-.45-.4-.94-.59-1.42-.03-.07-.06-.13-.09-.2l-.67-1.53c-.45-1.02-.93-2.05-1.48-3.17-.71-1.44-1.5-2.93-2.33-4.43-.29-.53-.57-1.03-.87-1.52-.3-.5-.58-.98-.87-1.45-1.14-1.88-2.37-3.74-3.67-5.55-.36-.51-.74-1.03-1.12-1.53-.28-.37-.55-.72-.83-1.07-.65-.84-1.31-1.67-2.05-2.54-1.03-1.21-2.1-2.39-3.17-3.52-.19-.21-.37-.39-.54-.57l-.5-.51c-.13-.13-.26-.27-.4-.4-1.42-1.4-2.83-2.68-4.21-3.85-.28-.24-.53-.45-.78-.65l-.3-.24c-.08-.06-.14-.11-.2-.17l-.2-.16c-.18-.14-.36-.28-.54-.43l-.99-.75c-.44-.33-.82-.61-1.22-.89-2.75-1.97-5.61-3.69-8.51-5.12-.36-.18-.71-.35-1.06-.51-1.82-.87-3.71-1.63-5.62-2.29-.33-.12-.64-.22-.95-.32l-.23-.07c-.64-.21-1.29-.4-1.93-.58-.56-.15-1.12-.3-1.69-.43-1.02-.26-1.93-.45-2.83-.61-.46-.09-.88-.17-1.3-.23-.22-.04-.34-.05-.47-.07-.5-.08-.88-.13-1.28-.18-.29-.04-.55-.07-.81-.09l-.15-.02c-.39-.06-.8-.1-1.2-.12l-.43-.03c-.48-.04-.95-.07-1.43-.08h-.16c-.15-.02-.31-.03-.46-.03-1.37-.06-2.48-.05-3.69-.01-.51.01-.99.04-1.46.07-.33.01-.6.03-.87.06h-.16c-.37.03-.72.07-1.09.11h-.04s-.25.03-.25.03c-.38.03-.76.08-1.13.13l-.34.04c-.41.05-.82.11-1.22.18l-.55.09c-.33.06-.66.12-.99.19-1.06.19-2.03.41-2.98.66-.29.07-.49.12-.7.17l-.17.04c-.46.12-.91.25-1.37.39-.57.17-1.06.33-1.54.48-.46.15-.92.3-1.38.47-.31.11-.58.21-.84.31l-.33.13c-.3.12-.6.23-.9.35-1.1.44-2.21.93-3.3,1.46l-.08.04c-.35.17-.71.35-1.06.53-1.57.79-3.11,1.67-4.6,2.6-.38.24-.76.47-1.13.71l-.08.08-.38.23c-.19.13-.38.25-.57.38-1.07.73-2.16,1.52-3.27,2.37l-.15.12c-.29.23-.57.45-.86.68-1.62,1.3-3.25,2.74-4.85,4.29-.39.38-.77.75-1.13,1.13-.43.43-.81.82-1.19,1.22-.37.39-.75.8-1.12,1.21-.4.45-.76.84-1.1,1.24-.33.39-.66.77-.98,1.15-1.85,2.22-3.61,4.58-5.24,7l-.3.46c-.22.33-.43.65-.64.98-.32.49-.62.97-.91,1.45l-.21.32c-.21.35-.42.7-.63,1.05-1.81,3.06-3.51,6.35-5.04,9.79l-.12.28c-.14.31-.27.62-.4.94-.34.76-.63,1.45-.89,2.14-.25.61-.47,1.18-.69,1.75-.22.58-.43,1.15-.64,1.74-.22.59-.43,1.18-.62,1.77-.4,1.15-.77,2.32-1.15,3.61-.34,1.12-.67,2.29-1.04,3.68-.15.6-.31,1.23-.46,1.86-.16.64-.31,1.27-.44,1.88l-.08.37c-.11.5-.22.99-.32,1.49l-.06.27Zm128.88-22h0s0,0,0,0Zm-25.1-34.21h0s0,0,0,0Z"/></g><path fill="#b1bec6" d="m577.41,731.67c0,50.5,31.38,91.44,70.09,91.44,38.7,0,70.08-40.94,70.08-91.44,0-50.5-31.38-91.44-70.08-91.44-38.71,0-70.09,40.94-70.09,91.44Zm116.09-45.61c0,3.44-2.79,6.22-6.23,6.22h-78.45c-1.71,0-3.27-.7-4.4-1.82-1.12-1.13-1.82-2.68-1.82-4.4,0-3.45,2.79-6.23,6.22-6.23h78.45c1.72,0,3.28.7,4.42,1.82,1.12,1.13,1.82,2.69,1.82,4.41Zm-90.91,67.44c0-3.44,2.79-6.22,6.22-6.22h78.45c1.72,0,3.28.7,4.42,1.82,1.12,1.13,1.82,2.69,1.82,4.4,0,3.45-2.79,6.23-6.23,6.23h-78.45c-1.71,0-3.27-.7-4.4-1.83-1.12-1.12-1.82-2.68-1.82-4.4Zm0-33.72c0-3.45,2.79-6.23,6.22-6.23h78.45c1.72,0,3.28.7,4.42,1.82,1.12,1.13,1.82,2.69,1.82,4.42,0,3.44-2.79,6.22-6.23,6.22h-78.45c-1.71,0-3.27-.7-4.4-1.82-1.12-1.13-1.82-2.68-1.82-4.4Z" opacity=".5"/><g><path fill="#b1bec6" d="m602.6,686.05c0,1.72.7,3.27,1.82,4.4,1.13,1.12,2.69,1.82,4.4,1.82h78.45c3.45,0,6.23-2.79,6.23-6.22,0-1.72-.7-3.28-1.82-4.41-1.13-1.12-2.69-1.82-4.42-1.82h-78.45c-3.44,0-6.22,2.79-6.22,6.23Z" opacity=".75"/><path fill="#b1bec6" d="m602.6,719.78c0,1.72.7,3.27,1.82,4.4,1.13,1.12,2.69,1.82,4.4,1.82h78.45c3.45,0,6.23-2.79,6.23-6.22,0-1.72-.7-3.28-1.82-4.42-1.13-1.12-2.69-1.82-4.42-1.82h-78.45c-3.44,0-6.22,2.79-6.22,6.23Z" opacity=".75"/><path fill="#b1bec6" d="m602.6,753.5c0,1.72.7,3.28,1.82,4.4,1.13,1.13,2.69,1.83,4.4,1.83h78.45c3.45,0,6.23-2.79,6.23-6.23,0-1.71-.7-3.27-1.82-4.4-1.13-1.12-2.69-1.82-4.42-1.82h-78.45c-3.44,0-6.22,2.79-6.22,6.22Z" opacity=".75"/></g><path fill="#b1bec6" d="m687.27,694.28h-78.45c-2.19,0-4.25-.85-5.81-2.4-1.56-1.58-2.41-3.64-2.41-5.83,0-4.54,3.69-8.24,8.22-8.24h78.45c2.19,0,4.26.85,5.82,2.4,1.56,1.58,2.41,3.64,2.41,5.84,0,4.54-3.69,8.22-8.24,8.22Zm-78.45-12.46c-2.33,0-4.22,1.9-4.22,4.24,0,1.12.44,2.19,1.24,3,.79.79,1.86,1.23,2.98,1.23h78.45c2.33,0,4.24-1.9,4.24-4.22,0-1.13-.44-2.2-1.24-3.01-.79-.79-1.86-1.23-2.99-1.23h-78.45Z"/><path fill="#b1bec6" d="m687.27,728h-78.45c-2.19,0-4.25-.85-5.81-2.4-1.56-1.58-2.41-3.64-2.41-5.83,0-4.54,3.69-8.24,8.22-8.24h78.45c2.19,0,4.26.85,5.82,2.4,1.56,1.58,2.41,3.64,2.41,5.84,0,4.53-3.69,8.22-8.24,8.22Zm-78.45-12.46c-2.33,0-4.22,1.9-4.22,4.24,0,1.12.44,2.19,1.24,3,.79.79,1.86,1.23,2.98,1.23h78.45c2.33,0,4.24-1.89,4.24-4.22,0-1.13-.44-2.2-1.24-3.01-.79-.79-1.86-1.23-2.99-1.23h-78.45Z"/><path fill="#b1bec6" d="m687.27,761.73h-78.45c-2.19,0-4.26-.86-5.82-2.42-1.55-1.55-2.41-3.62-2.41-5.82,0-4.54,3.69-8.22,8.22-8.22h78.45c2.19,0,4.26.85,5.82,2.4,1.56,1.58,2.41,3.64,2.41,5.83,0,4.54-3.69,8.23-8.24,8.23Zm-78.45-12.46c-2.33,0-4.22,1.9-4.22,4.22,0,1.13.44,2.19,1.23,2.99.8.8,1.87,1.25,2.99,1.25h78.45c2.33,0,4.24-1.9,4.24-4.23,0-1.12-.44-2.19-1.24-3-.79-.79-1.86-1.23-2.99-1.23h-78.45Z"/></g><g><path fill="#b1bec6" d="m206.29,844.67s113.85,6.77,121.65-92.82c.28-3.53.42-7.19.42-10.99,0-111.08-103.83-119.66-103.83-119.66,38.28,10.69,67.17,54.4,68.33,107.18.03,1.09.04,2.2.04,3.3,0,62.41-38.78,113-86.61,113Z" opacity=".5"/><path fill="#b1bec6" d="m211.06,846.78c-2.88,0-4.61-.1-4.89-.11l.12-4c46.65,0,84.61-49.8,84.61-111,0-1.08-.01-2.17-.04-3.24-1.12-51.33-28.62-94.63-66.86-105.31l.7-3.92c1.08.09,26.73,2.37,52.8,18.47,24.12,14.89,52.86,44.88,52.86,103.18,0,3.84-.14,7.59-.43,11.15-4.11,52.5-37.65,75.46-65.06,85.48-22.61,8.26-44.37,9.29-53.82,9.29Zm32.09-219.76c30.26,17.84,50.73,56.67,51.7,101.31.03,1.09.04,2.22.04,3.34,0,51.03-25.74,94.41-61.26,109.4,9.03-1.29,19.47-3.53,29.98-7.38,38.2-14,59.17-41.58,62.33-82,.27-3.46.41-7.11.41-10.84,0-45.33-17.15-78.9-50.96-99.78-11.5-7.1-23.05-11.44-32.24-14.06Z"/><path fill="#b1bec6" d="m119.69,731.67c0,62.41,38.77,113,86.6,113,47.83,0,86.61-50.59,86.61-113,0-1.1-.01-2.21-.04-3.3-1.15-52.78-30.04-96.48-68.33-107.18-1.44-.41-2.91-.76-4.37-1.08-.65-.13-1.29-.26-1.94-.38-.13-.02-.26-.05-.4-.08-2.19-.38-4.39-.65-6.63-.81-.55-.04-1.11-.08-1.67-.1-.24-.02-.47-.03-.72-.03-.72-.02-1.44-.04-2.18-.04h-.01c-.11-.01-.22-.01-.32-.01-11.4,0-22.29,2.88-32.26,8.11-30.87,16.16-52.95,54.88-54.27,100.51-.04,1.45-.06,2.91-.06,4.37Zm16.54,1.83c-.02-.6-.02-1.22-.02-1.83s.01-1.35.02-2.01c0-.54.02-1.08.03-1.6,0-.18.01-.36.02-.53.01-.57.04-1.14.06-1.7.02-.45.04-.89.08-1.34.04-.72.09-1.44.15-2.16.03-.43.06-.86.11-1.28.09-1.06.19-2.1.31-3.14.02-.12.03-.24.04-.36.09-.69.17-1.38.27-2.06.1-.72.2-1.43.31-2.14.01-.09.02-.17.03-.25.12-.7.23-1.39.36-2.08.1-.58.2-1.15.32-1.72.29-1.57.62-3.11.99-4.64.1-.42.2-.85.31-1.27.1-.41.2-.82.31-1.23.15-.58.3-1.16.46-1.73.13-.46.26-.93.4-1.38.15-.53.31-1.04.47-1.57.17-.58.37-1.16.55-1.74.38-1.16.78-2.3,1.21-3.45.2-.57.42-1.14.64-1.7.23-.59.45-1.17.69-1.76.22-.5.42-.99.61-1.49.04-.08.06-.15.1-.22.23-.51.44-1,.67-1.51.48-1.1.99-2.18,1.51-3.23.76-1.54,1.56-3.05,2.38-4.52.29-.54.59-1.07.9-1.58.29-.5.58-.99.88-1.48,1.18-1.95,2.43-3.83,3.74-5.65.38-.53.76-1.07,1.16-1.58.28-.37.56-.73.84-1.09.68-.88,1.38-1.74,2.1-2.6,1.06-1.24,2.14-2.44,3.25-3.61.28-.3.56-.58.84-.87.23-.23.44-.45.67-.67,1.4-1.38,2.83-2.69,4.31-3.93.36-.31.72-.6,1.09-.9.06-.05.13-.1.18-.15.26-.2.53-.41.79-.62.34-.26.69-.53,1.03-.79.42-.31.84-.62,1.27-.93,2.81-2.01,5.74-3.78,8.78-5.28.37-.18.73-.36,1.1-.53,1.91-.9,3.84-1.69,5.83-2.37.4-.14.81-.27,1.21-.4.67-.22,1.35-.42,2.01-.6.59-.16,1.17-.31,1.77-.45.98-.25,1.96-.46,2.95-.64.45-.09.9-.17,1.36-.24.17-.03.33-.05.51-.08.43-.08.85-.13,1.28-.18.3-.04.61-.08.92-.1.44-.06.89-.11,1.35-.14l.42-.03c.51-.04,1.02-.08,1.54-.09.22-.02.44-.03.66-.03.65-.03,1.29-.04,1.95-.04.6,0,1.21.01,1.81.03.51.01,1.01.04,1.52.08.33.01.67.03,1,.08.45.02.89.06,1.35.12.03,0,.05,0,.09.01.42.03.83.09,1.24.14.11.01.22.02.32.04.44.05.88.12,1.31.19.18.03.37.05.55.09.36.06.71.13,1.07.2,1.02.18,2.06.41,3.07.68.29.06.57.14.86.22.51.13,1.01.28,1.52.43.51.15,1.01.31,1.51.47.5.16.98.32,1.46.51.28.1.57.2.85.31.42.16.85.32,1.27.5,1.15.46,2.29.97,3.41,1.51.4.19.8.39,1.2.59,1.62.82,3.2,1.71,4.75,2.68.45.28.89.56,1.34.85.01.01.02.02.04.03.29.19.59.39.88.59,1.12.76,2.23,1.57,3.33,2.41.36.28.7.55,1.06.84,1.7,1.37,3.36,2.84,4.98,4.4.41.4.81.79,1.2,1.2.4.4.8.81,1.18,1.22s.78.83,1.15,1.25c.38.42.76.85,1.13,1.28.33.39.67.78.99,1.16,1.88,2.26,3.68,4.66,5.36,7.17.32.5.66.99.97,1.49.31.48.62.98.93,1.48.02.02.04.05.06.09.26.43.53.87.79,1.31,1.87,3.17,3.59,6.5,5.14,9.98.18.42.38.85.55,1.28.32.72.62,1.44.9,2.18.24.58.46,1.16.69,1.76.23.59.44,1.18.66,1.79.22.59.43,1.2.64,1.8.42,1.22.81,2.44,1.17,3.68.38,1.24.72,2.48,1.06,3.74.16.64.32,1.27.47,1.91.16.64.31,1.28.45,1.92.14.64.28,1.26.41,1.9.01.02.02.05.02.09.12.57.23,1.13.33,1.7.16.82.31,1.65.44,2.48.2,1.23.39,2.47.56,3.7.1.65.17,1.29.25,1.95.08.65.15,1.3.22,1.96.05.5.1.99.14,1.5.04.46.09.93.11,1.39.05.57.1,1.14.13,1.72.04.62.08,1.25.1,1.88.02.41.04.83.05,1.24.01.26.02.52.02.79.02.48.03.97.03,1.45.01.68.02,1.36.02,2.04,0,50.5-31.38,91.44-70.09,91.44-38.23,0-69.32-39.95-70.06-89.61Z" opacity=".25"/><g><path fill="#b1bec6" d="m206.29,846.67c-48.85,0-88.6-51.59-88.6-115,0-1.48.02-2.96.07-4.43,1.31-45.18,23.04-85.31,55.34-102.22,10.54-5.53,21.71-8.34,33.19-8.34.13,0,.27,0,.4.01.73,0,1.45.02,2.17.04.24,0,.51.01.79.04.57.02,1.14.05,1.7.1,2.28.17,4.58.45,6.82.83.07.01.18.03.28.05l.11.02c.69.13,1.35.26,2,.39,1.61.34,3.12.72,4.53,1.11,39.92,11.15,68.62,56,69.78,109.06.03,1.09.04,2.22.04,3.34,0,63.41-39.75,115-88.61,115Zm0-225.99c-10.83,0-21.37,2.65-31.33,7.88-31.05,16.26-51.93,55.04-53.2,98.8-.04,1.43-.06,2.87-.06,4.31,0,61.21,37.95,111,84.6,111s84.61-49.8,84.61-111c0-1.08-.01-2.17-.04-3.24-1.12-51.33-28.62-94.63-66.86-105.31-1.33-.38-2.75-.73-4.25-1.05-.61-.12-1.25-.25-1.88-.37l-.34-.07c-2.14-.37-4.31-.63-6.47-.79-.53-.04-1.07-.07-1.6-.09h-.1c-.18-.02-.36-.03-.54-.03-.76-.02-1.46-.04-2.18-.04h-.33Z"/><path fill="#b1bec6" d="m206.29,825.11c-19.1,0-37.09-9.57-50.66-26.95-13.43-17.2-21.03-40.15-21.4-64.61-.02-.62-.02-1.25-.02-1.88,0-.69.01-1.37.02-2.05,0-.35,0-.73.02-1.1v-.51c.01-.18.02-.4.04-.61,0-.33.02-.75.04-1.16l.02-.5c.02-.48.04-.94.08-1.4.04-.71.09-1.46.15-2.2.03-.42.07-.87.11-1.31.08-1.04.19-2.1.31-3.17l.02-.13c.01-.06.01-.12.02-.18.09-.77.18-1.47.28-2.16.1-.72.21-1.44.32-2.16l.13-.86c.08-.51.17-1.02.26-1.53.09-.57.21-1.16.33-1.76.27-1.47.6-3.02,1-4.7.1-.42.21-.87.32-1.3.09-.39.2-.81.32-1.24.16-.61.31-1.19.47-1.77.14-.49.27-.96.41-1.42.12-.41.25-.86.39-1.31l.08-.26c.11-.37.24-.77.36-1.16l.19-.6c.4-1.24.81-2.4,1.24-3.55.2-.56.42-1.14.64-1.71.23-.6.46-1.2.7-1.79.22-.52.42-.99.61-1.46l.08-.19c.03-.07.06-.13.08-.19l.63-1.43c.46-1.04.96-2.12,1.54-3.29.74-1.5,1.56-3.04,2.43-4.61.3-.55.61-1.1.94-1.65.28-.49.58-1,.9-1.5,1.17-1.93,2.46-3.87,3.81-5.76.39-.55.79-1.1,1.21-1.64l.08-.1c.26-.34.52-.68.78-1.01.67-.87,1.37-1.74,2.14-2.65,1.08-1.26,2.2-2.5,3.33-3.69.18-.19.38-.4.58-.6l.49-.5c.17-.17.33-.34.5-.5,1.46-1.43,2.95-2.79,4.4-4.02.25-.22.53-.45.81-.68l.75-.61c.17-.13.33-.26.5-.4l1.23-.94c.4-.3.8-.59,1.21-.88,2.89-2.07,5.94-3.9,9.04-5.43.37-.19.75-.36,1.13-.54,1.94-.92,3.97-1.75,6.03-2.45.32-.11.67-.23,1.02-.34l.22-.07c.7-.22,1.4-.44,2.1-.63.62-.17,1.22-.33,1.84-.47,1.05-.27,2.07-.49,3.07-.66.45-.09.93-.18,1.42-.25.13-.03.33-.05.54-.08.37-.07.82-.13,1.28-.18.29-.04.62-.08.95-.1.47-.07.94-.11,1.42-.15l.41-.03c.51-.04,1.04-.08,1.58-.09.25-.02.52-.03.77-.03,1.11-.06,2.51-.06,3.83,0,.5.01,1.04.04,1.57.08.32.01.68.03,1.05.08.43.02.86.06,1.29.11l.33.03c.39.04.76.08,1.14.13.09,0,.23.02.37.05.45.06.91.12,1.35.2l.55.09c.39.07.76.14,1.14.22,1.03.18,2.12.42,3.16.7.19.04.45.11.71.17l.14.04c.5.13,1.01.28,1.52.43.58.17,1.11.34,1.62.51.53.17,1.04.34,1.55.54.25.09.56.2.86.32l.32.12c.33.13.66.25.99.39,1.15.46,2.34.99,3.52,1.56l.1.05c.38.19.76.37,1.14.57,1.65.84,3.3,1.77,4.89,2.76.46.29.92.58,1.37.88l.33.22c.22.14.44.29.65.44,1.08.74,2.2,1.55,3.39,2.46l.22.17c.3.23.59.46.88.71,1.68,1.35,3.4,2.87,5.1,4.51.44.43.85.83,1.26,1.26.37.37.78.79,1.18,1.22.4.42.8.86,1.19,1.29.43.47.81.9,1.17,1.32l.08.09c.31.36.62.73.93,1.09,1.94,2.32,3.78,4.79,5.49,7.34l.33.5c.23.35.46.69.67,1.04.29.45.59.92.88,1.4.04.05.07.1.1.14l.2.33c.21.35.42.7.63,1.06,1.88,3.17,3.64,6.6,5.24,10.18l.14.31c.15.34.3.69.44,1.04.32.72.63,1.46.92,2.2.23.55.46,1.15.69,1.76.23.6.45,1.21.67,1.83.22.59.44,1.21.65,1.83.41,1.18.8,2.42,1.2,3.76.35,1.14.69,2.35,1.07,3.79l.03.13c.15.61.31,1.22.45,1.83.16.62.32,1.29.46,1.95l.04.18c.11.5.22.99.32,1.48l.09.19v.31c.12.53.22,1.05.32,1.58.16.83.32,1.68.45,2.54.2,1.22.39,2.48.56,3.74.1.65.18,1.32.25,2,.08.65.15,1.32.22,1.99.05.49.1,1,.14,1.52.04.48.09.97.11,1.47.05.5.09,1.1.13,1.71.04.62.08,1.27.1,1.93.02.39.04.83.05,1.25.01.25.02.54.02.84.02.42.03.94.03,1.45.01.66.02,1.35.02,2.04,0,51.53-32.34,93.45-72.09,93.45Zm-67.31-106.94c-.11,1.01-.22,2.01-.3,3.03-.04.44-.08.86-.11,1.27-.06.73-.11,1.43-.15,2.13-.03.45-.05.88-.07,1.31l-.02.5c-.02.38-.03.76-.04,1.14-.01.22-.02.35-.02.49v.58c-.02.34-.03.68-.03,1.03-.01.69-.02,1.35-.02,2.01,0,.59,0,1.18.02,1.76v.04c.35,23.61,7.65,45.71,20.55,62.23,12.79,16.39,29.67,25.41,47.51,25.41,37.55,0,68.09-40.12,68.09-89.45,0-.67-.01-1.33-.02-2,0-.49,0-.94-.03-1.4,0-.33-.01-.56-.02-.79-.01-.42-.03-.82-.05-1.22-.02-.65-.05-1.25-.09-1.85-.03-.58-.07-1.12-.13-1.67-.03-.53-.07-.96-.11-1.4-.04-.51-.08-.99-.14-1.47-.07-.66-.14-1.31-.21-1.94-.07-.64-.15-1.26-.24-1.88-.17-1.24-.35-2.46-.56-3.67-.13-.82-.27-1.63-.43-2.42-.1-.52-.19-1.01-.29-1.5v-.02s-.06-.26-.06-.26c-.11-.56-.24-1.11-.36-1.67l-.04-.19c-.13-.62-.28-1.24-.44-1.86-.15-.62-.3-1.21-.45-1.79l-.03-.11c-.36-1.38-.69-2.54-1.03-3.65-.38-1.3-.76-2.48-1.15-3.61-.2-.6-.41-1.19-.62-1.76-.21-.6-.42-1.18-.65-1.76-.22-.58-.44-1.15-.67-1.71-.27-.71-.55-1.39-.88-2.11-.16-.38-.29-.69-.42-.99l-.13-.31c-1.52-3.42-3.22-6.71-5.02-9.76-.2-.35-.41-.69-.61-1.02l-.23-.36c-.29-.48-.6-.96-.9-1.43-.21-.34-.42-.66-.64-.98l-.33-.49c-1.61-2.41-3.38-4.77-5.22-6.99-.29-.35-.59-.7-.89-1.04l-.08-.1c-.34-.4-.7-.8-1.05-1.19-.42-.47-.79-.88-1.17-1.27-.38-.4-.76-.79-1.15-1.18-.4-.42-.78-.79-1.17-1.17-1.62-1.56-3.24-3-4.84-4.29-.29-.24-.56-.45-.84-.67l-.2-.16c-1.11-.84-2.17-1.61-3.22-2.33-.21-.15-.39-.27-.58-.39l-.47-.31c-.38-.25-.75-.48-1.14-.72-1.5-.94-3.04-1.81-4.6-2.6-.37-.19-.72-.36-1.08-.53l-.09-.04c-1.09-.52-2.2-1.01-3.28-1.45-.31-.13-.61-.24-.92-.36l-.33-.13c-.26-.1-.53-.2-.79-.29-.5-.19-.96-.34-1.43-.49-.48-.15-.96-.31-1.46-.46-.52-.16-.98-.29-1.44-.41l-.16-.04c-.22-.06-.43-.11-.65-.16-1.01-.27-1.99-.48-2.98-.66-.4-.08-.74-.15-1.07-.21l-.54-.08c-.39-.07-.8-.13-1.21-.18l-.28-.04c-.43-.06-.81-.11-1.19-.14l-.29-.03c-.36-.04-.72-.08-1.09-.09h-.16c-.27-.05-.54-.07-.82-.08-.54-.03-1.01-.06-1.49-.07-1.26-.04-2.43-.05-3.62,0-.25,0-.41.01-.56.03h-.16c-.47.02-.95.05-1.41.09l-.44.03c-.41.03-.82.07-1.21.12l-.15.02c-.25.02-.52.04-.78.08-.43.05-.82.1-1.22.17-.23.03-.35.05-.48.07-.51.07-.93.15-1.35.24-.93.16-1.85.36-2.84.61-.6.14-1.16.29-1.73.44-.63.17-1.29.37-1.92.58l-.23.07c-.31.1-.62.2-.93.31-1.93.66-3.82,1.43-5.63,2.29-.36.17-.71.33-1.06.51-2.92,1.44-5.78,3.16-8.51,5.11-.4.28-.77.55-1.14.83l-1.08.82c-.18.15-.37.3-.56.45l-.18.14c-.06.05-.12.1-.18.15l-.32.26c-.25.2-.5.41-.74.62-1.41,1.18-2.82,2.47-4.22,3.85-.16.15-.3.29-.43.43l-.48.5c-.17.18-.35.36-.52.54-1.1,1.16-2.17,2.34-3.2,3.55-.73.86-1.39,1.68-2.04,2.52-.26.33-.51.66-.76.98l-.08.11c-.39.5-.76,1.02-1.12,1.53-1.29,1.81-2.52,3.67-3.65,5.53-.3.49-.58.97-.87,1.45-.31.51-.6,1.01-.87,1.52-.85,1.54-1.64,3.03-2.35,4.46-.54,1.11-1.03,2.14-1.47,3.15l-.67,1.52c-.03.08-.06.15-.1.22-.19.49-.39.98-.61,1.47-.21.52-.43,1.09-.65,1.67-.21.55-.42,1.11-.62,1.67-.43,1.13-.81,2.22-1.19,3.39l-.19.6c-.12.36-.23.73-.34,1.09l-.09.29c-.13.42-.26.84-.38,1.27-.14.46-.26.9-.39,1.34-.17.58-.31,1.14-.45,1.7-.11.43-.22.82-.31,1.22-.11.44-.22.86-.31,1.26-.39,1.62-.71,3.11-.97,4.56-.12.59-.22,1.13-.32,1.69-.1.52-.18,1-.26,1.48l-.12.74c-.12.77-.22,1.47-.32,2.18-.1.68-.18,1.36-.27,2.04,0,.09-.02.24-.05.39Z"/></g><path fill="#b1bec6" d="m206.29,640.22c-38.7,0-70.08,40.94-70.08,91.44,0,50.5,31.38,91.44,70.08,91.44,38.71,0,70.09-40.94,70.09-91.44s-31.38-91.44-70.09-91.44Zm-44.18,41.41c1.13-1.12,2.69-1.82,4.42-1.82h78.45c3.44,0,6.22,2.79,6.22,6.23,0,1.72-.7,3.27-1.82,4.4-1.13,1.12-2.69,1.82-4.4,1.82h-78.45c-3.45,0-6.23-2.79-6.23-6.22,0-1.72.7-3.28,1.82-4.41Zm87.27,76.26c-1.13,1.13-2.69,1.83-4.4,1.83h-78.45c-3.45,0-6.23-2.79-6.23-6.23,0-1.71.7-3.27,1.82-4.4,1.13-1.12,2.69-1.82,4.42-1.82h78.45c3.44,0,6.22,2.79,6.22,6.22,0,1.72-.7,3.28-1.82,4.4Zm0-33.72c-1.13,1.12-2.69,1.82-4.4,1.82h-78.45c-3.45,0-6.23-2.79-6.23-6.22,0-1.72.7-3.28,1.82-4.42,1.13-1.12,2.69-1.82,4.42-1.82h78.45c3.44,0,6.22,2.79,6.22,6.23,0,1.72-.7,3.27-1.82,4.4Z" opacity=".5"/><g><path fill="#b1bec6" d="m251.19,686.05c0,1.72-.7,3.27-1.82,4.4-1.13,1.12-2.69,1.82-4.4,1.82h-78.45c-3.45,0-6.23-2.79-6.23-6.22,0-1.72.7-3.28,1.82-4.41,1.13-1.12,2.69-1.82,4.42-1.82h78.45c3.44,0,6.22,2.79,6.22,6.23Z" opacity=".75"/><path fill="#b1bec6" d="m251.19,719.78c0,1.72-.7,3.27-1.82,4.4-1.13,1.12-2.69,1.82-4.4,1.82h-78.45c-3.45,0-6.23-2.79-6.23-6.22,0-1.72.7-3.28,1.82-4.42,1.13-1.12,2.69-1.82,4.42-1.82h78.45c3.44,0,6.22,2.79,6.22,6.23Z" opacity=".75"/><path fill="#b1bec6" d="m251.19,753.5c0,1.72-.7,3.28-1.82,4.4-1.13,1.13-2.69,1.83-4.4,1.83h-78.45c-3.45,0-6.23-2.79-6.23-6.23,0-1.71.7-3.27,1.82-4.4,1.13-1.12,2.69-1.82,4.42-1.82h78.45c3.44,0,6.22,2.79,6.22,6.22Z" opacity=".75"/></g><path fill="#b1bec6" d="m244.97,694.28h-78.45c-4.54,0-8.23-3.69-8.23-8.22,0-2.19.85-4.26,2.4-5.82,1.58-1.56,3.64-2.41,5.84-2.41h78.45c4.54,0,8.22,3.69,8.22,8.24,0,2.19-.85,4.25-2.4,5.81-1.58,1.56-3.64,2.41-5.83,2.41Zm-78.45-12.46c-1.13,0-2.2.44-3.01,1.24-.79.79-1.23,1.86-1.23,2.99,0,2.33,1.9,4.22,4.23,4.22h78.45c1.12,0,2.19-.44,3-1.24.79-.79,1.23-1.86,1.23-2.98,0-2.33-1.9-4.24-4.22-4.24h-78.45Z"/><path fill="#b1bec6" d="m244.97,728h-78.45c-4.54,0-8.23-3.69-8.23-8.22,0-2.19.85-4.26,2.4-5.82,1.58-1.56,3.64-2.41,5.84-2.41h78.45c4.54,0,8.22,3.69,8.22,8.24,0,2.19-.85,4.25-2.4,5.81-1.58,1.56-3.64,2.41-5.83,2.41Zm-78.45-12.46c-1.13,0-2.2.44-3.01,1.24-.79.79-1.23,1.86-1.23,2.99,0,2.33,1.9,4.22,4.23,4.22h78.45c1.12,0,2.19-.44,3-1.24.79-.79,1.23-1.86,1.23-2.98,0-2.33-1.9-4.24-4.22-4.24h-78.45Z"/><path fill="#b1bec6" d="m244.97,761.73h-78.45c-4.54,0-8.23-3.69-8.23-8.23,0-2.18.85-4.25,2.4-5.81,1.58-1.56,3.64-2.41,5.84-2.41h78.45c4.54,0,8.22,3.69,8.22,8.22,0,2.2-.85,4.27-2.41,5.82-1.56,1.56-3.62,2.42-5.82,2.42Zm-78.45-12.46c-1.13,0-2.2.44-3.01,1.24-.79.79-1.23,1.86-1.23,2.98,0,2.33,1.9,4.23,4.23,4.23h78.45c1.12,0,2.19-.44,2.99-1.25s1.23-1.86,1.23-2.99c0-2.33-1.9-4.22-4.22-4.22h-78.45Z"/></g><g><path fill="#b1bec6" d="m900.19,155.23h-313.14c-10.32,0-18.68,8.37-18.68,18.68v175.25c0,10.32,8.37,18.68,18.68,18.68h21.06v40.54c0,12.29,14.48,18.86,23.72,10.77l58.62-51.31h209.73c10.32,0,18.68-8.37,18.68-18.68v-175.25c0-10.32-8.37-18.68-18.68-18.68Zm-183.82,152.59h-79.91v-12.68l51.88-74.72h-51.81v-17.51h78.68v12.39l-51.74,75.15h52.89v17.37Zm79.31,0h-63.16v-10.02l41-59.06h-40.95v-13.84h62.19v9.8l-40.89,59.4h41.8v13.73Zm62.74,0h-44.06v-6.99l28.61-41.2h-28.57v-9.65h43.39v6.83l-28.53,41.44h29.16v9.58Z" opacity=".25"/><path fill="#b1bec6" d="m622.48,424.73c-2.29,0-4.59-.49-6.79-1.49-5.9-2.68-9.57-8.37-9.57-14.85v-38.54h-19.06c-11.4,0-20.68-9.28-20.68-20.68v-175.25c0-11.4,9.28-20.68,20.68-20.68h313.14c11.4,0,20.68,9.28,20.68,20.68v175.25c0,11.4-9.28,20.68-20.68,20.68h-208.98l-58.06,50.82c-3.06,2.67-6.83,4.06-10.67,4.06Zm-35.43-267.5c-9.2,0-16.68,7.48-16.68,16.68v175.25c0,9.2,7.48,16.68,16.68,16.68h23.06v42.54c0,4.89,2.77,9.18,7.22,11.2,4.46,2.02,9.51,1.28,13.18-1.94l59.19-51.81h210.49c9.2,0,16.68-7.48,16.68-16.68v-175.25c0-9.2-7.48-16.68-16.68-16.68h-313.14Z"/><path fill="#b1bec6" d="m718.37,309.82h-83.91v-15.31l50.06-72.09h-49.98v-21.51h82.68v15.02l-49.93,72.53h51.08v21.37Zm-79.91-4h75.91v-13.37h-54.69l53.54-77.77v-9.77h-74.68v13.51h53.63l-53.7,77.35v10.05Z"/><path fill="#b1bec6" d="m797.68,309.82h-67.16v-12.65l39.18-56.43h-39.12v-17.84h66.19v12.42l-39.09,56.78h40v17.73Zm-63.16-4h59.16v-9.73h-43.61l42.7-62.02v-7.17h-58.19v9.84h42.77l-42.83,61.68v7.4Z"/><path fill="#b1bec6" d="m860.42,309.82h-48.06v-9.62l26.78-38.57h-26.74v-13.65h47.39v9.46l-26.72,38.82h27.36v13.58Zm-44.06-4h40.06v-5.58h-30.97l30.33-44.06v-4.21h-39.39v5.65h30.39l-30.43,43.83v4.37Z"/><polygon fill="#b1bec6" points="715.22 215.3 715.22 202.91 636.53 202.91 636.53 220.42 688.34 220.42 636.46 295.14 636.46 307.82 716.37 307.82 716.37 290.46 663.48 290.46 715.22 215.3" opacity=".5"/><polygon fill="#b1bec6" points="794.77 234.7 794.77 224.9 732.58 224.9 732.58 238.74 773.53 238.74 732.52 297.8 732.52 307.82 795.68 307.82 795.68 294.1 753.88 294.1 794.77 234.7" opacity=".5"/><polygon fill="#b1bec6" points="857.79 256.81 857.79 249.98 814.4 249.98 814.4 259.63 842.97 259.63 814.36 300.83 814.36 307.82 858.42 307.82 858.42 298.25 829.26 298.25 857.79 256.81" opacity=".5"/></g><g><path fill="#b1bec6" d="m113.34,404.13c-.99,0-1.85-.74-1.98-1.75-.04-.33-4.06-33.67,5.75-71.48,5.78-22.26,15.14-41.71,27.83-57.83,15.88-20.17,37.03-35.1,62.85-44.38,1.04-.38,2.19.17,2.56,1.21.37,1.04-.17,2.19-1.21,2.56-45.59,16.4-75.25,49.81-88.13,99.33-9.65,37.08-5.73,69.77-5.69,70.1.14,1.1-.64,2.1-1.74,2.23-.08.01-.17.02-.25.02Z"/><path fill="#b1bec6" d="m336.04,251.82c-.42,0-.85-.13-1.21-.41-47.54-36.32-95.14-24.69-95.62-24.57-1.08.27-2.16-.37-2.43-1.44-.27-1.07.37-2.16,1.44-2.43.49-.13,49.9-12.28,99.04,25.26.88.67,1.05,1.93.38,2.8-.39.52-.99.79-1.59.79Z"/><path fill="#b1bec6" d="m669.82,579.54c-.56,0-1.13-.24-1.52-.7-.72-.84-.62-2.1.22-2.82,67.23-57.44,84.94-152.69,85.11-153.65.19-1.09,1.23-1.81,2.32-1.62,1.09.19,1.81,1.23,1.62,2.32-.04.24-4.48,24.63-17.29,55.84-11.83,28.83-33.43,69.62-69.16,100.14-.38.32-.84.48-1.3.48Z"/></g><path fill="#b1bec6" d="m119.69,731.67c0,2.07.04,4.11.12,6.15-11.47-3.74-21.84-11.45-28.18-25.83-21.45-48.66,47.07-144.64,47.07-144.64,13.29,19.52,28.27,38.04,44.24,55.49-36.48,13.3-63.24,56.99-63.24,108.84Z" opacity=".25"/><path fill="#b1bec6" d="m754.77,707.86c-5.82,9.01-13.05,15.22-20.74,19.44-1.32-45.64-23.4-84.35-54.27-100.51,20.01-21.43,38.55-44.53,54.34-69.14,0,0,46.24,110.63,20.68,150.22Z" opacity=".25"/><path fill="#b1bec6" d="m121.91,740.61l-2.72-.89c-13.57-4.42-23.46-13.48-29.39-26.93-9.14-20.74-3.92-51.77,15.52-92.24,14.36-29.89,31.58-54.13,31.75-54.37l1.67-2.33,1.61,2.37c12.57,18.46,27.39,37.06,44.06,55.26l2.02,2.21-2.81,1.02c-36.46,13.29-61.93,57.27-61.93,106.96,0,1.96.04,3.95.12,6.08l.11,2.86Zm16.78-169.74c-10.22,14.99-64.14,97.42-45.23,140.31,5.05,11.45,13.2,19.43,24.27,23.77-.02-1.11-.03-2.2-.03-3.28,0-50.08,25.27-94.64,61.8-109.65-15.28-16.87-28.99-34.05-40.8-51.15Z"/><path fill="#b1bec6" d="m732.13,730.62l-.09-3.27c-1.27-43.76-22.15-82.54-53.2-98.8l-2.33-1.22,1.79-1.92c21.1-22.6,39.3-45.76,54.12-68.86l2.06-3.21,1.47,3.52c1.9,4.56,46.35,112.07,20.51,152.07-5.52,8.55-12.74,15.32-21.46,20.11l-2.87,1.57Zm-49.15-104.36c30.25,17.13,50.71,54.88,52.92,97.62,6.88-4.32,12.65-10.06,17.2-17.11h0c22.17-34.33-11.87-125.64-19.42-144.81-14.13,21.58-31.16,43.18-50.7,64.3Z"/></g><g><path fill="#b1bec6" d="m122.71,592.36c8.9-15.08,15.99-25.02,15.99-25.02-30.15-44.28-51.65-93.7-56.52-147.35-27.5,16.05-45.99,45.86-45.99,80,0,25.57,10.37,48.7,27.11,65.45,15.42,15.42,36.25,25.42,59.4,26.91Z" opacity=".25"/><path fill="#b1bec6" d="m128.76,222.3h34.59c90.2-55.58,227.45-12.3,268.03,72.59.76,1.57,2.71,1.57,3.48,0,12.74-26.58,34.95-49.05,62.22-65.7,21.36-13.06,45.83-22.55,71.29-27.6v-27.69c0-10.32,8.37-18.68,18.68-18.68h313.14c10.32,0,18.68,8.37,18.68,18.68v35.21c26.92-16.19,44.94-45.68,44.94-79.39,0-25.57-10.35-48.7-27.11-65.45-16.75-16.75-39.89-27.11-65.45-27.11H128.76c-51.11,0-92.57,41.44-92.57,92.57,0,25.57,10.37,48.7,27.11,65.45,16.75,16.75,39.89,27.11,65.45,27.11Z" opacity=".25"/><path fill="#b1bec6" d="m870.06,592.57h1.19c51.13,0,92.57-41.44,92.57-92.57,0-25.57-10.35-48.7-27.11-65.45-16.75-16.75-39.89-27.11-65.45-27.11h-86.17c-2.26,54.57-21.94,104.96-50.97,150.21,0,0,46.24,110.63,20.68,150.22-5.81,9.01-13.05,15.22-20.74,19.44.04,1.45.06,2.91.06,4.37,0,62.41-38.77,113-86.6,113,0,0-113.85,6.77-121.65-92.82-48.54,31.01-86.09,49.1-91.94,51.87-.62.18-.96.18-1.58,0-3.96-1.88-22.51-10.8-49.17-26.02h-60.21c-23.63,72.5-116.66,66.98-116.66,66.98-35.26,0-65.6-27.5-79.11-66.96-50.39.84-90.99,41.96-90.99,92.55,0,25.57,10.37,48.7,27.11,65.45,16.75,16.75,39.89,27.11,65.45,27.11h742.49c51.13,0,92.57-41.44,92.57-92.57,0-25.56-10.35-48.7-27.11-65.45-16.75-16.75-39.89-27.11-65.45-27.11h-1.19c-25.57,0-48.7-10.37-65.45-27.11s-27.11-39.88-27.11-65.45c0-51.11,41.44-92.57,92.56-92.57Z" opacity=".25"/></g></svg>