<svg xmlns="http://www.w3.org/2000/svg" xmlns:xlink="http://www.w3.org/1999/xlink" data-name="Layer 2" viewBox="0 0 1000 1000"><defs><linearGradient id="a" x1="133.26" x2="699.62" y1="735.35" y2="735.35" gradientUnits="userSpaceOnUse"><stop offset="0" stop-color="#9fabb2" stop-opacity=".5"/><stop offset="1" stop-color="#9fabb2"/></linearGradient><linearGradient id="e" x1="742.12" x2="849.57" y1="265.97" y2="265.97" xlink:href="#a"/><linearGradient id="b" x1="330.17" x2="330.17" y1="509.85" y2="321.39" gradientUnits="userSpaceOnUse"><stop offset="0" stop-color="#9fabb2" stop-opacity=".25"/><stop offset="1" stop-color="#9fabb2" stop-opacity=".5"/></linearGradient><linearGradient id="f" x1="501.55" x2="501.55" y1="509.85" y2="321.39" xlink:href="#b"/><linearGradient id="g" x1="200.08" x2="200.08" y1="461.85" y2="924.18" xlink:href="#a"/><linearGradient id="h" x1="612.14" x2="612.14" y1="461.85" y2="924.18" xlink:href="#a"/><linearGradient id="i" x1="484.04" x2="484.04" y1="461.85" y2="924.18" xlink:href="#a"/><linearGradient id="j" x1="652.13" x2="652.13" y1="461.85" y2="924.18" xlink:href="#a"/><linearGradient id="k" x1="633.31" x2="633.31" y1="461.85" y2="924.18" xlink:href="#a"/><linearGradient id="l" x1="493.32" x2="493.32" y1="461.85" y2="924.18" xlink:href="#a"/><linearGradient id="m" x1="338.31" x2="338.31" y1="461.85" y2="924.18" xlink:href="#a"/><linearGradient id="n" x1="222.08" x2="222.08" y1="461.85" y2="924.18" xlink:href="#a"/><linearGradient id="o" x1="347.59" x2="347.59" y1="461.85" y2="924.18" xlink:href="#a"/><linearGradient id="p" x1="180.65" x2="180.65" y1="461.85" y2="924.18" xlink:href="#a"/><linearGradient id="q" x1="416.23" x2="416.23" y1="343.13" y2="784.84" xlink:href="#b"/><linearGradient id="r" x1="501.55" x2="501.55" y1="509.85" y2="321.39" xlink:href="#b"/><linearGradient id="s" x1="172.12" x2="283.22" y1="848.67" y2="848.67" xlink:href="#a"/><linearGradient id="t" x1="202.02" x2="253.31" y1="848.67" y2="848.67" xlink:href="#b"/><linearGradient id="u" x1="535.24" x2="646.34" y1="848.67" y2="848.67" xlink:href="#a"/><linearGradient id="v" x1="565.14" x2="616.44" y1="848.67" y2="848.67" xlink:href="#b"/><linearGradient id="w" x1="849.42" x2="1000" y1="222.7" y2="222.7" xlink:href="#a"/><linearGradient id="x" x1="416.53" x2="413.47" y1="264.67" y2="465.36" xlink:href="#b"/><linearGradient id="c" x1="416.23" x2="416.23" y1="202.19" y2="388.4" gradientUnits="userSpaceOnUse"><stop offset="0" stop-color="#9fabb2" stop-opacity=".7"/><stop offset="1" stop-color="#9fabb2"/></linearGradient><linearGradient id="y" x1="462.95" x2="462.95" y1="202.19" y2="388.4" xlink:href="#c"/><linearGradient id="z" x1="369.52" x2="369.52" y1="202.19" y2="388.4" xlink:href="#c"/><linearGradient id="d" x1="834.92" x2="834.92" y1="311.72" y2="987.81" gradientUnits="userSpaceOnUse"><stop offset="0" stop-color="#9fabb2" stop-opacity=".1"/><stop offset="1" stop-color="#9fabb2" stop-opacity=".25"/></linearGradient><linearGradient id="A" x1="57.18" x2="57.18" y1="311.72" y2="987.81" xlink:href="#d"/><linearGradient id="B" x1="325.76" x2="325.76" y1="311.72" y2="987.81" xlink:href="#d"/><linearGradient id="C" x1="462.95" x2="462.95" y1="311.72" y2="987.81" xlink:href="#d"/><linearGradient id="D" x1="763.61" x2="763.61" y1="311.72" y2="987.81" xlink:href="#d"/><linearGradient id="E" x1="409.22" x2="409.22" y1="311.72" y2="987.81" xlink:href="#d"/></defs><g><g><path fill="url(#a)" d="m699.62,676.34l-21.65,83.89c-5.45,21.13-24.51,35.88-46.34,35.88H154.47c-11.69,0-21.21-9.51-21.21-21.21s9.52-21.22,21.21-21.22h477.16c2.48,0,4.63-1.66,5.24-4.05l16.7-64.68h25.61c6.62,0,12.53-4.16,14.7-10.35l5.74,1.74Z"/><path fill="url(#e)" d="m849.57,246.08h-44.58l-26.95,80.46-5.75-1.68.06-.23c1.02-4.58-.09-9.39-3.08-13.11-2.98-3.73-7.44-5.87-12.22-5.87h-14.93l24.3-72.52c5.57-16.59,21.07-27.73,38.57-27.73h44.43v38.96c0,.59.05,1.16.15,1.72Z"/><g><path fill="url(#b)" d="m402.89,419.56c-.67.42-1.47.66-2.3.66h-129.24c-2.17,0-4.01-1.57-4.35-3.7l-9.49-60.21c-.41-2.67,1.65-5.08,4.37-5.08h36.03c21.28,37.54,59.9,63.95,104.98,68.34Z"/><path fill="url(#f)" d="m574.92,356.3l-9.47,60.21c-.34,2.13-2.18,3.7-4.35,3.7h-130.87c-.41,0-.81-.06-1.17-.16-.11-.02-.2-.05-.29-.09-.22-.07-.43-.16-.63-.27,45.7-3.95,84.92-30.52,106.42-68.47h36.02c2.71,0,4.78,2.4,4.35,5.08Z"/></g><path fill="url(#g)" d="m161.2,541.04c-3.45,0-6.41-2.35-7.2-5.71l-20.97-88.17c-.53-2.2-.03-4.5,1.38-6.29,1.42-1.8,3.54-2.83,5.82-2.83h105.8c3.68,0,6.76,2.64,7.32,6.27l13.89,88.16c.33,2.15-.28,4.32-1.69,5.97-1.41,1.65-3.46,2.6-5.63,2.6h-98.72Z"/><path fill="url(#h)" d="m673.54,558.66c1.4,1.76,1.91,4.03,1.41,6.22l-15.33,68.51c-1.18,5.29-5.79,8.98-11.21,8.98h-91.86c-2.17,0-4.22-.94-5.63-2.59-1.4-1.64-2.02-3.81-1.68-5.95l11.31-71.73c.55-3.55,3.7-6.25,7.32-6.25h99.85c2.28,0,4.4,1.03,5.82,2.81Z"/><path fill="url(#i)" d="m543.5,558.46c1.41,1.65,2.01,3.82,1.67,5.96l-11.29,71.71c-.55,3.61-3.63,6.24-7.31,6.24h-96.34c-4.09,0-7.41-3.32-7.41-7.39v-71.72c0-4.08,3.32-7.41,7.41-7.41h107.63c2.18,0,4.23.95,5.64,2.61Z"/><path fill="url(#j)" d="m720.3,362.23l-12.35,55.21c-.75,3.4-3.73,5.78-7.23,5.78h-109.62c-2.17,0-4.22-.94-5.63-2.58s-2.03-3.81-1.7-5.95l9.5-60.23c.55-3.61,3.63-6.23,7.31-6.23h108.49c3.52,0,6.8,1.57,9,4.32,2.19,2.73,3,6.26,2.23,9.68Z"/><path fill="url(#k)" d="m699.85,440.79c1.42,1.77,1.96,4.05,1.48,6.27h0s-19.74,88.19-19.74,88.19c-.78,3.41-3.75,5.79-7.23,5.79h-101.83c-2.17,0-4.23-.95-5.64-2.61-1.41-1.66-2.02-3.83-1.67-5.97l13.89-88.16c.54-3.56,3.69-6.26,7.31-6.26h107.68c2.24,0,4.34,1,5.75,2.75Z"/><path fill="url(#l)" d="m549.86,534.78c-.59,3.63-3.67,6.26-7.31,6.26h-112.32c-4.09,0-7.41-3.33-7.41-7.41v-88.18c0-4.09,3.32-7.41,7.41-7.41h126.18c2.19,0,4.25.95,5.66,2.61,1.41,1.65,2.01,3.83,1.66,5.97l-13.87,88.16Z"/><path fill="url(#m)" d="m408,445.45v88.18c0,4.08-3.32,7.41-7.4,7.41h-110.69c-3.65,0-6.72-2.63-7.31-6.25l-13.9-88.19c-.33-2.14.28-4.32,1.69-5.97,1.41-1.65,3.46-2.59,5.63-2.59h124.58c4.08,0,7.4,3.32,7.4,7.41Z"/><path fill="url(#n)" d="m283.21,633.83c.34,2.14-.27,4.31-1.68,5.95-1.41,1.65-3.46,2.59-5.63,2.59h-87.34c-5.35,0-9.95-3.63-11.19-8.83l-16.31-68.56c-.52-2.22-.02-4.52,1.4-6.31,1.41-1.79,3.53-2.82,5.81-2.82h96.32c3.62,0,6.76,2.7,7.31,6.26l11.31,71.72Z"/><path fill="url(#o)" d="m408,563.26v71.72c0,4.07-3.32,7.39-7.4,7.39h-94.72c-3.68,0-6.75-2.63-7.31-6.25l-11.31-71.7c-.33-2.16.29-4.34,1.7-5.98,1.41-1.65,3.46-2.59,5.62-2.59h106.02c4.08,0,7.4,3.33,7.4,7.41Z"/><path fill="url(#p)" d="m133.17,423.22c-3.45,0-6.41-2.34-7.2-5.68l-13.11-55.15c-.83-3.44-.05-7.01,2.14-9.78,2.19-2.79,5.49-4.38,9.04-4.38h107.83c3.68,0,6.76,2.62,7.32,6.25l9.49,60.2c.33,2.15-.29,4.32-1.7,5.96-1.41,1.64-3.46,2.58-5.62,2.58h-108.19Z"/><path fill="url(#q)" d="m778.19,326.01l-.08.31-76.53,341.93-1.29,5.79c-.2.95-.46,1.81-.77,2.61-3.04,8.55-11.2,14.3-20.34,14.3H158.2c-10.07,0-18.73-6.84-21.06-16.63L54.35,326.3c-1.55-6.48-.06-13.19,4.06-18.42,4.13-5.23,10.33-8.23,16.99-8.23h208.77l.35,2.6c2.27,16.78,7.65,32.76,16,47.5l2.54,4.48h-41.18c-.58,0-.93.31-1.09.49-.15.18-.4.57-.32,1.13l9.5,60.2c.1.68.69,1.17,1.38,1.17h129.25c.25,0,.49-.07.69-.19l.87-.55,1.03.1c8.2.81,16.64.85,24.67.13l.89-.08.78.41c.05.02.09.05.13.06l.23.08c.1.03.22.04.34.04h130.87c.7,0,1.28-.49,1.39-1.18l9.47-60.2c.09-.56-.15-.94-.31-1.12-.15-.18-.5-.49-1.08-.49h-41.17l2.54-4.48c8.35-14.73,13.74-30.71,16-47.5l.35-2.6h208.76c6.61,0,12.77,2.96,16.91,8.12,4.12,5.15,5.67,11.8,4.23,18.24Z"/><g><path fill="url(#b)" d="m402.89,419.56c-.67.42-1.47.66-2.3.66h-129.24c-2.17,0-4.01-1.57-4.35-3.7l-9.49-60.21c-.41-2.67,1.65-5.08,4.37-5.08h36.03c21.28,37.54,59.9,63.95,104.98,68.34Z"/><path fill="url(#r)" d="m574.92,356.3l-9.47,60.21c-.34,2.13-2.18,3.7-4.35,3.7h-130.87c-.41,0-.81-.06-1.17-.16-.11-.02-.2-.05-.29-.09-.22-.07-.43-.16-.63-.27,45.7-3.95,84.92-30.52,106.42-68.47h36.02c2.71,0,4.78,2.4,4.35,5.08Z"/></g><g><path fill="url(#s)" d="m227.66,793.11c-30.67,0-55.54,24.87-55.54,55.56s24.87,55.54,55.54,55.54,55.56-24.86,55.56-55.54-24.87-55.56-55.56-55.56Zm0,81.2c-14.15,0-25.64-11.48-25.64-25.64s11.48-25.64,25.64-25.64,25.65,11.47,25.65,25.64-11.48,25.64-25.65,25.64Z"/><path fill="url(#t)" d="m253.31,848.67c0,14.15-11.48,25.64-25.65,25.64s-25.64-11.48-25.64-25.64,11.48-25.64,25.64-25.64,25.65,11.47,25.65,25.64Z"/></g><g><path fill="url(#u)" d="m590.78,793.11c-30.67,0-55.54,24.87-55.54,55.56s24.87,55.54,55.54,55.54,55.56-24.86,55.56-55.54-24.87-55.56-55.56-55.56Zm0,81.2c-14.15,0-25.64-11.48-25.64-25.64s11.48-25.64,25.64-25.64,25.65,11.47,25.65,25.64-11.48,25.64-25.65,25.64Z"/><path fill="url(#v)" d="m616.44,848.67c0,14.15-11.48,25.64-25.65,25.64s-25.64-11.48-25.64-25.64,11.48-25.64,25.64-25.64,25.65,11.47,25.65,25.64Z"/></g><path fill="url(#w)" d="m1000,201.06v43.3c0,5.28-4.29,9.57-9.57,9.57h-131.43c-4.7,0-8.61-3.39-9.43-7.85-.1-.56-.15-1.13-.15-1.72v-43.3c0-5.29,4.29-9.58,9.58-9.58h131.43c5.28,0,9.57,4.29,9.57,9.58Z"/></g><path fill="url(#x)" d="m416.23,148.39c-75.07,0-135.91,60.85-135.91,135.91,0,6.22.42,12.34,1.23,18.34,2.36,17.47,8.03,33.88,16.36,48.57,21.28,37.54,59.9,63.95,104.98,68.34,4.4.43,8.84.66,13.34.66,4.01,0,7.98-.18,11.9-.53,45.7-3.95,84.92-30.52,106.42-68.47,8.33-14.7,14.01-31.11,16.36-48.57.81-6,1.23-12.12,1.23-18.34,0-75.07-60.85-135.91-135.91-135.91Zm-67.95,92.97c0-11.73,9.51-21.24,21.23-21.24s21.24,9.51,21.24,21.24-9.51,21.23-21.24,21.23-21.23-9.51-21.23-21.23Zm116.63,100.36c-.66.19-1.31.27-1.97.27-3.25,0-6.21-2.15-7.13-5.43-.22-.77-6.63-20.79-38.68-20.79s-40.33,20.44-40.66,21.31c-1.39,3.8-5.61,5.8-9.42,4.44-3.82-1.36-5.85-5.51-4.52-9.34.38-1.09,8.37-23.21,37.92-29.53,4.93-1.07,10.48-1.68,16.69-1.68s11.76.62,16.66,1.68c29.41,6.4,35.97,28.87,36.29,29.97,1.08,3.94-1.23,8.02-5.17,9.1Zm-1.96-79.13c-11.73,0-21.24-9.51-21.24-21.23s9.51-21.24,21.24-21.24,21.23,9.51,21.23,21.24-9.51,21.23-21.23,21.23Z"/><g><path fill="url(#c)" d="m464.91,341.72c-.66.19-1.31.27-1.97.27-3.25,0-6.21-2.15-7.13-5.43-.22-.77-6.63-20.79-38.68-20.79s-40.33,20.44-40.66,21.31c-1.39,3.8-5.61,5.8-9.42,4.44-3.82-1.36-5.85-5.51-4.52-9.34.38-1.09,8.37-23.21,37.92-29.53,4.93-1.07,10.48-1.68,16.69-1.68s11.76.62,16.66,1.68c29.41,6.4,35.97,28.87,36.29,29.97,1.08,3.94-1.23,8.02-5.17,9.1Z"/><path fill="url(#y)" d="m484.18,241.36c0,11.72-9.51,21.23-21.23,21.23s-21.24-9.51-21.24-21.23,9.51-21.24,21.24-21.24,21.23,9.51,21.23,21.24Z"/><path fill="url(#z)" d="m390.75,241.36c0,11.72-9.51,21.23-21.24,21.23s-21.23-9.51-21.23-21.23,9.51-21.24,21.23-21.24,21.24,9.51,21.24,21.24Z"/></g><g><path fill="#9fabb2" d="m330.17,732.04H39.57c-1.66,0-3-1.34-3-3s1.34-3,3-3h290.6c1.66,0,3,1.34,3,3s-1.34,3-3,3Z"/><path fill="#9fabb2" d="m369.52,815.31h-67.78c-1.66,0-3-1.34-3-3s1.34-3,3-3h67.78c1.66,0,3,1.34,3,3s-1.34,3-3,3Z"/><path fill="#9fabb2" d="m347.59,845.47h-33.28c-1.66,0-3-1.34-3-3s1.34-3,3-3h33.28c1.66,0,3,1.34,3,3s-1.34,3-3,3Z"/><path fill="#9fabb2" d="m849.42,743.49h-140.06c-1.66,0-3-1.34-3-3s1.34-3,3-3h140.06c1.66,0,3,1.34,3,3s-1.34,3-3,3Z"/><path fill="#9fabb2" d="m766.82,776.33h-63.75c-1.66,0-3-1.34-3-3s1.34-3,3-3h63.75c1.66,0,3,1.34,3,3s-1.34,3-3,3Z"/><path fill="#9fabb2" d="m826.08,502.49h-213.93c-1.66,0-3-1.34-3-3s1.34-3,3-3h213.93c1.66,0,3,1.34,3,3s-1.34,3-3,3Z"/><path fill="#9fabb2" d="m636.63,473.55h-112.23c-1.66,0-3-1.34-3-3s1.34-3,3-3h112.23c1.66,0,3,1.34,3,3s-1.34,3-3,3Z"/></g></g><g><path fill="url(#d)" d="m849.96,246.47h-44.65l-3.62,10.8h43.47c7.99,0,15.71-1.18,23-3.34h-7.91c-4.8,0-8.87-3.13-10.28-7.46Z"/><path fill="url(#A)" d="m80.75,580.23h33.61l-38.38-161.33C33.61,421.38,0,456.5,0,499.5c0,22.3,9.04,42.48,23.65,57.08,14.62,14.62,34.8,23.65,57.09,23.65Z"/><path fill="url(#B)" d="m172.12,848.67c0-23.95,15.16-44.36,36.4-52.17h-54.04c-11.91,0-21.61-9.69-21.61-21.61s9.69-21.61,21.61-21.61h477.16c2.29,0,4.29-1.54,4.86-3.76l15.02-58.2h-231.5c-12,29.54-40.97,50.39-74.82,50.39H80.75c-44.59,0-80.75,36.14-80.75,80.73,0,22.3,9.04,42.48,23.65,57.09,14.62,14.62,34.8,23.65,57.09,23.65h136.38c-25.63-4.92-45.01-27.45-45.01-54.53Z"/><path fill="url(#C)" d="m80.75,257.28h78.19c22.3,0,42.48,9.04,57.09,23.65,5.4,5.4,10.04,11.58,13.74,18.33h51.38c-.54-4.91-.83-9.9-.83-14.95,0-75.07,60.85-135.91,135.91-135.91s135.91,60.85,135.91,135.91c0,5.06-.29,10.04-.83,14.95h136.41c13.62-24.84,39.92-41.73,70.19-41.97l8.14-24.29c5.62-16.75,21.27-28,38.93-28h44.44v-2.69c0-5.98,4.85-10.83,10.83-10.83h64.25c.91-4.85,1.41-9.84,1.41-14.96,0-22.3-9.04-42.48-23.65-57.09-14.62-14.62-34.8-23.65-57.09-23.65H80.75C36.16,95.78,0,131.94,0,176.53c0,22.3,9.04,42.48,23.65,57.09,14.62,14.62,34.8,23.65,57.09,23.65Z"/><path fill="url(#D)" d="m925.9,499.5c0-22.3-9.04-42.49-23.65-57.09-14.62-14.62-34.8-23.65-57.09-23.65h-86.58c-.25,0-.49-.02-.74-.02l-17.31,77.37h85.56c1.87,0,3.39,1.52,3.39,3.39s-1.52,3.39-3.39,3.39h-87.08l-37.03,165.45-1.29,5.78c-.19.88-.43,1.68-.71,2.43l-21.62,83.78c-5.5,21.3-24.71,36.17-46.71,36.17h-21.69c21.25,7.8,36.4,28.21,36.4,52.17,0,27.08-19.38,49.61-45.02,54.53h243.83c44.59,0,80.75-36.16,80.75-80.75,0-22.29-9.04-42.48-23.65-57.08-13.01-13.01-30.44-21.58-49.84-23.31-.57,1.07-1.69,1.81-2.98,1.81h-140.06c-1.87,0-3.39-1.52-3.39-3.39s1.52-3.39,3.39-3.39h95.33c-11.44-4.06-21.71-10.61-30.12-19.02-14.62-14.62-23.65-34.8-23.65-57.09,0-44.59,36.16-80.75,80.75-80.75h13.49c44.59,0,80.75-36.14,80.75-80.73Zm-159.08,270.44c1.87,0,3.39,1.52,3.39,3.39s-1.52,3.39-3.39,3.39h-63.75c-1.87,0-3.39-1.52-3.39-3.39s1.52-3.39,3.39-3.39h63.75Z"/><path fill="url(#E)" d="m571.64,796.51H246.81c21.25,7.8,36.4,28.21,36.4,52.17,0,27.08-19.38,49.61-45.02,54.53h342.05c-25.63-4.92-45.01-27.45-45.01-54.53,0-23.95,15.16-44.36,36.4-52.17Zm-224.05,49.35h-33.28c-1.87,0-3.39-1.52-3.39-3.39s1.52-3.39,3.39-3.39h33.28c1.87,0,3.39,1.52,3.39,3.39s-1.52,3.39-3.39,3.39Zm21.93-30.15h-67.77c-1.87,0-3.39-1.52-3.39-3.39s1.52-3.39,3.39-3.39h67.77c1.87,0,3.39,1.52,3.39,3.39s-1.52,3.39-3.39,3.39Z"/></g></svg>
