<svg xmlns="http://www.w3.org/2000/svg" xmlns:xlink="http://www.w3.org/1999/xlink" viewBox="0,0,256,256" width="100px" height="100px" fill-rule="nonzero"><g fill="none" fill-rule="nonzero" stroke="none" stroke-width="1" stroke-linecap="butt" stroke-linejoin="miter" stroke-miterlimit="10" stroke-dasharray="" stroke-dashoffset="0" font-family="none" font-weight="none" font-size="none" text-anchor="none" style="mix-blend-mode: normal"><g transform="scale(2.56,2.56)"><path d="M29.614,12.307h-1.268c-4.803,0 -8.732,3.93 -8.732,8.732v61.535c0,4.803 3.93,8.732 8.732,8.732h43.535c4.803,0 8.732,-3.93 8.732,-8.732v-50.02c-7.873,-7.874 -12.372,-12.372 -20.246,-20.247h-18.753" fill="#effefd"></path><path d="M71.882,92.307h-43.535c-5.367,0 -9.732,-4.366 -9.732,-9.732v-61.535c0,-5.367 4.366,-9.732 9.732,-9.732h1.268c0.552,0 1,0.448 1,1c0,0.552 -0.448,1 -1,1h-1.268c-4.264,0 -7.732,3.469 -7.732,7.732v61.535c0,4.264 3.469,7.732 7.732,7.732h43.535c4.264,0 7.732,-3.469 7.732,-7.732v-49.606l-19.661,-19.662h-18.339c-0.552,0 -1,-0.448 -1,-1c0,-0.552 0.448,-1 1,-1h18.752c0.265,0 0.52,0.105 0.707,0.293l20.248,20.248c0.188,0.188 0.293,0.442 0.293,0.707v50.02c0,5.366 -4.366,9.732 -9.732,9.732z" fill="#1f212b"></path><path d="M60.114,12.807v10.986c0,4.958 4.057,9.014 9.014,9.014h11.986" fill="#aafef0"></path><path d="M81.114,33.307h-11.985c-5.247,0 -9.515,-4.268 -9.515,-9.515v-10.985c0,-0.276 0.224,-0.5 0.5,-0.5c0.276,0 0.5,0.224 0.5,0.5v10.985c0,4.695 3.82,8.515 8.515,8.515h11.985c0.276,0 0.5,0.224 0.5,0.5c0,0.276 -0.223,0.5 -0.5,0.5zM75.114,51.307c-0.276,0 -0.5,-0.224 -0.5,-0.5v-3c0,-0.276 0.224,-0.5 0.5,-0.5c0.276,0 0.5,0.224 0.5,0.5v3c0,0.276 -0.223,0.5 -0.5,0.5zM75.114,59.307c-0.276,0 -0.5,-0.224 -0.5,-0.5v-6c0,-0.276 0.224,-0.5 0.5,-0.5c0.276,0 0.5,0.224 0.5,0.5v6c0,0.276 -0.223,0.5 -0.5,0.5zM67.956,86.307h-35.684c-4.223,0 -7.658,-3.45 -7.658,-7.689v-52.663c0,-2.549 1.264,-4.931 3.382,-6.371c0.228,-0.156 0.54,-0.095 0.695,0.132c0.155,0.229 0.096,0.54 -0.132,0.695c-1.844,1.254 -2.944,3.326 -2.944,5.544v52.663c0,3.688 2.987,6.689 6.658,6.689h35.685c3.671,0 6.658,-3.001 6.658,-6.689v-17.811c0,-0.276 0.224,-0.5 0.5,-0.5c0.276,0 0.5,0.224 0.5,0.5v17.811c-0.002,4.239 -3.437,7.689 -7.66,7.689z" fill="#1f212b"></path><path d="M39.802,14.307l-0.117,11.834c0,2.21 -2.085,3.666 -4.036,3.666c-1.951,0 -4.217,-1.439 -4.217,-3.649l0.037,-12.58c0,-1.307 1.607,-2.451 2.801,-2.451c1.194,0 2.345,1.149 2.345,2.456l0.021,10.829c0,0 -0.083,0.667 -1.005,0.645c-0.507,-0.012 -1.145,-0.356 -1.016,-0.906v-9.843h-0.813l-0.021,9.708c0,1.38 0.54,1.948 1.875,1.948c1.335,0 1.959,-0.714 1.959,-2.094v-10.205c0,-2.271 -1.36,-3.5 -3.436,-3.5c-2.076,0 -3.564,1.261 -3.564,3.532l0.032,12.11c0,3.04 2.123,4.906 4.968,4.906c2.845,0 5,-1.71 5,-4.75v-11.656zM53.114,52.307h-23c-0.276,0 -0.5,-0.224 -0.5,-0.5c0,-0.276 0.224,-0.5 0.5,-0.5h23c0.276,0 0.5,0.224 0.5,0.5c0,0.276 -0.223,0.5 -0.5,0.5zM44.114,59.307h-14c-0.276,0 -0.5,-0.224 -0.5,-0.5c0,-0.276 0.224,-0.5 0.5,-0.5h14c0.276,0 0.5,0.224 0.5,0.5c0,0.276 -0.223,0.5 -0.5,0.5zM70.114,59.307h-24c-0.276,0 -0.5,-0.224 -0.5,-0.5c0,-0.276 0.224,-0.5 0.5,-0.5h24c0.276,0 0.5,0.224 0.5,0.5c0,0.276 -0.223,0.5 -0.5,0.5zM61.114,66.307h-11c-0.276,0 -0.5,-0.224 -0.5,-0.5c0,-0.276 0.224,-0.5 0.5,-0.5h11c0.276,0 0.5,0.224 0.5,0.5c0,0.276 -0.223,0.5 -0.5,0.5zM71.114,66.307h-8c-0.276,0 -0.5,-0.224 -0.5,-0.5c0,-0.276 0.224,-0.5 0.5,-0.5h8c0.276,0 0.5,0.224 0.5,0.5c0,0.276 -0.223,0.5 -0.5,0.5zM48.114,66.307h-18c-0.276,0 -0.5,-0.224 -0.5,-0.5c0,-0.276 0.224,-0.5 0.5,-0.5h18c0.276,0 0.5,0.224 0.5,0.5c0,0.276 -0.223,0.5 -0.5,0.5zM70.114,73.307h-13c-0.276,0 -0.5,-0.224 -0.5,-0.5c0,-0.276 0.224,-0.5 0.5,-0.5h13c0.276,0 0.5,0.224 0.5,0.5c0,0.276 -0.223,0.5 -0.5,0.5zM54.114,73.307h-24c-0.276,0 -0.5,-0.224 -0.5,-0.5c0,-0.276 0.224,-0.5 0.5,-0.5h24c0.276,0 0.5,0.224 0.5,0.5c0,0.276 -0.223,0.5 -0.5,0.5z" fill="#1f212b"></path></g></g></svg>
