<svg width="15.335449" height="13.554565" viewBox="0 0 15.3354 13.5546" fill="none" xmlns="http://www.w3.org/2000/svg" xmlns:xlink="http://www.w3.org/1999/xlink">
	<desc>
			Created with Pixso.
	</desc>
	<defs/>
	<path xmlns="http://www.w3.org/2000/svg" id="Vector (Stroke)" d="M7.17236 13.3495L1.2793 7.45618C0.459961 6.63715 0 5.52625 0 4.36786C0 3.20953 0.459961 2.09863 1.2793 1.2796C2.09814 0.46051 3.20898 0.000366211 4.36768 0.000366211C5.52588 0.000366211 6.63672 0.46051 7.45605 1.2796L7.66748 1.49127L7.87891 1.27966C8.28467 0.874023 8.76611 0.552124 9.2959 0.332581C9.82568 0.113037 10.394 0 10.9673 0C11.541 0 12.1089 0.113037 12.6392 0.332581C13.1689 0.552185 13.6504 0.873962 14.0562 1.27966C14.4614 1.68518 14.7832 2.16656 15.0029 2.69635C15.2222 3.22626 15.3354 3.79425 15.3354 4.36786C15.3354 4.94147 15.2222 5.50946 15.0029 6.03943C14.7832 6.56927 14.4614 7.05072 14.0557 7.45618L8.1626 13.3495C7.88916 13.6229 7.4458 13.6229 7.17236 13.3495Z" fill="#EB5757"/>
</svg>
