<svg width="40" height="40" viewBox="0 0 40 40" fill="none" xmlns="http://www.w3.org/2000/svg">
<rect x="0.5" y="0.5" width="39" height="39" stroke="#E2E6E9"/>
<path fill-rule="evenodd" clip-rule="evenodd" d="M23.3 13.2988C22.7264 13.2988 22.1584 13.4118 21.6285 13.6314C21.0986 13.8509 20.6171 14.1728 20.2116 14.5785L20 14.7901L19.7884 14.5784C18.9693 13.7593 17.8584 13.2991 16.7 13.2991C15.5417 13.2991 14.4308 13.7593 13.6117 14.5784C12.7927 15.3974 12.3325 16.5083 12.3325 17.6667C12.3325 18.825 12.7927 19.9359 13.6117 20.755L19.5051 26.6483C19.7784 26.9217 20.2217 26.9217 20.495 26.6483L26.3884 20.755C26.794 20.3495 27.1158 19.8681 27.3353 19.3382C27.5549 18.8083 27.6679 18.2403 27.6679 17.6667C27.6679 17.0931 27.5549 16.5251 27.3353 15.9951C27.1158 15.4653 26.7941 14.9839 26.3885 14.5785C25.983 14.1728 25.5015 13.8509 24.9716 13.6314C24.4416 13.4118 23.8737 13.2988 23.3 13.2988Z" fill="#EB5757"/>
</svg>
