<svg width="16.000000" height="16.000000" viewBox="0 0 16 16" fill="none" xmlns="http://www.w3.org/2000/svg" xmlns:xlink="http://www.w3.org/1999/xlink">
	<desc>
			Created with Pixso.
	</desc>
	<defs/>
	<rect id="Icons/Home" width="16.000000" height="16.000000" fill="#FFFFFF" fill-opacity="0"/>
	<path id="Vector (Stroke)" d="M7.59082 0.807083C7.83154 0.619843 8.1687 0.619843 8.40942 0.807083L14.4094 5.47375C14.5718 5.60005 14.6667 5.79427 14.6667 5.99998L14.6667 13.3333C14.6667 13.8638 14.4561 14.3725 14.0811 14.7475C13.7061 15.1226 13.1973 15.3333 12.6667 15.3333L3.3335 15.3333C2.80298 15.3333 2.29443 15.1226 1.91919 14.7475C1.54419 14.3725 1.3335 13.8638 1.3335 13.3333L1.3335 5.99998C1.3335 5.79427 1.42847 5.60005 1.59082 5.47375L7.59082 0.807083ZM2.66675 6.32605L2.66675 13.3333C2.66675 13.5101 2.73706 13.6797 2.86206 13.8047C2.98706 13.9297 3.15674 14 3.3335 14L12.6667 14C12.8438 14 13.0132 13.9297 13.1382 13.8047C13.2632 13.6797 13.3335 13.5101 13.3335 13.3333L13.3335 6.32605L8.00024 2.1779L2.66675 6.32605Z" fill="#313237" fill-opacity="1.000000" fill-rule="evenodd"/>
	<path id="Vector (Stroke)" d="M5.3335 8.00002C5.3335 7.63182 5.63208 7.33334 6.00024 7.33334L10.0002 7.33334C10.3684 7.33334 10.6667 7.63182 10.6667 8.00002L10.6667 14.6667C10.6667 15.0349 10.3684 15.3333 10.0002 15.3333C9.63208 15.3333 9.3335 15.0349 9.3335 14.6667L9.3335 8.66667L6.66675 8.66667L6.66675 14.6667C6.66675 15.0349 6.36841 15.3333 6.00024 15.3333C5.63208 15.3333 5.3335 15.0349 5.3335 14.6667L5.3335 8.00002Z" fill="#313237" fill-opacity="1.000000" fill-rule="evenodd"/>
</svg>
