<svg xmlns="http://www.w3.org/2000/svg" width="16" height="16" fill="none" viewBox="0 0 16 16"><path fill="#313237" fill-rule="evenodd" d="M3.467.933A.67.67 0 0 1 4 .667h8c.21 0 .408.098.534.266l2 2.667a.67.67 0 0 1 .133.4v9.333a2 2 0 0 1-2 2H3.334a2 2 0 0 1-2-2V4c0-.144.046-.285.133-.4zM4.333 2 2.668 4.222v9.111a.667.667 0 0 0 .667.667h9.333a.666.666 0 0 0 .667-.667v-9.11L11.667 2z" clip-rule="evenodd"/><path fill="#313237" fill-rule="evenodd" d="M1.334 4c0-.368.298-.667.666-.667h12a.667.667 0 0 1 0 1.334H2A.667.667 0 0 1 1.333 4M5.334 6c.368 0 .666.298.666.667a2 2 0 1 0 4 0 .667.667 0 0 1 1.334 0 3.333 3.333 0 1 1-6.667 0c0-.369.298-.667.667-.667" clip-rule="evenodd"/></svg>
