<svg width="16" height="16" viewBox="0 0 16 16" fill="none" xmlns="http://www.w3.org/2000/svg">
<path fill-rule="evenodd" clip-rule="evenodd" d="M11.3 1.29877C10.7264 1.29877 10.1584 1.41178 9.62852 1.63136C9.09865 1.85091 8.61711 2.17281 8.21162 2.57846L8.00005 2.79003L7.78835 2.57834C6.96928 1.75927 5.85839 1.29912 4.70005 1.29912C3.54171 1.29912 2.43081 1.75927 1.61174 2.57834C0.792668 3.39741 0.33252 4.50831 0.33252 5.66665C0.33252 6.82499 0.792668 7.93589 1.61174 8.75496L7.50507 14.6483C7.77844 14.9217 8.22165 14.9217 8.49502 14.6483L14.3884 8.75496C14.794 8.34947 15.1158 7.86805 15.3353 7.33817C15.5549 6.80825 15.6679 6.24026 15.6679 5.66665C15.6679 5.09304 15.5549 4.52505 15.3353 3.99513C15.1158 3.46531 14.7941 2.98392 14.3885 2.57846C13.983 2.17276 13.5015 1.85093 12.9716 1.63136C12.4416 1.41178 11.8737 1.29877 11.3 1.29877Z" fill="#EB5757"/>
</svg>
