<svg width="80" height="27" viewBox="0 0 80 27" fill="none" xmlns="http://www.w3.org/2000/svg">
<path d="M10.2627 0.687276V12.2579H7.82062L3.08173 5.57995H3.00614V12.2579H0.127921V0.687276H2.60494L7.29149 7.35397H7.39034V0.687276H10.2627Z" fill="#0F0F11"/>
<path d="M14.9508 0.687276V12.2579H12.0725V0.687276H14.9508Z" fill="#0F0F11"/>
<path d="M27.567 4.87938H24.6597C24.6209 4.58936 24.5414 4.32759 24.4213 4.09407C24.3011 3.86055 24.1422 3.66092 23.9445 3.4952C23.7468 3.32947 23.5123 3.20329 23.2409 3.11666C22.9734 3.02627 22.6769 2.98107 22.3513 2.98107C21.7737 2.98107 21.2756 3.11855 20.8569 3.3935C20.4422 3.66846 20.1224 4.06582 19.8975 4.5856C19.6766 5.10537 19.5661 5.73438 19.5661 6.47261C19.5661 7.24098 19.6785 7.88505 19.9033 8.40482C20.132 8.92083 20.4518 9.31066 20.8627 9.57432C21.2775 9.83421 21.7679 9.96415 22.3338 9.96415C22.6517 9.96415 22.9405 9.9246 23.2002 9.84551C23.4638 9.76641 23.6944 9.65153 23.8921 9.50087C24.0937 9.34645 24.2585 9.16 24.3864 8.94155C24.5182 8.71933 24.6093 8.46885 24.6597 8.19013L27.567 8.20708C27.5166 8.71932 27.3635 9.22404 27.1076 9.72121C26.8556 10.2184 26.5087 10.6723 26.0668 11.0828C25.6249 11.4896 25.0861 11.8135 24.4503 12.0546C23.8185 12.2956 23.0936 12.4161 22.2757 12.4161C21.198 12.4161 20.2328 12.1864 19.38 11.7269C18.5311 11.2636 17.8605 10.5894 17.3682 9.70426C16.8759 8.81914 16.6297 7.74192 16.6297 6.47261C16.6297 5.19954 16.8797 4.12044 17.3798 3.23531C17.8799 2.35018 18.5563 1.67786 19.4091 1.21835C20.2619 0.758839 21.2174 0.529083 22.2757 0.529083C22.9967 0.529083 23.6634 0.627012 24.2759 0.82287C24.8884 1.01496 25.4272 1.29745 25.8924 1.67033C26.3575 2.03945 26.7355 2.49331 27.0262 3.03192C27.3169 3.57053 27.4972 4.18635 27.567 4.87938Z" fill="#0F0F11"/>
<path d="M29.2139 12.2579V0.687276H37.5172V2.95847H32.0922V5.33136H37.0927V7.60821H32.0922V9.98675H37.5172V12.2579H29.2139Z" fill="#0F0F11"/>
<path d="M7.94273 19.0508C7.87683 18.8135 7.77992 18.6045 7.652 18.4237C7.52408 18.2391 7.36708 18.0828 7.18102 17.9548C6.99495 17.8267 6.78175 17.7307 6.54141 17.6666C6.30107 17.5988 6.03748 17.5649 5.75063 17.5649C5.17305 17.5649 4.67299 17.7005 4.25046 17.9717C3.83181 18.2429 3.50813 18.6384 3.27943 19.1582C3.05072 19.6742 2.93637 20.3013 2.93637 21.0395C2.93637 21.7815 3.04684 22.4143 3.2678 22.9378C3.48875 23.4614 3.80856 23.8606 4.22721 24.1356C4.64586 24.4105 5.15366 24.548 5.75063 24.548C6.27782 24.548 6.7236 24.4652 7.08798 24.2994C7.45624 24.1299 7.73534 23.8908 7.92528 23.5819C8.11523 23.2731 8.2102 22.9096 8.2102 22.4915L8.74514 22.5537H5.84947V20.5141H10.9838V22.0452C10.9838 23.081 10.757 23.968 10.3034 24.7062C9.85379 25.4444 9.23357 26.0113 8.44278 26.4068C7.65587 26.8023 6.75074 27 5.72737 27C4.59159 27 3.59342 26.7608 2.73286 26.2825C1.8723 25.8041 1.20168 25.1224 0.721009 24.2373C0.240336 23.3484 0 22.2938 0 21.0734C0 20.1243 0.145365 19.2825 0.436094 18.548C0.726824 17.8098 1.13191 17.1845 1.65134 16.6723C2.17466 16.16 2.77937 15.7721 3.46549 15.5084C4.15549 15.2448 4.89782 15.1129 5.69248 15.1129C6.38248 15.1129 7.02402 15.209 7.61711 15.4011C8.21407 15.5932 8.74126 15.8644 9.19868 16.2146C9.65997 16.5649 10.034 16.9811 10.3209 17.4632C10.6077 17.9454 10.7861 18.4745 10.8558 19.0508H7.94273Z" fill="#0F0F11"/>
<path d="M14.8883 26.8418H11.7949L15.8128 15.2711H19.6446L23.6625 26.8418H20.5691L17.7723 18.1864H17.6793L14.8883 26.8418ZM14.4754 22.2881H20.9412V24.4124H14.4754V22.2881Z" fill="#0F0F11"/>
<path d="M29.3462 26.8418H24.9446V15.2711H29.3404C30.5537 15.2711 31.5984 15.5028 32.4745 15.9661C33.3544 16.4256 34.0328 17.0885 34.5096 17.9548C34.9864 18.8173 35.2248 19.8493 35.2248 21.0508C35.2248 22.2561 34.9864 23.2919 34.5096 24.1582C34.0367 25.0245 33.3602 25.6893 32.4803 26.1525C31.6003 26.6121 30.5557 26.8418 29.3462 26.8418ZM27.8228 24.4576H29.2357C29.9025 24.4576 30.4665 24.3484 30.9278 24.1299C31.393 23.9077 31.7438 23.548 31.9802 23.0508C32.2206 22.5499 32.3407 21.8832 32.3407 21.0508C32.3407 20.2184 32.2206 19.5555 31.9802 19.0621C31.7399 18.5649 31.3852 18.2071 30.9162 17.9887C30.451 17.7664 29.8773 17.6553 29.195 17.6553H27.8228V24.4576Z" fill="#0F0F11"/>
<path d="M44.72 19.0508C44.6541 18.8135 44.5572 18.6045 44.4293 18.4237C44.3013 18.2391 44.1443 18.0828 43.9583 17.9548C43.7722 17.8267 43.559 17.7307 43.3187 17.6666C43.0783 17.5988 42.8147 17.5649 42.5279 17.5649C41.9503 17.5649 41.4503 17.7005 41.0277 17.9717C40.6091 18.2429 40.2854 18.6384 40.0567 19.1582C39.828 19.6742 39.7136 20.3013 39.7136 21.0395C39.7136 21.7815 39.8241 22.4143 40.0451 22.9378C40.266 23.4614 40.5858 23.8606 41.0045 24.1356C41.4231 24.4105 41.9309 24.548 42.5279 24.548C43.0551 24.548 43.5009 24.4652 43.8652 24.2994C44.2335 24.1299 44.5126 23.8908 44.7025 23.5819C44.8925 23.2731 44.9875 22.9096 44.9875 22.4915L45.5224 22.5537H42.6267V20.5141H47.761V22.0452C47.761 23.081 47.5343 23.968 47.0807 24.7062C46.6311 25.4444 46.0108 26.0113 45.22 26.4068C44.4331 26.8023 43.528 27 42.5046 27C41.3689 27 40.3707 26.7608 39.5101 26.2825C38.6496 25.8041 37.979 25.1224 37.4983 24.2373C37.0176 23.3484 36.7773 22.2938 36.7773 21.0734C36.7773 20.1243 36.9226 19.2825 37.2134 18.548C37.5041 17.8098 37.9092 17.1845 38.4286 16.6723C38.9519 16.16 39.5566 15.7721 40.2428 15.5084C40.9328 15.2448 41.6751 15.1129 42.4697 15.1129C43.1597 15.1129 43.8013 15.209 44.3944 15.4011C44.9913 15.5932 45.5185 15.8644 45.9759 16.2146C46.4372 16.5649 46.8113 16.9811 47.0982 17.4632C47.385 17.9454 47.5633 18.4745 47.6331 19.0508H44.72Z" fill="#0F0F11"/>
<path d="M49.4574 26.8418V15.2711H57.7607V17.5423H52.3357V19.9152H57.3362V22.1921H52.3357V24.5706H57.7607V26.8418H49.4574Z" fill="#0F0F11"/>
<path d="M59.1736 17.5423V15.2711H69.2387V17.5423H65.6278V26.8418H62.7903V17.5423H59.1736Z" fill="#0F0F11"/>
<path d="M77.0811 18.7401C77.0423 18.3258 76.8698 18.0037 76.5636 17.774C76.2612 17.5405 75.829 17.4237 75.2669 17.4237C74.8948 17.4237 74.5847 17.4708 74.3366 17.5649C74.0885 17.6591 73.9024 17.789 73.7784 17.9548C73.6544 18.1167 73.5904 18.3032 73.5865 18.5141C73.5788 18.6874 73.6136 18.8399 73.6912 18.9717C73.7726 19.1035 73.8889 19.2203 74.0401 19.322C74.1951 19.4199 74.3812 19.5066 74.5983 19.5819C74.8153 19.6572 75.0595 19.7231 75.3309 19.7796L76.3543 20.0056C76.9435 20.1299 77.4629 20.2956 77.9126 20.5028C78.3661 20.71 78.746 20.9567 79.0522 21.2429C79.3623 21.5292 79.5969 21.8587 79.7558 22.2316C79.9147 22.6045 79.9961 23.0226 80 23.4859C79.9961 24.2166 79.8062 24.8437 79.4302 25.3672C79.0542 25.8908 78.5134 26.2919 77.8079 26.5706C77.1063 26.8493 76.2593 26.9887 75.2669 26.9887C74.2707 26.9887 73.4024 26.8437 72.662 26.5537C71.9216 26.2637 71.346 25.823 70.9351 25.2316C70.5242 24.6403 70.3129 23.8926 70.3013 22.9887H73.0574C73.0807 23.3616 73.1834 23.6723 73.3656 23.9209C73.5478 24.1695 73.7978 24.3578 74.1156 24.4859C74.4374 24.6139 74.8095 24.678 75.232 24.678C75.6197 24.678 75.9492 24.6271 76.2205 24.5254C76.4957 24.4237 76.707 24.2825 76.8543 24.1017C77.0016 23.9209 77.0772 23.7137 77.0811 23.4802C77.0772 23.2618 77.0074 23.0753 76.8718 22.9209C76.7361 22.7627 76.5268 22.6271 76.2438 22.5141C75.9647 22.3974 75.6081 22.29 75.1739 22.1921L73.9296 21.9096C72.8985 21.6798 72.0863 21.3088 71.4933 20.7966C70.9002 20.2806 70.6056 19.5838 70.6095 18.7062C70.6056 17.9905 70.8033 17.3634 71.2025 16.8248C71.6018 16.2862 72.1542 15.8662 72.8597 15.5649C73.5652 15.2636 74.3696 15.1129 75.2728 15.1129C76.1953 15.1129 76.9958 15.2655 77.6742 15.5706C78.3564 15.8719 78.8855 16.2956 79.2616 16.8418C79.6376 17.3879 79.8294 18.0207 79.8372 18.7401H77.0811Z" fill="#0F0F11"/>
</svg>
