<svg width="49" height="48" viewBox="0 0 49 48" fill="none" xmlns="http://www.w3.org/2000/svg">
<g filter="url(#filter0_d_768_5658)">
<mask id="path-1-inside-1_768_5658" fill="white">
<path d="M1 0H49V48H1V0Z"/>
</mask>
<path d="M1 0H49V48H1V0Z" fill="#0F1121"/>
<path d="M49 47H1V49H49V47Z" fill="#3B3E4A" mask="url(#path-1-inside-1_768_5658)"/>
<path d="M18 20.5C18 20.0858 18.3918 19.75 18.875 19.75H31.125C31.6082 19.75 32 20.0858 32 20.5C32 20.9142 31.6082 21.25 31.125 21.25H18.875C18.3918 21.25 18 20.9142 18 20.5Z" fill="#F1F2F9"/>
<path d="M18 24C18 23.5858 18.3918 23.25 18.875 23.25H31.125C31.6082 23.25 32 23.5858 32 24C32 24.4142 31.6082 24.75 31.125 24.75H18.875C18.3918 24.75 18 24.4142 18 24Z" fill="#F1F2F9"/>
<path d="M18.875 26.75C18.3918 26.75 18 27.0858 18 27.5C18 27.9142 18.3918 28.25 18.875 28.25H31.125C31.6082 28.25 32 27.9142 32 27.5C32 27.0858 31.6082 26.75 31.125 26.75H18.875Z" fill="#F1F2F9"/>
</g>
<defs>
<filter id="filter0_d_768_5658" x="0" y="0" width="49" height="48" filterUnits="userSpaceOnUse" color-interpolation-filters="sRGB">
<feFlood flood-opacity="0" result="BackgroundImageFix"/>
<feColorMatrix in="SourceAlpha" type="matrix" values="0 0 0 0 0 0 0 0 0 0 0 0 0 0 0 0 0 0 127 0" result="hardAlpha"/>
<feOffset dx="-1"/>
<feColorMatrix type="matrix" values="0 0 0 0 0.231373 0 0 0 0 0.243137 0 0 0 0 0.290196 0 0 0 1 0"/>
<feBlend mode="normal" in2="BackgroundImageFix" result="effect1_dropShadow_768_5658"/>
<feBlend mode="normal" in="SourceGraphic" in2="effect1_dropShadow_768_5658" result="shape"/>
</filter>
</defs>
</svg>
