<svg xmlns="http://www.w3.org/2000/svg" enable-background="new 0 0 5000 4000" viewBox="0 0 5000 4000"><g><g><g><g><path fill="#E2E6E9" d="M3635.234,1728.485l46.042,50.604c21.479,23.607,48.384,41.627,78.39,52.502l60.015,21.75
					v115.059h-184.447V1728.485z"/><path fill="#9fabb2" d="M3819.681,1971.401h-184.446c-1.657,0-3-1.343-3-3v-239.916c0-1.239,0.762-2.351,1.918-2.798
					c1.156-0.448,2.467-0.137,3.301,0.779l46.041,50.604c21.067,23.156,47.761,41.034,77.194,51.701l60.015,21.75
					c1.187,0.43,1.978,1.558,1.978,2.82v115.059C3822.681,1970.058,3821.338,1971.401,3819.681,1971.401z M3638.234,1965.401
					h178.446v-109.956l-58.037-21.034c-30.346-10.998-57.866-29.43-79.587-53.303l-40.822-44.868V1965.401z"/></g><g><g><path fill="#0F0F11" d="M1324.019,3507.989c0,0,100.841,90.855,314.91,25.986l213.517,30.736
						c0,0,195.769,102.092,480.889,0h307.977c0,0,206.257,85.875,448.481,0h324.203c0,0,167.195,46.984,224.242-56.745
						l-24.039-178.329H1424.86L1324.019,3507.989z"/><path fill="#9fabb2" d="M2081.938,3613.083c-32.712,0-64.971-2.378-96.416-7.122
						c-79.747-12.032-128.71-35.71-133.991-38.352l-212.372-30.57c-48.866,14.752-95.865,22.571-139.7,23.241
						c-35.295,0.557-68.621-3.527-99.073-12.085c-52.045-14.627-77.325-37.031-78.375-37.979c-1.045-0.94-1.296-2.481-0.604-3.705
						l100.841-178.353c0.532-0.941,1.53-1.523,2.611-1.523h2189.338c1.502,0,2.772,1.11,2.973,2.6l24.04,178.329
						c0.086,0.636-0.034,1.283-0.344,1.846c-13.343,24.26-33.714,42.407-60.55,53.938c-21.317,9.159-46.726,14.168-75.519,14.886
						c-46.244,1.161-86.71-9.317-91.204-10.524h-323.286c-55.354,19.575-113.406,31.762-172.553,36.22
						c-47.45,3.578-95.705,2.217-143.428-4.042c-76.751-10.067-127.706-29.818-133.6-32.178h-306.873
						c-65.122,23.272-130.961,37.76-195.7,43.06C2119.318,3612.312,2100.553,3613.083,2081.938,3613.083z M1638.928,3530.975
						c0.143,0,0.286,0.01,0.428,0.03l213.517,30.735c0.335,0.049,0.66,0.153,0.959,0.31c0.487,0.253,49.669,25.509,132.875,38.021
						c76.772,11.544,199.055,14.293,345.617-38.186c0.324-0.116,0.667-0.176,1.011-0.176h307.978c0.396,0,0.787,0.078,1.152,0.23
						c0.514,0.213,52.288,21.483,132.855,32.026c74.298,9.719,188.991,12.045,313.47-32.085c0.322-0.113,0.661-0.172,1.003-0.172
						h324.203c0.274,0,0.547,0.038,0.812,0.111c0.415,0.117,42.042,11.643,89.981,10.412c63.28-1.61,107.127-23.428,130.343-64.854
						l-23.557-174.743H1426.61l-98.743,174.643c6.662,5.289,31.407,23.198,74.546,35.254
						c46.974,13.128,125.987,21.802,235.646-11.429C1638.341,3531.018,1638.634,3530.975,1638.928,3530.975z M1324.02,3507.988h0.01
						H1324.02z"/></g><g><path fill="#E2E6E9" d="M1706.563,3585.808c193.163,0,193.163-77.843,386.325-77.843
						c193.166,0,193.166,77.843,386.332,77.843c193.163,0,193.163-77.843,386.327-77.843c193.173,0,193.173,77.843,386.345,77.843
						s193.172-77.843,386.345-77.843l0.753,1.356l40.546-2021.636c12.087-602.688-473.165-1097.769-1075.974-1097.769
						c-554.075,0-1017.599,420.69-1071.153,972.17l-208.39,2145.903C1513.377,3509.005,1514.681,3585.808,1706.563,3585.808z"/><path fill="#9fabb2" d="M3251.893,3588.808c-97.168,0-146.544-19.897-194.294-39.139
						c-47.22-19.028-96.047-38.704-192.052-38.704c-96,0-144.824,19.676-192.042,38.704
						c-47.748,19.241-97.121,39.139-194.285,39.139c-97.165,0-146.539-19.897-194.288-39.139
						c-47.218-19.028-96.043-38.704-192.044-38.704c-95.999,0-144.824,19.676-192.041,38.704
						c-47.748,19.241-97.121,39.139-194.285,39.139c-97.162,0-146.543-19.894-194.299-39.132
						c-46.6-18.773-94.787-38.186-188.261-38.688c-0.843-0.005-1.646-0.363-2.211-0.99c-0.565-0.625-0.84-1.461-0.759-2.3
						l208.39-2145.903c25.974-267.464,149.865-514.223,348.852-694.822c198.986-180.598,456.565-280.058,725.288-280.058
						c147.696,0,290.793,29.277,425.314,87.017c64.595,27.726,126.812,62.023,184.923,101.94
						c57.544,39.527,111.537,84.887,160.479,134.82s93.21,104.824,131.575,163.15c38.744,58.899,71.787,121.792,98.212,186.93
						c55.031,135.652,81.433,279.307,78.471,426.973l-6.08,303.234c-0.033,1.636-1.37,2.94-2.998,2.94c-0.021,0-0.041,0-0.062,0
						c-1.657-0.033-2.973-1.403-2.939-3.06l6.081-303.234c5.829-290.674-103.037-565.103-306.545-772.733
						c-203.507-207.629-475.697-321.977-766.431-321.977c-555.284,0-1014.495,416.777-1068.167,969.46l-208.073,2142.638
						c92.466,0.94,140.61,20.334,187.183,39.097c47.225,19.024,96.059,38.697,192.057,38.697c96,0,144.825-19.676,192.042-38.704
						c47.747-19.242,97.121-39.139,194.283-39.139c97.165,0,146.539,19.896,194.288,39.139
						c47.218,19.028,96.043,38.704,192.044,38.704c96,0,144.825-19.676,192.042-38.704c47.747-19.242,97.121-39.139,194.284-39.139
						c97.168,0,146.544,19.896,194.294,39.139c47.22,19.028,96.047,38.704,192.052,38.704c96.004,0,144.831-19.676,192.051-38.704
						c47.395-19.099,96.394-38.843,192.135-39.136l33.632-1676.88c0.032-1.636,1.369-2.94,2.998-2.94c0.021,0,0.041,0,0.061,0
						c1.657,0.033,2.973,1.403,2.94,3.06l-33.719,1681.173c-0.026,1.356-0.96,2.525-2.276,2.853
						c-1.242,0.31-2.537-0.208-3.231-1.267c-94.849,0.238-143.365,19.79-190.297,38.702
						C3398.436,3568.911,3349.061,3588.808,3251.893,3588.808z"/></g></g><g><g><path fill="#0F0F11" d="M2526.017,1571.678c-67.175,0-121.63-54.456-121.63-121.63v-84.33
						c0-67.174,54.456-121.63,121.63-121.63s121.63,54.456,121.63,121.63v84.33
						C2647.646,1517.223,2593.191,1571.678,2526.017,1571.678z"/><path fill="#262525" d="M2526.017,1574.678c-68.721,0-124.63-55.909-124.63-124.629v-84.331
						c0-68.721,55.909-124.63,124.63-124.63c68.721,0,124.63,55.909,124.63,124.63v84.331
						C2650.646,1518.77,2594.737,1574.678,2526.017,1574.678z M2526.017,1247.088c-65.413,0-118.63,53.217-118.63,118.63v84.331
						c0,65.413,53.217,118.629,118.63,118.629s118.63-53.217,118.63-118.629v-84.331
						C2644.646,1300.306,2591.43,1247.088,2526.017,1247.088z"/></g><g><path fill="#262525" d="M3155.249,1571.678c-67.175,0-121.63-54.456-121.63-121.63v-84.33
						c0-67.174,54.456-121.63,121.63-121.63c67.175,0,121.63,54.456,121.63,121.63v84.33
						C3276.878,1517.223,3222.423,1571.678,3155.249,1571.678z"/><path fill="#262525" d="M3155.248,1574.678c-68.721,0-124.63-55.909-124.63-124.629v-84.331
						c0-68.721,55.909-124.63,124.63-124.63s124.63,55.909,124.63,124.63v84.331
						C3279.878,1518.77,3223.969,1574.678,3155.248,1574.678z M3155.248,1247.088c-65.413,0-118.63,53.217-118.63,118.63v84.331
						c0,65.413,53.217,118.629,118.63,118.629s118.63-53.217,118.63-118.629v-84.331
						C3273.878,1300.306,3220.661,1247.088,3155.248,1247.088z"/></g><path fill="#262525" d="M2856.079,1533.874c-14.453,0-28.9-2.307-42.952-6.921l-16.376-5.378
					c-2.886-0.948-4.457-4.056-3.51-6.941c0.948-2.886,4.058-4.458,6.941-3.51l16.376,5.378c25.855,8.491,53.186,8.491,79.041,0
					l16.377-5.378c2.885-0.948,5.994,0.625,6.941,3.51c0.947,2.886-0.624,5.994-3.51,6.941l-16.377,5.378
					C2884.983,1531.566,2870.528,1533.874,2856.079,1533.874z"/><g><path fill="#fff" d="M3221.009,1591.491c-50.721,92.534,166.331,16.101,148.295-37.661
						C3341.342,1489.035,3243.311,1547.449,3221.009,1591.491z"/><path fill="#262525" d="M3242.111,1637.792c-9.951,0-19.59-1.847-25.691-7.531c-8.814-8.211-8.163-21.727,1.935-40.169
						c16.174-31.876,68.563-69.356,109.32-68.093c20.659,0.634,36.007,11.23,44.385,30.643c0.033,0.077,0.062,0.155,0.089,0.234
						c5.397,16.088-7.005,34.852-34.923,52.834c-19.506,12.565-44.724,23.222-67.456,28.508
						C3262.416,1635.928,3252.106,1637.792,3242.111,1637.792z M3325.704,1527.969c-37.442,0-86.987,35.194-102.019,64.877
						c-0.015,0.029-0.03,0.058-0.046,0.086c-5.935,10.828-11.296,25.331-3.13,32.938c7.449,6.938,24.907,7.852,47.901,2.503
						c22.097-5.138,46.607-15.497,65.565-27.708c24.946-16.068,36.79-32.74,32.522-45.766c-7.503-17.29-20.626-26.34-39.008-26.904
						C3326.9,1527.978,3326.301,1527.969,3325.704,1527.969z M3221.009,1591.491h0.01H3221.009z"/></g><g><path fill="#fff" d="M2459.473,1591.491c50.721,92.534-166.331,16.101-148.295-37.661
						C2339.14,1489.035,2437.171,1547.449,2459.473,1591.491z"/><path fill="#262525" d="M2438.37,1637.792c-9.996,0-20.304-1.864-27.658-3.574
						c-22.732-5.286-47.949-15.943-67.456-28.508c-27.917-17.982-40.32-36.746-34.923-52.834c0.027-0.08,0.057-0.158,0.09-0.234
						c8.377-19.413,23.725-30.009,44.384-30.643c40.821-1.254,93.151,36.217,109.32,68.093c10.098,18.442,10.75,31.958,1.935,40.169
						C2457.96,1635.944,2448.32,1637.792,2438.37,1637.792z M2313.983,1554.9c-4.266,13.025,7.578,29.698,32.522,45.766
						c18.958,12.211,43.468,22.57,65.565,27.708c22.994,5.347,40.453,4.435,47.901-2.503c8.166-7.607,2.805-22.11-3.13-32.938
						c-0.016-0.029-0.031-0.058-0.045-0.086c-15.271-30.157-66.145-66.003-103.806-64.851
						C2334.609,1528.56,2321.486,1537.611,2313.983,1554.9z"/></g></g></g><g><g><g><path fill="#E2E6E9" d="M4235.253,2467.894H764.746c-137.931,0-249.746-111.815-249.746-249.747
						c0-137.932,111.815-249.747,249.746-249.747h3470.507c137.931,0,249.747,111.815,249.747,249.746
						C4485,2356.079,4373.185,2467.894,4235.253,2467.894z"/><path fill="#262525" d="M4235.254,2470.895H764.747c-67.511,0-130.981-26.29-178.719-74.028
						C538.29,2349.129,512,2285.658,512,2218.147s26.29-130.981,74.028-178.719c47.738-47.738,111.208-74.028,178.719-74.028
						h3470.507c67.511,0,130.981,26.29,178.719,74.028c47.737,47.737,74.027,111.208,74.027,178.719s-26.29,130.981-74.027,178.719
						C4366.235,2444.604,4302.765,2470.895,4235.254,2470.895z M764.747,1971.401c-136.057,0-246.747,110.69-246.747,246.747
						s110.69,246.747,246.747,246.747h3470.507c136.056,0,246.746-110.69,246.746-246.747s-110.69-246.747-246.746-246.747H764.747z
						"/></g><g><path fill="#262525" d="M4235.253,2427.109H764.747c-115.406,0-208.962-93.555-208.962-208.962
						c0-115.407,93.555-208.962,208.962-208.962h3470.507c115.406,0,208.962,93.555,208.962,208.962
						C4444.215,2333.554,4350.66,2427.109,4235.253,2427.109z"/><path fill="#262525" d="M4235.254,2430.109H764.747c-116.876,0-211.962-95.086-211.962-211.962
						s95.086-211.962,211.962-211.962h3470.507c116.876,0,211.961,95.086,211.961,211.962S4352.13,2430.109,4235.254,2430.109z
						 M764.747,2012.186c-113.567,0-205.962,92.394-205.962,205.962s92.395,205.962,205.962,205.962h3470.507
						c113.567,0,205.961-92.394,205.961-205.962s-92.394-205.962-205.961-205.962H764.747z"/></g></g><g><path fill="#fff" d="M770.38,2298.546c-67.682,0-122.745-55.062-122.745-122.744s55.063-122.745,122.745-122.745
					s122.745,55.063,122.745,122.745S838.062,2298.546,770.38,2298.546z M770.38,2068.057c-59.411,0-107.745,48.334-107.745,107.745
					c0,59.41,48.334,107.744,107.745,107.744s107.745-48.334,107.745-107.744C878.125,2116.391,829.791,2068.057,770.38,2068.057z"/><path fill="#fff" d="M945.309,2383.238c-2.088,0-4.165-0.866-5.647-2.562l-99.048-113.211
					c-2.728-3.117-2.411-7.855,0.706-10.583c3.117-2.728,7.855-2.413,10.583,0.706L950.95,2370.8
					c2.728,3.117,2.411,7.855-0.706,10.583C948.822,2382.627,947.061,2383.238,945.309,2383.238z"/><path fill="#fff" d="M945.312,2390.738c-4.176,0-8.329-1.733-11.295-5.123l-49.524-56.605
					c-5.455-6.234-4.823-15.711,1.412-21.166c6.233-5.456,15.71-4.823,21.166,1.412l49.524,56.605
					c5.455,6.234,4.823,15.711-1.412,21.166C952.338,2389.517,948.816,2390.738,945.312,2390.738z"/></g></g><g><g><path fill="#E2E6E9" d="M1501.265,1682.802c0,0-83.294,92.065-103.513,285.599h405.428l-23.765-127.828v-130.886
					L1501.265,1682.802z"/><path fill="#89939A" d="M1803.181,1971.401h-405.429c-0.85,0-1.66-0.36-2.229-0.992c-0.569-0.632-0.843-1.475-0.755-2.32
					c10.49-100.417,38.219-173.102,59.633-216.394c23.268-47.041,43.777-69.955,44.639-70.907c1.111-1.228,3.007-1.323,4.236-0.212
					c1.229,1.111,1.324,3.008,0.214,4.237c-0.207,0.229-20.93,23.417-43.841,69.806c-20.91,42.335-47.921,113.117-58.561,210.782
					h398.482l-23.105-124.28c-0.034-0.181-0.051-0.364-0.051-0.548v-59.59c0-1.657,1.343-3,3-3s3,1.343,3,3v59.314l23.715,127.557
					c0.163,0.876-0.073,1.78-0.643,2.466C1804.918,1971.004,1804.072,1971.401,1803.181,1971.401z"/></g><g><path fill="#E2E6E9" d="M1826.237,2277.57c-142.223,0-257.516-115.294-257.516-257.516v-10.867v-19.637
					c0-82.277,66.699-148.976,148.976-148.976h109.959c89.721,0,162.455,72.734,162.455,162.455v110.669
					C1990.11,2204.201,1916.742,2277.57,1826.237,2277.57z"/><path fill="#262525" d="M1826.237,2280.569c-69.586,0-135.008-27.099-184.213-76.304
					c-49.205-49.204-76.304-114.626-76.304-184.212v-30.505c0-12.589,1.543-25.106,4.587-37.202
					c0.404-1.607,2.036-2.583,3.641-2.177c1.607,0.404,2.582,2.035,2.177,3.641c-2.923,11.618-4.405,23.642-4.405,35.738v30.505
					c0,140.341,114.176,254.516,254.517,254.516c88.706,0,160.874-72.167,160.874-160.873v-110.669
					c0-87.924-71.531-159.455-159.455-159.455h-109.959c-15.74,0-31.223,2.49-46.019,7.401c-1.57,0.522-3.27-0.329-3.792-1.902
					c-0.522-1.572,0.33-3.27,1.902-3.792c15.406-5.114,31.525-7.707,47.908-7.707h109.959c91.232,0,165.455,74.223,165.455,165.455
					v110.669C1993.11,2205.71,1918.251,2280.569,1826.237,2280.569z"/></g></g><g><path fill="#E2E6E9" d="M3777.117,2277.57c-142.223,0-257.517-115.294-257.517-257.516v-10.867v-19.637
				c0-82.277,66.699-148.976,148.976-148.976h109.959c89.721,0,162.455,72.734,162.455,162.455v110.669
				C3940.99,2204.201,3867.622,2277.57,3777.117,2277.57z"/><path fill="#262525" d="M3777.116,2280.569c-69.586,0-135.007-27.099-184.212-76.304s-76.304-114.626-76.304-184.212
				v-30.505c0-83.8,68.176-151.977,151.976-151.977h24.475c1.657,0,3,1.343,3,3s-1.343,3-3,3h-24.475
				c-80.491,0-145.976,65.485-145.976,145.977v30.505c0,140.341,114.175,254.516,254.516,254.516
				c88.706,0,160.874-72.167,160.874-160.873v-110.669c0-86.081-67.323-156.058-153.271-159.337h-24.628c-1.657,0-3-1.343-3-3
				s1.343-3,3-3h24.686c0.038,0,0.075,0,0.113,0.002c42.849,1.619,82.878,19.536,112.713,50.452
				c29.914,30.996,46.388,71.795,46.388,114.884v110.669C3943.99,2205.71,3869.131,2280.569,3777.116,2280.569z"/></g></g></g></svg>
