<svg xmlns="http://www.w3.org/2000/svg" xmlns:xlink="http://www.w3.org/1999/xlink" xmlns:serif="http://www.serif.com/" viewBox="0 0 32 30" width="300" height="400" version="1.1" xml:space="preserve" style="" fill="#89939A" fill-rule="evenodd" clip-rule="evenodd" stroke-linejoin="round" stroke-miterlimit="2"><g serif:id="Line Black"><path d="M22.456,23.966l6.837,6.837c0.39,0.39 1.024,0.39 1.414,-0c0.39,-0.39 0.39,-1.024 0,-1.414l-6.836,-6.837c1.95,-2.273 3.129,-5.228 3.129,-8.456c-0,-7.175 -5.825,-13 -13,-13c-7.175,-0 -13,5.825 -13,13c-0,7.175 5.825,13 13,13c3.228,-0 6.183,-1.179 8.456,-3.13Zm-8.456,-20.87c6.071,-0 11,4.929 11,11c-0,6.071 -4.929,11 -11,11c-6.071,-0 -11,-4.929 -11,-11c-0,-6.071 4.929,-11 11,-11Z"/><path d="M8,11.51l-0.707,0.707c-0.39,0.39 -0.39,1.024 -0,1.414c0.39,0.391 1.024,0.391 1.414,0l0.707,-0.707l0.707,0.707c0.391,0.391 1.024,0.391 1.415,0c0.39,-0.39 0.39,-1.024 -0,-1.414l-0.708,-0.707l0.708,-0.707c0.39,-0.39 0.39,-1.024 -0,-1.414c-0.391,-0.391 -1.024,-0.391 -1.415,-0l-0.707,0.707l-0.707,-0.707c-0.39,-0.391 -1.024,-0.391 -1.414,-0c-0.39,0.39 -0.39,1.024 -0,1.414l0.707,0.707Z"/><path d="M16.5,11.51l-0.707,0.707c-0.39,0.39 -0.39,1.024 -0,1.414c0.39,0.391 1.024,0.391 1.414,0l0.707,-0.707l0.707,0.707c0.391,0.391 1.024,0.391 1.415,0c0.39,-0.39 0.39,-1.024 -0,-1.414l-0.708,-0.707l0.708,-0.707c0.39,-0.39 0.39,-1.024 -0,-1.414c-0.391,-0.391 -1.024,-0.391 -1.415,-0l-0.707,0.707l-0.707,-0.707c-0.39,-0.391 -1.024,-0.391 -1.414,-0c-0.39,0.39 -0.39,1.024 -0,1.414l0.707,0.707Z"/><path d="M10.669,19.839c0.943,-0.849 1.872,-1.277 2.815,-1.262c0.963,0.015 1.912,0.481 2.875,1.286c0.423,0.354 1.054,0.297 1.408,-0.126c0.354,-0.424 0.298,-1.055 -0.126,-1.409c-1.37,-1.145 -2.755,-1.729 -4.125,-1.751c-1.39,-0.022 -2.795,0.524 -4.185,1.775c-0.41,0.37 -0.443,1.003 -0.074,1.413c0.369,0.41 1.002,0.443 1.412,0.074Z"/></g></svg>
