<svg xmlns:inkscape="http://www.inkscape.org/namespaces/inkscape" xmlns:sodipodi="http://sodipodi.sourceforge.net/DTD/sodipodi-0.dtd" xmlns="http://www.w3.org/2000/svg" xmlns:svg="http://www.w3.org/2000/svg" xmlns:rdf="http://www.w3.org/1999/02/22-rdf-syntax-ns#" xmlns:cc="http://creativecommons.org/ns#" xmlns:dc="http://purl.org/dc/elements/1.1/" width="500" height="400" viewBox="0 0 17 20" version="1.1"><g><path style="color:#000000;" d="m 1.0593657,2.4559216 a 0.26460995,0.26460995 0 0 0 -0.26561603,0.26562 v 9.1405304 a 0.26460995,0.26460995 0 0 0 0.26561603,0.26406 h 5.203301 l -0.718304,1.82211 h -1.734778 a 0.26458349,0.26458349 0 0 0 -0.265615,0.26355 0.26458349,0.26458349 0 0 0 0.265615,0.26562 h 9.3162283 a 0.26458349,0.26458349 0 0 0 0.264067,-0.26562 0.26458349,0.26458349 0 0 0 -0.264067,-0.26355 h -1.736844 l -0.717786,-1.82211 h 5.204849 a 0.26460995,0.26460995 0 0 0 0.263552,-0.26406 V 2.7215416 a 0.26460995,0.26460995 0 0 0 -0.263552,-0.26562 z m 0.264067,0.52917 H 15.610417 V 11.596452 H 1.3234327 Z m 3.061311,1.851559 a 0.26458349,0.26458349 0 0 0 -0.168981,0.0765 0.26458349,0.26458349 0 0 0 0,0.37466 l 0.625284,0.62994 -0.625284,0.62993 a 0.26458349,0.26458349 0 0 0 0,0.37517 0.26458349,0.26458349 0 0 0 0.375171,-0.002 l 0.623218,-0.62735 0.6227,0.62735 a 0.26458349,0.26458349 0 0 0 0.373104,0.002 0.26458349,0.26458349 0 0 0 0.0021,-0.37517 l -0.625285,-0.62993 0.625285,-0.62994 a 0.26458349,0.26458349 0 0 0 -0.0021,-0.37466 0.26458349,0.26458349 0 0 0 -0.373104,0.002 l -0.6227,0.62735 -0.623218,-0.62735 a 0.26458349,0.26458349 0 0 0 -0.20619,-0.0785 z m 6.5081313,0 a 0.26458349,0.26458349 0 0 0 -0.168981,0.0765 0.26458349,0.26458349 0 0 0 -0.0021,0.37466 l 0.625287,0.62994 -0.625287,0.62993 a 0.26458349,0.26458349 0 0 0 0.0021,0.37517 0.26458349,0.26458349 0 0 0 0.374652,-0.002 l 0.622184,-0.62683 0.622186,0.62683 a 0.26458349,0.26458349 0 0 0 0.374653,0.002 0.26458349,0.26458349 0 0 0 0.0021,-0.37517 l -0.625287,-0.62993 0.625287,-0.62994 a 0.26458349,0.26458349 0 0 0 -0.0021,-0.37466 0.26458349,0.26458349 0 0 0 -0.374653,0.002 l -0.622186,0.62632 -0.622184,-0.62632 a 0.26458349,0.26458349 0 0 0 -0.205671,-0.0785 z m -2.4251763,3.008091 c -0.862933,0 -1.564246,0.70783 -1.564246,1.57406 v 0.0625 a 0.26458349,0.26458349 0 0 0 0.263552,0.26562 0.26458349,0.26458349 0 0 0 0.265615,-0.26562 v -0.0625 c 0,-0.58435 0.45829,-1.04489 1.035079,-1.04489 0.576792,0 1.035079,0.46054 1.035079,1.04489 v 0.0625 a 0.26458349,0.26458349 0 0 0 0.264067,0.26562 0.26458349,0.26458349 0 0 0 0.2635493,-0.26562 v -0.0625 c 0,-0.86623 -0.6997623,-1.57406 -1.5626953,-1.57406 z m -1.634524,4.2813904 h 3.2695673 l 0.716751,1.82211 H 6.1143547 Z" fill="#89939A" stroke-width="1" stroke-linejoin="round"/></g></svg>
