<svg width="16" height="16" viewBox="0 0 16 16" fill="none" xmlns="http://www.w3.org/2000/svg">
<path fill-rule="evenodd" clip-rule="evenodd" d="M8.66602 3.33366C8.66602 2.96547 8.36754 2.66699 7.99935 2.66699C7.63116 2.66699 7.33268 2.96547 7.33268 3.33366V7.33366H3.33268C2.96449 7.33366 2.66602 7.63214 2.66602 8.00033C2.66602 8.36852 2.96449 8.66699 3.33268 8.66699H7.33268V12.667C7.33268 13.0352 7.63116 13.3337 7.99935 13.3337C8.36754 13.3337 8.66602 13.0352 8.66602 12.667V8.66699H12.666C13.0342 8.66699 13.3327 8.36852 13.3327 8.00033C13.3327 7.63214 13.0342 7.33366 12.666 7.33366H8.66602V3.33366Z" fill="#4A4D58"/>
</svg>
