<svg viewBox="0 0 16 16" xmlns="http://www.w3.org/2000/svg" xmlns:xlink="http://www.w3.org/1999/xlink" width="16.000000" height="16.000000" fill="none" customFrame="#000000">
	<rect id="Icons/Chevron (Arrow Right)" width="16.000000" height="16.000000" x="0.000000" y="0.000000" fill="rgb(255,255,255)" fill-opacity="0" transform="matrix(-1,0,0,1,16,0)" />
	<rect id="Rectangle 12" width="16.000000" height="16.000000" x="0.000000" y="0.000000" transform="matrix(-1,0,0,1,16,0)" />
	<path id="Vector (Stroke)" d="M0.195262 0.195262C0.455612 -0.0650874 0.877722 -0.0650874 1.13807 0.195262L5.13807 4.19526C5.39842 4.45561 5.39842 4.87772 5.13807 5.13807L1.13807 9.13807C0.877722 9.39842 0.455612 9.39842 0.195262 9.13807C-0.0650874 8.87772 -0.0650874 8.45561 0.195262 8.19526L3.72386 4.66667L0.195262 1.13807C-0.0650874 0.877722 -0.0650874 0.455612 0.195262 0.195262Z" fill="rgb(143.735,91.375,255)" fill-rule="evenodd" transform="matrix(-1,0,0,1,10.6665,3.33337)" />
</svg>
