<svg width="28" height="28" viewBox="0 0 28 28" fill="none" xmlns="http://www.w3.org/2000/svg">
<path fill-rule="evenodd" clip-rule="evenodd" d="M9.46683 6.93329C9.59273 6.76542 9.79032 6.66663 10.0002 6.66663H18.0002C18.21 6.66663 18.4076 6.76542 18.5335 6.93329L20.5335 9.59996C20.62 9.71536 20.6668 9.85571 20.6668 9.99996V19.3333C20.6668 19.8637 20.4561 20.3724 20.081 20.7475C19.706 21.1226 19.1973 21.3333 18.6668 21.3333H9.3335C8.80306 21.3333 8.29436 21.1226 7.91928 20.7475C7.54421 20.3724 7.3335 19.8637 7.3335 19.3333V9.99996C7.3335 9.85571 7.38028 9.71536 7.46683 9.59996L9.46683 6.93329ZM10.3335 7.99996L8.66683 10.2222V19.3333C8.66683 19.5101 8.73707 19.6797 8.86209 19.8047C8.98712 19.9297 9.15669 20 9.3335 20H18.6668C18.8436 20 19.0132 19.9297 19.1382 19.8047C19.2633 19.6797 19.3335 19.5101 19.3335 19.3333V10.2222L17.6668 7.99996H10.3335Z" fill="#313237"/>
<path fill-rule="evenodd" clip-rule="evenodd" d="M7.3335 9.99998C7.3335 9.63179 7.63197 9.33331 8.00016 9.33331H20.0002C20.3684 9.33331 20.6668 9.63179 20.6668 9.99998C20.6668 10.3682 20.3684 10.6666 20.0002 10.6666H8.00016C7.63197 10.6666 7.3335 10.3682 7.3335 9.99998Z" fill="#313237"/>
<path fill-rule="evenodd" clip-rule="evenodd" d="M11.3334 12C11.7016 12 12.0001 12.2985 12.0001 12.6667C12.0001 13.1971 12.2108 13.7058 12.5859 14.0809C12.9609 14.456 13.4696 14.6667 14.0001 14.6667C14.5305 14.6667 15.0392 14.456 15.4143 14.0809C15.7894 13.7058 16.0001 13.1971 16.0001 12.6667C16.0001 12.2985 16.2986 12 16.6667 12C17.0349 12 17.3334 12.2985 17.3334 12.6667C17.3334 13.5507 16.9822 14.3986 16.3571 15.0237C15.732 15.6488 14.8841 16 14.0001 16C13.116 16 12.2682 15.6488 11.6431 15.0237C11.0179 14.3986 10.6667 13.5507 10.6667 12.6667C10.6667 12.2985 10.9652 12 11.3334 12Z" fill="#313237"/>
<circle cx="21" cy="7" r="6.5" fill="#EB5757" stroke="white"/>
</svg>
