<svg width="48" height="48" viewBox="0 0 48 48" fill="none" xmlns="http://www.w3.org/2000/svg">
<g clip-path="url(#clip0_1_8)">
<path d="M8 7L9.79611 12.5279H15.6085L10.9062 15.9443L12.7023 21.4721L8 18.0557L3.29772 21.4721L5.09383 15.9443L0.391548 12.5279H6.20389L8 7Z" fill="#89939A"/>
<path d="M32.5 0L33.2858 2.41844H35.8287L33.7714 3.91312L34.5572 6.33156L32.5 4.83688L30.4428 6.33156L31.2286 3.91312L29.1713 2.41844H31.7142L32.5 0Z" fill="#89939A"/>
<path d="M40.5 32L41.2858 34.4184H43.8287L41.7714 35.9131L42.5572 38.3316L40.5 36.8369L38.4428 38.3316L39.2286 35.9131L37.1713 34.4184H39.7142L40.5 32Z" fill="#89939A"/>
<path d="M35.5 39L36.2858 41.4184H38.8287L36.7714 42.9131L37.5572 45.3316L35.5 43.8369L33.4428 45.3316L34.2286 42.9131L32.1713 41.4184H34.7142L35.5 39Z" fill="#89939A"/>
<path d="M43.5 39L44.5103 42.1094H47.7798L45.1347 44.0312L46.145 47.1406L43.5 45.2188L40.855 47.1406L41.8653 44.0312L39.2202 42.1094H42.4897L43.5 39Z" fill="#89939A"/>
<path d="M4.5 33L5.51031 36.1094H8.77975L6.13472 38.0312L7.14503 41.1406L4.5 39.2188L1.85497 41.1406L2.86528 38.0312L0.220246 36.1094H3.48969L4.5 33Z" fill="#89939A"/>
<path d="M41.5 11L42.2858 13.4184H44.8287L42.7714 14.9131L43.5572 17.3316L41.5 15.8369L39.4428 17.3316L40.2286 14.9131L38.1713 13.4184H40.7142L41.5 11Z" fill="#89939A"/>
<circle cx="24" cy="24" r="16" fill="#89939A"/>
<path d="M21.1338 8.25684C17.9768 11.1794 16 15.3586 16 20C16 28.8366 23.1634 36 32 36C32.9781 36 33.9356 35.9113 34.8652 35.7432C32.0118 38.3845 28.1949 40 24 40C15.1634 40 8 32.8366 8 24C8 16.1419 13.665 9.6077 21.1338 8.25684Z" fill="#313237"/>
<path d="M41 0L42.5716 4.83688H47.6574L43.5429 7.82624L45.1145 12.6631L41 9.67376L36.8855 12.6631L38.4571 7.82624L34.3426 4.83688H39.4284L41 0Z" fill="#89939A"/>
</g>
<defs>
<clipPath id="clip0_1_8">
<rect width="48" height="48" fill="white"/>
</clipPath>
</defs>
</svg>
