<svg width="16" height="16" viewBox="0 0 16 16" fill="none" xmlns="http://www.w3.org/2000/svg">
<path fill-rule="evenodd" clip-rule="evenodd" d="M9.62803 1.63137C10.158 1.4118 10.7259 1.29878 11.2996 1.29878C11.8732 1.29878 12.4412 1.4118 12.9711 1.63137C13.501 1.85094 13.9825 2.17277 14.388 2.57847C14.7936 2.98394 15.1153 3.46532 15.3349 3.99514C15.5544 4.52506 15.6674 5.09305 15.6674 5.66667C15.6674 6.24028 15.5544 6.80827 15.3349 7.33819C15.1153 7.86806 14.7935 8.34949 14.3879 8.75497C14.3878 8.75501 14.3879 8.75493 14.3879 8.75497L8.49453 14.6483C8.22117 14.9217 7.77795 14.9217 7.50458 14.6483L1.61125 8.75497C0.79218 7.9359 0.332031 6.82501 0.332031 5.66667C0.332031 4.50833 0.79218 3.39743 1.61125 2.57836C2.43032 1.75929 3.54122 1.29914 4.69956 1.29914C5.8579 1.29914 6.9688 1.75929 7.78787 2.57836L7.99956 2.79005L8.21113 2.57847C8.2111 2.57851 8.21117 2.57844 8.21113 2.57847C8.61662 2.17283 9.09816 1.85092 9.62803 1.63137ZM13.3978 3.56819C13.1223 3.29256 12.7952 3.07392 12.4352 2.92474C12.0751 2.77556 11.6893 2.69878 11.2996 2.69878C10.9099 2.69878 10.524 2.77556 10.1639 2.92474C9.80392 3.07392 9.47681 3.29256 9.20132 3.56819L8.49453 4.27497C8.22117 4.54834 7.77795 4.54834 7.50458 4.27497L6.79792 3.56831C6.2414 3.01179 5.4866 2.69914 4.69956 2.69914C3.91252 2.69914 3.15772 3.01179 2.6012 3.56831C2.04468 4.12483 1.73203 4.87963 1.73203 5.66667C1.73203 6.4537 2.04468 7.20851 2.6012 7.76502L7.99956 13.1634L13.3979 7.76502C13.6735 7.48953 13.8923 7.16231 14.0415 6.80228C14.1907 6.44226 14.2674 6.05637 14.2674 5.66667C14.2674 5.27696 14.1907 4.89107 14.0415 4.53105C13.8923 4.17103 13.6734 3.84369 13.3978 3.56819Z" fill="#313237"/>
</svg>
