<svg width="28" height="28" viewBox="0 0 28 28" fill="none" xmlns="http://www.w3.org/2000/svg">
<path fill-rule="evenodd" clip-rule="evenodd" d="M15.6285 7.63136C16.1584 7.41178 16.7264 7.29877 17.3 7.29877C17.8737 7.29877 18.4416 7.41178 18.9716 7.63136C19.5015 7.85093 19.983 8.17276 20.3885 8.57846C20.7941 8.98392 21.1158 9.46531 21.3353 9.99513C21.5549 10.525 21.6679 11.093 21.6679 11.6667C21.6679 12.2403 21.5549 12.8083 21.3353 13.3382C21.1158 13.868 20.794 14.3495 20.3884 14.755C20.3883 14.755 20.3884 14.7549 20.3884 14.755L14.495 20.6483C14.2217 20.9217 13.7784 20.9217 13.5051 20.6483L7.61174 14.755C6.79267 13.9359 6.33252 12.825 6.33252 11.6667C6.33252 10.5083 6.79267 9.39741 7.61174 8.57834C8.43081 7.75927 9.54171 7.29912 10.7 7.29912C11.8584 7.29912 12.9693 7.75927 13.7884 8.57834L14 8.79003L14.2116 8.57846C14.2117 8.57842 14.2116 8.5785 14.2116 8.57846C14.6171 8.17281 15.0986 7.85091 15.6285 7.63136ZM19.3983 9.56818C19.1228 9.29255 18.7957 9.0739 18.4357 8.92472C18.0756 8.77555 17.6898 8.69877 17.3 8.69877C16.9103 8.69877 16.5245 8.77555 16.1644 8.92472C15.8044 9.0739 15.4773 9.29255 15.2018 9.56818L14.495 10.275C14.2217 10.5483 13.7784 10.5483 13.5051 10.275L12.7984 9.56829C12.2419 9.01177 11.4871 8.69912 10.7 8.69912C9.91301 8.69912 9.15821 9.01177 8.60169 9.56829C8.04517 10.1248 7.73252 10.8796 7.73252 11.6667C7.73252 12.4537 8.04517 13.2085 8.60169 13.765L14 19.1634L19.3984 13.765C19.674 13.4895 19.8928 13.1623 20.042 12.8023C20.1911 12.4422 20.2679 12.0564 20.2679 11.6667C20.2679 11.2769 20.1911 10.8911 20.042 10.531C19.8928 10.171 19.6739 9.84367 19.3983 9.56818Z" fill="#313237"/>
<circle cx="21" cy="7" r="6.5" fill="#EB5757" stroke="white"/>
</svg>
