<svg width="16" height="16" viewBox="0 0 16 16" fill="none" xmlns="http://www.w3.org/2000/svg">
<path fill-rule="evenodd" clip-rule="evenodd" d="M11.2996 1.29877C10.7259 1.29877 10.158 1.41178 9.62803 1.63136C9.09816 1.85091 8.61662 2.17281 8.21113 2.57846L7.99956 2.79003L7.78787 2.57834C6.9688 1.75927 5.8579 1.29912 4.69956 1.29912C3.54122 1.29912 2.43032 1.75927 1.61125 2.57834C0.79218 3.39741 0.332031 4.50831 0.332031 5.66665C0.332031 6.82499 0.79218 7.93589 1.61125 8.75496L7.50458 14.6483C7.77795 14.9217 8.22117 14.9217 8.49453 14.6483L14.3879 8.75496C14.7935 8.34947 15.1153 7.86805 15.3349 7.33817C15.5544 6.80825 15.6674 6.24026 15.6674 5.66665C15.6674 5.09304 15.5544 4.52505 15.3349 3.99513C15.1153 3.46531 14.7936 2.98392 14.388 2.57846C13.9825 2.17276 13.501 1.85093 12.9711 1.63136C12.4412 1.41178 11.8732 1.29877 11.2996 1.29877Z" fill="#EB5757"/>
</svg>
