<svg width="16" height="14" viewBox="0 0 16 14" fill="none" xmlns="http://www.w3.org/2000/svg">
<path fill-rule="evenodd" clip-rule="evenodd" d="M11.2996 0.298828C10.7259 0.298828 10.158 0.411843 9.62803 0.631417C9.09816 0.85097 8.61662 1.17288 8.21113 1.57852L7.99956 1.7901L7.78787 1.5784C6.9688 0.759334 5.8579 0.299185 4.69956 0.299185C3.54122 0.299185 2.43032 0.759334 1.61125 1.5784C0.79218 2.39747 0.332031 3.50837 0.332031 4.66671C0.332031 5.82505 0.79218 6.93595 1.61125 7.75502L7.50458 13.6484C7.77795 13.9217 8.22117 13.9217 8.49453 13.6484L14.3879 7.75502C14.7935 7.34953 15.1153 6.86811 15.3349 6.33824C15.5544 5.80831 15.6674 5.24032 15.6674 4.66671C15.6674 4.0931 15.5544 3.52511 15.3349 2.99519C15.1153 2.46537 14.7936 1.98398 14.388 1.57852C13.9825 1.17282 13.501 0.850991 12.9711 0.631417C12.4412 0.411843 11.8732 0.298828 11.2996 0.298828Z" fill="#EB5757"/>
</svg>
