<svg width="64" height="21" viewBox="0 0 64 21" fill="none" xmlns="http://www.w3.org/2000/svg">
<path d="M8.2102 0.32571V9.41695H6.2565L2.46538 4.16996H2.40491V9.41695H0.102337V0.32571H2.08395L5.83319 5.56383H5.91227V0.32571H8.2102Z" fill="#313237"/>
<path d="M11.9606 0.32571V9.41695H9.65803V0.32571H11.9606Z" fill="#313237"/>
<path d="M22.0536 3.61951H19.7277C19.6967 3.39164 19.6331 3.18596 19.537 3.00248C19.4409 2.81899 19.3137 2.66215 19.1556 2.53193C18.9974 2.40172 18.8098 2.30258 18.5927 2.23452C18.3787 2.16349 18.1415 2.12798 17.881 2.12798C17.419 2.12798 17.0205 2.236 16.6855 2.45203C16.3537 2.66807 16.0979 2.98028 15.918 3.38868C15.7413 3.79707 15.6529 4.29129 15.6529 4.87133C15.6529 5.47505 15.7428 5.9811 15.9227 6.3895C16.1056 6.79493 16.3615 7.10123 16.6902 7.30839C17.022 7.51258 17.4143 7.61468 17.8671 7.61468C18.1214 7.61468 18.3524 7.58361 18.5602 7.52146C18.771 7.45932 18.9556 7.36905 19.1137 7.25068C19.275 7.12934 19.4068 6.98285 19.5091 6.81121C19.6145 6.63661 19.6874 6.43981 19.7277 6.22081L22.0536 6.23413C22.0133 6.63661 21.8908 7.03316 21.6861 7.4238C21.4845 7.81444 21.207 8.17105 20.8534 8.49362C20.4999 8.81324 20.0689 9.06774 19.5603 9.25714C19.0548 9.44654 18.4749 9.54125 17.8205 9.54125C16.9584 9.54125 16.1863 9.36072 15.504 8.99968C14.8249 8.63567 14.2884 8.10594 13.8945 7.41049C13.5007 6.71503 13.3038 5.86864 13.3038 4.87133C13.3038 3.87106 13.5038 3.02319 13.9038 2.32774C14.3039 1.63228 14.845 1.10403 15.5273 0.742984C16.2095 0.381939 16.9739 0.201416 17.8205 0.201416C18.3974 0.201416 18.9307 0.27836 19.4207 0.432249C19.9107 0.583177 20.3418 0.805131 20.7139 1.09811C21.086 1.38813 21.3884 1.74474 21.621 2.16793C21.8535 2.59112 21.9977 3.07498 22.0536 3.61951Z" fill="#313237"/>
<path d="M23.3712 9.41695V0.32571H30.0137V2.11022H25.6737V3.97464H29.6742V5.76359H25.6737V7.63244H30.0137V9.41695H23.3712Z" fill="#313237"/>
<path d="M6.35418 14.7542C6.30146 14.5678 6.22393 14.4035 6.1216 14.2615C6.01926 14.1165 5.89367 13.9936 5.74481 13.893C5.59596 13.7924 5.4254 13.7169 5.23313 13.6666C5.04086 13.6134 4.82998 13.5867 4.6005 13.5867C4.13844 13.5867 3.73839 13.6933 3.40037 13.9063C3.06545 14.1194 2.80651 14.4302 2.62354 14.8385C2.44058 15.244 2.34909 15.7367 2.34909 16.3168C2.34909 16.8998 2.43747 17.3969 2.61424 17.8083C2.791 18.2197 3.04684 18.5333 3.38176 18.7494C3.71668 18.9654 4.12293 19.0734 4.6005 19.0734C5.02225 19.0734 5.37888 19.0083 5.67039 18.8781C5.96499 18.7449 6.18827 18.557 6.34023 18.3144C6.49218 18.0717 6.56816 17.7861 6.56816 17.4576L6.99611 17.5064H4.67958V15.9039H8.78701V17.1069C8.78701 17.9208 8.60559 18.6177 8.24276 19.1977C7.88303 19.7778 7.38685 20.2232 6.75422 20.5339C6.1247 20.8446 5.40059 21 4.58189 21C3.67327 21 2.87473 20.8121 2.18628 20.4362C1.49784 20.0604 0.961345 19.5247 0.576807 18.8293C0.192269 18.1309 0 17.3022 0 16.3434C0 15.5976 0.116292 14.9362 0.348875 14.3591C0.581459 13.7791 0.905525 13.2878 1.32107 12.8854C1.73972 12.4829 2.2235 12.1781 2.77239 11.9709C3.32439 11.7637 3.91826 11.6602 4.55398 11.6602C5.10598 11.6602 5.61922 11.7356 6.09369 11.8866C6.57126 12.0375 6.99301 12.2506 7.35894 12.5258C7.72797 12.801 8.02723 13.128 8.25671 13.5068C8.4862 13.8856 8.62885 14.3014 8.68467 14.7542H6.35418Z" fill="#313237"/>
<path d="M11.9106 20.8757H9.43591L12.6502 11.7845H15.7157L18.93 20.8757H16.4553L14.2178 14.075H14.1434L11.9106 20.8757ZM11.5803 17.2978H16.753V18.9669H11.5803V17.2978Z" fill="#313237"/>
<path d="M23.477 20.8757H19.9557V11.7845H23.4723C24.443 11.7845 25.2787 11.9665 25.9796 12.3305C26.6835 12.6915 27.2262 13.2124 27.6077 13.893C27.9891 14.5707 28.1798 15.3816 28.1798 16.3256C28.1798 17.2726 27.9891 18.0865 27.6077 18.7671C27.2293 19.4478 26.6882 19.9701 25.9842 20.3341C25.2803 20.6952 24.4445 20.8757 23.477 20.8757ZM22.2582 19.0024H23.3886C23.922 19.0024 24.3732 18.9166 24.7422 18.7449C25.1144 18.5703 25.395 18.2877 25.5842 17.8971C25.7765 17.5035 25.8726 16.9797 25.8726 16.3256C25.8726 15.6716 25.7765 15.1508 25.5842 14.7631C25.3919 14.3724 25.1082 14.0913 24.7329 13.9197C24.3608 13.7451 23.9018 13.6578 23.356 13.6578H22.2582V19.0024Z" fill="#313237"/>
<path d="M35.776 14.7542C35.7233 14.5678 35.6457 14.4035 35.5434 14.2615C35.4411 14.1165 35.3155 13.9936 35.1666 13.893C35.0178 13.7924 34.8472 13.7169 34.6549 13.6666C34.4627 13.6134 34.2518 13.5867 34.0223 13.5867C33.5602 13.5867 33.1602 13.6933 32.8222 13.9063C32.4873 14.1194 32.2283 14.4302 32.0454 14.8385C31.8624 15.244 31.7709 15.7367 31.7709 16.3168C31.7709 16.8998 31.8593 17.3969 32.036 17.8083C32.2128 18.2197 32.4687 18.5333 32.8036 18.7494C33.1385 18.9654 33.5447 19.0734 34.0223 19.0734C34.4441 19.0734 34.8007 19.0083 35.0922 18.8781C35.3868 18.7449 35.6101 18.557 35.762 18.3144C35.914 18.0717 35.99 17.7861 35.99 17.4576L36.4179 17.5064H34.1014V15.9039H38.2088V17.1069C38.2088 17.9208 38.0274 18.6177 37.6646 19.1977C37.3048 19.7778 36.8087 20.2232 36.176 20.5339C35.5465 20.8446 34.8224 21 34.0037 21C33.0951 21 32.2965 20.8121 31.6081 20.4362C30.9196 20.0604 30.3832 19.5247 29.9986 18.8293C29.6141 18.1309 29.4218 17.3022 29.4218 16.3434C29.4218 15.5976 29.5381 14.9362 29.7707 14.3591C30.0033 13.7791 30.3273 13.2878 30.7429 12.8854C31.1615 12.4829 31.6453 12.1781 32.1942 11.9709C32.7462 11.7637 33.3401 11.6602 33.9758 11.6602C34.5278 11.6602 35.041 11.7356 35.5155 11.8866C35.9931 12.0375 36.4148 12.2506 36.7808 12.5258C37.1498 12.801 37.449 13.128 37.6785 13.5068C37.908 13.8856 38.0507 14.3014 38.1065 14.7542H35.776Z" fill="#313237"/>
<path d="M39.5659 20.8757V11.7845H46.2085V13.569H41.8685V15.4334H45.8689V17.2223H41.8685V19.0912H46.2085V20.8757H39.5659Z" fill="#313237"/>
<path d="M47.3389 13.569V11.7845H55.3909V13.569H52.5022V20.8757H50.2322V13.569H47.3389Z" fill="#313237"/>
<path d="M61.6649 14.5101C61.6339 14.1845 61.4958 13.9315 61.2509 13.751C61.009 13.5675 60.6632 13.4758 60.2135 13.4758C59.9158 13.4758 59.6677 13.5127 59.4693 13.5867C59.2708 13.6607 59.1219 13.7628 59.0227 13.893C58.9235 14.0203 58.8723 14.1668 58.8692 14.3325C58.863 14.4686 58.8909 14.5885 58.9529 14.6921C59.0181 14.7956 59.1111 14.8874 59.232 14.9673C59.3561 15.0442 59.5049 15.1123 59.6786 15.1715C59.8523 15.2307 60.0476 15.2825 60.2647 15.3268L61.0834 15.5044C61.5548 15.6021 61.9703 15.7323 62.3301 15.8951C62.6929 16.0578 62.9968 16.2517 63.2418 16.4766C63.4899 16.7015 63.6775 16.9604 63.8046 17.2534C63.9318 17.5464 63.9969 17.8749 64 18.2389C63.9969 18.813 63.8449 19.3057 63.5441 19.7171C63.2433 20.1285 62.8107 20.4436 62.2463 20.6626C61.685 20.8816 61.0074 20.9911 60.2135 20.9911C59.4166 20.9911 58.7219 20.8772 58.1296 20.6493C57.5373 20.4214 57.0768 20.0752 56.748 19.6106C56.4193 19.1459 56.2503 18.5585 56.241 17.8482H58.4459C58.4645 18.1412 58.5467 18.3854 58.6924 18.5807C58.8382 18.776 59.0382 18.924 59.2925 19.0246C59.5499 19.1252 59.8476 19.1755 60.1856 19.1755C60.4957 19.1755 60.7593 19.1356 60.9764 19.0557C61.1966 18.9758 61.3656 18.8648 61.4834 18.7227C61.6013 18.5807 61.6618 18.4179 61.6649 18.2344C61.6618 18.0628 61.6059 17.9163 61.4974 17.795C61.3889 17.6707 61.2214 17.5641 60.995 17.4754C60.7717 17.3836 60.4864 17.2993 60.1391 17.2223L59.1437 17.0004C58.3188 16.8199 57.6691 16.5284 57.1946 16.1259C56.7201 15.7204 56.4845 15.173 56.4876 14.4834C56.4845 13.9211 56.6426 13.4284 56.962 13.0052C57.2814 12.582 57.7233 12.252 58.2878 12.0153C58.8521 11.7785 59.4956 11.6602 60.2182 11.6602C60.9563 11.6602 61.5966 11.78 62.1393 12.0197C62.6851 12.2565 63.1084 12.5894 63.4092 13.0185C63.71 13.4476 63.8636 13.9448 63.8698 14.5101H61.6649Z" fill="#313237"/>
</svg>
