<svg viewBox="0 0 16 16" xmlns="http://www.w3.org/2000/svg" xmlns:xlink="http://www.w3.org/1999/xlink" width="16.000000" height="16.000000" fill="none" customFrame="#000000">
	<rect id="Icons/Menu" width="16.000000" height="16.000000" x="0.000000" y="0.000000" fill="rgb(255,255,255)" fill-opacity="0" />
	<path id="Union" d="M1 4.5C1 4.08579 1.39175 3.75 1.875 3.75L14.125 3.75C14.6082 3.75 15 4.08579 15 4.5C15 4.91421 14.6082 5.25 14.125 5.25L1.875 5.25C1.39175 5.25 1 4.91421 1 4.5ZM1 8C1 7.58579 1.39175 7.25 1.875 7.25L14.125 7.25C14.6082 7.25 15 7.58579 15 8C15 8.41421 14.6082 8.75 14.125 8.75L1.875 8.75C1.39175 8.75 1 8.41421 1 8ZM1 11.5C1 11.0858 1.39175 10.75 1.875 10.75L14.125 10.75C14.6082 10.75 15 11.0858 15 11.5C15 11.9142 14.6082 12.25 14.125 12.25L1.875 12.25C1.39175 12.25 1 11.9142 1 11.5Z" fill="rgb(241,242,249)" fill-rule="evenodd" />
</svg>
