<svg width="32" height="32" viewBox="0 0 32 32" fill="none" xmlns="http://www.w3.org/2000/svg">
<rect width="32" height="32" fill="#323542"/>
<path fill-rule="evenodd" clip-rule="evenodd" d="M16.666 11.3334C16.666 10.9652 16.3675 10.6667 15.9993 10.6667C15.6312 10.6667 15.3327 10.9652 15.3327 11.3334V15.3334H11.3327C10.9645 15.3334 10.666 15.6318 10.666 16C10.666 16.3682 10.9645 16.6667 11.3327 16.6667H15.3327V20.6667C15.3327 21.0349 15.6312 21.3334 15.9993 21.3334C16.3675 21.3334 16.666 21.0349 16.666 20.6667V16.6667H20.666C21.0342 16.6667 21.3327 16.3682 21.3327 16C21.3327 15.6318 21.0342 15.3334 20.666 15.3334H16.666V11.3334Z" fill="#F1F2F9"/>
</svg>
