<?xml version="1.0" encoding="utf-8"?>
<!-- Generator: Adobe Illustrator 24.3.0, SVG Export Plug-In . SVG Version: 6.00 Build 0)  -->
<svg version="1.1" id="Layer_1" xmlns="http://www.w3.org/2000/svg" xmlns:xlink="http://www.w3.org/1999/xlink" x="0px" y="0px"
	 viewBox="0 0 100 100" enable-background="new 0 0 100 100" xml:space="preserve">
<g>
	<polygon fill="#F29D00" points="40.901,23.802 49.314,9.23 57.727,23.802 	"/>
	<polygon fill="#F29D00" points="55.567,23.05 69.268,13.281 70.877,30.03 	"/>
	<polygon fill="#F29D00" points="68.205,28.517 85.011,27.71 77.306,42.668 	"/>
	<polygon fill="#F29D00" points="76.07,39.524 91.706,45.74 78.505,56.174 	"/>
	<polygon fill="#F29D00" points="79.159,52.437 90.17,65.159 73.646,68.334 	"/>
	<polygon fill="#F29D00" points="22.909,59.753 8.294,51.418 22.821,42.929 	"/>
	<polygon fill="#F29D00" points="30.718,71.337 13.892,71.383 22.265,56.788 	"/>
	<polygon fill="#F29D00" points="22.32,44.003 14.786,28.958 31.582,29.956 	"/>
	<polygon fill="#F29D00" points="28.67,31.318 28.302,14.496 43.054,22.589 	"/>
	<polygon fill="#F29D00" points="54.567,77.649 46.061,90.77 38.951,76.844 	"/>
	<polygon fill="#F29D00" points="41.462,76.56 28.279,84.971 27.587,69.349 	"/>
	<polygon fill="#F29D00" points="66.606,73.264 64.711,88.785 52.217,79.383 	"/>
	<polygon fill="#F29D00" points="74.971,65.147 79.319,80.167 64.138,76.422 	"/>
	<path fill="#F1C600" d="M79.015,50.325c0,15.858-12.856,28.712-28.714,28.712c-15.859,0-28.714-12.854-28.714-28.712
		c0-10.925,6.101-20.426,15.082-25.278c4.055-2.192,8.698-3.436,13.631-3.436C66.159,21.611,79.015,34.467,79.015,50.325z"/>
	<path fill="#EDAD00" d="M51.12,21.611c-4.933,0-9.576,1.244-13.631,3.436C28.508,29.899,22.407,39.4,22.407,50.325
		c0,15.858,12.854,28.712,28.713,28.712V21.611z"/>
</g>
</svg>
