<svg width="12" height="12" viewBox="0 0 12 12" fill="none" xmlns="http://www.w3.org/2000/svg">
<path fill-rule="evenodd" clip-rule="evenodd" d="M6.6665 1.33329C6.6665 0.965103 6.36803 0.666626 5.99984 0.666626C5.63165 0.666626 5.33317 0.965103 5.33317 1.33329V5.33329H1.33317C0.964981 5.33329 0.666504 5.63177 0.666504 5.99996C0.666504 6.36815 0.964981 6.66663 1.33317 6.66663H5.33317V10.6666C5.33317 11.0348 5.63165 11.3333 5.99984 11.3333C6.36803 11.3333 6.6665 11.0348 6.6665 10.6666V6.66663H10.6665C11.0347 6.66663 11.3332 6.36815 11.3332 5.99996C11.3332 5.63177 11.0347 5.33329 10.6665 5.33329H6.6665V1.33329Z" fill="#F1F2F9"/>
</svg>
