<svg width="16" height="16" viewBox="0 0 13.3333 14.6667" fill="none" xmlns="http://www.w3.org/2000/svg" xmlns:xlink="http://www.w3.org/1999/xlink">
	<desc>
			Created with Pixso.
	</desc>
	<defs/>
	<path id="Vector (Stroke)" d="M2.13336 0.266663C2.25922 0.0987854 2.45685 0 2.66669 0L10.6667 0C10.8765 0 11.0741 0.0987854 11.2 0.266663L13.2 2.93332C13.2866 3.04874 13.3333 3.18909 13.3333 3.33334L13.3333 12.6667C13.3333 13.1971 13.1226 13.7058 12.7476 14.0809C12.3725 14.456 11.8638 14.6667 11.3333 14.6667L2 14.6667C1.46954 14.6667 0.960876 14.456 0.585815 14.0809C0.210693 13.7058 0 13.1971 0 12.6667L0 3.33334C0 3.18909 0.046814 3.04874 0.133362 2.93332L2.13336 0.266663ZM3 1.33334L1.33331 3.55554L1.33331 12.6667C1.33331 12.8435 1.40356 13.013 1.52863 13.1381C1.65363 13.2631 1.82318 13.3333 2 13.3333L11.3333 13.3333C11.5101 13.3333 11.6797 13.2631 11.8047 13.1381C11.9297 13.013 12 12.8435 12 12.6667L12 3.55554L10.3333 1.33334L3 1.33334Z" fill="#313237" fill-opacity="1.000000" fill-rule="evenodd"/>
	<path id="Vector (Stroke)" d="M0 3.33334C0 2.96515 0.298462 2.66669 0.666687 2.66669L12.6667 2.66669C13.0349 2.66669 13.3333 2.96515 13.3333 3.33334C13.3333 3.70154 13.0349 4.00003 12.6667 4.00003L0.666687 4.00003C0.298462 4.00003 0 3.70154 0 3.33334Z" fill="#313237" fill-opacity="1.000000" fill-rule="evenodd"/>
	<path id="Vector (Stroke)" d="M3.99994 5.33334C4.3681 5.33334 4.66656 5.63181 4.66656 6C4.66656 6.53046 4.87732 7.03915 5.25238 7.41422C5.62744 7.78931 6.13617 8 6.66656 8C7.19702 8 7.70575 7.78931 8.08081 7.41422C8.45587 7.03915 8.66656 6.53046 8.66656 6C8.66656 5.63181 8.96509 5.33334 9.33325 5.33334C9.70142 5.33334 9.99994 5.63181 9.99994 6C9.99994 6.88406 9.64874 7.7319 9.02362 8.35703C8.3985 8.98215 7.55066 9.33334 6.66656 9.33334C5.78253 9.33334 4.93469 8.98215 4.30957 8.35703C3.68445 7.7319 3.33325 6.88406 3.33325 6C3.33325 5.63181 3.63171 5.33334 3.99994 5.33334Z" fill="#313237" fill-opacity="1.000000" fill-rule="evenodd"/>
</svg>
