<svg width="16" height="16" viewBox="0 0 15.3354 13.5546" fill="none" xmlns="http://www.w3.org/2000/svg" xmlns:xlink="http://www.w3.org/1999/xlink">
	<desc>
			Created with Pixso.
	</desc>
	<defs/>
	<path id="Vector (Stroke)" d="M9.29602 0.332581C9.82593 0.113007 10.3939 0 10.9675 0C11.5411 0 12.1091 0.113007 12.639 0.332581C13.1689 0.552155 13.6505 0.873993 14.056 1.27969C14.4615 1.68515 14.7833 2.16653 15.0028 2.69635C15.2224 3.22629 15.3354 3.79428 15.3354 4.36789C15.3354 4.9415 15.2224 5.50949 15.0028 6.0394C14.7833 6.56927 14.4615 7.05072 14.0558 7.45618L8.16248 13.3495C7.88916 13.6229 7.44592 13.6229 7.17255 13.3495L1.27924 7.45618C0.460144 6.63712 0 5.52621 0 4.36789C0 3.20953 0.460144 2.09863 1.27924 1.27957C2.09827 0.46051 3.20917 0.000366211 4.36755 0.000366211C5.52588 0.000366211 6.63678 0.46051 7.45581 1.27957L7.66754 1.49127L7.87909 1.27969C8.28461 0.874054 8.76611 0.552155 9.29602 0.332581ZM13.0658 2.26941C12.7903 1.99377 12.4631 1.77515 12.1031 1.62595C11.7431 1.47678 11.3572 1.39999 10.9675 1.39999C10.5778 1.39999 10.192 1.47678 9.83191 1.62595C9.47186 1.77515 9.14478 1.99377 8.86926 2.26941L8.16248 2.9762C7.88916 3.24957 7.44592 3.24957 7.17255 2.9762L6.46588 2.26953C5.90936 1.71301 5.15454 1.40036 4.36755 1.40036C3.58051 1.40036 2.82568 1.71301 2.26917 2.26953C1.71265 2.82605 1.40002 3.58084 1.40002 4.36789C1.40002 5.15491 1.71265 5.90973 2.26917 6.46625L7.66754 11.8646L13.0659 6.46625C13.3415 6.19073 13.5603 5.86353 13.7095 5.50351C13.8586 5.14346 13.9354 4.7576 13.9354 4.36789C13.9354 3.97818 13.8586 3.59229 13.7095 3.23227C13.5603 2.87225 13.3414 2.54492 13.0658 2.26941Z" fill="#89939a" fill-opacity="1.000000" fill-rule="evenodd"/>
</svg>
