<svg width="16.000000" height="16.000000" viewBox="0 0 16 16" fill="none" xmlns="http://www.w3.org/2000/svg" xmlns:xlink="http://www.w3.org/1999/xlink">
	<desc>
			Created with Pixso.
	</desc>
	<defs/>
	<rect id="Icons/Menu" width="16.000000" height="16.000000" fill="#FFFFFF" fill-opacity="0"/>
	<path id="Union" d="M1 4.5C1 4.08 1.39 3.75 1.87 3.75L14.12 3.75C14.6 3.75 15 4.08 15 4.5C15 4.91 14.6 5.25 14.12 5.25L1.87 5.25C1.39 5.25 1 4.91 1 4.5ZM1 8C1 7.58 1.39 7.25 1.87 7.25L14.12 7.25C14.6 7.25 15 7.58 15 8C15 8.41 14.6 8.75 14.12 8.75L1.87 8.75C1.39 8.75 1 8.41 1 8ZM1 11.5C1 11.08 1.39 10.75 1.87 10.75L14.12 10.75C14.6 10.75 15 11.08 15 11.5C15 11.91 14.6 12.25 14.12 12.25L1.87 12.25C1.39 12.25 1 11.91 1 11.5Z" fill="#B4BDC4" fill-opacity="1.000000" fill-rule="evenodd"/>
</svg>
