<svg width="13.333496" height="13.333344" viewBox="0 0 13.3335 13.3333" fill="none" xmlns="http://www.w3.org/2000/svg" xmlns:xlink="http://www.w3.org/1999/xlink">
	<desc>
			Created with Pixso.
	</desc>
	<defs/>
	<path id="Vector (Stroke)" d="M6 1.33333C3.42261 1.33333 1.33325 3.42267 1.33325 6C1.33325 8.57733 3.42261 10.6667 6 10.6667C8.57739 10.6667 10.6667 8.57733 10.6667 6C10.6667 3.42267 8.57739 1.33333 6 1.33333ZM0 6C0 2.68629 2.68628 0 6 0C9.31372 0 12 2.68629 12 6C12 9.31371 9.31372 12 6 12C2.68628 12 0 9.31371 0 6Z" fill="#333333" fill-opacity="1.000000" fill-rule="evenodd"/>
	<path id="Vector (Stroke)" d="M9.29541 9.29527C9.55566 9.03491 9.97778 9.03491 10.2383 9.29527L13.1382 12.1953C13.3984 12.4556 13.3984 12.8777 13.1382 13.1381C12.8779 13.3984 12.4558 13.3984 12.1953 13.1381L9.29541 10.2381C9.03491 9.97772 9.03491 9.55562 9.29541 9.29527Z" fill="#333333" fill-opacity="1.000000" fill-rule="evenodd"/>
</svg>
