<?xml version="1.0" encoding="UTF-8"?>
<svg xmlns="http://www.w3.org/2000/svg" xmlns:xlink="http://www.w3.org/1999/xlink" width="25px" height="25px" viewBox="0 0 25 25" version="1.1">
<g id="surface1">
<path style=" stroke:none;fill-rule:nonzero;fill:rgb(0%,0%,0%);fill-opacity:1;" d="M 3.125 7.8125 L 21.875 7.8125 C 22.738281 7.8125 23.4375 7.113281 23.4375 6.25 C 23.4375 5.386719 22.738281 4.6875 21.875 4.6875 L 3.125 4.6875 C 2.261719 4.6875 1.5625 5.386719 1.5625 6.25 C 1.5625 7.113281 2.261719 7.8125 3.125 7.8125 Z M 21.875 10.9375 L 3.125 10.9375 C 2.261719 10.9375 1.5625 11.636719 1.5625 12.5 C 1.5625 13.363281 2.261719 14.0625 3.125 14.0625 L 21.875 14.0625 C 22.738281 14.0625 23.4375 13.363281 23.4375 12.5 C 23.4375 11.636719 22.738281 10.9375 21.875 10.9375 Z M 21.875 17.1875 L 3.125 17.1875 C 2.261719 17.1875 1.5625 17.886719 1.5625 18.75 C 1.5625 19.613281 2.261719 20.3125 3.125 20.3125 L 21.875 20.3125 C 22.738281 20.3125 23.4375 19.613281 23.4375 18.75 C 23.4375 17.886719 22.738281 17.1875 21.875 17.1875 Z M 21.875 17.1875 "/>
</g>
</svg>
