<?xml version="1.0" standalone="no"?>
<!DOCTYPE svg PUBLIC "-//W3C//DTD SVG 20010904//EN"
 "http://www.w3.org/TR/2001/REC-SVG-20010904/DTD/svg10.dtd">
<svg version="1.0" xmlns="http://www.w3.org/2000/svg"
 width="770.000000pt" height="770.000000pt" viewBox="0 0 770.000000 770.000000"
 preserveAspectRatio="xMidYMid meet">
<metadata>
Created by potrace 1.14, written by Peter Selinger 2001-2017
</metadata>
<g transform="translate(0.000000,770.000000) scale(0.100000,-0.100000)"
fill="#000000" stroke="none">
<path d="M3599 7696 c-2 -2 -43 -7 -90 -10 -47 -4 -94 -8 -105 -10 -10 -2 -44
-7 -74 -10 -30 -4 -68 -9 -85 -11 -116 -20 -211 -39 -280 -57 -44 -11 -89 -22
-99 -24 -88 -17 -360 -110 -514 -175 -124 -53 -330 -155 -433 -216 -44 -27
-88 -52 -98 -58 -109 -63 -342 -235 -482 -355 -65 -55 -358 -345 -394 -390
-11 -14 -50 -61 -86 -105 -305 -372 -547 -825 -693 -1300 -26 -82 -78 -289
-92 -360 -4 -22 -8 -44 -9 -50 -3 -10 -33 -206 -40 -260 -27 -195 -27 -739 0
-907 2 -13 6 -45 10 -73 5 -47 30 -196 39 -240 164 -781 538 -1462 1101 -2005
94 -91 125 -119 171 -157 21 -17 53 -44 71 -60 123 -111 459 -330 675 -441
266 -136 678 -288 888 -326 14 -2 45 -9 70 -15 46 -10 67 -14 130 -25 68 -12
95 -16 140 -22 25 -3 56 -7 70 -10 160 -26 756 -26 920 0 14 3 48 7 75 11 58
7 109 15 139 21 11 2 37 7 56 10 71 11 319 75 440 113 220 69 529 203 705 306
33 19 69 39 80 45 11 5 29 16 40 22 58 37 191 124 200 130 6 5 60 45 120 90
251 187 494 421 690 668 33 41 62 77 65 80 18 16 192 273 235 348 111 190 199
367 273 552 53 133 127 354 137 409 3 19 10 41 14 50 5 9 11 32 15 51 6 33 11
56 20 98 13 56 35 173 40 212 3 25 8 59 11 75 25 155 29 233 29 525 1 327 -3
386 -46 650 -44 277 -141 609 -256 875 -61 142 -169 358 -203 407 -11 14 -19
29 -19 33 0 9 -121 194 -193 295 -68 95 -190 247 -260 324 -494 542 -1097 921
-1780 1121 -67 19 -131 37 -142 39 -11 3 -58 13 -105 25 -113 26 -270 53 -390
66 -30 3 -71 8 -90 11 -38 6 -606 15 -611 10z"/>
</g>
</svg>
