<svg width="49" height="48" viewBox="0 0 49 48" fill="none" xmlns="http://www.w3.org/2000/svg">
<g filter="url(#filter0_d_104814_4880)">
<mask id="path-1-inside-1_104814_4880" fill="white">
<path d="M1 0H49V48H1V0Z"/>
</mask>
<path d="M1 0H49V48H1V0Z" fill="white"/>
<path d="M49 47H1V49H49V47Z" fill="#E2E6E9" mask="url(#path-1-inside-1_104814_4880)"/>
<path fill-rule="evenodd" clip-rule="evenodd" d="M29.4714 20.4714C29.7318 20.211 29.7318 19.7889 29.4714 19.5286C29.2111 19.2682 28.789 19.2682 28.5286 19.5286L25 23.0572L21.4714 19.5286C21.2111 19.2682 20.789 19.2682 20.5286 19.5286C20.2683 19.7889 20.2683 20.211 20.5286 20.4714L24.0572 24L20.5286 27.5286C20.2683 27.7889 20.2683 28.211 20.5286 28.4714C20.789 28.7317 21.2111 28.7317 21.4714 28.4714L25 24.9428L28.5286 28.4714C28.789 28.7317 29.2111 28.7317 29.4714 28.4714C29.7318 28.211 29.7318 27.7889 29.4714 27.5286L25.9428 24L29.4714 20.4714Z" fill="#313237"/>
</g>
<defs>
<filter id="filter0_d_104814_4880" x="0" y="0" width="49" height="48" filterUnits="userSpaceOnUse" color-interpolation-filters="sRGB">
<feFlood flood-opacity="0" result="BackgroundImageFix"/>
<feColorMatrix in="SourceAlpha" type="matrix" values="0 0 0 0 0 0 0 0 0 0 0 0 0 0 0 0 0 0 127 0" result="hardAlpha"/>
<feOffset dx="-1"/>
<feColorMatrix type="matrix" values="0 0 0 0 0.886275 0 0 0 0 0.901961 0 0 0 0 0.913725 0 0 0 1 0"/>
<feBlend mode="normal" in2="BackgroundImageFix" result="effect1_dropShadow_104814_4880"/>
<feBlend mode="normal" in="SourceGraphic" in2="effect1_dropShadow_104814_4880" result="shape"/>
</filter>
</defs>
</svg>
