<?xml version="1.0" encoding="utf-8"?>
<!-- Generator: Adobe Illustrator 25.2.3, SVG Export Plug-In . SVG Version: 6.00 Build 0)  -->
<svg version="1.1" id="Layer_1" xmlns="http://www.w3.org/2000/svg" xmlns:xlink="http://www.w3.org/1999/xlink" x="0px" y="0px"
	 viewBox="0 0 600 590" style="enable-background:new 0 0 600 590;" xml:space="preserve">
<style type="text/css">
	.st0{fill:#F7C689;}
	.st1{fill:none;stroke:#F27932;stroke-width:3;stroke-linecap:round;stroke-linejoin:round;stroke-miterlimit:10;}
	.st2{fill:none;stroke:#EF749B;stroke-width:3;stroke-linecap:round;stroke-linejoin:round;stroke-miterlimit:10;}
	.st3{fill:#F27932;}
	.st4{fill:#F2B3CA;enable-background:new    ;}
	.st5{fill:#FFFFFF;stroke:#F27932;stroke-width:1.9037;stroke-miterlimit:10;}
	.st6{fill:#EF749B;}
	.st7{fill:none;stroke:#FBD7AD;stroke-width:2;stroke-miterlimit:10;stroke-dasharray:4;}
</style>
<polygon class="st0" points="46.9,457.4 87.6,229 268.4,229 307.3,457.4 "/>
<path class="st1" d="M135.8,229.8c-0.5-22.8,17.7-41.7,40.5-42.1c22.8-0.5,41.7,17.7,42.1,40.5c0,0.5,0,1.1,0,1.5"/>
<path class="st2" d="M305.9,178c-0.6-28.2,21.9-51.6,50.1-52.2c28.2-0.6,51.6,21.9,52.2,50.1c0,0.6,0,1.3,0,1.9"/>
<polygon class="st3" points="218.8,332 135.8,457 197.9,457 "/>
<polygon class="st4" points="195.9,460.4 246.3,177.7 470,177.7 518.2,460.4 "/>
<polygon class="st5" points="560.6,553.1 418.2,553.1 351.2,484.6 351.2,343.7 560.6,343.7 "/>
<polyline class="st6" points="351.2,343.7 315.8,460.2 351.2,460.2 "/>
<path class="st0" d="M468.5,408.1l4.9,13.3c1.1,3.2,4.2,5.5,7.8,5.7l14.3,0.8c4.8,0.2,8.6,4.4,8.4,9.1c-0.2,2.5-1.3,4.8-3.2,6.5
	l-11.2,8.9c-2.7,2.1-3.8,5.7-3,9.1l3.8,13.7c1.3,4.6-1.5,9.5-6.1,10.7c-2.5,0.6-4.9,0.2-7-1.1l-12-7.8c-2.9-1.9-6.7-1.9-9.5,0
	l-12,7.8c-4,2.7-9.5,1.5-12.2-2.5c-1.3-2.1-1.7-4.8-1.1-7l3.8-13.7c1-3.4-0.2-7-3-9.1l-11.2-8.9c-3.8-3-4.4-8.6-1.3-12.4
	c1.5-1.9,4-3.2,6.5-3.2l14.3-0.8c3.4-0.2,6.5-2.5,7.8-5.7l4.9-13.3c1.9-4.4,6.9-6.7,11.4-4.8C465.8,404.3,467.7,406,468.5,408.1z"/>
<path class="st7" d="M364.1,74.8c0.5,15-12.2,27.9-26.5,31.8c-14.4,3.9-29.8,0.3-43.6-5.4c-13.7-5.7-26.7-13.5-40.6-18.7
	c-13.9-5.2-29.8-7.5-43.7-2.1c-14.6,5.7-25.1,19.6-29.5,34.7c-4.4,15.1-3.3,31.3-0.3,46.6"/>
<path class="st0" d="M390.1,57c2.7-0.6,5.2-1.7,7.6-3.3c-2.4-1.4-4.9-2.5-7.6-3.3c-2.7-0.8-4.9-2.8-5.7-5.7
	c-0.6-2.7-1.7-5.2-3.3-7.6c-1.4,2.4-2.5,4.9-3.3,7.6c-0.8,2.7-2.8,4.9-5.7,5.7c-2.7,0.6-5.4,1.7-7.7,3.3c2.4,1.4,4.9,2.5,7.7,3.3
	c2.7,0.8,4.9,2.8,5.7,5.7c0.6,2.7,1.7,5.2,3.3,7.6c1.4-2.4,2.5-4.9,3.3-7.6C385.3,59.8,387.3,57.6,390.1,57z"/>
</svg>
