<svg width="10.666748" height="10.666672" viewBox="0 0 10.6667 10.6667" fill="none" xmlns="http://www.w3.org/2000/svg" xmlns:xlink="http://www.w3.org/1999/xlink">
	<desc>
			Created with Pixso.
	</desc>
	<defs/>
	<path id="Union" d="M6 0.666672C6 0.298477 5.70142 0 5.33325 0C4.96509 0 4.66675 0.298477 4.66675 0.666672L4.66675 4.66667L0.666748 4.66667C0.298584 4.66667 0 4.96515 0 5.33333C0 5.70152 0.298584 6 0.666748 6L4.66675 6L4.66675 10C4.66675 10.3682 4.96509 10.6667 5.33325 10.6667C5.70142 10.6667 6 10.3682 6 10L6 6L10 6C10.3682 6 10.6667 5.70152 10.6667 5.33333C10.6667 4.96515 10.3682 4.66667 10 4.66667L6 4.66667L6 0.666672Z" clip-rule="evenodd" fill="#0F0F11" fill-opacity="1.000000" fill-rule="evenodd"/>
</svg>
