<svg width="14" height="15" viewBox="0 0 14 15" fill="none" xmlns="http://www.w3.org/2000/svg">
<path fill-rule="evenodd" clip-rule="evenodd" d="M2.13333 0.266667C2.25924 0.0987961 2.45683 0 2.66667 0H10.6667C10.8765 0 11.0741 0.0987961 11.2 0.266667L13.2 2.93333C13.2865 3.04873 13.3333 3.18909 13.3333 3.33333V12.6667C13.3333 13.1971 13.1226 13.7058 12.7475 14.0809C12.3725 14.456 11.8638 14.6667 11.3333 14.6667H2C1.46957 14.6667 0.960859 14.456 0.585786 14.0809C0.210714 13.7058 0 13.1971 0 12.6667V3.33333C0 3.18909 0.0467852 3.04873 0.133333 2.93333L2.13333 0.266667ZM3 1.33333L1.33333 3.55556V12.6667C1.33333 12.8435 1.40357 13.013 1.5286 13.1381C1.65362 13.2631 1.82319 13.3333 2 13.3333H11.3333C11.5101 13.3333 11.6797 13.2631 11.8047 13.1381C11.9298 13.013 12 12.8435 12 12.6667V3.55555L10.3333 1.33333H3Z" fill="#F1F2F9"/>
<path fill-rule="evenodd" clip-rule="evenodd" d="M0 3.33335C0 2.96516 0.298477 2.66669 0.666667 2.66669H12.6667C13.0349 2.66669 13.3333 2.96516 13.3333 3.33335C13.3333 3.70154 13.0349 4.00002 12.6667 4.00002H0.666667C0.298477 4.00002 0 3.70154 0 3.33335Z" fill="#F1F2F9"/>
<path fill-rule="evenodd" clip-rule="evenodd" d="M3.99992 5.33334C4.36811 5.33334 4.66659 5.63182 4.66659 6.00001C4.66659 6.53044 4.8773 7.03915 5.25237 7.41422C5.62744 7.7893 6.13615 8.00001 6.66658 8.00001C7.19702 8.00001 7.70573 7.7893 8.0808 7.41422C8.45587 7.03915 8.66658 6.53044 8.66658 6.00001C8.66658 5.63182 8.96506 5.33334 9.33325 5.33334C9.70144 5.33334 9.99992 5.63182 9.99992 6.00001C9.99992 6.88407 9.64873 7.73191 9.02361 8.35703C8.39849 8.98215 7.55064 9.33334 6.66658 9.33334C5.78253 9.33334 4.93468 8.98215 4.30956 8.35703C3.68444 7.73191 3.33325 6.88407 3.33325 6.00001C3.33325 5.63182 3.63173 5.33334 3.99992 5.33334Z" fill="#F1F2F9"/>
</svg>
