<?xml version="1.0" encoding="iso-8859-1"?>
<!-- Uploaded to: SVG Repo, www.svgrepo.com, Generator: SVG Repo Mixer Tools -->
<svg height="800px" width="800px" version="1.1" id="Capa_1" xmlns="http://www.w3.org/2000/svg" xmlns:xlink="http://www.w3.org/1999/xlink"
	 viewBox="0 0 398.414 398.414" xml:space="preserve">
<g>
	<g>
		<path style="fill:#89939a;" d="M58.274,140.937C26.142,140.937,0,167.079,0,199.211c0,32.124,26.141,58.266,58.274,58.266
			s58.274-26.141,58.274-58.266C116.548,167.079,90.406,140.937,58.274,140.937z M58.274,233.099
			c-18.688,0-33.888-15.2-33.888-33.88c0-18.688,15.2-33.888,33.888-33.888s33.888,15.209,33.888,33.888
			C92.162,217.891,76.961,233.099,58.274,233.099z"/>
		<path style="fill:#89939a;" d="M197.85,140.937c-32.132,0-58.274,26.141-58.274,58.274c0,32.124,26.141,58.266,58.274,58.266
			s58.274-26.141,58.274-58.266C256.123,167.079,229.982,140.937,197.85,140.937z M197.85,233.099
			c-18.688,0-33.888-15.2-33.888-33.88c0-18.688,15.2-33.888,33.888-33.888s33.888,15.209,33.888,33.888
			C231.738,217.891,216.537,233.099,197.85,233.099z"/>
		<path style="fill:#89939a;" d="M340.14,140.937c-32.132,0-58.274,26.141-58.274,58.274c0,32.124,26.142,58.266,58.274,58.266
			s58.274-26.141,58.274-58.266C398.414,167.079,372.272,140.937,340.14,140.937z M340.14,233.099
			c-18.688,0-33.888-15.2-33.888-33.88c0-18.688,15.2-33.888,33.888-33.888s33.888,15.209,33.888,33.888
			C374.028,217.891,358.828,233.099,340.14,233.099z"/>
	</g>
</g>
</svg>
