<svg xmlns="http://www.w3.org/2000/svg" width="512" height="512" viewBox="0 0 512 512">
<g>
<path d="M 433.80 512.00 L 86.50 512.00 C134.07,512.00 173.00,511.83 173.00,511.62 C173.00,511.41 170.41,510.19 167.25,508.91 C158.64,505.42 147.49,497.45 154.12,499.53 C155.43,499.94 156.73,500.55 157.00,500.89 C158.49,502.73 163.88,504.50 168.00,504.50 C172.03,504.50 172.47,504.69 171.10,505.82 C169.72,506.96 169.96,507.07 172.80,506.59 C174.61,506.28 175.86,506.42 175.56,506.90 C174.59,508.47 181.40,510.46 186.75,510.17 C189.95,510.00 192.00,510.30 192.00,510.94 C192.00,511.68 213.83,512.00 263.20,512.00 C303.26,512.00 333.98,511.62 333.45,511.14 C332.93,510.66 330.27,509.73 327.55,509.07 C321.47,507.60 310.03,502.79 310.01,501.70 C309.99,500.55 316.81,501.93 321.88,504.12 C324.29,505.15 329.24,506.48 332.88,507.06 C336.52,507.63 339.65,508.53 339.83,509.05 C340.02,509.57 340.80,510.00 341.58,510.00 C342.36,510.00 343.00,510.45 343.00,511.00 C343.00,511.55 344.54,512.00 346.43,512.00 C348.91,512.00 350.03,511.48 350.46,510.13 C350.87,508.84 352.69,507.90 356.28,507.12 C359.15,506.49 362.56,505.74 363.86,505.45 C365.16,505.16 366.88,504.26 367.68,503.46 C368.49,502.66 369.80,502.00 370.61,502.00 C371.41,502.00 373.14,501.30 374.44,500.45 C376.00,499.42 377.04,499.25 377.46,499.93 C378.37,501.41 370.15,506.37 363.29,508.48 C360.11,509.46 357.07,510.65 356.55,511.13 C356.01,511.62 389.30,512.00 433.80,512.00 ZM 141.75 487.69 C146.29,492.20 149.59,496.14 149.08,496.45 C145.26,498.81 115.64,461.55 100.25,435.00 C91.87,420.56 84.11,404.29 78.28,389.00 C71.99,372.48 65.59,351.08 66.63,350.04 C67.55,349.12 68.97,352.53 68.98,355.69 C68.99,357.45 69.40,359.13 69.88,359.43 C70.37,359.73 71.00,361.22 71.27,362.74 C71.55,364.26 72.66,367.80 73.75,370.61 C74.84,373.42 76.03,377.36 76.41,379.36 C76.78,381.36 77.45,383.00 77.88,383.00 C79.11,383.00 80.77,387.25 81.54,392.39 C82.01,395.54 83.00,397.64 84.62,398.91 C85.93,399.94 87.00,401.33 87.00,401.99 C87.00,403.21 88.87,407.88 91.70,413.68 C92.55,415.44 93.08,417.02 92.87,417.21 C92.67,417.39 93.47,418.59 94.65,419.86 C95.84,421.13 97.09,423.69 97.44,425.54 C97.79,427.40 99.07,429.73 100.29,430.73 C103.00,432.95 106.00,438.16 106.00,440.66 C106.00,441.67 108.03,444.68 110.50,447.34 C112.97,449.99 115.00,453.02 115.00,454.06 C115.00,455.11 117.73,458.97 121.06,462.65 C126.41,468.55 130.52,474.48 129.79,475.24 C129.41,475.63 132.43,479.75 133.00,479.62 C133.28,479.55 137.21,483.19 141.75,487.69 ZM 219.50 503.04 C207.42,508.10 201.00,510.13 201.00,508.88 C201.00,508.37 202.18,507.50 203.62,506.96 C205.06,506.41 207.37,505.07 208.75,503.98 C210.14,502.89 212.67,501.97 214.38,501.93 C216.10,501.89 218.85,501.00 220.50,499.96 C226.61,496.10 228.61,495.27 233.31,494.65 C235.96,494.31 238.80,493.34 239.63,492.51 C240.46,491.68 242.42,491.00 243.99,491.00 C245.55,491.00 246.98,490.60 247.17,490.10 C247.59,488.95 274.55,488.42 278.40,489.49 C280.48,490.07 281.10,489.97 280.59,489.14 C280.12,488.38 280.82,488.03 282.69,488.08 C284.24,488.12 284.91,488.39 284.20,488.68 C283.39,489.00 284.13,489.83 286.14,490.85 C291.77,493.72 290.85,495.02 284.31,493.46 C276.48,491.59 256.93,491.62 247.82,493.52 C239.13,495.33 232.95,497.41 219.50,503.04 ZM 252.97 84.32 C252.95,85.52 252.28,87.37 251.47,88.44 C249.39,91.19 249.63,89.38 252.57,80.40 C257.58,65.05 271.24,41.79 274.18,43.61 C274.89,44.05 275.03,43.86 274.57,43.11 C273.53,41.43 275.82,38.99 277.74,39.73 C278.84,40.15 279.09,39.96 278.55,39.09 C276.71,36.10 300.07,17.69 303.23,19.64 C303.86,20.03 304.02,19.84 303.62,19.19 C302.15,16.82 336.53,2.20 338.63,4.30 C339.46,5.12 333.67,8.25 331.33,8.25 C330.03,8.25 328.72,8.64 328.42,9.12 C328.13,9.61 326.74,10.00 325.33,10.00 C323.85,10.00 322.01,10.98 320.94,12.35 C319.66,13.98 317.17,15.12 312.90,16.02 C308.39,16.98 306.04,18.10 304.19,20.17 C302.81,21.72 301.25,23.00 300.73,23.00 C300.21,23.00 296.28,25.67 292.00,28.94 C287.72,32.21 283.87,34.57 283.45,34.19 C283.02,33.81 282.96,33.99 283.30,34.59 C284.09,35.97 277.66,42.30 276.52,41.27 C276.06,40.85 275.97,41.02 276.33,41.65 C276.70,42.29 274.57,45.21 271.49,48.29 C268.28,51.51 266.00,54.66 266.00,55.91 C266.00,58.33 261.71,65.60 259.93,66.19 C259.28,66.41 258.75,67.80 258.75,69.29 C258.75,70.78 258.42,72.00 258.01,72.00 C257.60,72.00 257.01,73.58 256.69,75.51 C256.38,77.44 255.42,79.72 254.56,80.58 C253.70,81.44 252.99,83.12 252.97,84.32 ZM 397.27 483.01 C388.93,492.39 383.31,497.32 382.48,495.97 C381.75,494.78 393.87,481.30 397.75,479.00 C398.99,478.26 400.00,477.13 400.00,476.49 C400.00,475.84 400.87,474.52 401.94,473.56 C403.00,472.60 404.79,469.84 405.92,467.44 C407.05,465.04 409.28,462.11 410.89,460.92 C412.75,459.55 414.26,457.15 415.05,454.31 C415.88,451.37 417.44,448.93 419.64,447.18 C421.66,445.57 423.66,442.61 424.73,439.64 C426.28,435.32 432.22,428.00 434.17,428.00 C436.44,428.00 406.50,472.92 403.08,474.64 C401.84,475.26 401.32,475.94 401.93,476.14 C402.55,476.35 400.45,479.44 397.27,483.01 ZM 270.85 152.15 C265.43,155.93 245.02,153.83 237.65,148.72 C235.53,147.25 232.16,145.78 230.15,145.45 C226.78,144.89 220.17,142.23 219.00,140.96 C218.73,140.66 216.48,139.82 214.00,139.09 C211.52,138.36 208.38,137.41 207.00,136.96 C205.62,136.52 202.61,135.95 200.31,135.68 C198.01,135.42 194.66,134.48 192.88,133.59 C191.10,132.70 188.72,132.26 187.57,132.60 C185.91,133.10 185.74,132.97 186.72,131.95 C189.25,129.28 203.61,133.20 233.57,144.75 C249.79,150.99 256.45,152.46 263.88,151.40 C266.97,150.96 269.95,150.57 270.50,150.55 C271.05,150.52 271.73,150.27 272.00,150.00 C273.14,148.86 279.00,147.24 279.00,148.07 C279.00,148.56 277.76,149.26 276.25,149.63 C274.74,149.99 272.31,151.13 270.85,152.15 ZM 327.87 80.68 C321.45,87.20 316.00,91.70 316.00,90.47 C316.00,88.14 322.85,80.62 327.30,78.07 C329.06,77.06 330.40,75.76 330.27,75.17 C330.14,74.59 331.15,73.24 332.52,72.16 C333.88,71.09 335.00,69.70 335.00,69.08 C335.00,68.46 336.74,66.05 338.87,63.73 C342.96,59.25 346.00,54.08 346.00,51.60 C346.00,50.78 347.08,48.94 348.40,47.51 C349.91,45.89 351.18,42.80 351.82,39.21 C353.10,32.00 355.17,27.87 356.94,28.96 C357.99,29.61 357.91,30.79 356.50,35.13 C351.85,49.52 337.83,72.92 334.31,72.18 C333.37,71.99 333.07,72.31 333.52,73.03 C333.96,73.74 331.70,76.78 327.87,80.68 ZM 408.22 336.25 C409.27,337.76 409.77,338.99 409.32,338.97 C407.79,338.91 402.99,334.83 403.49,334.02 C403.76,333.57 403.36,332.97 402.58,332.67 C401.81,332.37 400.46,329.66 399.59,326.65 C398.71,323.63 397.53,321.01 396.97,320.82 C396.41,320.64 395.71,319.14 395.42,317.49 C395.12,315.85 394.46,314.07 393.94,313.55 C393.42,313.03 393.00,311.30 393.00,309.70 C393.00,308.11 392.37,305.61 391.59,304.15 C388.54,298.39 387.31,280.00 389.98,280.00 C390.38,280.00 390.98,283.49 391.31,287.75 C391.96,295.96 394.90,308.85 397.63,315.50 C400.08,321.45 406.03,333.11 408.22,336.25 ZM 277.71 109.44 C266.38,112.28 256.00,113.52 256.00,112.05 C256.00,111.47 257.77,111.00 259.94,111.00 C262.11,111.00 264.18,110.51 264.55,109.92 C264.92,109.32 266.27,109.10 267.55,109.42 C269.12,109.82 270.31,109.43 271.19,108.25 C271.91,107.29 273.17,106.41 274.00,106.29 C285.72,104.64 296.32,100.88 303.88,95.68 C309.02,92.14 313.57,90.24 314.55,91.21 C315.40,92.07 304.50,98.90 295.71,103.02 C290.87,105.28 282.77,108.17 277.71,109.44 ZM 109.29 158.66 C109.63,159.21 107.90,160.58 105.45,161.71 C103.00,162.84 101.00,163.46 101.00,163.09 C101.00,162.33 106.87,157.33 114.69,151.43 C125.83,143.03 146.31,134.43 161.87,131.61 C164.79,131.08 165.08,131.20 164.00,132.50 C163.32,133.33 161.94,134.00 160.94,134.00 C159.94,134.00 158.84,134.45 158.50,135.00 C158.16,135.55 156.22,136.00 154.19,136.01 C148.23,136.03 129.00,142.93 129.00,145.05 C129.00,145.48 125.96,147.50 122.25,149.55 C114.73,153.70 110.80,156.86 111.58,158.13 C111.87,158.60 111.33,158.68 110.39,158.32 C109.36,157.92 108.92,158.06 109.29,158.66 ZM 62.00 242.50 C62.00,243.88 61.55,245.00 61.00,245.00 C60.45,245.00 60.00,244.16 60.00,243.14 C60.00,240.08 63.82,225.67 67.12,216.28 C72.35,201.41 84.00,179.58 85.46,181.93 C85.85,182.57 85.35,184.26 84.34,185.69 C78.60,193.82 76.21,198.06 75.64,201.12 C75.39,202.43 74.02,205.98 72.60,209.00 C71.18,212.02 70.02,215.19 70.01,216.03 C70.00,216.87 69.30,218.56 68.44,219.78 C67.59,221.00 67.19,222.00 67.57,222.00 C67.94,222.00 67.72,222.63 67.08,223.40 C65.80,224.95 65.56,225.95 64.55,234.25 C64.17,237.41 63.44,240.00 62.93,240.00 C62.42,240.00 62.00,241.12 62.00,242.50 ZM 440.80 415.95 C436.02,426.07 433.97,429.03 434.02,425.75 C434.03,425.06 435.61,421.41 437.52,417.62 C439.44,413.84 441.22,409.57 441.48,408.14 C442.14,404.49 444.09,400.00 445.01,400.00 C446.10,400.00 447.02,397.33 448.03,391.23 C448.86,386.19 451.06,382.40 452.38,383.71 C452.72,384.05 453.00,383.58 453.00,382.67 C453.00,381.75 453.42,381.00 453.93,381.00 C455.69,381.00 449.37,397.81 440.80,415.95 ZM 443.00 370.47 C443.00,370.64 442.30,371.05 441.45,371.38 C440.59,371.71 440.15,371.57 440.46,371.07 C440.77,370.57 439.55,369.84 437.76,369.45 C435.93,369.05 431.44,366.10 427.54,362.74 C419.58,355.88 416.75,352.61 417.78,351.47 C418.18,351.04 418.00,350.97 417.38,351.32 C416.04,352.08 413.91,349.81 411.25,344.78 C410.17,342.73 408.99,341.26 408.63,341.52 C408.28,341.77 408.40,341.49 408.90,340.88 C410.12,339.42 412.29,340.81 411.60,342.60 C411.30,343.37 411.49,344.00 412.01,344.00 C412.53,344.00 416.64,347.84 421.15,352.54 C425.66,357.24 432.42,363.12 436.18,365.62 C439.93,368.11 443.00,370.30 443.00,370.47 ZM 408.00 145.48 C408.00,146.41 404.55,145.97 402.51,144.79 C401.42,144.15 399.66,142.83 398.61,141.85 C397.56,140.87 396.32,140.30 395.85,140.59 C395.39,140.88 393.77,140.47 392.25,139.69 C387.64,137.29 382.17,135.85 376.32,135.49 C373.26,135.30 370.27,134.67 369.68,134.08 C369.08,133.48 368.02,133.00 367.30,133.00 C366.58,133.00 366.00,132.49 366.00,131.86 C366.00,130.30 373.46,131.41 383.51,134.48 C391.13,136.80 408.00,144.38 408.00,145.48 ZM 59.34 299.28 C59.80,299.43 60.02,300.90 59.84,302.53 C59.57,304.89 59.29,305.19 58.50,304.00 C57.22,302.09 56.58,272.18 57.57,261.00 C58.24,253.41 58.42,252.84 59.29,255.69 C59.82,257.45 59.91,259.70 59.48,260.69 C58.42,263.16 58.29,298.93 59.34,299.28 ZM 392.39 254.25 C391.08,262.03 390.19,265.00 389.16,265.00 C388.05,265.00 387.88,264.07 388.41,260.75 C388.77,258.41 389.34,253.69 389.67,250.25 C390.00,246.81 390.59,244.00 390.98,244.00 C391.36,244.00 392.28,242.19 393.01,239.97 C393.96,237.10 394.65,236.25 395.41,237.01 C396.11,237.71 396.14,238.33 395.49,238.79 C394.95,239.18 394.43,240.40 394.35,241.50 C394.26,242.60 393.38,248.34 392.39,254.25 ZM 359.79 15.70 C359.53,21.41 358.84,26.56 358.25,27.15 C356.66,28.74 356.35,24.91 357.31,15.53 C358.21,6.67 357.38,3.49 353.76,2.03 C351.70,1.21 351.78,1.12 354.71,1.06 C359.50,0.97 360.33,3.39 359.79,15.70 ZM 304.45 138.92 C303.42,139.92 296.00,141.53 296.00,140.75 C296.00,139.42 325.60,130.26 326.61,131.28 C327.42,132.09 318.16,136.00 315.43,136.00 C314.16,136.00 312.84,136.45 312.50,137.00 C312.16,137.55 310.42,138.00 308.64,138.00 C306.86,138.00 304.97,138.41 304.45,138.92 ZM 63.91 331.68 C65.15,338.94 65.99,345.69 65.77,346.68 C65.22,349.20 61.26,331.61 59.54,319.00 C58.99,314.99 59.07,314.72 60.28,316.50 C61.03,317.60 62.66,324.43 63.91,331.68 ZM 424.86 193.64 C418.44,200.12 417.86,200.52 416.64,199.31 C415.64,198.30 425.13,188.97 426.42,189.71 C427.01,190.04 427.17,189.95 426.76,189.50 C425.64,188.26 427.93,186.04 429.66,186.70 C430.78,187.13 429.55,188.91 424.86,193.64 ZM 309.00 501.19 C309.00,502.38 308.15,502.13 301.00,498.81 C293.95,495.54 293.44,495.22 294.11,494.56 C295.80,492.87 309.00,498.75 309.00,501.19 ZM 410.66 210.22 C408.20,213.64 405.75,216.58 405.20,216.77 C403.13,217.46 406.90,209.48 409.91,206.79 C415.07,202.18 415.39,203.62 410.66,210.22 ZM 254.00 112.07 C254.00,112.58 253.44,112.96 252.75,112.92 C249.30,112.70 249.00,111.82 249.09,102.17 C249.17,93.91 249.33,93.01 250.19,96.00 C250.75,97.93 250.97,101.84 250.68,104.71 C250.22,109.23 250.41,109.99 252.08,110.52 C253.13,110.86 254.00,111.55 254.00,112.07 ZM 94.25 173.70 C91.08,176.92 86.49,179.69 87.62,177.71 C89.24,174.86 95.21,168.00 96.07,168.00 C97.90,168.00 96.96,170.95 94.25,173.70 ZM 438.31 172.02 C440.77,175.50 440.90,176.00 439.31,176.00 C438.32,176.00 436.26,174.45 434.75,172.55 C431.52,168.51 431.41,167.99 433.75,168.02 C434.71,168.03 436.77,169.83 438.31,172.02 ZM 421.00 154.44 C421.00,154.63 420.40,155.02 419.66,155.30 C418.93,155.58 416.93,154.50 415.22,152.91 C413.51,151.31 411.54,150.00 410.85,150.00 C409.94,150.00 409.90,149.70 410.71,148.89 C411.52,148.08 413.05,148.62 416.41,150.94 C418.93,152.67 421.00,154.25 421.00,154.44 ZM 431.45 163.94 C433.54,166.13 433.81,166.86 432.68,167.29 C431.86,167.61 430.07,166.64 428.55,165.06 C426.46,162.87 426.19,162.14 427.32,161.71 C428.14,161.39 429.93,162.36 431.45,163.94 ZM 347.63 3.37 C343.91,5.13 340.00,5.53 340.00,4.13 C340.00,3.34 350.13,0.82 350.79,1.46 C350.94,1.61 349.52,2.47 347.63,3.37 ZM 291.35 143.81 C289.23,144.88 285.92,146.03 284.00,146.37 L 280.50 146.97 L 284.00 145.30 C292.57,141.20 299.12,139.87 291.35,143.81 ZM 350.50 130.00 C350.16,130.55 348.11,131.00 345.94,131.00 C343.77,131.00 342.00,130.55 342.00,130.00 C342.00,129.45 344.05,129.00 346.56,129.00 C349.34,129.00 350.88,129.39 350.50,130.00 ZM 61.00 249.50 C61.00,253.10 60.82,253.48 59.67,252.33 C58.61,251.28 58.89,246.00 60.00,246.00 C60.55,246.00 61.00,247.57 61.00,249.50 ZM 174.42 130.89 C173.08,132.34 167.00,133.19 167.00,131.93 C167.00,131.42 167.79,130.99 168.75,130.99 C169.71,130.98 171.62,130.69 173.00,130.35 C174.87,129.89 175.23,130.02 174.42,130.89 ZM 436.22 183.18 C435.56,183.84 434.13,184.44 433.03,184.52 C431.48,184.63 431.28,184.37 432.14,183.33 C432.75,182.60 434.18,182.00 435.32,182.00 C436.92,182.00 437.13,182.27 436.22,183.18 ZM 417.00 198.62 C417.00,199.45 417.82,198.92 419.13,197.25 C420.37,195.66 420.34,195.63 418.75,196.87 C417.79,197.63 417.00,198.41 417.00,198.62 Z" fill="rgb(206,209,211)"/>
<path d="M 141.75 487.69 C137.21,483.19 133.28,479.55 133.00,479.62 C132.43,479.75 129.41,475.63 129.79,475.24 C130.52,474.48 126.41,468.55 121.06,462.65 C117.73,458.97 115.00,455.11 115.00,454.06 C115.00,453.02 112.97,449.99 110.50,447.34 C108.03,444.68 106.00,441.67 106.00,440.66 C106.00,438.16 103.00,432.95 100.29,430.73 C99.07,429.73 97.79,427.40 97.44,425.54 C97.09,423.69 95.84,421.13 94.65,419.86 C93.47,418.59 92.67,417.39 92.87,417.21 C93.08,417.02 92.55,415.44 91.70,413.68 C88.87,407.88 87.00,403.21 87.00,401.99 C87.00,401.33 85.93,399.94 84.62,398.91 C83.00,397.64 82.01,395.54 81.54,392.39 C80.77,387.25 79.11,383.00 77.88,383.00 C77.45,383.00 76.78,381.36 76.41,379.36 C76.03,377.36 74.84,373.42 73.75,370.61 C72.66,367.80 71.55,364.26 71.27,362.74 C71.00,361.22 70.37,359.73 69.88,359.43 C69.40,359.13 68.99,357.45 68.98,355.69 C68.97,352.53 67.55,349.12 66.63,350.04 C65.75,350.92 70.21,366.43 75.42,381.19 C71.02,368.95 67.33,356.49 64.44,343.97 C65.10,346.31 65.60,347.47 65.77,346.68 C65.99,345.69 65.15,338.94 63.91,331.68 C62.66,324.43 61.03,317.60 60.28,316.50 C59.71,315.65 59.38,315.27 59.27,315.53 C59.00,313.56 58.76,311.58 58.54,309.61 C57.06,296.25 56.60,283.31 57.13,270.91 C56.90,284.27 57.51,302.52 58.50,304.00 C59.29,305.19 59.57,304.89 59.84,302.53 C60.02,300.90 59.80,299.43 59.34,299.28 C58.29,298.93 58.42,263.16 59.48,260.69 C59.91,259.70 59.82,257.45 59.29,255.69 C58.94,254.56 58.71,253.96 58.50,254.14 C58.67,252.80 58.84,251.46 59.03,250.13 C59.10,251.11 59.30,251.97 59.67,252.33 C60.82,253.48 61.00,253.10 61.00,249.50 C61.00,247.57 60.55,246.00 60.00,246.00 C59.86,246.00 59.74,246.08 59.63,246.23 C59.76,245.39 59.90,244.55 60.05,243.72 C60.18,244.46 60.56,245.00 61.00,245.00 C61.55,245.00 62.00,243.88 62.00,242.50 C62.00,241.12 62.42,240.00 62.93,240.00 C63.44,240.00 64.17,237.41 64.55,234.25 C65.56,225.95 65.80,224.95 67.08,223.40 C67.72,222.63 67.94,222.00 67.57,222.00 C67.19,222.00 67.59,221.00 68.44,219.78 C69.30,218.56 70.00,216.87 70.01,216.03 C70.02,215.19 71.18,212.02 72.60,209.00 C74.02,205.98 75.39,202.43 75.64,201.12 C76.21,198.06 78.60,193.82 84.34,185.69 C85.35,184.26 85.85,182.57 85.46,181.93 C85.18,181.49 84.55,181.90 83.68,182.95 C85.45,180.32 87.32,177.77 89.26,175.31 C88.57,176.23 87.99,177.07 87.62,177.71 C86.49,179.69 91.08,176.92 94.25,173.70 C96.96,170.95 97.90,168.00 96.07,168.00 C95.82,168.00 95.12,168.59 94.23,169.50 C96.69,166.83 99.37,164.18 102.20,161.63 C101.42,162.38 101.00,162.89 101.00,163.09 C101.00,163.46 103.00,162.84 105.45,161.71 C107.90,160.58 109.63,159.21 109.29,158.66 C108.92,158.06 109.36,157.92 110.39,158.32 C111.33,158.68 111.87,158.60 111.58,158.13 C110.80,156.86 114.73,153.70 122.25,149.55 C125.96,147.50 129.00,145.48 129.00,145.05 C129.00,142.93 148.23,136.03 154.19,136.01 C156.22,136.00 158.16,135.55 158.50,135.00 C158.84,134.45 159.94,134.00 160.94,134.00 C161.94,134.00 163.32,133.33 164.00,132.50 C164.63,131.74 164.79,131.38 164.23,131.33 C166.95,130.93 169.65,130.65 172.36,130.50 C171.08,130.77 169.57,130.98 168.75,130.99 C167.79,130.99 167.00,131.42 167.00,131.93 C167.00,133.19 173.08,132.34 174.42,130.89 C174.61,130.68 174.74,130.52 174.80,130.39 C179.63,130.25 184.47,130.51 189.36,131.15 C188.06,131.18 187.19,131.45 186.72,131.95 C185.74,132.97 185.91,133.10 187.57,132.60 C188.72,132.26 191.10,132.70 192.88,133.59 C194.66,134.48 198.01,135.42 200.31,135.68 C202.61,135.95 205.62,136.52 207.00,136.96 C208.38,137.41 211.52,138.36 214.00,139.09 C216.48,139.82 218.73,140.66 219.00,140.96 C220.17,142.23 226.78,144.89 230.15,145.45 C232.16,145.78 235.53,147.25 237.65,148.72 C245.02,153.83 265.43,155.93 270.85,152.15 C272.31,151.13 274.74,149.99 276.25,149.63 C277.76,149.26 279.00,148.56 279.00,148.07 C279.00,147.24 273.14,148.86 272.00,150.00 C271.73,150.27 271.05,150.52 270.50,150.55 C270.04,150.57 267.91,150.84 265.43,151.18 C270.88,150.07 278.99,147.46 284.45,144.99 C289.24,142.82 294.79,140.63 300.51,138.61 C297.79,139.62 296.00,140.42 296.00,140.75 C296.00,141.53 303.42,139.92 304.45,138.92 C304.97,138.41 306.86,138.00 308.64,138.00 C310.42,138.00 312.16,137.55 312.50,137.00 C312.84,136.45 314.16,136.00 315.43,136.00 C318.16,136.00 327.42,132.09 326.61,131.28 C326.52,131.18 326.17,131.18 325.62,131.24 C327.82,130.76 329.86,130.37 331.69,130.09 C335.80,129.47 340.20,129.14 344.75,129.08 C343.14,129.24 342.00,129.59 342.00,130.00 C342.00,130.55 343.77,131.00 345.94,131.00 C348.11,131.00 350.16,130.55 350.50,130.00 C350.76,129.58 350.10,129.26 348.74,129.10 C355.56,129.26 362.63,129.99 369.55,131.25 C367.30,131.02 366.00,131.21 366.00,131.86 C366.00,132.49 366.58,133.00 367.30,133.00 C368.02,133.00 369.08,133.48 369.68,134.08 C370.27,134.67 373.26,135.30 376.32,135.49 C382.17,135.85 387.64,137.29 392.25,139.69 C393.77,140.47 395.39,140.88 395.85,140.59 C396.32,140.30 397.56,140.87 398.61,141.85 C399.66,142.83 401.42,144.15 402.51,144.79 C404.43,145.90 407.59,146.35 407.96,145.64 C409.58,146.65 411.19,147.71 412.79,148.81 C411.78,148.41 411.14,148.46 410.71,148.89 C409.90,149.70 409.94,150.00 410.85,150.00 C411.54,150.00 413.51,151.31 415.22,152.91 C416.93,154.50 418.93,155.58 419.66,155.30 C420.12,155.12 420.52,154.91 420.76,154.73 C423.90,157.22 426.88,159.81 429.57,162.38 C428.65,161.79 427.81,161.52 427.32,161.71 C426.19,162.14 426.46,162.87 428.55,165.06 C430.07,166.64 431.86,167.61 432.68,167.29 C433.37,167.03 433.54,166.65 433.09,165.90 C434.57,167.47 435.92,169.01 437.10,170.50 C435.82,169.05 434.48,168.03 433.75,168.02 C431.41,167.99 431.52,168.51 434.75,172.55 C436.26,174.45 438.32,176.00 439.31,176.00 C440.43,176.00 440.70,175.75 439.90,174.39 L 442.39 178.19 L 437.95 181.81 C428.65,189.37 416.62,201.78 411.58,209.00 C404.63,218.97 396.90,232.42 396.51,235.24 C396.44,235.73 396.24,236.70 395.95,237.96 C395.93,237.67 395.75,237.35 395.41,237.01 C394.65,236.25 393.96,237.10 393.01,239.97 C392.28,242.19 391.36,244.00 390.98,244.00 C390.59,244.00 390.00,246.81 389.67,250.25 C389.34,253.69 388.77,258.41 388.41,260.75 C387.88,264.07 388.05,265.00 389.16,265.00 C389.92,265.00 390.61,263.37 391.44,259.37 C390.46,267.04 390.23,274.89 390.74,282.67 C390.47,281.04 390.20,280.00 389.98,280.00 C387.31,280.00 388.54,298.39 391.59,304.15 C392.37,305.61 393.00,308.11 393.00,309.70 C393.00,311.30 393.42,313.03 393.94,313.55 C394.46,314.07 395.12,315.85 395.42,317.49 C395.71,319.14 396.41,320.64 396.97,320.82 C397.53,321.01 398.71,323.63 399.59,326.65 C400.46,329.66 401.81,332.37 402.58,332.67 C403.36,332.97 403.76,333.57 403.49,334.02 C402.99,334.83 407.79,338.91 409.32,338.97 C409.77,338.99 409.27,337.76 408.22,336.25 C407.23,334.83 405.46,331.65 403.60,328.05 C407.89,336.08 413.12,343.66 418.93,350.26 C415.36,346.66 412.44,344.00 412.01,344.00 C411.49,344.00 411.30,343.37 411.60,342.60 C412.29,340.81 410.12,339.42 408.90,340.88 C408.40,341.49 408.28,341.77 408.63,341.52 C408.99,341.26 410.17,342.73 411.25,344.78 C413.91,349.81 416.04,352.08 417.38,351.32 C418.00,350.97 418.18,351.04 417.78,351.47 C416.75,352.61 419.58,355.88 427.54,362.74 C431.44,366.10 435.93,369.05 437.76,369.45 C439.55,369.84 440.77,370.57 440.46,371.07 C440.15,371.57 440.59,371.71 441.45,371.38 C442.23,371.08 442.88,370.72 442.98,370.52 C443.40,370.87 443.70,371.13 443.84,371.30 C444.44,372.03 447.19,373.68 449.94,374.97 C454.78,377.24 454.93,377.43 454.49,380.92 C454.40,381.64 454.19,382.59 453.87,383.73 C454.31,381.98 454.36,381.00 453.93,381.00 C453.42,381.00 453.00,381.75 453.00,382.67 C453.00,383.58 452.72,384.05 452.38,383.71 C451.06,382.40 448.86,386.19 448.03,391.23 C447.02,397.33 446.10,400.00 445.01,400.00 C444.09,400.00 442.14,404.49 441.48,408.14 C441.22,409.57 439.44,413.84 437.52,417.62 C435.61,421.41 434.03,425.06 434.02,425.75 C433.99,427.49 434.56,427.47 435.81,425.56 C435.32,426.45 434.81,427.37 434.28,428.31 C434.31,428.11 434.28,428.00 434.17,428.00 C432.22,428.00 426.28,435.32 424.73,439.64 C423.66,442.61 421.66,445.57 419.64,447.18 C417.44,448.93 415.88,451.37 415.05,454.31 C414.26,457.15 412.75,459.55 410.89,460.92 C409.28,462.11 407.05,465.04 405.92,467.44 C404.79,469.84 403.00,472.60 401.94,473.56 C400.87,474.52 400.00,475.84 400.00,476.49 C400.00,477.13 398.99,478.26 397.75,479.00 C393.87,481.30 381.75,494.78 382.48,495.97 C382.79,496.47 383.75,496.11 385.26,494.98 C382.12,497.72 378.98,500.14 375.91,502.19 C377.12,501.22 377.75,500.40 377.46,499.93 C377.04,499.25 376.00,499.42 374.44,500.45 C373.14,501.30 371.41,502.00 370.61,502.00 C369.80,502.00 368.49,502.66 367.68,503.46 C366.88,504.26 365.16,505.16 363.86,505.45 C362.56,505.74 359.15,506.49 356.28,507.12 C352.69,507.90 350.87,508.84 350.46,510.13 C350.03,511.48 348.91,512.00 346.43,512.00 C344.54,512.00 343.00,511.55 343.00,511.00 C343.00,510.45 342.36,510.00 341.58,510.00 C340.80,510.00 340.02,509.57 339.83,509.05 C339.65,508.53 336.52,507.63 332.88,507.06 C329.24,506.48 324.29,505.15 321.88,504.12 C316.81,501.93 309.99,500.55 310.01,501.70 C310.03,502.79 321.47,507.60 327.55,509.07 C330.27,509.73 332.92,510.66 333.45,511.13 C332.92,510.66 330.25,509.73 327.50,509.07 C324.75,508.41 320.02,506.80 317.00,505.50 C315.07,504.66 311.81,503.26 308.51,501.84 C308.90,501.83 309.00,501.59 309.00,501.19 C309.00,498.75 295.80,492.87 294.11,494.56 C293.53,495.14 293.84,495.45 298.66,497.72 C290.45,494.60 282.78,492.88 274.22,492.26 C278.28,492.48 281.86,492.87 284.31,493.46 C290.85,495.02 291.77,493.72 286.14,490.85 C284.13,489.83 283.39,489.00 284.20,488.68 C284.91,488.39 284.24,488.12 282.69,488.08 C280.82,488.03 280.12,488.38 280.59,489.14 C281.10,489.97 280.48,490.07 278.40,489.49 C274.55,488.42 247.59,488.95 247.17,490.10 C246.98,490.60 245.55,491.00 243.99,491.00 C242.42,491.00 240.46,491.68 239.63,492.51 C238.80,493.34 235.96,494.31 233.31,494.65 C228.61,495.27 226.61,496.10 220.50,499.96 C218.85,501.00 216.10,501.89 214.38,501.93 C212.67,501.97 210.14,502.89 208.75,503.98 C207.37,505.07 205.06,506.41 203.62,506.96 C202.18,507.50 201.00,508.37 201.00,508.88 C201.00,509.22 201.47,509.31 202.40,509.18 C199.61,509.88 197.04,510.76 196.55,511.18 C196.04,511.63 225.87,511.99 263.20,512.00 C213.83,512.00 192.00,511.68 192.00,510.94 C192.00,510.30 189.95,510.00 186.75,510.17 C181.40,510.46 174.59,508.47 175.56,506.90 C175.86,506.42 174.61,506.28 172.80,506.59 C169.96,507.07 169.72,506.96 171.10,505.82 C172.47,504.69 172.03,504.50 168.00,504.50 C163.88,504.50 158.49,502.73 157.00,500.89 C156.73,500.55 155.43,499.94 154.12,499.53 C147.49,497.45 158.64,505.42 167.25,508.91 C170.19,510.10 172.63,511.23 172.96,511.56 C172.63,511.23 170.19,510.10 167.25,508.92 C160.60,506.24 154.07,502.07 147.21,496.03 C148.06,496.53 148.70,496.68 149.08,496.45 C149.59,496.14 146.29,492.20 141.75,487.69 ZM 252.97 84.32 C252.99,83.12 253.70,81.44 254.56,80.58 C255.42,79.72 256.38,77.44 256.69,75.51 C257.01,73.58 257.60,72.00 258.01,72.00 C258.42,72.00 258.75,70.78 258.75,69.29 C258.75,67.80 259.28,66.41 259.93,66.19 C261.71,65.60 266.00,58.33 266.00,55.91 C266.00,54.66 268.28,51.51 271.49,48.29 C274.57,45.21 276.70,42.29 276.33,41.65 C275.97,41.02 276.06,40.85 276.52,41.27 C277.66,42.30 284.09,35.97 283.30,34.59 C282.96,33.99 283.02,33.81 283.45,34.19 C283.87,34.57 287.72,32.21 292.00,28.94 C296.28,25.67 300.21,23.00 300.73,23.00 C301.25,23.00 302.81,21.72 304.19,20.17 C306.04,18.10 308.39,16.98 312.90,16.02 C317.17,15.12 319.66,13.98 320.94,12.35 C322.01,10.98 323.85,10.00 325.33,10.00 C326.74,10.00 328.13,9.61 328.42,9.12 C328.72,8.64 330.03,8.25 331.33,8.25 C333.67,8.25 339.46,5.12 338.63,4.30 C338.37,4.03 337.59,4.03 336.44,4.24 C339.57,3.38 342.64,2.68 345.60,2.15 C342.83,2.81 340.00,3.71 340.00,4.13 C340.00,5.53 343.91,5.13 347.63,3.37 C349.52,2.47 350.94,1.61 350.79,1.46 C350.76,1.43 350.71,1.41 350.65,1.40 C350.90,1.37 351.15,1.34 351.40,1.31 C351.76,1.27 352.12,1.24 352.45,1.21 C352.10,1.33 352.58,1.56 353.76,2.03 C357.38,3.49 358.21,6.67 357.31,15.53 C356.35,24.91 356.66,28.74 358.25,27.15 C358.38,27.02 358.53,26.63 358.67,26.05 C358.38,27.57 358.04,29.10 357.64,30.63 C357.70,29.73 357.46,29.28 356.94,28.96 C355.17,27.87 353.10,32.00 351.82,39.21 C351.18,42.80 349.91,45.89 348.40,47.51 C347.08,48.94 346.00,50.78 346.00,51.60 C346.00,54.08 342.96,59.25 338.87,63.73 C336.74,66.05 335.00,68.46 335.00,69.08 C335.00,69.70 333.88,71.09 332.52,72.16 C331.15,73.24 330.14,74.59 330.27,75.17 C330.40,75.76 329.06,77.06 327.30,78.07 C322.85,80.62 316.00,88.14 316.00,90.47 C316.00,90.55 316.02,90.61 316.07,90.64 C315.39,91.15 314.70,91.65 314.01,92.15 C314.49,91.69 314.69,91.36 314.55,91.21 C313.57,90.24 309.02,92.14 303.88,95.68 C296.32,100.88 285.72,104.64 274.00,106.29 C273.17,106.41 271.91,107.29 271.19,108.25 C270.31,109.43 269.12,109.82 267.55,109.42 C266.27,109.10 264.92,109.32 264.55,109.92 C264.18,110.51 262.11,111.00 259.94,111.00 C257.77,111.00 256.00,111.47 256.00,112.05 C256.00,112.37 256.49,112.56 257.36,112.64 C255.95,112.72 254.68,112.75 253.60,112.72 C253.85,112.57 254.00,112.34 254.00,112.07 C254.00,111.55 253.13,110.86 252.08,110.52 C250.41,109.99 250.22,109.23 250.68,104.71 C250.97,101.84 250.75,97.93 250.19,96.00 C249.97,95.22 249.79,94.71 249.65,94.52 C249.82,92.84 250.03,91.19 250.26,89.62 C250.47,89.64 250.87,89.23 251.47,88.44 C252.28,87.37 252.95,85.52 252.97,84.32 ZM 424.86 193.64 C429.55,188.91 430.78,187.13 429.66,186.70 C427.93,186.04 425.64,188.26 426.76,189.50 C427.17,189.95 427.01,190.04 426.42,189.71 C425.13,188.97 415.64,198.30 416.64,199.31 C417.86,200.52 418.44,200.12 424.86,193.64 ZM 410.66 210.22 C415.39,203.62 415.07,202.18 409.91,206.79 C406.90,209.48 403.13,217.46 405.20,216.77 C405.75,216.58 408.20,213.64 410.66,210.22 ZM 291.35 143.81 C299.12,139.87 292.57,141.20 284.00,145.30 L 280.50 146.97 L 284.00 146.37 C285.92,146.03 289.23,144.88 291.35,143.81 ZM 436.22 183.18 C437.13,182.27 436.92,182.00 435.32,182.00 C434.18,182.00 432.75,182.60 432.14,183.33 C431.28,184.37 431.48,184.63 433.03,184.52 C434.13,184.44 435.56,183.84 436.22,183.18 ZM 398.99 481.00 C401.16,478.35 402.43,476.31 401.93,476.14 C401.32,475.94 401.84,475.26 403.08,474.64 C404.53,473.91 410.73,465.44 417.23,455.92 C411.59,464.44 406.00,472.35 401.74,477.67 C400.83,478.80 399.92,479.91 398.99,481.00 ZM 103.60 440.60 C111.70,453.71 122.35,468.44 131.36,479.50 C121.25,467.53 111.95,454.46 103.60,440.60 ZM 337.97 69.49 C335.33,72.80 332.47,75.99 329.44,79.03 C332.30,75.94 333.89,73.63 333.52,73.03 C333.07,72.31 333.37,71.99 334.31,72.18 C335.09,72.35 336.38,71.33 337.97,69.49 ZM 393.24 249.03 C393.84,245.28 394.29,242.27 394.35,241.50 C394.43,240.40 394.95,239.18 395.49,238.79 C395.65,238.68 395.77,238.55 395.85,238.42 C395.42,240.30 394.83,242.69 394.22,245.00 C393.87,246.33 393.54,247.68 393.24,249.03 ZM 276.03 39.81 C277.66,38.02 279.34,36.30 281.09,34.62 C279.17,36.69 278.10,38.35 278.55,39.09 C279.09,39.96 278.84,40.15 277.74,39.73 C277.17,39.51 276.57,39.57 276.03,39.81 ZM 251.13 84.92 C251.34,84.03 251.55,83.22 251.78,82.50 C255.01,72.41 259.31,63.13 264.64,54.74 C260.09,62.35 255.16,72.43 252.57,80.40 C251.98,82.18 251.51,83.68 251.13,84.92 ZM 298.86 20.84 C299.40,20.51 299.95,20.17 300.50,19.84 C307.23,15.80 314.33,12.27 321.41,9.38 C312.17,13.21 302.84,17.93 303.62,19.19 C304.02,19.84 303.86,20.03 303.23,19.64 C302.55,19.22 300.95,19.74 298.86,20.84 ZM 353.88 42.02 C352.45,45.57 350.76,49.21 348.80,52.97 C346.61,57.16 344.07,61.26 341.22,65.20 C345.42,59.13 350.43,50.08 353.88,42.02 ZM 224.29 141.23 C214.94,137.75 207.46,135.20 201.70,133.53 C207.14,134.87 210.79,136.09 224.29,141.23 ZM 417.00 198.62 C417.00,198.41 417.79,197.63 418.75,196.87 C420.34,195.63 420.37,195.66 419.13,197.25 C417.82,198.92 417.00,199.45 417.00,198.62 ZM 271.80 44.74 C272.64,43.69 273.51,42.67 274.38,41.66 C274.25,42.14 274.29,42.66 274.57,43.11 C275.03,43.86 274.89,44.05 274.18,43.61 C273.67,43.30 272.85,43.73 271.80,44.74 ZM 400.67 322.19 C399.47,319.70 398.39,317.33 397.63,315.50 C396.50,312.74 395.33,308.92 394.31,304.80 C395.86,310.64 398.02,316.50 400.67,322.19 ZM 77.74 192.58 C74.24,199.14 70.32,207.58 67.68,214.74 C70.49,206.93 73.85,199.53 77.74,192.58 ZM 359.79 15.70 C360.08,9.14 359.98,5.39 359.09,3.33 C359.84,4.98 360.00,7.74 360.00,12.13 C360.00,15.81 359.73,19.47 359.17,23.14 C359.44,21.09 359.66,18.46 359.79,15.70 ZM 399.76 140.96 C395.91,139.20 391.35,137.28 387.56,135.87 C391.43,137.19 395.11,138.68 398.50,140.33 C398.92,140.54 399.34,140.74 399.76,140.96 ZM 154.23 133.35 C147.69,135.10 140.74,137.59 134.23,140.46 C141.09,137.38 147.72,135.01 154.23,133.35 ZM 277.71 109.44 C281.38,108.52 286.64,106.75 291.10,104.98 C286.67,106.83 282.16,108.34 277.64,109.49 C276.25,109.84 274.79,110.17 273.29,110.48 C274.73,110.16 276.21,109.82 277.71,109.44 ZM 368.68 506.39 C365.84,507.78 363.12,508.79 360.56,509.38 C361.42,509.08 362.35,508.77 363.29,508.48 C365.05,507.94 366.91,507.21 368.68,506.39 ZM 219.50 503.04 C230.79,498.31 236.96,496.09 243.79,494.43 C236.90,496.13 229.34,498.91 218.94,503.28 C218.20,503.59 217.44,503.90 216.67,504.21 C217.58,503.84 218.52,503.45 219.50,503.04 ZM 254.24 151.24 C250.79,150.67 246.77,149.53 241.51,147.69 C246.69,149.48 250.79,150.63 254.24,151.24 ZM 250.39 112.30 C250.28,112.26 250.18,112.21 250.11,112.15 C249.81,111.95 249.58,111.34 249.41,110.42 C249.61,111.36 249.92,111.94 250.39,112.30 ZM 356.54 511.14 C357.05,511.28 359.61,511.41 363.96,511.52 C359.17,511.41 356.53,511.28 356.54,511.14 ZM 246.13 493.89 C246.68,493.76 247.24,493.64 247.82,493.52 C248.85,493.31 250.02,493.12 251.29,492.95 C249.58,493.20 247.87,493.51 246.13,493.89 ZM 249.10 106.96 C249.07,106.09 249.07,105.14 249.08,104.13 C249.08,105.20 249.08,106.14 249.10,106.96 ZM 437.14 366.26 C436.82,366.05 436.50,365.83 436.18,365.62 C436.02,365.52 435.87,365.41 435.70,365.30 C435.84,365.39 435.98,365.48 436.12,365.57 C436.46,365.80 436.80,366.03 437.14,366.26 Z" fill="rgb(204,208,211)"/>
<path d="M 0.00 0.00 L 360.00 0.00 L 360.00 9.93 C360.00,10.27 360.00,10.61 360.00,10.94 C359.97,7.23 359.77,4.83 359.09,3.33 C358.32,1.52 356.95,1.02 354.71,1.06 C353.45,1.09 352.72,1.12 352.45,1.21 C352.12,1.24 351.76,1.27 351.40,1.31 C351.15,1.34 350.90,1.37 350.65,1.40 C350.05,1.23 347.85,1.61 345.60,2.15 C345.54,2.16 345.47,2.17 345.41,2.18 C346.68,1.87 348.04,1.54 349.50,1.18 C352.15,0.54 293.88,0.17 176.75,0.10 ZM 298.86 20.84 L 298.80 20.88 C306.11,16.23 314.17,12.16 323.00,8.67 C324.17,8.21 325.28,7.79 326.44,7.39 C324.81,8.00 323.11,8.68 321.41,9.38 C314.33,12.27 307.23,15.80 300.50,19.84 C299.95,20.17 299.40,20.51 298.86,20.84 ZM 249.10 106.96 C249.15,108.47 249.24,109.58 249.41,110.42 C249.58,111.34 249.81,111.95 250.11,112.15 C250.11,112.16 250.12,112.17 250.13,112.17 C249.05,111.61 248.86,110.46 249.07,105.05 C249.07,105.72 249.08,106.36 249.10,106.96 ZM 253.40 112.83 C253.47,112.80 253.54,112.76 253.60,112.72 C254.68,112.75 255.95,112.72 257.36,112.64 C257.71,112.67 258.12,112.68 258.59,112.67 C256.57,112.83 254.79,112.89 253.40,112.83 ZM 251.13 84.92 L 251.10 85.02 C251.32,84.08 251.54,83.24 251.78,82.50 C255.12,72.08 259.53,62.62 265.04,54.08 C264.91,54.30 264.77,54.52 264.64,54.74 C259.31,63.13 255.01,72.41 251.78,82.50 C251.55,83.22 251.34,84.03 251.13,84.92 ZM 241.54 147.70 C246.44,149.39 250.37,150.51 253.70,151.14 C250.38,150.55 246.52,149.44 241.54,147.70 ZM 353.88 42.02 C354.03,41.67 354.18,41.33 354.32,40.98 C352.82,44.82 350.99,48.77 348.80,52.97 C350.76,49.21 352.45,45.57 353.88,42.02 ZM 280.93 108.59 C284.35,107.59 287.74,106.38 291.10,104.98 C291.28,104.91 291.45,104.85 291.62,104.78 C288.09,106.27 284.52,107.54 280.93,108.59 ZM 272.86 110.57 C273.00,110.54 273.14,110.51 273.29,110.48 C273.55,110.43 273.81,110.37 274.07,110.32 C273.67,110.40 273.26,110.49 272.86,110.57 ZM 271.80 44.74 L 271.79 44.75 C271.99,44.50 272.19,44.26 272.39,44.01 C272.20,44.25 272.00,44.49 271.80,44.74 Z" fill="rgb(213,215,218)"/>
<path d="M 0.00 256.00 L 0.00 0.00 L 176.75 0.10 C293.88,0.17 352.15,0.54 349.50,1.18 C332.90,5.23 328.74,6.41 323.00,8.67 C286.45,23.12 263.03,47.39 251.78,82.50 C250.57,86.27 249.65,92.83 249.29,100.14 C248.74,111.57 248.78,111.79 250.99,112.50 C254.37,113.57 267.31,112.10 277.78,109.45 C306.55,102.17 334.90,79.63 348.80,52.97 C356.86,37.52 360.00,25.45 360.00,9.93 L 360.00 0.00 L 436.00 0.00 L 512.00 0.00 L 512.00 256.00 L 512.00 512.00 L 433.94 512.00 C386.49,512.00 356.11,511.64 356.45,511.08 C356.77,510.57 358.48,509.84 360.26,509.45 C372.29,506.83 388.04,494.76 401.74,477.67 C412.51,464.23 431.81,434.11 438.84,419.76 C446.93,403.24 453.84,386.10 454.49,380.92 C454.93,377.43 454.78,377.24 449.94,374.97 C447.19,373.68 444.44,372.03 443.84,371.30 C443.23,370.58 439.76,368.00 436.12,365.57 C417.05,352.89 400.15,328.02 394.00,303.61 C389.22,284.67 389.30,263.70 394.22,245.00 C395.30,240.88 396.33,236.48 396.51,235.24 C396.90,232.42 404.63,218.97 411.58,209.00 C416.62,201.78 428.65,189.37 437.95,181.81 L 442.39 178.19 L 439.55 173.85 C432.40,162.95 413.92,147.86 398.50,140.33 C379.79,131.20 352.23,126.97 331.69,130.09 C319.73,131.91 298.68,138.54 284.45,144.99 C278.13,147.85 268.26,150.90 263.07,151.59 C256.61,152.44 249.00,150.68 233.57,144.78 C209.89,135.70 207.57,134.90 199.50,133.01 C175.70,127.43 153.80,130.57 128.41,143.22 C114.91,149.94 99.37,162.62 89.59,174.89 C63.43,207.72 52.49,255.20 58.54,309.61 C65.36,370.92 92.73,434.33 132.40,480.72 C145.10,495.58 156.00,504.40 167.25,508.92 C170.41,510.19 173.00,511.41 173.00,511.62 C173.00,511.83 134.07,512.00 86.50,512.00 L 0.00 512.00 L 0.00 256.00 ZM 196.55 511.18 C197.07,510.73 199.95,509.77 202.94,509.04 C205.93,508.31 213.13,505.72 218.94,503.28 C240.55,494.21 249.85,492.00 266.53,492.00 C280.03,492.00 290.70,494.20 303.10,499.52 C307.72,501.50 313.98,504.19 317.00,505.50 C320.02,506.80 324.75,508.41 327.50,509.07 C330.25,509.73 332.93,510.66 333.45,511.14 C333.98,511.62 304.05,512.00 265.00,512.00 C226.83,512.00 196.03,511.63 196.55,511.18 Z" fill="rgb(240,242,244)"/>
<path d="M 0.00 256.00 L 0.00 0.00 L 172.47 0.00 C354.67,0.00 354.20,-0.01 336.60,4.31 C314.87,9.66 291.06,23.40 277.02,38.72 C259.91,57.38 250.33,78.60 249.29,100.14 C248.74,111.57 248.78,111.79 250.99,112.50 C254.37,113.57 267.31,112.10 277.78,109.45 C306.55,102.17 334.90,79.63 348.80,52.97 C356.86,37.52 360.00,25.45 360.00,9.93 L 360.00 0.00 L 436.00 0.00 L 512.00 0.00 L 512.00 256.00 L 512.00 512.00 L 433.94 512.00 C386.49,512.00 356.11,511.64 356.45,511.08 C356.77,510.57 358.48,509.84 360.26,509.45 C372.29,506.83 388.04,494.76 401.74,477.67 C412.51,464.23 431.81,434.11 438.84,419.76 C446.93,403.24 453.84,386.10 454.49,380.92 C454.93,377.43 454.78,377.24 449.94,374.97 C447.19,373.68 444.44,372.03 443.84,371.30 C443.23,370.58 439.76,368.00 436.12,365.57 C417.05,352.89 400.15,328.02 394.00,303.61 C389.22,284.67 389.30,263.70 394.22,245.00 C395.30,240.88 396.33,236.48 396.51,235.24 C396.90,232.42 404.63,218.97 411.58,209.00 C416.62,201.78 428.65,189.37 437.95,181.81 L 442.39 178.19 L 439.55 173.85 C432.40,162.95 413.92,147.86 398.50,140.33 C379.79,131.20 352.23,126.97 331.69,130.09 C319.73,131.91 298.68,138.54 284.45,144.99 C278.13,147.85 268.26,150.90 263.07,151.59 C256.61,152.44 249.00,150.68 233.57,144.78 C209.89,135.70 207.57,134.90 199.50,133.01 C175.70,127.43 153.80,130.57 128.41,143.22 C114.91,149.94 99.37,162.62 89.59,174.89 C63.43,207.72 52.49,255.20 58.54,309.61 C65.36,370.92 92.73,434.33 132.40,480.72 C145.10,495.58 156.00,504.40 167.25,508.92 C170.41,510.19 173.00,511.41 173.00,511.62 C173.00,511.83 134.07,512.00 86.50,512.00 L 0.00 512.00 L 0.00 256.00 ZM 196.55 511.18 C197.07,510.73 199.95,509.77 202.94,509.04 C205.93,508.31 213.13,505.72 218.94,503.28 C240.55,494.21 249.85,492.00 266.53,492.00 C280.03,492.00 290.70,494.20 303.10,499.52 C307.72,501.50 313.98,504.19 317.00,505.50 C320.02,506.80 324.75,508.41 327.50,509.07 C330.25,509.73 332.93,510.66 333.45,511.14 C333.98,511.62 304.05,512.00 265.00,512.00 C226.83,512.00 196.03,511.63 196.55,511.18 Z" fill="rgb(254,254,254)"/>
</g>
</svg>