<?xml version="1.0" standalone="no"?>
<!DOCTYPE svg PUBLIC "-//W3C//DTD SVG 20010904//EN"
 "http://www.w3.org/TR/2001/REC-SVG-20010904/DTD/svg10.dtd">
<svg version="1.0" xmlns="http://www.w3.org/2000/svg"
 width="2048.000000pt" height="2048.000000pt" viewBox="0 0 2048.000000 2048.000000"
 preserveAspectRatio="xMidYMid meet">

<g transform="translate(0.000000,2048.000000) scale(0.100000,-0.100000)"
fill="#000000" stroke="none">
<path d="M8925 16349 c-234 -21 -425 -174 -501 -399 -18 -53 -19 -142 -19
-2675 l0 -2620 28 -70 c34 -87 71 -144 141 -215 68 -68 188 -134 271 -149 70
-12 2074 -21 2510 -10 309 7 323 9 443 81 112 67 179 153 256 327 8 17 11 808
11 2655 l0 2631 -23 64 c-62 170 -178 284 -375 365 l-52 21 -1300 1 c-715 1
-1340 -2 -1390 -7z m1757 -376 c10 -9 18 -29 18 -44 0 -57 5 -56 -423 -64
-217 -4 -413 -4 -435 0 -64 11 -93 66 -55 107 15 17 42 18 446 18 387 0 432
-2 449 -17z m1110 -412 l33 -29 3 -2104 c3 -1556 1 -2113 -8 -2141 -8 -29 -20
-42 -43 -52 -26 -11 -300 -13 -1507 -14 -811 0 -1499 2 -1528 6 -29 3 -62 13
-73 22 l-21 16 1 2130 c1 2048 2 2131 20 2155 12 16 32 27 57 31 21 3 713 7
1536 8 l1498 1 32 -29z m-1419 -4561 c73 -36 142 -116 162 -185 32 -109 5
-212 -78 -295 -128 -129 -325 -127 -447 6 -146 158 -103 372 95 475 56 29 66
31 140 27 58 -3 93 -11 128 -28z"/>
<path d="M10253 15412 l-363 -2 0 -618 0 -617 -203 -203 -203 -203 -150 -3
c-82 -2 -233 -4 -336 -5 l-188 -1 0 -160 0 -160 408 0 407 1 121 117 c67 64
189 182 270 261 l149 144 6 126 c3 69 7 278 8 464 l2 339 -45 39 c-50 45 -71
93 -63 150 16 119 161 182 261 112 107 -74 98 -216 -17 -278 -29 -15 -37 -26
-38 -50 -1 -16 -3 -228 -4 -470 -2 -242 -4 -445 -4 -451 -1 -13 -124 -138
-414 -421 l-197 -193 0 -224 0 -224 188 -179 c103 -99 202 -193 220 -208 40
-33 40 -68 1 -98 -20 -15 -31 -17 -45 -9 -11 6 -117 109 -238 230 l-219 220 2
251 2 251 -380 0 -380 0 0 -190 -1 -190 103 0 c99 1 103 1 131 30 56 57 136
76 194 46 37 -19 78 -65 92 -100 11 -31 4 -112 -11 -122 -13 -8 -11 -34 2 -34
6 0 30 -16 53 -37 35 -31 360 -338 454 -429 l32 -32 0 -441 0 -441 368 0 368
0 0 716 -1 716 162 154 162 154 371 0 370 0 0 120 0 120 -527 0 -528 -1 -152
-147 -153 -147 0 -596 0 -597 40 -27 c49 -34 68 -62 76 -114 15 -93 -83 -199
-175 -187 -60 8 -106 39 -137 92 -22 37 -26 53 -21 92 4 38 12 53 49 88 24 22
50 43 58 46 13 4 15 89 18 629 l2 624 178 173 177 172 548 -2 547 -3 0 113 0
112 -505 0 c-485 0 -506 1 -524 19 -19 19 -19 35 -15 411 l4 392 227 223 227
222 293 4 293 4 0 218 0 217 -470 0 -470 0 0 -188 0 -189 24 -11 c63 -28 69
-97 14 -152 -25 -25 -37 -30 -78 -30 -41 0 -53 5 -79 31 -39 39 -42 85 -7 127
24 28 25 33 27 221 1 105 0 193 -2 194 -2 1 -167 1 -366 -1z"/>
<path d="M8819 15406 c-2 -2 -3 -200 -1 -440 l2 -436 123 0 122 0 43 38 42 37
4 403 4 402 -167 0 c-92 0 -170 -2 -172 -4z"/>
<path d="M9250 14994 l0 -416 -69 -72 -70 -71 -146 -5 -147 -5 0 -65 c0 -36 0
-89 1 -117 l1 -53 211 0 211 0 96 92 c54 50 103 99 110 107 9 11 12 68 12 207
l0 192 -40 32 c-87 69 -93 157 -18 232 56 55 132 60 196 12 66 -51 88 -115 58
-173 -16 -30 -80 -91 -96 -91 -6 0 -10 -88 -10 -228 l0 -229 -130 -126 -129
-127 -238 -2 -238 -3 0 -105 0 -105 313 -3 314 -2 173 167 174 168 1 603 0
602 -270 0 -270 0 0 -416z"/>
<path d="M10177 15113 c-31 -35 -31 -67 1 -101 38 -40 82 -43 117 -7 53 52 16
125 -62 125 -25 0 -46 -6 -56 -17z"/>
<path d="M9457 14993 c-35 -40 -21 -97 28 -113 54 -18 95 14 95 74 0 49 -88
77 -123 39z"/>
<path d="M10912 14672 l-202 -197 0 -331 0 -332 83 -4 c45 -3 85 -3 90 -1 4 2
7 125 7 272 l0 268 155 147 c85 81 157 156 160 167 10 30 85 69 135 69 78 0
152 -67 154 -139 2 -91 -100 -169 -184 -141 -21 7 -52 27 -69 44 l-30 31 -116
-111 -115 -111 0 -246 0 -246 338 -3 c185 -2 338 -3 339 -3 1 0 3 65 4 145 l2
145 -99 3 -100 3 -29 -40 c-38 -51 -71 -65 -142 -59 -51 4 -60 9 -90 43 -67
77 -48 171 47 238 50 35 130 15 189 -47 l35 -36 93 0 93 0 0 335 0 335 -272
-1 -273 0 -203 -197z"/>
<path d="M11292 14637 c-6 -6 -14 -25 -17 -40 -15 -60 70 -102 115 -57 25 25
26 78 3 96 -23 17 -87 18 -101 1z"/>
<path d="M11293 14210 c-44 -18 -60 -100 -24 -120 51 -26 121 7 121 57 0 45
-54 80 -97 63z"/>
<path d="M10823 12918 l-135 -133 4 -690 3 -690 263 -3 262 -2 0 453 0 452 76
78 77 77 143 0 143 0 3 106 c2 58 1 108 -1 110 -2 2 -106 4 -230 4 l-226 0
-98 -93 -97 -94 0 -218 0 -218 55 -52 c47 -44 55 -56 55 -87 0 -52 -13 -80
-56 -122 -67 -65 -155 -59 -218 16 -31 35 -36 49 -36 90 0 43 5 54 41 93 23
25 48 45 56 45 11 0 13 42 13 252 l-1 251 118 118 118 118 253 1 253 0 -3 133
-3 132 -348 3 -349 2 -135 -132z"/>
<path d="M9110 12938 c-20 -22 -27 -73 -12 -94 11 -17 48 -34 74 -34 63 0 95
91 46 133 -29 24 -83 22 -108 -5z"/>
<path d="M8815 12614 l4 -247 96 2 96 2 42 43 c48 48 93 61 152 45 39 -11 113
-81 122 -117 17 -70 -44 -160 -125 -181 -66 -18 -116 0 -155 55 l-31 44 -100
0 -101 0 2 -137 3 -138 244 -3 244 -2 23 27 c42 50 84 73 131 73 85 0 148 -65
148 -153 0 -44 -4 -52 -50 -97 -46 -46 -53 -50 -98 -50 -45 0 -55 4 -100 45
l-50 45 -252 0 c-226 0 -252 -2 -246 -16 3 -9 6 -114 6 -235 l0 -219 470 0
470 0 0 419 0 419 -245 239 c-135 131 -245 246 -245 255 0 9 5 20 10 23 6 3
10 11 10 17 0 6 -11 1 -24 -11 -28 -27 -95 -44 -134 -35 -43 10 -89 50 -108
94 l-18 40 -98 0 -97 0 4 -246z"/>
<path d="M9110 12360 c-45 -45 -10 -120 56 -120 63 0 100 91 52 124 -31 22
-84 20 -108 -4z"/>
<path d="M11366 12310 l-46 -49 0 -431 0 -430 170 0 170 0 0 480 0 480 -124 0
-123 0 -47 -50z"/>
<path d="M9413 11985 c-16 -11 -23 -26 -23 -50 0 -63 79 -95 118 -47 16 21 15
77 -1 91 -25 20 -71 23 -94 6z"/>
<path d="M10923 11955 c-31 -21 -40 -71 -17 -96 30 -33 117 -18 130 24 8 26
-12 62 -43 76 -32 15 -44 14 -70 -4z"/>
<path d="M10185 11780 c-28 -31 -24 -79 9 -107 34 -29 75 -30 110 -2 33 26 36
79 6 109 -28 28 -100 28 -125 0z"/>
<path d="M9415 9819 c-202 -26 -297 -247 -178 -411 60 -82 180 -122 296 -99
68 15 124 54 168 118 29 41 34 58 37 120 5 86 -7 127 -54 182 -64 75 -156 105
-269 90z"/>
<path d="M6940 8540 l0 -1100 246 0 247 0 -5 715 c-3 393 -4 715 -2 715 2 0
50 -69 106 -152 56 -84 144 -214 197 -288 95 -135 173 -246 305 -437 194 -279
359 -513 377 -532 20 -21 26 -21 236 -19 l215 3 5 1098 6 1097 -239 0 -239 0
2 -717 c2 -562 -1 -714 -10 -700 -123 187 -713 1044 -894 1300 l-84 117 -234
0 -235 0 0 -1100z"/>
<path d="M10637 9155 c-309 -59 -561 -281 -660 -585 -44 -134 -47 -370 -7
-515 114 -407 484 -658 931 -631 237 14 421 96 570 253 80 84 116 142 192 310
6 13 8 25 6 27 -2 2 -113 6 -246 7 l-241 3 -41 -51 c-46 -59 -90 -94 -144
-117 -219 -90 -471 25 -552 253 -48 136 -39 303 22 429 46 95 128 170 223 208
61 24 78 26 167 22 75 -3 109 -10 146 -27 59 -29 137 -98 162 -144 l18 -35
244 2 c167 1 243 4 243 12 0 24 -44 143 -73 198 -35 67 -149 193 -214 237 -77
53 -197 108 -284 130 -112 28 -350 35 -462 14z"/>
<path d="M12570 9164 c-245 -42 -387 -112 -532 -261 -152 -157 -225 -327 -235
-551 -13 -288 67 -505 253 -683 120 -114 230 -176 383 -216 82 -21 119 -24
251 -24 169 0 257 13 373 57 139 53 288 172 374 299 38 57 113 195 113 209 0
3 -111 6 -247 6 l-248 0 -17 -30 c-23 -41 -131 -117 -191 -135 -64 -19 -215
-19 -285 -1 -143 38 -253 159 -287 314 l-7 32 659 0 658 -1 7 58 c11 79 0 223
-23 313 -62 241 -233 439 -469 539 -119 51 -218 71 -370 76 -74 2 -146 2 -160
-1z m256 -388 c146 -39 263 -157 290 -292 l5 -29 -420 0 c-354 0 -421 2 -421
14 0 32 72 160 115 203 51 52 136 98 199 109 71 11 179 9 232 -5z"/>
<path d="M9220 8293 l0 -848 240 0 240 0 0 848 0 847 -240 0 -240 0 0 -847z"/>
<path d="M9572 7263 l-223 -3 3 -390 c2 -215 3 -390 3 -390 -1 0 -30 29 -66
64 -114 110 -236 155 -449 163 -164 7 -257 -10 -373 -68 -237 -117 -405 -339
-462 -611 -15 -71 -17 -116 -13 -243 4 -95 10 -161 17 -168 6 -6 11 -20 11
-31 0 -47 55 -175 115 -267 110 -169 271 -286 471 -340 104 -29 307 -31 403
-6 99 27 198 84 275 159 38 38 70 68 72 68 2 0 1 -49 -2 -110 l-7 -110 242 0
241 0 2 1130 c0 622 1 1136 2 1143 1 14 19 14 -262 10z m-516 -980 c114 -38
214 -128 267 -241 31 -64 32 -72 32 -192 0 -139 -11 -184 -68 -273 -190 -296
-610 -270 -766 47 -81 166 -56 369 66 522 46 57 133 119 196 139 62 19 213 19
273 -2z"/>
<path d="M4428 7205 c-165 -28 -340 -103 -473 -202 -192 -143 -333 -339 -396
-548 -38 -127 -44 -177 -43 -370 0 -182 12 -281 44 -360 123 -308 285 -499
541 -638 241 -132 603 -169 894 -91 106 28 132 37 208 75 282 140 484 392 551
687 18 80 36 267 36 385 l0 77 -615 0 -615 0 0 -181 0 -182 385 5 c407 4 399
5 376 -40 -5 -9 -19 -39 -32 -67 -104 -223 -295 -352 -554 -371 -329 -25 -608
167 -706 486 -31 100 -33 308 -5 415 62 238 213 401 446 481 44 15 84 19 195
19 160 0 246 -20 346 -81 60 -36 168 -145 194 -194 l16 -30 262 6 c144 4 263
7 264 8 5 4 -40 113 -74 181 -136 274 -419 468 -771 529 -111 19 -361 20 -474
1z"/>
<path d="M14268 6894 l3 -226 -103 3 c-57 2 -104 1 -105 -3 -2 -5 -3 -89 -3
-188 l0 -180 105 0 105 0 0 -417 c0 -374 2 -427 20 -505 32 -145 93 -238 203
-311 108 -71 155 -80 415 -85 l232 -4 0 204 0 205 -137 -1 c-159 -1 -191 8
-225 63 -23 36 -23 40 -26 444 l-3 407 200 0 201 0 0 190 0 190 -202 0 -203 0
3 220 3 220 -243 0 -243 0 3 -226z"/>
<path d="M6685 6713 c-336 -30 -620 -277 -710 -619 -47 -177 -45 -400 6 -564
73 -234 207 -395 416 -499 90 -45 124 -55 247 -71 235 -32 476 49 595 199 18
23 37 41 43 41 7 0 8 -36 3 -110 l-7 -110 241 2 241 3 0 845 0 845 -236 3
-237 2 6 -100 c3 -55 3 -100 0 -100 -4 0 -30 26 -59 58 -111 123 -333 194
-549 175z m296 -427 c76 -23 122 -51 182 -111 120 -120 157 -267 115 -460 -17
-78 -55 -144 -122 -211 -69 -69 -118 -97 -209 -120 -217 -56 -445 84 -513 315
-23 78 -15 244 16 321 51 127 154 224 284 265 55 18 191 18 247 1z"/>
<path d="M10780 6710 c-160 -28 -278 -79 -399 -176 -145 -116 -242 -266 -293
-454 -19 -72 -23 -108 -22 -235 0 -99 6 -176 16 -225 68 -310 293 -555 583
-635 84 -23 295 -31 381 -15 123 23 234 88 328 191 31 34 57 60 59 58 1 -2 0
-76 -4 -164 -7 -176 -16 -212 -74 -299 -55 -83 -130 -133 -236 -156 -84 -19
-259 -9 -330 19 -68 26 -142 88 -170 142 l-19 39 -235 0 c-129 0 -235 -4 -235
-8 0 -33 44 -168 70 -217 144 -265 408 -395 808 -395 442 0 785 237 879 608
18 73 20 177 25 1330 l3 562 -239 0 -239 0 6 -100 c3 -55 3 -100 1 -100 -2 0
-32 29 -67 63 -69 71 -145 113 -267 146 -87 25 -249 34 -330 21z m346 -426
c117 -34 221 -130 281 -259 24 -54 27 -71 27 -175 0 -161 -32 -246 -127 -343
-151 -155 -392 -178 -569 -54 -57 39 -121 112 -151 172 -84 167 -49 398 81
537 59 63 91 86 161 114 69 29 213 33 297 8z"/>
<path d="M12955 6714 c-281 -40 -393 -91 -560 -259 -197 -197 -264 -374 -252
-662 7 -164 22 -225 87 -358 162 -327 514 -511 910 -475 208 18 362 79 500
196 65 55 168 182 196 244 9 19 25 53 35 74 11 22 19 45 19 50 0 8 -75 9 -243
6 l-244 -5 -51 -56 c-35 -38 -71 -65 -114 -85 -58 -27 -72 -29 -183 -29 -91 0
-133 4 -173 18 -67 24 -146 83 -188 142 -31 44 -91 182 -83 190 2 2 298 5 658
7 l655 3 8 34 c12 43 4 282 -10 343 -57 238 -249 455 -491 553 -116 48 -369
84 -476 69z m253 -406 c32 -12 76 -34 100 -50 74 -51 152 -174 152 -242 l0
-21 -417 3 -418 2 3 27 c8 64 92 188 158 234 114 78 287 97 422 47z"/>
<path d="M15960 6714 c-95 -11 -243 -49 -307 -79 -132 -61 -215 -140 -269
-256 -27 -60 -29 -72 -29 -184 0 -110 2 -125 27 -178 38 -80 124 -163 219
-209 95 -47 151 -65 389 -128 107 -28 221 -63 253 -77 61 -28 113 -77 123
-118 15 -59 -49 -129 -141 -155 -66 -19 -227 -9 -286 17 -65 29 -127 87 -140
133 -11 36 -14 38 -63 44 -28 3 -138 6 -244 6 -179 0 -193 -1 -188 -17 3 -10
10 -40 17 -68 50 -217 236 -391 484 -455 245 -63 530 -42 715 51 187 95 295
242 307 418 6 87 -14 184 -49 235 -110 159 -218 214 -593 306 -317 77 -390
123 -372 237 14 81 96 126 232 125 149 0 245 -53 283 -155 l20 -52 226 -3 226
-2 0 34 c0 47 -34 151 -69 211 -91 158 -272 272 -481 304 -80 12 -243 20 -290
15z"/>
</g>
</svg>
