<svg width="64" height="64" viewBox="0 0 64 64" fill="none" xmlns="http://www.w3.org/2000/svg">
<rect x="1.65918" width="60.6815" height="64" fill="#EBEBEB"/>
<path d="M16.8926 15.1816C17.3027 15.2546 17.64 15.3047 17.9043 15.332C18.1686 15.3594 18.3828 15.3822 18.5469 15.4004C18.7383 15.4186 18.8887 15.4232 18.998 15.4141H19.4082C19.554 15.4141 19.7363 15.4141 19.9551 15.4141C20.1829 15.4049 20.4655 15.4004 20.8027 15.4004C20.9941 15.847 21.1673 16.2572 21.3223 16.6309C21.4863 17.0046 21.623 17.3236 21.7324 17.5879C21.86 17.9069 21.9785 18.194 22.0879 18.4492C22.2155 18.7682 22.3522 19.1191 22.498 19.502C22.6439 19.8848 22.776 20.2448 22.8945 20.582C23.0221 20.9193 23.127 21.1973 23.209 21.416C23.291 21.6348 23.332 21.735 23.332 21.7168C23.332 21.7077 23.3366 21.6165 23.3457 21.4434C23.3548 21.2611 23.3639 21.0378 23.373 20.7734C23.3822 20.5 23.3913 20.2038 23.4004 19.8848C23.4186 19.5566 23.4277 19.2422 23.4277 18.9414C23.4368 18.6315 23.4414 18.349 23.4414 18.0938C23.4414 17.8385 23.4323 17.6471 23.4141 17.5195C23.3867 17.3646 23.332 17.1868 23.25 16.9863C23.1771 16.8132 23.0768 16.6081 22.9492 16.3711C22.8216 16.125 22.6439 15.847 22.416 15.5371C22.7897 15.5462 23.0951 15.5508 23.332 15.5508C23.569 15.5508 23.7604 15.5508 23.9062 15.5508C24.0703 15.5508 24.1979 15.5462 24.2891 15.5371C24.4076 15.5371 24.5534 15.528 24.7266 15.5098C24.8815 15.4915 25.0729 15.4779 25.3008 15.4688C25.5378 15.4505 25.8294 15.4277 26.1758 15.4004C25.9753 15.5827 25.8158 15.7559 25.6973 15.9199C25.5788 16.084 25.4831 16.2298 25.4102 16.3574C25.3281 16.5033 25.2734 16.64 25.2461 16.7676C25.2096 16.9316 25.1777 17.2005 25.1504 17.5742C25.1322 17.9388 25.1094 18.349 25.082 18.8047C25.0638 19.2604 25.0456 19.7344 25.0273 20.2266C25.0091 20.7188 24.9909 21.1699 24.9727 21.5801C24.9727 21.89 24.9635 22.2227 24.9453 22.5781C24.9271 22.8789 24.9089 23.2207 24.8906 23.6035C24.8724 23.9772 24.8496 24.3555 24.8223 24.7383L23.6055 24.7656C23.25 24.1367 22.9492 23.599 22.7031 23.1523C22.4661 22.6966 22.2702 22.3229 22.1152 22.0312C21.9421 21.694 21.7962 21.4115 21.6777 21.1836C21.5775 20.9648 21.4453 20.7142 21.2812 20.4316C21.1445 20.1947 20.9714 19.903 20.7617 19.5566C20.5612 19.2103 20.3197 18.8138 20.0371 18.3672C20.0098 18.9961 19.9961 19.5339 19.9961 19.9805C20.0052 20.418 20.0189 20.7826 20.0371 21.0742C20.0645 21.4115 20.0964 21.694 20.1328 21.9219C20.1784 22.1406 20.2422 22.3867 20.3242 22.6602C20.3971 22.8971 20.4837 23.1751 20.584 23.4941C20.6934 23.8132 20.8255 24.1732 20.9805 24.5742C20.4427 24.5469 20.0417 24.5332 19.7773 24.5332H19.3672C19.2396 24.5332 19.0664 24.5469 18.8477 24.5742C18.6654 24.5924 18.4147 24.6198 18.0957 24.6562C17.7858 24.6927 17.3984 24.7428 16.9336 24.8066C17.1523 24.5423 17.3255 24.3008 17.4531 24.082C17.5898 23.8542 17.6947 23.6628 17.7676 23.5078C17.8587 23.3255 17.9225 23.166 17.959 23.0293C17.9863 22.8835 18.0046 22.6328 18.0137 22.2773C18.0228 21.9128 18.0228 21.5026 18.0137 21.0469C18.0137 20.582 18.0046 20.0944 17.9863 19.584C17.9772 19.0736 17.9635 18.5996 17.9453 18.1621C17.9271 17.7246 17.9043 17.3509 17.877 17.041C17.8587 16.7311 17.8451 16.5397 17.8359 16.4668C17.8086 16.3483 17.7539 16.2207 17.6719 16.084C17.599 15.9655 17.5033 15.8333 17.3848 15.6875C17.2663 15.5326 17.1022 15.3639 16.8926 15.1816ZM34.5156 14.7715C34.8346 14.7715 35.1217 14.8262 35.377 14.9355C35.6413 15.0358 35.8828 15.1497 36.1016 15.2773C36.3294 15.4049 36.5436 15.5234 36.7441 15.6328C36.9447 15.7331 37.1497 15.7832 37.3594 15.7832C37.5234 15.7741 37.7103 15.7513 37.9199 15.7148C38.1022 15.6784 38.3118 15.6237 38.5488 15.5508C38.7949 15.4688 39.0684 15.3503 39.3691 15.1953C39.0684 15.487 38.8223 15.7331 38.6309 15.9336C38.4486 16.125 38.3073 16.2845 38.207 16.4121C38.0885 16.5579 38.002 16.6719 37.9473 16.7539C37.8926 16.8542 37.8105 17.0046 37.7012 17.2051C37.6009 17.3874 37.4642 17.6335 37.291 17.9434C37.1178 18.2441 36.8991 18.6406 36.6348 19.1328C36.6348 18.5039 36.571 18.0163 36.4434 17.6699C36.3249 17.3236 36.1927 17.0592 36.0469 16.877C35.8737 16.6673 35.6777 16.5352 35.459 16.4805C35.2585 16.4531 35.0579 16.4896 34.8574 16.5898C34.6569 16.681 34.4564 16.8177 34.2559 17C34.0645 17.1823 33.8776 17.401 33.6953 17.6562C33.5221 17.9023 33.3626 18.1621 33.2168 18.4355C33.0801 18.709 32.9661 18.987 32.875 19.2695C32.7839 19.543 32.7246 19.7982 32.6973 20.0352C32.6699 20.2448 32.6654 20.4909 32.6836 20.7734C32.7018 21.0469 32.7428 21.3294 32.8066 21.6211C32.8704 21.9036 32.9525 22.1816 33.0527 22.4551C33.153 22.7285 33.276 22.9746 33.4219 23.1934C33.5768 23.403 33.75 23.5762 33.9414 23.7129C34.1328 23.8405 34.3516 23.8997 34.5977 23.8906C34.8711 23.8724 35.14 23.7904 35.4043 23.6445C35.6322 23.526 35.8646 23.3438 36.1016 23.0977C36.3385 22.8424 36.5436 22.4824 36.7168 22.0176L38.7402 22.3867C38.1569 23.0977 37.5872 23.6309 37.0312 23.9863C36.4844 24.3418 35.9922 24.5924 35.5547 24.7383C35.0443 24.9023 34.5612 24.9798 34.1055 24.9707C33.5312 24.9069 32.9935 24.7337 32.4922 24.4512C31.9909 24.1686 31.5579 23.8268 31.1934 23.4258C30.8379 23.0156 30.5599 22.569 30.3594 22.0859C30.1589 21.6029 30.0723 21.1289 30.0996 20.6641C30.1178 20.3542 30.1816 19.9941 30.291 19.584C30.4004 19.1647 30.5462 18.7363 30.7285 18.2988C30.9199 17.8613 31.1478 17.4329 31.4121 17.0137C31.6764 16.5944 31.9681 16.2207 32.2871 15.8926C32.6061 15.5553 32.9525 15.2865 33.3262 15.0859C33.709 14.8763 34.1055 14.7715 34.5156 14.7715ZM7.49316 32.0039C8.0765 31.9948 8.55501 32.0996 8.92871 32.3184C9.31152 32.5371 9.62142 32.7969 9.8584 33.0977C10.0954 33.3984 10.2777 33.7038 10.4053 34.0137C10.5329 34.3145 10.6331 34.5514 10.7061 34.7246C10.7243 34.7702 10.7607 34.8294 10.8154 34.9023C10.861 34.9661 10.9248 35.0436 11.0068 35.1348C11.098 35.2168 11.2119 35.3125 11.3486 35.4219C11.0661 35.431 10.8154 35.4401 10.5967 35.4492C10.3779 35.4492 10.1911 35.4538 10.0361 35.4629C9.86296 35.472 9.70801 35.4811 9.57129 35.4902C9.43457 35.4993 9.26595 35.513 9.06543 35.5312C8.88314 35.5495 8.65983 35.5677 8.39551 35.5859C8.13118 35.6042 7.80762 35.6315 7.4248 35.668C7.65267 35.3945 7.8304 35.153 7.95801 34.9434C8.09473 34.7246 8.19499 34.5332 8.25879 34.3691C8.33171 34.196 8.37272 34.0456 8.38184 33.918C8.40007 33.7904 8.39551 33.681 8.36816 33.5898C8.31348 33.3802 8.1722 33.2298 7.94434 33.1387C7.28809 32.9564 6.71387 33.1022 6.22168 33.5762C5.73861 34.041 5.39225 34.8066 5.18262 35.873C5.08236 36.4017 4.98665 36.9531 4.89551 37.5273C4.81348 38.0924 4.78158 38.612 4.7998 39.0859C4.81803 39.5508 4.90918 39.929 5.07324 40.2207C5.2373 40.5124 5.51986 40.6491 5.9209 40.6309C6.31283 40.6126 6.64551 40.5488 6.91895 40.4395C7.19238 40.321 7.41113 40.1842 7.5752 40.0293C7.73926 39.8652 7.85319 39.6921 7.91699 39.5098C7.98991 39.3184 8.01725 39.1406 7.99902 38.9766C7.96257 38.849 7.86686 38.7122 7.71191 38.5664C7.5752 38.4388 7.37012 38.2975 7.09668 38.1426C6.82324 37.9785 6.43132 37.8099 5.9209 37.6367C6.40397 37.6094 6.80046 37.5911 7.11035 37.582C7.42936 37.5638 7.68001 37.5456 7.8623 37.5273C8.08105 37.5091 8.24967 37.4954 8.36816 37.4863C8.47754 37.4772 8.63704 37.4681 8.84668 37.459C9.02897 37.4499 9.26139 37.4453 9.54395 37.4453C9.83561 37.4453 10.2002 37.4408 10.6377 37.4316C10.4736 37.5957 10.346 37.7461 10.2549 37.8828C10.2093 37.9557 10.1683 38.0195 10.1318 38.0742C10.0954 38.1654 10.0817 38.3522 10.0908 38.6348C10.0908 38.8717 10.109 39.2227 10.1455 39.6875C10.182 40.1432 10.2503 40.7676 10.3506 41.5605L8.53223 41.8066L8.61426 39.9609C8.40462 40.4622 8.1403 40.8359 7.82129 41.082C7.51139 41.3281 7.21517 41.5013 6.93262 41.6016C6.59538 41.7201 6.24447 41.7747 5.87988 41.7656C5.40592 41.7201 4.93197 41.6107 4.45801 41.4375C3.98405 41.2643 3.56478 41 3.2002 40.6445C2.83561 40.2799 2.55306 39.8105 2.35254 39.2363C2.16113 38.6621 2.10189 37.9512 2.1748 37.1035C2.25684 36.2559 2.45736 35.5176 2.77637 34.8887C3.10449 34.2507 3.51009 33.722 3.99316 33.3027C4.47624 32.8835 5.01855 32.569 5.62012 32.3594C6.23079 32.1406 6.85514 32.0221 7.49316 32.0039ZM19.7295 32.127C20.0485 32.1725 20.3265 32.209 20.5635 32.2363C20.8005 32.2637 20.9964 32.2865 21.1514 32.3047C21.3337 32.3229 21.4886 32.3366 21.6162 32.3457C21.762 32.3639 21.9398 32.3548 22.1494 32.3184C22.3682 32.2819 22.6006 32.2454 22.8467 32.209C23.0928 32.1634 23.348 32.127 23.6123 32.0996C23.8766 32.0723 24.1318 32.0723 24.3779 32.0996C24.542 32.1178 24.7516 32.1543 25.0068 32.209C25.262 32.2637 25.5309 32.3503 25.8135 32.4688C26.1051 32.5872 26.3968 32.7422 26.6885 32.9336C26.9801 33.125 27.2445 33.3665 27.4814 33.6582C27.7184 33.9499 27.9144 34.2962 28.0693 34.6973C28.2243 35.0983 28.3109 35.5677 28.3291 36.1055C28.3564 36.9076 28.2835 37.6367 28.1104 38.293C27.9372 38.9492 27.6683 39.5098 27.3037 39.9746C26.9482 40.4395 26.4971 40.804 25.9502 41.0684C25.4033 41.3327 24.7653 41.4785 24.0361 41.5059C23.4801 41.5514 22.9333 41.5924 22.3955 41.6289C22.1676 41.6471 21.9261 41.6608 21.6709 41.6699C21.4248 41.679 21.1787 41.6882 20.9326 41.6973C20.6865 41.6973 20.4495 41.6927 20.2217 41.6836C19.9938 41.6745 19.7842 41.6608 19.5928 41.6426C19.8024 41.5423 19.971 41.4421 20.0986 41.3418C20.2354 41.2415 20.3402 41.1549 20.4131 41.082C20.4951 40.9909 20.5544 40.9089 20.5908 40.8359C20.609 40.7357 20.6364 40.5397 20.6729 40.248C20.7002 40.002 20.7367 39.651 20.7822 39.1953C20.8278 38.7396 20.8825 38.1198 20.9463 37.3359L21.0283 36.3652C21.0739 35.7637 21.0921 35.2715 21.083 34.8887C21.083 34.5059 21.0739 34.2051 21.0557 33.9863C21.0283 33.7311 20.9919 33.5443 20.9463 33.4258C20.9098 33.3255 20.8415 33.207 20.7412 33.0703C20.6501 32.9609 20.5225 32.8288 20.3584 32.6738C20.2035 32.5098 19.9938 32.3275 19.7295 32.127ZM22.6143 37.1582C22.6325 37.9694 22.6735 38.5938 22.7373 39.0312C22.8102 39.4596 22.8877 39.7786 22.9697 39.9883C23.07 40.2253 23.1794 40.3665 23.2979 40.4121C23.471 40.4121 23.667 40.3392 23.8857 40.1934C24.1045 40.0384 24.3187 39.806 24.5283 39.4961C24.7471 39.1862 24.943 38.7988 25.1162 38.334C25.2985 37.8691 25.4307 37.3268 25.5127 36.707C25.5947 36.0872 25.5719 35.5404 25.4443 35.0664C25.3167 34.5924 25.1481 34.196 24.9385 33.877C24.7288 33.5488 24.5146 33.3027 24.2959 33.1387C24.0771 32.9655 23.9131 32.8789 23.8037 32.8789C23.6761 32.8789 23.5622 32.9154 23.4619 32.9883C23.3617 33.0521 23.2204 33.2025 23.0381 33.4395C22.9469 33.5671 22.8649 33.7493 22.792 33.9863C22.7282 34.196 22.6735 34.474 22.6279 34.8203C22.5824 35.1667 22.5687 35.6133 22.5869 36.1602L22.6143 37.1582ZM37.1885 32.5371C37.8265 32.5553 38.3551 32.569 38.7744 32.5781C39.2028 32.5781 39.5492 32.5781 39.8135 32.5781H40.5381H44.6123C44.6305 32.7604 44.6442 32.9382 44.6533 33.1113C44.6715 33.2754 44.6807 33.4212 44.6807 33.5488C44.6807 33.7038 44.6761 33.8451 44.667 33.9727C44.6579 34.1003 44.6442 34.237 44.626 34.3828C44.6077 34.5104 44.5895 34.6471 44.5713 34.793C44.5531 34.9388 44.5212 35.0892 44.4756 35.2441C44.348 34.752 44.1748 34.3783 43.9561 34.123C43.7464 33.8678 43.5322 33.681 43.3135 33.5625C43.0583 33.4258 42.7894 33.3529 42.5068 33.3438C42.1331 33.362 41.8415 33.3939 41.6318 33.4395C41.4222 33.485 41.2581 33.5488 41.1396 33.6309C41.0212 33.7129 40.93 33.8086 40.8662 33.918C40.8115 34.0182 40.7523 34.1322 40.6885 34.2598C40.6338 34.3691 40.5837 34.5378 40.5381 34.7656C40.4925 34.957 40.4469 35.2168 40.4014 35.5449C40.3649 35.873 40.3239 36.2969 40.2783 36.8164C40.5244 36.7435 40.7204 36.6751 40.8662 36.6113C41.0212 36.5475 41.1442 36.4928 41.2354 36.4473C41.3356 36.3926 41.4085 36.3424 41.4541 36.2969C41.4906 36.2422 41.5452 36.1419 41.6182 35.9961C41.6729 35.8685 41.7458 35.6953 41.8369 35.4766C41.9372 35.2578 42.0557 34.957 42.1924 34.5742C42.2106 34.9935 42.2197 35.3444 42.2197 35.627C42.2197 35.9004 42.2243 36.1237 42.2334 36.2969C42.2334 36.4974 42.238 36.6569 42.2471 36.7754V37.2949C42.2471 37.4863 42.2471 37.7461 42.2471 38.0742C42.2562 38.3932 42.2699 38.7988 42.2881 39.291C42.1787 38.9538 42.0785 38.6895 41.9873 38.498C41.9053 38.2975 41.8324 38.1471 41.7686 38.0469C41.6956 37.9284 41.6318 37.8464 41.5771 37.8008C41.5133 37.7826 41.4268 37.7643 41.3174 37.7461C41.2171 37.737 41.0895 37.7324 40.9346 37.7324C40.7887 37.7324 40.6019 37.7552 40.374 37.8008C40.3467 38.3021 40.3421 38.7077 40.3604 39.0176C40.3877 39.3184 40.4242 39.5508 40.4697 39.7148C40.5153 39.9062 40.57 40.043 40.6338 40.125C40.7158 40.207 40.8799 40.2754 41.126 40.3301C41.3721 40.3757 41.6501 40.3939 41.96 40.3848C42.279 40.3665 42.6025 40.3118 42.9307 40.2207C43.2588 40.1296 43.5505 39.9792 43.8057 39.7695C43.9971 39.5964 44.2021 39.3776 44.4209 39.1133C44.6032 38.8854 44.8037 38.5983 45.0225 38.252C45.2503 37.9056 45.4736 37.4863 45.6924 36.9941C45.6559 37.4043 45.6286 37.7461 45.6104 38.0195C45.6012 38.2839 45.5876 38.498 45.5693 38.6621C45.5511 38.8535 45.5374 38.9993 45.5283 39.0996C45.5283 39.209 45.5146 39.3639 45.4873 39.5645C45.4691 39.7376 45.4372 39.9746 45.3916 40.2754C45.3551 40.5671 45.305 40.9408 45.2412 41.3965C44.8128 41.4056 44.4072 41.4147 44.0244 41.4238C43.6416 41.4238 43.3044 41.4284 43.0127 41.4375C42.6663 41.4466 42.3473 41.4557 42.0557 41.4648C41.7549 41.4648 41.4222 41.4785 41.0576 41.5059C40.7386 41.5241 40.3604 41.5514 39.9229 41.5879C39.4945 41.6243 39.0205 41.6745 38.501 41.7383C38.5465 41.1185 38.5785 40.5352 38.5967 39.9883C38.624 39.4323 38.6423 38.9447 38.6514 38.5254C38.6605 38.0332 38.6605 37.5775 38.6514 37.1582C38.6969 36.11 38.6787 35.2624 38.5967 34.6152C38.5146 33.9681 38.4189 33.5534 38.3096 33.3711C38.2549 33.3073 38.1774 33.2298 38.0771 33.1387C37.9951 33.0658 37.8812 32.9792 37.7354 32.8789C37.5895 32.7786 37.4072 32.6647 37.1885 32.5371ZM61.9209 31.8672C61.7933 32.1589 61.6794 32.4141 61.5791 32.6328C61.4788 32.8516 61.3923 33.0384 61.3193 33.1934C61.2373 33.3665 61.1689 33.5215 61.1143 33.6582C61.0687 33.7585 61.0094 33.8952 60.9365 34.0684C60.8636 34.2233 60.7725 34.4284 60.6631 34.6836C60.5628 34.9297 60.4307 35.2487 60.2666 35.6406C60.1846 35.3034 60.0843 35.0072 59.9658 34.752C59.8473 34.4967 59.7197 34.2734 59.583 34.082C59.4463 33.8906 59.3005 33.7357 59.1455 33.6172C58.9997 33.4896 58.8538 33.3848 58.708 33.3027C58.3708 33.1204 58.0153 33.0202 57.6416 33.002C57.1494 33.0293 56.762 33.1113 56.4795 33.248C56.2061 33.3757 56.0055 33.526 55.8779 33.6992C55.7503 33.8633 55.682 34.0365 55.6729 34.2188C55.6637 34.3919 55.6865 34.5378 55.7412 34.6562C55.7868 34.7656 55.9463 34.8932 56.2197 35.0391C56.5023 35.1849 56.8395 35.3535 57.2314 35.5449C57.6325 35.7272 58.0609 35.9368 58.5166 36.1738C58.9723 36.4017 59.3916 36.6569 59.7744 36.9395C60.1663 37.2129 60.4945 37.5137 60.7588 37.8418C61.0322 38.1608 61.1826 38.5026 61.21 38.8672C61.2373 39.332 61.2327 39.7513 61.1963 40.125C61.1598 40.4987 61.0322 40.8177 60.8135 41.082C60.5947 41.3464 60.2529 41.556 59.7881 41.7109C59.3324 41.8659 58.6989 41.9616 57.8877 41.998C57.0492 42.0345 56.361 41.9889 55.8232 41.8613C55.2855 41.7337 54.848 41.5605 54.5107 41.3418C54.1826 41.123 53.9365 40.8815 53.7725 40.6172C53.6175 40.3529 53.5036 40.1022 53.4307 39.8652C53.3577 39.6191 53.3076 39.4095 53.2803 39.2363C53.2529 39.054 53.2074 38.9447 53.1436 38.9082C53.0706 38.8626 52.9977 38.8216 52.9248 38.7852C52.861 38.7487 52.7926 38.7168 52.7197 38.6895C52.6468 38.653 52.5739 38.6211 52.501 38.5938L56.4795 37.9512C56.2516 38.1335 56.0739 38.3021 55.9463 38.457C55.8278 38.612 55.7367 38.7487 55.6729 38.8672C55.5999 39.0039 55.5498 39.1315 55.5225 39.25C55.5042 39.3776 55.5452 39.5371 55.6455 39.7285C55.7458 39.9199 55.8825 40.1068 56.0557 40.2891C56.238 40.4622 56.4476 40.6081 56.6846 40.7266C56.9215 40.8451 57.1676 40.8952 57.4229 40.877C57.7419 40.8496 58.0016 40.7721 58.2021 40.6445C58.4027 40.5078 58.5531 40.3392 58.6533 40.1387C58.7627 39.9382 58.8265 39.7194 58.8447 39.4824C58.863 39.2454 58.8402 39.013 58.7764 38.7852C58.7217 38.5482 58.6305 38.3294 58.5029 38.1289C58.3753 37.9193 58.2249 37.7461 58.0518 37.6094C57.8968 37.5 57.6553 37.3952 57.3271 37.2949C57.0081 37.1947 56.6481 37.0853 56.2471 36.9668C55.8551 36.8483 55.4495 36.7116 55.0303 36.5566C54.6201 36.4017 54.2464 36.2103 53.9092 35.9824C53.5811 35.7546 53.3167 35.4857 53.1162 35.1758C52.9248 34.8659 52.8519 34.4922 52.8975 34.0547C52.9339 33.681 53.0524 33.3711 53.2529 33.125C53.4626 32.8698 53.7223 32.6693 54.0322 32.5234C54.3512 32.3685 54.7021 32.2546 55.085 32.1816C55.4769 32.1087 55.8734 32.0677 56.2744 32.0586C56.6846 32.0404 57.0856 32.0449 57.4775 32.0723C57.8786 32.0996 58.2386 32.1315 58.5576 32.168C58.8766 32.2044 59.1455 32.2409 59.3643 32.2773C59.5921 32.3047 59.7334 32.3229 59.7881 32.332C60.0251 32.3503 60.262 32.3457 60.499 32.3184C60.7087 32.3001 60.9365 32.2591 61.1826 32.1953C61.4378 32.1224 61.6839 32.013 61.9209 31.8672Z" fill="#FFCC4B"/>
<path d="M26.1074 15.4551C26.4173 15.4915 26.6771 15.5189 26.8867 15.5371C27.1055 15.5462 27.2832 15.5599 27.4199 15.5781C27.584 15.5964 27.7116 15.6055 27.8027 15.6055C27.903 15.6146 28.0534 15.61 28.2539 15.5918C28.4271 15.5736 28.6595 15.5508 28.9512 15.5234C29.252 15.4961 29.6348 15.4551 30.0996 15.4004C29.89 15.5827 29.7214 15.7604 29.5938 15.9336C29.4753 16.0977 29.3841 16.2435 29.3203 16.3711C29.2383 16.526 29.1882 16.6719 29.1699 16.8086C29.1335 17.0273 29.1016 17.3281 29.0742 17.7109C29.056 18.0846 29.0378 18.4948 29.0195 18.9414C29.0013 19.388 28.9922 19.8483 28.9922 20.3223C28.9922 20.7962 28.9967 21.2474 29.0059 21.6758C29.0241 22.0951 29.0514 22.4688 29.0879 22.7969C29.1335 23.125 29.1882 23.362 29.252 23.5078C29.3431 23.6719 29.4388 23.8359 29.5391 24C29.6302 24.1367 29.7396 24.278 29.8672 24.4238C29.9948 24.5697 30.1406 24.6882 30.3047 24.7793C29.7669 24.752 29.3385 24.7383 29.0195 24.7383H28.5273C28.3815 24.7383 28.1947 24.7474 27.9668 24.7656C27.7754 24.7839 27.5339 24.8021 27.2422 24.8203C26.9505 24.8385 26.5996 24.8659 26.1895 24.9023C26.3991 24.6745 26.5632 24.4557 26.6816 24.2461C26.8001 24.0365 26.8958 23.8542 26.9688 23.6992C27.0508 23.5169 27.1055 23.3438 27.1328 23.1797C27.1693 22.9427 27.1966 22.651 27.2148 22.3047C27.2422 21.9492 27.2604 21.571 27.2695 21.1699C27.2786 20.7598 27.2786 20.3451 27.2695 19.9258C27.2695 19.4974 27.2604 19.0872 27.2422 18.6953C27.224 18.3034 27.1966 17.9479 27.1602 17.6289C27.1328 17.3099 27.0964 17.0547 27.0508 16.8633C27.0234 16.7448 26.9688 16.6126 26.8867 16.4668C26.8138 16.3392 26.7135 16.1934 26.5859 16.0293C26.4674 15.8561 26.3079 15.6647 26.1074 15.4551ZM38.1113 15.5371C38.7493 15.5553 39.278 15.569 39.6973 15.5781C40.1257 15.5781 40.472 15.5781 40.7363 15.5781H41.4609H45.5352C45.5534 15.7604 45.5671 15.9382 45.5762 16.1113C45.5944 16.2754 45.6035 16.4212 45.6035 16.5488C45.6035 16.7038 45.599 16.8451 45.5898 16.9727C45.5807 17.1003 45.5671 17.237 45.5488 17.3828C45.5306 17.5104 45.5124 17.6471 45.4941 17.793C45.4759 17.9388 45.444 18.0892 45.3984 18.2441C45.2708 17.752 45.0977 17.3783 44.8789 17.123C44.6693 16.8678 44.4551 16.681 44.2363 16.5625C43.9811 16.4258 43.7122 16.3529 43.4297 16.3438C43.056 16.362 42.7643 16.3939 42.5547 16.4395C42.3451 16.485 42.181 16.5488 42.0625 16.6309C41.944 16.7129 41.8529 16.8086 41.7891 16.918C41.7344 17.0182 41.6751 17.1322 41.6113 17.2598C41.5566 17.3691 41.5065 17.5378 41.4609 17.7656C41.4154 17.957 41.3698 18.2168 41.3242 18.5449C41.2878 18.873 41.2467 19.2969 41.2012 19.8164C41.4473 19.7435 41.6432 19.6751 41.7891 19.6113C41.944 19.5475 42.0671 19.4928 42.1582 19.4473C42.2585 19.3926 42.3314 19.3424 42.377 19.2969C42.4134 19.2422 42.4681 19.1419 42.541 18.9961C42.5957 18.8685 42.6686 18.6953 42.7598 18.4766C42.86 18.2578 42.9785 17.957 43.1152 17.5742C43.1335 17.9935 43.1426 18.3444 43.1426 18.627C43.1426 18.9004 43.1471 19.1237 43.1562 19.2969C43.1562 19.4974 43.1608 19.6569 43.1699 19.7754V20.2949C43.1699 20.4863 43.1699 20.7461 43.1699 21.0742C43.179 21.3932 43.1927 21.7988 43.2109 22.291C43.1016 21.9538 43.0013 21.6895 42.9102 21.498C42.8281 21.2975 42.7552 21.1471 42.6914 21.0469C42.6185 20.9284 42.5547 20.8464 42.5 20.8008C42.4362 20.7826 42.3496 20.7643 42.2402 20.7461C42.14 20.737 42.0124 20.7324 41.8574 20.7324C41.7116 20.7324 41.5247 20.7552 41.2969 20.8008C41.2695 21.3021 41.265 21.7077 41.2832 22.0176C41.3105 22.3184 41.347 22.5508 41.3926 22.7148C41.4382 22.9062 41.4928 23.043 41.5566 23.125C41.6387 23.207 41.8027 23.2754 42.0488 23.3301C42.2949 23.3757 42.5729 23.3939 42.8828 23.3848C43.2018 23.3665 43.5254 23.3118 43.8535 23.2207C44.1816 23.1296 44.4733 22.9792 44.7285 22.7695C44.9199 22.5964 45.125 22.3776 45.3438 22.1133C45.526 21.8854 45.7266 21.5983 45.9453 21.252C46.1732 20.9056 46.3965 20.4863 46.6152 19.9941C46.5788 20.4043 46.5514 20.7461 46.5332 21.0195C46.5241 21.2839 46.5104 21.498 46.4922 21.6621C46.474 21.8535 46.4603 21.9993 46.4512 22.0996C46.4512 22.209 46.4375 22.3639 46.4102 22.5645C46.3919 22.7376 46.36 22.9746 46.3145 23.2754C46.278 23.5671 46.2279 23.9408 46.1641 24.3965C45.7357 24.4056 45.3301 24.4147 44.9473 24.4238C44.5645 24.4238 44.2272 24.4284 43.9355 24.4375C43.5892 24.4466 43.2702 24.4557 42.9785 24.4648C42.6777 24.4648 42.3451 24.4785 41.9805 24.5059C41.6615 24.5241 41.2832 24.5514 40.8457 24.5879C40.4173 24.6243 39.9434 24.6745 39.4238 24.7383C39.4694 24.1185 39.5013 23.5352 39.5195 22.9883C39.5469 22.4323 39.5651 21.9447 39.5742 21.5254C39.5833 21.0332 39.5833 20.5775 39.5742 20.1582C39.6198 19.11 39.6016 18.2624 39.5195 17.6152C39.4375 16.9681 39.3418 16.5534 39.2324 16.3711C39.1777 16.3073 39.1003 16.2298 39 16.1387C38.918 16.0658 38.804 15.9792 38.6582 15.8789C38.5124 15.7786 38.3301 15.6647 38.1113 15.5371ZM13.085 32.6191C13.5407 32.6465 13.9235 32.6693 14.2334 32.6875C14.5524 32.6966 14.8167 32.7057 15.0264 32.7148C15.2633 32.724 15.4639 32.724 15.6279 32.7148C15.792 32.7057 16.0153 32.6829 16.2979 32.6465C16.5348 32.6191 16.8493 32.5781 17.2412 32.5234C17.6423 32.4596 18.139 32.3776 18.7314 32.2773C18.5218 32.487 18.3577 32.6784 18.2393 32.8516C18.1299 33.0156 18.0433 33.1569 17.9795 33.2754C17.9066 33.4212 17.8564 33.5443 17.8291 33.6445C17.8109 33.7357 17.8291 33.9635 17.8838 34.3281C17.9385 34.6927 18.016 35.1257 18.1162 35.627C18.2165 36.1191 18.3258 36.6478 18.4443 37.2129C18.5628 37.7689 18.6813 38.293 18.7998 38.7852C18.9183 39.2682 19.0231 39.6829 19.1143 40.0293C19.2145 40.3665 19.2874 40.5671 19.333 40.6309C19.4697 40.8223 19.5563 40.9499 19.5928 41.0137C19.6292 41.0684 19.693 41.1185 19.7842 41.1641C19.8206 41.1823 19.8799 41.2096 19.9619 41.2461C20.0348 41.2826 20.1305 41.3281 20.249 41.3828C20.3766 41.4375 20.5361 41.5013 20.7275 41.5742C20.3721 41.5924 20.0667 41.6061 19.8115 41.6152C19.5563 41.6152 19.3467 41.6198 19.1826 41.6289C18.9912 41.638 18.8271 41.6471 18.6904 41.6562C18.5537 41.6562 18.3896 41.6654 18.1982 41.6836C18.0342 41.7018 17.82 41.7201 17.5557 41.7383C17.3005 41.7565 16.9997 41.7747 16.6533 41.793C16.8356 41.6654 16.9814 41.5514 17.0908 41.4512C17.2093 41.3418 17.3005 41.2507 17.3643 41.1777C17.4372 41.0866 17.4873 41.0046 17.5146 40.9316C17.5329 40.8496 17.5465 40.7266 17.5557 40.5625C17.5648 40.4167 17.5648 40.2253 17.5557 39.9883C17.5465 39.7422 17.5238 39.4232 17.4873 39.0312L13.8916 39.4004C13.8005 39.5553 13.7321 39.6921 13.6865 39.8105C13.641 39.9199 13.609 40.0156 13.5908 40.0977C13.5635 40.1979 13.5544 40.2799 13.5635 40.3438C13.5817 40.4167 13.6136 40.5033 13.6592 40.6035C13.7048 40.6947 13.7686 40.804 13.8506 40.9316C13.9417 41.0501 14.0739 41.1914 14.2471 41.3555C14.0192 41.3464 13.7868 41.3418 13.5498 41.3418C13.3128 41.3418 13.0941 41.3464 12.8936 41.3555C12.6566 41.3646 12.4242 41.3737 12.1963 41.3828C11.9684 41.3919 11.7087 41.4056 11.417 41.4238C11.1709 41.4421 10.8838 41.4648 10.5557 41.4922C10.2184 41.5104 9.8584 41.5378 9.47559 41.5742C9.71257 41.4648 9.91309 41.3555 10.0771 41.2461C10.2412 41.1276 10.3779 41.0182 10.4873 40.918C10.6149 40.8086 10.7243 40.7038 10.8154 40.6035C10.8792 40.5124 11.0068 40.3027 11.1982 39.9746C11.3896 39.6374 11.6038 39.2409 11.8408 38.7852C12.0869 38.3294 12.3421 37.8418 12.6064 37.3223C12.8799 36.8027 13.126 36.3151 13.3447 35.8594C13.5635 35.3945 13.7412 34.9935 13.8779 34.6562C14.0146 34.319 14.083 34.1003 14.083 34C14.0648 33.8815 14.0192 33.7493 13.9463 33.6035C13.8825 33.4759 13.7822 33.3301 13.6455 33.166C13.5179 33.002 13.3311 32.8197 13.085 32.6191ZM17.3232 38.0195C17.2686 37.7005 17.2184 37.4271 17.1729 37.1992C17.1273 36.9622 17.0908 36.7663 17.0635 36.6113C17.027 36.429 16.9997 36.2695 16.9814 36.1328C16.9541 36.0052 16.9222 35.8411 16.8857 35.6406C16.8493 35.4674 16.8037 35.2533 16.749 34.998C16.7035 34.7337 16.6442 34.4193 16.5713 34.0547C16.0518 35.0938 15.6462 35.9004 15.3545 36.4746C15.0719 37.0397 14.8669 37.4544 14.7393 37.7188C14.5843 38.0286 14.4977 38.2109 14.4795 38.2656L17.3232 38.0195ZM34.0986 32.0039C34.682 31.9948 35.1605 32.0996 35.5342 32.3184C35.917 32.5371 36.2269 32.7969 36.4639 33.0977C36.7008 33.3984 36.8831 33.7038 37.0107 34.0137C37.1383 34.3145 37.2386 34.5514 37.3115 34.7246C37.3298 34.7702 37.3662 34.8294 37.4209 34.9023C37.4665 34.9661 37.5303 35.0436 37.6123 35.1348C37.7035 35.2168 37.8174 35.3125 37.9541 35.4219C37.6715 35.431 37.4209 35.4401 37.2021 35.4492C36.9834 35.4492 36.7965 35.4538 36.6416 35.4629C36.4684 35.472 36.3135 35.4811 36.1768 35.4902C36.04 35.4993 35.8714 35.513 35.6709 35.5312C35.4886 35.5495 35.2653 35.5677 35.001 35.5859C34.7367 35.6042 34.4131 35.6315 34.0303 35.668C34.2581 35.3945 34.4359 35.153 34.5635 34.9434C34.7002 34.7246 34.8005 34.5332 34.8643 34.3691C34.9372 34.196 34.9782 34.0456 34.9873 33.918C35.0055 33.7904 35.001 33.681 34.9736 33.5898C34.9189 33.3802 34.7777 33.2298 34.5498 33.1387C33.8936 32.9564 33.3193 33.1022 32.8271 33.5762C32.3441 34.041 31.9977 34.8066 31.7881 35.873C31.6878 36.4017 31.5921 36.9531 31.501 37.5273C31.4189 38.0924 31.387 38.612 31.4053 39.0859C31.4235 39.5508 31.5146 39.929 31.6787 40.2207C31.8428 40.5124 32.1253 40.6491 32.5264 40.6309C32.9183 40.6126 33.251 40.5488 33.5244 40.4395C33.7979 40.321 34.0166 40.1842 34.1807 40.0293C34.3447 39.8652 34.4587 39.6921 34.5225 39.5098C34.5954 39.3184 34.6227 39.1406 34.6045 38.9766C34.568 38.849 34.4723 38.7122 34.3174 38.5664C34.1807 38.4388 33.9756 38.2975 33.7021 38.1426C33.4287 37.9785 33.0368 37.8099 32.5264 37.6367C33.0094 37.6094 33.4059 37.5911 33.7158 37.582C34.0348 37.5638 34.2855 37.5456 34.4678 37.5273C34.6865 37.5091 34.8551 37.4954 34.9736 37.4863C35.083 37.4772 35.2425 37.4681 35.4521 37.459C35.6344 37.4499 35.8669 37.4453 36.1494 37.4453C36.4411 37.4453 36.8057 37.4408 37.2432 37.4316C37.0791 37.5957 36.9515 37.7461 36.8604 37.8828C36.8148 37.9557 36.7738 38.0195 36.7373 38.0742C36.7008 38.1654 36.6872 38.3522 36.6963 38.6348C36.6963 38.8717 36.7145 39.2227 36.751 39.6875C36.7874 40.1432 36.8558 40.7676 36.9561 41.5605L35.1377 41.8066L35.2197 39.9609C35.0101 40.4622 34.7458 40.8359 34.4268 41.082C34.1169 41.3281 33.8206 41.5013 33.5381 41.6016C33.2008 41.7201 32.8499 41.7747 32.4854 41.7656C32.0114 41.7201 31.5374 41.6107 31.0635 41.4375C30.5895 41.2643 30.1702 41 29.8057 40.6445C29.4411 40.2799 29.1585 39.8105 28.958 39.2363C28.7666 38.6621 28.7074 37.9512 28.7803 37.1035C28.8623 36.2559 29.0628 35.5176 29.3818 34.8887C29.71 34.2507 30.1156 33.722 30.5986 33.3027C31.0817 32.8835 31.624 32.569 32.2256 32.3594C32.8363 32.1406 33.4606 32.0221 34.0986 32.0039ZM45.4189 31.8945C46.0296 31.9674 46.5583 32.0221 47.0049 32.0586C47.4515 32.0859 47.8206 32.1087 48.1123 32.127C48.4495 32.1452 48.7321 32.1497 48.96 32.1406C49.1969 32.1315 49.5205 32.1087 49.9307 32.0723C50.277 32.0449 50.7327 32.0085 51.2979 31.9629C51.863 31.9082 52.5693 31.8353 53.417 31.7441C53.4261 31.9538 53.4307 32.1589 53.4307 32.3594C53.4398 32.5508 53.4489 32.7194 53.458 32.8652C53.4671 33.0384 53.4717 33.1979 53.4717 33.3438C53.4717 33.4987 53.4626 33.6947 53.4443 33.9316C53.4261 34.1322 53.3942 34.3874 53.3486 34.6973C53.3122 34.998 53.2529 35.3581 53.1709 35.7773C53.0433 35.2852 52.9202 34.8887 52.8018 34.5879C52.6833 34.278 52.5739 34.0319 52.4736 33.8496C52.3643 33.64 52.2549 33.4805 52.1455 33.3711C52.027 33.2891 51.8857 33.2207 51.7217 33.166C51.5758 33.1204 51.389 33.084 51.1611 33.0566C50.9424 33.0293 50.6826 33.0339 50.3818 33.0703C50.3363 34.2734 50.3044 35.2487 50.2861 35.9961C50.2679 36.7435 50.2542 37.3268 50.2451 37.7461C50.236 38.2474 50.2314 38.6074 50.2314 38.8262C50.2406 39.1361 50.2907 39.4414 50.3818 39.7422C50.4548 39.9974 50.5732 40.2617 50.7373 40.5352C50.9014 40.8086 51.1383 41.0501 51.4482 41.2598H49.7803C49.6253 41.2598 49.4339 41.2689 49.2061 41.2871C49.0146 41.3053 48.7686 41.3236 48.4678 41.3418C48.1761 41.36 47.8343 41.3919 47.4424 41.4375C47.5791 41.2005 47.6885 40.9863 47.7705 40.7949C47.8525 40.6035 47.9163 40.4395 47.9619 40.3027C48.0166 40.1387 48.0576 39.9928 48.085 39.8652C48.0941 39.6829 48.1169 39.3138 48.1533 38.7578C48.1624 38.5299 48.1715 38.2474 48.1807 37.9102C48.1989 37.5729 48.2171 37.1719 48.2354 36.707C48.2627 36.2422 48.2855 35.709 48.3037 35.1074C48.3311 34.4967 48.3584 33.8086 48.3857 33.043C48.2217 32.9974 48.0667 33.002 47.9209 33.0566C47.7751 33.1022 47.6475 33.1615 47.5381 33.2344C47.4105 33.3255 47.2874 33.4349 47.1689 33.5625C47.0505 33.7174 46.9183 33.918 46.7725 34.1641C46.6449 34.3737 46.499 34.6517 46.335 34.998C46.1709 35.3353 45.984 35.7546 45.7744 36.2559C45.7288 35.7272 45.6969 35.2943 45.6787 34.957C45.6605 34.6107 45.6468 34.3418 45.6377 34.1504C45.6286 33.9225 45.624 33.7539 45.624 33.6445C45.624 33.5443 45.6149 33.4121 45.5967 33.248C45.5785 33.1113 45.5557 32.9336 45.5283 32.7148C45.501 32.487 45.4645 32.2135 45.4189 31.8945Z" fill="#FFAA00"/>
</svg>
