<svg width="16" height="16" viewBox="0 0 16 16" fill="none" xmlns="http://www.w3.org/2000/svg">
<rect width="16" height="16" rx="2" fill="#313237"/>
<path d="M2.47412 8.7294V6.08577H1.51074V9.61734H3.69801V8.7294H2.47412Z" fill="#FAFBFC"/>
<path d="M5.34813 9.70815C6.45405 9.70815 7.24049 8.93625 7.24049 7.8566C7.24049 6.7719 6.45405 6 5.34813 6C4.24221 6 3.45578 6.77695 3.45578 7.8566C3.45578 8.9312 4.24221 9.70815 5.34813 9.70815ZM5.34813 8.80507C4.82712 8.80507 4.43882 8.40147 4.43882 7.8566C4.43882 7.30668 4.82712 6.90307 5.34813 6.90307C5.87406 6.90307 6.25253 7.30164 6.25253 7.8566C6.25253 8.40651 5.87406 8.80507 5.34813 8.80507Z" fill="#FAFBFC"/>
<path d="M8.91181 7.73047V8.34597H9.76705C9.65892 8.61841 9.34926 8.80003 8.98554 8.80003C8.46453 8.80003 8.12538 8.4166 8.12538 7.8566C8.12538 7.29155 8.46944 6.90812 8.98554 6.90812C9.33452 6.90812 9.64417 7.09983 9.76705 7.39749H10.7648C10.6174 6.58019 9.8801 6 8.97571 6C7.91894 6 7.15217 6.78199 7.15217 7.8566C7.15217 8.9312 7.93368 9.70815 8.98554 9.70815C10.062 9.70815 10.7992 8.8858 10.7992 7.73047H8.91181Z" fill="#FAFBFC"/>
<path d="M12.5969 9.70815C13.7028 9.70815 14.4893 8.93625 14.4893 7.8566C14.4893 6.7719 13.7028 6 12.5969 6C11.491 6 10.7046 6.77695 10.7046 7.8566C10.7046 8.9312 11.491 9.70815 12.5969 9.70815ZM12.5969 8.80507C12.0759 8.80507 11.6876 8.40147 11.6876 7.8566C11.6876 7.30668 12.0759 6.90307 12.5969 6.90307C13.1228 6.90307 13.5013 7.30164 13.5013 7.8566C13.5013 8.40651 13.1228 8.80507 12.5969 8.80507Z" fill="#FAFBFC"/>
</svg>
