<svg xmlns="http://www.w3.org/2000/svg" version="1.1" xmlns:xlink="http://www.w3.org/1999/xlink" viewBox="0 0 200 200"><rect width="200" height="200" fill="url('#gradient')"></rect><defs><linearGradient id="gradient" gradientTransform="rotate(45 0.5 0.5)"><stop offset="0%" stop-color="#f9f9f9"></stop><stop offset="100%" stop-color="#ffffff"></stop></linearGradient></defs><g><g fill="#2e2f30" transform="matrix(1.5109435199606525,0,0,1.5109435199606525,8.376736641213569,108.18923579216863)" stroke="#ffffff" stroke-width="0"><path d="M12.95-14.22L12.95 0L9.54 0L4.50-8.85L4.50 0L1.07 0L1.07-14.22L4.50-14.22L9.53-5.37L9.53-14.22L12.95-14.22ZM18.44-10.57L18.44 0L15.14 0L15.14-10.57L18.44-10.57ZM14.94-13.29L14.94-13.29Q14.94-13.99 15.45-14.44Q15.96-14.89 16.77-14.89Q17.58-14.89 18.09-14.44Q18.59-13.99 18.59-13.29Q18.59-12.59 18.09-12.14Q17.58-11.69 16.77-11.69Q15.96-11.69 15.45-12.14Q14.94-12.59 14.94-13.29ZM24.93-2.34L24.93-2.34Q25.63-2.34 26.01-2.72Q26.39-3.10 26.38-3.77L26.38-3.77L29.46-3.77Q29.46-2.03 28.22-0.92Q26.97 0.20 25.01 0.20L25.01 0.20Q22.71 0.20 21.38-1.25Q20.05-2.70 20.05-5.25L20.05-5.25L20.05-5.39Q20.05-6.99 20.64-8.22Q21.23-9.44 22.34-10.10Q23.46-10.76 24.98-10.76L24.98-10.76Q27.04-10.76 28.25-9.62Q29.46-8.48 29.46-6.52L29.46-6.52L26.38-6.52Q26.38-7.34 25.98-7.78Q25.58-8.22 24.90-8.22L24.90-8.22Q23.62-8.22 23.41-6.59L23.41-6.59Q23.34-6.07 23.34-5.17L23.34-5.17Q23.34-3.57 23.72-2.96Q24.10-2.34 24.93-2.34ZM35.97 0.20L35.97 0.20Q33.54 0.20 32.03-1.25Q30.53-2.71 30.53-5.03L30.53-5.03L30.53-5.30Q30.53-6.92 31.13-8.16Q31.73-9.40 32.88-10.08Q34.03-10.76 35.62-10.76L35.62-10.76Q37.84-10.76 39.13-9.38Q40.42-8.00 40.42-5.53L40.42-5.53L40.42-4.25L33.88-4.25Q34.05-3.36 34.65-2.85Q35.24-2.34 36.19-2.34L36.19-2.34Q37.75-2.34 38.63-3.44L38.63-3.44L40.14-1.66Q39.52-0.81 38.39-0.31Q37.27 0.20 35.97 0.20ZM35.60-8.22L35.60-8.22Q34.15-8.22 33.88-6.31L33.88-6.31L37.20-6.31L37.20-6.56Q37.22-7.35 36.80-7.79Q36.38-8.22 35.60-8.22ZM58.52-7.60L58.52-1.76Q57.72-0.88 56.20-0.34Q54.68 0.20 52.86 0.20L52.86 0.20Q50.07 0.20 48.40-1.51Q46.73-3.22 46.61-6.27L46.61-6.27L46.60-7.50Q46.60-9.60 47.34-11.17Q48.09-12.73 49.47-13.58Q50.85-14.42 52.67-14.42L52.67-14.42Q55.32-14.42 56.79-13.21Q58.26-11.99 58.51-9.58L58.51-9.58L55.21-9.58Q55.03-10.77 54.44-11.28Q53.86-11.79 52.78-11.79L52.78-11.79Q51.49-11.79 50.79-10.69Q50.09-9.60 50.08-7.57L50.08-7.57L50.08-6.71Q50.08-4.58 50.81-3.51Q51.53-2.44 53.10-2.44L53.10-2.44Q54.43-2.44 55.09-3.04L55.09-3.04L55.09-5.24L52.71-5.24L52.71-7.60L58.52-7.60ZM69.60 0L66.31 0Q66.13-0.32 66.00-0.95L66.00-0.95Q65.09 0.20 63.46 0.20L63.46 0.20Q61.96 0.20 60.92-0.71Q59.87-1.61 59.87-2.98L59.87-2.98Q59.87-4.70 61.14-5.58Q62.41-6.46 64.83-6.46L64.83-6.46L65.85-6.46L65.85-7.01Q65.85-8.47 64.59-8.47L64.59-8.47Q63.42-8.47 63.42-7.31L63.42-7.31L60.13-7.31Q60.13-8.85 61.43-9.80Q62.73-10.76 64.76-10.76Q66.78-10.76 67.95-9.78Q69.12-8.79 69.15-7.07L69.15-7.07L69.15-2.39Q69.17-0.94 69.60-0.17L69.60-0.17L69.60 0ZM64.25-2.15L64.25-2.15Q64.86-2.15 65.27-2.41Q65.67-2.68 65.85-3.01L65.85-3.01L65.85-4.70L64.89-4.70Q63.17-4.70 63.17-3.15L63.17-3.15Q63.17-2.71 63.48-2.43Q63.78-2.15 64.25-2.15ZM70.56-5.36L70.56-5.36Q70.56-7.87 71.64-9.32Q72.72-10.76 74.67-10.76L74.67-10.76Q76.08-10.76 77.05-9.65L77.05-9.65L77.05-15L80.35-15L80.35 0L77.39 0L77.23-1.13Q76.21 0.20 74.65 0.20L74.65 0.20Q72.76 0.20 71.66-1.25Q70.56-2.70 70.56-5.36ZM73.86-5.76L73.85-5.16Q73.85-2.34 75.49-2.34L75.49-2.34Q76.58-2.34 77.05-3.26L77.05-3.26L77.05-7.29Q76.60-8.22 75.51-8.22L75.51-8.22Q73.98-8.22 73.86-5.76L73.86-5.76ZM81.84-5.24L81.84-5.36Q81.84-6.96 82.36-8.19Q82.89-9.42 83.88-10.09Q84.86-10.76 86.17-10.76L86.17-10.76Q87.82-10.76 88.75-9.65L88.75-9.65L88.87-10.57L91.86-10.57L91.86-0.40Q91.86 1.00 91.21 2.03Q90.56 3.06 89.33 3.61Q88.10 4.16 86.47 4.16L86.47 4.16Q85.31 4.16 84.22 3.72Q83.13 3.28 82.56 2.58L82.56 2.58L83.94 0.64Q84.85 1.73 86.36 1.73L86.36 1.73Q88.54 1.73 88.54-0.52L88.54-0.52L88.54-0.85Q87.60 0.20 86.15 0.20L86.15 0.20Q84.22 0.20 83.03-1.28Q81.84-2.76 81.84-5.24L81.84-5.24ZM85.14-5.16L85.14-5.16Q85.14-3.86 85.63-3.10Q86.11-2.34 86.99-2.34L86.99-2.34Q88.06-2.34 88.54-3.06L88.54-3.06L88.54-7.50Q88.07-8.22 87.01-8.22L87.01-8.22Q86.13-8.22 85.63-7.44Q85.14-6.65 85.14-5.16ZM98.84 0.20L98.84 0.20Q96.41 0.20 94.90-1.25Q93.40-2.71 93.40-5.03L93.40-5.03L93.40-5.30Q93.40-6.92 94.00-8.16Q94.60-9.40 95.75-10.08Q96.90-10.76 98.49-10.76L98.49-10.76Q100.71-10.76 102.00-9.38Q103.29-8.00 103.29-5.53L103.29-5.53L103.29-4.25L96.75-4.25Q96.92-3.36 97.52-2.85Q98.12-2.34 99.06-2.34L99.06-2.34Q100.63-2.34 101.50-3.44L101.50-3.44L103.01-1.66Q102.39-0.81 101.26-0.31Q100.14 0.20 98.84 0.20ZM98.47-8.22L98.47-8.22Q97.02-8.22 96.75-6.31L96.75-6.31L100.07-6.31L100.07-6.56Q100.09-7.35 99.67-7.79Q99.25-8.22 98.47-8.22ZM105.16-13.19L108.45-13.19L108.45-10.57L110.19-10.57L110.19-8.28L108.45-8.28L108.45-3.45Q108.45-2.85 108.66-2.62Q108.88-2.38 109.51-2.38L109.51-2.38Q110-2.38 110.33-2.44L110.33-2.44L110.33-0.09Q109.44 0.20 108.48 0.20L108.48 0.20Q106.78 0.20 105.97-0.61Q105.16-1.41 105.16-3.04L105.16-3.04L105.16-8.28L103.81-8.28L103.81-10.57L105.16-10.57L105.16-13.19ZM117.01-2.97L117.01-2.97Q117.01-3.39 116.57-3.64Q116.13-3.90 114.90-4.17Q113.67-4.44 112.87-4.89Q112.07-5.33 111.65-5.97Q111.23-6.60 111.23-7.42L111.23-7.42Q111.23-8.88 112.43-9.82Q113.63-10.76 115.58-10.76L115.58-10.76Q117.67-10.76 118.94-9.81Q120.21-8.87 120.21-7.32L120.21-7.32L116.90-7.32Q116.90-8.59 115.57-8.59L115.57-8.59Q115.05-8.59 114.70-8.31Q114.35-8.02 114.35-7.59L114.35-7.59Q114.35-7.15 114.78-6.88Q115.21-6.60 116.15-6.43Q117.09-6.25 117.80-6.01L117.80-6.01Q120.19-5.19 120.19-3.07L120.19-3.07Q120.19-1.62 118.90-0.71Q117.62 0.20 115.58 0.20L115.58 0.20Q114.22 0.20 113.15-0.29Q112.09-0.78 111.49-1.62Q110.90-2.46 110.90-3.39L110.90-3.39L113.97-3.39Q113.99-2.66 114.46-2.32Q114.93-1.98 115.66-1.98L115.66-1.98Q116.34-1.98 116.67-2.26Q117.01-2.53 117.01-2.97Z"></path></g></g></svg>