<?xml version="1.0" standalone="no"?>
<!DOCTYPE svg PUBLIC "-//W3C//DTD SVG 20010904//EN"
 "http://www.w3.org/TR/2001/REC-SVG-20010904/DTD/svg10.dtd">
<svg version="1.0" xmlns="http://www.w3.org/2000/svg"
 width="1024.000000pt" height="1024.000000pt" viewBox="0 0 1024.000000 1024.000000"
 preserveAspectRatio="xMidYMid meet">
<metadata>
Created by potrace 1.14, written by Peter Selinger 2001-2017
</metadata>
<g transform="translate(0.000000,1024.000000) scale(0.100000,-0.100000)"
fill="#000000" stroke="none">
<path d="M7590 7733 c-58 -8 -112 -14 -120 -14 -8 -1 -33 -5 -55 -10 -22 -4
-53 -10 -70 -13 -138 -25 -376 -98 -485 -148 -44 -20 -95 -41 -95 -38 0 3
-192 -103 -233 -128 -114 -71 -295 -215 -401 -321 -133 -132 -148 -150 -231
-263 -33 -46 -65 -88 -70 -95 -6 -7 -10 -16 -10 -21 0 -5 -7 -15 -15 -22 -8
-7 -21 -24 -28 -39 -8 -14 -40 -74 -71 -132 -118 -225 -183 -408 -242 -679
-25 -115 -27 -129 -38 -230 -4 -30 -9 -66 -11 -80 -22 -117 -22 -606 -1 -770
2 -14 7 -54 11 -90 4 -36 9 -74 11 -85 3 -11 7 -36 10 -55 3 -19 7 -42 9 -50
2 -8 7 -31 10 -50 3 -19 13 -62 21 -95 9 -33 17 -67 19 -75 4 -22 45 -151 55
-175 4 -11 23 -58 41 -105 37 -96 135 -291 179 -357 17 -24 30 -46 30 -48 0
-4 39 -61 82 -120 79 -109 254 -295 355 -378 23 -19 49 -42 58 -51 9 -9 20
-16 25 -16 5 0 15 -6 22 -12 52 -50 245 -167 378 -230 89 -43 230 -99 247
-100 4 0 16 -4 26 -10 10 -5 26 -11 35 -13 9 -3 56 -15 105 -29 48 -13 87 -22
87 -20 0 2 10 0 23 -5 13 -5 41 -12 63 -15 21 -4 46 -8 54 -11 8 -2 35 -6 60
-9 25 -3 55 -8 66 -10 134 -26 759 -27 804 -1 3 1 29 6 58 9 30 3 73 10 95 15
23 5 58 12 78 15 20 3 49 10 65 16 16 6 31 11 34 11 3 0 23 4 45 10 22 6 45
12 52 13 7 1 16 5 19 9 4 4 14 7 22 7 25 0 244 91 342 142 107 56 303 184 349
229 17 16 33 29 36 29 4 0 46 39 94 88 102 101 193 211 273 332 61 91 172 307
184 355 4 17 10 35 15 40 14 18 80 252 94 330 2 17 7 41 10 55 3 14 8 45 11
70 3 25 7 56 10 70 12 75 18 248 18 630 l1 425 -1135 0 -1135 0 0 -483 c0
-266 2 -488 5 -493 4 -5 206 -10 466 -11 l459 -3 -1 -25 c-2 -42 -16 -134 -21
-143 -2 -4 -6 -19 -9 -33 -7 -36 -56 -144 -88 -190 -40 -60 -115 -133 -175
-171 -62 -40 -157 -87 -198 -98 -15 -5 -34 -10 -40 -12 -7 -1 -19 -5 -25 -6
-122 -34 -200 -42 -393 -42 -203 0 -327 24 -468 90 -114 54 -158 85 -257 185
-145 144 -236 317 -300 570 -12 46 -23 96 -25 110 -3 14 -7 39 -10 55 -16 94
-28 274 -28 410 -1 348 49 602 163 841 32 67 65 127 72 135 7 8 22 27 32 43
29 45 152 171 199 202 23 16 44 32 47 35 6 7 61 37 130 69 60 29 202 69 270
78 73 9 302 9 365 0 28 -4 75 -15 105 -23 30 -9 63 -18 73 -20 30 -7 160 -73
192 -97 52 -40 140 -132 166 -173 50 -79 56 -91 79 -157 l23 -68 701 0 702 0
-3 28 c-28 245 -118 506 -251 727 -99 165 -288 379 -432 488 -30 23 -61 47
-68 54 -7 7 -26 20 -42 30 -17 9 -30 21 -30 25 0 4 -4 8 -9 8 -6 0 -30 14 -54
30 -25 17 -49 30 -55 30 -6 0 -12 4 -14 8 -3 9 -189 103 -273 138 -179 75
-463 150 -650 171 -22 2 -51 6 -65 9 -58 13 -508 10 -610 -3z"/>
<path d="M70 7682 l-25 -3 2 -2542 c0 -1398 2 -2549 2 -2558 1 -19 34 -28 71
-19 14 3 44 3 68 0 23 -4 45 -3 48 2 3 4 10 6 15 3 7 -5 90 -6 244 -5 11 1 41
0 68 0 26 -1 52 2 57 5 6 3 10 3 10 -2 0 -7 73 -9 90 -2 3 1 9 1 14 0 8 -2
134 -2 241 -1 11 1 41 0 68 0 26 -1 52 2 57 5 6 3 10 3 10 -2 0 -7 72 -9 90
-3 3 1 18 1 35 0 74 -5 125 -4 125 1 0 4 16 3 35 -1 19 -4 37 -5 38 -1 2 3 3
608 3 1345 -1 1047 2 1340 11 1343 16 6 30 -9 73 -74 18 -29 37 -53 42 -53 4
0 8 -6 8 -13 0 -7 10 -27 22 -44 39 -52 56 -76 91 -128 63 -92 185 -270 194
-280 4 -6 35 -51 68 -100 33 -50 62 -92 65 -95 7 -6 142 -205 155 -228 6 -9
13 -19 16 -22 3 -3 44 -60 90 -128 46 -68 91 -133 99 -145 8 -12 90 -132 182
-267 92 -135 171 -249 176 -255 4 -5 46 -66 93 -135 217 -317 314 -455 321
-458 4 -2 8 -10 8 -17 0 -8 6 -20 13 -27 7 -7 42 -56 77 -108 35 -52 65 -97
67 -99 6 -9 81 -17 104 -10 15 3 32 3 39 -1 6 -4 28 -4 48 0 20 3 48 3 62 0
14 -3 44 -3 68 0 23 4 42 4 42 1 0 -3 20 -6 45 -6 25 0 45 4 45 8 0 5 4 5 10
2 12 -8 228 -10 236 -2 3 2 17 2 32 -2 14 -4 45 -4 69 -1 24 4 43 4 43 1 0 -3
20 -6 45 -6 25 0 45 3 45 7 0 4 6 5 13 2 20 -7 147 -10 147 -3 0 4 17 3 38 -1
l37 -6 1 2558 0 2559 -26 5 c-14 3 -31 7 -37 10 -7 2 -13 -1 -13 -7 0 -6 -4
-7 -10 -4 -8 5 -88 7 -245 5 -11 -1 -41 0 -68 0 -26 1 -52 -2 -57 -5 -6 -3
-10 -3 -10 2 0 7 -73 9 -90 2 -3 -1 -9 -1 -14 0 -8 2 -134 2 -241 1 -11 -1
-41 0 -68 0 -26 1 -52 -2 -57 -5 -6 -3 -10 -3 -10 2 0 8 -77 9 -86 1 -2 -3
-21 -2 -42 1 -20 4 -54 4 -74 1 -21 -4 -38 -4 -38 -1 0 7 -78 6 -86 -1 -2 -3
-22 -2 -42 2 -21 4 -47 4 -57 0 -18 -6 -19 -42 -19 -1341 -1 -1177 -3 -1334
-16 -1336 -8 -2 -20 0 -25 5 -6 4 -66 90 -134 192 -69 102 -127 187 -131 190
-4 3 -13 16 -20 30 -7 14 -31 48 -52 76 -21 28 -38 55 -38 61 0 5 -9 18 -20
28 -11 10 -20 22 -20 27 0 5 -6 16 -12 23 -26 29 -38 44 -38 49 0 3 -55 85
-178 263 -6 10 -24 36 -39 58 -26 40 -213 314 -361 533 -42 62 -84 123 -92
136 -8 13 -44 65 -79 117 -36 52 -97 142 -137 201 -40 59 -83 122 -96 140 -13
18 -28 41 -33 50 -6 9 -53 79 -105 155 -52 76 -125 183 -162 238 -71 104 -75
106 -148 104 -19 0 -42 0 -50 0 -63 2 -113 0 -121 -4 -5 -4 -9 -3 -9 2 0 4
-20 8 -45 8 -25 0 -45 -4 -45 -8 0 -5 -4 -5 -10 -2 -12 8 -228 10 -236 2 -3
-2 -17 -2 -32 2 -14 4 -45 4 -69 1 -24 -4 -43 -4 -43 -1 0 3 -20 6 -45 6 -25
0 -45 -3 -45 -6 0 -4 -15 -3 -32 0 -18 4 -52 4 -75 1 -24 -4 -43 -4 -43 -1 0
3 -20 6 -45 6 -25 0 -45 -3 -45 -6 0 -4 -15 -4 -32 0 -18 3 -44 5 -58 3z"/>
</g>
</svg>
