<svg width="65" height="64" viewBox="0 0 65 64" fill="none" xmlns="http://www.w3.org/2000/svg">
<g filter="url(#filter0_d_2_103)">
<rect x="1" width="64" height="64" fill="white"/>
</g>
<path fill-rule="evenodd" clip-rule="evenodd" d="M28.4668 24.9333C28.5927 24.7655 28.7903 24.6667 29.0002 24.6667H37.0002C37.21 24.6667 37.4076 24.7655 37.5335 24.9333L39.5335 27.6C39.62 27.7154 39.6668 27.8557 39.6668 28V37.3333C39.6668 37.8638 39.4561 38.3725 39.081 38.7475C38.706 39.1226 38.1973 39.3333 37.6668 39.3333H28.3335C27.8031 39.3333 27.2944 39.1226 26.9193 38.7475C26.5442 38.3725 26.3335 37.8638 26.3335 37.3333V28C26.3335 27.8557 26.3803 27.7154 26.4668 27.6L28.4668 24.9333ZM29.3335 26L27.6668 28.2222V37.3333C27.6668 37.5101 27.7371 37.6797 27.8621 37.8047C27.9871 37.9298 28.1567 38 28.3335 38H37.6668C37.8436 38 38.0132 37.9298 38.1382 37.8047C38.2633 37.6797 38.3335 37.5101 38.3335 37.3333V28.2222L36.6668 26H29.3335Z" fill="#313237"/>
<path fill-rule="evenodd" clip-rule="evenodd" d="M26.3335 28C26.3335 27.6318 26.632 27.3333 27.0002 27.3333H39.0002C39.3684 27.3333 39.6668 27.6318 39.6668 28C39.6668 28.3682 39.3684 28.6667 39.0002 28.6667H27.0002C26.632 28.6667 26.3335 28.3682 26.3335 28Z" fill="#313237"/>
<path fill-rule="evenodd" clip-rule="evenodd" d="M30.3337 30C30.7018 30 31.0003 30.2985 31.0003 30.6667C31.0003 31.1971 31.211 31.7058 31.5861 32.0809C31.9612 32.456 32.4699 32.6667 33.0003 32.6667C33.5308 32.6667 34.0395 32.456 34.4145 32.0809C34.7896 31.7058 35.0003 31.1971 35.0003 30.6667C35.0003 30.2985 35.2988 30 35.667 30C36.0352 30 36.3337 30.2985 36.3337 30.6667C36.3337 31.5507 35.9825 32.3986 35.3573 33.0237C34.7322 33.6488 33.8844 34 33.0003 34C32.1163 34 31.2684 33.6488 30.6433 33.0237C30.0182 32.3986 29.667 31.5507 29.667 30.6667C29.667 30.2985 29.9655 30 30.3337 30Z" fill="#313237"/>
<defs>
<filter id="filter0_d_2_103" x="0" y="0" width="65" height="64" filterUnits="userSpaceOnUse" color-interpolation-filters="sRGB">
<feFlood flood-opacity="0" result="BackgroundImageFix"/>
<feColorMatrix in="SourceAlpha" type="matrix" values="0 0 0 0 0 0 0 0 0 0 0 0 0 0 0 0 0 0 127 0" result="hardAlpha"/>
<feOffset dx="-1"/>
<feColorMatrix type="matrix" values="0 0 0 0 0.886275 0 0 0 0 0.901961 0 0 0 0 0.913725 0 0 0 1 0"/>
<feBlend mode="normal" in2="BackgroundImageFix" result="effect1_dropShadow_2_103"/>
<feBlend mode="normal" in="SourceGraphic" in2="effect1_dropShadow_2_103" result="shape"/>
</filter>
</defs>
</svg>
