<svg width="16" height="16" viewBox="0 0 16 16" fill="none" xmlns="http://www.w3.org/2000/svg">
<path fill-rule="evenodd" clip-rule="evenodd" d="M3.54199 2.09839C3.79599 1.56639 4.36499 1.19739 4.99999 1.19739H11C11.635 1.19739 12.204 1.56639 12.458 2.09839L13.416 4.19739H14C14.552 4.19739 15 4.64439 15 5.19739V13.1974C15 13.7494 14.552 14.1974 14 14.1974H1.99999C1.44799 14.1974 0.999993 13.7494 0.999993 13.1974V5.19739C0.999993 4.64439 1.44799 4.19739 1.99999 4.19739H2.58399L3.54199 2.09839ZM4.99999 2.19739C4.77299 2.19739 4.56599 2.32539 4.47399 2.52539L3.72399 4.19739H12.276L11.526 2.52539C11.434 2.32539 11.227 2.19739 11 2.19739H4.99999ZM1.99999 5.19739V13.1974H14V5.19739H1.99999ZM4.99999 7.69739C4.99999 7.42039 5.22399 7.19739 5.49999 7.19739H10.5C10.776 7.19739 11 7.42039 11 7.69739C11 7.97439 10.776 8.19739 10.5 8.19739H5.49999C5.22399 8.19739 4.99999 7.97439 4.99999 7.69739Z" fill="#313237"/>
</svg>

