<svg width="16" height="16" viewBox="0 0 16 16" fill="none" xmlns="http://www.w3.org/2000/svg">
<path d="M12.4716 4.4714C12.7319 4.21106 12.7319 3.78895 12.4716 3.5286C12.2112 3.26825 11.7891 3.26825 11.5288 3.5286L8.00024 7.05714L4.47169 3.5286C4.21134 3.26825 3.78923 3.26825 3.52889 3.5286C3.26854 3.78895 3.26854 4.21106 3.52889 4.4714L7.05743 7.99995L3.52889 11.5285C3.26854 11.7888 3.26854 12.2109 3.52889 12.4713C3.78923 12.7316 4.21134 12.7316 4.47169 12.4713L8.00024 8.94275L11.5288 12.4713C11.7891 12.7316 12.2112 12.7316 12.4716 12.4713C12.7319 12.2109 12.7319 11.7888 12.4716 11.5285L8.94305 7.99995L12.4716 4.4714Z" fill="#313237"/>
</svg>

