<?xml version="1.0" encoding="UTF-8" standalone="no"?>
<svg
   width="16"
   height="14"
   viewBox="0 0 16 14"
   fill="none"
   version="1.1"
   id="svg1"
   xmlns="http://www.w3.org/2000/svg"
   xmlns:svg="http://www.w3.org/2000/svg">
  <defs
     id="defs1" />
  <path
     fill-rule="evenodd"
     clip-rule="evenodd"
     d="M 9.62852,0.631371 C 10.1584,0.411797 10.7264,0.298782 11.3,0.298782 c 0.5737,0 1.1416,0.113015 1.6716,0.332589 0.5299,0.219574 1.0114,0.541399 1.4169,0.947099 0.4056,0.40547 0.7273,0.88685 0.9468,1.41667 0.2196,0.52992 0.3326,1.09791 0.3326,1.67153 0,0.57361 -0.113,1.1416 -0.3326,1.67152 -0.2195,0.52987 -0.5413,1.0113 -0.9469,1.41678 -1e-4,4e-5 0,-4e-5 0,0 L 8.49502,13.6483 c -0.27337,0.2734 -0.71658,0.2734 -0.98995,0 L 1.61174,7.75497 C 0.792668,6.9359 0.33252,5.82501 0.33252,4.66667 c 0,-1.15834 0.460148,-2.26924 1.27922,-3.08831 0.81907,-0.819072 1.92997,-1.279221 3.08831,-1.279221 1.15834,0 2.26923,0.460149 3.0883,1.279221 l 0.2117,0.21169 0.21157,-0.21158 c -4e-5,4e-5 4e-5,-3e-5 0,0 C 8.61711,1.17283 9.09865,0.850924 9.62852,0.631371 Z M 13.3983,2.56819 C 13.1228,2.29256 12.7957,2.07392 12.4357,1.92474 12.0756,1.77556 11.6898,1.69878 11.3,1.69878 c -0.3897,0 -0.7755,0.07678 -1.1356,0.22596 C 9.80441,2.07392 9.4773,2.29256 9.2018,2.56819 L 8.49502,3.27497 c -0.27337,0.27337 -0.71658,0.27337 -0.98995,0 L 6.7984,2.56831 C 6.24189,2.01179 5.48708,1.69914 4.70005,1.69914 c -0.78704,0 -1.54184,0.31265 -2.09836,0.86917 -0.55652,0.55652 -0.86917,1.31132 -0.86917,2.09836 0,0.78703 0.31265,1.54184 0.86917,2.09835 L 8.00005,12.1634 13.3984,6.76502 C 13.674,6.48953 13.8928,6.16231 14.042,5.80228 14.1911,5.44226 14.2679,5.05637 14.2679,4.66667 14.2679,4.27696 14.1911,3.89107 14.042,3.53105 13.8928,3.17103 13.6739,2.84369 13.3983,2.56819 Z"
     fill="#0F0F11"
     id="path1"
     style="fill:#ffffff;fill-opacity:1" />
</svg>
