<?xml version="1.0" encoding="UTF-8" standalone="no"?>
<svg
   width="14"
   height="10"
   viewBox="0 0 14 10"
   fill="none"
   version="1.1"
   id="svg3"
   xmlns="http://www.w3.org/2000/svg"
   xmlns:svg="http://www.w3.org/2000/svg">
  <defs
     id="defs3" />
  <path
     d="M 0,1.5 C 0,1.08579 0.391751,0.75 0.875,0.75 h 12.25 C 13.6082,0.75 14,1.08579 14,1.5 14,1.91421 13.6082,2.25 13.125,2.25 H 0.875 C 0.391751,2.25 0,1.91421 0,1.5 Z"
     fill="#0F0F11"
     id="path1"
     style="fill:#ffffff;fill-opacity:1" />
  <path
     d="M 0,5 C 0,4.58579 0.391751,4.25 0.875,4.25 h 12.25 C 13.6082,4.25 14,4.58579 14,5 14,5.41421 13.6082,5.75 13.125,5.75 H 0.875 C 0.391751,5.75 0,5.41421 0,5 Z"
     fill="#0F0F11"
     id="path2"
     style="fill:#ffffff;fill-opacity:1" />
  <path
     d="M 0.875,7.75 C 0.391751,7.75 0,8.08579 0,8.5 0,8.91421 0.391751,9.25 0.875,9.25 h 12.25 C 13.6082,9.25 14,8.91421 14,8.5 14,8.08579 13.6082,7.75 13.125,7.75 Z"
     fill="#0F0F11"
     id="path3"
     style="fill:#ffffff;fill-opacity:1" />
</svg>
