<?xml version="1.0" encoding="UTF-8" standalone="no"?>
<svg
   width="16"
   height="16"
   viewBox="0 0 16 16"
   fill="none"
   version="1.1"
   id="svg3"
   xmlns="http://www.w3.org/2000/svg"
   xmlns:svg="http://www.w3.org/2000/svg">
  <defs
     id="defs3" />
  <path
     fill-rule="evenodd"
     clip-rule="evenodd"
     d="M 3.46683,0.933323 C 3.59273,0.765453 3.79032,0.666656 4.00016,0.666656 h 8.00004 c 0.2098,0 0.4074,0.098797 0.5333,0.266667 l 2,2.666667 c 0.0865,0.1154 0.1333,0.25575 0.1333,0.4 v 9.33331 c 0,0.5305 -0.2107,1.0392 -0.5858,1.4142 -0.375,0.3751 -0.8837,0.5858 -1.4142,0.5858 H 3.3335 c -0.53044,0 -1.03914,-0.2107 -1.41422,-0.5858 C 1.54421,14.3725 1.3335,13.8638 1.3335,13.3333 V 3.99999 c 0,-0.14425 0.04678,-0.2846 0.13333,-0.4 z M 4.3335,1.99999 2.66683,4.22221 v 9.11109 c 0,0.1768 0.07024,0.3464 0.19526,0.4714 C 2.98712,13.9298 3.15669,14 3.3335,14 h 9.3333 c 0.1768,0 0.3464,-0.0702 0.4714,-0.1953 0.1251,-0.125 0.1953,-0.2946 0.1953,-0.4714 V 4.22221 L 11.6668,1.99999 Z"
     fill="#0F0F11"
     id="path1"
     style="fill:#ffffff;fill-opacity:1" />
  <path
     fill-rule="evenodd"
     clip-rule="evenodd"
     d="m 1.3335,4.00001 c 0,-0.36819 0.29847,-0.66667 0.66666,-0.66667 H 14.0002 c 0.3682,0 0.6666,0.29848 0.6666,0.66667 0,0.36819 -0.2984,0.66667 -0.6666,0.66667 H 2.00016 C 1.63197,4.66668 1.3335,4.3682 1.3335,4.00001 Z"
     fill="#0F0F11"
     id="path2"
     style="fill:#ffffff;fill-opacity:1" />
  <path
     fill-rule="evenodd"
     clip-rule="evenodd"
     d="m 5.33366,6 c 0.36819,0 0.66667,0.29848 0.66667,0.66667 0,0.53043 0.21071,1.03914 0.58578,1.41421 0.37507,0.37507 0.88378,0.58579 1.41422,0.58579 0.53043,0 1.03914,-0.21072 1.41421,-0.58579 C 9.78961,7.70581 10.0003,7.1971 10.0003,6.66667 10.0003,6.29848 10.2988,6 10.667,6 c 0.3682,0 0.6667,0.29848 0.6667,0.66667 0,0.88405 -0.3512,1.7319 -0.9764,2.35702 C 9.73223,9.64881 8.88438,10 8.00033,10 7.11627,10 6.26842,9.64881 5.6433,9.02369 5.01818,8.39857 4.66699,7.55072 4.66699,6.66667 4.66699,6.29848 4.96547,6 5.33366,6 Z"
     fill="#0F0F11"
     id="path3"
     style="fill:#ffffff;fill-opacity:1" />
</svg>
