<?xml version="1.0" encoding="iso-8859-1"?>
<!-- Uploaded to: SVG Repo, www.svgrepo.com, Generator: SVG Repo Mixer Tools -->
<svg version="1.1" id="Layer_1" xmlns="http://www.w3.org/2000/svg" xmlns:xlink="http://www.w3.org/1999/xlink" 
	 viewBox="0 0 512.001 512.001" xml:space="preserve">
<path style="fill:#E1EAF6;" d="M389.63,388.817v85.768c0,13.542-10.976,24.518-24.505,24.518H146.876
	c-13.529,0-24.505-10.976-24.505-24.518v-85.768H389.63z"/>
<rect x="122.371" y="85.342" style="fill:#94D8F2;" width="267.259" height="303.475"/>
<path style="fill:#E1EAF6;" d="M389.63,37.415v47.927H122.371V37.415c0-13.542,10.976-24.518,24.505-24.518h218.249
	C378.655,12.897,389.63,23.873,389.63,37.415z"/>
<path d="M402.528,474.586V37.415C402.528,16.785,385.75,0,365.125,0H146.876c-20.624,0-37.402,16.785-37.402,37.415v437.171
	c0,20.631,16.778,37.415,37.402,37.415h218.249C385.75,512,402.528,495.217,402.528,474.586z M146.876,25.795h218.249
	c6.4,0,11.608,5.213,11.608,11.621v338.506H135.268V98.239h171.677c7.123,0,12.897-5.775,12.897-12.897s-5.774-12.897-12.897-12.897
	H135.268V37.415C135.268,31.008,140.476,25.795,146.876,25.795z M135.268,474.586v-72.87h241.465v72.87
	c0,6.407-5.208,11.621-11.608,11.621H146.876C140.476,486.205,135.268,480.992,135.268,474.586z"/>
<path d="M345.101,98.239h4.837c7.123,0,12.897-5.775,12.897-12.897s-5.774-12.897-12.897-12.897h-4.837
	c-7.123,0-12.897,5.775-12.897,12.897S337.978,98.239,345.101,98.239z"/>
<path d="M276.933,431.469h-41.852c-7.123,0-12.897,5.775-12.897,12.897c0,7.122,5.774,12.897,12.897,12.897h41.852
	c7.123,0,12.897-5.775,12.897-12.897C289.83,437.244,284.056,431.469,276.933,431.469z"/>
</svg>