<svg xmlns="http://www.w3.org/2000/svg" xmlns:xlink="http://www.w3.org/1999/xlink" width="500" zoomAndPan="magnify" viewBox="0 0 375 374.999991" height="500" preserveAspectRatio="xMidYMid meet" version="1.0"><defs><g/><clipPath id="dcc1e74ffd"><path d="M 5.222656 5.222656 L 370.144531 5.222656 L 370.144531 370.144531 L 5.222656 370.144531 Z M 5.222656 5.222656 " clip-rule="nonzero"/></clipPath><clipPath id="659c3bc75c"><path d="M 187.683594 5.222656 C 86.914062 5.222656 5.222656 86.914062 5.222656 187.683594 C 5.222656 288.453125 86.914062 370.144531 187.683594 370.144531 C 288.453125 370.144531 370.144531 288.453125 370.144531 187.683594 C 370.144531 86.914062 288.453125 5.222656 187.683594 5.222656 Z M 187.683594 5.222656 " clip-rule="nonzero"/></clipPath><clipPath id="1a48d7642c"><path d="M 0.222656 0.222656 L 365.144531 0.222656 L 365.144531 365.144531 L 0.222656 365.144531 Z M 0.222656 0.222656 " clip-rule="nonzero"/></clipPath><clipPath id="903ba09242"><path d="M 182.683594 0.222656 C 81.914062 0.222656 0.222656 81.914062 0.222656 182.683594 C 0.222656 283.453125 81.914062 365.144531 182.683594 365.144531 C 283.453125 365.144531 365.144531 283.453125 365.144531 182.683594 C 365.144531 81.914062 283.453125 0.222656 182.683594 0.222656 Z M 182.683594 0.222656 " clip-rule="nonzero"/></clipPath><clipPath id="74cec65a23"><rect x="0" width="366" y="0" height="366"/></clipPath></defs><g clip-path="url(#dcc1e74ffd)"><g clip-path="url(#659c3bc75c)"><g transform="matrix(1, 0, 0, 1, 5, 5)"><g clip-path="url(#74cec65a23)"><g clip-path="url(#1a48d7642c)"><g clip-path="url(#903ba09242)"><path fill="#2e1a00" d="M 0.222656 0.222656 L 365.144531 0.222656 L 365.144531 365.144531 L 0.222656 365.144531 Z M 0.222656 0.222656 " fill-opacity="1" fill-rule="nonzero"/></g></g></g></g></g></g><g fill="#ffffff" fill-opacity="1"><g transform="translate(92.357589, 297.953304)"><g><path d="M 103.609375 -226 L 175.265625 -226 L 175.265625 -140.578125 Z M 103.609375 0 L 175.265625 -85.421875 L 175.265625 0 Z M 96.734375 0 C 66.984375 -2.34375 44.414062 -13.113281 29.03125 -32.3125 C 13.644531 -51.519531 5.953125 -78.390625 5.953125 -112.921875 C 5.953125 -147.554688 13.644531 -174.425781 29.03125 -193.53125 C 44.414062 -212.632812 66.984375 -223.457031 96.734375 -226 Z M 96.734375 0 "/></g></g></g></svg>