<svg width="16" height="14" viewBox="0 0 16 14" fill="none" xmlns="http://www.w3.org/2000/svg">
<path fill-rule="evenodd" clip-rule="evenodd" d="M9.62803 0.631371C10.158 0.411797 10.7259 0.298782 11.2996 0.298782C11.8732 0.298782 12.4412 0.411797 12.9711 0.631371C13.501 0.850945 13.9825 1.17277 14.388 1.57847C14.7936 1.98394 15.1153 2.46532 15.3349 2.99514C15.5544 3.52506 15.6674 4.09305 15.6674 4.66667C15.6674 5.24028 15.5544 5.80827 15.3349 6.33819C15.1153 6.86806 14.7935 7.34949 14.3879 7.75497C14.3878 7.75501 14.3879 7.75493 14.3879 7.75497L8.49453 13.6483C8.22117 13.9217 7.77795 13.9217 7.50458 13.6483L1.61125 7.75497C0.79218 6.9359 0.332031 5.82501 0.332031 4.66667C0.332031 3.50833 0.79218 2.39743 1.61125 1.57836C2.43032 0.759288 3.54122 0.299139 4.69956 0.299139C5.8579 0.299139 6.9688 0.759288 7.78787 1.57836L7.99956 1.79005L8.21113 1.57847C8.2111 1.57851 8.21117 1.57844 8.21113 1.57847C8.61662 1.17283 9.09816 0.850924 9.62803 0.631371ZM13.3978 2.56819C13.1223 2.29256 12.7952 2.07392 12.4352 1.92474C12.0751 1.77556 11.6893 1.69878 11.2996 1.69878C10.9099 1.69878 10.524 1.77556 10.1639 1.92474C9.80392 2.07392 9.47681 2.29256 9.20132 2.56819L8.49453 3.27497C8.22117 3.54834 7.77795 3.54834 7.50458 3.27497L6.79792 2.56831C6.2414 2.01179 5.4866 1.69914 4.69956 1.69914C3.91252 1.69914 3.15772 2.01179 2.6012 2.56831C2.04468 3.12483 1.73203 3.87963 1.73203 4.66667C1.73203 5.4537 2.04468 6.20851 2.6012 6.76502L7.99956 12.1634L13.3979 6.76502C13.6735 6.48953 13.8923 6.16231 14.0415 5.80228C14.1907 5.44226 14.2674 5.05637 14.2674 4.66667C14.2674 4.27696 14.1907 3.89107 14.0415 3.53105C13.8923 3.17103 13.6734 2.84369 13.3978 2.56819Z" fill="#F1F2F9"/>
</svg>
