<svg width="16" height="16" viewBox="0 0 16 16" fill="none" xmlns="http://www.w3.org/2000/svg">
  <path fill-rule="evenodd" clip-rule="evenodd" d="M11.3 1.29878C10.7264 1.29878 10.1584 1.4118 9.6286 1.63137C9.09877 1.85094 8.61765 2.17277 8.21261 2.57791L8.00002 2.79062L7.78743 2.57791C6.96867 1.75868 5.8584 1.29899 4.70002 1.29878C3.54164 1.29856 2.4312 1.75785 1.61213 2.5768C0.793063 3.39576 0.333588 4.50625 0.333801 5.66463C0.334015 6.82302 0.793899 7.93332 1.61313 8.75193L7.52665 14.6654C7.78873 14.9275 8.21131 14.9275 8.47339 14.6654L14.387 8.75193C14.7921 8.34689 15.1139 7.86578 15.3335 7.33595C15.5531 6.80613 15.6661 6.23806 15.6661 5.66456C15.6661 5.09107 15.5531 4.523 15.3336 3.99318C15.114 3.46335 14.7921 2.98218 14.387 2.57714L14.3867 2.57691C13.9817 2.17198 13.5006 1.85034 12.9708 1.63097C12.4409 1.4116 11.8731 1.29878 11.2997 1.29878H11.3Z" fill="#EB5757"/>
</svg>
