<svg width="16" height="16" viewBox="0 0 16 16" fill="none" xmlns="http://www.w3.org/2000/svg">
<path fill-rule="evenodd" clip-rule="evenodd" d="M11.3 1.29883C10.7264 1.29883 10.1584 1.41184 9.62852 1.63142C9.09865 1.85097 8.61711 2.17288 8.21162 2.57852L8.00005 2.7901L7.78835 2.5784C6.96928 1.75933 5.85839 1.29918 4.70005 1.29918C3.54171 1.29918 2.43081 1.75933 1.61174 2.5784C0.792668 3.39747 0.33252 4.50837 0.33252 5.66671C0.33252 6.82505 0.792668 7.93595 1.61174 8.75502L7.50507 14.6484C7.77844 14.9217 8.22165 14.9217 8.49502 14.6484L14.3884 8.75502C14.794 8.34953 15.1158 7.86811 15.3353 7.33824C15.5549 6.80831 15.6679 6.24032 15.6679 5.66671C15.6679 5.0931 15.5549 4.52511 15.3353 3.99519C15.1158 3.46537 14.7941 2.98398 14.3885 2.57852C13.983 2.17282 13.5015 1.85099 12.9716 1.63142C12.4416 1.41184 11.8737 1.29883 11.3 1.29883Z" fill="#EB5757"/>
</svg>
