<svg width="47" height="9" viewBox="0 0 47 9" fill="none" xmlns="http://www.w3.org/2000/svg">
<path d="M4.17623 4.20008V5.59208H6.69623C6.38423 6.45608 5.43623 7.03208 4.35623 7.03208C2.84423 7.03208 1.84823 5.95208 1.84823 4.39208C1.84823 2.82008 2.86823 1.74008 4.35623 1.74008C5.41223 1.74008 6.30023 2.30408 6.66023 3.20408H8.53223C8.13623 1.32008 6.40823 7.77245e-05 4.32023 7.77245e-05C1.83623 7.77245e-05 0.000226572 1.88408 0.000226572 4.39208C0.000226572 6.91208 1.88423 8.77208 4.35623 8.77208C6.87623 8.77208 8.64023 6.82808 8.64023 4.20008H4.17623ZM10.5347 8.58008H12.3467V0.180078H10.5347V8.58008ZM20.537 0.180078H14.045V1.87208H16.385V8.58008H18.197V1.87208H20.537V0.180078ZM27.2208 0.180078V3.42008H24.0528V0.180078H22.2408V8.58008H24.0528V5.11208H27.2208V8.58008H29.0328V0.180078H27.2208ZM34.8236 8.77208C36.8036 8.77208 38.2916 7.39208 38.2916 5.42408V0.180078H36.4676V5.34008C36.4676 6.38408 35.7836 7.05608 34.8236 7.05608C33.8516 7.05608 33.1676 6.38408 33.1676 5.34008V0.180078H31.3436V5.42408C31.3436 7.39208 32.8316 8.77208 34.8236 8.77208ZM45.6552 4.15208C46.2432 3.74408 46.6032 3.07208 46.6032 2.35208C46.6032 1.11608 45.5232 0.192077 44.0712 0.192077H40.6032V8.59208H44.1672C45.6312 8.59208 46.8192 7.51208 46.8192 6.16808C46.8192 5.26808 46.3872 4.54808 45.6552 4.15208ZM44.8392 2.62808C44.8392 3.15608 44.4672 3.52808 43.9032 3.52808H42.3792V1.74008H43.9032C44.4672 1.74008 44.8392 2.10008 44.8392 2.62808ZM43.9992 6.92408H42.3792V5.04008H43.9992C44.5992 5.04008 44.9952 5.43608 44.9952 5.97608C44.9952 6.52808 44.5992 6.92408 43.9992 6.92408Z" fill="#89939A"/>
</svg>
