<svg width="16" height="16" viewBox="0 0 16 16" fill="none" xmlns="http://www.w3.org/2000/svg">
<path fill-rule="evenodd" clip-rule="evenodd" d="M11.25 2.995C10.606 2.995 9.882 3.259 9.16 3.954L8.531 4.553L8 5.061L7.469 4.553L6.84 3.954C6.118 3.259 5.394 2.995 4.75 2.995C4.11 2.995 3.396 3.255 2.69 3.936C1.985 4.617 1.5 5.705 1.5 7.161C1.5 8.631 2.281 10.021 3.421 11.198C4.559 12.372 5.993 13.271 7.081 13.786L8 14.22L8.919 13.786C10.007 13.271 11.441 12.372 12.579 11.198C13.719 10.021 14.5 8.631 14.5 7.161C14.5 5.705 14.015 4.617 13.31 3.936C12.604 3.255 11.89 2.995 11.25 2.995Z" fill="#EB5757"/>
</svg>

