<?xml version="1.0" encoding="utf-8"?>
<!-- Generator: Adobe Illustrator 27.5.0, SVG Export Plug-In . SVG Version: 6.00 Build 0)  -->
<svg version="1.1" id="Layer_1" xmlns="http://www.w3.org/2000/svg" xmlns:xlink="http://www.w3.org/1999/xlink" x="0px" y="0px"
	 viewBox="0 0 512 512" style="enable-background:new 0 0 512 512;" xml:space="preserve">
<style type="text/css">
	.st0{fill:#323542;}
</style>
<g id="Aih4kt_00000088133413555305034500000004744968163652238996_">
	<g>
		<path class="st0" d="M255.17,103.14c9.28-8.9,17.55-18.4,27.32-25.97c82.2-63.67,201.85-17.49,219.47,85.69
			c6.59,38.57-2.47,74.84-19.51,109.34c-19.14,38.73-47.1,70.54-79.33,98.76c-42.4,37.12-89.62,66.89-140.44,91.05
			c-3.9,1.85-7.52,2.87-11.86,0.8c-60.85-29.13-116.98-65.15-164.72-113.26c-29.53-29.75-53.81-63.18-67.56-103.27
			c-12.08-35.23-15.3-70.84-2.71-106.79c20.65-58.99,80.35-96.99,142.42-90.66c38.99,3.98,70.57,21.41,95,51.98
			C253.96,101.71,254.72,102.59,255.17,103.14z M23.93,191.44c0.12,10.31,2.33,25.42,6.63,40.23
			c11.24,38.72,33.25,70.97,60.64,99.79c46.4,48.81,101.85,84.97,161.91,114.5c1.7,0.83,4.58,0.6,6.36-0.27
			c51.42-25.19,99.28-55.77,141.52-94.67c27.15-25.01,50.89-52.78,67.32-86.16c15.65-31.78,23.58-65.05,17.75-100.63
			c-14.09-86-116.8-129.01-188.05-78.84c-13.82,9.73-25.17,21.7-34.2,35.98c-4.42,6.98-11.01,6.94-15.58,0.16
			c-0.56-0.83-1.05-1.7-1.61-2.53C224.07,85.61,192.64,67,152.54,64.38C82.46,59.8,23.57,115.98,23.93,191.44z"/>
		<path class="st0" d="M256.24,264.18c15.32,0,30.64-0.01,45.97,0.01c7.04,0.01,9.72,2.64,9.75,9.49
			c0.11,28.72-25.3,53.86-54.05,54.66c-25.92,0.73-52.94-17.26-57.68-48.77c-0.32-2.13-0.28-4.32-0.27-6.48
			c0.04-6.01,2.84-8.87,8.82-8.89C224.59,264.15,240.42,264.18,256.24,264.18z M217.14,280.32c3.74,18.99,21,32.85,40.88,31.66
			c18.91-1.13,35.06-15.64,36.31-31.66C268.68,280.32,243.04,280.32,217.14,280.32z"/>
		<path class="st0" d="M411.75,184.22c-13.92-0.73-24.72-6.8-31.36-19.05c-6.65-12.27-6.03-24.73,1.51-36.48
			c5.57-8.68,11.58-17.08,17.58-25.47c6.85-9.57,18.15-9.6,24.96-0.06c6,8.39,12.02,16.79,17.58,25.47
			c7.52,11.76,8.09,24.23,1.48,36.49C436.78,177.59,425.8,183.64,411.75,184.22z M412.02,113.08c-6.18,8.95-11.98,16.87-17.25,25.14
			c-5.12,8.03-3.16,18.64,4.04,24.93c7.23,6.32,17.65,6.66,25.31,0.83c7.56-5.75,10.47-16.46,5.65-24.59
			C424.54,130.57,418.33,122.34,412.02,113.08z"/>
		<path class="st0" d="M207.92,229.44c-0.06,6.27-3.08,9.7-7.67,9.86c-4.48,0.16-8.07-2.69-8.19-7.56
			c-0.22-9.29-8.4-15.67-16.29-15.57c-8.57,0.11-14.64,5.97-15.86,15.39c-0.66,5.11-3.96,8.06-8.62,7.72
			c-4.56-0.32-7.37-3.77-7.33-9c0.12-14.84,12.72-28.14,28.39-29.97c15.63-1.82,30.78,8.42,34.52,23.39
			C207.44,225.96,207.71,228.28,207.92,229.44z"/>
		<path class="st0" d="M367.93,230.35c0.03,5.19-2.84,8.65-7.4,8.94c-4.66,0.3-7.9-2.65-8.56-7.79
			c-1.19-9.37-7.32-15.27-15.92-15.32c-8.61-0.05-14.98,5.94-16.1,15.13c-0.66,5.42-4.03,8.44-8.88,7.96
			c-4.49-0.44-7.19-3.96-7.07-9.22c0.34-16.28,15.03-29.94,32.12-29.87C353.23,200.23,367.85,214.11,367.93,230.35z"/>
	</g>
</g>
</svg>
