<svg width="16" height="16" viewBox="0 0 16 16" fill="none" xmlns="http://www.w3.org/2000/svg">
<path fill-rule="evenodd" clip-rule="evenodd" d="M11.25 2.995C10.606 2.995 9.882 3.259 9.16 3.954L8.531 4.553L8 5.061L7.469 4.553L6.84 3.954C6.118 3.259 5.394 2.995 4.75 2.995C4.11 2.995 3.396 3.255 2.69 3.936C1.985 4.617 1.5 5.705 1.5 7.161C1.5 8.631 2.281 10.021 3.421 11.198C4.559 12.372 5.993 13.271 7.081 13.786L8 14.22L8.919 13.786C10.007 13.271 11.441 12.372 12.579 11.198C13.719 10.021 14.5 8.631 14.5 7.161C14.5 5.705 14.015 4.617 13.31 3.936C12.604 3.255 11.89 2.995 11.25 2.995ZM8 3.494L7.547 3.069C6.659 2.217 5.672 1.795 4.75 1.795C3.824 1.795 2.86 2.213 2.012 3.015C1.163 3.818 0.5 5.068 0.5 6.961V7.161C0.5 8.921 1.431 10.521 2.649 11.786C3.865 13.048 5.399 14.011 6.581 14.569L8 15.22L9.419 14.569C10.601 14.011 12.135 13.048 13.351 11.786C14.569 10.521 15.5 8.921 15.5 7.161V6.961C15.5 5.068 14.837 3.818 13.988 3.015C13.14 2.213 12.176 1.795 11.25 1.795C10.328 1.795 9.341 2.217 8.453 3.069L8 3.494Z" fill="#313237"/>
</svg>

