<svg width="16" height="16" viewBox="0 0 16 16" fill="none" xmlns="http://www.w3.org/2000/svg">
<path fill-rule="evenodd" clip-rule="evenodd" d="M7.59136 0.807058C7.8321 0.619815 8.1692 0.619815 8.40994 0.807058L14.4099 5.47372C14.5723 5.60003 14.6673 5.79423 14.6673 5.99996V13.3333C14.6673 13.8637 14.4566 14.3724 14.0815 14.7475C13.7065 15.1226 13.1978 15.3333 12.6673 15.3333H3.33398C2.80355 15.3333 2.29484 15.1226 1.91977 14.7475C1.5447 14.3724 1.33398 13.8637 1.33398 13.3333V5.99996C1.33398 5.79423 1.42897 5.60003 1.59136 5.47372L7.59136 0.807058ZM2.66732 6.32601V13.3333C2.66732 13.5101 2.73756 13.6797 2.86258 13.8047C2.9876 13.9297 3.15717 14 3.33398 14H12.6673C12.8441 14 13.0137 13.9297 13.1387 13.8047C13.2637 13.6797 13.334 13.5101 13.334 13.3333V6.32601L8.00065 2.17787L2.66732 6.32601Z" fill="#313237"/>
<path fill-rule="evenodd" clip-rule="evenodd" d="M5.33398 8.00004C5.33398 7.63185 5.63246 7.33337 6.00065 7.33337H10.0007C10.3688 7.33337 10.6673 7.63185 10.6673 8.00004V14.6667C10.6673 15.0349 10.3688 15.3334 10.0007 15.3334C9.63246 15.3334 9.33398 15.0349 9.33398 14.6667V8.66671H6.66732V14.6667C6.66732 15.0349 6.36884 15.3334 6.00065 15.3334C5.63246 15.3334 5.33398 15.0349 5.33398 14.6667V8.00004Z" fill="#313237"/>
</svg>
