<?xml version="1.0" encoding="utf-8"?><!-- Uploaded to: SVG Repo, www.svgrepo.com, Generator: SVG Repo Mixer Tools -->
<svg width="800px" height="800px" viewBox="0 0 24 24" fill="none" xmlns="http://www.w3.org/2000/svg">
<path fill-rule="evenodd" clip-rule="evenodd" d="M16 8C13.7909 8 12 9.79086 12 12C12 14.2091 13.7909 16 16 16C18.2091 16 20 14.2091 20 12C20 9.79086 18.2091 8 16 8ZM11.5278 16C10.5777 14.9385 10 13.5367 10 12C10 10.4633 10.5777 9.06151 11.5278 8H8C5.79086 8 4 9.79086 4 12C4 14.2091 5.79086 16 8 16H11.5278ZM2 12C2 8.68629 4.68629 6 8 6H16C19.3137 6 22 8.68629 22 12C22 15.3137 19.3137 18 16 18H8C4.68629 18 2 15.3137 2 12Z" fill="#000000"/>
</svg>