<svg width="10" height="10" viewBox="0 0 10 10" fill="none" xmlns="http://www.w3.org/2000/svg">
<path fill-rule="evenodd" clip-rule="evenodd" d="M9.13807 1.13807C9.39842 0.877722 9.39842 0.455612 9.13807 0.195262C8.87772 -0.0650874 8.45561 -0.0650874 8.19526 0.195262L4.66667 3.72386L1.13807 0.195262C0.877722 -0.0650874 0.455612 -0.0650874 0.195262 0.195262C-0.0650874 0.455612 -0.0650874 0.877722 0.195262 1.13807L3.72386 4.66667L0.195262 8.19526C-0.0650874 8.45561 -0.0650874 8.87772 0.195262 9.13807C0.455612 9.39842 0.877722 9.39842 1.13807 9.13807L4.66667 5.60948L8.19526 9.13807C8.45561 9.39842 8.87772 9.39842 9.13807 9.13807C9.39842 8.87772 9.39842 8.45561 9.13807 8.19526L5.60948 4.66667L9.13807 1.13807Z" fill="#313237"/>
</svg>
