<svg width="16" height="16" viewBox="0 0 16 16" fill="none" xmlns="http://www.w3.org/2000/svg">
<path fill-rule="evenodd" clip-rule="evenodd" d="M8.66699 3.33341C8.66699 2.96522 8.36852 2.66675 8.00033 2.66675C7.63214 2.66675 7.33366 2.96522 7.33366 3.33341V7.33342H3.33366C2.96547 7.33342 2.66699 7.63189 2.66699 8.00008C2.66699 8.36827 2.96547 8.66675 3.33366 8.66675H7.33366V12.6667C7.33366 13.0349 7.63214 13.3334 8.00033 13.3334C8.36852 13.3334 8.66699 13.0349 8.66699 12.6667V8.66675H12.667C13.0352 8.66675 13.3337 8.36827 13.3337 8.00008C13.3337 7.63189 13.0352 7.33342 12.667 7.33342H8.66699V3.33341Z" fill="#313237"/>
</svg>
