<svg width="16" height="14" viewBox="0 0 16 14" fill="none" xmlns="http://www.w3.org/2000/svg">
<path fill-rule="evenodd" clip-rule="evenodd" d="M11.3 0.298828C10.7264 0.298828 10.1584 0.411843 9.62852 0.631417C9.09865 0.85097 8.61711 1.17288 8.21162 1.57852L8.00005 1.7901L7.78835 1.5784C6.96928 0.759334 5.85839 0.299185 4.70005 0.299185C3.54171 0.299185 2.43081 0.759334 1.61174 1.5784C0.792668 2.39747 0.33252 3.50837 0.33252 4.66671C0.33252 5.82505 0.792668 6.93595 1.61174 7.75502L7.50507 13.6484C7.77844 13.9217 8.22165 13.9217 8.49502 13.6484L14.3884 7.75502C14.794 7.34953 15.1158 6.86811 15.3353 6.33824C15.5549 5.80831 15.6679 5.24032 15.6679 4.66671C15.6679 4.0931 15.5549 3.52511 15.3353 2.99519C15.1158 2.46537 14.7941 1.98398 14.3885 1.57852C13.983 1.17282 13.5015 0.850991 12.9716 0.631417C12.4416 0.411843 11.8737 0.298828 11.3 0.298828Z" fill="#EB5757"/>
</svg>
