<svg width="16" height="14" viewBox="0 0 16 14" fill="none" xmlns="http://www.w3.org/2000/svg">
  <path fillRule="evenodd" clipRule="evenodd" d="M 9.6285 0.6314 C 10.1584 0.4118 10.7264 0.2988 11.3 0.2988 C 11.8737 0.2988 12.4416 0.4118 12.9716 0.6314 C 13.5015 0.8509 13.983 1.1728 14.3885 1.5785 C 14.7941 1.9839 15.1158 2.4653 15.3353 2.9951 C 15.5549 3.5251 15.6679 4.093 15.6679 4.6667 C 15.6679 5.2403 15.5549 5.8083 15.3353 6.3382 C 15.1158 6.8681 14.794 7.3495 14.3884 7.755 C 14.3883 7.755 14.3884 7.7549 14.3884 7.755 L 8.495 13.6483 C 8.2217 13.9217 7.7784 13.9217 7.5051 13.6483 L 1.6117 7.755 C 0.7927 6.9359 0.3325 5.825 0.3325 4.6667 C 0.3325 3.5083 0.7927 2.3974 1.6117 1.5784 C 2.4308 0.7593 3.5417 0.2991 4.7001 0.2991 C 5.8584 0.2991 6.9693 0.7593 7.7884 1.5784 L 8 1.79 L 8.2116 1.5785 C 8.2117 1.5784 8.2116 1.5785 8.2116 1.5785 C 8.6171 1.1728 9.0986 0.8509 9.6285 0.6314 Z Z" fill="#EB5757" />
</svg>
