<svg preserveAspectRatio="xMinYMin meet" width="100%" height="100%" overflow="visible" style="display: block;" viewBox="0 0 89 30.2525" fill="none" xmlns="http://www.w3.org/2000/svg">
<g id="Nice Gadgets">
<path d="M11.4173 0.180792V13.4044H8.70044L3.42843 5.77242H3.34433V13.4044H0.142312V0.180792H2.89799L8.11179 7.79987H8.22175V0.180792H11.4173Z" fill="var(--fill-0, #313237)"/>
<path d="M16.6327 0.180792V13.4044H13.4307V0.180792H16.6327Z" fill="var(--fill-0, #313237)"/>
<path d="M30.6682 4.97177H27.4339C27.3908 4.64032 27.3023 4.34115 27.1687 4.07427C27.035 3.80739 26.8582 3.57925 26.6382 3.38985C26.4183 3.20044 26.1574 3.05624 25.8555 2.95724C25.5579 2.85393 25.228 2.80227 24.8658 2.80227C24.2232 2.80227 23.6691 2.95939 23.2033 3.27362C22.7419 3.58785 22.3861 4.04199 22.136 4.63602C21.8902 5.23005 21.7673 5.94891 21.7673 6.7926C21.7673 7.67073 21.8923 8.40681 22.1425 9.00084C22.3969 9.59057 22.7527 10.0361 23.2098 10.3374C23.6712 10.6344 24.2168 10.7829 24.8464 10.7829C25.2 10.7829 25.5213 10.7377 25.8102 10.6473C26.1035 10.5569 26.3601 10.4257 26.58 10.2535C26.8043 10.077 26.9875 9.86391 27.1298 9.61425C27.2765 9.36028 27.3778 9.07402 27.4339 8.75548L30.6682 8.77485C30.6122 9.36028 30.4418 9.93709 30.1572 10.5053C29.8769 11.0735 29.4909 11.5922 28.9993 12.0614C28.5077 12.5263 27.9083 12.8965 27.201 13.172C26.4981 13.4475 25.6916 13.5852 24.7817 13.5852C23.5828 13.5852 22.509 13.3226 21.5603 12.7975C20.6158 12.268 19.8698 11.4975 19.3221 10.4859C18.7744 9.47435 18.5006 8.24324 18.5006 6.7926C18.5006 5.33766 18.7787 4.1044 19.335 3.09283C19.8913 2.08126 20.6439 1.31289 21.5926 0.787735C22.5414 0.262578 23.6044 0 24.7817 0C25.5838 0 26.3256 0.111919 27.0069 0.335757C27.6883 0.555289 28.2878 0.878131 28.8052 1.30428C29.3227 1.72613 29.7432 2.24483 30.0667 2.86038C30.3901 3.47594 30.5906 4.17973 30.6682 4.97177Z" fill="var(--fill-0, #313237)"/>
<path d="M32.5005 13.4044V0.180792H41.7379V2.77644H35.7025V5.48832H41.2656V8.09043H35.7025V10.8088H41.7379V13.4044H32.5005Z" fill="var(--fill-0, #313237)"/>
<path d="M8.83628 21.1677C8.76297 20.8965 8.65516 20.6576 8.51285 20.451C8.37053 20.2401 8.19588 20.0614 7.98888 19.9151C7.78188 19.7687 7.54469 19.6589 7.27732 19.5858C7.00995 19.5083 6.7167 19.4695 6.39757 19.4695C5.75501 19.4695 5.1987 19.6245 4.72864 19.9344C4.26289 20.2444 3.9028 20.6963 3.64836 21.2904C3.39393 21.8801 3.26671 22.5968 3.26671 23.4405C3.26671 24.2885 3.38961 25.0117 3.63543 25.61C3.88124 26.2083 4.23702 26.6646 4.70277 26.9789C5.16851 27.2931 5.73345 27.4502 6.39757 27.4502C6.98407 27.4502 7.48001 27.3555 7.88538 27.1661C8.29507 26.9724 8.60557 26.6991 8.81688 26.3461C9.02819 25.9931 9.13384 25.5777 9.13384 25.0999L9.72897 25.1709H6.50754V22.84H12.2194V24.5898C12.2194 25.7736 11.9671 26.7873 11.4626 27.631C10.9623 28.4747 10.2723 29.1225 9.39259 29.5745C8.51716 30.0265 7.51019 30.2525 6.3717 30.2525C5.10814 30.2525 3.99767 29.9791 3.0403 29.4325C2.08293 28.8858 1.33687 28.1067 0.802122 27.0951C0.267374 26.0792 0 24.8739 0 23.4792C0 22.3945 0.161718 21.4324 0.485155 20.593C0.808591 19.7493 1.25925 19.0348 1.83712 18.4494C2.4193 17.8639 3.09205 17.4206 3.85536 17.1193C4.62298 16.8179 5.44883 16.6673 6.33289 16.6673C7.10051 16.6673 7.81422 16.777 8.47403 16.9966C9.13816 17.2161 9.72466 17.526 10.2335 17.9264C10.7467 18.3267 11.1629 18.8023 11.482 19.3533C11.8011 19.9043 11.9995 20.5091 12.0771 21.1677H8.83628Z" fill="var(--fill-0, #313237)"/>
<path d="M16.5632 30.0717H13.1218L17.5917 16.8481H21.8546L26.3245 30.0717H22.8831L19.7717 20.1798H19.6682L16.5632 30.0717ZM16.1039 24.8675H23.2971V27.2952H16.1039V24.8675Z" fill="var(--fill-0, #313237)"/>
<path d="M32.6477 30.0717H27.7508V16.8481H32.6412C33.991 16.8481 35.1532 17.1128 36.1279 17.6423C37.1068 18.1674 37.8615 18.925 38.3919 19.9151C38.9223 20.9008 39.1876 22.0803 39.1876 23.4534C39.1876 24.8309 38.9223 26.0146 38.3919 27.0047C37.8658 27.9947 37.1133 28.7545 36.1343 29.284C35.1554 29.8091 33.9932 30.0717 32.6477 30.0717ZM30.9529 27.3469H32.5248C33.2665 27.3469 33.894 27.2221 34.4072 26.9724C34.9247 26.7184 35.3149 26.3073 35.578 25.7391C35.8454 25.1666 35.9791 24.4047 35.9791 23.4534C35.9791 22.5021 35.8454 21.7445 35.578 21.1806C35.3106 20.6124 34.916 20.2035 34.3942 19.9538C33.8767 19.6998 33.2385 19.5729 32.4795 19.5729H30.9529V27.3469Z" fill="var(--fill-0, #313237)"/>
<path d="M49.751 21.1677C49.6777 20.8965 49.5699 20.6576 49.4276 20.451C49.2852 20.2401 49.1106 20.0614 48.9036 19.9151C48.6966 19.7687 48.4594 19.6589 48.192 19.5858C47.9247 19.5083 47.6314 19.4695 47.3123 19.4695C46.6697 19.4695 46.1134 19.6245 45.6433 19.9344C45.1776 20.2444 44.8175 20.6963 44.5631 21.2904C44.3086 21.8801 44.1814 22.5968 44.1814 23.4405C44.1814 24.2885 44.3043 25.0117 44.5501 25.61C44.7959 26.2083 45.1517 26.6646 45.6175 26.9789C46.0832 27.2931 46.6482 27.4502 47.3123 27.4502C47.8988 27.4502 48.3947 27.3555 48.8001 27.1661C49.2098 26.9724 49.5203 26.6991 49.7316 26.3461C49.9429 25.9931 50.0486 25.5777 50.0486 25.0999L50.6437 25.1709H47.4223V22.84H53.1341V24.5898C53.1341 25.7736 52.8819 26.7873 52.3773 27.631C51.877 28.4747 51.1871 29.1225 50.3073 29.5745C49.4319 30.0265 48.4249 30.2525 47.2864 30.2525C46.0228 30.2525 44.9124 29.9791 43.955 29.4325C42.9976 28.8858 42.2516 28.1067 41.7168 27.0951C41.1821 26.0792 40.9147 24.8739 40.9147 23.4792C40.9147 22.3945 41.0764 21.4324 41.3999 20.593C41.7233 19.7493 42.174 19.0348 42.7518 18.4494C43.334 17.8639 44.0068 17.4206 44.7701 17.1193C45.5377 16.8179 46.3635 16.6673 47.2476 16.6673C48.0152 16.6673 48.7289 16.777 49.3887 16.9966C50.0529 17.2161 50.6394 17.526 51.1482 17.9264C51.6614 18.3267 52.0776 18.8023 52.3967 19.3533C52.7158 19.9043 52.9142 20.5091 52.9918 21.1677H49.751Z" fill="var(--fill-0, #313237)"/>
<path d="M55.0214 30.0717V16.8481H64.2587V19.4437H58.2234V22.1556H63.7865V24.7577H58.2234V27.476H64.2587V30.0717H55.0214Z" fill="var(--fill-0, #313237)"/>
<path d="M65.8306 19.4437V16.8481H77.028V19.4437H73.0109V30.0717H69.8542V19.4437H65.8306Z" fill="var(--fill-0, #313237)"/>
<path d="M85.7527 20.8126C85.7096 20.3391 85.5177 19.971 85.177 19.7084C84.8406 19.4416 84.3598 19.3081 83.7345 19.3081C83.3205 19.3081 82.9755 19.3619 82.6995 19.4695C82.4235 19.5772 82.2165 19.7257 82.0785 19.9151C81.9405 20.1002 81.8693 20.3132 81.865 20.5543C81.8564 20.7523 81.8952 20.9266 81.9814 21.0773C82.072 21.228 82.2014 21.3614 82.3696 21.4776C82.5421 21.5895 82.7491 21.6885 82.9906 21.7746C83.2321 21.8607 83.5037 21.9361 83.8056 22.0006L84.9441 22.2589C85.5996 22.401 86.1775 22.5904 86.6777 22.8271C87.1823 23.0639 87.6049 23.3458 87.9456 23.673C88.2906 24.0001 88.5515 24.3768 88.7283 24.8029C88.9051 25.2291 88.9957 25.7069 89 26.2363C88.9957 27.0714 88.7844 27.7881 88.3661 28.3865C87.9478 28.9848 87.3462 29.4432 86.5613 29.7618C85.7807 30.0803 84.8385 30.2396 83.7345 30.2396C82.6261 30.2396 81.6602 30.0738 80.8365 29.7424C80.0128 29.4109 79.3724 28.9073 78.9153 28.2315C78.4581 27.5557 78.2231 26.7012 78.2102 25.6681H81.2763C81.3022 26.0943 81.4165 26.4494 81.6192 26.7335C81.8219 27.0176 82.1 27.2328 82.4536 27.3792C82.8116 27.5255 83.2256 27.5987 83.6956 27.5987C84.1269 27.5987 84.4935 27.5406 84.7953 27.4244C85.1015 27.3082 85.3365 27.1467 85.5004 26.9401C85.6643 26.7335 85.7484 26.4967 85.7527 26.2299C85.7484 25.9802 85.6708 25.7671 85.5198 25.5906C85.3689 25.4098 85.136 25.2549 84.8212 25.1257C84.5107 24.9923 84.114 24.8696 83.631 24.7577L82.2466 24.4349C81.0995 24.1723 80.1961 23.7483 79.5363 23.1629C78.8764 22.5731 78.5487 21.7768 78.553 20.7738C78.5487 19.956 78.7686 19.2393 79.2128 18.6237C79.657 18.0081 80.2715 17.5282 81.0564 17.1838C81.8413 16.8395 82.7361 16.6673 83.7409 16.6673C84.7673 16.6673 85.6578 16.8416 86.4125 17.1903C87.1715 17.5346 87.7602 18.0189 88.1785 18.6431C88.5968 19.2672 88.8103 19.9904 88.8189 20.8126H85.7527Z" fill="var(--fill-0, #313237)"/>
</g>
</svg>
