<svg xmlns="http://www.w3.org/2000/svg" xmlns:xlink="http://www.w3.org/1999/xlink" width="1200" zoomAndPan="magnify" viewBox="0 0 900 299.999988" height="400" preserveAspectRatio="xMidYMid meet" version="1.0"><defs><g/></defs><g fill="#ffffff" fill-opacity="1"><g transform="translate(124.879081, 238.241456)"><g><path d="M 82.796875 -180.59375 L 140.0625 -180.59375 L 140.0625 -112.34375 Z M 82.796875 0 L 140.0625 -68.265625 L 140.0625 0 Z M 77.296875 0 C 53.523438 -1.875 35.492188 -10.484375 23.203125 -25.828125 C 10.910156 -41.171875 4.765625 -62.640625 4.765625 -90.234375 C 4.765625 -117.910156 10.910156 -139.378906 23.203125 -154.640625 C 35.492188 -169.910156 53.523438 -178.5625 77.296875 -180.59375 Z M 77.296875 0 "/></g></g><g transform="translate(271.898757, 238.241456)"><g><path d="M 59.46875 2.203125 C 41.71875 0.734375 27.957031 -5.796875 18.1875 -17.390625 C 8.425781 -28.992188 3.546875 -44.523438 3.546875 -63.984375 C 3.546875 -83.597656 8.40625 -99.207031 18.125 -110.8125 C 27.851562 -122.414062 41.632812 -129.070312 59.46875 -130.78125 Z M 73.515625 2.203125 L 73.515625 -130.78125 C 91.503906 -129.070312 105.378906 -122.394531 115.140625 -110.75 C 124.910156 -99.113281 129.796875 -83.523438 129.796875 -63.984375 C 129.796875 -44.609375 124.867188 -29.140625 115.015625 -17.578125 C 105.171875 -6.023438 91.335938 0.566406 73.515625 2.203125 Z M 73.515625 2.203125 "/></g></g><g transform="translate(404.997965, 238.241456)"><g><path d="M 73.515625 -179.5 L 123.328125 -179.5 L 123.328125 0 L 73.515625 0 Z M 59.46875 -128.578125 L 59.46875 0 C 41.632812 -1.789062 27.851562 -8.28125 18.125 -19.46875 C 8.40625 -30.664062 3.546875 -45.664062 3.546875 -64.46875 C 3.546875 -83.03125 8.445312 -97.945312 18.25 -109.21875 C 28.0625 -120.5 41.800781 -126.953125 59.46875 -128.578125 Z M 59.46875 -128.578125 "/></g></g></g><g fill="#ffffff" fill-opacity="1"><g transform="translate(535.288625, 238.241456)"><g><path d="M 116.984375 -67.28125 L 71.3125 -67.28125 L 71.3125 -130.78125 C 87.1875 -129.800781 98.703125 -124.363281 105.859375 -114.46875 C 113.023438 -104.582031 116.734375 -88.851562 116.984375 -67.28125 Z M 58.484375 -13.3125 L 59.09375 -13.1875 C 63.007812 -12.53125 66.066406 -12.203125 68.265625 -12.203125 C 77.785156 -12.203125 86.453125 -14.910156 94.265625 -20.328125 C 102.078125 -25.742188 109.242188 -33.988281 115.765625 -45.0625 L 115.765625 -20.515625 C 108.515625 -12.617188 100.941406 -6.859375 93.046875 -3.234375 C 85.148438 0.390625 76.238281 2.203125 66.3125 2.203125 C 46.28125 2.203125 30.8125 -3.554688 19.90625 -15.078125 C 9 -26.597656 3.546875 -42.898438 3.546875 -63.984375 C 3.546875 -83.765625 8.390625 -99.535156 18.078125 -111.296875 C 27.765625 -123.066406 41.234375 -129.5625 58.484375 -130.78125 Z M 58.484375 -13.3125 "/></g></g></g><g fill="#ffffff" fill-opacity="1"><g transform="translate(656.78747, 238.241456)"><g><path d="M 92.0625 -82.796875 L 66.546875 -128.578125 L 118.078125 -128.578125 Z M 122.84375 0 L 66.0625 0 L -4.765625 -128.578125 L 52.015625 -128.578125 Z M 23.8125 -49.8125 L 51.046875 0 L -6.234375 0 Z M 23.8125 -49.8125 "/></g></g></g></svg>