<?xml version="1.0" encoding="iso-8859-1"?>
<!-- Generator: Adobe Illustrator 19.0.0, SVG Export Plug-In . SVG Version: 6.00 Build 0)  -->
<svg version="1.1" id="Layer_1" xmlns="http://www.w3.org/2000/svg" xmlns:xlink="http://www.w3.org/1999/xlink" x="0px" y="0px"
	 viewBox="0 0 496 496" style="enable-background:new 0 0 496 496;" xml:space="preserve">
<g>
	<g>
		<g>
			<path d="M248,0C111.248,0,0,111.248,0,248s111.248,248,248,248s248-111.248,248-248S384.752,0,248,0z M248,480
				C120.08,480,16,375.92,16,248S120.08,16,248,16c117.752,0,215.224,88.208,229.992,202c-3.072-6.032-9.24-10-16.28-10
				c-5.856,0-11.408,2.832-14.848,7.584c-0.32,0.448-0.816,1.024-1.224,1.544c-10.68-69.416-56.632-127.856-122.608-154.576
				l-0.16,0.392C306.72,44.04,282.76,32,256,32c-22.472,0-42.936,8.536-58.512,22.448C123.08,73.824,65.872,135.672,51.584,210.608
				C48.8,208.976,45.648,208,42.352,208c-8.576,0-15.928,5.832-17.872,14.176l-0.16,0.904c-0.152,1.288-3.368,31.712,17.552,55.176
				c3.032,3.4,6.488,6.368,10.176,9.104C70.672,380.768,152.016,448,248,448c92.68,0,173.912-64.896,194.728-154.768
				c7.504-3.936,14.04-8.888,19.456-14.968c12.736-14.288,16.512-31.12,17.496-42.424c0.208,4.032,0.32,8.08,0.32,12.16
				C480,375.92,375.92,480,248,480z M288.416,390.856C281.072,385.552,264,369.584,264,336.064c0-5.696,0.496-11.264,1.488-16.696
				c5.264,9.712,11.64,18.328,19.08,25.768c22.136,22.136,44.992,32.848,67.784,31.384c18.904-1.08,33.36-10.12,42.072-17.376
				C360.368,403.704,306.68,432,248,432c-54.376,0-103.584-23.528-137.464-61.584c6.936,3.16,15.024,5.576,24.192,6.096
				c22.112,1.32,44.192-8.584,65.664-29.296c1.856,25.8,10.36,45.6,25.344,58.968c17.656,15.744,39.248,17.824,49.408,17.824
				c3.344,0,5.456-0.224,5.776-0.264l0.904-0.16c8.344-1.944,14.176-9.296,14.176-17.872
				C296,399.848,293.168,394.304,288.416,390.856z M392.064,288c-51.832,0-81.864-29.128-81.912-29.128L296,241.904V264
				c0,15.92,7.992,32.68,22.504,47.192c28.936,28.936,58.496,27.784,69.848,25.968c0.784-0.112,1.48,0.112,2.024,0.656
				c0.76,0.76,0.824,1.8,0.504,2.576c-2.528,2.896-17.52,18.968-39.632,20.16c-17.944,0.936-36.68-8.032-55.384-26.736
				c-10.536-10.544-18.656-24-24.12-39.992l-6.632-19.416l-8.256,18.784C250.984,306.56,248,320.984,248,336.064
				c0,40.904,21.704,61.016,31.032,67.76c0.624,0.448,0.968,1.12,0.968,1.888c0,1.08-0.704,1.864-1.488,2.184
				c-3.776,0.272-25.504,1.168-42.136-13.656C222.856,382.176,216,362.608,216,336.064c0-3.224,0.184-6.496,0.584-10.008
				l3.552-31.808l-18.104,26.392c-3.448,5.016-6.992,9.328-10.84,13.176c-18.712,18.712-37.448,27.688-55.384,26.736
				c-22.152-1.184-37.152-17.312-39.632-20.16c-0.312-0.776-0.248-1.824,0.504-2.576c0.544-0.544,1.28-0.8,2.008-0.656
				c11.368,1.824,40.928,2.968,69.864-25.968c11.824-11.824,20.432-25.528,25.6-40.768l8.512-25.096l-20.984,16.184
				C166.048,273.6,141.256,288,112,288c-26.464,0-45.992-6.816-58.072-20.256c-14.808-16.496-14.016-38.496-13.76-42.264
				c0.544-1.336,3-2,4.064-0.512C50.984,234.296,71.096,256,112,256c35.152,0,58.512-16.144,69.32-25.76l2.68-2.392V120
				c0-39.704,32.296-72,72-72s72,32.296,72,72v114.68l3.376,2.392c12.2,8.632,32.632,18.928,60.688,18.928
				c40.904,0,61.016-21.704,67.76-31.032c1.096-1.504,3.528-0.824,4.08,0.512c0.28,3.784,1.168,25.504-13.656,42.136
				C438.176,281.144,418.608,288,392.064,288z M424.408,300.232c-4.184,14.144-10.088,27.472-17.344,39.904
				c0.184-4.952-1.64-9.904-5.36-13.624c-4.136-4.152-10.064-6.08-15.872-5.152c-8.904,1.472-32.288,2.232-56.008-21.488
				c-3.576-3.576-8.456-9.136-12.2-15.952c15.888,9.512,41.088,20.08,74.44,20.08C403.984,304,414.768,302.728,424.408,300.232z
				 M85.376,326.512c-0.92,0.92-1.688,1.928-2.376,2.984c-4.984-10.144-9.104-20.824-12.192-32.008
				C82.544,301.816,96.304,304,112,304c20.144,0,38.256-5.768,53.344-13.304c-2.464,3.184-5.168,6.256-8.096,9.184
				c-23.712,23.712-47.064,22.912-56.024,21.488C95.424,320.416,89.512,322.36,85.376,326.512z M65.52,224.4
				c8.432-65.824,52.832-122.184,113.464-146.888C172,90.12,168,104.592,168,120v100.568C157.992,228.712,139.192,240,112,240
				C88.832,240,74.192,231.864,65.52,224.4z M337.64,87.32c52.536,29.176,87.488,81.88,93.4,142.56
				c-8.912,5.472-21.52,10.12-38.976,10.12c-21.408,0-37.528-7.008-48.064-13.72V120C344,108.448,341.704,97.432,337.64,87.32z"/>
			<polygon points="235.312,177.376 224,188.688 212.688,177.376 201.376,188.688 212.688,200 201.376,211.312 212.688,222.624 
				224,211.312 235.312,222.624 246.624,211.312 235.312,200 246.624,188.688 			"/>
			<polygon points="300.28,178.344 288.968,189.656 277.656,178.344 266.344,189.656 277.656,200.968 266.344,212.28 
				277.656,223.592 288.968,212.28 300.28,223.592 311.592,212.28 300.28,200.968 311.592,189.656 			"/>
			<path d="M200,120h16c0-22.056,17.944-40,40-40V64C225.128,64,200,89.128,200,120z"/>
			<rect x="200" y="136" width="16" height="16"/>
		</g>
	</g>
</g>
<g>
</g>
<g>
</g>
<g>
</g>
<g>
</g>
<g>
</g>
<g>
</g>
<g>
</g>
<g>
</g>
<g>
</g>
<g>
</g>
<g>
</g>
<g>
</g>
<g>
</g>
<g>
</g>
<g>
</g>
</svg>
