<svg width="16" height="16" viewBox="0 0 16 16" fill="none" xmlns="http://www.w3.org/2000/svg">
<path d="M1 4.75C1 4.33579 1.39175 4 1.875 4H14.125C14.6082 4 15 4.33579 15 4.75C15 5.16421 14.6082 5.5 14.125 5.5H1.875C1.39175 5.5 1 5.16421 1 4.75Z" fill="#313237"/>
<path d="M1 8.25C1 7.83579 1.39175 7.5 1.875 7.5H14.125C14.6082 7.5 15 7.83579 15 8.25C15 8.66421 14.6082 9 14.125 9H1.875C1.39175 9 1 8.66421 1 8.25Z" fill="#313237"/>
<path d="M1.875 11C1.39175 11 1 11.3358 1 11.75C1 12.1642 1.39175 12.5 1.875 12.5H14.125C14.6082 12.5 15 12.1642 15 11.75C15 11.3358 14.6082 11 14.125 11H1.875Z" fill="#313237"/>
</svg>
