<svg width="14" height="9" viewBox="0 0 14 9" fill="none" xmlns="http://www.w3.org/2000/svg">
<path d="M0 0.75C0 0.335786 0.391751 0 0.875 0H13.125C13.6082 0 14 0.335786 14 0.75C14 1.16421 13.6082 1.5 13.125 1.5H0.875C0.391751 1.5 0 1.16421 0 0.75Z" fill="#313237"/>
<path d="M0 4.25C0 3.83579 0.391751 3.5 0.875 3.5H13.125C13.6082 3.5 14 3.83579 14 4.25C14 4.66421 13.6082 5 13.125 5H0.875C0.391751 5 0 4.66421 0 4.25Z" fill="#313237"/>
<path d="M0.875 7C0.391751 7 0 7.33579 0 7.75C0 8.16421 0.391751 8.5 0.875 8.5H13.125C13.6082 8.5 14 8.16421 14 7.75C14 7.33579 13.6082 7 13.125 7H0.875Z" fill="#313237"/>
</svg>
