<?xml version="1.0" encoding="utf-8"?>
<!-- Generator: Adobe Illustrator 27.5.0, SVG Export Plug-In . SVG Version: 6.00 Build 0)  -->
<svg version="1.1" id="Layer_1" xmlns="http://www.w3.org/2000/svg" xmlns:xlink="http://www.w3.org/1999/xlink" x="0px" y="0px"
	 viewBox="0 0 512 512" style="enable-background:new 0 0 512 512;" xml:space="preserve">
<style type="text/css">
	.st0{fill:#323542;}
</style>
<g id="EjasTl_00000034804803610408223640000005582351539034257833_">
	<g>
		<path class="st0" d="M463,229.2c-1.3,8.5-2.4,17-4.1,25.4c-3.4,16.5-9.5,32-17.7,46.6c-4.7,8.4-14.2,11.2-22.1,6.8
			c-8-4.4-10.8-13.9-6.2-22.3c12.4-22.4,18.3-46.4,17.8-72c-1.2-63-49.2-119.5-111.2-130.8c-69-12.6-134.5,25.9-156.8,92.1
			c-26.3,78.2,24.7,163.8,105.9,178c32.1,5.6,62.4,0.6,91.1-14.8c7-3.7,13.9-3.2,19.2,1.3c5.1,4.3,7.4,11.5,4.7,17.5
			c-1.5,3.4-4.2,7-7.3,8.7c-29.1,16.5-60.5,23.6-93.9,21.5c-35.6-2.3-67.3-14.8-95.2-36.9c-0.4-0.3-0.9-0.6-2.6-2
			c-0.8,1.4-1.4,3.1-2.5,4.2c-34.6,34.4-69.2,68.8-103.7,103.2c-4.6,4.6-9.7,7.4-16.3,6c-6.1-1.3-10.4-5-12.2-11.1
			c-2-6.4-0.2-12,4.4-16.6c13.5-13.5,27.2-27,40.7-40.4c21.7-21.6,43.4-43.1,65.1-64.7c0.8-0.8,1.5-1.6,2.4-2.6c-1.6-2-3.1-4-4.6-6
			c-24.5-32.7-35.9-69.5-34.3-110.3c2.7-68.7,49.5-130.8,114.6-152.7c13.3-4.5,26.9-7.5,41-8.5c0.9-0.1,1.8-0.4,2.7-0.7
			c7.5,0,15.1,0,22.6,0c0.9,0.2,1.8,0.6,2.7,0.7c17.1,1.2,33.6,4.9,49.3,11.7c56.1,24.1,90.8,66,103.4,125.9
			c1.4,6.7,2.1,13.5,3.1,20.3C463,214.1,463,221.6,463,229.2z"/>
		<path class="st0" d="M292.8,195.4c6.7-6.7,12.7-12.7,18.7-18.7c6.2-6.2,12.3-12.5,18.6-18.5c6.8-6.5,16.4-6.6,22.9-0.4
			c6.5,6.3,6.7,16.3,0,23.2c-11,11.3-22.2,22.3-33.4,33.5c-1,1-2.4,1.8-3.8,2.8c1.7,1.8,2.6,2.9,3.6,3.9
			c11.1,11.2,22.3,22.3,33.4,33.5c4.6,4.7,6.4,10.2,4.3,16.7c-1.9,6-6.2,9.8-12.3,11c-6,1.2-11.1-0.9-15.4-5.2
			c-10.9-11-21.9-21.9-32.9-32.9c-1-1-2.1-2-3.3-3.2c-1.2,1.1-2.3,2.1-3.3,3.1c-11.2,11.1-22.2,22.3-33.5,33.4
			c-5.4,5.3-12.2,6.5-18.6,3.5c-6.1-2.8-9.8-9-9.3-15.7c0.3-4.7,2.6-8.4,5.9-11.6c11.9-11.8,23.6-23.6,35.8-35.7
			c-1.1-1.2-2-2.2-3-3.2c-11.2-11.2-22.5-22.4-33.7-33.7c-4.5-4.6-6.2-10-4.3-16.3c1.8-6.1,6-9.8,12.1-11.2c6-1.3,11.1,0.7,15.4,5
			c10.9,11,21.9,21.9,32.8,32.9C290.7,192.5,291.5,193.7,292.8,195.4z"/>
	</g>
</g>
</svg>
