<svg width="16" height="14" viewBox="0 0 16 14" fill="none" xmlns="http://www.w3.org/2000/svg">
<path fill-rule="evenodd" clip-rule="evenodd" d="M10.9675 0C10.3939 0 9.82592 0.113015 9.296 0.332589C8.76613 0.552142 8.28459 0.874047 7.8791 1.27969L7.66753 1.49127L7.45583 1.27958C6.63676 0.460505 5.52587 0.000356495 4.36753 0.000356495C3.20919 0.000356495 2.09829 0.460505 1.27922 1.27958C0.460149 2.09865 0 3.20954 0 4.36788C0 5.52622 0.460149 6.63712 1.27922 7.45619L7.17255 13.3495C7.44592 13.6229 7.88913 13.6229 8.1625 13.3495L14.0558 7.45619C14.4615 7.05071 14.7833 6.56928 15.0028 6.03941C15.2224 5.50949 15.3354 4.9415 15.3354 4.36788C15.3354 3.79427 15.2224 3.22628 15.0028 2.69636C14.7833 2.16654 14.4615 1.68515 14.056 1.27969C13.6504 0.873992 13.169 0.552163 12.6391 0.332589C12.1091 0.113015 11.5411 0 10.9675 0Z" fill="#EB5757"/>
</svg>
