<svg width="16" height="16" viewBox="0 0 16 16" fill="none" xmlns="http://www.w3.org/2000/svg">
<path d="M7.33312 3.99998C7.33312 3.63179 7.63159 3.33331 7.99979 3.33331C8.36798 3.33331 8.66645 3.63179 8.66645 3.99998V7.33331H11.9998C12.368 7.33331 12.6664 7.63179 12.6664 7.99998C12.6664 8.36817 12.368 8.66665 11.9998 8.66665H8.66645V12C8.66645 12.3682 8.36798 12.6666 7.99979 12.6666C7.63159 12.6666 7.33312 12.3682 7.33312 12V8.66665H3.99979C3.63159 8.66665 3.33312 8.36817 3.33312 7.99998C3.33312 7.63179 3.63159 7.33331 3.99979 7.33331H7.33312V3.99998Z" fill="#313237"/>
</svg>

