<svg width="16" height="16" viewBox="0 0 16 16" fill="none" xmlns="http://www.w3.org/2000/svg">
<path fill-rule="evenodd" clip-rule="evenodd" d="M8.66602 3.33335C8.66602 2.96516 8.36754 2.66669 7.99935 2.66669C7.63116 2.66669 7.33268 2.96516 7.33268 3.33335V7.33335H3.33268C2.96449 7.33335 2.66602 7.63183 2.66602 8.00002C2.66602 8.36821 2.96449 8.66669 3.33268 8.66669H7.33268V12.6667C7.33268 13.0349 7.63116 13.3334 7.99935 13.3334C8.36754 13.3334 8.66602 13.0349 8.66602 12.6667V8.66669H12.666C13.0342 8.66669 13.3327 8.36821 13.3327 8.00002C13.3327 7.63183 13.0342 7.33335 12.666 7.33335H8.66602V3.33335Z" fill="#F1F2F9"/>
</svg>
