<svg width="11" height="11" viewBox="0 0 11 11" fill="none" xmlns="http://www.w3.org/2000/svg">
<path fill-rule="evenodd" clip-rule="evenodd" d="M6 0.666667C6 0.298477 5.70152 0 5.33333 0C4.96514 0 4.66667 0.298477 4.66667 0.666667V4.66667H0.666667C0.298477 4.66667 0 4.96514 0 5.33333C0 5.70152 0.298477 6 0.666667 6H4.66667V10C4.66667 10.3682 4.96514 10.6667 5.33333 10.6667C5.70152 10.6667 6 10.3682 6 10V6H10C10.3682 6 10.6667 5.70152 10.6667 5.33333C10.6667 4.96514 10.3682 4.66667 10 4.66667H6V0.666667Z" fill="#0F0F11"/>
</svg>
