<svg width="16" height="16" viewBox="0 0 16 16" fill="none" xmlns="http://www.w3.org/2000/svg">
<path d="M11.2998 1.29883C11.8733 1.29886 12.4409 1.41234 12.9707 1.63184C13.5005 1.85135 13.9823 2.17259 14.3877 2.57812C14.7933 2.98358 15.1154 3.46531 15.335 3.99512C15.5545 4.52504 15.667 5.09338 15.667 5.66699C15.667 6.24039 15.5544 6.80815 15.335 7.33789C15.1154 7.86776 14.7933 8.3494 14.3877 8.75488L8.49414 14.6484C8.22082 14.9215 7.77819 14.9215 7.50488 14.6484L1.61133 8.75488C0.792342 7.93588 0.332106 6.82522 0.332031 5.66699C0.332031 4.50865 0.792258 3.3972 1.61133 2.57812C2.4303 1.75925 3.54109 1.29892 4.69922 1.29883C5.85755 1.29883 6.96902 1.75907 7.78809 2.57812L8 2.79004L8.21094 2.57812C8.61634 2.17259 9.09819 1.85137 9.62793 1.63184C10.1579 1.41226 10.7262 1.29883 11.2998 1.29883Z" fill="#EB5757"/>
</svg>
