<svg width="16" height="16" viewBox="0 0 16 16" fill="none" xmlns="http://www.w3.org/2000/svg">
<path d="M1.33325 8C1.33325 9.5913 1.96539 11.1174 3.09061 12.2426C4.21583 13.3679 5.74195 14 7.33325 14C8.92659 14 10.4533 13.3733 11.5999 12.2667L10.5999 11.2667C10.1801 11.711 9.67355 12.0644 9.11168 12.3052C8.54982 12.546 7.94454 12.669 7.33325 12.6667C3.17325 12.6667 1.09325 7.64 4.03325 4.7C6.97325 1.76 11.9999 3.84667 11.9999 8H9.99992L12.6666 10.6667H12.7333L15.3333 8H13.3333C13.3333 6.4087 12.7011 4.88258 11.5759 3.75736C10.4507 2.63214 8.92455 2 7.33325 2C5.74195 2 4.21583 2.63214 3.09061 3.75736C1.96539 4.88258 1.33325 6.4087 1.33325 8Z" fill="#313237"/>
</svg>
