<?xml version="1.0" standalone="no"?>
<svg version="1.0" xmlns="http://www.w3.org/2000/svg"
 width="250.000000pt" height="250.000000pt" viewBox="0 0 250.000000 250.000000"
 preserveAspectRatio="xMidYMid meet">

<g transform="translate(0.000000,250.000000) scale(0.100000,-0.100000)"
fill="#000000" stroke="none">
<path d="M1100 2124 c-91 -11 -220 -53 -310 -101 -313 -167 -495 -496 -469
-850 13 -183 57 -308 160 -459 173 -253 516 -410 819 -373 89 10 179 30 225
48 118 48 227 117 318 201 l68 63 -78 79 c-42 43 -81 78 -86 78 -4 0 -30 -22
-57 -50 -170 -169 -408 -237 -635 -180 -227 58 -390 209 -476 440 -21 58 -24
82 -24 210 0 158 7 190 62 300 190 377 675 487 1008 230 136 -105 223 -254
254 -438 7 -40 10 -76 7 -79 -3 -3 -53 -5 -111 -4 -69 0 -105 -3 -105 -10 0
-12 319 -329 331 -329 14 0 329 315 329 329 0 9 -27 12 -99 10 -54 -1 -103 1
-108 4 -5 3 -10 27 -11 54 -4 92 -28 190 -69 281 -12 29 -23 54 -23 57 0 2
-16 32 -36 66 -45 76 -168 207 -249 264 -65 46 -184 104 -255 124 -25 8 -58
17 -75 22 -33 11 -250 20 -305 13z"/>
</g>
</svg>
