<svg width="16" height="16" viewBox="0 0 16 16" fill="none" xmlns="http://www.w3.org/2000/svg">
<path fill-rule="evenodd" clip-rule="evenodd" d="M2.66671 7.33331C2.66671 4.75598 4.75604 2.66665 7.33337 2.66665C9.91071 2.66665 12 4.75598 12 7.33331C12 9.91065 9.91071 12 7.33337 12C4.75604 12 2.66671 9.91065 2.66671 7.33331ZM7.33337 1.33331C4.01967 1.33331 1.33337 4.01961 1.33337 7.33331C1.33337 10.647 4.01967 13.3333 7.33337 13.3333C8.74671 13.3333 10.0387 12.8213 11.0547 11.9693L13.5287 14.4713C13.789 14.7317 14.2112 14.7317 14.4715 14.4713C14.7319 14.211 14.7319 13.7889 14.4715 13.5285L11.9695 11.0545C12.8215 10.0385 13.3334 8.74665 13.3334 7.33331C13.3334 4.01961 10.6471 1.33331 7.33337 1.33331Z" fill="#313237"/>
</svg>
