<svg width="16.000000" height="16.000000" viewBox="0 0 16 16" fill="none" xmlns="http://www.w3.org/2000/svg" xmlns:xlink="http://www.w3.org/1999/xlink">
	<desc>
			Created with Pixso.
	</desc>
	<defs/>
	<rect id="Icons/Search" rx="0.000000" width="15.000000" height="15.000000" transform="translate(0.500000 0.500000)" fill="#FFFFFF" fill-opacity="0"/>
	<path id="Union" d="M1.3335 7.33334C1.3335 4.01964 4.02002 1.33334 7.3335 1.33334C10.647 1.33334 13.3335 4.01964 13.3335 7.33334C13.3335 8.75003 12.8423 10.052 12.0215 11.0785L14.4717 13.5286C14.7319 13.789 14.7319 14.2111 14.4717 14.4714C14.2114 14.7318 13.7891 14.7318 13.5288 14.4714L11.0786 12.0213C10.0522 12.8424 8.75 13.3333 7.3335 13.3333C4.02002 13.3333 1.3335 10.647 1.3335 7.33334ZM10.6943 10.5709C10.6714 10.5884 10.6494 10.6077 10.6289 10.6286C10.6079 10.6495 10.5884 10.6715 10.5708 10.6943C9.73193 11.5028 8.59082 12 7.3335 12C4.75635 12 2.66699 9.91068 2.66699 7.33334C2.66699 4.75601 4.75635 2.66667 7.3335 2.66667C9.91064 2.66667 12 4.75601 12 7.33334C12 8.59062 11.5029 9.73177 10.6943 10.5709Z" clip-rule="evenodd" fill="#313237" fill-opacity="1.000000" fill-rule="evenodd"/>
</svg>
