<svg width="14" height="14" viewBox="0 0 14 14" fill="none" xmlns="http://www.w3.org/2000/svg">
<path fill-rule="evenodd" clip-rule="evenodd" d="M1.33333 6C1.33333 3.42267 3.42267 1.33333 6 1.33333C8.57733 1.33333 10.6667 3.42267 10.6667 6C10.6667 7.25727 10.1695 8.39842 9.36098 9.23754C9.33813 9.2551 9.31616 9.27434 9.29524 9.29527C9.27431 9.31619 9.25507 9.33816 9.23751 9.361C8.39839 10.1695 7.25726 10.6667 6 10.6667C3.42267 10.6667 1.33333 8.57733 1.33333 6ZM9.74511 10.6879C8.71866 11.509 7.41667 12 6 12C2.68629 12 0 9.31371 0 6C0 2.68629 2.68629 0 6 0C9.31371 0 12 2.68629 12 6C12 7.41668 11.509 8.71869 10.6879 9.74514L13.138 12.1953C13.3984 12.4556 13.3984 12.8777 13.138 13.1381C12.8777 13.3984 12.4556 13.3984 12.1952 13.1381L9.74511 10.6879Z" fill="#0F0F11"/>
</svg>
