<svg width="16" height="16" viewBox="0 0 16 16" fill="none" xmlns="http://www.w3.org/2000/svg">
<path fill-rule="evenodd" clip-rule="evenodd" d="M3.46634 0.933323C3.59224 0.765453 3.78984 0.666656 3.99967 0.666656H11.9997C12.2095 0.666656 12.4071 0.765453 12.533 0.933323L14.533 3.59999C14.6196 3.71539 14.6663 3.85574 14.6663 3.99999V13.3333C14.6663 13.8638 14.4556 14.3725 14.0806 14.7475C13.7055 15.1226 13.1968 15.3333 12.6663 15.3333H3.33301C2.80257 15.3333 2.29387 15.1226 1.91879 14.7475C1.54372 14.3725 1.33301 13.8638 1.33301 13.3333V3.99999C1.33301 3.85574 1.37979 3.71539 1.46634 3.59999L3.46634 0.933323ZM4.33301 1.99999L2.66634 4.22221V13.3333C2.66634 13.5101 2.73658 13.6797 2.8616 13.8047C2.98663 13.9298 3.1562 14 3.33301 14H12.6663C12.8432 14 13.0127 13.9298 13.1377 13.8047C13.2628 13.6797 13.333 13.5101 13.333 13.3333V4.22221L11.6663 1.99999H4.33301Z" fill="#313237"/>
<path fill-rule="evenodd" clip-rule="evenodd" d="M1.33301 4.00001C1.33301 3.63182 1.63148 3.33334 1.99967 3.33334H13.9997C14.3679 3.33334 14.6663 3.63182 14.6663 4.00001C14.6663 4.3682 14.3679 4.66668 13.9997 4.66668H1.99967C1.63148 4.66668 1.33301 4.3682 1.33301 4.00001Z" fill="#313237"/>
<path fill-rule="evenodd" clip-rule="evenodd" d="M5.33268 6C5.70087 6 5.99935 6.29848 5.99935 6.66667C5.99935 7.1971 6.21006 7.70581 6.58514 8.08088C6.96021 8.45595 7.46892 8.66667 7.99935 8.66667C8.52978 8.66667 9.03849 8.45595 9.41356 8.08088C9.78863 7.70581 9.99935 7.1971 9.99935 6.66667C9.99935 6.29848 10.2978 6 10.666 6C11.0342 6 11.3327 6.29848 11.3327 6.66667C11.3327 7.55072 10.9815 8.39857 10.3564 9.02369C9.73125 9.64881 8.8834 10 7.99935 10C7.11529 10 6.26745 9.64881 5.64233 9.02369C5.0172 8.39857 4.66602 7.55072 4.66602 6.66667C4.66602 6.29848 4.96449 6 5.33268 6Z" fill="#313237"/>
</svg>
