<svg width="317" height="129" viewBox="0 0 317 129" fill="none" xmlns="http://www.w3.org/2000/svg">
<g clipPath="url(#clip0_7_21)">
<path d="M9 13L9.57276 21.4272L18 22L9.57276 22.5728L9 31L8.42724 22.5728L0 22L8.42724 21.4272L9 13Z" fill="#D9D9D9"/>
<path d="M57.5 41L58.2955 53.6409L70 54.5L58.2955 55.3591L57.5 68L56.7045 55.3591L45 54.5L56.7045 53.6409L57.5 41Z" fill="#D9D9D9"/>
<path d="M16 85L16.4455 92.4909L23 93L16.4455 93.5091L16 101L15.5545 93.5091L9 93L15.5545 92.4909L16 85Z" fill="#D9D9D9"/>
<path d="M207 111L207.509 119.427L215 120L207.509 120.573L207 129L206.491 120.573L199 120L206.491 119.427L207 111Z" fill="#D9D9D9"/>
<path d="M231.5 58L232.295 70.6409L244 71.5L232.295 72.3591L231.5 85L230.705 72.3591L219 71.5L230.705 70.6409L231.5 58Z" fill="#D9D9D9"/>
<path d="M310 68L310.445 75.4909L317 76L310.445 76.5091L310 84L309.555 76.5091L303 76L309.555 75.4909L310 68Z" fill="#D9D9D9"/>
<path d="M274.5 32L275.295 44.6409L287 45.5L275.295 46.3591L274.5 59L273.705 46.3591L262 45.5L273.705 44.6409L274.5 32Z" fill="#D9D9D9"/>
<path d="M192 0L193.082 17.3227L209 18.5L193.082 19.6773L192 37L190.918 19.6773L175 18.5L190.918 17.3227L192 0Z" fill="#D9D9D9"/>
<path d="M104 23L104.445 30.4909L111 31L104.445 31.5091L104 39L103.555 31.5091L97 31L103.555 30.4909L104 23Z" fill="#D9D9D9"/>
<path d="M116.5 93L117.295 105.641L129 106.5L117.295 107.359L116.5 120L115.705 107.359L104 106.5L115.705 105.641L116.5 93Z" fill="#D9D9D9"/>
<path d="M135.5 54L136.295 66.6409L148 67.5L136.295 68.3591L135.5 81L134.705 68.3591L123 67.5L134.705 66.6409L135.5 54Z" fill="#D9D9D9"/>
<path d="M185 56L185.445 63.4909L192 64L185.445 64.5091L185 72L184.555 64.5091L178 64L184.555 63.4909L185 56Z" fill="#D9D9D9"/>
</g>
<defs>
<clipPath id="clip0_7_21">
<rect width="317" height="129" fill="white"/>
</clipPath>
</defs>
</svg>
