<?xml version="1.0" encoding="utf-8"?><!-- Uploaded to: SVG Repo, www.svgrepo.com, Generator: SVG Repo Mixer Tools -->
<svg fill="#000000" width="800px" height="800px" viewBox="0 0 24 24" id="switch-left" data-name="Flat Line" xmlns="http://www.w3.org/2000/svg" class="icon flat-line"><path id="secondary" d="M15,6H9A6,6,0,0,0,9,18h6A6,6,0,0,0,15,6ZM9.5,14.5A2.5,2.5,0,1,1,12,12,2.5,2.5,0,0,1,9.5,14.5Z" style="fill: rgb(44, 169, 188); stroke-width: 2;"></path><path id="primary" d="M9.5,9.5A2.5,2.5,0,1,1,7,12,2.5,2.5,0,0,1,9.5,9.5ZM9,18h6a6,6,0,0,0,6-6h0a6,6,0,0,0-6-6H9a6,6,0,0,0-6,6H3A6,6,0,0,0,9,18Z" style="fill: none; stroke: rgb(0, 0, 0); stroke-linecap: round; stroke-linejoin: round; stroke-width: 2;"></path></svg>