<?xml version="1.0" encoding="utf-8"?>
<!-- Generator: Adobe Illustrator 25.2.3, SVG Export Plug-In . SVG Version: 6.00 Build 0)  -->
<svg version="1.1" id="Layer_1" xmlns="http://www.w3.org/2000/svg" xmlns:xlink="http://www.w3.org/1999/xlink" x="0px" y="0px"
	 viewBox="0 0 477 540" style="enable-background:new 0 0 477 540;" xml:space="preserve">
<style type="text/css">
	.st0{opacity:0.46;fill:#EF749B;enable-background:new    ;}
	.st1{fill:#C2D9F0;}
	.st2{fill:#4B4065;}
	.st3{fill:none;stroke:#F7C689;stroke-miterlimit:10;}
	.st4{fill:none;stroke:#231F20;stroke-miterlimit:10;}
	.st5{fill:#F27932;}
	.st6{fill:#F7C689;}
	.st7{fill:#495894;}
	.st8{fill:none;stroke:#FFFFFF;stroke-miterlimit:10;}
	.st9{fill:#FFFFFF;stroke:#495894;stroke-miterlimit:10;}
	.st10{fill:none;stroke:#ED4F2E;stroke-miterlimit:10;}
	.st11{fill:#ED4F2E;}
	.st12{fill:none;stroke:#C2D9F0;stroke-miterlimit:10;}
	.st13{fill:none;stroke:#FFFFFF;stroke-width:0.75;stroke-miterlimit:10;}
	.st14{fill:#FFFFFF;}
	.st15{fill:none;stroke:#4B4065;stroke-width:2;stroke-miterlimit:10;}
	.st16{fill:none;stroke:#4B4065;stroke-linecap:round;stroke-linejoin:round;}
	.st17{fill:none;stroke:#495894;stroke-linejoin:round;}
	.st18{opacity:0.21;fill:#EF749B;enable-background:new    ;}
</style>
<polygon class="st0" points="56.3,395.8 75.5,288.2 160.5,288.2 178.9,395.8 "/>
<path class="st1" d="M296.3,429.7c1.4,19.9,14.2,35.2,13.8,36.7c-0.2,0.8-9,8.1-12.3,11l-24,1.1c0,0-2.1-42.9-2.2-43.6
	C271.6,433.8,296.2,427.5,296.3,429.7z"/>
<path class="st2" d="M272.6,95.4c-1.1-5-1.4-10.1-0.9-15.2c0.5-3.5,0.4-7.1-0.3-10.6c-1-4.5-3.7-8.9-7.6-11
	c-3.5-1.8-20.5-2.9-25.2-1.6c-4.5,1.2-8.8,4.4-10.2,8.9c-1.5,5,2.2,10.9,0,15.5c-0.4,0.8-0.9,1.6-1.5,2.2l1.6-2.6
	c0,0.1-2,2.4-3.5,4.3c-2.8,1.9-5.7,3.5-8.9,4.8c-9.5,4.2-20.2,5.7-29,11.5c-15.8,10.4-20.1,31.7-9.7,47.4c1.6,2.5,3.6,4.7,5.8,6.7
	c0,0,6.8-10.1,7-9.9c3.2-4.6,6.5-9.1,9.7-13.7c5.8-8,19.1-1.1,25.9,3.2c7,4.5,13.1,10.2,20,15s14.7,8.7,23,8.7s17-4.8,19.5-12.8
	c2.2-7.2-1-14.9-4.1-21.8C279.6,114.6,274.7,105.4,272.6,95.4z"/>
<path class="st1" d="M273.4,73.1c-0.3-4-2.2-7.7-5.1-10.3c-2.9-2.5-6.6-3.7-10.4-3.5c-4.9,0.1-10.1,0.9-14.3,3.7
	c-4.6,3.2-6.1,8.1-6.7,13.4c-3.4-1.9-7.7-0.6-9.6,2.9c-1.4,2.6-1.1,5.8,0.9,8c1.2,1.3,8.3,3,8.3,3s-1.2,4.9-1.7,7
	c-1,4.3-7.5,20.7-7.5,20.7l25.2,22.1l8.7-19.6l-5.4-2.1l0.8-14.2c0,0,8.7,3.4,12.8,0.4C275.3,100.4,274.1,80.9,273.4,73.1z"/>
<polygon class="st3" points="297.5,399.1 316.7,291.5 401.8,291.5 420.1,399.1 "/>
<path class="st3" d="M339.4,291.4c0-10.7,8.7-19.4,19.4-19.4s19.4,8.7,19.4,19.4"/>
<polygon class="st1" points="284.7,403.7 303.9,296.2 389,296.2 407.3,403.7 "/>
<path class="st4" d="M325.3,296.2c-0.2-10.7,8.3-19.6,19-19.9c10.7-0.2,19.6,8.3,19.9,19c0,0.3,0,0.6,0,0.9"/>
<path class="st1" d="M77.2,453.2l13.1-23.5c7.1,1.8,15.5,4.2,22.6,6c-0.3-0.1-3.3,9.3-3.5,10.2c-0.7,3.7-0.9,5.8,2.4,8.2
	c1.7,1,3.3,2.1,4.8,3.4c1.4,1.3,2.5,3.3,2,5.2c-5.3,1.3-11,2.2-16.2,4c-4.4,1.5-8.9,2-13.4,0.4C83.4,465,78.9,458.9,77.2,453.2z"/>
<path class="st5" d="M261.5,191.3c0,0-42.2-0.4-46.5-1.4l-9.1,14.8l-4.3,8.1c-3.5,7.2-6.6,15.4-6.6,22.4c0,15.9-11.1,44.5-56.4,103
	c-15,19.4-61.1,92.6-61.1,92.6s47.5,17.7,78.9,9.3c0,0,59.8-117.9,64.6-130s21.1-56,21.1-56s0.8,154.9-3.8,179.6
	c0,0,46.2,12.6,71.9-0.5c0,0-30.4-182.8-36.5-203.1C267.6,209.4,261.5,191.3,261.5,191.3z"/>
<path class="st6" d="M227.2,118.4c4.1,1.5,17.2,14.1,23.6,19.1c0.8,0.6,1.9,0.5,2.5-0.3c0.1-0.1,0.2-0.2,0.2-0.3l7.7-16.2
	c1.6-0.2,6.5,0.9,8.2,1.4c6.9,2.1,12.3,7,13.2,14.4c2.2,17.4,7,42.8,7,42.8l51,53.6c4.1,4.2,4.8,10.6,1.7,15.5l-0.2,0.4
	c-4.6,3.5-9.2,7-13.9,10.4c-3.7,2.7-7.4,0.6-11.1-1.6c-4.1-2.5-9.8-9.9-14.9-15.6c-9-10.2-17.5-20.8-25.6-31.8c-2-2.7-4-5.5-5.9-8.3
	c-1.4-2-2.9-5.5-5.1-6.7c-2.4-1.3-47.2-0.8-52.8-2l-2.3-20.9l-21.4,30l-42.5,61.5l-20.8-5.9c-6.1-7.5-5.5-19.1-1.8-27.5
	c3.5-8,9.5-14.5,15.4-20.9c2.5-2.7,15.3-16.2,24.8-26c3.2-3.3,12.5-18.6,15.2-22.5c7.6-10.7,15.3-21.4,22.9-32.1
	c3.6-7.1,13.7-11.8,21.6-11C225,117.8,226.1,118.1,227.2,118.4z"/>
<path class="st7" d="M272.2,474.5c0,0,0.2,4.6,0.3,6.2l0.3,6.8c0.1,2.1,1.8,3.7,3.8,3.7h78.5c2.9,0,2.2-5.2,1.1-6.8
	c-2-2.7-7.7-4.1-10.6-5.5c-6.3-2.8-12.4-6-18.2-9.6c-5.6-3.6-9.9-8.6-16-11.5c-3.5-1.7-7.3,2.1-9.5,4.7s-4.1,5.5-7,7.2
	C289.2,473.2,272.2,474.5,272.2,474.5z"/>
<line class="st8" x1="240.8" y1="257.6" x2="251.3" y2="221.8"/>
<line class="st8" x1="250.1" y1="226.8" x2="258.5" y2="227.1"/>
<path class="st9" d="M231.4,80.8l5.7,4"/>
<path class="st2" d="M273.4,73.1c1.9-0.4,5.6-2.7,6.4-3.9c1-1.4,0.5-3.2-0.8-4.5c-1.5-1.4-3.3-2.5-5.2-3.2
	c-3.7-1.5-7.5-2.7-11.4-3.4C268.2,62.9,272.9,65.6,273.4,73.1z"/>
<path class="st2" d="M269,80.3c1,0.5,1.4,1.7,0.9,2.7c-0.2,0.4-0.6,0.8-1,0.9c-0.3,0.1-0.4,0.4-0.2,0.7c0.1,0.3,0.4,0.4,0.7,0.2
	c0,0,0.1,0,0.1-0.1c1.5-0.7,2.1-2.5,1.4-4c-0.3-0.6-0.7-1-1.3-1.3c-0.2-0.1-0.5,0-0.7,0.2C268.6,79.8,268.7,80.1,269,80.3z"/>
<path class="st2" d="M252.6,72.6c2.3-1.9,5.5-2.2,8.1-0.8C258,71.9,255.3,72.2,252.6,72.6"/>
<path class="st2" d="M253.2,73.1c2-1.6,4.8-1.9,7.2-0.7l0.4-1.4c-2.8,0.2-5.5,0.4-8.3,0.9c-0.4,0.1-0.6,0.5-0.5,0.9s0.5,0.6,0.9,0.5
	c2.6-0.4,5.2-0.7,7.9-0.8c0.7,0,1.1-1,0.4-1.4c-2.9-1.5-6.5-1.1-9,1C251.4,72.8,252.5,73.8,253.2,73.1L253.2,73.1z"/>
<path class="st8" d="M232.9,213.4c-8.5,9.2-18.9,16.3-30.6,20.7"/>
<path class="st2" d="M237.6,77.6c1,0.9,2.5,0.8,3.3-0.2l0.1-0.1c0.8-1.1,1.4-2.3,1.6-3.6c0.2-1.3,0.9-2.5,1.8-3.5
	c1.8-1.5,4.5-0.7,6.8-0.6c2.9,0.2,5.8-0.8,8-2.7c1.6-1.3,4.5-4.9,4-7.2c-0.3-1.7-6.4-1.8-8-1.9c-6.4-0.7-12.8,0-18.9,2.1
	c-2,0.7-3.8,3.1-4.9,4.9c-1,1.7-1.2,3.7-0.5,5.6c0.6,2,3,3.8,4.4,5.2C236,76.2,236.8,76.8,237.6,77.6z"/>
<path class="st7" d="M236.4,90.3l5.1,0.6l-6.3,4.5"/>
<path class="st7" d="M256.7,104.4l-9.2-4.2c2.7,3.9,6.1,7.5,8.8,11.3"/>
<line class="st10" x1="289.7" y1="179.1" x2="283" y2="180.3"/>
<path class="st10" d="M264.5,194.6c-0.9-3.6-2-7.1-3.1-10.7c-1-3.2-2.6-6.8-3-10.2c-0.3-2.9,2-3.6,3.8-5.6c5.7-6.3,5.3-16.1-1-21.8
	c-0.1-0.1-0.3-0.3-0.4-0.4c0.6-0.7,1.1-1.4,1.7-2.1"/>
<line class="st10" x1="210.6" y1="172.1" x2="226.2" y2="148.1"/>
<path class="st7" d="M78.7,448.5c0,0,10.5,14.6,15.4,14.3s11.5-9.4,20.4-8.6c4.1,0.4,4.1,1.2,4.1,1.2s11.8,15.8,16.9,18.1
	c6.1,2.8,20.1,7.6,20.9,11.3v6.7h-48.9c-0.9,0-1.9-0.3-2.6-0.9l-35.1-26c-0.8-0.6-1-1.8-0.4-2.7L78.7,448.5z"/>
<path class="st8" d="M143.4,476.7c-5.9-3.6-13.6-2.6-18.3,2.4"/>
<path class="st8" d="M341.3,476c-4.2,0.6-7.4,4.1-7.7,8.3"/>
<path class="st7" d="M297.9,439.7c-7.7,4.2-16.9,7.1-25.6,7.9c-0.3-2.9-0.2-5.9-0.5-8.8c7.9,0.1,17.8,0.2,25.6-1.3L297.9,439.7z"/>
<path class="st8" d="M320.4,469.5c-0.2-0.8-1.1-1.3-1.9-1.1c-0.8,0.2-1.3,1.1-1.1,1.9s1,1.4,1.8,1.2s1.4-1,1.2-1.8l0,0V469.5z"/>
<path class="st8" d="M327.4,473c0-0.9-0.8-1.6-1.7-1.5c-0.9,0-1.6,0.8-1.5,1.7c0,0.9,0.8,1.6,1.7,1.5c0.8,0,1.5-0.7,1.5-1.5V473z"/>
<path class="st8" d="M117.2,463c0.6,0.7,0.5,1.7-0.1,2.3c-0.7,0.6-1.7,0.5-2.3-0.1c-0.6-0.7-0.5-1.6,0.1-2.3
	C115.5,462.4,116.5,462.4,117.2,463L117.2,463z"/>
<path class="st8" d="M122.6,468.5c0.6,0.7,0.6,1.7-0.1,2.4c-0.7,0.6-1.7,0.6-2.4-0.1c-0.6-0.7-0.6-1.7,0.1-2.4
	C120.9,467.9,121.9,467.9,122.6,468.5L122.6,468.5z"/>
<path class="st8" d="M117.6,463.2c1.6-1,4.9-1.1,6.8-0.7"/>
<path class="st8" d="M122.8,468c1.7-1.1,3.8-1.4,5.8-1.1"/>
<path class="st4" d="M98.2,287.2c0-10.7,8.7-19.4,19.4-19.4s19.4,8.7,19.4,19.4"/>
<path class="st11" d="M259.4,177.9c-2.6-0.6-6.5-0.6-9.1-1.2l8.7-6.2l-0.6,3.2L259.4,177.9z"/>
<path class="st12" d="M362.6,143.8l1-21.6l-18.2,11.6l-5.4-9.3l19.1-9.9l-19.1-9.9l5.4-9.3l18.2,11.8l-1-21.6h10.6l-1,21.6
	l18.2-11.8l5.4,9.3l-19.3,9.9l19.3,9.9l-5.4,9.3l-18.2-11.6l1,21.6H362.6L362.6,143.8z"/>
<path class="st1" d="M146.8,263.5c-2.4,2.8-7.6,11.3-10,14.2c-8.6,1.3-17.7,3.4-26.3,4.7c-2-2-4-4.1-6-6.2c-0.6-0.7-0.6-1.7,0-2.4
	c0.4-0.4,1.1-0.6,1.6-0.4c2.3,0.7,4.6,1.3,6.8,2.1c3.8-1.2,7.7-2.8,11.5-4c0.6-2.3,3.4-10.9,4-13.2L146.8,263.5z"/>
<path class="st13" d="M319.8,468.5l2.3-2.8"/>
<path class="st13" d="M326.4,472.4l1.7-2.7"/>
<path class="st1" d="M341.6,248.9c3.8,3,11.7,12.7,15.6,15.8c0.9,2.5,2,5.7,2.9,8.1c0,1.5-5.3,9.5-4.4,8l-3.6,4.4
	c-0.3,0.2-0.8,0.2-1-0.2c-0.1-0.2-0.2-0.4-0.1-0.6l2-7.8l-9-5.5c-0.5-0.5-1.3-0.2-1.2,0.5c0.3,2.5,0.5,5.4,1.2,6.4
	c1.1,1.2,2.3,2.3,3.5,3.2c0.5,0.4,0.9,0.9,1.2,1.4c1.2,2.4-1.4,1.5-2.6,1.1c-1.9-0.5-3.8-0.9-5.6-1.6c-2.1-0.7-2-2.3-2.5-4.3
	c-1.5-5.5-2.5-7.1-4-12.6l-5.1-6.7"/>
<polygon class="st5" points="389,296.2 417.6,399.1 406.5,399.1 "/>
<path class="st5" d="M372.8,250.6c1.5-0.4,2.9-1,4.2-1.8c-1.3-0.8-2.7-1.4-4.2-1.8s-2.7-1.6-3.1-3.1s-1-2.9-1.8-4.2
	c-0.8,1.3-1.4,2.7-1.8,4.2s-1.6,2.7-3.1,3.1s-2.9,1-4.2,1.8c1.3,0.8,2.7,1.4,4.2,1.8s2.7,1.6,3.1,3.1s1,2.9,1.8,4.2
	c0.8-1.3,1.4-2.7,1.8-4.2S371.3,250.9,372.8,250.6z"/>
<polygon class="st7" points="296.2,339.2 324.3,403.7 305.2,403.6 295.2,344.8 "/>
<polygon class="st7" points="110.3,443.1 83.3,442.4 87.8,434.2 111.4,439.8 "/>
<path class="st14" d="M272.6,88.8h-9.4c0.2,1.7,0.9,3.2,2.1,4.3c1.2,1,2.9,1.3,4.4,0.8C271.2,93.3,272.7,90.3,272.6,88.8z"/>
<circle class="st15" cx="403.3" cy="267.8" r="7.4"/>
<path class="st14" d="M264.4,81.8c-1-3.9-5.1-6.3-9-5.3c-1.8,0.5-3.4,1.6-4.4,3.3c1.5,2.1,3.9,3.3,6.4,3.5
	C259.8,83.6,262.1,82.8,264.4,81.8z"/>
<path class="st16" d="M251,79.9c2.1-3.5,6.7-4.5,10.1-2.4c1.6,1,2.8,2.6,3.3,4.4"/>
<path class="st2" d="M259.8,76.8c-2.4,1.2-4,3.5-4.4,6.1c0.7,0.2,1.3,0.3,2,0.4c2.5,0.2,4.7-0.6,7-1.5
	C263.7,79.6,262,77.8,259.8,76.8z"/>
<path class="st2" d="M215.6,49c-6.3,0.6-12,4.7-15.5,10c-3.2,4.8-4.7,11.4-1.6,16.3c2.7,4.2,8.2,5.9,13.1,4.9s9-4.3,12-8.2
	c3.2-4.2,8.3-11.4,5.9-16.5C227.2,50.9,220.4,48.5,215.6,49z"/>
<path class="st17" d="M345.2,263.7l12.2,7.3c0.1,2.6-0.1,5.2-0.4,7.8"/>
<path class="st2" d="M271.5,71.4c-0.1,0-0.2,0.1-0.2,0.2v0.1v0.1c0,0.1,0,0.1,0,0.2l0,0c0,0.1,0,0.1,0,0.2v0.1v0.1l0.1,0.1
	c0,0,0,0,0.1,0h0.1c0.1,0,0.1,0,0.2,0h0.1c0.5,0,1,0.1,1.5,0.1c-0.1-0.6-0.2-1.2-0.3-1.8C272.4,70.9,271.9,71.1,271.5,71.4z"/>
<path class="st2" d="M273.9,81.3c-0.4-0.4-0.7-0.9-0.8-1.4c-0.1-0.8,0.1-1.7,0.6-2.3c0-0.4,0-0.7-0.1-1.1c-1.1,0.8-1.6,2.2-1.4,3.6
	c0.2,1,0.8,1.8,1.7,2.3C273.9,82.1,273.9,81.6,273.9,81.3z"/>
<ellipse transform="matrix(0.1602 -0.9871 0.9871 0.1602 122.7668 324.695)" class="st18" cx="252.2" cy="90.2" rx="5.5" ry="5.5"/>
<path class="st6" d="M75.3,229.1c1.7-0.4,3.3-1.1,4.8-2.1c-1.5-0.9-3.1-1.6-4.8-2.1s-3.1-1.8-3.6-3.6c-0.4-1.7-1.1-3.3-2.1-4.8
	c-0.9,1.5-1.6,3.1-2.1,4.8s-1.8,3.1-3.6,3.6c-1.7,0.4-3.4,1.1-4.9,2.1c1.5,0.9,3.1,1.6,4.9,2.1c1.7,0.5,3.1,1.8,3.6,3.6
	c0.4,1.7,1.1,3.3,2.1,4.8c0.9-1.5,1.6-3.1,2.1-4.8C72.2,230.9,73.5,229.5,75.3,229.1z"/>
</svg>
