<svg width="16" height="13.999999999999998" xmlns="http://www.w3.org/2000/svg">

 <g>
  <title>background</title>
  <rect fill="none" id="canvas_background" height="402" width="582" y="-1" x="-1"/>
 </g>
 <g>
  <title>Layer 1</title>
  <path stroke="null" transform="matrix(1,0,0,1,0,0) matrix(1,0,0,1,0,0) matrix(1,0,0,1,0,0) " id="svg_1" fill="#eb5757" d="m9.62846,0.63136c0.52994,-0.21958 1.09794,-0.33259 1.67154,-0.33259c0.5736,0 1.1416,0.11301 1.6715,0.33259c0.5299,0.21957 1.0114,0.5414 1.4169,0.9471c0.4056,0.40546 0.7273,0.88685 0.9469,1.41667c0.2196,0.52992 0.3326,1.09791 0.3326,1.67152c0,0.57361 -0.113,1.1416 -0.3326,1.67152c-0.2196,0.52988 -0.5414,1.0113 -0.947,1.41679c0,0.00004 0,-0.00004 0,0l-5.89334,5.89334c-0.27337,0.2734 -0.71658,0.2734 -0.98995,0l-5.89333,-5.89334c-0.81907,-0.81907 -1.27922,-1.92997 -1.27922,-3.08831c0,-1.15834 0.46015,-2.26924 1.27922,-3.08831c0.81907,-0.81907 1.92997,-1.27922 3.08831,-1.27922c1.15834,0 2.26923,0.46015 3.0883,1.27922l0.2117,0.21169l0.21157,-0.21157c-0.00004,0.00004 0.00004,-0.00004 0,0c0.40549,-0.40565 0.88703,-0.72755 1.4169,-0.9471zm3.76974,1.93682c-0.2755,-0.27563 -0.6026,-0.49428 -0.9626,-0.64346c-0.36,-0.14917 -0.7459,-0.22595 -1.1356,-0.22595c-0.3897,0 -0.7756,0.07678 -1.1356,0.22595c-0.36005,0.14918 -0.68716,0.36783 -0.96266,0.64346l-0.70678,0.70678c-0.27337,0.27337 -0.71658,0.27337 -0.98995,0l-0.70667,-0.70667c-0.55652,-0.55652 -1.31132,-0.86917 -2.09835,-0.86917c-0.78704,0 -1.54184,0.31265 -2.09836,0.86917c-0.55652,0.55652 -0.86917,1.31132 -0.86917,2.09836c0,0.78704 0.31265,1.54184 0.86917,2.09836l5.39836,5.39839l5.39831,-5.39839c0.2757,-0.2755 0.4944,-0.60272 0.6436,-0.96274c0.1492,-0.36003 0.226,-0.74592 0.226,-1.13562c0,-0.3897 -0.0768,-0.77559 -0.226,-1.13562c-0.1492,-0.36002 -0.368,-0.68736 -0.6437,-0.96285z" clip-rule="evenodd" fill-rule="evenodd"/>
  <path stroke="null" style="vector-effect: non-scaling-stroke;" id="svg_3" d="m8.02059,3.20697c2.7084,-6.50926 13.31999,0.69148 0,9.06053c-13.32,-8.36905 -2.7084,-15.56979 0,-9.06053z" stroke-width="1.5" fill="#eb5757"/>
 </g>
</svg>