<?xml version="1.0" encoding="UTF-8" standalone="no"?>
<svg
   width="16"
   height="16"
   viewBox="0 0 16 16"
   fill="none"
   version="1.1"
   id="svg2"
   xmlns="http://www.w3.org/2000/svg"
   xmlns:svg="http://www.w3.org/2000/svg">
  <defs
     id="defs2" />
  <path
     fill-rule="evenodd"
     clip-rule="evenodd"
     d="m 7.59087,0.807088 c 0.24074,-0.187242 0.57785,-0.187242 0.81859,0 L 14.4095,5.47375 c 0.1623,0.12631 0.2573,0.32051 0.2573,0.52624 v 7.33331 c 0,0.5305 -0.2107,1.0392 -0.5858,1.4142 -0.375,0.3751 -0.8837,0.5858 -1.4142,0.5858 H 3.3335 c -0.53044,0 -1.03914,-0.2107 -1.41422,-0.5858 C 1.54421,14.3725 1.3335,13.8638 1.3335,13.3333 V 5.99999 c 0,-0.20573 0.09498,-0.39993 0.25737,-0.52624 z M 2.66683,6.32605 v 7.00725 c 0,0.1768 0.07024,0.3464 0.19526,0.4714 C 2.98712,13.9298 3.15669,14 3.3335,14 h 9.3333 c 0.1768,0 0.3464,-0.0702 0.4714,-0.1953 0.1251,-0.125 0.1953,-0.2946 0.1953,-0.4714 V 6.32605 L 8.00016,2.1779 Z"
     fill="#0F0F11"
     id="path1"
     style="fill:#ffffff;fill-opacity:1" />
  <path
     fill-rule="evenodd"
     clip-rule="evenodd"
     d="m 5.3335,8.00001 c 0,-0.36819 0.29847,-0.66667 0.66666,-0.66667 h 4.00004 c 0.3682,0 0.6666,0.29848 0.6666,0.66667 v 6.66669 c 0,0.3682 -0.2984,0.6666 -0.6666,0.6666 -0.36823,0 -0.6667,-0.2984 -0.6667,-0.6666 V 8.66668 H 6.66683 v 6.00002 c 0,0.3682 -0.29848,0.6666 -0.66667,0.6666 -0.36819,0 -0.66666,-0.2984 -0.66666,-0.6666 z"
     fill="#0F0F11"
     id="path2"
     style="fill:#ffffff;fill-opacity:1" />
</svg>
