<?xml version="1.0" encoding="UTF-8" standalone="no"?>
<svg
   width="16"
   height="16"
   viewBox="0 0 16 16"
   fill="none"
   version="1.1"
   id="svg1"
   xmlns="http://www.w3.org/2000/svg"
   xmlns:svg="http://www.w3.org/2000/svg">
  <defs
     id="defs1" />
  <path
     fill-rule="evenodd"
     clip-rule="evenodd"
     d="m 12.4716,4.4714 c 0.2603,-0.26035 0.2603,-0.68246 0,-0.94281 -0.2604,-0.26035 -0.6825,-0.26035 -0.9428,0 L 8.00016,7.05719 4.47157,3.52859 c -0.26035,-0.26035 -0.68246,-0.26035 -0.94281,0 -0.26035,0.26035 -0.26035,0.68246 0,0.94281 L 7.05735,7.99999 3.52876,11.5286 c -0.26035,0.2603 -0.26035,0.6824 0,0.9428 0.26035,0.2603 0.68246,0.2603 0.94281,0 l 3.52859,-3.5286 3.52864,3.5286 c 0.2603,0.2603 0.6824,0.2603 0.9428,0 0.2603,-0.2604 0.2603,-0.6825 0,-0.9428 L 8.94297,7.99999 Z"
     fill="#0F0F11"
     id="path1"
     style="fill:#ffffff;fill-opacity:1" />
</svg>
