<svg width="12" height="12" viewBox="0 0 12 12" fill="none" xmlns="http://www.w3.org/2000/svg">
<path fill-rule="evenodd" clip-rule="evenodd" d="M6.66602 1.33335C6.66602 0.965164 6.36754 0.666687 5.99935 0.666687C5.63116 0.666687 5.33268 0.965164 5.33268 1.33335V5.33335H1.33268C0.964492 5.33335 0.666016 5.63183 0.666016 6.00002C0.666016 6.36821 0.964492 6.66669 1.33268 6.66669H5.33268V10.6667C5.33268 11.0349 5.63116 11.3334 5.99935 11.3334C6.36754 11.3334 6.66602 11.0349 6.66602 10.6667V6.66669H10.666C11.0342 6.66669 11.3327 6.36821 11.3327 6.00002C11.3327 5.63183 11.0342 5.33335 10.666 5.33335H6.66602V1.33335Z" fill="#F1F2F9"/>
</svg>
