<svg xmlns="http://www.w3.org/2000/svg"  viewBox="0 0 50 50" width="50px" height="50px"><path d="M31 24c-2.757 0-5-2.243-5-5V7c0-2.757 2.243-5 5-5s5 2.243 5 5v12C36 21.757 33.757 24 31 24zM43 24h-4c-.553 0-1-.447-1-1v-4c0-2.757 2.243-5 5-5s5 2.243 5 5S45.757 24 43 24zM19 24H7c-2.757 0-5-2.243-5-5s2.243-5 5-5h12c2.757 0 5 2.243 5 5S21.757 24 19 24zM23 12h-4c-2.757 0-5-2.243-5-5s2.243-5 5-5 5 2.243 5 5v4C24 11.553 23.553 12 23 12zM19 48c-2.757 0-5-2.243-5-5V31c0-2.757 2.243-5 5-5s5 2.243 5 5v12C24 45.757 21.757 48 19 48zM7 36c-2.757 0-5-2.243-5-5s2.243-5 5-5h4c.553 0 1 .447 1 1v4C12 33.757 9.757 36 7 36zM43 36H31c-2.757 0-5-2.243-5-5s2.243-5 5-5h12c2.757 0 5 2.243 5 5S45.757 36 43 36zM31 48c-2.757 0-5-2.243-5-5v-4c0-.553.447-1 1-1h4c2.757 0 5 2.243 5 5S33.757 48 31 48z"/></svg>