<?xml version="1.0" encoding="iso-8859-1"?>
<!-- Generator: Adobe Illustrator 21.0.2, SVG Export Plug-In . SVG Version: 6.00 Build 0)  -->
<svg version="1.1" id="Layer_1" xmlns="http://www.w3.org/2000/svg" xmlns:xlink="http://www.w3.org/1999/xlink" x="0px" y="0px"
	 viewBox="0 0 100.5 100.5" style="enable-background:new 0 0 100.5 100.5;" xml:space="preserve">
<path d="M85.309,54.327l-22.768-3.308L52.36,30.39c-0.252-0.512-0.773-0.836-1.345-0.836s-1.093,0.324-1.345,0.836L39.49,51.019
	l-22.768,3.308c-0.564,0.082-1.034,0.478-1.211,1.021s-0.029,1.14,0.38,1.538l16.473,16.057l-3.888,22.674
	c-0.097,0.563,0.135,1.132,0.597,1.468c0.463,0.335,1.075,0.379,1.58,0.114l20.361-10.706l20.364,10.706
	c0.22,0.115,0.459,0.172,0.698,0.172c0.311,0,0.62-0.097,0.882-0.286c0.462-0.336,0.693-0.905,0.597-1.468l-3.892-22.674
	l16.475-16.057c0.409-0.398,0.556-0.995,0.38-1.538C86.343,54.805,85.873,54.409,85.309,54.327z M67.007,71.345
	c-0.354,0.345-0.515,0.841-0.432,1.328l3.511,20.455L51.714,83.47c-0.438-0.229-0.959-0.229-1.396,0l-18.369,9.658l3.507-20.455
	c0.083-0.487-0.078-0.983-0.432-1.328L20.164,56.86l20.54-2.984c0.488-0.071,0.911-0.378,1.129-0.82l9.184-18.61l9.185,18.61
	c0.218,0.442,0.641,0.749,1.129,0.82l20.54,2.984L67.007,71.345z"/>
<path d="M25.549,38.009c0.564,0,1.105-0.32,1.36-0.865c0.351-0.75,0.026-1.643-0.725-1.994l-15.767-7.367
	c-0.749-0.349-1.643-0.025-1.994,0.725s-0.026,1.643,0.725,1.994l15.767,7.367C25.12,37.964,25.336,38.009,25.549,38.009z"/>
<path d="M91.576,28.507c-0.352-0.75-1.246-1.074-1.994-0.725l-15.767,7.367c-0.751,0.352-1.075,1.244-0.725,1.994
	c0.255,0.545,0.796,0.865,1.36,0.865c0.213,0,0.429-0.045,0.634-0.141L90.851,30.5C91.603,30.15,91.927,29.257,91.576,28.507z"/>
<path d="M51.016,22.984c0.828,0,1.5-0.672,1.5-1.5V4.131c0-0.829-0.672-1.5-1.5-1.5s-1.5,0.671-1.5,1.5v17.353
	C49.516,22.312,50.188,22.984,51.016,22.984z"/>
</svg>
