<svg width="95" height="95" viewBox="0 0 95 95" fill="none" xmlns="http://www.w3.org/2000/svg">
<path d="M81.3725 51.1765C78.714 51.8826 75.975 52.24 73.2243 52.2397C64.8485 52.2397 56.9828 48.9835 51.0746 43.0754C47.1949 39.1733 44.4056 34.3225 42.9849 29.0064C41.5642 23.6904 41.5616 18.0948 42.9774 12.7775C43.1542 12.1126 43.1531 11.413 42.9741 10.7487C42.7952 10.0845 42.4447 9.47893 41.9579 8.99288C41.471 8.50683 40.8649 8.15734 40.2003 7.97948C39.5358 7.80162 38.8362 7.80164 38.1716 7.97954C31.5148 9.75349 25.4415 13.2468 20.5609 18.1089C5.26876 33.4011 5.26876 58.293 20.5609 73.593C24.1958 77.2481 28.5194 80.146 33.2816 82.1191C38.0439 84.0921 43.1501 85.1011 48.3049 85.0876C53.4583 85.1021 58.5634 84.0939 63.3244 82.1215C68.0854 80.1491 72.4077 77.2516 76.0411 73.5969C80.9069 68.7154 84.4018 62.6389 86.1744 55.9784C86.3505 55.3138 86.349 54.6147 86.1702 53.9509C85.9913 53.2871 85.6413 52.6819 85.1552 52.1957C84.6691 51.7096 84.0638 51.3596 83.4 51.1808C82.7362 51.0019 82.0371 51.0005 81.3725 51.1765V51.1765ZM70.4978 68.0497C67.5906 70.9728 64.1327 73.2903 60.324 74.868C56.5152 76.4458 52.4314 77.2525 48.3088 77.2415C44.1849 77.2517 40.0998 76.4443 36.2898 74.8659C32.4798 73.2875 29.0206 70.9694 26.1121 68.0458C13.8799 55.8097 13.8799 35.8962 26.1121 23.6601C28.4757 21.2991 31.2046 19.3345 34.1936 17.8422C33.7561 23.4877 34.5426 29.1611 36.4993 34.4748C38.456 39.7884 41.5369 44.617 45.5313 48.6305C49.536 52.6374 54.3631 55.7268 59.679 57.685C64.9948 59.6432 70.6726 60.4236 76.3196 59.9721C74.8191 62.956 72.854 65.6826 70.4978 68.0497V68.0497Z" fill="#F1C40F"/>
</svg>
