<svg width="95" height="95" viewBox="0 0 95 95" fill="none" xmlns="http://www.w3.org/2000/svg">
<path d="M27.4341 47.0769C27.4341 57.9085 36.2453 66.7198 47.0769 66.7198C57.9085 66.7198 66.7198 57.9085 66.7198 47.0769C66.7198 36.2453 57.9085 27.4341 47.0769 27.4341C36.2453 27.4341 27.4341 36.2453 27.4341 47.0769ZM47.0769 35.2802C53.5814 35.2802 58.8736 40.5725 58.8736 47.0769C58.8736 53.5814 53.5814 58.8736 47.0769 58.8736C40.5725 58.8736 35.2802 53.5814 35.2802 47.0769C35.2802 40.5725 40.5725 35.2802 47.0769 35.2802ZM43.146 74.5385H50.9922V86.3077H43.146V74.5385ZM43.146 7.84616H50.9922V19.6154H43.146V7.84616ZM7.83831 43.1539H19.6075V51H7.83831V43.1539ZM74.5306 43.1539H86.2999V51H74.5306V43.1539ZM16.5515 72.0395L24.8684 63.7147L30.4195 69.2619L22.1026 77.5867L16.5515 72.0395ZM63.7108 24.888L72.0355 16.5632L77.5828 22.1105L69.258 30.4352L63.7108 24.888ZM24.8802 30.4392L16.5554 22.1144L22.1065 16.5672L30.4235 24.8919L24.8802 30.4392ZM77.5828 72.0434L72.0355 77.5906L63.7108 69.2659L69.258 63.7186L77.5828 72.0434Z" fill="#F39C12"/>
</svg>
