<svg width="118" height="118" viewBox="0 0 118 118" fill="none" xmlns="http://www.w3.org/2000/svg">
<path d="M76.2083 59C76.2083 68.5039 68.5039 76.2083 59 76.2083C49.496 76.2083 41.7916 68.5039 41.7916 59C41.7916 49.4961 49.496 41.7917 59 41.7917C68.5039 41.7917 76.2083 49.4961 76.2083 59Z" stroke="#163300" stroke-width="8.5"/>
<path d="M102.22 44.9974C106.185 51.8305 108.167 55.2466 108.167 59C108.167 62.7534 106.185 66.1695 102.22 73.0027L92.7623 89.3053C88.8137 96.111 86.8397 99.5143 83.5927 101.382C80.3462 103.25 76.406 103.25 68.5251 103.25H49.475C41.5942 103.25 37.6538 103.25 34.4072 101.382C31.1606 99.5143 29.1863 96.111 25.2378 89.3053L15.7797 73.0027C11.8155 66.1695 9.83337 62.7534 9.83337 59C9.83337 55.2466 11.8155 51.8305 15.7797 44.9973L25.2378 28.6947C29.1863 21.8888 31.1606 18.4859 34.4072 16.6179C37.6538 14.75 41.5942 14.75 49.475 14.75H68.5251C76.406 14.75 80.3462 14.75 83.5927 16.6179C86.8397 18.4859 88.8137 21.8889 92.7623 28.6947L102.22 44.9974Z" stroke="#163300" stroke-width="8.5"/>
</svg>
