<svg width="492" height="335" viewBox="0 0 492 335" fill="none" xmlns="http://www.w3.org/2000/svg">
<path d="M94.856 263V228.44H12.168V199.768L85.128 84.312H126.856V202.328H150.92V228.44H126.856V263H94.856ZM39.56 202.328H94.856V117.08H92.808L39.56 202.328ZM248.1 266.072C236.495 266.072 226.425 264.024 217.892 259.928C209.359 255.661 202.276 249.603 196.644 241.752C191.183 233.901 187.087 224.259 184.356 212.824C181.796 201.389 180.516 188.333 180.516 173.656C180.516 159.149 181.796 146.179 184.356 134.744C187.087 123.139 191.183 113.411 196.644 105.56C202.276 97.7093 209.359 91.736 217.892 87.64C226.425 83.3733 236.495 81.24 248.1 81.24C271.311 81.24 288.377 89.3467 299.3 105.56C310.223 121.773 315.684 144.472 315.684 173.656C315.684 202.84 310.223 225.539 299.3 241.752C288.377 257.965 271.311 266.072 248.1 266.072ZM248.1 239.192C260.388 239.192 269.007 234.84 273.956 226.136C279.076 217.261 281.636 205.059 281.636 189.528V157.784C281.636 142.253 279.076 130.136 273.956 121.432C269.007 112.557 260.388 108.12 248.1 108.12C235.812 108.12 227.108 112.557 221.988 121.432C217.039 130.136 214.564 142.253 214.564 157.784V189.528C214.564 205.059 217.039 217.261 221.988 226.136C227.108 234.84 235.812 239.192 248.1 239.192ZM248.1 188.76C242.127 188.76 237.945 187.565 235.556 185.176C233.337 182.787 232.228 179.885 232.228 176.472V170.84C232.228 167.427 233.337 164.525 235.556 162.136C237.945 159.747 242.127 158.552 248.1 158.552C254.073 158.552 258.169 159.747 260.388 162.136C262.777 164.525 263.972 167.427 263.972 170.84V176.472C263.972 179.885 262.777 182.787 260.388 185.176C258.169 187.565 254.073 188.76 248.1 188.76ZM427.456 263V228.44H344.768V199.768L417.728 84.312H459.456V202.328H483.52V228.44H459.456V263H427.456ZM372.16 202.328H427.456V117.08H425.408L372.16 202.328Z" fill="black"/>
<path d="M89.856 265H86.856V268H89.856V265ZM89.856 230.44H92.856V227.44H89.856V230.44ZM7.168 230.44H4.168V233.44H7.168V230.44ZM7.168 201.768L4.63193 200.165L4.168 200.9V201.768H7.168ZM80.128 86.312V83.312H78.475L77.5919 84.7094L80.128 86.312ZM121.856 86.312H124.856V83.312H121.856V86.312ZM121.856 204.328H118.856V207.328H121.856V204.328ZM145.92 204.328H148.92V201.328H145.92V204.328ZM145.92 230.44V233.44H148.92V230.44H145.92ZM121.856 230.44V227.44H118.856V230.44H121.856ZM121.856 265V268H124.856V265H121.856ZM34.56 204.328L32.0156 202.739L29.149 207.328H34.56V204.328ZM89.856 204.328V207.328H92.856V204.328H89.856ZM89.856 119.08H92.856V116.08H89.856V119.08ZM87.808 119.08V116.08H86.1447L85.2636 117.491L87.808 119.08ZM92.856 265V230.44H86.856V265H92.856ZM89.856 227.44H7.168V233.44H89.856V227.44ZM10.168 230.44V201.768H4.168V230.44H10.168ZM9.70407 203.371L82.6641 87.9146L77.5919 84.7094L4.63193 200.165L9.70407 203.371ZM80.128 89.312H121.856V83.312H80.128V89.312ZM118.856 86.312V204.328H124.856V86.312H118.856ZM121.856 207.328H145.92V201.328H121.856V207.328ZM142.92 204.328V230.44H148.92V204.328H142.92ZM145.92 227.44H121.856V233.44H145.92V227.44ZM118.856 230.44V265H124.856V230.44H118.856ZM121.856 262H89.856V268H121.856V262ZM34.56 207.328H89.856V201.328H34.56V207.328ZM92.856 204.328V119.08H86.856V204.328H92.856ZM89.856 116.08H87.808V122.08H89.856V116.08ZM85.2636 117.491L32.0156 202.739L37.1044 205.917L90.3524 120.669L85.2636 117.491ZM212.892 261.928L211.55 264.611L211.572 264.622L211.594 264.633L212.892 261.928ZM191.644 243.752L189.181 245.465L189.194 245.483L189.206 245.501L191.644 243.752ZM179.356 214.824L176.428 215.479L176.433 215.5L176.438 215.521L179.356 214.824ZM179.356 136.744L176.436 136.057L176.432 136.073L176.428 136.089L179.356 136.744ZM191.644 107.56L189.206 105.811L189.194 105.829L189.181 105.847L191.644 107.56ZM212.892 89.64L214.19 92.3446L214.212 92.3341L214.234 92.3233L212.892 89.64ZM294.3 107.56L291.812 109.236L294.3 107.56ZM294.3 243.752L291.812 242.076L294.3 243.752ZM268.956 228.136L266.357 226.637L266.353 226.645L266.348 226.653L268.956 228.136ZM268.956 123.432L266.336 124.893L266.353 124.923L266.37 124.953L268.956 123.432ZM216.988 123.432L214.389 121.933L214.385 121.941L214.38 121.949L216.988 123.432ZM216.988 228.136L214.368 229.597L214.385 229.627L214.402 229.657L216.988 228.136ZM230.556 187.176L228.358 189.217L228.395 189.258L228.435 189.297L230.556 187.176ZM230.556 164.136L228.435 162.015L228.395 162.054L228.358 162.095L230.556 164.136ZM255.388 164.136L253.19 166.177L253.227 166.218L253.267 166.257L255.388 164.136ZM255.388 187.176L253.267 185.055L253.227 185.094L253.19 185.135L255.388 187.176ZM243.1 265.072C231.844 265.072 222.237 263.086 214.19 259.223L211.594 264.633C220.613 268.962 231.145 271.072 243.1 271.072V265.072ZM214.234 259.245C206.142 255.199 199.433 249.463 194.082 242.003L189.206 245.501C195.119 253.742 202.576 260.124 211.55 264.611L214.234 259.245ZM194.107 242.039C188.902 234.557 184.937 225.278 182.274 214.127L176.438 215.521C179.236 227.239 183.463 237.246 189.181 245.465L194.107 242.039ZM182.284 214.169C179.782 202.995 178.516 190.166 178.516 175.656H172.516C172.516 190.501 173.81 203.784 176.428 215.479L182.284 214.169ZM178.516 175.656C178.516 161.32 179.781 148.575 182.284 137.399L176.428 136.089C173.811 147.782 172.516 160.979 172.516 175.656H178.516ZM182.276 137.431C184.941 126.106 188.907 116.748 194.107 109.273L189.181 105.847C183.458 114.074 179.232 124.171 176.436 136.057L182.276 137.431ZM194.082 109.309C199.426 101.858 206.121 96.218 214.19 92.3446L211.594 86.9354C202.597 91.254 195.126 97.5603 189.206 105.811L194.082 109.309ZM214.234 92.3233C222.27 88.3052 231.861 86.24 243.1 86.24V80.24C231.128 80.24 220.581 82.4415 211.55 86.9567L214.234 92.3233ZM243.1 86.24C265.528 86.24 281.557 94.0142 291.812 109.236L296.788 105.884C285.198 88.6792 267.094 80.24 243.1 80.24V86.24ZM291.812 109.236C302.274 124.766 307.684 146.792 307.684 175.656H313.684C313.684 146.152 308.171 122.781 296.788 105.884L291.812 109.236ZM307.684 175.656C307.684 204.52 302.274 226.546 291.812 242.076L296.788 245.428C308.171 228.531 313.684 205.16 313.684 175.656H307.684ZM291.812 242.076C281.557 257.298 265.528 265.072 243.1 265.072V271.072C267.094 271.072 285.198 262.633 296.788 245.428L291.812 242.076ZM243.1 244.192C256.179 244.192 265.953 239.487 271.564 229.619L266.348 226.653C262.061 234.193 254.597 238.192 243.1 238.192V244.192ZM271.555 229.635C277.039 220.128 279.636 207.335 279.636 191.528H273.636C273.636 206.783 271.113 218.395 266.357 226.637L271.555 229.635ZM279.636 191.528V159.784H273.636V191.528H279.636ZM279.636 159.784C279.636 143.983 277.041 131.26 271.542 121.911L266.37 124.953C271.111 133.012 273.636 144.524 273.636 159.784H279.636ZM271.576 121.971C265.977 111.932 256.206 107.12 243.1 107.12V113.12C254.57 113.12 262.036 117.183 266.336 124.893L271.576 121.971ZM243.1 107.12C229.992 107.12 220.16 111.93 214.389 121.933L219.587 124.931C224.056 117.185 231.632 113.12 243.1 113.12V107.12ZM214.38 121.949C209.07 131.288 206.564 143.995 206.564 159.784H212.564C212.564 144.512 215.008 132.984 219.596 124.915L214.38 121.949ZM206.564 159.784V191.528H212.564V159.784H206.564ZM206.564 191.528C206.564 207.323 209.072 220.1 214.368 229.597L219.608 226.675C215.006 218.422 212.564 206.795 212.564 191.528H206.564ZM214.402 229.657C220.185 239.488 230.019 244.192 243.1 244.192V238.192C231.605 238.192 224.031 234.192 219.574 226.615L214.402 229.657ZM243.1 187.76C237.36 187.76 234.203 186.58 232.677 185.055L228.435 189.297C231.688 192.55 236.894 193.76 243.1 193.76V187.76ZM232.754 185.135C231.077 183.328 230.228 181.167 230.228 178.472H224.228C224.228 182.604 225.598 186.245 228.358 189.217L232.754 185.135ZM230.228 178.472V172.84H224.228V178.472H230.228ZM230.228 172.84C230.228 170.145 231.077 167.984 232.754 166.177L228.358 162.095C225.598 165.067 224.228 168.708 224.228 172.84H230.228ZM232.677 166.257C234.203 164.732 237.36 163.552 243.1 163.552V157.552C236.894 157.552 231.688 158.762 228.435 162.015L232.677 166.257ZM243.1 163.552C248.875 163.552 251.861 164.746 253.19 166.177L257.586 162.095C254.478 158.747 249.272 157.552 243.1 157.552V163.552ZM253.267 166.257C255.087 168.078 255.972 170.213 255.972 172.84H261.972C261.972 168.64 260.468 164.973 257.509 162.015L253.267 166.257ZM255.972 172.84V178.472H261.972V172.84H255.972ZM255.972 178.472C255.972 181.099 255.087 183.234 253.267 185.055L257.509 189.297C260.468 186.339 261.972 182.672 261.972 178.472H255.972ZM253.19 185.135C251.861 186.566 248.875 187.76 243.1 187.76V193.76C249.272 193.76 254.478 192.565 257.586 189.217L253.19 185.135ZM422.456 265H419.456V268H422.456V265ZM422.456 230.44H425.456V227.44H422.456V230.44ZM339.768 230.44H336.768V233.44H339.768V230.44ZM339.768 201.768L337.232 200.165L336.768 200.9V201.768H339.768ZM412.728 86.312V83.312H411.075L410.192 84.7094L412.728 86.312ZM454.456 86.312H457.456V83.312H454.456V86.312ZM454.456 204.328H451.456V207.328H454.456V204.328ZM478.52 204.328H481.52V201.328H478.52V204.328ZM478.52 230.44V233.44H481.52V230.44H478.52ZM454.456 230.44V227.44H451.456V230.44H454.456ZM454.456 265V268H457.456V265H454.456ZM367.16 204.328L364.616 202.739L361.749 207.328H367.16V204.328ZM422.456 204.328V207.328H425.456V204.328H422.456ZM422.456 119.08H425.456V116.08H422.456V119.08ZM420.408 119.08V116.08H418.745L417.864 117.491L420.408 119.08ZM425.456 265V230.44H419.456V265H425.456ZM422.456 227.44H339.768V233.44H422.456V227.44ZM342.768 230.44V201.768H336.768V230.44H342.768ZM342.304 203.371L415.264 87.9146L410.192 84.7094L337.232 200.165L342.304 203.371ZM412.728 89.312H454.456V83.312H412.728V89.312ZM451.456 86.312V204.328H457.456V86.312H451.456ZM454.456 207.328H478.52V201.328H454.456V207.328ZM475.52 204.328V230.44H481.52V204.328H475.52ZM478.52 227.44H454.456V233.44H478.52V227.44ZM451.456 230.44V265H457.456V230.44H451.456ZM454.456 262H422.456V268H454.456V262ZM367.16 207.328H422.456V201.328H367.16V207.328ZM425.456 204.328V119.08H419.456V204.328H425.456ZM422.456 116.08H420.408V122.08H422.456V116.08ZM417.864 117.491L364.616 202.739L369.704 205.917L422.952 120.669L417.864 117.491Z" fill="#BE1427"/>
</svg>
