<svg width="10" height="6" viewBox="0 0 10 6" fill="none" xmlns="http://www.w3.org/2000/svg">
<rect width="10" height="6" fill="#E5E5E5"/>
<rect width="1440" height="2596" transform="translate(-1267 -2545)" fill="white"/>
<g filter="url(#filter0_d_0_1)">
<rect x="-1267" y="-45" width="1440" height="96" fill="white"/>
</g>
<rect x="-10.5" y="18.5" width="31" height="31" transform="rotate(-90 -10.5 18.5)" stroke="#B4BDC4"/>
<path fill-rule="evenodd" clip-rule="evenodd" d="M0.528575 5.47124C0.268226 5.21089 0.268226 4.78878 0.528575 4.52843L4.52858 0.528433C4.78892 0.268083 5.21103 0.268083 5.47138 0.528433L9.47138 4.52843C9.73173 4.78878 9.73173 5.21089 9.47138 5.47124C9.21103 5.73159 8.78893 5.73159 8.52858 5.47124L4.99998 1.94265L1.47138 5.47124C1.21103 5.73159 0.788925 5.73159 0.528575 5.47124Z" fill="#313237"/>
<defs>
<filter id="filter0_d_0_1" x="-1267" y="-46" width="1440" height="97" filterUnits="userSpaceOnUse" color-interpolation-filters="sRGB">
<feFlood flood-opacity="0" result="BackgroundImageFix"/>
<feColorMatrix in="SourceAlpha" type="matrix" values="0 0 0 0 0 0 0 0 0 0 0 0 0 0 0 0 0 0 127 0" result="hardAlpha"/>
<feOffset dy="-1"/>
<feColorMatrix type="matrix" values="0 0 0 0 0.885885 0 0 0 0 0.901322 0 0 0 0 0.9125 0 0 0 1 0"/>
<feBlend mode="normal" in2="BackgroundImageFix" result="effect1_dropShadow_0_1"/>
<feBlend mode="normal" in="SourceGraphic" in2="effect1_dropShadow_0_1" result="shape"/>
</filter>
</defs>
</svg>
