<svg width="15" height="15" viewBox="0 0 15 15" fill="none" xmlns="http://www.w3.org/2000/svg">
<path d="M0.587411 14.4563H3.16429C3.36991 14.4563 3.56679 14.3644 3.70241 14.2069L7.49991 9.67876L11.2974 14.2069C11.4287 14.3644 11.6255 14.4563 11.8355 14.4563H14.4124C14.7099 14.4563 14.8718 14.1106 14.6793 13.8831L9.32866 7.50001L14.6837 1.11689C14.8762 0.889387 14.7143 0.543762 14.4168 0.543762H11.8399C11.6343 0.543762 11.4374 0.635638 11.3018 0.793138L7.49991 5.32126L3.70241 0.793138C3.57116 0.635638 3.37429 0.543762 3.16429 0.543762H0.587411C0.289911 0.543762 0.128036 0.889387 0.320536 1.11689L5.67116 7.50001L0.320536 13.8831C0.277414 13.9338 0.24975 13.9959 0.240827 14.0618C0.231903 14.1278 0.242095 14.1949 0.270194 14.2553C0.298293 14.3156 0.343118 14.3666 0.399347 14.4023C0.455576 14.4379 0.520847 14.4566 0.587411 14.4563Z" fill="black"/>
</svg>
