<?xml version="1.0" encoding="utf-8"?>
<svg version="1.1" xmlns="http://www.w3.org/2000/svg" xmlns:xlink="http://www.w3.org/1999/xlink" x="0px" y="0px" viewBox="0 0 256 256" enable-background="new 0 0 256 256" xml:space="preserve">
<g><g><path fill="#000000" d="M211.5,44.6c-22.3-22.3-51.9-34.5-83.5-34.5c-31.5,0-61.2,12.3-83.4,34.5C22.3,66.9,10,96.5,10,128s12.3,61.1,34.6,83.3c22.3,22.3,51.9,34.5,83.4,34.5c31.5,0,61.2-12.3,83.5-34.5C257.5,165.4,257.5,90.6,211.5,44.6L211.5,44.6L211.5,44.6z M200.7,200.5c-19.4,19.4-45.2,30.1-72.7,30.1c-27.4,0-53.2-10.7-72.6-30c-19.4-19.4-30.1-45.1-30.1-72.5c0-27.4,10.7-53.2,30.1-72.5s45.2-30,72.6-30c27.4,0,53.2,10.7,72.6,30C240.7,95.4,240.7,160.5,200.7,200.5L200.7,200.5L200.7,200.5z M167.9,89.7c-7.6,0-13.8,6.2-13.8,13.8c0,7.6,6.2,13.8,13.8,13.8s13.8-6.2,13.8-13.8C181.7,95.9,175.5,89.7,167.9,89.7L167.9,89.7L167.9,89.7z M94.3,117.2c7.6,0,13.8-6.2,13.8-13.8c0-7.6-6.2-13.8-13.8-13.8c-7.6,0-13.8,6.2-13.8,13.8C80.5,111.1,86.7,117.2,94.3,117.2L94.3,117.2L94.3,117.2z M128.1,147.9c-19.3,0-36.3,10.1-46.4,25.6c-3.1,4.8,0.3,11.2,5.9,11.2h0.6c2.2,0,4.4-1.1,5.7-3c7.6-11.3,20.1-18.7,34.3-18.7c14.3,0,26.9,7.3,34.4,18.7c1.3,1.9,3.5,3,5.7,3h0.3c5.6,0,9-6.4,5.9-11.2C164.4,158,147.4,147.9,128.1,147.9L128.1,147.9L128.1,147.9z"/></g></g>
</svg>
