<?xml version="1.0" encoding="iso-8859-1"?>
<!-- Uploaded to: SVG Repo, www.svgrepo.com, Generator: SVG Repo Mixer Tools -->
<svg fill="#000000" height="800px" width="800px" version="1.1" id="Layer_1" xmlns="http://www.w3.org/2000/svg" xmlns:xlink="http://www.w3.org/1999/xlink" 
	 viewBox="0 0 512.001 512.001" xml:space="preserve">
<g>
	<g>
		<path d="M362.592,0H149.409c-28.353,0-51.419,23.066-51.419,51.419v50.807v307.549v50.807c0,28.352,23.066,51.419,51.419,51.419
			h213.183c28.353,0,51.419-23.066,51.419-51.419v-50.807V102.226V51.419C414.01,23.066,390.944,0,362.592,0z M149.408,484.218
			c-13.032-0.001-23.634-10.602-23.634-23.635v-36.916h95.173c-6.726,7.979-10.79,18.272-10.79,29.499
			c0,11.97,4.616,22.878,12.155,31.052H149.408z M256,471.225c-9.958,0-18.059-8.102-18.059-18.059
			c0-9.958,8.102-18.059,18.059-18.059c9.958,0,18.059,8.102,18.059,18.059C274.059,463.123,265.959,471.225,256,471.225z
			 M362.591,484.218h-72.905c7.539-8.172,12.155-19.082,12.155-31.052c0-11.229-4.065-21.521-10.79-29.499h95.173v36.916h0.001
			C386.226,473.616,375.624,484.218,362.591,484.218z M386.226,395.884H125.774V116.118h260.452V395.884z M386.228,88.334H125.774
			V51.419c0-13.033,10.602-23.635,23.635-23.635h213.183c13.032,0,23.635,10.602,23.635,23.635V88.334z"/>
	</g>
</g>
<g>
	<g>
		<path d="M265.72,45.108h-61.114c-7.672,0-13.892,6.221-13.892,13.892c0,7.671,6.219,13.892,13.892,13.892h61.114
			c7.672,0,13.892-6.221,13.892-13.892C279.612,51.328,273.392,45.108,265.72,45.108z"/>
	</g>
</g>
<g>
	<g>
		<path d="M321.013,56.278c-0.181-0.874-0.445-1.749-0.792-2.596c-0.347-0.833-0.778-1.639-1.278-2.389
			c-0.5-0.764-1.084-1.472-1.723-2.112c-0.639-0.639-1.348-1.222-2.112-1.736c-0.75-0.5-1.556-0.931-2.403-1.278
			c-0.833-0.347-1.709-0.611-2.598-0.792c-1.792-0.361-3.64-0.361-5.432,0c-0.889,0.181-1.75,0.445-2.598,0.792
			c-0.833,0.347-1.639,0.778-2.389,1.278c-0.764,0.514-1.473,1.097-2.125,1.736c-0.639,0.639-1.209,1.347-1.723,2.112
			c-0.5,0.75-0.931,1.556-1.278,2.389c-0.347,0.847-0.611,1.723-0.792,2.598c-0.181,0.903-0.264,1.821-0.264,2.723
			c0,0.903,0.083,1.821,0.264,2.709c0.181,0.89,0.445,1.766,0.792,2.598c0.347,0.832,0.778,1.653,1.278,2.403
			c0.514,0.764,1.084,1.472,1.723,2.112c0.653,0.639,1.361,1.222,2.125,1.723c0.75,0.499,1.556,0.931,2.389,1.278
			c0.847,0.347,1.709,0.61,2.598,0.792c0.903,0.181,1.82,0.276,2.723,0.276c3.654,0,7.238-1.485,9.821-4.07
			c0.639-0.639,1.222-1.347,1.723-2.112c0.5-0.75,0.931-1.571,1.278-2.403s0.611-1.707,0.792-2.598
			c0.181-0.889,0.278-1.806,0.278-2.709C321.291,58.099,321.194,57.181,321.013,56.278z"/>
	</g>
</g>
<g>
	<g>
		<path d="M162.926,171.965c-7.672,0-13.892,6.221-13.892,13.892v102.789c0,7.671,6.219,13.892,13.892,13.892
			c7.672,0,13.892-6.221,13.892-13.892V185.857C176.817,178.186,170.598,171.965,162.926,171.965z"/>
	</g>
</g>
<g>
	<g>
		<path d="M176.54,327.612c-0.167-0.889-0.445-1.764-0.792-2.598c-0.347-0.847-0.778-1.652-1.278-2.402
			c-0.5-0.765-1.083-1.474-1.723-2.113c-0.639-0.639-1.347-1.222-2.112-1.723c-0.75-0.514-1.556-0.931-2.403-1.278
			c-0.834-0.347-1.709-0.625-2.598-0.806c-1.792-0.347-3.626-0.347-5.418,0c-0.889,0.181-1.764,0.458-2.612,0.806
			c-0.833,0.347-1.639,0.764-2.389,1.278c-0.764,0.5-1.473,1.084-2.112,1.723c-0.639,0.639-1.222,1.348-1.723,2.113
			c-0.5,0.75-0.931,1.554-1.278,2.402c-0.347,0.835-0.625,1.709-0.792,2.598c-0.181,0.889-0.278,1.806-0.278,2.709
			c0,0.902,0.097,1.82,0.278,2.709c0.167,0.889,0.445,1.764,0.792,2.596c0.347,0.847,0.778,1.653,1.278,2.403
			c0.5,0.764,1.084,1.473,1.723,2.112c0.639,0.64,1.347,1.224,2.112,1.723c0.75,0.5,1.556,0.931,2.389,1.278
			c0.847,0.347,1.723,0.625,2.612,0.792c0.889,0.181,1.806,0.278,2.709,0.278s1.82-0.097,2.709-0.278
			c0.889-0.167,1.764-0.445,2.598-0.792c0.847-0.347,1.653-0.778,2.403-1.278c0.764-0.499,1.473-1.082,2.112-1.723
			c0.639-0.639,1.222-1.348,1.723-2.112c0.5-0.75,0.931-1.556,1.278-2.403c0.347-0.833,0.625-1.707,0.792-2.596
			c0.181-0.891,0.278-1.807,0.278-2.709C176.817,329.417,176.72,328.499,176.54,327.612z"/>
	</g>
</g>
</svg>