<?xml version="1.0" ?><svg data-name="Layer 1" id="Layer_1" viewBox="0 0 64 64" xmlns="http://www.w3.org/2000/svg"><defs><style>.cls-1{fill:#b13fff;}.cls-2{fill:#fedb41;}.cls-3{opacity:0.15;}</style></defs><title/><path class="cls-1" d="M32.06,4l-.58,0,.58.42A23.11,23.11,0,1,1,4.95,41.84,28,28,0,0,0,31.17,60l.89,0a28,28,0,0,0,0-56Z"/><path class="cls-2" d="M20.45,29.54l-1-.19a1.35,1.35,0,0,1-1-.79l-.39-.9a1.35,1.35,0,0,0-2.42-.11l-.48.86a1.35,1.35,0,0,1-1.05.69l-1,.1a1.35,1.35,0,0,0-.86,2.27l.67.72a1.35,1.35,0,0,1,.33,1.21l-.21,1A1.35,1.35,0,0,0,15,35.89l.89-.42a1.35,1.35,0,0,1,1.26.06L18,36a1.35,1.35,0,0,0,2-1.33l-.12-1a1.35,1.35,0,0,1,.44-1.18l.74-.65A1.35,1.35,0,0,0,20.45,29.54Z"/><path class="cls-2" d="M12.91,19.76l-.12-1a1.35,1.35,0,0,1,.44-1.18L14,17a1.35,1.35,0,0,0-.64-2.34l-1-.19a1.35,1.35,0,0,1-1-.79l-.39-.9a1.35,1.35,0,0,0-2.42-.11l-.48.86A1.35,1.35,0,0,1,7,14.18l-1,.1a1.35,1.35,0,0,0-.86,2.27l.67.72a1.35,1.35,0,0,1,.33,1.21l-.21,1A1.35,1.35,0,0,0,7.88,21l.89-.42A1.35,1.35,0,0,1,10,20.6l.85.5A1.35,1.35,0,0,0,12.91,19.76Z"/><path class="cls-2" d="M30.32,17.29l-1-.19a1.35,1.35,0,0,1-1-.79l-.39-.9a1.35,1.35,0,0,0-2.42-.11l-.48.86a1.35,1.35,0,0,1-1.05.69l-1,.1a1.35,1.35,0,0,0-.86,2.27l.67.72a1.35,1.35,0,0,1,.33,1.21l-.21,1a1.35,1.35,0,0,0,1.89,1.52l.89-.42a1.35,1.35,0,0,1,1.26.06l.85.5a1.35,1.35,0,0,0,2-1.33l-.12-1a1.35,1.35,0,0,1,.44-1.18l.74-.65A1.35,1.35,0,0,0,30.32,17.29Z"/><g class="cls-3"><path d="M59.17,32A28,28,0,0,0,32.06,4v.39a23.1,23.1,0,0,1,0,37.55V60A28,28,0,0,0,59.17,32Z"/></g></svg>