<svg xmlns="http://www.w3.org/2000/svg" width="195" height="150" fill="none"><g clip-path="url(#a)"><path fill="#BE1427" d="M97.4518.170349c-.0715.088638-.1287.225021-.1287.300034 0 .074997-.0358.15683-.0715.177276-.043.027283-.0716.095475-.0644.156845.0071.068192 0 .163636-.0215.218206-.1359.34094-.2074 1.25468-.2074 2.44799.0072.75692-.0143 1.37062-.0429 1.37062-.0357 0-.0643.66826-.0715 1.48653-.0215 1.92976-.1502 5.01875-.2503 5.70745-.0429.3001-.0715.7774-.0644 1.0706.0072.3137-.0143.5387-.0643.566-.0501.0272-.0573.2045-.0287.4977.0215.2524.0143.4228-.0214.3751-.0286-.0409-.0572.2455-.0572.6478 0 .9887-.1073 2.0662-.2003 2.0116-.05-.0273-.0572.0818-.0286.3069.0286.2318.0143.3545-.0358.3545-.0429 0-.0572.0887-.0357.2182.0214.1228-.0072.5183-.0644.866-.0643.3546-.093.716-.0715.7979.0286.0886.0072.1773-.0357.1977-.043.0341-.0573.15-.0287.3205.0358.1841.0287.2591-.0214.2318-.0501-.0272-.0715.0751-.0715.2796 0 .1841-.0143.4364-.0358.566-.1788 1.0092-.2503 1.5343-.2146 1.582.0501.0886-.2073 1.7593-.2717 1.7184-.0286-.0137-.0358.0818-.0143.2182.0286.1432.0143.2386-.0215.2182-.0572-.0409-.0858.1977-.0929.8183 0 .1295-.0287.2114-.0644.1977-.0286-.0204-.0429.0682-.0286.2046.0214.1568.0071.225-.0429.1977-.043-.0272-.0573.0137-.0358.0887s-.0072.2523-.0572.3955c-.0501.1432-.0858.2864-.0715.3205.0071.0409-.0215.1364-.0716.2182-.0429.0886-.0643.2318-.05.3341.0214.0955.0071.1909-.0286.2114-.0286.0204-.0429.0682-.0143.1023.0429.075-.1145.8319-.1931.8796-.0501.0341-.093.341-.1645 1.1933-.0143.1842-.0644.3478-.1002.3614-.0429.0137-.0572.0682-.0357.1228.0215.0613-.0358.1227-.186.1705-.1215.0409-.2074.1091-.2002.15.0071.0545-.0787.075-.2289.0682-.1788-.0069-.2145.0068-.143.0545.0715.0477.0215.0546-.1502.0341-.6008-.0818-1.9882-.1159-2.0311-.0477-.0286.0409-.093.0545-.1502.0272-.0572-.0204-.1073-.0068-.1073.0273s-.0429.0682-.0858.075c-.1288.0137-2.26.1432-2.918.1773-.9226.0478-1.6735.116-1.931.1841-.1359.0341-.4148.0614-.6222.0614-.2003 0-.4577.0341-.5722.075-.1073.0409-.4362.075-.7295.0682-.286 0-.5578.0137-.6007.0409-.0429.0205-.236.0546-.4363.0682-.2002.0205-.6222.0887-.9369.1637-.3147.0682-.7366.1295-.944.1295-.2074 0-.4435.0273-.5364.0614-.093.0341-.4077.0955-.7009.1432-1.7165.2523-4.7274.8251-5.1851.9819-.1574.0546-.3505.1023-.4291.1091-.3004 0-3.4544.791-4.6488 1.1593-.3504.1091-1.0155.3068-1.4661.4296-1.0013.2863-3.8978 1.2001-4.6845 1.4728-.3147.116-.9583.341-1.4304.5046-1.4661.5183-2.3959.8592-3.3471 1.2479-.5006.2046-.9226.3682-.944.3682-.0143 0-.4363.1842-.9298.4092-.4934.225-.9154.4091-.9369.4091-.1287 0-1.3874.5796-1.3874.6342 0 .0409-.0215.0545-.0429.0273-.0286-.0205-.1788.0272-.3433.1022-.1574.0819-.3147.1432-.3433.1364-.0358-.0068-.0572.0205-.0572.0614 0 .0341-.0286.0477-.0716.0273-.0357-.0205-.0715-.0069-.0715.0341 0 .0409-.0286.0545-.0715.034-.0358-.0204-.0715-.0068-.0715.0341 0 .041-.0286.0546-.0715.0341-.0429-.0204-.0715-.0068-.0715.0341s-.0287.0546-.0716.0341c-.0357-.0204-.0715-.0068-.0715.0341s-.0286.0546-.0715.0341c-.0358-.0204-.0715-.0068-.0715.0341s-.0286.0546-.0715.0341c-.0358-.0204-.0716-.0068-.0716.0341s-.0286.0546-.0715.0341c-.0357-.0205-.0715-.0068-.0715.0341s-.0286.0545-.0715.0341c-.0358-.0205-.0715-.0136-.0715.0273 0 .0682-.2718.1841-.3719.1568-.0358-.0068-.0572.0136-.0572.0477 0 .0682-.3076.191-.3362.1364-.0071-.0136-.0572.0341-.1144.1023-.0572.075-.1359.1091-.1788.0818-.0501-.0273-.0858-.0136-.0858.0273s-.0286.0545-.0716.0341c-.0357-.0205-.0715-.0068-.0715.0341s-.0286.0545-.0715.0341c-.0358-.0205-.0715-.0068-.0715.0273 0 .0409-.0215.0682-.0501.0613-.0929-.0204-.4505.1637-.4505.2319 0 .0273-.0501.0545-.1073.0545-.0572 0-.1073.0341-.1073.0682 0 .0409-.0215.0614-.0501.0546-.1072-.0273-.4219.1023-.9869.4091-.3147.1705-.5865.3273-.6079.3478-.0215.0272-.0859.0477-.1431.0613-.0572.0137-.1144.0546-.1287.0887-.0143.0341-.0715.0613-.1287.0613-.0573 0-.1002.0342-.1002.0683 0 .0409-.0214.0613-.05.0545-.0859-.0205-.7367.3069-.7367.3682 0 .0273-.0429.0546-.1001.0546-.0572 0-.1216.0477-.143.1091-.0215.0545-.0716.0818-.1145.0613-.0357-.0204-.0715-.0136-.0715.0205 0 .0409-.0787.0887-.1788.1091-.1001.0273-.1788.075-.1788.1091 0 .0409-.0429.0682-.1001.0682-.0572 0-.1144.0205-.1287.0477-.0072.0341-.2003.1432-.4149.2523-.5149.2592-1.602.9274-1.6306 1.0024-.0143.0341-.0572.0478-.093.0205-.0357-.0205-.0643 0-.0643.0341 0 .0409-.0501.075-.1073.075-.0572 0-.1645.0545-.236.1159-.0715.0682-.2432.1773-.3934.2387-.143.0682-.2646.15-.2646.1909 0 .0341-.0501.0682-.1073.0682-.0572 0-.1072.0273-.1072.0682 0 .0341-.0358.0682-.0716.0682-.0786 0-.1716.0682-.4362.2864-.0716.0682-.1645.1227-.2003.1227-.0357 0-.0858.0477-.1073.1091-.0286.0614-.0643.0955-.0858.075-.0286-.0204-.1073.0205-.1931.0887-.0787.075-.1716.1159-.2074.0954-.0286-.0204-.0787.0137-.1001.0682-.0215.0614-.0858.1091-.1431.1091-.05 0-.1287.0614-.1716.1432-.0501.075-.1001.1228-.1216.1023-.0572-.0545-.7438.416-.9369.6478-.093.1091-.2145.1978-.2717.1978-.0573 0-.1002.0272-.1002.0613 0 .0341-.0787.0819-.1788.1023-.093.0205-.2717.1296-.3933.2319-.1145.1022-.3147.2591-.4363.3546-.1216.0954-.3004.2386-.4005.3204-.093.0887-.2003.1569-.236.1569-.0358 0-.1216.075-.186.1704-.0643.0955-.143.1501-.1788.1296-.0357-.0205-.0643 0-.0643.0341 0 .0409-.0429.075-.1002.075-.0572 0-.1144.0477-.143.1023-.0214.0545-.0858.1023-.1359.1023-.0572 0-.1931.0818-.3075.1841-.1144.1023-.4649.3819-.7796.6273-.944.7228-1.4661 1.1934-1.5734 1.3979-.0429.0818-.1144.1432-.1573.1432-.0429 0-.1502.0818-.236.1841-.0859.1091-.186.191-.2289.191-.0429 0-.1502.0681-.2432.15-.3576.3341-.5006.4432-.6222.4841-.0643.0273-.143.1023-.1716.1637-.0572.1568-.6723.7705-.7724.7705-.1002 0-1.3946 1.2547-1.3946 1.357 0 .0341-.1145.1432-.2504.2318-.1358.0887-.5435.4774-.9011.8729-.3576.3886-.7366.7841-.8439.8796-.329.3137-1.3088 1.3638-1.5734 1.6911-.1431.1773-.3505.416-.4649.5251-.1073.1159-.2861.3136-.3934.4432-.1001.1296-.472.5796-.8296.9956-.3504.4228-.7509.9001-.8797 1.0637-.8939 1.1388-1.18 1.507-1.6091 2.0934-.6437.8661-1.2159 1.6911-1.3803 1.9844-.1359.2386-.2218.3545-.4792.6205-.1431.15-.3147.4228-.7152 1.1456-.1502.2727-.3362.566-.4148.6478-.0787.075-.1645.2182-.186.3136-.0214.0955-.1359.2796-.2503.4092-.1073.1295-.2002.2727-.2002.3205 0 .0477-.0286.0886-.0644.0886s-.0858.075-.1073.1705c-.0214.0886-.1216.2455-.2217.3478-.1001.1022-.1788.225-.1788.2727 0 .0478-.0501.1296-.1073.1909-.0643.0546-.1073.1228-.1073.1433.0072.0681-.2288.4636-.3504.5864-.0644.0682-.1645.2386-.2145.3818-.1145.3001-.2861.5115-.3719.4569-.0358-.0204-.0644 0-.0644.0409s-.0286.0614-.0644.0341c-.0357-.0204-.0858-.0068-.1144.0341-.0429.0682-.5579.0955-2.1098.0887-.565 0-.894.0204-.7867.0545.1001.0273-.3505.0546-1.0728.0614-2.9537.0204-4.84899.0614-5.14937.1091-.45057.0682-.51494.075-3.50443.1568-1.83088.0546-2.88221.1091-3.32563.191-.35044.0545-.865374.1432-1.129994.1909-.507784.0886-.672277.1705-.586455.3068.085823.1364.622215.4774.686582.4365.035759-.0205.064367 0 .064367.0409s.035759.0545.071519.0341c.042911-.0205.071518-.0069.071518.0341 0 .0409.03576.0545.071519.034.042914-.0204.071524-.0068.071524.0273 0 .0409.07151.075.15734.0682 1.25873-.0136 5.44258.1569 5.17081.2182l-.21455.0478.23601.0068c.12158 0 .22886-.0137.22886-.0478 0-.0272.25031-.0272.55785.0069.67227.0682 1.92385.1363 2.41018.1295.62225-.0136 3.46865.1432 3.46865.1841 0 .0409.2289.0546 1.881.1091.5793.0137 1.366.0614 1.745.0955.3791.0409.7152.0546.751.0341.0286-.0205.0572 0 .0572.0409s.0286.0614.0644.0409c.1072-.0682.4219.225.472.4296.0214.1091.093.2182.1502.2387.0572.0204.1001.1159.1001.2114 0 .0954.0358.1704.0715.1704.0429 0 .0715.0614.0715.1364 0 .075.0286.1364.0644.1364s.1216.1364.2003.3069c.0715.1704.1501.3068.1788.3068.0286 0 .1001.0955.1644.2046.0644.1159.093.2045.0716.2045-.0215 0 .0214.0682.1072.1501.1431.15.1717.2182.1502.375-.0071.0477.0215.0886.0572.0886.0358 0 .093.0682.1216.1501.0286.0886.0716.1704.1002.1909.0572.0409.2288.3409.3933.6955.0715.1432.1502.2592.186.2592.0357 0 .0643.0477.0643.1022 0 .0546.0286.1023.0644.1023s.1073.1091.1502.2387c.0429.1295.1144.2386.1502.2386.0357 0 .1073.0819.1573.1842.0429.1091.1216.2182.1645.2591.0429.0341.143.1705.2146.3.0786.1296.1931.2932.2574.3614.0716.0614.1431.1978.1717.2864.0214.0955.0858.1841.1502.2046.0572.0204.0786.0682.0572.1091-.0215.0341-.0072.0682.0286.0682.0429 0 .0787.0341.0787.075 0 .0477.0572.1227.1287.1705.0644.0477.1216.1091.1216.1432.0143.15.1216.3545.2145.3886.0572.0205.1073.0819.1073.1432 0 .0546.0358.1023.0715.1023.0429 0 .0716.0409.0716.0955 0 .0545.05.1091.1072.1364.0572.0204.1645.15.236.2932.0644.1432.1645.2864.2146.3137.0429.0272.0858.0818.0858.1091 0 .034.1431.2113.3219.3886.1788.1841.3432.3955.3647.4637.0286.075.0787.1637.1144.2046.0358.0409.1717.1977.3076.3409.1359.1501.2288.2933.2074.3273-.0215.0273 0 .0546.0357.0546.0429 0 .0787.0273.0787.0614 0 .0341.1287.1909.2861.3546.1573.1636.2861.3204.2861.3477 0 .0478.0572.1159.3933.4705.0572.0614.1073.1296.1073.1569 0 .0204.1144.1432.2575.2591.143.1159.3647.3819.5006.5796.1359.1978.3862.4978.565.6546.1788.1637.3218.3137.3218.3342 0 .0477 1.3446 1.4183 1.8023 1.8342.1931.1705.3433.3274.3433.3546 0 .0205.1573.1841.3576.3614.1931.1773.3576.3546.3576.4024 0 .0409.0786.15.1788.2386.1001.0887.1788.1364.1788.1091 0-.0272.329.266.7295.6546.4076.3819.6937.6342.6365.5592-.0572-.0682.1073.0682.3576.3137.2503.2455.4434.4705.4291.5114-.0143.0341-.0072.0477.0286.0205.093-.0819 1.8094 1.4047 1.7665 1.5342-.0071.0341.0143.0409.0501.0205.0357-.0273.1359.0477.2217.1636.0858.1159.1788.191.2145.1705.0358-.0205.1359.0546.2217.1705.093.1091.2075.2045.2575.2045.0501 0 .1431.0751.2074.1705.0644.0955.1574.1705.2074.1705.0572 0 .1574.075.236.1705.0787.0954.1788.1704.2217.1704.043 0 .1288.075.1931.1705.0644.0955.1574.1705.2146.1705.0501 0 .1502.075.2146.1705.0643.0954.1573.1704.2074.1704.0572 0 .1573.075.236.1705.0786.0955.1788.1705.2145.1705.0429 0 .1359.075.2146.1705.0787.0954.1788.1704.2217.1704.0429 0 .0787.0273.0787.0682 0 .0341.05.0682.1072.0682.0573 0 .1073.0273.1073.0682 0 .0341.0501.0682.1073.0682.0572 0 .1073.0273.1073.0682 0 .0341.0214.0614.0572.0477.0858-.0273.4434.2728.3862.3273-.0286.0341-.0143.0341.0358.0137.0429-.0273.1645.0477.2789.1704.1073.1228.2074.218.2217.205.0286-.021.3361.177.5221.341.0715.061.1502.095.1716.075.0215-.021.0572.013.0858.075.0215.061.0716.095.1002.075.0357-.021.143.054.236.17.1001.109.2145.205.2575.205.0429 0 .1144.061.1644.136.0501.075.1431.136.2075.136.0643 0 .2217.089.3432.198.1288.116.2432.205.2647.205.0715 0 .379.259.3504.293-.0214.02.0072.034.0644.034.1216 0 .9726.566.9726.648 0 .034.0286.041.0715.02.0358-.02.1502.028.2432.116.093.089.2146.164.2646.177.0572.014.1502.075.2146.15.0644.076.1359.11.1645.089.0214-.027.0429-.007.0429.041s.0286.061.0715.041c.0358-.02.1502.034.2432.123.1001.095.1931.157.2074.143.05-.055.6937.43.6437.484-.0358.027-.0215.034.0286.007.05-.027.1501.007.2217.075.0715.068.1716.129.2217.143.143.027.4362.232.4362.3 0 .034.0358.041.0787.021.0858-.055.6365.272.6365.381 0 .035.0286.055.0715.028.0358-.021.1288.02.2075.095.0786.075.1573.116.1788.089.0214-.021.0429 0 .0429.048 0 .047.0286.061.0715.04.0357-.02.0715-.006.0715.035 0 .04.0286.054.0715.034.0358-.021.1502.027.2432.116.093.088.2145.163.2646.177.0572.014.1359.068.1788.116.0429.054.1001.082.1216.054.0286-.02.05-.006.05.041 0 .048.0287.062.0716.041.0429-.02.0715-.007.0715.027 0 .041.05.075.1073.075.0572 0 .1072.028.1072.069 0 .034.0215.061.0573.061.1358-.02.236.014.1931.075-.0287.041.0071.048.0786.02.093-.034.1073-.02.0644.048-.0358.055-.0286.075.0214.041.1073-.061.4506.102.3934.191-.0215.041-.0215.055.0072.027.0643-.054 1.1085.457 1.2301.6.0429.055.1001.075.1216.048.0286-.02.05-.007.05.041s.0286.061.0715.041c.0358-.02.0716-.007.0716.034s.0286.055.0715.034c.0429-.02.0715-.013.0715.027 0 .041.0429.055.093.035.05-.014.1788.04.2861.136.1001.089.2002.143.2217.123.0214-.021.0429 0 .0429.047 0 .048.0286.069.0643.048.093-.054.3004.027.2504.102-.0215.034.0071.041.0643.021.0572-.021.1502.007.2003.054.0572.048.1502.096.2074.11.0572.013.143.068.1859.115.0429.055.1002.082.1216.055.0286-.02.0501-.007.0501.041s.0357.061.0715.041c.0429-.021.0715-.007.0715.034 0 .048.0501.068.1073.041.0572-.021.1073-.007.1073.034s.0357.048.0715.027c.0429-.02.093.007.1144.062.0215.061.0715.088.1073.068.0358-.021.0644 0 .0644.041s.0286.054.0715.034c.0357-.021.0715-.007.0715.034 0 .048.0501.068.1073.041.0572-.021.1073-.007.1073.027s.05.048.1072.027c.0573-.027.1216.007.1502.069.0215.061.0715.088.1073.068.0358-.021.0644 0 .0644.034 0 .041.0214.068.0572.054.0858-.027.658.239.658.307 0 .034.0286.048.0643.021.1073-.055.658.177.6008.259-.0215.041-.0072.048.0357.02.0787-.048.8154.273.8583.375.0143.028.0715.034.1359.014.0786-.027.1001-.014.0643.034-.0286.055-.0143.068.0501.041.0572-.021.1502.007.2002.061.0573.048.1431.082.2003.062.0572-.021.0787 0 .0501.047-.0358.048-.0072.062.0572.034.0643-.02.1144-.006.1144.041 0 .041.0358.055.0715.034.0429-.02.0715-.006.0715.035s.0286.061.0644.034c.0787-.041.4363.102.4363.177 0 .034.0429.041.1001.02.0501-.02.143.007.1931.062.0572.048.143.082.2003.061.0572-.02.0786 0 .05.048-.0286.041-.0143.061.0501.034.0572-.02.1502.007.2002.061.0572.048.1359.082.1788.069.0501-.014.1288.013.1788.068.0572.047.1431.082.2003.061.0572-.02.0787 0 .05.048-.0286.041-.0143.061.0501.034.0572-.021.1502.007.2003.061.0572.048.143.082.1931.062.0429-.014.0858.007.0858.041 0 .041.0644.054.143.034.0858-.021.1431 0 .1431.041 0 .047.0286.068.0643.041.0859-.048.5793.17.5793.252 0 .034.0286.048.0644.027.093-.054.5149.096.4649.171-.0215.034.0143.04.0715.02.0644-.02.1144-.014.1144.027s.0644.055.1431.034c.0786-.02.143 0 .143.041 0 .034.0501.055.1073.034.0572-.027.1073-.013.1073.028s.0715.054.1573.027c.1001-.02.1359-.007.1001.041-.0357.054-.0143.068.0572.041.0644-.021.1145-.007.1145.034s.05.054.1072.034c.0573-.027.1073-.007.1073.034s.0501.055.1073.034c.0572-.027.1073-.007.1073.041 0 .041.0286.061.0643.034.0787-.041.4363.102.4363.177 0 .035.0501.041.1073.021.0572-.027.1073-.014.1073.027s.0643.055.143.034c.0787-.02.143-.007.143.034 0 .034.043.069.093.062.2432-.007.3433.027.2932.102-.0286.041-.0214.055.0215.034.093-.054.6008.096.5578.164-.0214.027.0215.034.0859.02.1645-.041.894.205.8296.273-.0358.027.0357.027.1502 0 .1573-.034.1931-.027.1502.041-.0358.054-.0286.075.0143.048.1001-.062.5936.095.5507.17-.0215.034.0429.041.143.014.1144-.028.186-.014.186.034 0 .041.05.054.1072.034.0573-.027.1073-.007.1073.034s.0501.055.1073.034c.1287-.048.894.171.894.259 0 .028.0787.041.1788.014.1001-.021.1788-.014.1788.027s.0715.055.1573.027c.1144-.027.1359-.013.093.055-.0358.061-.0286.075.0214.041.093-.055.658.089.658.17 0 .028.0715.034.1574.007.1001-.02.1358-.007.1001.041-.0358.055-.0072.068.0644.041.1358-.055.9798.171.9297.246-.0143.02.0715.034.2002.013.1788-.02.2075-.007.1216.048-.0786.054-.05.068.1216.034.2289-.041.7367.075.7367.177 0 .028.0643.041.143.021.0787-.021.143-.007.143.027 0 .041.0859.055.186.034.1359-.02.1788-.007.143.041-.0357.055-.0071.068.0644.041.143-.055.6222.034.5793.102-.0215.028.0429.041.1359.021.1001-.014.1788 0 .1788.034 0 .041.0786.054.1788.034.1001-.014.1788 0 .1788.041s.0715.054.1573.027c.093-.02.1359-.007.1073.034-.0358.048 0 .062.0858.041.0787-.02.3147.014.5293.075.2145.061.4934.109.6222.109.1287 0 .2074.027.1788.068-.0286.041.0429.048.1859.021.1788-.034.2146-.021.1717.048-.043.068-.0143.075.1358.04.2074-.047.5579.014.5078.089-.0143.027.0715.034.1931.021.1574-.021.2074-.007.1717.047-.0429.055 0 .069.1287.034.1216-.027.186-.013.186.035 0 .047.0643.061.1788.034.1144-.028.1787-.014.1787.041 0 .04.0358.054.0787.034.1002-.062.8654.027.8225.095-.0215.027.0858.041.2288.027.2218-.02.2361-.006.1216.048-.1144.055-.0858.061.1288.034.143-.02.2646-.013.2646.014s.2145.061.4792.068c.2646.007.4934.041.5006.068.0143.034.143.048.2932.034.2074-.02.2432-.007.1574.055-.0859.061-.0716.068.0929.041.1073-.028.1931-.014.1931.02s.1288.048.2861.027c.1717-.02.329-.006.3862.041.0572.048.1788.062.3004.034.1287-.034.1788-.02.143.028-.0286.048.0358.061.2003.034.2789-.041.7795.027.7295.102-.0143.027.1788.034.4362.027.3362-.02.4506-.006.4149.048-.0358.055.0071.068.1358.034.1288-.027.186-.013.186.041 0 .062.1216.075.4649.055.2574-.021.4648-.014.4648.013 0 .028.0859.034.186.014.1073-.02.1716-.007.1502.027-.0215.034.1931.062.472.062s.5149.027.5292.068c.0143.041.2861.068.6294.068.3361 0 .6079.02.6079.041 0 .02.0858.041.2003.048 1.273.013 1.5805.034 1.5519.081-.0214.028.0358.041.1216.014.0787-.02.1359-.007.1073.027-.0215.035.2932.055.7509.041.5865-.013.8583.007 1.0657.082.2002.075.4005.096.7009.068.565-.061 1.0012.014 1.2515.212.186.143.2146.204.2146.532.0071.204.0358.361.0715.334.0358-.021.0429.054.0215.177-.0286.136-.0143.218.0286.218.05 0 .0643.082.05.198-.0143.116-.0071.191.0215.17.0787-.04.1645.56.093.662-.0358.054-.0215.068.0429.027.0643-.041.0787.014.0357.232-.0357.198-.0214.28.0358.28s.0715.075.0429.231c-.0286.13-.0143.246.0215.26.0929.027.3146 1.322.2503 1.5-.0215.082-.0143.122.0286.102.0787-.055.1716.791.1144 1.043-.0286.103-.0143.137.0215.089.0787-.109.3433 1.739.2789 1.943-.0286.082-.0215.15.0071.15.0358 0 .0644.232.0716.519.0071.279.05.552.0929.607.0787.088.0859.156.093.872 0 .259.0286.362.0644.307.0429-.054.0501.062.0286.3-.0286.253-.0143.396.0286.396s.0572.068.0286.163c-.0215.082 0 .444.0501.798.1001.716.1216 1.003.1287 1.821.0072.314.0358.552.0715.532.0286-.021.0787.259.1002.627.143 2.121.2002 3.573.1573 3.935-.0286.3-.0215.381.0358.306.0572-.075.0643.144.0357.785-.0286.545-.0214.852.0215.797.0786-.109.1144.43.2646 4.065.0644 1.404.093 2.611.0715 2.693-.0358.123-.0286.13.0358.048.0643-.075.0715.054.0429.545-.0358.478-.0215.621.0357.546.0572-.075.0644 0 .0286.3-.0286.252-.0214.382.0215.354.0858-.047.1859.635.1144.812-.0286.075-.0214.116.0143.082.0716-.062.3147.702.3147 1.009.0072.334.2217.682.4363.702.2646.028.379-.286.5578-1.589.1431-1.016.1502-1.432.1645-5.898.0072-2.646.0286-4.623.0572-4.398.0215.259.0429.027.0429-.648 0-1.186.2575-3.355.9655-8.319.0358-.28.1002-.757.1359-1.057.0358-.3.1502-1.05.2508-1.671.307-1.868.607-3.723.793-4.875.573-3.567.58-3.614.83-3.832.122-.103.329-.13 1.373-.171 1.481-.061 1.609-.075 1.566-.143-.014-.027.072-.048.186-.048.122 0 .222.027.222.068 0 .096.908.089.973-.007.021-.04.121-.061.214-.04.093.013.172.006.172-.021 0-.027.286-.048.636-.041.351.007.623-.013.608-.041-.057-.088 1.188-.211 2.132-.211.336 0 .536-.027.507-.068-.028-.041.036-.055.143-.034.108.02.172.013.158-.014-.043-.061.686-.15 1.373-.164.279 0 .493-.034.465-.068-.022-.034.064-.041.207-.02.179.034.215.027.136-.028-.079-.047-.021-.061.229-.047.193.013.35-.007.365-.034.021-.062.994-.205 1.423-.212.143-.007.243-.034.222-.068-.029-.034.078-.041.236-.014.157.028.243.021.193-.013-.115-.068.908-.253 1.123-.198.093.02.128.007.093-.034-.029-.055.028-.061.186-.034.164.034.214.02.178-.034-.035-.055.015-.062.179-.034.158.034.215.02.179-.028-.036-.054.021-.068.172-.047.136.02.207 0 .178-.035-.028-.04.022-.054.108-.034.1.028.143.014.114-.027-.036-.048.036-.054.222-.027.2.041.25.027.207-.034-.036-.062.007-.068.179-.041.165.034.215.02.179-.034-.036-.048.007-.062.136-.041.107.02.171.013.157-.014-.05-.075.73-.218.901-.17.115.034.136.027.1-.034-.043-.062 0-.075.172-.055.122.014.222 0 .222-.034s.064-.048.143-.027c.078.02.143.007.143-.028 0-.081.565-.218.758-.177.1.014.15 0 .121-.041-.028-.041.029-.054.151-.034.1.021.186.007.186-.034 0-.034.064-.048.143-.027.078.02.128.007.107-.021-.05-.082.515-.225.686-.184.079.021.122.014.108-.013-.022-.021.15-.096.372-.157.221-.062.743-.212 1.151-.328.401-.116.787-.197.844-.177.064.027.079.014.05-.041-.036-.054.014-.061.179-.034.164.034.214.021.179-.034-.036-.048 0-.061.1-.041.086.027.143.014.121-.02-.021-.028.05-.075.158-.103.107-.02.486-.136.837-.245.343-.109.693-.184.765-.171.086.021.121.007.086-.041-.029-.04.014-.054.107-.034.086.028.143.021.121-.013-.05-.075 1.524-.566 1.624-.505.05.027.057.021.029-.027-.051-.075.05-.109.293-.102.05.006.071-.028.043-.069-.029-.041.014-.054.107-.034.1.028.143.014.107-.034-.028-.041.015-.054.107-.034.101.027.144.014.108-.034-.029-.041.014-.055.107-.034.086.027.143.014.115-.021-.036-.054.085-.088.307-.081.05.006.072-.021.057-.055-.057-.075.73-.286.83-.225.05.027.064.021.043-.014-.057-.088.772-.395.887-.334.057.041.071.028.028-.034-.043-.068-.021-.082.1-.048.093.021.143.021.122 0-.064-.061 1.044-.504 1.159-.463.05.013.071.007.05-.028-.05-.081.221-.163.329-.102.05.027.064.021.042-.02-.057-.082.508-.307.616-.246.042.021.05.007.021-.034-.05-.075.05-.109.293-.102.05.007.079-.021.057-.048-.05-.075.372-.225.472-.163.058.027.072.02.036-.028-.05-.075.05-.109.293-.102.051.007.079-.021.058-.048-.036-.054.407-.232.572-.238.043 0 .114-.041.171-.089.051-.048.144-.075.201-.055.057.021.086.014.064-.02-.05-.075.157-.157.25-.102.036.02.065 0 .065-.041 0-.048.05-.062.114-.041.057.02.086.013.065-.027-.022-.041 0-.069.05-.069s.35-.122.658-.272c.314-.15.593-.253.629-.232.029.02.057 0 .057-.048s.022-.068.043-.041c.029.021.093-.007.15-.061.065-.055.158-.089.215-.068.064.027.079.013.05-.041-.036-.055-.014-.062.064-.035.072.021.122.014.122-.027s.036-.048.071-.027c.043.02.072.014.072-.021 0-.061.336-.245.465-.252.043 0 .114-.041.171-.088.05-.048.143-.075.194-.055.057.02.1.007.1-.027 0-.089.414-.287.5-.239.043.021.072.007.072-.034s.036-.055.071-.034c.043.02.072.014.072-.027 0-.103.558-.362.658-.307.05.034.057.02.021-.041-.043-.068-.028-.082.065-.048.064.027.107.021.085-.014-.05-.075.158-.156.251-.102.036.021.064 0 .064-.048 0-.047.022-.068.043-.047.021.027.1-.014.179-.089.079-.075.179-.116.222-.089.042.028.057.021.035-.02-.043-.068 1.495-.818 1.609-.784.036.007.051-.014.029-.048-.036-.055.315-.239.422-.218.022.007.1-.055.186-.137.079-.075.279-.197.443-.272.165-.075.458-.225.658-.334.193-.11.387-.178.43-.157.035.027.05.02.021-.007-.064-.068.651-.532.737-.477.035.02.064 0 .064-.048s.021-.068.043-.041c.021.02.114-.021.2-.096.2-.184.515-.34.572-.286.022.027.043.007.043-.034 0-.082.508-.396.594-.368.036.007.043-.014.021-.048-.043-.061.222-.184.336-.157.029.007.05-.013.05-.054 0-.103.787-.553.88-.505.05.027.065.027.036-.007-.064-.068.522-.443.622-.395.036.027.05.013.014-.014-.057-.061.587-.484.687-.457.036.007.043-.013.021-.048-.05-.068.594-.484.794-.518.072-.007.122-.054.115-.095-.022-.082.372-.293.436-.232.021.027.043.007.043-.041s.036-.061.071-.041c.043.027.065.014.058-.02-.036-.123 1.208-.989 1.33-.921.043.021.057.021.029-.014-.029-.027.05-.129.178-.2246.129-.0955.379-.3137.572-.4773.194-.1637.372-.2728.422-.2455.043.0273.058.0205.036-.0205-.064-.0954.286-.3136.394-.2523.05.0341.057.0205.021-.0409-.043-.0682-.029-.0818.079-.0409.071.0273.107.0273.085 0-.028-.0273.072-.1432.222-.2591.15-.1159.522-.416.83-.6683.307-.2523.586-.4432.629-.4159.043.0204.05.0068.022-.0341-.022-.0409 0-.0955.057-.1296.193-.1091.944-.7364 1.437-1.2137.573-.5387 1.188-1.0297 1.266-1.0093.036.0137.05 0 .043-.034-.014-.0546.68-.7433 1.066-1.057.15-.1227.837-.7705 1.523-1.4456 1.13-1.1047 1.588-1.582 3.24-3.3617.272-.2864.844-.9547 1.273-1.4798 1.187-1.4456 1.731-2.0797 1.802-2.0797.029 0 .036-.0341.015-.0682-.029-.0409.05-.1637.171-.2728.115-.1159.193-.2046.179-.2046-.014 0 .021-.075.086-.1704.064-.0955.15-.15.2-.1228.043.0205.057.0205.029-.0068-.029-.0341.071-.2114.207-.4091.579-.7774 1.144-1.5684 1.416-1.9775.158-.2387.343-.5046.415-.5933.343-.4432.794-1.0978 1.051-1.5479.165-.2659.322-.4909.351-.4909.028 0 .093-.116.15-.2592.05-.1363.15-.3273.215-.4227.064-.0955.214-.3069.321-.4774.108-.1704.258-.3818.322-.4773.065-.0955.258-.4296.422-.7501.165-.3205.394-.7364.508-.9205.122-.191.265-.4365.315-.5456.057-.1159.186-.2795.293-.375.214-.1909.465-.225 1.666-.2046.401.0068.773-.0204.823-.0545.1-.075 1.981-.191 4.734-.2864 1.066-.0409 2.496-.0955 3.183-.1364 2.081-.1091 5.314-.2182 5.743-.1977.229.0136.407 0 .407-.0341 0-.0273.086-.0341.194-.0069.114.0273.178.0205.143-.0068-.065-.0614.364-.2455.457-.1909.036.0204.065 0 .065-.0409s.035-.0546.071-.0341c.043.0204.072.0068.072-.0341s.036-.0546.071-.0341c.043.0205.072.0136.072-.0273s.078-.0886.179-.1159c.193-.0477.278-.2182.207-.4023-.043-.0955-.107-.1091-.365-.075-.2.0272-.307.0136-.307-.0341 0-.0478-.072-.0614-.179-.0341-.107.0273-.179.0136-.179-.0273s-.057-.0682-.121-.0614c-.072.0068-.151 0-.179-.0068-.136-.0409-.494-.0818-.966-.1023-.279-.0136-.572-.0409-.651-.0613-.078-.0273-.7-.0478-1.38-.0546-.815 0-1.266-.0341-1.302-.0818-.042-.0478-.071-.0478-.093-.0068-.028.075-.886.0477-.886-.0273 0-.0273-.294-.0341-.651-.0205-.372.0205-.637.0068-.615-.0273.021-.034-.429-.0613-1.009-.0613-1.695-.0068-3.597-.1091-3.54-.1909.029-.0478-.136-.0546-.522-.0205-.372.0273-.529.0204-.458-.0205.065-.0477-.336-.0682-1.201-.0682-.715 0-1.338-.0204-1.373-.0409-.043-.0204-.415-.0409-.844-.0409-.93 0-1.388-.0477-1.323-.15.028-.0409.007-.0477-.043-.0136-.136.075-.429-.2251-.508-.5251-.043-.1432-.107-.2591-.143-.2591-.043 0-.072-.0478-.072-.1023 0-.0546-.028-.1023-.071-.1023-.036 0-.072-.0341-.072-.075s-.057-.1568-.128-.2523c-.072-.1023-.186-.3273-.258-.5114-.071-.1773-.15-.3205-.171-.3205-.029 0-.101-.1023-.151-.225-.057-.116-.157-.2523-.214-.3001-.065-.0477-.086-.0886-.05-.0886.028 0-.022-.1023-.122-.2319-.107-.1227-.164-.2454-.143-.2727.029-.0205.014-.0409-.029-.0409-.042 0-.121-.1023-.171-.2251-.05-.1159-.143-.2523-.208-.3-.057-.0477-.078-.0886-.05-.0886.036 0 .007-.0478-.05-.1091-.064-.0546-.114-.1501-.114-.2046 0-.0546-.029-.0955-.057-.0955-.036 0-.122-.1227-.193-.2727-.072-.15-.158-.2728-.194-.2728-.035 0-.1-.0955-.135-.2046-.043-.1159-.108-.2045-.143-.2045-.036 0-.108-.0819-.151-.191-.086-.1772-.472-.7637-.55-.8319-.058-.0477-.215-.2864-.265-.4091-.029-.0546-.164-.2387-.308-.4091-.143-.1705-.307-.3887-.357-.4978-.057-.1023-.129-.1841-.15-.1841-.029 0-.093-.0955-.143-.2046-.05-.1159-.115-.2046-.151-.2046-.028 0-.071-.0545-.093-.1227-.021-.0682-.171-.2591-.328-.4228-.401-.4228-.43-.4637-.43-.5455 0-.0341-.028-.0682-.071-.0682-.036 0-.072-.0409-.072-.0955 0-.0545-.05-.1091-.107-.1363-.057-.0205-.107-.0819-.107-.1433 0-.0545-.029-.1022-.072-.1022-.035 0-.071-.0273-.071-.0682 0-.0614-.15-.2387-.515-.6069-.115-.1091-.2-.225-.2-.2591 0-.0341-.058-.1091-.122-.1637-.072-.0614-.222-.225-.343-.3682-.115-.1364-.286-.3137-.372-.3955-.093-.075-.165-.1705-.165-.2046 0-.0409-.064-.1295-.143-.2114-.086-.0818-.364-.3886-.629-.6819-.265-.3-.665-.7091-.887-.9137-.229-.2046-.415-.4023-.415-.4296 0-.0341-.157-.1977-.357-.375-.193-.1773-.358-.3546-.358-.3955 0-.041-.322-.3683-.715-.716-.386-.3546-.701-.6546-.694-.6819.014-.0546-1.151-1.1661-1.23-1.1661-.036 0-.3-.2455-.586-.5455-.294-.3-.565-.5455-.608-.5455-.05 0-.143-.0818-.208-.1841-.143-.2114-.579-.6342-.651-.6342-.028 0-.114-.0613-.2-.1364-.264-.2386-.508-.4364-.98-.7978-.25-.1977-.5-.4227-.55-.4977-.05-.0751-.122-.1228-.158-.1023-.028.0204-.121-.0409-.2-.1364-.079-.0955-.179-.1705-.214-.1705-.043 0-.136-.075-.215-.1705-.079-.0886-.157-.15-.172-.1295-.021.0136-.136-.075-.257-.2046-.115-.1296-.229-.2182-.25-.1977-.022.0136-.108-.0614-.201-.1773-.093-.1159-.2-.2114-.25-.2114-.043 0-.136-.075-.2-.1705-.065-.0955-.165-.1705-.222-.1705-.057 0-.143-.0613-.193-.1363-.05-.0751-.129-.1364-.179-.1364-.043 0-.164-.0955-.265-.2114-.1-.1159-.185-.1841-.185-.15-.008.0272-.065-.0068-.129-.0819-.072-.075-.172-.1432-.229-.1568-.057-.0136-.143-.0682-.186-.1159-.043-.0546-.1-.0819-.122-.0614-.021.0205-.171-.0886-.329-.2387-.164-.1568-.321-.2795-.364-.2795-.036 0-.122-.075-.186-.1705-.065-.0955-.165-.1705-.215-.1705-.057 0-.1-.0341-.1-.075 0-.0341-.029-.0545-.064-.0341-.079.0478-.644-.3341-.701-.4705-.022-.0545-.079-.1023-.136-.1023-.057 0-.1-.0341-.1-.075 0-.0341-.029-.0545-.072-.0273-.036.0205-.128-.0204-.207-.0954-.079-.075-.15-.1228-.165-.1091-.014.0204-.164-.0887-.329-.2319-.164-.1432-.314-.2454-.329-.225-.021.0205-.057-.0205-.085-.0818-.022-.0614-.072-.0955-.101-.075-.028.0204-.078-.0137-.1-.075-.021-.0546-.071-.0819-.114-.0614-.043.0204-.093-.0068-.115-.0614-.021-.0614-.085-.1091-.143-.1091-.057 0-.1-.0341-.1-.075 0-.0341-.028-.0477-.071-.0273-.036.0205-.072.0068-.072-.0341s-.028-.0545-.071-.0341c-.036.0205-.15-.0341-.243-.1227-.101-.0955-.194-.15-.215-.1296-.021.0205-.043 0-.043-.0477s-.029-.0614-.071-.0409c-.036.0204-.151-.0341-.251-.1296-.1-.1023-.214-.1773-.257-.1773-.036 0-.086-.0477-.107-.1022-.029-.0546-.086-.1023-.144-.1023-.057 0-.1-.0341-.1-.075 0-.0341-.028-.0546-.057-.0341-.036.0204-.164-.0546-.3-.1637-.136-.1091-.265-.1841-.301-.1636-.028.0204-.057-.0001-.057-.041s-.028-.0545-.071-.0341c-.036.0205-.072.0069-.072-.034 0-.041-.036-.0546-.071-.0341-.043.0204-.093 0-.115-.0546-.014-.0477-.071-.0954-.121-.0954-.122 0-.48-.2251-.48-.3069 0-.0341-.028-.0409-.071-.0205-.036.0205-.072.0068-.072-.0341s-.028-.0545-.071-.0341c-.036.0205-.072.0069-.072-.0341 0-.0409-.028-.0545-.071-.0341-.036.0205-.072.0069-.072-.034 0-.041-.028-.0614-.064-.0341-.036.0204-.122-.0341-.186-.116-.057-.0886-.122-.1432-.143-.1227-.014.0205-.107-.0273-.193-.1023-.093-.0682-.179-.1227-.2-.1159-.101.0341-.279-.075-.244-.1432.029-.0477.029-.0614-.007-.0341-.064.0614-.894-.3341-.894-.4228 0-.0341-.078-.0818-.178-.1091-.101-.0204-.179-.0682-.179-.1023 0-.0341-.022-.0545-.05-.0477-.1.0273-.88-.3546-.88-.4296 0-.0409-.029-.0477-.072-.0273-.035.0205-.071.0068-.071-.0341s-.029-.0545-.072-.0341c-.035.0205-.071.0069-.071-.0341 0-.0409-.029-.0545-.072-.034-.035.0204-.071.0068-.071-.0341 0-.041-.029-.0614-.072-.0341-.035.0204-.128-.0205-.207-.0955-.079-.075-.157-.1159-.179-.0955-.021.0273-.043.0069-.043-.0409 0-.0477-.028-.0614-.071-.0409-.036.0205-.072.0068-.072-.0341s-.028-.0545-.071-.0341c-.036.0205-.072.0068-.072-.0341s-.028-.0545-.071-.0341c-.036.0205-.072.0068-.072-.0341s-.029-.0545-.071-.0341c-.036.0205-.072.0137-.072-.0136 0-.0341-.071-.0614-.15-.0682-.086-.0068-.215-.075-.293-.15-.122-.1296-.222-.1705-.358-.15-.036 0-.057-.0205-.057-.0614 0-.0341-.05-.0477-.107-.0273-.058.0273-.122-.0068-.151-.0682-.021-.0613-.071-.0886-.107-.0682-.036.0205-.064 0-.064-.0409s-.036-.0545-.072-.0341c-.036.0205-.071.0069-.071-.0341 0-.0409-.029-.0545-.072-.0341-.036.0205-.071.0069-.071-.034 0-.041-.029-.0546-.072-.0341-.036.0204-.071.0068-.071-.0341 0-.041-.029-.0546-.072-.0341-.036.0204-.071.0136-.071-.0273 0-.0682-.272-.1841-.372-.1568-.036.0068-.058-.0205-.058-.0682 0-.0409-.021-.0546-.05-.0341-.021.0273-.143-.0137-.271-.0887-.129-.075-.251-.1159-.272-.0886-.029.0204-.05.0068-.05-.0409 0-.0478-.029-.0614-.072-.0409-.035.0204-.071.0068-.071-.0341 0-.041-.029-.0546-.072-.0341-.036.0204-.071.0204-.071-.0137 0-.0477-.386-.2455-.501-.2591-.021 0-.107-.0409-.186-.0886-.086-.0409-.172-.0546-.2-.0341-.022.0204-.043.0136-.043-.0205 0-.0682-.708-.3409-.801-.3137-.036.0069-.057-.0136-.057-.0545s-.022-.0614-.05-.0546c-.065.0137-.472-.1636-.522-.225-.065-.075-.501-.2727-.501-.225 0 .0273-.043.0068-.093-.0341-.057-.0409-.122-.0546-.143-.0273-.029.0205-.05.0068-.05-.0409s-.029-.0614-.072-.0409c-.035.0204-.071.0136-.071-.0273 0-.0614-.465-.1909-.587-.1568-.035.0068-.057-.0205-.057-.0614 0-.0341-.028-.0477-.071-.0273-.036.0205-.072.0069-.072-.0341 0-.0409-.028-.0613-.064-.0409-.036.0273-.079.0068-.093-.0341-.015-.0409-.115-.0818-.222-.0818-.107-.0068-.193-.0409-.193-.075 0-.0273-.05-.0409-.107-.0136-.058.0204-.108.0068-.108-.0342 0-.0409-.028-.0477-.071-.0272-.036.0204-.072.0068-.072-.0273 0-.0409-.021-.0682-.05-.0614-.035.0068-.128-.0204-.214-.0682-.093-.0477-.165-.0681-.165-.0409 0 .0205-.05.0068-.107-.0409-.057-.0477-.107-.0614-.107-.0409 0 .0273-.05 0-.115-.0546-.057-.0613-.136-.0954-.171-.075-.036.0205-.072 0-.086-.034-.014-.041-.093-.0819-.186-.0887-.086 0-.157-.0341-.157-.0682 0-.0273-.029-.0341-.072-.0136-.036.0204-.072.0136-.072-.0273s-.042-.0546-.1-.0341c-.057.0205-.121.0068-.143-.0341-.028-.0409-.093-.0545-.15-.0273-.057.0205-.107 0-.107-.0477 0-.0409-.029-.0614-.065-.0341-.035.0205-.085.0068-.114-.0341-.029-.0409-.071-.0545-.107-.0341-.036.0205-.079.0068-.107-.0341-.029-.0409-.079-.0545-.115-.0341-.036.0273-.064.0068-.064-.0341s-.029-.0545-.072-.0341c-.036.0205-.071.0069-.071-.0341 0-.0409-.029-.0545-.072-.0341-.036.0205-.071.0137-.071-.0204 0-.075-.573-.225-.658-.1773-.029.0205-.058 0-.058-.0409s-.028-.0614-.064-.0341c-.036.0204-.086.0068-.114-.0341-.029-.0409-.079-.0546-.115-.0341-.036.0273-.064.0068-.064-.0341 0-.0477-.05-.0682-.107-.0409-.058.0204-.108.0068-.108-.0341s-.05-.0614-.107-.0341c-.057.0205-.107.0068-.107-.0341s-.05-.0614-.108-.0341c-.057.0205-.107.0068-.107-.0341s-.028-.0477-.071-.0273c-.036.0205-.072.0069-.072-.0272 0-.0409-.021-.0682-.05-.0614-.036.0068-.129-.0205-.222-.0682-.085-.0477-.193-.0682-.228-.0477-.036.0204-.086.0068-.108-.0341-.028-.0409-.107-.0546-.186-.0341-.071.0273-.136.0136-.136-.0273s-.05-.0545-.107-.0341c-.057.0273-.107.0068-.107-.0409 0-.0409-.029-.0546-.072-.0341-.035.0205-.071.0068-.071-.0341 0-.0477-.05-.0682-.107-.0477-.058.0272-.122.0136-.144-.0273-.028-.0341-.071-.0477-.107-.0273-.036.0205-.078.0068-.107-.0273-.022-.0409-.086-.0545-.143-.0272-.057.0204-.107 0-.107-.0409 0-.041-.05-.0546-.108-.0341-.057.0272-.107.0068-.107-.0341s-.021-.0682-.05-.0614c-.036.0068-.15-.0273-.257-.0682-.115-.0477-.229-.0682-.265-.0477-.036.0204-.086.0068-.107-.0341-.029-.0409-.108-.0546-.186-.0341-.072.0273-.136.0136-.136-.0273s-.05-.0545-.107-.0341c-.058.0273-.108.0068-.108-.0477 0-.0477-.021-.0614-.05-.0409-.021.0272-.086.0136-.136-.0273-.057-.0409-.207-.075-.35-.0818-.136-.0068-.25-.0273-.25-.0614 0-.0273-.051-.0341-.108-.0136-.057.0272-.107.0068-.107-.041 0-.0409-.029-.0613-.064-.034-.036.0204-.086.0068-.115-.0273-.021-.0409-.086-.0546-.143-.0273-.057.0205-.107 0-.107-.0477 0-.0478-.05-.0682-.107-.0409-.058.0204-.108.0068-.108-.0273s-.05-.0478-.107-.0273c-.057.0273-.107.0068-.107-.0409 0-.0409-.029-.0614-.065-.0341-.035.0204-.085.0068-.107-.0273-.021-.0341-.107-.0477-.186-.0273-.086.0205-.143 0-.143-.0477 0-.0409-.071-.0682-.157-.0614-.093.0069-.222-.0068-.286-.0409-.072-.0273-.208-.0545-.308-.0613-.1 0-.179-.0341-.179-.0614 0-.0341-.064-.0341-.143-.0136-.078.0272-.143.0136-.143-.0273 0-.041-.021-.0682-.05-.0682-.036.0068-.078 0-.107-.0068-.036-.0069-.086-.0273-.129-.0341-.036-.0069-.078-.0273-.086-.0341-.035-.0341-.379-.075-.572-.075-.114 0-.2-.0273-.2-.0546 0-.0341-.064-.0477-.143-.0273-.079.0205-.143 0-.143-.0409 0-.0341-.05-.0545-.107-.0341-.058.0273-.108.0068-.108-.0409s-.043-.0682-.1-.0477c-.05.0204-.129.0068-.164-.0273-.036-.0341-.215-.075-.394-.0886-.178-.0137-.364-.0478-.407-.0682-.043-.0273-.108-.0273-.15-.0069-.036.0205-.115.0205-.158-.0136-.05-.0273-.107-.0545-.129-.0614-.021 0-.128-.0409-.25-.0886-.114-.0477-.343-.0955-.501-.1091-.157-.0137-.3-.0341-.321-.0409-.022-.0068-.065-.0205-.108-.0273-.035-.0068-.128-.0341-.193-.0682-.071-.0273-.179-.0273-.243-.0068-.064.0273-.157.0136-.2-.0205-.043-.0341-.222-.0818-.401-.1091-.414-.0545-.515-.075-.643-.1227-.058-.0205-.329-.075-.608-.1091-1.023-.1432-1.645-.2455-2.074-.341-.508-.1227-1.366-.2182-1.488-.1704-.071.0204-.164.0068-.222-.0341-.05-.0409-.15-.0614-.214-.0341-.064.0204-.115.0136-.115-.0137 0-.0341-.135-.075-.307-.0818-.501-.0409-.587-.0545-.658-.0955-.043-.0272-.286-.0477-.536-.0613-.258-.0069-.508-.0409-.558-.0819-.05-.0341-.265-.0477-.479-.0272-.236.0204-.394.0136-.394-.0273s-.028-.0546-.064-.0273c-.036.0205-.093 0-.115-.0409-.028-.0341-.093-.0545-.15-.0341-.05.0205-.114.0068-.136-.0273-.028-.0409-.128-.0682-.236-.0682-.15 0-.171.0137-.086.0682.079.0478.015.0682-.236.0682-.243 0-.329-.0204-.293-.0818.036-.0546-.014-.0614-.171-.0341-.129.0273-.244.0136-.272-.0273-.022-.0409-.293-.0613-.644-.0545-.336.0068-.622-.0068-.651-.0341-.021-.0205-.372-.0409-.772-.0409-.458 0-.844-.0341-1.03-.1023-.164-.0546-.307-.0955-.329-.1023-.021 0-.057 0-.086-.0068h-.987c-1.258.0068-1.23.0341-1.537-1.3093-.129-.5523-.215-1.0978-.201-1.2069.022-.1159.015-.1841-.007-.1637-.093.0819-.479-2.2843-.407-2.4684.021-.0546.014-.0887-.015-.0682-.143.0818-.6363-4.3301-.8723-7.7668-.0429-.641-.1073-1.5002-.1502-1.9093-.0357-.416-.1001-1.3024-.1359-1.9775-.0429-.6751-.1501-2.3662-.2503-3.7505-.0929-1.39103-.1859-2.89118-.2145-3.34124-.0215-.45006-.0858-1.40469-.1431-2.11387-.0572-.71599-.1216-1.73883-.143-2.28435-.0358-1.06375-.1359-1.67746-.2932-1.847947-.0572-.061371-.0787-.129563-.0501-.150009.0215-.027283.0143-.047745-.0214-.047745-.0358 0-.0716-.068176-.0787-.143189-.0072-.081832-.0787-.211395-.1574-.293228-.0858-.081817-.1501-.190918-.1501-.231826 0-.150025-.3863-.088654-.515.088653ZM92.0307 39.8771c.1573.1228.1573.1432.0715.4978-.0501.2046-.1788.641-.2861.9819-.1144.3342-.2217.7228-.2503.8524-.0286.1296-.1073.3614-.1788.5114-.0715.1501-.1645.3955-.2002.5455-.0787.2933-.4077 1.207-.515 1.432-.0357.075-.1359.3273-.2145.566-.0787.2318-.279.7092-.4363 1.0569-.1573.3478-.3218.7297-.3576.8524-.093.2932-1.6664 3.2458-2.0812 3.9005-.5793.9205-.7939 1.2546-.9798 1.5342-.3075.4569-1.1658 1.6161-1.4733 1.9843-.1573.191-.3647.4501-.4649.5728-.8582 1.0979-2.5818 2.8435-3.8977 3.9482-1.1944 1.0024-2.6748 2.1207-2.8107 2.1207-.043 0-.0859.0273-.1002.0614-.0357.1023-1.6091 1.0978-1.6592 1.0501-.0215-.0273-.0429-.0068-.0429.0409s-.0286.0682-.0644.0477c-.0357-.0272-.0786-.0136-.093.0137-.0643.1636-2.9322 1.6843-3.0109 1.6024-.0286-.0204-.0501-.0068-.0501.0341 0 .0478-.0643.0818-.143.0818-.0787 0-.143.0273-.143.0614 0 .0614-.1931.15-.4077.1841-.0501.0068-.1788.075-.2861.15-.1073.0751-.2789.1569-.379.1842-.1001.0272-.2718.1022-.3934.1568-.329.1636-1.3445.5592-1.4518.5592-.0501 0-.1645.0409-.2503.0954-.2289.1432-1.5377.5796-1.5877.5319-.0215-.0273-.0644-.0136-.093.0273-.0501.0818-.8368.375-.9298.3546-.0286-.0069-.2074.0545-.4005.1363-.1931.0819-.3862.1501-.4362.1501-.043 0-.3862.0886-.751.2045-.3647.1091-.7438.2046-.8368.2046-.0929 0-.2431.0477-.3361.1023-.093.0613-.2002.1023-.2289.0954-.0357-.0068-.1144 0-.1716.0205-.3504.1296-.9226.2728-1.1729.3-.1645.0205-.5149.1091-.7939.1978-.8153.2727-1.4661.3887-1.5877.3-.1359-.1159-.0572-.8933.1645-1.5479.093-.2727.1716-.566.1716-.6478 0-.1841.3004-1.0978.3719-1.1251.0358-.0137.0573-.15.0573-.2932 0-.1501.0357-.341.0858-.4228.0429-.0818.1216-.3069.1716-.491.1145-.4432.4291-1.2956.5579-1.5206.0572-.1023.1216-.2932.1502-.4296.0214-.1296.1144-.3478.2145-.4705.1002-.1296.1788-.3069.1788-.3955 0-.0887.0787-.3069.1717-.4842.0929-.1704.2503-.4841.3504-.6887.4792-.9955.9941-1.9706 1.0871-2.0457.0572-.0477.1073-.1363.1073-.1977 0-.0614.1001-.2455.2145-.416.1145-.1704.2146-.3341.2146-.3614 0-.0341.0787-.1568.1788-.2795.1001-.1228.1788-.2523.1788-.2796 0-.0341.0786-.1705.1716-.3.5936-.8661 1.1586-1.6843 1.1801-1.7389.0357-.0818 1.4089-1.8002 1.6092-2.0252.0929-.0955.1931-.225.2288-.2796.0715-.1296.658-.7569 1.7451-1.8888.7438-.7774 3.2684-3.0345 3.6904-3.3072.1287-.0819.6222-.4296 1.1085-.7774 1.5377-1.1047 2.6891-1.8548 2.8536-1.8548.0358 0 .0715-.0272.0715-.0545 0-.0818.5436-.3614.6008-.3069.0214.0205.0429.0069.0429-.0409 0-.0477.0358-.0614.0715-.0409.0429.0205.0715.0137.0715-.0273 0-.0886.3934-.2864.4577-.2318.0215.0273.043.0136.043-.0273 0-.0886.3218-.2932.5149-.3273.0787-.0205.2003-.075.2646-.1227.2432-.1978.9441-.5251 1.0227-.4842.0501.0273.0573.0205.0287-.0273-.0287-.0477-.0072-.0818.0572-.0818.0572 0 .2217-.0613.3576-.1432.143-.0818.2574-.1159.2574-.0818 0 .0273.0286.0205.0572-.0136.0286-.041.1645-.116.3004-.1773.9512-.4296 1.223-.5387 1.3231-.5387.0644 0 .2575-.075.422-.1705.2861-.1568.8439-.3137 1.1371-.3137.0644 0 .1216-.0273.1216-.0614 0-.034.1144-.0409.2646-.0204.186.0273.2432.0204.2074-.0341-.0286-.0546 0-.0818.0859-.0818.0786 0 .2789-.0614.4505-.1296.2146-.0886.5793-.15 1.1372-.1841.8582-.0477 1.0871-.0682 1.1443-.0955.0214-.0068.2288-.0068.4577 0 .2789.0068.4434-.0204.4792-.0818.0429-.0614.3433-.0955 1.0585-.1227.5507-.0205 1.0227-.0614 1.0513-.0887.0286-.0273.2503-.0477.5006-.0477.3219 0 .4863.0341.6008.1227Zm14.0173.15c.337.0341 1.109.0955 1.724.1228 1.051.0614 1.137.075 1.366.2455.193.1363.336.1773.601.1773.193 0 .415.0477.486.1022.086.0614.3.1023.515.1023.243 0 .401.0341.458.1023.05.0546.15.1023.221.1023.072 0 .151.0273.172.0682.022.0341.122.0682.215.0682s.257.075.372.1636c.114.0955.307.191.422.2182.114.0273.3.1228.407.2114.115.0818.279.1569.372.1569.086 0 .2.0477.25.1022.05.0546.136.1023.186.1023.058 0 .1.0273.1.0682 0 .0341.115.0682.258.0682.272 0 .586.1364.887.3819.1.0818.279.1704.393.1909.122.0273.315.1227.444.2182.121.0886.25.1636.271.1636.029 0 .143.0751.265.1705.114.0955.279.1705.358.1705.078 0 .264.0887.414.2046.151.1091.301.2045.336.2045.036 0 .144.075.236.1705.093.0955.222.1705.294.1705.064 0 .157.0477.207.1023.05.0545.136.1023.193.1023.057 0 .179.0886.279.1977.093.1091.358.3137.587.4569.221.1432.436.3.464.3478.029.0477.115.0886.179.0886.072 0 .286.15.479.3409.194.1842.408.341.472.341.065 0 .158.0477.208.1023.05.0545.129.1023.172.1023.1 0 5.406 5.0528 5.406 5.1483 0 .0409.079.15.179.2523.1.1023.179.225.179.2727 0 .0546.179.2592.393.4637.215.2046.394.4228.394.4773 0 .0614.078.1842.178.2728.101.0887.179.1978.179.2387 0 .0409.129.2114.286.375.158.1637.301.3887.329.5114.029.1432.172.341.394.5524.193.1773.35.3614.35.4023 0 .0341.086.1568.186.2591s.2.2932.222.4228c.021.1227.114.3.207.3819.093.0818.172.1841.172.2113 0 .0341.078.1637.171.2796.093.1228.194.3205.222.4364.022.1228.079.2387.115.2592.035.0272.064.1159.064.2045 0 .0887.079.2523.179.3614.1.1159.179.2387.179.2864 0 .0478.1.1909.214.3205.157.1705.215.3.215.491 0 .1841.05.3.178.4159.101.0955.179.2387.179.341 0 .1023.072.2455.172.3341.093.0818.193.2455.214.3614.022.1159.122.3137.222.4364.107.1364.179.3137.179.4501 0 .1295.036.2659.079.3068.043.0409.093.2592.114.491.022.225.072.416.1.416.036 0 .065.034.065.075 0 .0409.05.1159.107.1704.057.0614.107.2114.107.341 0 .15.064.3273.179.4637.136.1704.193.3409.229.6955.028.3409.078.5114.193.6274.114.1295.15.2659.172.6818.014.2864.05.5865.078.6615.186.4159.329 1.2342.251 1.4183-.022.0614-.115.1159-.208.1159-.229 0-1.187-.1977-1.337-.2795-.072-.0341-.186-.0614-.251-.0614-.071 0-.221-.0477-.336-.1023-.107-.0545-.279-.1023-.372-.1023-.085 0-.178-.0273-.207-.0613-.022-.041-.193-.0887-.379-.116-.186-.0204-.365-.0682-.408-.0954-.036-.0273-.221-.075-.407-.0955-.186-.0273-.358-.075-.379-.1159-.029-.0341-.101-.0614-.172-.0614-.072 0-.172-.0477-.222-.1023-.05-.0545-.179-.1023-.286-.1023-.107 0-.236-.0477-.286-.1022-.05-.0546-.15-.1023-.222-.1023-.071 0-.15-.0341-.171-.0682-.022-.0409-.186-.0682-.351-.0682-.193 0-.343-.0409-.4-.1023-.05-.0545-.179-.1023-.286-.1023-.108 0-.236-.0477-.286-.1023-.05-.0545-.151-.1022-.222-.1022-.072 0-.15-.0341-.172-.0682-.021-.0409-.136-.0682-.243-.0682-.114 0-.243-.0478-.293-.1023-.05-.0546-.143-.1023-.215-.1023-.071 0-.164-.0477-.214-.1023-.05-.0545-.15-.1023-.222-.1023-.072 0-.15-.0341-.172-.0681-.021-.041-.136-.0682-.243-.0682-.114 0-.243-.0478-.293-.1023-.05-.0546-.15-.1023-.222-.1023-.071 0-.143-.0273-.171-.0614-.058-.0954-.465-.2796-.601-.2796-.065 0-.229-.075-.365-.1636-.136-.0887-.379-.1841-.543-.2046-.158-.0273-.372-.1227-.48-.2182-.1-.0886-.236-.1636-.286-.1636-.057 0-.143-.0478-.193-.1023-.05-.0546-.129-.1023-.179-.1023-.143 0-.829-.3478-1.037-.5182-.1-.0819-.271-.1705-.393-.191-.114-.0273-.315-.1227-.443-.2182-.122-.0886-.258-.1636-.294-.1636-.028 0-.135-.0751-.228-.1705-.093-.0955-.244-.1705-.344-.1705-.107 0-.329-.1364-.608-.375-.293-.2592-.493-.3751-.622-.3751-.107 0-.257-.075-.357-.1705-.093-.0954-.208-.1704-.258-.1704-.05 0-.243-.1569-.436-.341-.379-.3818-.723-.6137-.916-.6137-.136 0-2.117-1.8206-4.369-4.0232-1.138-1.1046-1.459-1.4592-1.459-1.5956 0-.1227-.115-.2932-.358-.5319-.193-.1909-.358-.3818-.358-.4159 0-.0341-.093-.1705-.214-.3001-.115-.1227-.215-.2591-.215-.3 0-.0341-.078-.15-.179-.2523-.1-.1023-.178-.2523-.178-.3341 0-.0819-.079-.2387-.179-.3478-.1-.1159-.179-.2455-.179-.3 0-.0546-.093-.1841-.214-.2932-.129-.1228-.215-.266-.215-.3751 0-.1023-.079-.2455-.179-.3409-.1-.0887-.179-.2114-.179-.2796 0-.0682-.028-.1364-.064-.1637-.086-.0477-.508-.8455-.508-.9546 0-.0478-.05-.1228-.107-.1705-.057-.0477-.107-.1705-.107-.2727 0-.1023-.05-.2251-.108-.2728-.057-.0477-.107-.1228-.107-.1705 0-.1091-.207-.4978-.293-.5455-.036-.0273-.064-.0955-.064-.1637 0-.0682-.051-.1636-.108-.2114-.064-.0545-.107-.1977-.107-.3818 0-.1568-.029-.3137-.072-.3341-.035-.0205-.071-.0955-.071-.1637 0-.0682-.05-.1636-.107-.2114-.058-.0477-.108-.1705-.108-.2727 0-.1023-.05-.2251-.107-.2728-.064-.0546-.107-.2046-.107-.3887 0-.1841-.029-.2864-.072-.2591-.043.0273-.071-.0477-.071-.1636 0-.116-.029-.2114-.065-.2114-.035 0-.085-.1228-.114-.266-.029-.15-.093-.3068-.15-.3546-.057-.0477-.1-.2045-.1-.375 0-.1568-.029-.3137-.072-.3341-.036-.0205-.071-.0955-.071-.1637 0-.0682-.05-.1636-.108-.2114-.064-.0477-.107-.1977-.107-.3477 0-.1501-.036-.266-.079-.266-.035 0-.057-.0273-.028-.0613.021-.0341.007-.0819-.036-.1092-.036-.0204-.072-.1295-.072-.2386s-.028-.2114-.064-.2319c-.036-.0273-.086-.2045-.114-.4023-.029-.1909-.079-.3682-.1-.3887-.029-.0204-.108-.2182-.179-.4432-.322-1.016-.279-1.091.672-1.0297.372.0205.951.075 1.287.1091Zm-42.0527 6.0007c0 .0409-.0286.1228-.0644.191-.0358.0613-.0858.1704-.1073.2386-.0214.0614-.1001.1432-.1716.1705-.1717.0614-.751.6887-1.552 1.6502-.5507.6682-.8797 1.091-1.6306 2.1139-.2432.3341-.8797 1.2683-1.1157 1.6365-.2861.4432-.5149.791-.751 1.1388-.1716.2591-.7509 1.2956-1.13 2.0116-.1072.2114-.2288.4023-.2646.4296-.0357.0204-.0929.1363-.1144.2591-.0286.1159-.1287.3136-.2217.4364-.093.1159-.1717.2659-.1717.3273 0 .0614-.0429.1978-.1001.2932-.0572.1023-.2217.4433-.3647.7637-.4148.9274-.5007 1.0911-.5507 1.0911-.0286 0-.0358.0409-.0143.0954.0214.0478-.0429.2592-.1431.4705-.1072.2114-.1859.4228-.1859.4706 0 .0477-.0787.2386-.1788.4295-.093.1842-.1717.3887-.1788.4433 0 .1636-.236.7501-.3004.7501-.0286 0-.0572.1022-.0572.2182 0 .2523-.2146.8728-.3004.8728-.0286 0-.0572.1227-.0572.2728 0 .2523-.1788.8796-.2789.9546-.0215.0205-.0501.0955-.0572.1705-.0573.4978-.2289 1.1933-.3004 1.1933-.0358 0-.0501.0818-.0858.5592-.0143.2454-.2218 1.0364-.2861 1.1183-.0358.0409-.0572.1636-.0572.2727.0071.416-.0572 1.0297-.1216 1.1252-.0286.0545-.0501.1431-.0429.2113.0143.0614-.0143.1296-.0572.1569-.0358.0204-.0716.1841-.0716.3614 0 .5387-.1072.791-.379.8864-.1287.0478-.3361.0819-.4649.0819-.1216 0-.236.0272-.2646.0613-.0215.041-.093.0682-.1645.0682-.4506.0205-1.0585.0955-1.0871.1501-.0214.0272-.1001.0545-.1788.0545-.0787-.0068-.2217.0136-.3218.0477-.1001.0273-.2861.0478-.4077.0546-.1287.0068-.236.0204-.236.0409 0 .0205-.2145.0477-.4792.0545-.2646.0069-.5006.0478-.5292.0887-.0286.0477-.1359.0614-.236.0477-.1001-.0204-.186-.0068-.186.0341 0 .0341-.0929.0478-.2145.0205-.1145-.0205-.2146-.0137-.2146.0204 0 .075-.7509.2046-1.4017.2319-.279.0136-.5436.0477-.5865.075-.0429.0273-.1573.0273-.2503 0-.1001-.0205-.1931-.0068-.2217.0273-.0215.0341-.1216.0477-.2217.0272-.1002-.0136-.1788 0-.1788.0341s-.1359.0614-.3004.0614c-.1717.0068-.4506.0273-.6294.0614-.1788.0273-.472.0477-.6579.0409-.2218-.0068-.3433.0136-.3433.0682 0 .0477-.0716.0614-.2146.0409-.1144-.0273-.2289-.0136-.2503.0205-.0429.0613-.093.0681-.8725.0886-.2361.0068-.422.0341-.4077.0614.0143.0204-.1573.0409-.3791.0409-.8153-.0068-.9512.0068-.9512.0886 0 .0478-.1144.0682-.3146.0546-.1717-.0137-.3004 0-.279.0273.0215.0341-.0858.0545-.236.0477-.7438-.0341-1.4661.0068-1.4232.075.0358.0477-.0858.0682-.3647.0546-.2361-.0069-.6437.0204-.9226.0613-.2718.0341-.565.075-.6437.075-.0787.0068-.5793.0205-1.1086.0409-.5292.0205-1.0799.0614-1.2158.0955-.1359.0409-.7581.1023-1.3731.15-1.2945.0955-1.3875.0682-1.2588-.3.0429-.1228.2146-.3955.3719-.6205.4077-.5524.6723-.941.7367-1.0638.0286-.0545.1645-.2386.3147-.4091.143-.1705.4791-.6137.7509-.9888.472-.6614.7295-.9955 1.3875-1.7934.1788-.2113.4362-.5387.5721-.7228.1359-.1841.4291-.5182.6437-.7501.2217-.2318.6866-.7364 1.037-1.1319.3576-.3955.8082-.8865 1.0156-1.091.2074-.2114.4506-.4774.5364-.5865.1859-.2386 2.6462-2.5639 3.626-3.4367.3647-.3205.7438-.6546.8511-.7501.2503-.225 2.1026-1.7388 2.5174-2.0525.1788-.1364.4792-.3955.6652-.566.1859-.1705.4219-.3341.5149-.3546.1001-.0204.1788-.075.1788-.1159 0-.0409.0214-.0545.0429-.0273.0501.0409.2074-.0682.7366-.5387.2218-.1977.5221-.4023.6795-.4637.1502-.0613.4505-.2795.6794-.4841.2217-.2046.4506-.375.5149-.375.0644 0 .2289-.0819.3719-.191.236-.1636.7224-.4773 1.0371-.6614.0715-.0409.143-.1023.1716-.1364.0358-.0477.0572-.0477.0572 0s.0215.0477.0572 0c.1216-.1568 1.4018-.9956 1.552-1.016.0429-.0068.2646-.1228.4792-.266.2217-.1363.4362-.2523.472-.2523.0429 0 .0858-.0204.1001-.0545.0215-.0546 1.1086-.6955 1.1801-.6955.0286 0 .1001-.041.1573-.0955.0644-.0477.3862-.225.7224-.3887.3361-.1636.6222-.3205.6436-.3409.0572-.0682.6294-.3342.7224-.3342.05 0 .143-.0409.2002-.0954.093-.0819.4434-.266 1.3517-.7228.565-.2796 2.5104-1.1729 2.589-1.1865.0572-.0069.4649-.1773.894-.3751.4363-.1977.9655-.4364 1.1801-.5319.2145-.0886.472-.2114.5721-.2659.2074-.1091.5722-.1296.5722-.0273Zm67.4847.1432c.272.1159.508.2319.53.2591.021.0205.1.0546.179.0614.078.0136.157.0546.164.0887.014.0341.05.0477.086.0272.079-.0477.429.1023.429.1841 0 .0341.029.0478.057.0273.036-.0204.158.0205.272.0887.114.0682.486.2318.83.375.758.3069 1.802.8387 1.83.9274.015.0409.051.0545.086.0341.058-.0341.53.15.859.3341.1.0546.278.1432.393.1909.257.116 1.709.8524 1.981 1.0093.114.0613.186.1363.164.1568-.021.0273-.014.0341.008.0136.05-.0341.607.2319.679.3273.021.0341.072.0614.107.0546.036 0 .272.1227.53.2796.257.1568.643.3682.858.4841.214.1091.429.2387.465.2796.043.0477.207.1568.379.2386.164.0819.3.1705.3.2046 0 .0273.043.0546.093.0546.1 0 1.409.8251 1.516.9614.043.0478.129.0955.193.1091.072.0069.215.0887.329.1842.108.0886.251.1704.308.1841.057.0136.179.0954.286.1909.1.0886.214.1637.265.1637.05 0 .085.0272.085.0681 0 .0341.05.0682.108.0682.057 0 .321.1773.586.3955.272.2182.651.4842.844.5865.2.1091.536.3545.751.5455.586.5114.751.6341.937.6887.093.0273.315.1773.493.3341.179.1569.615.5114.966.7842.357.2796.694.5523.751.6137.057.0614.25.2114.429.341.179.1295.665.5455 1.08.9205.422.3819 1.094.9819 1.495 1.3365.858.7569.808.7092 1.838 1.7525.436.4432 1.173 1.1797 1.623 1.6434.458.4568.83.8592.83.8933 0 .0341.179.2386.4.4568.215.2251.544.6001.723.8456.286.3818 1.137 1.4115 1.487 1.7934.057.0613.308.3614.544.6546.236.3.479.5796.536.6273.057.0409.1.1023.1.1364 0 .0341.1.1909.215.3478.121.15.214.3205.214.3682 0 .0477.029.0955.065.1091.028.0068.143.1432.243.2932.107.15.386.5455.622.8865.444.641.515.8251.308.866-.222.0409-1.774-.0818-1.896-.15-.064-.0341-.429-.0478-.851-.0205-.543.0341-.715.0205-.679-.0341.036-.0613-.172-.0818-.794-.0818-1.252 0-2.696-.0682-2.739-.1296-.022-.0272-.401-.0613-.844-.0682-.444 0-1.101-.0409-1.466-.0818-.358-.0341-.93-.0886-1.266-.1091-.351-.0273-.551-.0614-.465-.0886.072-.0273-.358-.0682-.965-.0887-.608-.0273-1.431-.0954-1.824-.1568-.394-.0546-.973-.1296-1.288-.1637-.314-.0341-.665-.075-.786-.0954-.115-.0137-.479-.0682-.801-.1091-.329-.0478-.572-.1091-.551-.1432.036-.0546-.35-.0887-.865-.0682-.115.0068-.472-.0546-.787-.1364-.651-.1568-.751-.1773-1.395-.2319-.257-.0204-.472-.0681-.486-.1091-.014-.0341-.193-.0613-.401-.0613-.457 0-.808-.1091-.901-.2728-.043-.0682-.071-.2659-.071-.4364 0-.1705-.029-.3205-.065-.341-.028-.0204-.1-.2318-.143-.4636-.05-.2387-.121-.5592-.157-.716-.036-.1569-.064-.4092-.064-.5592 0-.15-.036-.3546-.072-.45-.043-.1023-.121-.4501-.179-.7706-.1-.5455-.164-.8319-.5-2.0593-.065-.2455-.136-.6069-.158-.8046-.021-.191-.057-.341-.085-.3273-.022.0136-.122-.2046-.215-.491-.093-.2932-.229-.6819-.3-.8728-.079-.191-.165-.4705-.186-.6137-.022-.1501-.108-.3478-.179-.4501-.079-.1023-.157-.3068-.179-.4432-.028-.1432-.121-.3955-.214-.5592-.093-.1636-.165-.3409-.165-.3818 0-.0478-.1-.3001-.222-.5524-.121-.2591-.286-.6273-.364-.8114-.079-.191-.222-.4842-.315-.6547-.093-.1704-.143-.3341-.122-.3614.029-.0272.022-.0681-.021-.0954-.136-.0887-.315-.3819-.315-.5114 0-.0751-.078-.2182-.179-.3342-.1-.1091-.178-.2455-.178-.3068 0-.0546-.058-.1841-.136-.2796-.072-.1023-.186-.2932-.251-.4228-.064-.1295-.207-.3955-.329-.5796-.114-.1909-.3-.4978-.407-.6819-.329-.566-.401-.6819-.68-1.0842-.15-.2114-.271-.3955-.271-.4091 0-.0137-.301-.4501-.658-.9615-.88-1.2411-.823-1.1661-1.288-1.7388-.229-.2796-.565-.6956-.744-.9206-.178-.225-.572-.6819-.879-1.0092-.658-.7296-.937-1.0706-.937-1.1456 0-.1227.35-.0545.829.15ZM31.9405 76.3176c.6794.041 1.2015.1023 1.1586.1228-.0429.0273.3004.0409.7653.0409 1.0727-.0068 3.2755.1636 3.0252.2386-.1001.0273.093.041.4291.0205.3362-.0205.5722-.0136.5293.0205-.0501.0272.2717.0545.7151.0545.8368.0068 3.0611.2319 3.011.3069-.0143.0272.1216.0341.3075.0204.186-.0204.8225.0273 1.409.1091.5936.075 1.3946.1773 1.7879.2182.3934.041.8439.0955 1.0013.1296.1573.0341.5793.0955.9297.1364.3576.0409.8869.1159 1.1801.1636.2932.0546 1.1944.1978 2.0025.3205.8082.1228 1.4805.2455 1.5019.266.0215.0204.1717.0409.3362.0477.4291.0204.8081.3.801.5932-.0072.4705.1001 1.507.1645 1.5479.0357.0205.0715.1978.0786.3819.0072.1909.0429.3273.0787.3069.0358-.0205.0501.0886.0215.2454-.0215.1637-.0072.3069.0357.3274.0429.0272.0572.15.0358.2727-.0215.1296-.0143.2455.0214.266.093.0545.3076.9001.2647 1.0501-.0215.0818-.0072.1636.0357.1841.0358.0273.0501.1295.0286.2386-.0214.1092-.0143.1978.0215.1978.0643 0 .286.641.2932.8524.0072.075.0072.2182.0072.3205.0071.1091.0429.1909.0786.1909.0429 0 .0572.0477.0286.1023-.0214.0545-.0071.1023.0286.1023.0859 0 .2361.4568.1931.5727-.0214.0546-.0214.116.0072.1432.0286.0205.0501.0819.0501.1228.0071.0477.0715.2046.143.3546.0715.15.143.4091.1502.5796.0143.1705.0572.3137.1001.3273.0358.0136.0572.0545.0286.0886-.0214.0341-.0071.0614.0358.0614.0715 0 .2431.416.2074.5183-.0072.034.0572.2113.1502.4023.0858.1841.1716.4023.1788.4773.0071.075.0929.2659.1788.4296.0858.1636.1716.4023.1931.5319.0143.1364.0715.2864.1216.3341.0572.0477.1358.1909.1859.3205.093.2387.2002.4637.5793 1.2342.1287.2523.2146.4842.1931.5046-.0214.0205.0215.1023.1001.1773.0787.0818.1788.266.2217.4228.0501.15.1431.3273.2146.4023.0644.0682.143.2182.1716.3273.0215.1159.1073.266.1788.3341.0716.0682.1359.1842.1359.2592 0 .0682.0572.1977.1288.2864.0715.0886.1716.2659.2217.3818.0572.1228.1215.2251.1502.2251.0357 0 .1287.1432.2217.3204.0858.1842.1788.341.2074.3614.0357.0273.4076.6069.5006.7842.0787.1432 1.13 1.6707 1.4161 2.0389.0858.1159.236.3205.3361.45.1001.1296.2503.3342.3362.4569.1931.2527.9011 1.1047 1.5805 1.8957.4363.518.5793.784.422.784-.0572 0-1.4733-.559-1.9811-.777-.4506-.198-2.6533-1.207-2.825-1.296-.1001-.054-.3504-.177-.5578-.279-.2074-.103-.3576-.205-.3433-.225.0143-.028-.0429-.0549-.1288-.0549-.2217-.0137-1.1157-.5115-1.0656-.5933.0215-.0409.0072-.0477-.0429-.0205-.1001.0614-.7223-.2113-.7724-.3409-.0215-.0546-.0644-.075-.1001-.0546-.0358.0205-.1502-.0204-.2647-.0954-.1072-.0682-.5292-.3069-.944-.5319-.4148-.2182-.9011-.491-1.0871-.6069-.1788-.1091-.5364-.3205-.7867-.4705-1.7665-1.0297-4.0837-2.5571-4.4556-2.9321-.0358-.041-.1073-.0751-.1574-.0751-.1716 0-3.8834-2.8298-5.5284-4.2209-1.5519-1.3092-4.9848-4.6437-5.8717-5.7006-.2002-.2455-.5006-.5796-.6651-.7501-.4005-.4296-1.5234-1.7252-1.788-2.0866-.1216-.1637-.5006-.641-.8367-1.0638-.5793-.7228-1.316-1.7184-1.9024-2.5775-.1431-.2046-.3719-.5387-.515-.7297-.3576-.5046-.4434-.675-.3933-.7978.05-.1296.0858-.1296 1.6592-.0273Zm132.4525.075c.015.0682-.1.2864-.257.4774-.157.1977-.35.4909-.436.6478-.086.1636-.2.3068-.258.3341-.057.0205-.107.0682-.107.1159 0 .0409-.086.15-.179.2387-.1.0886-.179.1841-.179.2182 0 .0409-.064.1295-.143.2114-.078.0818-.143.1909-.143.2386 0 .0478-.028.0887-.071.0887-.036 0-.072.0477-.072.1023 0 .0545-.028.1023-.071.1023-.036 0-.072.0477-.072.1022 0 .0546-.035.1023-.078.1023-.036 0-.058.0273-.036.0546.014.0272-.107.2045-.286.3818-.172.1841-.315.3614-.315.3955 0 .0341-.079.1364-.179.2319-.1.0955-.229.2591-.286.375-.064.1091-.164.225-.214.2455-.058.0205-.093.0614-.072.0887.022.0341-.071.1636-.2.3-.136.1364-.236.2523-.222.2659.014.0068-.121.1637-.286.341-.172.1773-.329.3682-.358.4228-.021.0545-.071.1022-.114.1022-.043 0-.064.0273-.043.0614.022.0273-.043.1296-.143.2182-.1.0887-.365.3751-.586.641-.78.9206-2.117 2.373-2.697 2.9321-.193.191-.572.5592-.829.8183-.894.8933-2.818 2.6185-3.891 3.4845-3.032 2.4412-3.976 3.1708-4.055 3.1231-.05-.0273-.057-.0205-.029.0273.029.0477.022.0818-.021.0818-.036 0-.272.15-.515.3409-.243.1842-.472.3205-.501.3001-.035-.0205-.064 0-.064.0341 0 .0409-.043.075-.1.075-.057 0-.122.0477-.143.1091-.029.0614-.065.0955-.086.075-.021-.0205-.129.0545-.229.1568-.107.1091-.243.2114-.3.2182-.057.0137-.15.075-.2.1432-.051.0614-.129.1023-.165.0819-.036-.0273-.064-.0069-.064.0272 0 .041-.029.075-.065.075-.043 0-.178.0955-.307.2046-.129.1159-.272.1909-.322.1705-.05-.0137-.093 0-.093.0341 0 .0409-.05.0682-.107.0682-.058 0-.108.0272-.108.0613 0 .0887-.579.4842-.643.4501-.036-.0205-.079.0136-.1.075-.022.0546-.072.0886-.108.0682-.035-.0205-.085.0068-.107.0682-.021.0545-.071.0818-.114.0614-.036-.0205-.072-.0069-.072.034 0 .041-.028.0546-.071.0341-.036-.0204-.072-.0068-.072.041 0 .0477-.021.0681-.043.0477-.021-.0205-.114.0341-.214.1295-.093.0887-.208.1432-.244.1228-.042-.0205-.071-.0068-.071.0341s-.029.0613-.064.0409c-.036-.0205-.086.0068-.108.0682-.021.0545-.071.0818-.114.0614-.036-.0205-.072-.0069-.072.0341 0 .0409-.028.0545-.071.034-.036-.0204-.072-.0068-.072.0341 0 .041-.028.0546-.071.0341-.036-.0204-.072-.0136-.072.0273 0 .0887-.386.3478-.565.3819-.078.0136-.207.0886-.293.1704-.079.0751-.179.1228-.215.1023-.042-.0272-.071-.0068-.071.0341s-.029.0546-.072.0341c-.035-.0204-.071-.0068-.071.0341s-.029.0546-.072.0341c-.035-.0204-.071-.0068-.071.0273 0 .0614-.386.2591-.537.2796-.014 0-.114.0818-.214.1773-.1.0954-.215.15-.25.1295-.043-.0204-.072-.0068-.072.0273 0 .0409-.05.075-.107.075-.057 0-.107.0341-.107.075s-.051.0614-.108.0341c-.057-.0205-.107-.0068-.107.0341s-.029.0477-.072.0273c-.035-.0205-.121.0204-.193.0954-.064.075-.143.1228-.178.1023-.029-.0204-.058 0-.058.0409 0 .041-.028.0546-.071.0341-.036-.0204-.072-.0068-.072.0341s-.028.0546-.071.0341c-.036-.0204-.072-.0068-.072.0341s-.028.0546-.071.0341c-.036-.0204-.072-.0068-.072.0273 0 .0409-.05.075-.107.075-.057 0-.107.0341-.107.075 0 .0341-.029.0477-.072.0273-.036-.0205-.071-.0068-.071.0341 0 .0412-.029.0542-.072.0341-.036-.0205-.071-.0069-.071.0341 0 .041-.029.055-.072.034-.036-.02-.071-.007-.071.034s-.029.055-.072.034c-.036-.02-.071-.007-.071.034s-.029.055-.072.034c-.036-.02-.071-.006-.071.035 0 .047-.051.068-.108.04-.057-.02-.107-.006-.107.035 0 .04-.029.054-.064.027-.036-.021-.115.013-.172.068-.064.055-.143.102-.186.102-.043 0-.079.034-.079.082 0 .041-.021.061-.043.034-.057-.054-.457.089-.457.171 0 .034-.029.041-.072.02-.036-.02-.071-.013-.071.027 0 .089-.415.3-.494.246-.036-.021-.079-.007-.093.02-.021.062-.722.416-1.166.6-.157.062-.464.185-.679.266-.215.089-.665.266-1.001.403-.673.272-.715.286-.715.157 0-.096.093-.219.872-1.146.265-.314.608-.73.765-.914.322-.388 1.223-1.575 1.502-1.9705.587-.8387.887-1.2751 1.094-1.6093.408-.6614.48-.7773.594-1.0092.057-.1227.172-.2795.25-.3545.079-.0751.129-.1364.108-.1364-.022 0 .1-.2387.264-.5319.472-.8387.844-1.5615.844-1.6297 0-.0409.079-.1501.172-.2455.093-.0955.157-.1909.136-.2114-.022-.0205.043-.1978.143-.3955.1-.1978.286-.5933.407-.8728.122-.2796.279-.6478.358-.8183.072-.1705.172-.4228.215-.566.05-.1432.135-.2796.193-.3.057-.0205.086-.0818.064-.1296-.021-.0545-.007-.0954.029-.0954.035 0 .05-.0478.028-.1023-.021-.0546.043-.2728.15-.491.108-.2182.208-.4773.215-.5796.021-.2182.265-.8046.336-.8046.022 0 .029-.0546.007-.1228-.014-.0682.05-.3341.15-.5864.101-.2591.186-.5182.186-.5796 0-.0614.079-.3546.172-.6546.093-.3001.2-.7024.243-.8865.036-.1909.115-.5387.179-.7842.279-1.1183.415-1.7797.486-2.3184.036-.3205.115-.7706.172-.9956.057-.2318.122-.7024.15-1.0569.029-.3546.072-.6888.108-.7501.107-.1978.507-.3205 1.494-.4637.529-.075 1.13-.1705 1.323-.2046.201-.0341.63-.0954.966-.1432.336-.0409 1.008-.1295 1.502-.2045 1.452-.2046 3.79-.4774 6.007-.6888.415-.0409 1.288-.1295 1.938-.2045.651-.075 1.61-.1637 2.125-.1978.522-.0341 1.423-.1159 2.002-.1773.579-.0545 1.18-.0886 1.33-.075.158.0205.251.0137.208-.0068-.05-.0273.35-.0546.887-.0614.565-.0068.994-.0409 1.015-.0818.05-.075.594-.1227 1.259-.1159.35.0068.429.0273.45.1295ZM61.1131 80.2385c.2503.0546.4291.1296.4076.1637-.0214.0341.1073.0682.2861.0682.3934.0136.2718-.0137 1.1872.225 1.4232.3682 2.2529.6001 2.3244.6614.0357.0341.1287.0614.2145.0614.0859 0 .186.0341.236.0818.0501.0478.0859.0614.0859.0341 0-.0272.1716.0137.379.0819.2003.075.4792.15.6079.1773.1216.0272.2289.075.2289.1091 0 .034.0214.0545.0572.0477.1216-.0273 1.0871.3 1.0871.3682 0 .0409.0214.0614.0429.0409.0501-.0545.987.2728 1.0156.3546.0143.0409.0572.0546.0929.0273.0358-.0205.0644-.0068.0644.0341 0 .0341.0572.0614.1287.0545.1502-.0068.7295.2319.7295.3001 0 .0272.0573.0477.1288.0477.0643-.0068.3504.0886.6222.2114.2789.1295.6794.3068.894.3955.2145.0955.4076.1909.4291.2114.0214.0273.3504.1909.7366.3682.3791.1841.6938.3546.6938.3955 0 .0341.0214.0614.0572.0545.143-.034 1.2945.5592 1.3588.7092.0143.0341.0572.0409.093.0137.0358-.0205.0644 0 .0644.0341 0 .0409.0357.075.0715.075.1073 0 1.2158.7023 1.2158.7705 0 .0273.0358.0341.0715.0136.0429-.0204.0716-.0068.0716.0273 0 .0409.05.075.1072.075.0644 0 .3791.191.7009.4228.6866.4978.7367.5387.8725.6478.0501.0477.1216.0887.1431.0887.1716 0 2.4745 1.9365 3.5473 2.9798 2.1527 2.0866 3.6475 3.9346 5.1565 6.3621 1.1157 1.8002 2.7034 4.9504 2.5819 5.1344-.0215.041-.0072.048.0286.028.0429-.028.1216.075.1859.245.2074.546.4792 1.241.5507 1.377.0644.137.1788.444.6723 1.842.3218.9.6151 1.82.6151 1.916 0 .041.0643.272.143.504.2002.594.1859.805-.0429.887-.3219.116-1.4376.061-1.3517-.068.0143-.028-.5722-.069-1.3088-.096-.7295-.027-1.3517-.075-1.3732-.109-.0214-.027-.3075-.075-.6436-.095-.3362-.021-.894-.062-1.2516-.103-.3505-.034-.6938-.068-.751-.068-.0929-.007-.0929-.014 0-.082.0787-.054 0-.061-.3004-.041-.2288.014-.4148 0-.4148-.034s-.0286-.041-.0715-.02c-.0357.02-.1073.02-.1502-.007-.05-.027-.2002-.055-.3433-.061-.5221-.041-1.509-.28-1.509-.369 0-.034-.0715-.061-.1574-.061-.0929 0-.3075-.048-.4863-.116-.1788-.061-.379-.129-.4434-.15-.0715-.02-.1287-.061-.1287-.095s-.0573-.062-.1359-.062c-.1574 0-1.6736-.729-1.7093-.825-.0143-.027-.1288-.075-.2575-.102-.1287-.021-.3218-.116-.422-.205-.1001-.088-.2288-.163-.2789-.163-.05 0-.1859-.075-.3004-.171-.1144-.095-.2646-.17-.3361-.17-.0715 0-.2432-.096-.3719-.205-.1359-.116-.2718-.204-.3004-.204-.0786 0-1.6807-1.023-1.6807-1.078 0-.027-.0858-.088-.1931-.129-.1931-.082-1.1729-.785-1.7879-1.282-.1645-.13-.3147-.239-.3433-.239-.0572 0-1.8166-1.521-2.6534-2.298-.6508-.6069-2.7463-2.789-2.7463-2.8708 0-.0273-.0715-.1295-.1645-.2318-.5936-.6751-1.9882-2.4821-2.117-2.7481-.0357-.075-.1501-.2523-.2503-.3955-.1001-.1432-.1859-.2796-.1859-.3136 0-.0273-.0644-.1092-.1359-.1705-.0787-.0682-.1645-.2114-.186-.3205-.0286-.1091-.0715-.1978-.1001-.1978s-.1502-.1636-.2574-.3614c-.1145-.1909-.2647-.4296-.3362-.5182-.0715-.0887-.1287-.2182-.1287-.2864 0-.0614-.0429-.1637-.093-.2114-.0787-.075-.2718-.4159-.708-1.241-.2861-.5387-.9155-1.923-.9155-2.0116 0-.0614-.0858-.2251-.1859-.3683-.1002-.1432-.2003-.375-.2217-.5114-.0286-.1364-.1002-.3409-.1717-.4569-.0715-.1091-.1502-.3409-.1788-.5045-.0286-.1705-.093-.3478-.143-.4024-.0572-.0477-.1216-.1704-.1431-.2727-.0214-.1023-.1001-.3683-.1787-.6001-.0716-.225-.1359-.5251-.1359-.6683 0-.15-.0287-.2386-.0716-.2113-.0357.0204-.0715-.0205-.0715-.1023 0-.0819-.05-.2319-.1073-.3342-.0572-.1091-.1215-.3273-.1501-.4909-.0215-.1637-.1145-.5796-.2075-.9138-.1644-.5932-.379-1.6092-.4505-2.0661-.0644-.4569.1573-.4978 1.2516-.2387Zm73.6499.1705c.022.0887-.021.4023-.107.6955-.079.3001-.143.641-.143.757 0 .2659-.215.9205-.3.9205-.029 0-.058.1909-.058.4228 0 .2727-.05.5319-.143.716-.071.1636-.171.4637-.207.6682-.043.2046-.122.4637-.186.5728-.057.1159-.107.266-.107.3478 0 .075-.022.1364-.05.1364-.036 0-.065.0682-.072.15-.014.2523-.279.8796-.343.8183-.036-.0273-.036.0136-.007.0818.028.075-.015.2455-.086.4091-.079.1569-.193.4228-.258.6001-.071.1841-.15.3273-.186.3273-.028 0-.071.1091-.093.2387-.057.3273-.608 1.466-.708 1.466-.035 0-.057.0887-.057.1978 0 .1023-.064.2727-.143.3682-.079.0955-.143.2046-.143.2387 0 .075-.315.6614-.558 1.0365-.086.1295-.157.2795-.157.3341 0 .0545-.043.15-.1.2046-.057.0613-.179.2386-.272.3955-.443.7569-.586.9751-.644.9751-.028 0-.057.0409-.057.0886 0 .1159-1.395 2.1275-1.659 2.4003-.115.1091-.2.2387-.2.2796 0 .0409-.072.1363-.165.2182-.086.0818-.336.3818-.551.6682-.851 1.1252-4.698 4.8623-5.642 5.4693-.158.102-.48.334-.723.525-.415.32-.536.409-1.13.797-.128.089-.415.287-.629.444-.222.163-.436.272-.479.245-.043-.02-.05-.007-.022.034.029.048.022.082-.007.082-.036 0-.372.198-.758.436-.386.246-.772.464-.858.491-.086.021-.208.089-.272.144-.207.163-.908.552-1.166.634-.136.041-.257.102-.272.129-.042.103-2.395 1.166-2.567 1.166-.1 0-.207.028-.25.069-.036.034-.129.075-.208.088-.078.014-.193.048-.25.068-.486.178-1.388.341-1.781.328-.193-.014-.293.007-.265.047.029.048-.114.089-.364.116-.372.034-.823.103-.966.137-.036.013-.3.02-.601.027-.357.007-.522.034-.493.082.036.048-.122.068-.472.061-.293-.007-.558 0-.601.007-.036.007-.1.021-.143.027-.036.014-.372.021-.737.028-.364 0-.65.034-.629.068.057.082-.207.143-.622.143-.486 0-.622-.089-.622-.389 0-.307.214-.982.3-.934.029.021.057-.075.057-.204 0-.635 1.645-5.074 2.704-7.269.686-1.4324 1.816-3.5259 2.274-4.2146.136-.1977.243-.375.243-.3955 0-.0136.057-.1159.129-.2182.45-.6273.987-1.432 1.03-1.5343.028-.0681.186-.2727.343-.45.157-.1773.286-.3409.286-.3682 0-.1432 1.652-1.9707 2.51-2.7753.959-.9001 2.418-2.1139 3.069-2.5435.1-.0614.336-.225.529-.3546.186-.1296.379-.2182.429-.1909.043.0204.057.0204.029-.0137-.05-.0477.615-.5387.865-.6409.064-.0205.293-.1501.508-.2865.565-.3545 1.781-1.016 1.866-1.016.036 0 .201-.0818.372-.1841.165-.0955.344-.1773.386-.1773.051 0 .093-.0341.093-.0682 0-.0409.022-.0477.043-.0272.029.0272.143-.0205.251-.0955.114-.075.264-.15.343-.1637.079-.0136.265-.1022.415-.1977.15-.0955.307-.1773.35-.1773.043 0 .315-.1023.608-.2319.293-.1295.551-.2182.579-.2045.036.0204.058 0 .058-.0409 0-.041.035-.0546.071-.0341.043.0204.072.0136.072-.0205 0-.0409.1-.1023.214-.1432.122-.0341.215-.0477.215-.0273 0 .0205.057-.0136.136-.075.071-.0613.2-.1227.286-.1295.078-.0068.15-.0341.15-.0682s.05-.0409.114-.0205c.058.0205.093.0137.072-.0136-.029-.0409.644-.3069.815-.3205.022-.0068.172-.075.336-.1568.165-.0819.465-.1841.665-.2251.194-.0409.358-.1023.358-.1432 0-.0409.05-.0477.115-.0272.057.0204.092.0136.071-.0205-.021-.0341.072-.0818.207-.1023.143-.0273.408-.1091.587-.1841.186-.075.372-.1227.429-.1023.05.0205.093.0068.093-.0341s.029-.0545.064-.0272c.036.0204.093 0 .115-.041.028-.0341.1-.0545.157-.0341.057.0205.086.0137.064-.0204-.035-.0546.923-.3546 1.195-.3682.064-.0069.121-.0341.121-.0682 0-.0273.029-.0409.065-.0137.036.0205.093 0 .114-.0409.029-.0341.093-.0545.15-.0341.058.0205.101.0069.101-.0341 0-.0409.042-.0613.085-.0477.05.0205.172-.0068.265-.0546.1-.0477.207-.0681.243-.0477.036.0205.086.0068.115-.0273.078-.1091 2.145-.6819 2.524-.6955.15-.0068.208.0341.236.1432Z"/></g><defs><clipPath id="a"><path fill="#fff" d="M0 0h195v150H0z"/></clipPath></defs></svg>