<?xml version="1.0" encoding="utf-8"?>
<!-- Generator: Adobe Illustrator 21.1.0, SVG Export Plug-In . SVG Version: 6.00 Build 0)  -->
<svg version="1.1" id="Layer_1" xmlns="http://www.w3.org/2000/svg" xmlns:xlink="http://www.w3.org/1999/xlink" x="0px" y="0px"
	 width="69px" height="18.9px" viewBox="0 0 69 18.9" style="enable-background:new 0 0 69 18.9;" xml:space="preserve">
<style type="text/css">
	.st0{fill:#E5223F;}
	.st1{fill:url(#SVGID_1_);}
	.st2{fill:url(#SVGID_2_);}
	.st3{fill:url(#SVGID_3_);}
	.st4{fill:url(#SVGID_4_);}
	.st5{fill:url(#SVGID_5_);}
	.st6{fill:url(#SVGID_6_);}
	.st7{enable-background:new    ;}
	.st8{fill:#4F0B42;}
</style>
<g id="Background">
</g>
<g>
	<path class="st0" d="M0,7.5"/>
	
		<linearGradient id="SVGID_1_" gradientUnits="userSpaceOnUse" x1="10.7514" y1="14.7645" x2="16.0521" y2="7.5845" gradientTransform="matrix(1 0 0 -1 0 19.89)">
		<stop  offset="0" style="stop-color:#00D47E"/>
		<stop  offset="0.1418" style="stop-color:#02D484;stop-opacity:0.9957"/>
		<stop  offset="0.3372" style="stop-color:#08D696;stop-opacity:0.9899"/>
		<stop  offset="0.5638" style="stop-color:#11D8B3;stop-opacity:0.9831"/>
		<stop  offset="0.8119" style="stop-color:#1EDBDB;stop-opacity:0.9756"/>
		<stop  offset="1" style="stop-color:#2ADEFF;stop-opacity:0.97"/>
	</linearGradient>
	<path class="st1" d="M16.3,13.1L16.3,13.1c-2.2,0-3.9-1.7-3.9-3.9V6.9l0,0c2.2,0,3.9,1.7,3.9,3.9V13.1z"/>
	
		<linearGradient id="SVGID_2_" gradientUnits="userSpaceOnUse" x1="9.427" y1="7.7079" x2="17.7505" y2="18.5794" gradientTransform="matrix(1 0 0 -1 0 19.89)">
		<stop  offset="0" style="stop-color:#00BC7E"/>
		<stop  offset="0.2178" style="stop-color:#00BC7F;stop-opacity:0.9998"/>
		<stop  offset="0.3933" style="stop-color:#01BD82;stop-opacity:0.9931"/>
		<stop  offset="0.5287" style="stop-color:#04BF8C;stop-opacity:0.9879"/>
		<stop  offset="0.6508" style="stop-color:#0AC49C;stop-opacity:0.9833"/>
		<stop  offset="0.7649" style="stop-color:#11CAB3;stop-opacity:0.979"/>
		<stop  offset="0.8736" style="stop-color:#1BD2D1;stop-opacity:0.9748"/>
		<stop  offset="0.9767" style="stop-color:#27DCF6;stop-opacity:0.9709"/>
		<stop  offset="1" style="stop-color:#2ADEFF;stop-opacity:0.97"/>
	</linearGradient>
	<path class="st2" d="M18.6,2.3L18.6,2.3c0,2.2-1.7,3.9-3.9,3.9h-2.3l0,0c0-2.2,1.7-3.9,3.9-3.9C16.3,2.3,18.6,2.3,18.6,2.3z"/>
	
		<linearGradient id="SVGID_3_" gradientUnits="userSpaceOnUse" x1="12.5104" y1="11.5364" x2="5.4541" y2="24.966" gradientTransform="matrix(1 0 0 -1 0 19.89)">
		<stop  offset="5.000000e-03" style="stop-color:#00BC7E"/>
		<stop  offset="0.1431" style="stop-color:#02BE85;stop-opacity:0.9958"/>
		<stop  offset="0.3511" style="stop-color:#09C39A;stop-opacity:0.9896"/>
		<stop  offset="0.603" style="stop-color:#14CCBC;stop-opacity:0.982"/>
		<stop  offset="0.887" style="stop-color:#23D9EA;stop-opacity:0.9734"/>
		<stop  offset="1" style="stop-color:#2ADEFF;stop-opacity:0.97"/>
	</linearGradient>
	<path class="st3" d="M7.8,0L7.8,0c2.2,0,3.9,1.7,3.9,3.9v2.3l0,0c-2.2,0-3.9-1.7-3.9-3.9C7.8,2.3,7.8,0,7.8,0z"/>
	
		<linearGradient id="SVGID_4_" gradientUnits="userSpaceOnUse" x1="3.6255" y1="18.8041" x2="10.7041" y2="0.1331" gradientTransform="matrix(1 0 0 -1 0 19.89)">
		<stop  offset="0" style="stop-color:#90145A"/>
		<stop  offset="0.1501" style="stop-color:#842C6E;stop-opacity:0.9955"/>
		<stop  offset="0.4681" style="stop-color:#646AA1;stop-opacity:0.986"/>
		<stop  offset="0.925" style="stop-color:#33CDF1;stop-opacity:0.9722"/>
		<stop  offset="1" style="stop-color:#2ADEFF;stop-opacity:0.97"/>
	</linearGradient>
	<path class="st4" d="M3.9,13.1C2.4,13.9,3.4,19,7,18.9c2.6,0,4.7-2.1,4.7-4.7V6.9l0,0c-2.2,0-3.9,1.7-3.9,3.9v2.3c0,1.1-0.9,2-2,2
		l0,0C4.8,15.1,3.9,14.2,3.9,13.1"/>
	
		<linearGradient id="SVGID_5_" gradientUnits="userSpaceOnUse" x1="4.0877" y1="17.9089" x2="9.5375" y2="7.4206" gradientTransform="matrix(1 0 0 -1 0 19.89)">
		<stop  offset="0" style="stop-color:#90145A"/>
		<stop  offset="0.1501" style="stop-color:#842C6E;stop-opacity:0.9955"/>
		<stop  offset="0.4681" style="stop-color:#646AA1;stop-opacity:0.986"/>
		<stop  offset="0.925" style="stop-color:#33CDF1;stop-opacity:0.9722"/>
		<stop  offset="1" style="stop-color:#2ADEFF;stop-opacity:0.97"/>
	</linearGradient>
	<path class="st5" d="M5.9,15.1c1.2,0,1.9-1,1.9-1.9v-2.4C7.8,8.6,9.6,7,11.7,7l0,0v2.3C11.7,14.9,5.9,15.1,5.9,15.1z"/>
	
		<linearGradient id="SVGID_6_" gradientUnits="userSpaceOnUse" x1="-1.2851" y1="18.3914" x2="9.1299" y2="-8.1565" gradientTransform="matrix(1 0 0 -1 0 19.89)">
		<stop  offset="0" style="stop-color:#90145A"/>
		<stop  offset="0.1501" style="stop-color:#842C6E;stop-opacity:0.9955"/>
		<stop  offset="0.4681" style="stop-color:#646AA1;stop-opacity:0.986"/>
		<stop  offset="0.925" style="stop-color:#33CDF1;stop-opacity:0.9722"/>
		<stop  offset="1" style="stop-color:#2ADEFF;stop-opacity:0.97"/>
	</linearGradient>
	<path class="st6" d="M6.9,18.9c-3.2-0.5-3-5.8-3-5.8v-8c0-2.2-1.7-3.9-3.9-3.9l0,0v13.1l0,0C0,16.9,2.2,19,4.7,19
		C5,18.9,6.1,18.9,6.9,18.9c0,0,0.2,0,0.3,0C7.2,18.9,7.1,18.9,6.9,18.9z"/>
</g>
<g class="st7">
	<path class="st8" d="M22.2,11.1h-2.8V6.6h0.9v3.7h2V11.1z"/>
	<path class="st8" d="M23.6,9.5c0-0.5,0.1-1,0.4-1.2c0.3-0.3,0.6-0.4,1.1-0.4c0.3,0,0.5,0,0.7,0.1C26,8,26.2,8.1,26.3,8.2
		c0.1,0.1,0.2,0.3,0.3,0.5c0.1,0.2,0.1,0.4,0.1,0.7c0,0.5-0.1,1-0.4,1.2c-0.3,0.3-0.6,0.4-1.1,0.4c-0.3,0-0.5,0-0.7-0.1
		c-0.2-0.1-0.3-0.2-0.5-0.3s-0.2-0.3-0.3-0.5C23.7,9.9,23.6,9.7,23.6,9.5z M24.5,9.5c0,0.1,0,0.3,0,0.4c0,0.1,0.1,0.2,0.1,0.3
		s0.1,0.2,0.2,0.2c0.1,0,0.2,0.1,0.3,0.1c0.2,0,0.4-0.1,0.5-0.2s0.2-0.4,0.2-0.7c0-0.3,0-0.5-0.1-0.7s-0.3-0.3-0.5-0.3
		c-0.2,0-0.4,0.1-0.5,0.2C24.6,8.9,24.5,9.1,24.5,9.5z"/>
	<path class="st8" d="M30.3,8.6c-0.1,0-0.3-0.1-0.4-0.1c-0.1,0-0.3,0-0.4,0.1c-0.1,0.1-0.2,0.2-0.2,0.3v2.1h-0.8V7.9h0.6l0.1,0.4h0
		c0.1-0.2,0.2-0.3,0.3-0.4c0.1-0.1,0.3-0.1,0.4-0.1c0.1,0,0.2,0,0.4,0.1L30.3,8.6z"/>
	<path class="st8" d="M34.7,10.8c-0.1,0.1-0.3,0.2-0.5,0.3s-0.5,0.1-0.7,0.1c-0.5,0-0.9-0.2-1.1-0.5C32.1,10.4,32,10,32,9.5
		c0-0.6,0.1-1,0.4-1.3c0.3-0.3,0.6-0.4,1.1-0.4c0.2,0,0.3,0,0.5,0.1c0.2,0,0.3,0.1,0.4,0.2c0.1,0.1,0.2,0.2,0.3,0.4
		c0.1,0.2,0.1,0.4,0.1,0.6c0,0.1,0,0.2,0,0.3c0,0.1,0,0.2,0,0.3h-1.9c0,0.3,0.1,0.5,0.2,0.6c0.1,0.1,0.3,0.2,0.6,0.2
		c0.2,0,0.3,0,0.5-0.1c0.1-0.1,0.2-0.1,0.3-0.2L34.7,10.8z M33.5,8.4c-0.2,0-0.4,0.1-0.5,0.2c-0.1,0.1-0.2,0.3-0.2,0.5H34
		c0-0.2,0-0.4-0.1-0.5S33.7,8.4,33.5,8.4z"/>
	<path class="st8" d="M38.6,11.1V9.3c0-0.3,0-0.5-0.1-0.6c-0.1-0.1-0.2-0.2-0.3-0.2c-0.1,0-0.3,0-0.4,0.1c-0.1,0.1-0.2,0.2-0.2,0.3
		v2.1h-0.8V7.9h0.6l0.1,0.4h0c0.1-0.1,0.2-0.3,0.4-0.4c0.2-0.1,0.3-0.2,0.6-0.2c0.2,0,0.4,0,0.5,0.1s0.2,0.2,0.3,0.4
		c0.1-0.2,0.2-0.3,0.4-0.4c0.2-0.1,0.3-0.1,0.6-0.1c0.2,0,0.3,0,0.5,0.1c0.1,0,0.2,0.1,0.3,0.2c0.1,0.1,0.1,0.2,0.2,0.4
		c0,0.2,0.1,0.4,0.1,0.7v1.9h-0.8V9.3c0-0.3,0-0.4-0.1-0.6c-0.1-0.1-0.2-0.2-0.4-0.2c-0.1,0-0.3,0-0.4,0.1c-0.1,0.1-0.2,0.2-0.2,0.3
		v2.1H38.6z"/>
	<path class="st8" d="M46.2,7c0-0.1,0-0.2,0.1-0.3c0.1-0.1,0.2-0.1,0.4-0.1c0.2,0,0.3,0,0.4,0.1c0.1,0.1,0.2,0.2,0.2,0.3
		s-0.1,0.2-0.2,0.3c-0.1,0.1-0.2,0.1-0.4,0.1c-0.2,0-0.3,0-0.4-0.1C46.2,7.2,46.2,7.1,46.2,7z M46.3,7.9h0.8v3.2h-0.8V7.9z"/>
	<path class="st8" d="M49.3,7.9h0.6L50,8.2h0c0.1-0.2,0.2-0.3,0.4-0.4s0.3-0.1,0.6-0.1c0.4,0,0.7,0.1,0.9,0.4
		c0.2,0.3,0.3,0.7,0.3,1.2c0,0.3,0,0.5-0.1,0.7c-0.1,0.2-0.2,0.4-0.3,0.6c-0.1,0.2-0.3,0.3-0.5,0.4c-0.2,0.1-0.4,0.1-0.6,0.1
		c-0.1,0-0.2,0-0.3,0c-0.1,0-0.2,0-0.3-0.1v1.3h-0.8V7.9z M50.7,8.5c-0.2,0-0.3,0-0.4,0.1c-0.1,0.1-0.2,0.2-0.2,0.4v1.3
		c0.1,0,0.1,0.1,0.2,0.1s0.2,0,0.3,0c0.2,0,0.4-0.1,0.5-0.3c0.1-0.2,0.2-0.4,0.2-0.8c0-0.3,0-0.5-0.1-0.7S50.9,8.5,50.7,8.5z"/>
	<path class="st8" d="M55.4,10.2c0-0.1,0-0.2-0.1-0.2c-0.1-0.1-0.2-0.1-0.3-0.1s-0.2-0.1-0.4-0.1c-0.1,0-0.2-0.1-0.4-0.2
		c-0.1-0.1-0.2-0.2-0.3-0.3c-0.1-0.1-0.1-0.3-0.1-0.5c0-0.3,0.1-0.6,0.3-0.7c0.2-0.2,0.5-0.2,0.8-0.2c0.2,0,0.5,0,0.7,0.1
		C55.9,7.9,56,8,56.2,8L56,8.6c-0.1,0-0.2-0.1-0.4-0.1c-0.1,0-0.3-0.1-0.5-0.1c-0.2,0-0.4,0.1-0.4,0.3c0,0.1,0,0.1,0.1,0.2
		S55,9,55.1,9s0.2,0.1,0.4,0.1s0.2,0.1,0.4,0.2C56,9.4,56,9.5,56.1,9.6c0.1,0.1,0.1,0.3,0.1,0.5c0,0.3-0.1,0.6-0.3,0.8
		c-0.2,0.2-0.5,0.3-0.9,0.3c-0.2,0-0.4,0-0.6-0.1c-0.2-0.1-0.4-0.1-0.5-0.2l0.2-0.6c0.1,0.1,0.2,0.1,0.4,0.2s0.3,0.1,0.5,0.1
		c0.1,0,0.2,0,0.3-0.1C55.4,10.4,55.4,10.3,55.4,10.2z"/>
	<path class="st8" d="M58.9,7.9v1.8c0,0.3,0,0.4,0.1,0.6c0.1,0.1,0.2,0.2,0.4,0.2c0.2,0,0.3,0,0.4-0.1c0.1-0.1,0.2-0.2,0.2-0.3V7.9
		h0.8v2.2c0,0.2,0,0.3,0,0.5c0,0.2,0,0.3,0.1,0.5h-0.6l-0.1-0.5h0c-0.1,0.2-0.2,0.3-0.4,0.4s-0.4,0.2-0.6,0.2c-0.2,0-0.3,0-0.4-0.1
		c-0.1,0-0.2-0.1-0.3-0.2c-0.1-0.1-0.1-0.2-0.2-0.4c0-0.2-0.1-0.4-0.1-0.6v-2H58.9z"/>
	<path class="st8" d="M64.7,11.1V9.3c0-0.3,0-0.5-0.1-0.6c-0.1-0.1-0.2-0.2-0.3-0.2c-0.1,0-0.3,0-0.4,0.1c-0.1,0.1-0.2,0.2-0.2,0.3
		v2.1h-0.8V7.9h0.6l0.1,0.4h0C63.8,8.1,63.9,8,64,7.9c0.2-0.1,0.3-0.2,0.6-0.2c0.2,0,0.4,0,0.5,0.1s0.2,0.2,0.3,0.4
		c0.1-0.2,0.2-0.3,0.4-0.4c0.2-0.1,0.3-0.1,0.6-0.1c0.2,0,0.3,0,0.5,0.1c0.1,0,0.2,0.1,0.3,0.2c0.1,0.1,0.1,0.2,0.2,0.4
		c0,0.2,0.1,0.4,0.1,0.7v1.9h-0.8V9.3c0-0.3,0-0.4-0.1-0.6c-0.1-0.1-0.2-0.2-0.4-0.2c-0.1,0-0.3,0-0.4,0.1c-0.1,0.1-0.2,0.2-0.2,0.3
		v2.1H64.7z"/>
</g>
<g class="st7">
	<path class="st8" d="M20.2,16.5l-0.9-1.8H20l0.5,1.1l0.1,0.3h0l0.1-0.3l0.5-1h0.6l-0.9,1.8v1h-0.5V16.5z"/>
	<path class="st8" d="M22.4,16.1c0-0.5,0.1-0.8,0.3-1.1c0.2-0.3,0.5-0.4,0.9-0.4c0.2,0,0.4,0,0.5,0.1c0.1,0.1,0.3,0.2,0.4,0.3
		s0.2,0.3,0.2,0.5s0.1,0.4,0.1,0.6c0,0.5-0.1,0.8-0.3,1.1c-0.2,0.3-0.5,0.4-0.9,0.4c-0.2,0-0.4,0-0.5-0.1s-0.3-0.2-0.4-0.3
		c-0.1-0.1-0.2-0.3-0.2-0.5C22.5,16.6,22.4,16.4,22.4,16.1z M23,16.1c0,0.1,0,0.3,0,0.4c0,0.1,0.1,0.2,0.1,0.3
		c0,0.1,0.1,0.2,0.2,0.2s0.2,0.1,0.3,0.1c0.2,0,0.3-0.1,0.5-0.2c0.1-0.2,0.2-0.4,0.2-0.7c0-0.1,0-0.3,0-0.4s-0.1-0.2-0.1-0.3
		s-0.1-0.2-0.2-0.2c-0.1,0-0.2-0.1-0.3-0.1c-0.2,0-0.3,0.1-0.5,0.2C23.1,15.6,23,15.8,23,16.1z"/>
	<path class="st8" d="M27.5,14.8h0.5v1.8c0,0.2,0,0.3-0.1,0.5c0,0.1-0.1,0.2-0.2,0.3c-0.1,0.1-0.2,0.1-0.3,0.2
		c-0.1,0-0.3,0.1-0.4,0.1c-0.7,0-1.1-0.3-1.1-1v-1.9h0.5v1.8c0,0.1,0,0.2,0,0.3s0.1,0.1,0.1,0.2c0,0,0.1,0.1,0.2,0.1
		c0.1,0,0.1,0,0.2,0c0.2,0,0.3,0,0.4-0.1c0.1-0.1,0.1-0.2,0.1-0.5V14.8z"/>
	<path class="st8" d="M29.3,14.8c0.1,0,0.1,0,0.2,0c0.1,0,0.1,0,0.2,0c0.1,0,0.1,0,0.2,0c0.1,0,0.1,0,0.2,0c0.1,0,0.3,0,0.4,0
		c0.1,0,0.2,0.1,0.3,0.1s0.2,0.1,0.2,0.2c0.1,0.1,0.1,0.2,0.1,0.4c0,0.2-0.1,0.4-0.2,0.6c-0.1,0.1-0.2,0.2-0.4,0.3l0.2,0.1l0.6,1.1
		h-0.6l-0.6-1.1l-0.3-0.1v1.1h-0.5V14.8z M30.2,15.2c-0.1,0-0.1,0-0.2,0c-0.1,0-0.1,0-0.1,0V16h0.2c0.2,0,0.3,0,0.4-0.1
		c0.1-0.1,0.1-0.2,0.1-0.3c0-0.1,0-0.2-0.1-0.3C30.4,15.2,30.3,15.2,30.2,15.2z"/>
	<path class="st8" d="M35.5,16.8c0-0.1,0-0.2-0.1-0.2c-0.1-0.1-0.1-0.1-0.2-0.1c-0.1,0-0.2-0.1-0.3-0.1s-0.2-0.1-0.3-0.2
		s-0.2-0.2-0.2-0.3c-0.1-0.1-0.1-0.2-0.1-0.4c0-0.1,0-0.3,0.1-0.4c0-0.1,0.1-0.2,0.2-0.3s0.2-0.1,0.3-0.1c0.1,0,0.2,0,0.4,0
		c0.2,0,0.3,0,0.5,0c0.1,0,0.3,0.1,0.4,0.1l-0.2,0.5c-0.1,0-0.1-0.1-0.3-0.1s-0.2,0-0.4,0c-0.1,0-0.2,0-0.3,0.1
		c-0.1,0.1-0.1,0.1-0.1,0.2c0,0.1,0,0.1,0.1,0.2c0.1,0.1,0.1,0.1,0.2,0.1s0.2,0.1,0.3,0.1c0.1,0,0.2,0.1,0.3,0.2
		c0.1,0.1,0.2,0.2,0.2,0.3c0.1,0.1,0.1,0.2,0.1,0.4c0,0.1,0,0.3-0.1,0.4c0,0.1-0.1,0.2-0.2,0.3c-0.1,0.1-0.2,0.1-0.3,0.2
		c-0.1,0-0.3,0.1-0.4,0.1c-0.2,0-0.4,0-0.5-0.1c-0.2,0-0.3-0.1-0.3-0.1l0.2-0.5c0,0,0.1,0,0.1,0.1s0.1,0,0.2,0.1c0.1,0,0.1,0,0.2,0
		c0.1,0,0.1,0,0.2,0c0.2,0,0.3,0,0.4-0.1C35.5,17,35.5,16.9,35.5,16.8z"/>
	<path class="st8" d="M39,17.6h-1.8v-2.8h0.5v2.3H39V17.6z"/>
	<path class="st8" d="M39.7,16.1c0-0.5,0.1-0.8,0.3-1.1c0.2-0.3,0.5-0.4,0.9-0.4c0.2,0,0.4,0,0.5,0.1s0.3,0.2,0.4,0.3
		s0.2,0.3,0.2,0.5s0.1,0.4,0.1,0.6c0,0.5-0.1,0.8-0.3,1.1c-0.2,0.3-0.5,0.4-0.9,0.4c-0.2,0-0.4,0-0.5-0.1c-0.1-0.1-0.3-0.2-0.4-0.3
		c-0.1-0.1-0.2-0.3-0.2-0.5C39.7,16.6,39.7,16.4,39.7,16.1z M40.2,16.1c0,0.1,0,0.3,0,0.4c0,0.1,0.1,0.2,0.1,0.3
		c0,0.1,0.1,0.2,0.2,0.2c0.1,0,0.2,0.1,0.3,0.1c0.2,0,0.3-0.1,0.5-0.2c0.1-0.2,0.2-0.4,0.2-0.7c0-0.1,0-0.3,0-0.4s-0.1-0.2-0.1-0.3
		c0-0.1-0.1-0.2-0.2-0.2s-0.2-0.1-0.3-0.1c-0.2,0-0.3,0.1-0.5,0.2S40.2,15.8,40.2,16.1z"/>
	<path class="st8" d="M44.2,16.1h1v1.2c-0.1,0.1-0.2,0.2-0.4,0.2c-0.2,0-0.3,0.1-0.5,0.1c-0.2,0-0.3,0-0.5-0.1
		c-0.2-0.1-0.3-0.1-0.4-0.3c-0.1-0.1-0.2-0.3-0.3-0.5c-0.1-0.2-0.1-0.4-0.1-0.7c0-0.3,0-0.5,0.1-0.7c0.1-0.2,0.2-0.3,0.3-0.5
		c0.1-0.1,0.3-0.2,0.4-0.3c0.2-0.1,0.3-0.1,0.5-0.1s0.3,0,0.4,0c0.1,0,0.2,0,0.3,0.1L45,15.3c-0.1,0-0.1,0-0.2-0.1s-0.2,0-0.3,0
		c-0.1,0-0.2,0-0.3,0.1c-0.1,0-0.2,0.1-0.3,0.2c-0.1,0.1-0.1,0.2-0.2,0.3c0,0.1-0.1,0.3-0.1,0.4c0,0.2,0,0.3,0.1,0.4
		s0.1,0.2,0.2,0.3c0.1,0.1,0.1,0.1,0.2,0.2c0.1,0,0.2,0.1,0.3,0.1c0.1,0,0.1,0,0.2,0s0.1,0,0.2-0.1v-0.5l-0.6-0.1V16.1z"/>
	<path class="st8" d="M47.8,16.9H47l-0.2,0.6h-0.5l1-2.8h0.4l1,2.8h-0.6L47.8,16.9z M47.1,16.5h0.6l-0.2-0.6l-0.1-0.4h0l-0.1,0.4
		L47.1,16.5z"/>
	<path class="st8" d="M50.4,16.1l-0.2-0.4h0l0.1,0.4v1.5h-0.5v-2.8h0.4l1.1,1.5l0.2,0.4h0l-0.1-0.4v-1.5h0.5v2.8h-0.4L50.4,16.1z"/>
</g>
<g id="Designed_by_Freepik">
</g>
</svg>
