<svg width="16" height="16" viewBox="0 0 16 16" fill="none" xmlns="http://www.w3.org/2000/svg">
<path fill-rule="evenodd" clip-rule="evenodd" d="M0 8C0 7.44772 0.447715 7 1 7H15C15.5523 7 16 7.44772 16 8C16 8.55228 15.5523 9 15 9H1C0.447715 9 0 8.55228 0 8Z" fill="#313237"/>
<path fill-rule="evenodd" clip-rule="evenodd" d="M0 4C0 3.44772 0.447715 3 1 3H15C15.5523 3 16 3.44772 16 4C16 4.55228 15.5523 5 15 5H1C0.447715 5 0 4.55228 0 4Z" fill="#313237"/>
<path fill-rule="evenodd" clip-rule="evenodd" d="M0 12C0 11.4477 0.447715 11 1 11H15C15.5523 11 16 11.4477 16 12C16 12.5523 15.5523 13 15 13H1C0.447715 13 0 12.5523 0 12Z" fill="#313237"/>
</svg>
