<?xml version="1.0" encoding="iso-8859-1"?>
<!-- Generator: Adobe Illustrator 18.0.0, SVG Export Plug-In . SVG Version: 6.00 Build 0)  -->
<!DOCTYPE svg PUBLIC "-//W3C//DTD SVG 1.1//EN" "http://www.w3.org/Graphics/SVG/1.1/DTD/svg11.dtd">
<svg version="1.1" id="Capa_1" xmlns="http://www.w3.org/2000/svg" xmlns:xlink="http://www.w3.org/1999/xlink" x="0px" y="0px"
	 viewBox="0 0 490 490" style="enable-background:new 0 0 490 490;" xml:space="preserve">
<g>
	<g>
		<path d="M420.557,465.523H287.881c-5.51,0-9.98-4.469-9.98-9.98v-98.961H212.1v98.961c0,5.511-4.468,9.98-9.979,9.98H69.444
			c-5.511,0-9.979-4.469-9.979-9.98V209.261c0-3.501,1.834-6.746,4.834-8.551L239.856,95.061c3.165-1.904,7.127-1.904,10.292,0
			L425.703,200.71c2.999,1.805,4.833,5.05,4.833,8.551v246.283C430.536,461.054,426.067,465.523,420.557,465.523z M297.861,445.564
			h112.716V214.903l-165.576-99.643L79.424,214.903v230.661h112.717v-98.961c0-5.511,4.468-9.979,9.979-9.979h85.76
			c5.513,0,9.98,4.469,9.98,9.979V445.564z"/>
	</g>
	<g>
		<path d="M480.009,185.87c-1.75,0-3.524-0.462-5.135-1.431L245.001,46.103L15.127,184.439c-4.723,2.841-10.855,1.318-13.696-3.405
			c-2.842-4.723-1.318-10.854,3.405-13.696L239.855,25.905c3.165-1.904,7.126-1.904,10.291,0l235.019,141.433
			c4.723,2.842,6.247,8.974,3.405,13.696C486.696,184.146,483.395,185.87,480.009,185.87z"/>
	</g>
</g>
<g>
</g>
<g>
</g>
<g>
</g>
<g>
</g>
<g>
</g>
<g>
</g>
<g>
</g>
<g>
</g>
<g>
</g>
<g>
</g>
<g>
</g>
<g>
</g>
<g>
</g>
<g>
</g>
<g>
</g>
</svg>
