<svg width="95" height="24" viewBox="0 0 95 24" fill="none" xmlns="http://www.w3.org/2000/svg">
<path d="M9.584 23.512C14.864 23.512 18.832 19.832 18.832 14.584V0.599998H13.968V14.36C13.968 17.144 12.144 18.936 9.584 18.936C6.992 18.936 5.168 17.144 5.168 14.36V0.599998H0.304V14.584C0.304 19.832 4.272 23.512 9.584 23.512ZM24.9963 23H29.8283V0.599998H24.9963V23ZM63.8373 23L55.3893 11.352L63.0053 0.599998H57.3733L50.0133 10.968V0.599998H45.1813V23H50.0133V12.088L57.9173 23H63.8373ZM67.4613 23H72.2933V0.599998H67.4613V23ZM94.134 0.599998H76.822V5.112H83.062V23H87.894V5.112H94.134V0.599998Z" fill="#313237"/>
</svg>
