<?xml version="1.0" encoding="iso-8859-1"?>
<!-- Uploaded to: SVG Repo, www.svgrepo.com, Generator: SVG Repo Mixer Tools -->
<svg height="800px" width="800px" version="1.1" id="Layer_1" xmlns="http://www.w3.org/2000/svg" xmlns:xlink="http://www.w3.org/1999/xlink" 
	 viewBox="0 0 512.372 512.372" xml:space="preserve">
<g transform="translate(1 1)">
	<path style="fill:#FFE100;" d="M483.34,360.467v-3.593c-41.319-21.558-63.775-53.895-63.775-100.604
		c0-37.726,17.067-70.961,47.607-92.519l1.796-0.898c-20.66-25.151-47.607-49.404-89.825-49.404c-1.796,0-3.593,0-6.288,0
		c32.337,3.593,53.895,26.049,70.063,49.404l-0.898,0.898c-26.947,21.558-41.319,53.895-41.319,92.519
		c0,46.709,19.761,79.046,55.691,100.604v3.593c0,1.797,0.898,4.491,0.898,7.186c0,52.098-47.607,129.347-101.502,134.737
		c1.797,0,3.593,0.898,6.288,0.898c63.775-0.898,122.161-81.74,122.161-136.533C484.239,364.06,483.34,362.263,483.34,360.467"/>
	<path style="fill:#FFA800;" d="M456.393,360.467v-3.593c-41.319-21.558-63.775-53.895-63.775-100.604
		c0-37.726,17.067-70.961,47.607-92.519l1.797-0.898c-20.66-25.151-47.607-49.404-89.825-49.404c-1.797,0-3.593,0-6.288,0
		c32.337,3.593,53.895,26.049,70.063,49.404l-0.898,0.898c-26.947,21.558-41.319,53.895-41.319,92.519
		c0,46.709,19.761,79.046,55.691,100.604v3.593c0,1.797,0.898,4.491,0.898,7.186c0,52.098-47.607,129.347-101.502,134.737
		c1.796,0,3.593,0.898,6.288,0.898c63.775-0.898,122.161-81.74,122.161-136.533C457.291,364.06,456.393,362.263,456.393,360.467"/>
	<path style="fill:#FFFFFF;" d="M106.976,434.123c-28.744-59.284-41.319-127.551-41.319-171.565
		c0-81.74,60.182-144.618,123.06-146.414c-1.797,0-3.593,0-4.491,0c-73.656,0-146.414,63.775-146.414,147.312
		c0,44.014,14.372,112.281,47.607,171.565c23.354,43.116,52.996,71.86,86.232,71.86c0.898,0,2.695,0,4.491,0
		C149.193,501.491,125.839,474.544,106.976,434.123"/>
	<g>
		<path style="fill:#FFE100;" d="M432.14,357.772v-3.593c-35.93-21.558-55.691-53.895-55.691-100.604
			c0-37.726,14.372-70.961,41.319-92.519l0.898-0.898c-17.965-25.151-41.319-49.404-78.147-49.404
			c-26.049,0-46.709,27.846-82.639,27.846c-27.846,0-39.523-26.947-70.063-26.947c-62.877,0.898-125.754,64.674-125.754,148.211
			c0,44.014,12.575,112.281,41.319,170.667c20.66,43.116,46.709,71.86,75.453,71.86c20.66,0,44.912-21.558,74.554-21.558
			c26.049,0,49.404,18.863,72.758,18.863c55.691,0,106.891-80.842,106.891-135.635C433.039,362.263,432.14,360.467,432.14,357.772"
			/>
		<path style="fill:#FFE100;" d="M258.779,139.498C306.386,125.126,350.4,90.095,350.4,29.014c0-4.491-0.898-10.779-1.797-17.965
			l0-2.695c-48.505,13.474-91.621,50.302-91.621,108.688c0,5.389,0.898,12.575,1.796,19.761V139.498L258.779,139.498z"/>
	</g>
	<path d="M168.954,511.372c-34.133,0-66.47-26.049-94.316-76.351c-35.93-64.674-48.505-134.737-48.505-175.158
		c0-73.656,62.877-156.295,153.6-156.295c20.66,0,34.133,8.084,46.709,15.27c10.779,6.288,20.66,11.677,34.133,11.677
		c19.761,0,35.93-7.186,51.2-15.27c14.372-7.186,27.846-13.474,43.116-13.474c47.607,0,78.147,30.54,96.112,52.996l7.186,8.982
		l-10.779,5.389c-27.846,19.761-43.116,49.404-43.116,84.435c0,41.319,18.863,71.86,59.284,93.418l4.491,2.695v8.982
		c0,0.898,0,0.898,0,1.796c0,1.797,0.898,3.593,0.898,5.389c0,55.691-60.182,144.618-131.144,144.618
		c-14.372,0-28.744-5.389-42.218-9.881c-13.474-4.491-26.947-9.881-40.421-9.881c-16.168,0-32.337,5.389-46.709,11.677
		C194.105,506.881,181.53,511.372,168.954,511.372z M179.733,121.533c-63.775,0-135.635,56.589-135.635,138.33
		c0,38.625,12.575,105.095,46.709,167.074c16.168,30.54,44.014,66.47,78.147,66.47c8.982,0,20.66-4.491,32.337-8.982
		c15.27-6.288,33.235-12.575,52.996-12.575c16.168,0,31.439,5.389,46.709,10.779c12.575,4.491,25.151,8.982,36.828,8.982
		c43.116,0,113.179-59.284,113.179-126.653c0-0.898,0-1.797,0-2.695s0-1.797,0-2.695c-43.116-24.253-63.775-59.284-63.775-105.993
		c0-38.625,16.168-71.86,44.912-94.316c-17.067-19.761-41.319-38.625-76.351-38.625c-11.677,0-22.456,5.389-35.93,11.677
		c-16.168,8.084-35.032,17.067-58.386,17.067c-17.965,0-30.54-7.186-43.116-14.372C205.783,127.821,195.004,121.533,179.733,121.533
		z"/>
	<path d="M258.779,148.481c-1.797,0-3.593-0.898-5.389-1.796c-2.695-1.796-3.593-4.491-3.593-7.186v-1.796
		C248,129.618,248,123.33,248,117.042c0-66.47,50.302-104.196,97.909-117.67c2.695-0.898,4.491,0,7.186,0.898
		s3.593,3.593,4.491,5.389l0.898,2.695v0.898v1.796c0.898,6.288,0.898,11.677,0.898,17.067c0,56.589-35.93,100.604-97.909,119.467
		C260.576,148.481,259.677,148.481,258.779,148.481z M340.519,20.032c-37.726,13.474-75.453,44.912-75.453,97.011
		c0,2.695,0,6.288,0.898,10.779c28.744-10.779,74.554-37.726,74.554-98.807C341.418,26.319,341.418,23.625,340.519,20.032z"/>
</g>
</svg>