<?xml version="1.0" standalone="no"?>
<!DOCTYPE svg PUBLIC "-//W3C//DTD SVG 20010904//EN"
 "http://www.w3.org/TR/2001/REC-SVG-20010904/DTD/svg10.dtd">
<svg version="1.0" xmlns="http://www.w3.org/2000/svg"
 width="500.000000pt" height="500.000000pt" viewBox="0 0 500.000000 500.000000"
 preserveAspectRatio="xMidYMid meet">
<metadata>
Created by potrace 1.14, written by Peter Selinger 2001-2017
</metadata>
<g transform="translate(0.000000,500.000000) scale(0.100000,-0.100000)"
fill="#000000" stroke="none">
<path d="M985 4978 c-22 -4 -47 -11 -55 -15 -8 -3 -18 -5 -22 -5 -5 1 -8 -2
-8 -8 0 -5 -6 -10 -12 -10 -7 0 -31 -16 -52 -35 -22 -19 -44 -35 -48 -35 -5 0
-7 -4 -4 -9 3 -5 -1 -14 -9 -21 -9 -7 -23 -29 -32 -49 -9 -20 -19 -38 -22 -41
-10 -9 -15 -137 -7 -176 10 -52 30 -104 39 -104 6 0 8 -3 4 -6 -3 -3 0 -13 6
-21 29 -34 87 -93 93 -93 3 0 18 -8 32 -19 76 -52 214 -57 317 -11 145 65 231
246 192 400 -21 81 -99 190 -146 205 -12 3 -21 10 -21 15 0 8 -42 25 -91 36
-44 10 -113 11 -154 2z"/>
<path d="M3865 4981 c-3 -3 -12 -6 -20 -7 -33 -5 -112 -52 -150 -90 -65 -64
-98 -141 -101 -236 -2 -44 2 -92 8 -106 28 -71 53 -112 86 -145 58 -57 72 -69
72 -62 0 3 10 -1 23 -9 12 -8 31 -16 42 -18 11 -2 23 -7 26 -11 6 -8 129 -11
164 -3 37 8 108 39 125 55 9 9 27 25 41 37 13 12 31 30 40 41 28 34 66 145 68
197 2 45 -16 144 -29 156 -3 3 -12 18 -20 34 -13 25 -66 84 -102 111 -16 13
-74 40 -108 51 -29 9 -158 13 -165 5z"/>
<path d="M1028 3905 c-2 -2 -15 -6 -28 -9 -40 -7 -100 -35 -100 -46 0 -6 -3
-9 -7 -9 -17 3 -36 -1 -31 -7 3 -3 -9 -20 -28 -38 -19 -18 -34 -38 -34 -45 0
-6 -3 -11 -8 -11 -14 0 -44 -84 -49 -139 -2 -31 -5 -58 -5 -61 -1 -3 2 -16 5
-30 4 -14 9 -34 10 -45 10 -58 110 -195 144 -195 7 0 13 -3 13 -8 0 -8 44 -29
81 -39 30 -8 155 -9 189 -1 36 8 100 40 100 50 0 4 6 8 13 8 33 0 137 152 137
202 0 10 5 16 10 13 6 -3 10 -15 10 -26 0 -33 46 -112 89 -154 43 -42 112 -85
136 -85 8 0 15 -4 15 -8 0 -4 34 -8 76 -9 80 -1 167 18 191 43 8 8 18 14 23
14 13 0 93 83 107 111 14 27 34 76 40 99 2 8 5 47 5 85 0 58 -5 82 -30 137
-30 66 -115 163 -134 152 -4 -3 -8 -1 -8 4 0 10 -38 28 -80 38 -35 9 -163 13
-175 5 -11 -6 -32 -12 -52 -13 -7 -1 -13 -5 -13 -10 0 -5 -4 -6 -10 -3 -5 3
-10 2 -10 -4 0 -5 -8 -12 -18 -15 -34 -11 -103 -90 -133 -153 -17 -35 -28 -67
-24 -72 3 -5 1 -12 -4 -15 -5 -3 -11 7 -14 22 -10 52 -13 59 -30 85 -9 15 -17
29 -17 32 0 5 -98 105 -103 104 -1 0 -24 10 -52 22 -44 20 -184 36 -197 24z"/>
<path d="M3848 3904 c-2 -1 -17 -5 -34 -8 -37 -7 -88 -32 -104 -51 -7 -8 -16
-12 -21 -9 -5 3 -9 -2 -9 -11 0 -9 -4 -14 -8 -11 -12 7 -93 -119 -100 -157 -4
-18 -7 -68 -6 -112 1 -155 84 -264 243 -321 52 -19 177 -12 233 14 229 102
287 393 113 567 -26 27 -81 68 -95 71 -3 0 -18 7 -35 14 -26 11 -169 23 -177
14z"/>
<path d="M3858 2865 c-3 -3 -18 -8 -33 -11 -15 -3 -42 -12 -59 -22 -17 -9 -35
-16 -39 -17 -4 0 -12 -7 -17 -15 -5 -8 -10 -11 -10 -7 0 16 -81 -76 -101 -116
-68 -133 -44 -298 58 -403 33 -34 88 -76 103 -80 3 0 12 -3 20 -6 129 -50 279
-16 381 83 15 15 73 107 75 119 0 3 6 23 12 45 22 79 -3 218 -50 271 -10 11
-18 26 -18 32 0 7 -3 12 -7 12 -5 0 -22 13 -40 30 -42 39 -128 78 -170 76 -18
-1 -33 1 -33 4 0 10 -40 9 -46 -2 -4 -7 -9 -7 -13 1 -4 6 -10 9 -13 6z"/>
<path d="M915 2801 c-33 -16 -74 -41 -91 -57 -28 -27 -101 -126 -96 -131 1 -2
1 -5 1 -8 -1 -3 -3 -9 -4 -15 -1 -5 -3 -11 -5 -12 -4 -6 -10 -55 -10 -99 -1
-50 25 -155 41 -165 5 -3 6 -10 3 -16 -4 -6 -2 -8 3 -5 9 6 27 -20 23 -32 -1
-2 10 -11 24 -21 15 -9 23 -20 19 -23 -3 -4 1 -7 9 -7 9 0 18 -3 20 -7 5 -12
79 -49 113 -58 43 -11 165 -13 171 -3 3 4 12 8 20 8 23 0 97 38 129 68 187
168 152 460 -70 575 -53 27 -71 31 -150 33 -80 2 -96 0 -150 -25z"/>
<path d="M2405 2814 c-22 -8 -44 -16 -49 -17 -28 -7 -162 -140 -159 -157 0 -3
-4 -16 -9 -30 -5 -14 -12 -36 -15 -50 -8 -37 -6 -158 4 -172 4 -7 8 -19 9 -26
7 -43 112 -172 140 -172 7 0 14 -4 16 -9 2 -4 28 -17 58 -28 81 -29 178 -24
261 16 65 30 119 71 119 91 0 5 4 10 8 10 16 0 61 99 68 147 14 103 6 152 -44
248 -24 47 -125 134 -157 136 -2 0 -19 6 -37 13 -43 18 -163 18 -213 0z"/>
<path d="M1005 1778 c-140 -45 -248 -161 -260 -281 -3 -23 -6 -57 -9 -74 -2
-18 1 -33 5 -33 5 0 9 -11 9 -24 0 -14 5 -37 12 -53 6 -15 11 -31 10 -35 -1
-5 2 -8 7 -8 5 0 12 -8 16 -19 17 -54 145 -142 225 -156 85 -15 209 6 244 40
8 8 18 15 23 15 8 0 55 43 81 75 7 9 25 41 39 72 49 107 37 237 -33 339 -32
48 -104 109 -135 116 -8 2 -17 6 -20 11 -13 18 -170 29 -214 15z"/>
<path d="M3145 1780 c-51 -7 -123 -42 -161 -78 -47 -43 -85 -93 -78 -103 3 -5
1 -9 -5 -9 -10 0 -27 -39 -23 -54 2 -4 -1 -13 -7 -20 -9 -11 -8 -133 2 -172
15 -59 92 -174 117 -174 5 0 10 -4 10 -8 0 -11 56 -43 64 -35 3 3 6 2 6 -4 0
-16 78 -35 144 -34 231 2 396 224 331 446 -19 68 -42 105 -97 157 -39 36 -119
81 -145 81 -7 0 -13 3 -13 6 0 8 -96 9 -145 1z"/>
<path d="M3850 1775 c-61 -17 -98 -37 -147 -82 -40 -37 -93 -122 -93 -149 0
-8 -4 -14 -8 -14 -8 0 -9 -5 -11 -75 -3 -55 9 -118 29 -154 6 -12 8 -21 5 -21
-4 0 0 -6 7 -14 7 -8 24 -30 38 -49 14 -19 41 -46 60 -58 19 -13 38 -28 42
-34 4 -5 8 -6 8 -1 0 5 6 4 13 -1 24 -20 86 -34 144 -34 65 0 85 4 128 22 17
7 33 12 38 11 4 -1 7 2 7 8 0 5 5 10 10 10 37 0 140 131 156 198 11 43 13 151
4 180 -4 15 -9 34 -11 42 -13 52 -127 180 -161 180 -10 0 -18 4 -18 10 0 28
-165 45 -240 25z"/>
<path d="M1015 703 c-56 -13 -125 -52 -166 -92 -45 -45 -97 -121 -84 -121 4 0
2 -7 -5 -15 -7 -8 -10 -15 -8 -15 3 0 0 -21 -7 -47 -9 -36 -9 -61 0 -110 7
-35 9 -63 6 -63 -3 0 -1 -4 4 -8 6 -4 23 -28 38 -55 15 -26 32 -47 38 -47 6 0
7 -4 4 -10 -3 -5 1 -10 10 -10 9 0 14 -4 10 -9 -3 -5 4 -12 15 -16 11 -3 20
-11 20 -16 0 -5 3 -8 8 -7 4 1 21 -5 38 -15 17 -9 34 -13 38 -10 3 4 6 1 6 -5
0 -6 8 -11 18 -12 51 -2 72 -6 72 -11 0 -4 19 -3 42 1 24 5 46 6 50 4 4 -2 9
0 12 5 3 4 19 11 36 14 64 13 154 97 196 184 25 50 29 69 28 143 0 110 -30
178 -110 255 -31 30 -59 54 -62 53 -4 -1 -25 7 -47 17 -39 17 -157 28 -200 18z"/>
<path d="M3840 694 c-51 -15 -89 -33 -108 -51 -7 -7 -18 -13 -23 -13 -5 0 -9
-6 -9 -13 0 -7 -9 -18 -19 -24 -11 -7 -35 -44 -54 -84 -31 -64 -34 -78 -32
-147 1 -43 5 -87 8 -100 7 -27 47 -102 64 -120 7 -7 16 -18 20 -25 11 -16 103
-80 103 -71 0 4 8 0 18 -9 10 -10 22 -14 25 -11 4 4 12 2 19 -4 7 -5 49 -9 93
-8 125 3 220 55 285 154 16 26 30 50 30 54 1 4 7 22 14 40 30 76 15 191 -38
281 -27 45 -88 107 -106 107 -5 0 -10 4 -10 8 0 7 -61 35 -85 38 -5 1 -12 3
-15 4 -19 9 -143 5 -180 -6z"/>
</g>
</svg>
