<?xml version="1.0" standalone="no"?>
<!DOCTYPE svg PUBLIC "-//W3C//DTD SVG 20010904//EN"
 "http://www.w3.org/TR/2001/REC-SVG-20010904/DTD/svg10.dtd">
<svg version="1.0" xmlns="http://www.w3.org/2000/svg"
 width="540.706467pt" height="535.618956pt" viewBox="0 0 540.706467 535.618956"
 preserveAspectRatio="xMidYMid meet">

<g transform="translate(-113.314150,651.912535) scale(0.100000,-0.100000)"
fill="#000000" stroke="black">
<path d="M3913 6496 c-15 -13 -41 -52 -57 -87 -104 -230 -146 -307 -186 -343
-36 -33 -47 -37 -76 -33 -72 12 -178 117 -225 221 -11 26 -25 78 -30 114 -5
36 -17 74 -26 84 -20 23 -55 23 -82 1 -33 -27 -55 -167 -48 -312 5 -132 -2
-166 -43 -206 -56 -53 -135 -29 -231 72 -65 68 -79 92 -109 191 -31 101 -57
122 -107 87 -54 -38 -55 -166 -4 -326 36 -113 40 -178 11 -224 -40 -64 -109
-69 -219 -14 -74 37 -130 97 -177 191 -44 89 -60 108 -90 108 -81 0 -66 -154
39 -400 48 -113 58 -157 45 -213 -23 -103 -128 -142 -269 -101 -72 21 -127 54
-201 120 -64 57 -102 68 -132 38 -18 -17 -21 -60 -7 -96 5 -13 44 -70 86 -128
43 -58 91 -134 108 -169 72 -152 17 -278 -128 -296 -61 -8 -122 -2 -247 26
-110 24 -150 24 -178 1 -21 -17 -22 -21 -11 -55 15 -44 32 -59 137 -115 233
-125 306 -258 186 -339 -47 -31 -108 -37 -219 -22 -96 13 -96 13 -115 -10 -16
-21 -17 -26 -5 -45 8 -12 66 -47 128 -78 63 -32 122 -67 132 -79 35 -44 13
-109 -47 -134 -17 -7 -92 -21 -166 -30 -74 -9 -150 -21 -168 -26 -56 -18 -66
-73 -19 -104 12 -8 63 -23 114 -34 242 -54 366 -142 367 -261 1 -38 -5 -57
-29 -91 -48 -67 -93 -97 -214 -138 -63 -22 -118 -45 -122 -53 -15 -23 -10 -64
11 -83 17 -15 47 -20 158 -27 170 -11 263 -30 321 -65 67 -42 86 -74 85 -141
-1 -91 -34 -137 -191 -260 -82 -64 -109 -108 -95 -150 15 -47 51 -50 142 -12
106 43 179 60 265 60 88 0 135 -13 168 -46 29 -29 35 -65 24 -144 -10 -71 -41
-138 -111 -240 -59 -87 -66 -112 -40 -148 27 -39 69 -29 169 39 129 88 205
121 290 126 124 7 169 -42 169 -187 0 -93 -14 -147 -71 -265 -41 -86 -44 -140
-9 -156 44 -20 73 -2 161 99 151 174 247 227 339 188 24 -10 37 -24 44 -48 33
-103 23 -198 -35 -316 -40 -82 -39 -116 3 -132 46 -18 87 14 220 167 74 83
143 153 168 168 88 52 169 21 258 -96 64 -86 81 -144 72 -253 l-7 -85 27 -11
c72 -27 108 16 180 213 30 80 63 161 75 181 49 78 127 116 200 96 96 -25 240
-167 299 -291 37 -82 57 -98 100 -85 48 16 55 120 17 266 -30 116 -32 175 -6
214 76 115 267 41 368 -143 60 -110 85 -128 131 -95 35 24 29 91 -23 254 -77
241 -56 320 87 320 71 0 163 -44 288 -138 125 -94 170 -96 170 -6 0 30 -8 51
-30 80 -96 125 -129 178 -140 225 -18 72 -8 129 27 157 24 20 37 23 98 20 61
-3 85 -11 185 -60 135 -66 179 -77 215 -54 44 29 34 67 -32 128 -147 134 -198
206 -208 289 -7 53 8 85 54 116 44 30 155 31 262 4 167 -44 229 -36 229 29 0
40 -16 54 -144 130 -166 99 -216 150 -216 219 0 33 28 66 70 83 14 5 81 11
148 13 131 4 164 14 175 54 8 33 -22 57 -88 70 -79 16 -178 64 -200 97 -20 31
-22 88 -4 110 23 27 87 54 168 69 105 20 220 60 248 87 25 24 32 79 11 96 -7
5 -59 14 -114 20 -135 14 -237 56 -311 127 -51 50 -53 53 -53 106 0 86 31 120
182 204 159 88 228 155 214 210 -9 36 -35 38 -146 9 -112 -28 -215 -34 -272
-15 -43 14 -88 63 -88 95 0 46 55 111 158 184 55 39 110 85 122 101 30 42 51
97 44 115 -13 34 -46 29 -152 -25 -105 -53 -107 -54 -198 -54 -112 0 -147 18
-152 79 -4 50 24 93 103 156 126 100 182 189 156 247 -17 36 -57 29 -145 -26
-84 -53 -196 -90 -302 -98 -113 -10 -184 43 -184 137 0 49 34 136 100 258 34
62 66 126 72 143 21 60 -15 109 -65 90 -13 -5 -80 -65 -148 -133 -137 -137
-195 -175 -253 -164 -101 19 -84 173 33 297 57 59 68 86 51 118 -25 48 -88 21
-243 -106 -154 -125 -166 -133 -202 -133 -60 0 -105 78 -105 183 0 74 20 149
61 225 16 30 29 68 29 83 0 37 -39 64 -75 52 -37 -12 -237 -214 -305 -308 -40
-56 -70 -86 -90 -93 -92 -33 -211 91 -241 251 -8 47 -7 75 7 143 15 81 15 86
-1 104 -24 27 -67 25 -102 -4z m237 -632 c429 -62 801 -250 1154 -585 95 -90
223 -244 295 -354 75 -115 185 -342 224 -464 107 -329 126 -670 55 -1016 -43
-214 -149 -485 -264 -674 -262 -430 -741 -781 -1244 -910 -218 -56 -297 -65
-530 -65 -370 0 -598 52 -913 210 -406 204 -730 527 -936 933 -158 311 -218
587 -208 956 6 230 29 364 98 570 123 368 360 706 674 958 355 285 724 432
1160 461 100 6 324 -4 435 -20z"/>
</g>
</svg>
