<svg width="48" height="48" viewBox="0 0 48 48" fill="none" xmlns="http://www.w3.org/2000/svg">
<rect x="0.5" y="0.5" width="47" height="47" rx="23.5" stroke="#B4BDC4"/>
<path d="M29.8931 19.0736C29.5526 18.7329 29.1483 18.4627 28.7033 18.2783C28.2584 18.0939 27.7814 17.999 27.2998 17.999C26.8181 17.999 26.3412 18.0939 25.8962 18.2783C25.4512 18.4627 25.0469 18.7329 24.7064 19.0736L23.9998 19.7802L23.2931 19.0736C22.6053 18.3858 21.6724 17.9994 20.6998 17.9994C19.7271 17.9994 18.7942 18.3858 18.1064 19.0736C17.4186 19.7614 17.0322 20.6942 17.0322 21.6669C17.0322 22.6396 17.4186 23.5724 18.1064 24.2602L18.8131 24.9669L23.9998 30.1536L29.1864 24.9669L29.8931 24.2602C30.2337 23.9197 30.504 23.5154 30.6884 23.0705C30.8727 22.6255 30.9676 22.1486 30.9676 21.6669C30.9676 21.1852 30.8727 20.7083 30.6884 20.2633C30.504 19.8184 30.2337 19.4141 29.8931 19.0736V19.0736Z" stroke="#333333" stroke-width="1.4" stroke-linecap="round" stroke-linejoin="round"/>
</svg>
