<svg width="40.000000" height="40.000000" viewBox="0 0 40 40" fill="none" xmlns="http://www.w3.org/2000/svg" xmlns:xlink="http://www.w3.org/1999/xlink">
	<desc>
			Created with Pixso.
	</desc>
	<defs/>
	<rect id="Buttons / Add to fovourites - Default" rx="-0.500000" width="39.000000" height="39.000000" transform="translate(0.500000 0.500000)" fill="#FFFFFF" fill-opacity="0"/>
	<rect id="Rectangle 20" x="0.500000" y="0.500000" rx="19.500000" width="39.000000" height="39.000000" stroke="#B4BDC4" stroke-opacity="1.000000" stroke-width="1.000000"/>
	<rect id="Icons/Favourites (Heart Like)" rx="-0.500000" width="15.000000" height="15.000000" transform="translate(12.500000 12.500000)" fill="#FFFFFF" fill-opacity="0"/>
	<path id="Vector (Stroke)" d="M21.62 13.63C22.15 13.41 22.72 13.29 23.29 13.29C23.87 13.29 24.44 13.41 24.97 13.63C25.5 13.85 25.98 14.17 26.38 14.57C26.79 14.98 27.11 15.46 27.33 15.99C27.55 16.52 27.66 17.09 27.66 17.66C27.66 18.24 27.55 18.8 27.33 19.33C27.11 19.86 26.79 20.34 26.38 20.75L20.49 26.64C20.22 26.92 19.77 26.92 19.5 26.64L13.61 20.75C12.79 19.93 12.33 18.82 12.33 17.66C12.33 16.5 12.79 15.39 13.61 14.57C14.43 13.75 15.54 13.29 16.69 13.29C17.85 13.29 18.96 13.75 19.78 14.57L20 14.79L20.21 14.57C20.61 14.17 21.09 13.85 21.62 13.63ZM25.39 15.56C25.12 15.29 24.79 15.07 24.43 14.92C24.07 14.77 23.68 14.69 23.29 14.69C22.91 14.69 22.52 14.77 22.16 14.92C21.8 15.07 21.47 15.29 21.2 15.56L20.49 16.27C20.22 16.54 19.77 16.54 19.5 16.27L18.79 15.56C18.24 15.01 17.48 14.69 16.69 14.69C15.91 14.69 15.15 15.01 14.6 15.56C14.04 16.12 13.73 16.87 13.73 17.66C13.73 18.45 14.04 19.2 14.6 19.76L20 25.16L25.39 19.76C25.67 19.48 25.89 19.16 26.04 18.8C26.19 18.44 26.26 18.05 26.26 17.66C26.26 17.27 26.19 16.89 26.04 16.53C25.89 16.17 25.67 15.84 25.39 15.56Z" fill="#0F0F11" fill-opacity="1.000000" fill-rule="evenodd"/>
</svg>
