<svg version="1.1" xmlns="http://www.w3.org/2000/svg" xmlns:xlink="http://www.w3.org/1999/xlink" width="6" height="10" viewBox="0 0 6 10">
<g id="angle_right">
<path id="angle_right" d="M5.991,5.374 C5.991,5.303 5.955,5.223 5.902,5.169 C5.902,5.169 1.742,1.009 1.742,1.009 C1.688,0.956 1.608,0.920 1.537,0.920 C1.465,0.920 1.385,0.956 1.331,1.009 C1.331,1.009 0.885,1.456 0.885,1.456 C0.832,1.509 0.796,1.589 0.796,1.661 C0.796,1.732 0.832,1.813 0.885,1.866 C0.885,1.866 4.393,5.374 4.393,5.374 C4.393,5.374 0.885,8.882 0.885,8.882 C0.832,8.936 0.796,9.016 0.796,9.088 C0.796,9.168 0.832,9.239 0.885,9.293 C0.885,9.293 1.331,9.739 1.331,9.739 C1.385,9.793 1.465,9.829 1.537,9.829 C1.608,9.829 1.688,9.793 1.742,9.739 C1.742,9.739 5.902,5.580 5.902,5.580 C5.955,5.526 5.991,5.446 5.991,5.374 z" fill="#FFFFFF" />
</g>
</svg>
