<svg width="46" height="15" viewBox="0 0 46 15" fill="none" xmlns="http://www.w3.org/2000/svg">
<path d="M9.06093 11.8608H11.1054L6.36228 0.53398H4.59589L0 11.8608H1.99537L2.96034 9.40129H8.0796L9.06093 11.8608ZM5.51179 2.96117L7.42538 7.73463H3.61456L5.51179 2.96117Z" fill="black"/>
<path d="M16.8797 2.91262C15.604 2.91262 14.4918 3.39806 13.6904 4.20712L13.347 3.12298H12.1366V15H13.9521V11.0356C14.7208 11.699 15.7349 12.0874 16.8797 12.0874C19.513 12.0874 21.4593 10.1133 21.4593 7.49191C21.4593 4.87055 19.513 2.91262 16.8797 2.91262ZM16.7325 10.3722C15.0643 10.3722 13.8376 9.1424 13.8376 7.49191C13.8376 5.85761 15.0643 4.62783 16.7325 4.62783C18.4008 4.62783 19.6111 5.85761 19.6111 7.49191C19.6111 9.1424 18.4008 10.3722 16.7325 10.3722Z" fill="black"/>
<path d="M27.6654 2.91262C26.3897 2.91262 25.2775 3.39806 24.4761 4.20712L24.1326 3.12298H22.9223V15H24.7378V11.0356C25.5065 11.699 26.5205 12.0874 27.6654 12.0874C30.2986 12.0874 32.2449 10.1133 32.2449 7.49191C32.2449 4.87055 30.2986 2.91262 27.6654 2.91262ZM27.5182 10.3722C25.8499 10.3722 24.6233 9.1424 24.6233 7.49191C24.6233 5.85761 25.8499 4.62783 27.5182 4.62783C29.1865 4.62783 30.3968 5.85761 30.3968 7.49191C30.3968 9.1424 29.1865 10.3722 27.5182 10.3722Z" fill="black"/>
<path d="M33.708 11.8608H35.5234V0H33.708V11.8608Z" fill="black"/>
<path d="M46 7.52427C46 4.98382 44.2009 2.91262 41.4859 2.91262C38.9017 2.91262 36.9554 4.88673 36.9554 7.49191C36.9554 10.1133 38.9017 12.0874 41.4859 12.0874C43.4649 12.0874 45.0841 10.9547 45.7874 9.11003H43.8738C43.3995 9.91909 42.549 10.4045 41.4859 10.4045C40.0466 10.4045 39.0162 9.53074 38.7872 8.1068H45.9509C45.9836 7.91262 46 7.71845 46 7.52427ZM41.4859 4.54693C42.8434 4.54693 43.8411 5.32362 44.1682 6.65049H38.8363C39.1307 5.35599 40.1284 4.54693 41.4859 4.54693Z" fill="black"/>
</svg>
