<svg width="13.333496" height="14.666672" viewBox="0 0 13.3335 14.6667" fill="none" xmlns="http://www.w3.org/2000/svg" xmlns:xlink="http://www.w3.org/1999/xlink">
	<desc>
			Created with Pixso.
	</desc>
	<defs/>
	<path id="Vector (Stroke)" d="M2.13 0.26C2.25 0.09 2.45 0 2.66 0L10.66 0C10.87 0 11.07 0.09 11.2 0.26L13.2 2.93C13.28 3.04 13.33 3.18 13.33 3.33L13.33 12.66C13.33 13.19 13.12 13.7 12.74 14.08C12.37 14.45 11.86 14.66 11.33 14.66L2 14.66C1.46 14.66 0.96 14.45 0.58 14.08C0.21 13.7 0 13.19 0 12.66L0 3.33C0 3.18 0.04 3.04 0.13 2.93L2.13 0.26ZM3 1.33L1.33 3.55L1.33 12.66C1.33 12.84 1.4 13.01 1.52 13.13C1.65 13.26 1.82 13.33 2 13.33L11.33 13.33C11.51 13.33 11.67 13.26 11.8 13.13C11.92 13.01 12 12.84 12 12.66L12 3.55L10.33 1.33L3 1.33Z" fill="#0F0F11" fill-opacity="1.000000" fill-rule="evenodd"/>
	<path id="Vector (Stroke)" d="M0 3.33C0 2.96 0.29 2.66 0.66 2.66L12.66 2.66C13.03 2.66 13.33 2.96 13.33 3.33C13.33 3.7 13.03 4 12.66 4L0.66 4C0.29 4 0 3.7 0 3.33Z" fill="#0F0F11" fill-opacity="1.000000" fill-rule="evenodd"/>
	<path id="Vector (Stroke)" d="M3.99 5.33C4.36 5.33 4.66 5.63 4.66 6C4.66 6.53 4.87 7.03 5.25 7.41C5.62 7.78 6.13 8 6.66 8C7.19 8 7.7 7.78 8.08 7.41C8.45 7.03 8.66 6.53 8.66 6C8.66 5.63 8.96 5.33 9.33 5.33C9.7 5.33 9.99 5.63 9.99 6C9.99 6.88 9.64 7.73 9.02 8.35C8.39 8.98 7.55 9.33 6.66 9.33C5.78 9.33 4.93 8.98 4.3 8.35C3.68 7.73 3.33 6.88 3.33 6C3.33 5.63 3.63 5.33 3.99 5.33Z" fill="#0F0F11" fill-opacity="1.000000" fill-rule="evenodd"/>
</svg>
