<svg id="Layer_1" enable-background="new 0 0 512 512" height="512" viewBox="0 0 512 512" width="512" xmlns="http://www.w3.org/2000/svg"><path d="m507.606 245.394-32.133-32.133c-5.857-5.858-15.355-5.858-21.213 0l-45.749 45.749c-6.984-13.422-20.661-27.329-41.112-32.285v-28.777l43.807-43.807c2.813-2.813 4.394-6.628 4.394-10.606v-48.2c0-8.284-6.716-15-15-15s-15 6.716-15 15v41.986l-25.322 25.322c-8.308-15.95-23.211-27.928-41.078-32.295v-2.88c0-40.843-33.191-57.772-48.2-61.41v-2.873c0-18.299 14.886-33.185 33.2-33.185 8.284 0 14.992-6.716 14.992-15s-6.724-15-15.008-15c-19.294 0-36.585 8.703-48.184 22.378-11.602-13.675-28.897-22.378-48.2-22.378-8.284 0-14.992 6.716-14.992 15s6.724 15 15.008 15c18.298 0 33.184 14.886 33.184 33.184v2.873c-14.938 3.62-48.2 20.516-48.2 61.41v2.88c-17.867 4.367-32.77 16.346-41.078 32.295l-25.322-25.322v-41.987c0-8.284-6.716-15-15-15s-15 6.716-15 15v48.2c0 3.978 1.581 7.793 4.394 10.606l43.807 43.807v28.777c-20.471 4.962-34.14 18.886-41.112 32.285l-45.749-45.748c-5.857-5.858-15.355-5.858-21.213 0l-32.133 32.134c-5.858 5.858-5.858 15.355 0 21.213 5.857 5.858 15.355 5.858 21.213 0l21.527-21.526 49.266 49.265v58.054c0 3.21.107 6.396.294 9.56l-44.1 44.1c-2.813 2.813-4.394 6.628-4.394 10.606v80.334c0 8.284 6.716 15 15 15s15-6.716 15-15v-74.12l24.855-24.856c19.677 65.841 80.79 113.976 152.945 113.976s133.268-48.135 152.944-113.976l24.856 24.856v74.12c0 8.284 6.716 15 15 15s15-6.716 15-15v-80.333c0-3.978-1.581-7.793-4.394-10.606l-44.101-44.101c.188-3.164.294-6.349.294-9.56v-58.054l49.267-49.266 21.527 21.526c5.857 5.858 15.355 5.858 21.213 0 5.858-5.857 5.858-15.355 0-21.212zm-284.806-117.927c0-18.386 14.874-33.2 33.2-33.2 18.312 0 33.2 14.8 33.2 33.2v1.066h-66.4zm-48.2 64.266c0-18.307 14.894-33.2 33.2-33.2h96.4c18.306 0 33.2 14.894 33.2 33.2v33.2h-162.8zm211 160.667c0 71.462-58.138 129.6-129.6 129.6s-129.6-58.138-129.6-129.6v-64.267c0-18.386 14.874-33.2 33.2-33.2h192.8c18.312 0 33.2 14.8 33.2 33.2z"/></svg>