<svg xmlns="http://www.w3.org/2000/svg" width="16" height="16" fill="none"><path fill="#313237" fill-rule="evenodd" d="M7.59.807a.667.667 0 0 1 .82 0l6 4.667c.162.126.257.32.257.526v7.333a2 2 0 0 1-2 2H3.333a2 2 0 0 1-2-2V6c0-.206.095-.4.258-.526l6-4.667Zm-4.923 5.52v7.006a.667.667 0 0 0 .667.667h9.333a.666.666 0 0 0 .667-.667V6.326L8 2.178 2.667 6.326Z" clip-rule="evenodd"/><path fill="#313237" fill-rule="evenodd" d="M5.333 8c0-.368.299-.667.667-.667h4c.368 0 .667.299.667.667v6.667a.667.667 0 1 1-1.333 0v-6H6.667v6a.667.667 0 0 1-1.333 0V8Z" clip-rule="evenodd"/></svg>