<svg width="93" height="16" viewBox="0 0 93 16" fill="none" xmlns="http://www.w3.org/2000/svg">
<path d="M52.164 3.6H49.068V12H50.436V9.156H52.164C53.808 9.156 55.032 7.968 55.032 6.384C55.032 4.788 53.796 3.6 52.164 3.6ZM52.104 7.848H50.436V4.908H52.104C53.004 4.908 53.628 5.532 53.628 6.384C53.628 7.224 53.004 7.848 52.104 7.848ZM59.7628 5.376C58.8988 5.376 58.1548 5.712 57.6628 6.264V3.204H56.3308V12H57.6628V8.532C57.6628 7.392 58.3948 6.576 59.4028 6.576C60.3868 6.576 60.8908 7.2 60.8908 8.376V12H62.2228V8.1C62.2228 6.432 61.2748 5.376 59.7628 5.376ZM67.018 12.168C68.998 12.168 70.474 10.716 70.474 8.76C70.474 6.816 68.998 5.364 67.018 5.364C65.026 5.364 63.55 6.804 63.55 8.76C63.55 10.716 65.026 12.168 67.018 12.168ZM67.018 10.896C65.782 10.896 64.906 10.008 64.906 8.76C64.906 7.524 65.782 6.636 67.018 6.636C68.242 6.636 69.118 7.524 69.118 8.76C69.118 10.008 68.242 10.896 67.018 10.896ZM75.325 5.376C74.377 5.376 73.573 5.772 73.093 6.432L72.829 5.52H71.905V12H73.237V8.532C73.237 7.392 73.957 6.576 74.977 6.576C75.949 6.576 76.465 7.2 76.465 8.376V12H77.797V8.1C77.797 6.504 76.849 5.376 75.325 5.376ZM85.7603 8.784C85.7603 6.9 84.4403 5.364 82.4483 5.364C80.5523 5.364 79.1243 6.828 79.1243 8.76C79.1243 10.704 80.5523 12.168 82.4483 12.168C83.9003 12.168 85.0883 11.328 85.6043 9.96H84.2003C83.8523 10.56 83.2283 10.92 82.4483 10.92C81.3923 10.92 80.6363 10.272 80.4683 9.216H85.7243C85.7483 9.072 85.7603 8.928 85.7603 8.784ZM82.4483 6.576C83.4443 6.576 84.1763 7.152 84.4163 8.136H80.5043C80.7203 7.176 81.4523 6.576 82.4483 6.576ZM89.3226 12.168C90.9066 12.168 91.9506 11.352 91.9506 10.092C91.9506 8.496 90.6186 8.28 89.5266 8.1C88.7466 7.968 88.0866 7.86 88.0866 7.284C88.0866 6.816 88.5426 6.492 89.2746 6.492C90.0546 6.492 90.5346 6.828 90.5586 7.44H91.8186C91.7946 6.192 90.8106 5.364 89.3106 5.364C87.7986 5.364 86.8026 6.168 86.8026 7.332C86.8026 8.832 88.0746 9.072 89.1546 9.264C89.9466 9.396 90.6426 9.528 90.6426 10.152C90.6426 10.692 90.0906 10.992 89.3706 10.992C88.5906 10.992 88.0146 10.632 87.9786 9.948H86.6826C86.7186 11.292 87.7506 12.168 89.3226 12.168Z" fill="#89939A"/>
<path fill-rule="evenodd" clip-rule="evenodd" d="M29.5283 3.52861C29.7886 3.26826 30.2107 3.26826 30.4711 3.52861L34.4711 7.52861C34.7314 7.78896 34.7314 8.21107 34.4711 8.47141L30.4711 12.4714C30.2107 12.7318 29.7886 12.7318 29.5283 12.4714C29.2679 12.2111 29.2679 11.789 29.5283 11.5286L33.0569 8.00001L29.5283 4.47141C29.2679 4.21107 29.2679 3.78896 29.5283 3.52861Z" fill="#B4BDC4"/>
<path fill-rule="evenodd" clip-rule="evenodd" d="M7.59038 0.807088C7.83112 0.619846 8.16823 0.619846 8.40897 0.807088L14.409 5.47375C14.5714 5.60006 14.6663 5.79426 14.6663 5.99999V13.3333C14.6663 13.8638 14.4556 14.3725 14.0806 14.7475C13.7055 15.1226 13.1968 15.3333 12.6663 15.3333H3.33301C2.80257 15.3333 2.29387 15.1226 1.91879 14.7475C1.54372 14.3725 1.33301 13.8638 1.33301 13.3333V5.99999C1.33301 5.79426 1.42799 5.60006 1.59038 5.47375L7.59038 0.807088ZM2.66634 6.32605V13.3333C2.66634 13.5101 2.73658 13.6797 2.8616 13.8047C2.98663 13.9298 3.1562 14 3.33301 14H12.6663C12.8432 14 13.0127 13.9298 13.1377 13.8047C13.2628 13.6797 13.333 13.5101 13.333 13.3333V6.32605L7.99967 2.1779L2.66634 6.32605Z" fill="#0F0F11"/>
<path fill-rule="evenodd" clip-rule="evenodd" d="M5.33301 8.00001C5.33301 7.63182 5.63148 7.33334 5.99967 7.33334H9.99967C10.3679 7.33334 10.6663 7.63182 10.6663 8.00001V14.6667C10.6663 15.0349 10.3679 15.3333 9.99967 15.3333C9.63148 15.3333 9.33301 15.0349 9.33301 14.6667V8.66668H6.66634V14.6667C6.66634 15.0349 6.36786 15.3333 5.99967 15.3333C5.63148 15.3333 5.33301 15.0349 5.33301 14.6667V8.00001Z" fill="#0F0F11"/>
</svg>
