<svg width="161" height="64" viewBox="0 0 161 64" fill="none" xmlns="http://www.w3.org/2000/svg">
<g filter="url(#filter0_d_15929_5603)">
<rect width="160" height="64" transform="translate(1)" fill="white"/>
<path fill-rule="evenodd" clip-rule="evenodd" d="M76.4667 24.9333C76.5926 24.7654 76.7902 24.6666 77 24.6666H85C85.2099 24.6666 85.4075 24.7654 85.5334 24.9333L87.5334 27.6C87.6199 27.7154 87.6667 27.8557 87.6667 28V37.3333C87.6667 37.8637 87.456 38.3724 87.0809 38.7475C86.7058 39.1226 86.1971 39.3333 85.6667 39.3333H76.3334C75.8029 39.3333 75.2942 39.1226 74.9192 38.7475C74.5441 38.3724 74.3334 37.8637 74.3334 37.3333V28C74.3334 27.8557 74.3802 27.7154 74.4667 27.6L76.4667 24.9333ZM77.3334 26L75.6667 28.2222V37.3333C75.6667 37.5101 75.7369 37.6797 75.862 37.8047C75.987 37.9297 76.1566 38 76.3334 38H85.6667C85.8435 38 86.0131 37.9297 86.1381 37.8047C86.2631 37.6797 86.3334 37.5101 86.3334 37.3333V28.2222L84.6667 26H77.3334Z" fill="#313237"/>
<path fill-rule="evenodd" clip-rule="evenodd" d="M74.3334 28C74.3334 27.6318 74.6319 27.3333 75 27.3333H87C87.3682 27.3333 87.6667 27.6318 87.6667 28C87.6667 28.3682 87.3682 28.6666 87 28.6666H75C74.6319 28.6666 74.3334 28.3682 74.3334 28Z" fill="#313237"/>
<path fill-rule="evenodd" clip-rule="evenodd" d="M78.3333 30C78.7015 30 79 30.2985 79 30.6667C79 31.1971 79.2107 31.7058 79.5857 32.0809C79.9608 32.456 80.4695 32.6667 81 32.6667C81.5304 32.6667 82.0391 32.456 82.4142 32.0809C82.7892 31.7058 83 31.1971 83 30.6667C83 30.2985 83.2984 30 83.6666 30C84.0348 30 84.3333 30.2985 84.3333 30.6667C84.3333 31.5507 83.9821 32.3986 83.357 33.0237C82.7319 33.6488 81.884 34 81 34C80.1159 34 79.2681 33.6488 78.6429 33.0237C78.0178 32.3986 77.6666 31.5507 77.6666 30.6667C77.6666 30.2985 77.9651 30 78.3333 30Z" fill="#313237"/>
</g>
<defs>
<filter id="filter0_d_15929_5603" x="0" y="0" width="161" height="64" filterUnits="userSpaceOnUse" color-interpolation-filters="sRGB">
<feFlood flood-opacity="0" result="BackgroundImageFix"/>
<feColorMatrix in="SourceAlpha" type="matrix" values="0 0 0 0 0 0 0 0 0 0 0 0 0 0 0 0 0 0 127 0" result="hardAlpha"/>
<feOffset dx="-1"/>
<feColorMatrix type="matrix" values="0 0 0 0 0.886275 0 0 0 0 0.901961 0 0 0 0 0.913725 0 0 0 1 0"/>
<feBlend mode="normal" in2="BackgroundImageFix" result="effect1_dropShadow_15929_5603"/>
<feBlend mode="normal" in="SourceGraphic" in2="effect1_dropShadow_15929_5603" result="shape"/>
</filter>
</defs>
</svg>
