<svg width="160.000000" height="64.000000" viewBox="0 0 160 64" fill="none" xmlns="http://www.w3.org/2000/svg" xmlns:xlink="http://www.w3.org/1999/xlink">
	<desc>
			Created with Pixso.
	</desc>
	<defs/>
	<rect id="Cart" rx="0.000000" width="159.000000" height="63.000000" transform="translate(0.500000 0.500000)" fill="#FFFFFF" fill-opacity="1.000000"/>
	<rect id="Icons/Shopping bag (Cart)" rx="0.000000" width="15.000000" height="15.000000" transform="translate(72.500000 24.500000)" fill="#FFFFFF" fill-opacity="0"/>
	<path id="Vector (Stroke)" d="M75.46 24.93C75.59 24.76 75.79 24.66 76 24.66L84 24.66C84.2 24.66 84.4 24.76 84.53 24.93L86.53 27.6C86.61 27.71 86.66 27.85 86.66 27.99L86.66 37.33C86.66 37.86 86.45 38.37 86.08 38.74C85.7 39.12 85.19 39.33 84.66 39.33L75.33 39.33C74.8 39.33 74.29 39.12 73.91 38.74C73.54 38.37 73.33 37.86 73.33 37.33L73.33 27.99C73.33 27.85 73.38 27.71 73.46 27.6L75.46 24.93ZM76.33 25.99L74.66 28.22L74.66 37.33C74.66 37.51 74.73 37.67 74.86 37.8C74.98 37.92 75.15 37.99 75.33 37.99L84.66 37.99C84.84 37.99 85.01 37.92 85.13 37.8C85.26 37.67 85.33 37.51 85.33 37.33L85.33 28.22L83.66 25.99L76.33 25.99Z" fill="#313237" fill-opacity="1.000000" fill-rule="evenodd"/>
	<path id="Vector (Stroke)" d="M73.33 28C73.33 27.63 73.63 27.33 74 27.33L86 27.33C86.36 27.33 86.66 27.63 86.66 28C86.66 28.36 86.36 28.66 86 28.66L74 28.66C73.63 28.66 73.33 28.36 73.33 28Z" fill="#313237" fill-opacity="1.000000" fill-rule="evenodd"/>
	<path id="Vector (Stroke)" d="M77.33 30C77.7 30 78 30.29 78 30.66C78 31.19 78.21 31.7 78.58 32.08C78.96 32.45 79.46 32.66 80 32.66C80.53 32.66 81.03 32.45 81.41 32.08C81.78 31.7 82 31.19 82 30.66C82 30.29 82.29 30 82.66 30C83.03 30 83.33 30.29 83.33 30.66C83.33 31.55 82.98 32.39 82.35 33.02C81.73 33.64 80.88 34 80 34C79.11 34 78.26 33.64 77.64 33.02C77.01 32.39 76.66 31.55 76.66 30.66C76.66 30.29 76.96 30 77.33 30Z" fill="#313237" fill-opacity="1.000000" fill-rule="evenodd"/>
</svg>
