<svg width="132" height="128" viewBox="0 0 132 128" fill="none" xmlns="http://www.w3.org/2000/svg">
<g clip-path="url(#clip0_4_1853)">
<rect width="128" height="128" rx="64" fill="#EFE8FF"/>
<ellipse cx="52.2831" cy="112.968" rx="56.0478" ry="2.75645" fill="#A499C2"/>
<ellipse cx="69.7406" cy="107.455" rx="4.28781" ry="5.20662" fill="#2F1673"/>
<ellipse cx="71.5782" cy="107.455" rx="4.28781" ry="5.20662" fill="#562BCA"/>
<ellipse cx="71.8844" cy="107.455" rx="0.306272" ry="0.918816" fill="white"/>
<path d="M85 38.5L90 28.5L126.095 24.762L123.032 35.7878" stroke="#564582" stroke-width="1.83763"/>
<path d="M107.718 86.3226L102.524 107.542" stroke="#564582" stroke-width="1.83763"/>
<path d="M126.095 24.4557L138.039 23.8431" stroke="#564582" stroke-width="1.83763"/>
<path d="M123.951 35.1752L52.5893 41.3006L12.4677 45.2821L32.9879 86.9351H108.331L123.951 35.1752Z" fill="white" stroke="#564582"/>
<path d="M51.058 41.3007L53.8144 86.6289L32.9879 86.9352L12.774 45.5885L51.058 41.3007Z" fill="#A499C2" stroke="#564582"/>
<path d="M113.537 41.9132L102.512 79.8909" stroke="#A499C2" stroke-width="0.612544"/>
<path d="M99.7552 42.832L88.7294 80.8097" stroke="#A499C2" stroke-width="0.612544"/>
<path d="M76.2006 42.2195L81.0173 81.4709" stroke="#A499C2" stroke-width="0.612544"/>
<path d="M59.6619 44.0571L64.4786 83.3085" stroke="#A499C2" stroke-width="0.612544"/>
<path d="M77.3974 86.9352L71.5782 107.149" stroke="#564582" stroke-width="1.83763"/>
<path d="M102.205 107.762H57.4897" stroke="#564582" stroke-width="1.83763"/>
<ellipse cx="31.7628" cy="107.455" rx="4.28781" ry="5.20662" fill="#2F1673"/>
<ellipse cx="33.6006" cy="107.455" rx="4.28781" ry="5.20662" fill="#562BCA"/>
<ellipse cx="33.9069" cy="107.455" rx="0.306272" ry="0.918816" fill="#564582"/>
<path d="M71.5782 107.149L33.6005 107.149" stroke="#564582" stroke-width="1.83763"/>
<ellipse cx="100.98" cy="108.681" rx="4.28781" ry="5.20662" fill="#2F1673"/>
<ellipse cx="102.818" cy="108.68" rx="4.28781" ry="5.20662" fill="#562BCA"/>
<ellipse cx="103.124" cy="108.68" rx="0.306272" ry="0.918816" fill="white"/>
<ellipse cx="57.4897" cy="108.681" rx="4.28781" ry="5.20662" fill="#2F1673"/>
<ellipse cx="59.3276" cy="108.68" rx="4.28781" ry="5.20662" fill="#562BCA"/>
<ellipse cx="59.5" cy="109" rx="0.5" ry="1" fill="white"/>
<path d="M97.4705 62.9982C96.405 71.1441 90.3328 76.9353 84.0288 76.1107C77.7248 75.2862 73.3465 68.128 74.412 59.9821C75.4774 51.8363 81.5496 46.0451 87.8536 46.8696C94.1576 47.6942 98.536 54.8524 97.4705 62.9982Z" fill="#EFE8FF" stroke="#564582" stroke-width="0.627451"/>
<path d="M79.3201 61.8897L82.1424 65.4228" stroke="#564582" stroke-width="0.627451"/>
<path d="M82.0924 61.6195L79.2886 66.3152" stroke="#564582" stroke-width="0.627451"/>
<path d="M90.1654 62.6755L92.9877 66.2087" stroke="#564582" stroke-width="0.627451"/>
<path d="M92.9377 62.4054L90.1339 67.101" stroke="#564582" stroke-width="0.627451"/>
<path d="M82.3236 72.4073C83.4376 70.8656 86.3051 68.7517 88.8633 72.6299" stroke="#564582" stroke-width="0.627451"/>
</g>
<path d="M14.5788 18.8318C22.6756 19.9474 20.6241 27.0272 20.6241 27.0272L21.1584 27.0992C21.1584 27.0992 21.2122 19.7483 29.3112 20.858C21.2144 19.7424 23.266 12.6626 23.266 12.6626L22.7317 12.5907C22.7317 12.5907 22.6779 19.9415 14.5788 18.8318Z" fill="white" stroke="#562BCA" stroke-width="0.650033" stroke-miterlimit="10"/>
<path d="M116.845 82.7597C124.995 83.4101 123.376 90.5924 123.376 90.5924L123.913 90.6385C123.913 90.6385 123.52 83.2945 131.671 83.9449C123.52 83.2945 125.14 76.1123 125.14 76.1123L124.602 76.0662C124.602 76.0662 124.995 83.4101 116.845 82.7597Z" fill="white" stroke="#562BCA" stroke-width="0.650033" stroke-miterlimit="10"/>
<defs>
<clipPath id="clip0_4_1853">
<rect width="128" height="128" rx="64" fill="white"/>
</clipPath>
</defs>
</svg>
