<svg width="49.000000" height="48.000000" viewBox="0 0 49 48" fill="none" xmlns="http://www.w3.org/2000/svg" xmlns:xlink="http://www.w3.org/1999/xlink">
	<desc>
			Created with Pixso.
	</desc>
	<defs>
		<filter id="filter_31_1488_dd" x="0.000000" y="0.000000" width="49.000000" height="48.000000" filterUnits="userSpaceOnUse" color-interpolation-filters="sRGB">
			<feFlood flood-opacity="0" result="BackgroundImageFix"/>
			<feColorMatrix in="SourceAlpha" type="matrix" values="0 0 0 0 0 0 0 0 0 0 0 0 0 0 0 0 0 0 127 0" result="hardAlpha"/>
			<feOffset dx="-1" dy="0"/>
			<feGaussianBlur stdDeviation="0"/>
			<feComposite in2="hardAlpha" operator="out" k2="-1" k3="1"/>
			<feColorMatrix type="matrix" values="0 0 0 0 0.88627 0 0 0 0 0.90196 0 0 0 0 0.91373 0 0 0 1 0"/>
			<feBlend mode="normal" in2="BackgroundImageFix" result="effect_dropShadow_1"/>
			<feBlend mode="normal" in="SourceGraphic" in2="effect_dropShadow_1" result="shape"/>
		</filter>
	</defs>
	<g filter="url(#filter_31_1488_dd)">
		<rect id="Cart" rx="-0.500000" width="47.000000" height="47.000000" transform="translate(1.500000 0.500000)" fill="#FFFFFF" fill-opacity="1.000000"/>
		<rect id="Icons/Shopping bag (Cart)" rx="-0.500000" width="15.000000" height="15.000000" transform="translate(17.500000 16.500000)" fill="#FFFFFF" fill-opacity="0"/>
		<path id="Vector (Stroke)" d="M20.46 16.93C20.59 16.76 20.79 16.66 21 16.66L29 16.66C29.21 16.66 29.4 16.76 29.53 16.93L31.53 19.6C31.62 19.71 31.66 19.85 31.66 20L31.66 29.33C31.66 29.86 31.45 30.37 31.08 30.74C30.7 31.12 30.19 31.33 29.66 31.33L20.33 31.33C19.8 31.33 19.29 31.12 18.91 30.74C18.54 30.37 18.33 29.86 18.33 29.33L18.33 20C18.33 19.85 18.38 19.71 18.46 19.6L20.46 16.93ZM21.33 18L19.66 20.22L19.66 29.33C19.66 29.51 19.73 29.67 19.86 29.8C19.98 29.92 20.15 30 20.33 30L29.66 30C29.84 30 30.01 29.92 30.13 29.8C30.26 29.67 30.33 29.51 30.33 29.33L30.33 20.22L28.66 18L21.33 18Z" fill="#0F0F11" fill-opacity="1.000000" fill-rule="evenodd"/>
		<path id="Vector (Stroke)" d="M18.33 20C18.33 19.63 18.63 19.33 19 19.33L31 19.33C31.36 19.33 31.66 19.63 31.66 20C31.66 20.36 31.36 20.66 31 20.66L19 20.66C18.63 20.66 18.33 20.36 18.33 20Z" fill="#0F0F11" fill-opacity="1.000000" fill-rule="evenodd"/>
		<path id="Vector (Stroke)" d="M22.33 22C22.7 22 23 22.29 23 22.66C23 23.19 23.21 23.7 23.58 24.08C23.96 24.45 24.46 24.66 25 24.66C25.53 24.66 26.03 24.45 26.41 24.08C26.78 23.7 27 23.19 27 22.66C27 22.29 27.29 22 27.66 22C28.03 22 28.33 22.29 28.33 22.66C28.33 23.55 27.98 24.39 27.35 25.02C26.73 25.64 25.88 26 25 26C24.11 26 23.26 25.64 22.64 25.02C22.01 24.39 21.66 23.55 21.66 22.66C21.66 22.29 21.96 22 22.33 22Z" fill="#0F0F11" fill-opacity="1.000000" fill-rule="evenodd"/>
	</g>
</svg>
