<svg width="46" height="7" viewBox="0 0 46 7" fill="none" xmlns="http://www.w3.org/2000/svg">
<path d="M2.51409 0.143639H0V6.84679H2.51409C4.47585 6.84679 5.89479 5.43912 5.89479 3.49521C5.89479 1.5513 4.47585 0.143639 2.51409 0.143639ZM2.48553 5.50616H1.43799V1.49384H2.48553C3.6283 1.49384 4.41871 2.3078 4.41871 3.49521C4.41871 4.66347 3.6283 5.50616 2.48553 5.50616Z" fill="#89939A"/>
<path d="M10.725 6.84679H12.3344L10.8583 4.31874C11.6011 3.95486 12.0773 3.24624 12.0773 2.36525C12.0773 1.0725 11.0774 0.143639 9.74412 0.143639H7.05862V6.84679H8.4966V4.56772H9.42034L10.725 6.84679ZM8.4966 1.48427H9.64889C10.2584 1.48427 10.6107 1.85773 10.6107 2.35568C10.6107 2.8632 10.2584 3.22709 9.64889 3.22709H8.4966V1.48427Z" fill="#89939A"/>
<path d="M16.4605 7C18.4889 7 20.0031 5.49658 20.0031 3.49521C20.0031 1.50342 18.4889 0 16.4605 0C14.4226 0 12.8989 1.513 12.8989 3.49521C12.8989 5.487 14.4226 7 16.4605 7ZM16.4605 5.63064C15.2701 5.63064 14.3654 4.70178 14.3654 3.49521C14.3654 2.28865 15.2701 1.36936 16.4605 1.36936C17.6509 1.36936 18.5365 2.27907 18.5365 3.49521C18.5365 4.71135 17.6509 5.63064 16.4605 5.63064Z" fill="#89939A"/>
<path d="M24.1956 7C25.8431 7 27.1382 5.88919 27.4429 4.23256H25.9859C25.7478 5.07524 25.0717 5.61149 24.1956 5.61149C23.0623 5.61149 22.2148 4.71135 22.2148 3.50479C22.2148 2.29822 23.0623 1.38851 24.1956 1.38851C25.0336 1.38851 25.7002 1.88646 25.9764 2.67168H27.4144C27.1096 1.08208 25.8145 0 24.1956 0C22.2338 0 20.7482 1.513 20.7482 3.50479C20.7482 5.487 22.2338 7 24.1956 7Z" fill="#89939A"/>
<path d="M32.4376 0.143639V2.72914H29.9235V0.143639H28.4856V6.84679H29.9235V4.07934H32.4376V6.84679H33.8756V0.143639H32.4376Z" fill="#89939A"/>
<path d="M36.8427 5.50616V4.12722H39.1568V2.81532H36.8427V1.48427H39.4044V0.143639H35.4047V6.84679H39.5091V5.50616H36.8427Z" fill="#89939A"/>
<path d="M44.3906 6.84679H46L44.5239 4.31874C45.2667 3.95486 45.7429 3.24624 45.7429 2.36525C45.7429 1.0725 44.743 0.143639 43.4097 0.143639H40.7242V6.84679H42.1622V4.56772H43.0859L44.3906 6.84679ZM42.1622 1.48427H43.3145C43.924 1.48427 44.2763 1.85773 44.2763 2.35568C44.2763 2.8632 43.924 3.22709 43.3145 3.22709H42.1622V1.48427Z" fill="#89939A"/>
</svg>
