<svg version="1.1" xmlns="http://www.w3.org/2000/svg" xmlns:xlink="http://www.w3.org/1999/xlink" width="10" height="6" viewBox="0 0 10 6">
<g id="drop_down_icon">
<path id="drop_down_icon" d="M9.699,1.283 C9.699,1.212 9.663,1.132 9.610,1.078 C9.610,1.078 9.163,0.632 9.163,0.632 C9.110,0.578 9.029,0.542 8.958,0.542 C8.887,0.542 8.806,0.578 8.753,0.632 C8.753,0.632 5.245,4.140 5.245,4.140 C5.245,4.140 1.736,0.632 1.736,0.632 C1.683,0.578 1.603,0.542 1.531,0.542 C1.451,0.542 1.379,0.578 1.326,0.632 C1.326,0.632 0.880,1.078 0.880,1.078 C0.826,1.132 0.790,1.212 0.790,1.283 C0.790,1.355 0.826,1.435 0.880,1.489 C0.880,1.489 5.039,5.648 5.039,5.648 C5.093,5.702 5.173,5.738 5.245,5.738 C5.316,5.738 5.396,5.702 5.450,5.648 C5.450,5.648 9.610,1.489 9.610,1.489 C9.663,1.435 9.699,1.355 9.699,1.283 z" fill="#333333" />
</g>
</svg>
