<svg version="1.1" xmlns="http://www.w3.org/2000/svg" xmlns:xlink="http://www.w3.org/1999/xlink" width="17" height="13" viewBox="0 0 17 13">
<g id="email_icon">
<path id="email_icon" d="M16.747,4.051 C16.480,4.346 16.176,4.605 15.855,4.828 C14.364,5.837 12.865,6.854 11.410,7.907 C10.660,8.461 9.731,9.139 8.758,9.139 C8.758,9.139 8.749,9.139 8.749,9.139 C8.749,9.139 8.741,9.139 8.741,9.139 C7.768,9.139 6.839,8.461 6.089,7.907 C4.634,6.845 3.135,5.837 1.653,4.828 C1.323,4.605 1.019,4.346 0.751,4.051 C0.751,4.051 0.751,11.139 0.751,11.139 C0.751,11.924 1.394,12.567 2.180,12.567 C2.180,12.567 15.319,12.567 15.319,12.567 C16.105,12.567 16.747,11.924 16.747,11.139 C16.747,11.139 16.747,4.051 16.747,4.051 zM16.747,1.427 C16.747,0.641 16.096,-0.001 15.319,-0.001 C15.319,-0.001 2.180,-0.001 2.180,-0.001 C1.224,-0.001 0.751,0.749 0.751,1.623 C0.751,2.436 1.653,3.444 2.287,3.873 C3.670,4.837 5.072,5.801 6.455,6.774 C7.036,7.176 8.017,7.997 8.741,7.997 C8.741,7.997 8.749,7.997 8.749,7.997 C8.749,7.997 8.758,7.997 8.758,7.997 C9.481,7.997 10.463,7.176 11.044,6.774 C12.427,5.801 13.829,4.837 15.221,3.873 C16.007,3.328 16.747,2.427 16.747,1.427 z" fill="#60A75E" />
</g>
</svg>
