<svg version="1.1" xmlns="http://www.w3.org/2000/svg" xmlns:xlink="http://www.w3.org/1999/xlink" width="117" height="74" viewBox="0 0 117 74">
<g id="envelope">
<path id="envelope" d="M113.585,45.547 C113.585,45.547 113.585,45.547 113.585,45.547 C113.585,45.547 48.472,69.273 48.472,69.273 C47.880,69.489 47.266,69.596 46.653,69.596 C45.908,69.596 45.165,69.438 44.468,69.122 C43.197,68.546 42.230,67.518 41.746,66.226 C41.746,66.226 28.392,30.674 28.392,30.674 C27.907,29.383 27.962,27.982 28.546,26.731 C29.130,25.480 30.174,24.527 31.486,24.049 C31.486,24.049 96.598,0.323 96.598,0.323 C97.910,-0.155 99.331,-0.101 100.602,0.474 C101.872,1.049 102.839,2.078 103.324,3.370 C103.324,3.370 116.678,38.921 116.678,38.921 C117.679,41.588 116.291,44.560 113.585,45.547 zM107.040,42.434 L80.217,34.146 C80.217,34.146 76.073,39.986 76.073,39.986 C75.576,40.685 74.770,41.087 73.927,41.087 C73.712,41.087 73.493,41.059 73.275,41.004 C73.275,41.004 66.272,39.230 66.272,39.230 L51.383,62.715 L107.040,42.434 zM45.711,61.925 L60.954,37.883 L34.129,31.087 L45.711,61.925 zM38.696,26.920 L72.822,35.565 L93.019,7.125 L38.696,26.920 zM99.241,7.358 L83.366,29.715 L110.828,38.200 L99.241,7.358 zM30.490,66.933 C30.992,68.268 30.300,69.751 28.943,70.245 C28.943,70.245 19.080,73.839 19.080,73.839 C18.780,73.949 18.473,74.000 18.172,74.000 C17.108,74.000 16.107,73.357 15.717,72.316 C15.215,70.981 15.908,69.498 17.263,69.004 C17.263,69.004 27.127,65.409 27.127,65.409 C28.482,64.916 29.989,65.597 30.490,66.933 zM15.593,46.310 C15.593,46.310 9.505,48.529 9.505,48.529 C9.205,48.638 8.898,48.690 8.597,48.690 C7.533,48.690 6.532,48.046 6.141,47.006 C5.640,45.670 6.332,44.188 7.688,43.693 C7.688,43.693 13.777,41.475 13.777,41.475 C15.132,40.981 16.638,41.662 17.140,42.998 C17.642,44.334 16.949,45.817 15.593,46.310 zM9.592,62.528 C10.094,63.863 9.401,65.346 8.045,65.840 C8.045,65.840 3.521,67.489 3.521,67.489 C3.222,67.598 2.915,67.650 2.613,67.650 C1.549,67.650 0.549,67.006 0.158,65.966 C-0.343,64.630 0.349,63.147 1.705,62.653 C1.705,62.653 6.229,61.004 6.229,61.004 C7.584,60.511 9.090,61.192 9.592,62.528 z" fill="#60A75E" />
</g>
</svg>
