<svg width="1024" height="1024" viewBox="0 0 1024 1024" fill="none" xmlns="http://www.w3.org/2000/svg">
<rect width="1024" height="1024" fill="#EBEBEB"/>
<path d="M173.111 385.986C178.443 386.934 182.827 387.586 186.264 387.941C189.7 388.297 192.484 388.593 194.617 388.83C197.105 389.067 199.061 389.126 200.482 389.008H205.814C207.71 389.008 210.08 389.008 212.924 389.008C215.886 388.889 219.559 388.83 223.943 388.83C226.432 394.636 228.683 399.968 230.697 404.826C232.83 409.684 234.607 413.831 236.029 417.268C237.688 421.415 239.229 425.147 240.65 428.465C242.309 432.612 244.087 437.174 245.982 442.15C247.878 447.127 249.596 451.807 251.137 456.191C252.796 460.576 254.158 464.189 255.225 467.033C256.291 469.877 256.824 471.18 256.824 470.943C256.824 470.825 256.883 469.64 257.002 467.389C257.12 465.019 257.239 462.116 257.357 458.68C257.476 455.125 257.594 451.274 257.713 447.127C257.95 442.861 258.068 438.773 258.068 434.863C258.187 430.835 258.246 427.161 258.246 423.844C258.246 420.526 258.128 418.038 257.891 416.379C257.535 414.365 256.824 412.054 255.758 409.447C254.81 407.196 253.507 404.53 251.848 401.449C250.189 398.25 247.878 394.636 244.916 390.607C249.774 390.726 253.743 390.785 256.824 390.785C259.905 390.785 262.393 390.785 264.289 390.785C266.422 390.785 268.081 390.726 269.266 390.607C270.806 390.607 272.702 390.489 274.953 390.252C276.967 390.015 279.456 389.837 282.418 389.719C285.499 389.482 289.29 389.186 293.793 388.83C291.186 391.2 289.113 393.451 287.572 395.584C286.032 397.717 284.788 399.613 283.84 401.271C282.773 403.167 282.062 404.945 281.707 406.604C281.233 408.736 280.818 412.232 280.463 417.09C280.226 421.829 279.93 427.161 279.574 433.086C279.337 439.01 279.1 445.172 278.863 451.57C278.626 457.969 278.389 463.834 278.152 469.166C278.152 473.195 278.034 477.52 277.797 482.141C277.56 486.051 277.323 490.494 277.086 495.471C276.849 500.329 276.553 505.246 276.197 510.223L260.379 510.578C255.758 502.402 251.848 495.411 248.648 489.605C245.568 483.681 243.02 478.823 241.006 475.031C238.755 470.647 236.859 466.974 235.318 464.012C234.015 461.168 232.297 457.91 230.164 454.236C228.387 451.156 226.135 447.364 223.41 442.861C220.803 438.359 217.663 433.204 213.99 427.398C213.635 435.574 213.457 442.565 213.457 448.371C213.576 454.059 213.753 458.798 213.99 462.59C214.346 466.974 214.76 470.647 215.234 473.609C215.827 476.453 216.656 479.652 217.723 483.207C218.671 486.288 219.796 489.902 221.1 494.049C222.521 498.196 224.24 502.876 226.254 508.09C219.263 507.734 214.049 507.557 210.613 507.557H205.281C203.622 507.557 201.371 507.734 198.527 508.09C196.158 508.327 192.899 508.682 188.752 509.156C184.723 509.63 179.688 510.282 173.645 511.111C176.488 507.675 178.74 504.535 180.398 501.691C182.176 498.729 183.538 496.241 184.486 494.227C185.671 491.857 186.501 489.783 186.975 488.006C187.33 486.11 187.567 482.852 187.686 478.23C187.804 473.491 187.804 468.159 187.686 462.234C187.686 456.191 187.567 449.852 187.33 443.217C187.212 436.581 187.034 430.42 186.797 424.732C186.56 419.045 186.264 414.187 185.908 410.158C185.671 406.13 185.493 403.641 185.375 402.693C185.02 401.153 184.309 399.494 183.242 397.717C182.294 396.176 181.05 394.458 179.51 392.562C177.969 390.548 175.837 388.356 173.111 385.986ZM402.211 380.654C406.358 380.654 410.09 381.365 413.408 382.787C416.844 384.09 419.984 385.572 422.828 387.23C425.79 388.889 428.575 390.43 431.182 391.852C433.788 393.155 436.454 393.807 439.18 393.807C441.312 393.688 443.742 393.392 446.467 392.918C448.837 392.444 451.562 391.733 454.643 390.785C457.842 389.719 461.396 388.178 465.307 386.164C461.396 389.956 458.197 393.155 455.709 395.762C453.339 398.25 451.503 400.324 450.199 401.982C448.659 403.878 447.533 405.359 446.822 406.426C446.111 407.729 445.045 409.684 443.623 412.291C442.32 414.661 440.542 417.86 438.291 421.889C436.04 425.799 433.196 430.953 429.76 437.352C429.76 429.176 428.93 422.837 427.271 418.334C425.731 413.831 424.013 410.395 422.117 408.025C419.866 405.3 417.318 403.582 414.475 402.871C411.868 402.516 409.261 402.99 406.654 404.293C404.048 405.478 401.441 407.255 398.834 409.625C396.346 411.995 393.917 414.839 391.547 418.156C389.296 421.355 387.222 424.732 385.326 428.287C383.549 431.842 382.068 435.456 380.883 439.129C379.698 442.684 378.928 446.001 378.572 449.082C378.217 451.807 378.158 455.007 378.395 458.68C378.632 462.234 379.165 465.908 379.994 469.699C380.824 473.372 381.89 476.986 383.193 480.541C384.497 484.096 386.096 487.295 387.992 490.139C390.007 492.864 392.258 495.115 394.746 496.893C397.234 498.551 400.078 499.322 403.277 499.203C406.832 498.966 410.327 497.9 413.764 496.004C416.726 494.464 419.747 492.094 422.828 488.895C425.909 485.577 428.575 480.896 430.826 474.854L457.131 479.652C449.548 488.895 442.142 495.826 434.914 500.447C427.805 505.068 421.406 508.327 415.719 510.223C409.083 512.355 402.803 513.363 396.879 513.244C389.414 512.415 382.423 510.163 375.906 506.49C369.389 502.817 363.761 498.374 359.021 493.16C354.4 487.828 350.786 482.022 348.18 475.742C345.573 469.462 344.447 463.301 344.803 457.258C345.04 453.229 345.869 448.549 347.291 443.217C348.713 437.766 350.609 432.197 352.979 426.51C355.467 420.822 358.429 415.253 361.865 409.803C365.301 404.352 369.093 399.494 373.24 395.229C377.387 390.844 381.89 387.349 386.748 384.742C391.725 382.017 396.879 380.654 402.211 380.654ZM243.494 603.676C251.077 603.557 257.298 604.92 262.156 607.764C267.133 610.607 271.161 613.984 274.242 617.895C277.323 621.805 279.693 625.774 281.352 629.803C283.01 633.713 284.314 636.794 285.262 639.045C285.499 639.637 285.973 640.408 286.684 641.355C287.276 642.185 288.105 643.192 289.172 644.377C290.357 645.443 291.838 646.688 293.615 648.109C289.942 648.228 286.684 648.346 283.84 648.465C280.996 648.465 278.567 648.524 276.553 648.643C274.301 648.761 272.287 648.88 270.51 648.998C268.732 649.117 266.54 649.294 263.934 649.531C261.564 649.768 258.661 650.005 255.225 650.242C251.788 650.479 247.582 650.835 242.605 651.309C245.568 647.754 247.878 644.614 249.537 641.889C251.314 639.045 252.618 636.557 253.447 634.424C254.395 632.173 254.928 630.217 255.047 628.559C255.284 626.9 255.225 625.478 254.869 624.293C254.158 621.568 252.322 619.613 249.359 618.428C240.828 616.058 233.363 617.954 226.965 624.115C220.685 630.158 216.182 640.111 213.457 653.975C212.154 660.847 210.91 668.016 209.725 675.48C208.658 682.827 208.243 689.581 208.48 695.742C208.717 701.785 209.902 706.702 212.035 710.494C214.168 714.286 217.841 716.063 223.055 715.826C228.15 715.589 232.475 714.76 236.029 713.338C239.584 711.798 242.428 710.02 244.561 708.006C246.693 705.873 248.174 703.622 249.004 701.252C249.952 698.764 250.307 696.453 250.07 694.32C249.596 692.661 248.352 690.884 246.338 688.988C244.561 687.329 241.895 685.493 238.34 683.479C234.785 681.346 229.69 679.154 223.055 676.902C229.335 676.547 234.489 676.31 238.518 676.191C242.665 675.954 245.923 675.717 248.293 675.48C251.137 675.243 253.329 675.066 254.869 674.947C256.291 674.829 258.365 674.71 261.09 674.592C263.46 674.473 266.481 674.414 270.154 674.414C273.946 674.414 278.686 674.355 284.373 674.236C282.24 676.369 280.581 678.324 279.396 680.102C278.804 681.049 278.271 681.879 277.797 682.59C277.323 683.775 277.145 686.204 277.264 689.877C277.264 692.958 277.501 697.52 277.975 703.562C278.449 709.487 279.337 717.604 280.641 727.912L257.002 731.111L258.068 707.117C255.343 713.634 251.907 718.492 247.76 721.691C243.731 724.891 239.88 727.142 236.207 728.445C231.823 729.986 227.261 730.697 222.521 730.578C216.36 729.986 210.199 728.564 204.037 726.312C197.876 724.061 192.425 720.625 187.686 716.004C182.946 711.264 179.273 705.162 176.666 697.697C174.178 690.232 173.408 680.99 174.355 669.971C175.422 658.951 178.029 649.354 182.176 641.178C186.441 632.883 191.714 626.011 197.994 620.561C204.274 615.11 211.324 611.022 219.145 608.297C227.083 605.453 235.2 603.913 243.494 603.676ZM402.566 605.275C406.714 605.868 410.327 606.342 413.408 606.697C416.489 607.053 419.036 607.349 421.051 607.586C423.421 607.823 425.435 608.001 427.094 608.119C428.99 608.356 431.3 608.238 434.025 607.764C436.869 607.29 439.891 606.816 443.09 606.342C446.289 605.749 449.607 605.275 453.043 604.92C456.479 604.564 459.797 604.564 462.996 604.92C465.129 605.157 467.854 605.631 471.172 606.342C474.49 607.053 477.985 608.178 481.658 609.719C485.45 611.259 489.242 613.273 493.033 615.762C496.825 618.25 500.261 621.39 503.342 625.182C506.423 628.973 508.97 633.476 510.984 638.689C512.999 643.903 514.124 650.005 514.361 656.996C514.717 667.423 513.769 676.902 511.518 685.434C509.266 693.965 505.771 701.252 501.031 707.295C496.41 713.338 490.545 718.077 483.436 721.514C476.326 724.95 468.032 726.846 458.553 727.201C451.325 727.794 444.215 728.327 437.225 728.801C434.262 729.038 431.122 729.215 427.805 729.334C424.605 729.452 421.406 729.571 418.207 729.689C415.008 729.689 411.927 729.63 408.965 729.512C406.003 729.393 403.277 729.215 400.789 728.979C403.514 727.675 405.706 726.372 407.365 725.068C409.143 723.765 410.505 722.639 411.453 721.691C412.52 720.507 413.29 719.44 413.764 718.492C414.001 717.189 414.356 714.641 414.83 710.85C415.186 707.65 415.66 703.089 416.252 697.164C416.844 691.24 417.555 683.182 418.385 672.992L419.451 660.373C420.044 652.553 420.281 646.154 420.162 641.178C420.162 636.201 420.044 632.291 419.807 629.447C419.451 626.13 418.977 623.701 418.385 622.16C417.911 620.857 417.022 619.316 415.719 617.539C414.534 616.117 412.875 614.399 410.742 612.385C408.728 610.252 406.003 607.882 402.566 605.275ZM440.068 670.682C440.305 681.227 440.839 689.344 441.668 695.031C442.616 700.6 443.623 704.747 444.689 707.473C445.993 710.553 447.415 712.39 448.955 712.982C451.206 712.982 453.754 712.035 456.598 710.139C459.441 708.124 462.226 705.103 464.951 701.074C467.795 697.046 470.342 692.01 472.594 685.967C474.964 679.924 476.682 672.874 477.748 664.816C478.814 656.759 478.518 649.65 476.859 643.488C475.201 637.327 473.008 632.173 470.283 628.025C467.558 623.76 464.773 620.561 461.93 618.428C459.086 616.176 456.953 615.051 455.531 615.051C453.872 615.051 452.391 615.525 451.088 616.473C449.785 617.302 447.948 619.257 445.578 622.338C444.393 623.997 443.327 626.367 442.379 629.447C441.549 632.173 440.839 635.786 440.246 640.289C439.654 644.792 439.476 650.598 439.713 657.707L440.068 670.682ZM629.533 610.607C637.827 610.844 644.7 611.022 650.15 611.141C655.719 611.141 660.222 611.141 663.658 611.141H673.078H726.043C726.28 613.51 726.458 615.821 726.576 618.072C726.813 620.205 726.932 622.101 726.932 623.76C726.932 625.774 726.872 627.611 726.754 629.27C726.635 630.928 726.458 632.706 726.221 634.602C725.984 636.26 725.747 638.038 725.51 639.934C725.273 641.829 724.858 643.785 724.266 645.799C722.607 639.4 720.355 634.542 717.512 631.225C714.786 627.907 712.002 625.478 709.158 623.938C705.84 622.16 702.345 621.212 698.672 621.094C693.814 621.331 690.022 621.745 687.297 622.338C684.572 622.93 682.439 623.76 680.898 624.826C679.358 625.893 678.173 627.137 677.344 628.559C676.633 629.862 675.863 631.343 675.033 633.002C674.322 634.424 673.671 636.616 673.078 639.578C672.486 642.066 671.893 645.443 671.301 649.709C670.827 653.975 670.294 659.484 669.701 666.238C672.9 665.29 675.448 664.402 677.344 663.572C679.358 662.743 680.958 662.032 682.143 661.439C683.446 660.729 684.394 660.077 684.986 659.484C685.46 658.773 686.171 657.47 687.119 655.574C687.83 653.915 688.778 651.664 689.963 648.82C691.266 645.977 692.807 642.066 694.584 637.09C694.821 642.54 694.939 647.102 694.939 650.775C694.939 654.33 694.999 657.233 695.117 659.484C695.117 662.091 695.176 664.165 695.295 665.705V672.459C695.295 674.947 695.295 678.324 695.295 682.59C695.413 686.737 695.591 692.01 695.828 698.408C694.406 694.024 693.103 690.588 691.918 688.1C690.852 685.493 689.904 683.538 689.074 682.234C688.126 680.694 687.297 679.628 686.586 679.035C685.757 678.798 684.631 678.561 683.209 678.324C681.906 678.206 680.247 678.146 678.232 678.146C676.337 678.146 673.908 678.443 670.945 679.035C670.59 685.552 670.531 690.825 670.768 694.854C671.123 698.764 671.597 701.785 672.189 703.918C672.782 706.406 673.493 708.184 674.322 709.25C675.389 710.316 677.521 711.205 680.721 711.916C683.92 712.508 687.534 712.745 691.562 712.627C695.71 712.39 699.916 711.679 704.182 710.494C708.447 709.309 712.239 707.354 715.557 704.629C718.045 702.378 720.711 699.534 723.555 696.098C725.924 693.135 728.531 689.403 731.375 684.9C734.337 680.398 737.24 674.947 740.084 668.549C739.61 673.881 739.255 678.324 739.018 681.879C738.899 685.315 738.721 688.1 738.484 690.232C738.247 692.721 738.07 694.617 737.951 695.92C737.951 697.342 737.773 699.356 737.418 701.963C737.181 704.214 736.766 707.295 736.174 711.205C735.7 714.997 735.048 719.855 734.219 725.779C728.65 725.898 723.377 726.016 718.4 726.135C713.424 726.135 709.04 726.194 705.248 726.312C700.745 726.431 696.598 726.549 692.807 726.668C688.896 726.668 684.572 726.846 679.832 727.201C675.685 727.438 670.768 727.794 665.08 728.268C659.511 728.742 653.35 729.393 646.596 730.223C647.188 722.165 647.603 714.582 647.84 707.473C648.195 700.245 648.432 693.906 648.551 688.455C648.669 682.057 648.669 676.132 648.551 670.682C649.143 657.055 648.906 646.036 647.84 637.623C646.773 629.21 645.529 623.819 644.107 621.449C643.396 620.62 642.389 619.613 641.086 618.428C640.02 617.48 638.538 616.354 636.643 615.051C634.747 613.747 632.377 612.266 629.533 610.607ZM951.055 601.898C949.396 605.69 947.915 609.008 946.611 611.852C945.308 614.695 944.182 617.124 943.234 619.139C942.168 621.39 941.279 623.404 940.568 625.182C939.976 626.485 939.206 628.262 938.258 630.514C937.31 632.528 936.125 635.194 934.703 638.512C933.4 641.711 931.682 645.858 929.549 650.953C928.482 646.569 927.179 642.718 925.639 639.4C924.098 636.083 922.439 633.18 920.662 630.691C918.885 628.203 916.989 626.189 914.975 624.648C913.079 622.99 911.183 621.627 909.287 620.561C904.903 618.191 900.282 616.887 895.424 616.65C889.025 617.006 883.99 618.072 880.316 619.85C876.762 621.508 874.155 623.464 872.496 625.715C870.837 627.848 869.949 630.099 869.83 632.469C869.712 634.72 870.008 636.616 870.719 638.156C871.311 639.578 873.385 641.237 876.939 643.133C880.613 645.029 884.997 647.221 890.092 649.709C895.305 652.079 900.874 654.804 906.799 657.885C912.723 660.847 918.174 664.165 923.15 667.838C928.245 671.393 932.511 675.303 935.947 679.568C939.502 683.715 941.457 688.159 941.812 692.898C942.168 698.941 942.109 704.392 941.635 709.25C941.161 714.108 939.502 718.255 936.658 721.691C933.814 725.128 929.371 727.853 923.328 729.867C917.404 731.882 909.169 733.126 898.623 733.6C887.722 734.074 878.776 733.481 871.785 731.822C864.794 730.163 859.107 727.912 854.723 725.068C850.457 722.225 847.258 719.085 845.125 715.648C843.111 712.212 841.63 708.954 840.682 705.873C839.734 702.674 839.082 699.949 838.727 697.697C838.371 695.327 837.779 693.906 836.949 693.432C836.001 692.839 835.053 692.306 834.105 691.832C833.276 691.358 832.387 690.943 831.439 690.588C830.492 690.114 829.544 689.699 828.596 689.344L880.316 680.99C877.354 683.36 875.044 685.552 873.385 687.566C871.844 689.581 870.66 691.358 869.83 692.898C868.882 694.676 868.23 696.335 867.875 697.875C867.638 699.534 868.171 701.607 869.475 704.096C870.778 706.584 872.555 709.013 874.807 711.383C877.176 713.634 879.902 715.53 882.982 717.07C886.063 718.611 889.262 719.262 892.58 719.025C896.727 718.67 900.104 717.663 902.711 716.004C905.318 714.227 907.273 712.035 908.576 709.428C909.998 706.821 910.827 703.977 911.064 700.896C911.301 697.816 911.005 694.794 910.176 691.832C909.465 688.751 908.28 685.908 906.621 683.301C904.962 680.576 903.007 678.324 900.756 676.547C898.742 675.125 895.602 673.762 891.336 672.459C887.189 671.156 882.508 669.734 877.295 668.193C872.2 666.653 866.927 664.876 861.477 662.861C856.145 660.847 851.286 658.359 846.902 655.396C842.637 652.434 839.201 648.939 836.594 644.91C834.105 640.882 833.158 636.023 833.75 630.336C834.224 625.478 835.764 621.449 838.371 618.25C841.096 614.932 844.473 612.326 848.502 610.43C852.649 608.415 857.211 606.934 862.188 605.986C867.283 605.038 872.437 604.505 877.65 604.387C882.982 604.15 888.196 604.209 893.291 604.564C898.505 604.92 903.185 605.335 907.332 605.809C911.479 606.283 914.975 606.757 917.818 607.23C920.781 607.586 922.617 607.823 923.328 607.941C926.409 608.178 929.49 608.119 932.57 607.764C935.296 607.527 938.258 606.993 941.457 606.164C944.775 605.216 947.974 603.794 951.055 601.898Z" fill="#FFCC4B"/>
<path d="M292.904 389.541C296.933 390.015 300.31 390.37 303.035 390.607C305.879 390.726 308.189 390.904 309.967 391.141C312.1 391.378 313.758 391.496 314.943 391.496C316.247 391.615 318.202 391.555 320.809 391.318C323.06 391.081 326.081 390.785 329.873 390.43C333.783 390.074 338.76 389.541 344.803 388.83C342.077 391.2 339.885 393.51 338.227 395.762C336.686 397.895 335.501 399.79 334.672 401.449C333.605 403.464 332.954 405.359 332.717 407.137C332.243 409.98 331.828 413.891 331.473 418.867C331.236 423.725 330.999 429.057 330.762 434.863C330.525 440.669 330.406 446.653 330.406 452.814C330.406 458.976 330.465 464.841 330.584 470.41C330.821 475.861 331.176 480.719 331.65 484.984C332.243 489.25 332.954 492.331 333.783 494.227C334.968 496.359 336.212 498.492 337.516 500.625C338.701 502.402 340.122 504.239 341.781 506.135C343.44 508.031 345.336 509.571 347.469 510.756C340.478 510.4 334.909 510.223 330.762 510.223H324.363C322.467 510.223 320.038 510.341 317.076 510.578C314.588 510.815 311.448 511.052 307.656 511.289C303.865 511.526 299.303 511.882 293.971 512.355C296.696 509.393 298.829 506.549 300.369 503.824C301.91 501.099 303.154 498.729 304.102 496.715C305.168 494.345 305.879 492.094 306.234 489.961C306.708 486.88 307.064 483.089 307.301 478.586C307.656 473.965 307.893 469.048 308.012 463.834C308.13 458.502 308.13 453.111 308.012 447.66C308.012 442.091 307.893 436.759 307.656 431.664C307.419 426.569 307.064 421.948 306.59 417.801C306.234 413.654 305.76 410.336 305.168 407.848C304.812 406.307 304.102 404.589 303.035 402.693C302.087 401.035 300.784 399.139 299.125 397.006C297.585 394.755 295.511 392.266 292.904 389.541ZM448.955 390.607C457.249 390.844 464.122 391.022 469.572 391.141C475.141 391.141 479.644 391.141 483.08 391.141H492.5H545.465C545.702 393.51 545.88 395.821 545.998 398.072C546.235 400.205 546.354 402.101 546.354 403.76C546.354 405.774 546.294 407.611 546.176 409.27C546.057 410.928 545.88 412.706 545.643 414.602C545.406 416.26 545.169 418.038 544.932 419.934C544.695 421.829 544.28 423.785 543.688 425.799C542.029 419.4 539.777 414.542 536.934 411.225C534.208 407.907 531.424 405.478 528.58 403.938C525.262 402.16 521.767 401.212 518.094 401.094C513.236 401.331 509.444 401.745 506.719 402.338C503.993 402.93 501.861 403.76 500.32 404.826C498.78 405.893 497.595 407.137 496.766 408.559C496.055 409.862 495.285 411.343 494.455 413.002C493.744 414.424 493.092 416.616 492.5 419.578C491.908 422.066 491.315 425.443 490.723 429.709C490.249 433.975 489.715 439.484 489.123 446.238C492.322 445.29 494.87 444.402 496.766 443.572C498.78 442.743 500.38 442.032 501.564 441.439C502.868 440.729 503.816 440.077 504.408 439.484C504.882 438.773 505.593 437.47 506.541 435.574C507.252 433.915 508.2 431.664 509.385 428.82C510.688 425.977 512.229 422.066 514.006 417.09C514.243 422.54 514.361 427.102 514.361 430.775C514.361 434.33 514.421 437.233 514.539 439.484C514.539 442.091 514.598 444.165 514.717 445.705V452.459C514.717 454.947 514.717 458.324 514.717 462.59C514.835 466.737 515.013 472.01 515.25 478.408C513.828 474.024 512.525 470.588 511.34 468.1C510.273 465.493 509.326 463.538 508.496 462.234C507.548 460.694 506.719 459.628 506.008 459.035C505.178 458.798 504.053 458.561 502.631 458.324C501.327 458.206 499.669 458.146 497.654 458.146C495.758 458.146 493.329 458.443 490.367 459.035C490.012 465.552 489.952 470.825 490.189 474.854C490.545 478.764 491.019 481.785 491.611 483.918C492.204 486.406 492.915 488.184 493.744 489.25C494.811 490.316 496.943 491.205 500.143 491.916C503.342 492.508 506.956 492.745 510.984 492.627C515.132 492.39 519.338 491.679 523.604 490.494C527.869 489.309 531.661 487.354 534.979 484.629C537.467 482.378 540.133 479.534 542.977 476.098C545.346 473.135 547.953 469.403 550.797 464.9C553.759 460.398 556.662 454.947 559.506 448.549C559.032 453.881 558.676 458.324 558.439 461.879C558.321 465.315 558.143 468.1 557.906 470.232C557.669 472.721 557.492 474.617 557.373 475.92C557.373 477.342 557.195 479.356 556.84 481.963C556.603 484.214 556.188 487.295 555.596 491.205C555.122 494.997 554.47 499.855 553.641 505.779C548.072 505.898 542.799 506.016 537.822 506.135C532.846 506.135 528.462 506.194 524.67 506.312C520.167 506.431 516.02 506.549 512.229 506.668C508.318 506.668 503.993 506.846 499.254 507.201C495.107 507.438 490.189 507.794 484.502 508.268C478.933 508.742 472.771 509.393 466.018 510.223C466.61 502.165 467.025 494.582 467.262 487.473C467.617 480.245 467.854 473.906 467.973 468.455C468.091 462.057 468.091 456.132 467.973 450.682C468.565 437.055 468.328 426.036 467.262 417.623C466.195 409.21 464.951 403.819 463.529 401.449C462.818 400.62 461.811 399.613 460.508 398.428C459.441 397.48 457.96 396.354 456.064 395.051C454.169 393.747 451.799 392.266 448.955 390.607ZM316.188 611.674C322.112 612.029 327.089 612.326 331.117 612.562C335.264 612.681 338.701 612.799 341.426 612.918C344.507 613.036 347.113 613.036 349.246 612.918C351.379 612.799 354.282 612.503 357.955 612.029C361.036 611.674 365.124 611.141 370.219 610.43C375.432 609.6 381.89 608.534 389.592 607.23C386.867 609.956 384.734 612.444 383.193 614.695C381.771 616.828 380.646 618.665 379.816 620.205C378.868 622.101 378.217 623.701 377.861 625.004C377.624 626.189 377.861 629.151 378.572 633.891C379.283 638.63 380.29 644.258 381.594 650.775C382.897 657.174 384.319 664.046 385.859 671.393C387.4 678.62 388.94 685.434 390.48 691.832C392.021 698.112 393.383 703.503 394.568 708.006C395.872 712.39 396.82 714.997 397.412 715.826C399.189 718.314 400.315 719.973 400.789 720.803C401.263 721.514 402.092 722.165 403.277 722.758C403.751 722.995 404.521 723.35 405.588 723.824C406.536 724.298 407.78 724.891 409.32 725.602C410.979 726.312 413.053 727.142 415.541 728.09C410.92 728.327 406.951 728.505 403.633 728.623C400.315 728.623 397.59 728.682 395.457 728.801C392.969 728.919 390.836 729.038 389.059 729.156C387.281 729.156 385.148 729.275 382.66 729.512C380.527 729.749 377.743 729.986 374.307 730.223C370.989 730.46 367.079 730.697 362.576 730.934C364.946 729.275 366.842 727.794 368.264 726.49C369.804 725.068 370.989 723.883 371.818 722.936C372.766 721.751 373.418 720.684 373.773 719.736C374.01 718.67 374.188 717.07 374.307 714.938C374.425 713.042 374.425 710.553 374.307 707.473C374.188 704.273 373.892 700.126 373.418 695.031L326.674 699.83C325.489 701.844 324.6 703.622 324.008 705.162C323.415 706.584 323.001 707.828 322.764 708.895C322.408 710.198 322.29 711.264 322.408 712.094C322.645 713.042 323.06 714.167 323.652 715.471C324.245 716.656 325.074 718.077 326.141 719.736C327.326 721.277 329.044 723.113 331.295 725.246C328.333 725.128 325.311 725.068 322.23 725.068C319.15 725.068 316.306 725.128 313.699 725.246C310.618 725.365 307.597 725.483 304.635 725.602C301.673 725.72 298.296 725.898 294.504 726.135C291.305 726.372 287.572 726.668 283.307 727.023C278.923 727.26 274.242 727.616 269.266 728.09C272.346 726.668 274.953 725.246 277.086 723.824C279.219 722.284 280.996 720.862 282.418 719.559C284.077 718.137 285.499 716.774 286.684 715.471C287.513 714.286 289.172 711.561 291.66 707.295C294.148 702.911 296.933 697.757 300.014 691.832C303.213 685.908 306.531 679.568 309.967 672.814C313.521 666.061 316.721 659.721 319.564 653.797C322.408 647.754 324.719 642.54 326.496 638.156C328.273 633.772 329.162 630.928 329.162 629.625C328.925 628.085 328.333 626.367 327.385 624.471C326.555 622.812 325.252 620.916 323.475 618.783C321.816 616.65 319.387 614.281 316.188 611.674ZM371.285 681.879C370.574 677.732 369.923 674.177 369.33 671.215C368.738 668.134 368.264 665.587 367.908 663.572C367.434 661.202 367.079 659.129 366.842 657.352C366.486 655.693 366.072 653.56 365.598 650.953C365.124 648.702 364.531 645.917 363.82 642.6C363.228 639.163 362.458 635.076 361.51 630.336C354.756 643.844 349.483 654.33 345.691 661.795C342.018 669.141 339.352 674.533 337.693 677.969C335.679 681.997 334.553 684.367 334.316 685.078L371.285 681.879ZM589.365 603.676C596.949 603.557 603.169 604.92 608.027 607.764C613.004 610.607 617.033 613.984 620.113 617.895C623.194 621.805 625.564 625.774 627.223 629.803C628.882 633.713 630.185 636.794 631.133 639.045C631.37 639.637 631.844 640.408 632.555 641.355C633.147 642.185 633.977 643.192 635.043 644.377C636.228 645.443 637.709 646.688 639.486 648.109C635.813 648.228 632.555 648.346 629.711 648.465C626.867 648.465 624.438 648.524 622.424 648.643C620.173 648.761 618.158 648.88 616.381 648.998C614.604 649.117 612.411 649.294 609.805 649.531C607.435 649.768 604.532 650.005 601.096 650.242C597.66 650.479 593.453 650.835 588.477 651.309C591.439 647.754 593.749 644.614 595.408 641.889C597.186 639.045 598.489 636.557 599.318 634.424C600.266 632.173 600.799 630.217 600.918 628.559C601.155 626.9 601.096 625.478 600.74 624.293C600.029 621.568 598.193 619.613 595.23 618.428C586.699 616.058 579.234 617.954 572.836 624.115C566.556 630.158 562.053 640.111 559.328 653.975C558.025 660.847 556.781 668.016 555.596 675.48C554.529 682.827 554.115 689.581 554.352 695.742C554.589 701.785 555.773 706.702 557.906 710.494C560.039 714.286 563.712 716.063 568.926 715.826C574.021 715.589 578.346 714.76 581.9 713.338C585.455 711.798 588.299 710.02 590.432 708.006C592.564 705.873 594.046 703.622 594.875 701.252C595.823 698.764 596.178 696.453 595.941 694.32C595.467 692.661 594.223 690.884 592.209 688.988C590.432 687.329 587.766 685.493 584.211 683.479C580.656 681.346 575.561 679.154 568.926 676.902C575.206 676.547 580.36 676.31 584.389 676.191C588.536 675.954 591.794 675.717 594.164 675.48C597.008 675.243 599.2 675.066 600.74 674.947C602.162 674.829 604.236 674.71 606.961 674.592C609.331 674.473 612.352 674.414 616.025 674.414C619.817 674.414 624.557 674.355 630.244 674.236C628.111 676.369 626.452 678.324 625.268 680.102C624.675 681.049 624.142 681.879 623.668 682.59C623.194 683.775 623.016 686.204 623.135 689.877C623.135 692.958 623.372 697.52 623.846 703.562C624.32 709.487 625.208 717.604 626.512 727.912L602.873 731.111L603.939 707.117C601.214 713.634 597.778 718.492 593.631 721.691C589.602 724.891 585.751 727.142 582.078 728.445C577.694 729.986 573.132 730.697 568.393 730.578C562.231 729.986 556.07 728.564 549.908 726.312C543.747 724.061 538.296 720.625 533.557 716.004C528.817 711.264 525.144 705.162 522.537 697.697C520.049 690.232 519.279 680.99 520.227 669.971C521.293 658.951 523.9 649.354 528.047 641.178C532.312 632.883 537.585 626.011 543.865 620.561C550.145 615.11 557.195 611.022 565.016 608.297C572.954 605.453 581.071 603.913 589.365 603.676ZM736.529 602.254C744.468 603.202 751.34 603.913 757.146 604.387C762.952 604.742 767.751 605.038 771.543 605.275C775.927 605.512 779.6 605.572 782.562 605.453C785.643 605.335 789.85 605.038 795.182 604.564C799.684 604.209 805.609 603.735 812.955 603.143C820.301 602.432 829.484 601.484 840.504 600.299C840.622 603.024 840.682 605.69 840.682 608.297C840.8 610.785 840.919 612.977 841.037 614.873C841.156 617.124 841.215 619.198 841.215 621.094C841.215 623.108 841.096 625.656 840.859 628.736C840.622 631.343 840.208 634.661 839.615 638.689C839.141 642.6 838.371 647.28 837.305 652.73C835.646 646.332 834.046 641.178 832.506 637.268C830.965 633.239 829.544 630.04 828.24 627.67C826.818 624.945 825.396 622.871 823.975 621.449C822.434 620.383 820.598 619.494 818.465 618.783C816.569 618.191 814.14 617.717 811.178 617.361C808.334 617.006 804.957 617.065 801.047 617.539C800.454 633.18 800.04 645.858 799.803 655.574C799.566 665.29 799.388 672.874 799.27 678.324C799.151 684.841 799.092 689.521 799.092 692.365C799.21 696.394 799.862 700.363 801.047 704.273C801.995 707.591 803.535 711.027 805.668 714.582C807.801 718.137 810.882 721.277 814.91 724.002H793.227C791.212 724.002 788.724 724.12 785.762 724.357C783.273 724.594 780.074 724.831 776.164 725.068C772.372 725.305 767.929 725.72 762.834 726.312C764.611 723.232 766.033 720.447 767.1 717.959C768.166 715.471 768.995 713.338 769.588 711.561C770.299 709.428 770.832 707.532 771.188 705.873C771.306 703.503 771.602 698.704 772.076 691.477C772.195 688.514 772.313 684.841 772.432 680.457C772.669 676.073 772.906 670.859 773.143 664.816C773.498 658.773 773.794 651.842 774.031 644.021C774.387 636.083 774.742 627.137 775.098 617.184C772.965 616.591 770.951 616.65 769.055 617.361C767.159 617.954 765.5 618.724 764.078 619.672C762.419 620.857 760.82 622.279 759.279 623.938C757.739 625.952 756.021 628.559 754.125 631.758C752.466 634.483 750.57 638.097 748.438 642.6C746.305 646.984 743.876 652.434 741.15 658.951C740.558 652.079 740.143 646.451 739.906 642.066C739.669 637.564 739.492 634.068 739.373 631.58C739.255 628.618 739.195 626.426 739.195 625.004C739.195 623.701 739.077 621.982 738.84 619.85C738.603 618.072 738.307 615.762 737.951 612.918C737.596 609.956 737.122 606.401 736.529 602.254Z" fill="#FFAA00"/>
<path d="M565.016 524.74H747.016V342.74H565.016V524.74Z" fill="black"/>
</svg>
