<svg width="160.000000" height="64.000000" viewBox="0 0 160 64" fill="none" xmlns="http://www.w3.org/2000/svg" xmlns:xlink="http://www.w3.org/1999/xlink">
	<desc>
			Created with Pixso.
	</desc>
	<defs/>
	<rect id="Favourites" rx="0.000000" width="159.000000" height="63.000000" transform="translate(0.500000 0.500000)" fill="#FFFFFF" fill-opacity="1.000000"/>
	<rect id="Icons/Favourites (Heart Like)" rx="0.000000" width="15.000000" height="15.000000" transform="translate(72.500000 24.500000)" fill="#FFFFFF" fill-opacity="0"/>
	<path id="Vector (Stroke)" d="M81.62 25.63C82.15 25.41 82.72 25.29 83.3 25.29C83.87 25.29 84.44 25.41 84.97 25.63C85.5 25.85 85.98 26.17 86.38 26.57C86.79 26.98 87.11 27.46 87.33 27.99C87.55 28.52 87.66 29.09 87.66 29.66C87.66 30.24 87.55 30.8 87.33 31.33C87.11 31.86 86.79 32.34 86.38 32.75L80.49 38.64C80.22 38.92 79.77 38.92 79.5 38.64L73.61 32.75C72.79 31.93 72.33 30.82 72.33 29.66C72.33 28.5 72.79 27.39 73.61 26.57C74.43 25.75 75.54 25.29 76.7 25.29C77.85 25.29 78.96 25.75 79.78 26.57L80 26.79L80.21 26.57C80.61 26.17 81.09 25.85 81.62 25.63ZM85.39 27.56C85.12 27.29 84.79 27.07 84.43 26.92C84.07 26.77 83.68 26.69 83.3 26.69C82.91 26.69 82.52 26.77 82.16 26.92C81.8 27.07 81.47 27.29 81.2 27.56L80.49 28.27C80.22 28.54 79.77 28.54 79.5 28.27L78.79 27.56C78.24 27.01 77.48 26.69 76.7 26.69C75.91 26.69 75.15 27.01 74.6 27.56C74.04 28.12 73.73 28.87 73.73 29.66C73.73 30.45 74.04 31.2 74.6 31.76L80 37.16L85.39 31.76C85.67 31.48 85.89 31.16 86.04 30.8C86.19 30.44 86.26 30.05 86.26 29.66C86.26 29.27 86.19 28.89 86.04 28.53C85.89 28.17 85.67 27.84 85.39 27.56Z" fill="#313237" fill-opacity="1.000000" fill-rule="evenodd"/>
</svg>
