<svg width="160" height="64" viewBox="0 0 160 64" fill="none" xmlns="http://www.w3.org/2000/svg">
<g filter="url(#filter0_d_15929_5599)">
<rect width="160" height="64" fill="white"/>
<path fill-rule="evenodd" clip-rule="evenodd" d="M81.6285 25.6314C82.1584 25.4118 82.7264 25.2988 83.3 25.2988C83.8737 25.2988 84.4416 25.4118 84.9716 25.6314C85.5015 25.8509 85.983 26.1728 86.3885 26.5785C86.7941 26.9839 87.1158 27.4653 87.3353 27.9951C87.5549 28.525 87.6679 29.093 87.6679 29.6667C87.6679 30.2403 87.5549 30.8083 87.3353 31.3382C87.1158 31.868 86.794 32.3495 86.3884 32.755C86.3883 32.755 86.3884 32.7549 86.3884 32.755L80.495 38.6483C80.2217 38.9217 79.7784 38.9217 79.5051 38.6483L73.6117 32.755C72.7927 31.9359 72.3325 30.825 72.3325 29.6667C72.3325 28.5083 72.7927 27.3974 73.6117 26.5783C74.4308 25.7593 75.5417 25.2991 76.7 25.2991C77.8584 25.2991 78.9693 25.7593 79.7884 26.5783L80 26.79L80.2116 26.5785C80.2116 26.5785 80.2117 26.5784 80.2116 26.5785C80.6171 26.1728 81.0986 25.8509 81.6285 25.6314ZM85.3983 27.5682C85.1228 27.2925 84.7957 27.0739 84.4357 26.9247C84.0756 26.7755 83.6898 26.6988 83.3 26.6988C82.9103 26.6988 82.5245 26.7755 82.1644 26.9247C81.8044 27.0739 81.4773 27.2925 81.2018 27.5682L80.495 28.275C80.2217 28.5483 79.7784 28.5483 79.5051 28.275L78.7984 27.5683C78.2419 27.0118 77.4871 26.6991 76.7 26.6991C75.913 26.6991 75.1582 27.0118 74.6017 27.5683C74.0452 28.1248 73.7325 28.8796 73.7325 29.6667C73.7325 30.4537 74.0452 31.2085 74.6017 31.765L80 37.1634L85.3984 31.765C85.674 31.4895 85.8928 31.1623 86.042 30.8023C86.1911 30.4422 86.2679 30.0564 86.2679 29.6667C86.2679 29.2769 86.1911 28.8911 86.042 28.531C85.8928 28.171 85.6739 27.8437 85.3983 27.5682Z" fill="#313237"/>
</g>
<defs>
<filter id="filter0_d_15929_5599" x="-1" y="0" width="161" height="64" filterUnits="userSpaceOnUse" color-interpolation-filters="sRGB">
<feFlood flood-opacity="0" result="BackgroundImageFix"/>
<feColorMatrix in="SourceAlpha" type="matrix" values="0 0 0 0 0 0 0 0 0 0 0 0 0 0 0 0 0 0 127 0" result="hardAlpha"/>
<feOffset dx="-1"/>
<feColorMatrix type="matrix" values="0 0 0 0 0.196078 0 0 0 0 0.207843 0 0 0 0 0.258824 0 0 0 1 0"/>
<feBlend mode="normal" in2="BackgroundImageFix" result="effect1_dropShadow_15929_5599"/>
<feBlend mode="normal" in="SourceGraphic" in2="effect1_dropShadow_15929_5599" result="shape"/>
</filter>
</defs>
</svg>
