<svg width="32.000000" height="32.000000" viewBox="0 0 32 32" fill="none" xmlns="http://www.w3.org/2000/svg" xmlns:xlink="http://www.w3.org/1999/xlink">
	<desc>
			Created with Pixso.
	</desc>
	<defs/>
	<rect id="Buttons/Slider button - Default (right)" rx="-0.500000" width="31.000000" height="31.000000" transform="translate(0.500000 32.500000) rotate(-90.000000)" fill="#FFFFFF" fill-opacity="0"/>
	<rect id="Rectangle 20" x="0.500000" y="31.500000" rx="15.500000" width="31.000000" height="31.000000" transform="rotate(-90 0.500000 31.500000)" stroke="#B4BDC4" stroke-opacity="1.000000" stroke-width="1.000000"/>
	<rect id="Icons/Chevron (Arrow Right)" rx="-0.500000" width="15.000000" height="15.000000" transform="translate(8.500000 24.500000) rotate(-90.000000)" fill="#FFFFFF" fill-opacity="0"/>
	<path id="Vector (Stroke)" d="M11.52 18.47C11.26 18.21 11.26 17.78 11.52 17.52L15.52 13.52C15.78 13.26 16.21 13.26 16.47 13.52L20.47 17.52C20.73 17.78 20.73 18.21 20.47 18.47C20.21 18.73 19.78 18.73 19.52 18.47L16 14.94L12.47 18.47C12.21 18.73 11.78 18.73 11.52 18.47Z" fill="#0F0F11" fill-opacity="1.000000" fill-rule="evenodd"/>
</svg>
