<svg width="15.335449" height="13.554550" viewBox="0 0 15.3354 13.5546" fill="none" xmlns="http://www.w3.org/2000/svg" xmlns:xlink="http://www.w3.org/1999/xlink">
	<desc>
			Created with Pixso.
	</desc>
	<defs/>
	<path id="Union" d="M10.9675 0C10.3938 0 9.82593 0.113022 9.2959 0.332596C8.76611 0.552139 8.28467 0.874054 7.87915 1.27969L7.66748 1.49127L7.45581 1.27957C6.63672 0.46051 5.52588 0.000350952 4.36743 0.000350952C3.20923 0.000350952 2.09839 0.46051 1.2793 1.27957C0.460205 2.09865 0 3.20955 0 4.36789C0 5.52623 0.460205 6.63712 1.2793 7.45619L7.17261 13.3495C7.4458 13.6229 7.88916 13.6229 8.1626 13.3495L14.0559 7.45619C14.4614 7.0507 14.7832 6.56927 15.0029 6.03941C15.2224 5.50949 15.3354 4.9415 15.3354 4.36789C15.3354 3.79427 15.2224 3.22627 15.0029 2.69637C14.7832 2.16653 14.4614 1.68515 14.0559 1.27969C13.6504 0.873993 13.1689 0.55217 12.6392 0.332596C12.1091 0.113022 11.5413 0 10.9675 0Z" clip-rule="evenodd" fill="#F4BA47" fill-opacity="1.000000" fill-rule="evenodd"/>
</svg>
