<svg width="16.000000" height="16.000000" viewBox="0 0 16 16" fill="none" xmlns="http://www.w3.org/2000/svg" xmlns:xlink="http://www.w3.org/1999/xlink">
	<desc>
			Created with Pixso.
	</desc>
	<defs/>
	<rect id="Icons/Favourites (Heart Like)" rx="-0.500000" width="15.000000" height="15.000000" transform="translate(0.500000 0.500000)" fill="#FFFFFF" fill-opacity="0"/>
	<path id="Vector (Stroke)" d="M9.62 1.63C10.15 1.41 10.72 1.29 11.29 1.29C11.87 1.29 12.44 1.41 12.97 1.63C13.5 1.85 13.98 2.17 14.38 2.57C14.79 2.98 15.11 3.46 15.33 3.99C15.55 4.52 15.66 5.09 15.66 5.66C15.66 6.24 15.55 6.8 15.33 7.33C15.11 7.86 14.79 8.34 14.38 8.75L8.49 14.64C8.22 14.92 7.77 14.92 7.5 14.64L1.61 8.75C0.79 7.93 0.33 6.82 0.33 5.66C0.33 4.5 0.79 3.39 1.61 2.57C2.43 1.75 3.54 1.29 4.69 1.29C5.85 1.29 6.96 1.75 7.78 2.57L8 2.79L8.21 2.57C8.61 2.17 9.09 1.85 9.62 1.63ZM13.39 3.56C13.12 3.29 12.79 3.07 12.43 2.92C12.07 2.77 11.68 2.69 11.29 2.69C10.91 2.69 10.52 2.77 10.16 2.92C9.8 3.07 9.47 3.29 9.2 3.56L8.49 4.27C8.22 4.54 7.77 4.54 7.5 4.27L6.79 3.56C6.24 3.01 5.48 2.69 4.69 2.69C3.91 2.69 3.15 3.01 2.6 3.56C2.04 4.12 1.73 4.87 1.73 5.66C1.73 6.45 2.04 7.2 2.6 7.76L8 13.16L13.39 7.76C13.67 7.48 13.89 7.16 14.04 6.8C14.19 6.44 14.26 6.05 14.26 5.66C14.26 5.27 14.19 4.89 14.04 4.53C13.89 4.17 13.67 3.84 13.39 3.56Z" fill="#0F0F11" fill-opacity="1.000000" fill-rule="evenodd"/>
</svg>
