<svg aria-hidden="true" style="position: absolute; width: 0; height: 0; overflow: hidden;" version="1.1" xmlns="http://www.w3.org/2000/svg" xmlns:xlink="http://www.w3.org/1999/xlink">
<defs>
<symbol id="icon-home" viewBox="0 0 32 32">
<path d="M15.182 1.614c0.481-0.374 1.156-0.374 1.637 0l12 9.333c0.325 0.253 0.515 0.641 0.515 1.052v14.667c0 1.061-0.421 2.078-1.172 2.828s-1.767 1.172-2.828 1.172h-18.667c-1.061 0-2.078-0.421-2.828-1.172s-1.172-1.767-1.172-2.828v-14.667c0-0.411 0.19-0.8 0.515-1.052l12-9.333zM5.334 12.652v14.014c0 0.354 0.14 0.693 0.391 0.943s0.589 0.391 0.943 0.391h18.667c0.354 0 0.693-0.14 0.943-0.391s0.391-0.589 0.391-0.943v-14.014l-10.667-8.296-10.667 8.296z"></path>
<path d="M10.667 16c0-0.736 0.597-1.333 1.333-1.333h8c0.736 0 1.333 0.597 1.333 1.333v13.333c0 0.736-0.597 1.333-1.333 1.333s-1.333-0.597-1.333-1.333v-12h-5.333v12c0 0.736-0.597 1.333-1.333 1.333s-1.333-0.597-1.333-1.333v-13.333z"></path>
</symbol>
<symbol id="icon-search" viewBox="0 0 32 32">
<path d="M3.81 14.476c0 5.891 4.776 10.667 10.667 10.667 2.874 0 5.482-1.136 7.4-2.984 0.040-0.052 0.084-0.102 0.132-0.15s0.098-0.092 0.15-0.132c1.848-1.918 2.985-4.526 2.985-7.4 0-5.891-4.776-10.667-10.667-10.667s-10.667 4.776-10.667 10.667zM23.037 25.192c-2.346 1.877-5.322 2.999-8.56 2.999-7.574 0-13.714-6.14-13.714-13.714s6.14-13.714 13.714-13.714c7.574 0 13.714 6.14 13.714 13.714 0 3.238-1.122 6.214-2.999 8.56l5.6 5.6c0.595 0.595 0.595 1.56 0 2.155s-1.56 0.595-2.155 0l-5.6-5.6z"></path>
</symbol>
<symbol id="icon-menu" viewBox="0 0 45 32">
<path d="M0 4.8c0-1.325 1.254-2.4 2.8-2.4h39.2c1.546 0 2.8 1.075 2.8 2.4s-1.254 2.4-2.8 2.4h-39.2c-1.546 0-2.8-1.075-2.8-2.4z"></path>
<path d="M0 16c0-1.325 1.254-2.4 2.8-2.4h39.2c1.546 0 2.8 1.075 2.8 2.4s-1.254 2.4-2.8 2.4h-39.2c-1.546 0-2.8-1.075-2.8-2.4z"></path>
<path d="M2.8 24.8c-1.546 0-2.8 1.075-2.8 2.4s1.254 2.4 2.8 2.4h39.2c1.546 0 2.8-1.075 2.8-2.4s-1.254-2.4-2.8-2.4h-39.2z"></path>
</symbol>
<symbol id="icon-close" viewBox="0 0 32 32">
<path d="M30.309 4.708c0.833-0.833 0.833-2.184 0-3.017s-2.184-0.833-3.017 0l-11.292 11.292-11.291-11.292c-0.833-0.833-2.184-0.833-3.017 0s-0.833 2.184 0 3.017l11.291 11.291-11.291 11.292c-0.833 0.833-0.833 2.184 0 3.017s2.184 0.833 3.017 0l11.291-11.292 11.292 11.292c0.833 0.833 2.184 0.833 3.017 0s0.833-2.184 0-3.017l-11.292-11.292 11.292-11.291z"></path>
</symbol>
<symbol id="icon-shopping-bag" viewBox="0 0 32 32">
<path d="M6.934 1.867c0.252-0.336 0.647-0.533 1.067-0.533h16c0.42 0 0.815 0.198 1.067 0.533l4 5.333c0.173 0.231 0.267 0.511 0.267 0.8v18.667c0 1.061-0.421 2.078-1.172 2.828s-1.767 1.172-2.828 1.172h-18.667c-1.061 0-2.078-0.421-2.828-1.172s-1.172-1.767-1.172-2.828v-18.667c0-0.288 0.094-0.569 0.267-0.8l4-5.333zM8.667 4l-3.333 4.444v18.222c0 0.354 0.14 0.693 0.391 0.943s0.589 0.391 0.943 0.391h18.667c0.354 0 0.693-0.14 0.943-0.391s0.391-0.589 0.391-0.943v-18.222l-3.333-4.444h-14.667z"></path>
<path d="M2.667 8c0-0.736 0.597-1.333 1.333-1.333h24c0.736 0 1.333 0.597 1.333 1.333s-0.597 1.333-1.333 1.333h-24c-0.736 0-1.333-0.597-1.333-1.333z"></path>
<path d="M10.667 12c0.736 0 1.333 0.597 1.333 1.333 0 1.061 0.421 2.078 1.172 2.828s1.768 1.172 2.828 1.172c1.061 0 2.078-0.421 2.828-1.172s1.172-1.768 1.172-2.828c0-0.736 0.597-1.333 1.333-1.333s1.333 0.597 1.333 1.333c0 1.768-0.702 3.464-1.953 4.714s-2.946 1.953-4.714 1.953-3.464-0.702-4.714-1.953c-1.25-1.25-1.953-2.946-1.953-4.714 0-0.736 0.597-1.333 1.333-1.333z"></path>
</symbol>
<symbol id="icon-shopping-bag-full" viewBox="0 0 32 32">
<path d="M10.819 7.924c0.144-0.192 0.37-0.305 0.61-0.305h9.143c0.24 0 0.466 0.113 0.61 0.305l2.286 3.048c0.099 0.132 0.152 0.292 0.152 0.457v10.667c0 0.606-0.241 1.188-0.669 1.616s-1.010 0.669-1.616 0.669h-10.667c-0.606 0-1.188-0.241-1.616-0.669s-0.669-1.010-0.669-1.616v-10.667c0-0.165 0.053-0.325 0.152-0.457l2.286-3.048zM11.81 9.143l-1.905 2.54v10.413c0 0.202 0.080 0.396 0.223 0.539s0.337 0.223 0.539 0.223h10.667c0.202 0 0.396-0.080 0.539-0.223s0.223-0.337 0.223-0.539v-10.413l-1.905-2.54h-8.381z"></path>
<path d="M8.381 11.429c0-0.421 0.341-0.762 0.762-0.762h13.714c0.421 0 0.762 0.341 0.762 0.762s-0.341 0.762-0.762 0.762h-13.714c-0.421 0-0.762-0.341-0.762-0.762z"></path>
<path d="M12.953 13.714c0.421 0 0.762 0.341 0.762 0.762 0 0.606 0.241 1.188 0.669 1.616s1.010 0.669 1.616 0.669c0.606 0 1.188-0.241 1.616-0.669s0.669-1.010 0.669-1.616c0-0.421 0.341-0.762 0.762-0.762s0.762 0.341 0.762 0.762c0 1.010-0.401 1.979-1.116 2.694s-1.683 1.116-2.694 1.116c-1.010 0-1.979-0.401-2.694-1.116s-1.116-1.683-1.116-2.694c0-0.421 0.341-0.762 0.762-0.762z"></path>
<path fill="#eb5757" style="fill: var(--color1, #eb5757); stroke: var(--color3, #0f1121)" stroke="#0f1121" stroke-linejoin="miter" stroke-linecap="butt" stroke-miterlimit="4" stroke-width="1.1429" d="M31.429 8c0 4.103-3.326 7.429-7.429 7.429s-7.429-3.326-7.429-7.429c0-4.103 3.326-7.429 7.429-7.429s7.429 3.326 7.429 7.429z"></path>
<path d="M19.773 4.97v1.008h1.214v5.832h1.090v-6.84h-2.304zM25.49 10.76c1.995-2.232 2.345-2.962 2.345-3.867 0-1.203-0.885-2.047-2.15-2.047-1.306 0-2.181 0.833-2.181 2.057v0.165h1.111v-0.154c0-0.607 0.432-1.018 1.070-1.018 0.617 0 1.029 0.401 1.029 1.008 0 0.782-0.36 1.347-3.353 4.608v0.298h4.68v-1.049h-2.551z"></path>
</symbol>
<symbol id="icon-favourites" viewBox="0 0 32 32">
<path d="M19.257 3.263c1.060-0.439 2.196-0.665 3.343-0.665s2.283 0.226 3.343 0.665c1.060 0.439 2.023 1.083 2.834 1.894s1.455 1.774 1.894 2.833c0.439 1.060 0.665 2.196 0.665 3.343s-0.226 2.283-0.665 3.343c-0.439 1.060-1.083 2.023-1.894 2.834-0 0 0-0 0 0l-11.787 11.787c-0.547 0.547-1.433 0.547-1.98 0l-11.787-11.787c-1.638-1.638-2.558-3.86-2.558-6.177s0.92-4.538 2.558-6.177c1.638-1.638 3.86-2.558 6.177-2.558s4.538 0.92 6.177 2.558l0.423 0.423 0.423-0.423c-0 0 0-0 0 0 0.811-0.811 1.774-1.455 2.834-1.894zM26.797 7.136c-0.551-0.551-1.205-0.989-1.925-1.287s-1.492-0.452-2.271-0.452c-0.779 0-1.551 0.154-2.271 0.452s-1.374 0.736-1.925 1.287l-1.414 1.414c-0.547 0.547-1.433 0.547-1.98 0l-1.413-1.413c-1.113-1.113-2.623-1.738-4.197-1.738s-3.084 0.625-4.197 1.738c-1.113 1.113-1.738 2.623-1.738 4.197s0.625 3.084 1.738 4.197l10.797 10.797 10.797-10.797c0.551-0.551 0.989-1.205 1.287-1.925s0.452-1.492 0.452-2.271-0.154-1.551-0.452-2.271c-0.298-0.72-0.736-1.375-1.287-1.926z"></path>
</symbol>
<symbol id="icon-favourites-number" viewBox="0 0 32 32">
<path d="M17.861 8.722c0.606-0.251 1.255-0.38 1.91-0.38s1.305 0.129 1.91 0.38c0.606 0.251 1.156 0.619 1.619 1.082s0.831 1.014 1.082 1.619c0.251 0.606 0.38 1.255 0.38 1.91s-0.129 1.305-0.38 1.91c-0.251 0.606-0.619 1.156-1.082 1.619-0 0 0-0 0 0l-6.735 6.735c-0.312 0.312-0.819 0.312-1.131 0l-6.735-6.735c-0.936-0.936-1.462-2.206-1.462-3.53s0.526-2.593 1.462-3.53 2.206-1.462 3.529-1.462c1.324 0 2.594 0.526 3.53 1.462l0.242 0.242 0.242-0.242c0 0 0-0 0 0 0.463-0.464 1.014-0.832 1.619-1.082zM22.169 10.935c-0.315-0.315-0.689-0.565-1.1-0.735s-0.852-0.258-1.298-0.258c-0.445 0-0.886 0.088-1.298 0.258s-0.785 0.42-1.1 0.735l-0.808 0.808c-0.312 0.312-0.819 0.312-1.131 0l-0.808-0.808c-0.636-0.636-1.499-0.993-2.398-0.993s-1.762 0.357-2.398 0.993c-0.636 0.636-0.993 1.499-0.993 2.398s0.357 1.762 0.993 2.398l6.17 6.17 6.17-6.17c0.315-0.315 0.565-0.689 0.736-1.1s0.258-0.852 0.258-1.298-0.088-0.886-0.258-1.298c-0.171-0.411-0.421-0.786-0.736-1.1z"></path>
<path fill="#eb5757" style="fill: var(--color2, #eb5757); stroke: var(--color3, #0f1121)" stroke="#0f1121" stroke-linejoin="miter" stroke-linecap="butt" stroke-miterlimit="4" stroke-width="1.1429" d="M31.429 8c0 4.103-3.326 7.429-7.429 7.429s-7.429-3.326-7.429-7.429c0-4.103 3.326-7.429 7.429-7.429s7.429 3.326 7.429 7.429z"></path>
<path d="M19.773 4.97v1.008h1.214v5.832h1.090v-6.84h-2.304zM25.49 10.76c1.995-2.232 2.345-2.962 2.345-3.867 0-1.203-0.885-2.047-2.15-2.047-1.306 0-2.181 0.833-2.181 2.057v0.165h1.111v-0.154c0-0.607 0.432-1.018 1.070-1.018 0.617 0 1.029 0.401 1.029 1.008 0 0.782-0.36 1.347-3.353 4.608v0.298h4.68v-1.049h-2.551z"></path>
</symbol>
<symbol id="icon-favourites-filled" viewBox="0 0 32 32">
<path d="M22.6 2.598c-1.147 0-2.283 0.226-3.343 0.665s-2.023 1.083-2.834 1.894l-0.423 0.423-0.423-0.423c-1.638-1.638-3.86-2.558-6.177-2.558s-4.538 0.92-6.177 2.558c-1.638 1.638-2.558 3.86-2.558 6.177s0.92 4.538 2.558 6.177l11.787 11.787c0.547 0.547 1.433 0.547 1.98 0l11.787-11.787c0.811-0.811 1.455-1.774 1.894-2.834s0.665-2.196 0.665-3.343-0.226-2.283-0.665-3.343c-0.439-1.060-1.082-2.022-1.894-2.833s-1.774-1.455-2.834-1.894c-1.060-0.439-2.196-0.665-3.343-0.665z"></path>
</symbol>
<symbol id="icon-minus" viewBox="0 0 192 32">
<path d="M10.664 16c0-5.891 4.776-10.667 10.667-10.667h149.333c5.891 0 10.667 4.776 10.667 10.667s-4.776 10.667-10.667 10.667h-149.333c-5.891 0-10.667-4.776-10.667-10.667z"></path>
</symbol>
<symbol id="icon-plus" viewBox="0 0 32 32">
<path d="M17.777 3.556c0-0.982-0.796-1.778-1.778-1.778s-1.778 0.796-1.778 1.778v10.667h-10.667c-0.982 0-1.778 0.796-1.778 1.778s0.796 1.778 1.778 1.778h10.667v10.667c0 0.982 0.796 1.778 1.778 1.778s1.778-0.796 1.778-1.778v-10.667h10.667c0.982 0 1.778-0.796 1.778-1.778s-0.796-1.778-1.778-1.778h-10.667v-10.667z"></path>
</symbol>
<symbol id="icon-arrow-left" viewBox="0 0 19 32">
<path d="M17.509 1.692c-0.833-0.833-2.184-0.833-3.017 0l-12.8 12.8c-0.833 0.833-0.833 2.184 0 3.017l12.8 12.8c0.833 0.833 2.184 0.833 3.017 0s0.833-2.184 0-3.017l-11.292-11.292 11.292-11.292c0.833-0.833 0.833-2.184 0-3.017z"></path>
</symbol>
<symbol id="icon-arrow-right" viewBox="0 0 19 32">
<path d="M1.692 1.692c0.833-0.833 2.184-0.833 3.017 0l12.8 12.8c0.833 0.833 0.833 2.184 0 3.017l-12.8 12.8c-0.833 0.833-2.184 0.833-3.017 0s-0.833-2.184 0-3.017l11.291-11.292-11.291-11.292c-0.833-0.833-0.833-2.184 0-3.017z"></path>
</symbol>
<symbol id="icon-arrow-down" viewBox="0 0 53 32">
<path d="M50.515 2.819c1.389 1.389 1.389 3.64 0 5.028l-21.333 21.333c-1.389 1.389-3.64 1.389-5.028 0l-21.333-21.333c-1.389-1.389-1.389-3.64 0-5.028s3.64-1.389 5.028 0l18.819 18.819 18.819-18.819c1.389-1.389 3.64-1.389 5.028 0z"></path>
</symbol>
<symbol id="icon-arrow-up" viewBox="0 0 53 32">
<path d="M2.82 29.181c-1.389-1.389-1.389-3.64 0-5.028l21.333-21.333c1.389-1.389 3.64-1.389 5.028 0l21.333 21.333c1.389 1.389 1.389 3.64 0 5.028s-3.64 1.388-5.028-0l-18.819-18.819-18.819 18.819c-1.389 1.389-3.64 1.389-5.028 0z"></path>
</symbol>
</defs>
</svg>
