<svg width="16.000000" height="16.000000" viewBox="0 0 16 16" fill="none" xmlns="http://www.w3.org/2000/svg" xmlns:xlink="http://www.w3.org/1999/xlink">
	<desc>
			Created with Pixso.
	</desc>
	<defs/>
	<rect id="Icons/Plus" rx="-0.500000" width="15.000000" height="15.000000" transform="translate(0.500000 0.500000)" fill="#FFFFFF" fill-opacity="0"/>
	<path id="Union" d="M8.6665 3.33334C8.6665 2.96515 8.36792 2.66667 7.99976 2.66667C7.63159 2.66667 7.33325 2.96515 7.33325 3.33334L7.33325 7.33334L3.33325 7.33334C2.96509 7.33334 2.6665 7.63182 2.6665 8C2.6665 8.36819 2.96509 8.66667 3.33325 8.66667L7.33325 8.66667L7.33325 12.6667C7.33325 13.0349 7.63159 13.3333 7.99976 13.3333C8.36792 13.3333 8.6665 13.0349 8.6665 12.6667L8.6665 8.66667L12.6665 8.66667C13.0347 8.66667 13.3333 8.36819 13.3333 8C13.3333 7.63182 13.0347 7.33334 12.6665 7.33334L8.6665 7.33334L8.6665 3.33334Z" clip-rule="evenodd" fill="#0F0F11" fill-opacity="1.000000" fill-rule="evenodd"/>
</svg>
