<svg class="svg-icon" style="width: 1em; height: 1em;vertical-align: middle;fill: currentColor;overflow: hidden;" viewBox="0 0 1024 1024" version="1.1" xmlns="http://www.w3.org/2000/svg"><path d="M603.6 273.9c19.4-19.4 33.8-40.6 43-63.7 8.8-22.6 13.4-43.9 13.4-62.8 0-3.2-0.5-6-0.5-9.2-0.5-2.8-1.4-6-2.3-10.2-53.6 12.5-92.3 35.1-115.4 68.4-23.1 33.2-35.1 72.9-36 118.6 21.7-1.9 37.4-4.6 48-7.9 16.5-5.6 33.2-16.6 49.8-33.2z" fill="#282828" /><path d="M760.5 630.6c-21.2-30.4-31.8-65.1-31.8-102.9 0-35.1 10.2-66.9 30-95.5 11.1-16.1 28.6-34.2 52.6-54.4-15.7-19.4-31.9-35.1-48-46.2-28.6-19.8-61.3-30-98.3-30-22.6 0-49.4 5.6-79.8 15.7-30.5 10.6-52.6 15.7-66 15.7-10.7 0-31.9-4.6-63.7-13.9-32.3-9.2-59.1-13.8-81.7-13.8-53.1 0-96.5 22.2-131.1 66.5-34.6 44.8-52.1 102-52.1 172.6 0 75.7 23.1 152.7 67.8 232.2C304 855.8 349.8 896 397.3 896c15.2 0 35.6-5.1 60.9-15.7 25-10.1 47.1-15.2 65.6-15.2 18.9 0 42.4 4.6 69.7 14.8 27.7 9.7 48.9 14.8 64.6 14.8 39.2 0 78.9-30 118.6-90.5 26.7-40.2 45.2-78.9 56.7-115.4-27.1-8.3-51.6-27.7-72.9-58.2z m-21.6 148.8c-29.7 45.2-58.4 70.1-80.9 70.1-6.6 0-20.7-2.1-48.8-11.9-31.3-11.7-60.1-17.6-85.5-17.6-24.4 0-52.2 6.2-83 18.8-26.2 11-39.1 12.2-43.4 12.2-28.4 0-63.8-34.4-99.6-96.5-41.7-74-62-142.7-62-210 0-60.4 14-107.8 42.6-144.8 26.2-33.5 56.5-49.1 95.5-49.1 18.1 0 40.8 4 69.1 12.1 47.5 13.8 65.2 15.6 76.3 15.6 19.2 0 45.6-6 80.3-18 26.6-8.9 48.7-13.4 65.5-13.4 27.5 0 51.3 7.2 72.7 22.1 3 2.1 6.1 4.4 9.2 7-10.3 10.7-18.7 20.8-25.4 30.6-25.3 36.4-38.1 77.2-38.1 121.3 0 47.3 13.4 90.6 39.9 128.8 16 22.8 33.8 41 53.4 54.5-9.8 22.3-22.5 45.2-37.8 68.2z" fill="#282828" /></svg>