<svg xmlns="http://www.w3.org/2000/svg" version="1.1" xmlns:xlink="http://www.w3.org/1999/xlink" xmlns:svgjs="http://svgjs.dev/svgjs" width="2000" height="1999" viewBox="0 0 2000 1999"><g transform="matrix(1,0,0,1,-0.431486880466764,-0.4312711370263287)"><svg viewBox="0 0 343 343" data-background-color="#111111" preserveAspectRatio="xMidYMid meet" height="1999" width="2000" xmlns="http://www.w3.org/2000/svg" xmlns:xlink="http://www.w3.org/1999/xlink"><g id="tight-bounds" transform="matrix(1,0,0,1,0.0740000000000407,0.07400000000001228)"><svg viewBox="0 0 342.85155851775386 342.85155851775386" height="342.85155851775386" width="342.85155851775386"><g><svg></svg></g><g><svg viewBox="0 0 342.85155851775386 342.85155851775386" height="342.85155851775386" width="342.85155851775386"><g><path d="M0 171.426c0-94.676 76.75-171.426 171.426-171.426 94.676 0 171.426 76.75 171.426 171.426 0 94.676-76.75 171.426-171.426 171.426-94.676 0-171.426-76.75-171.426-171.426zM171.426 336.315c91.066 0 164.889-73.823 164.889-164.889 0-91.066-73.823-164.889-164.889-164.889-91.066 0-164.889 73.823-164.889 164.889 0 91.066 73.823 164.889 164.889 164.889z" data-fill-palette-color="tertiary" fill="#000000" stroke="transparent"></path><ellipse rx="164.56874808852186" ry="164.56874808852186" cx="171.42577925887693" cy="171.42577925887693" fill="#000000" stroke="transparent" stroke-width="0" fill-opacity="1" data-fill-palette-color="tertiary"></ellipse></g><g transform="matrix(1,0,0,1,64.84655864529837,135.18409564894668)"><svg viewBox="0 0 213.1584412271571 72.4833672198605" height="72.4833672198605" width="213.1584412271571"><g><svg viewBox="0 0 213.1584412271571 72.4833672198605" height="72.4833672198605" width="213.1584412271571"><g><svg viewBox="0 0 213.1584412271571 72.4833672198605" height="72.4833672198605" width="213.1584412271571"><g id="textblocktransform"><svg viewBox="0 0 213.1584412271571 72.4833672198605" height="72.4833672198605" width="213.1584412271571" id="textblock"><g><svg viewBox="0 0 213.1584412271571 72.4833672198605" height="72.4833672198605" width="213.1584412271571"><g transform="matrix(1,0,0,1,0,0)"><svg width="213.1584412271571" viewBox="4 -40.05 118.94499945919999 40.449999999999996" height="72.4833672198605" data-palette-color="#111111"><path d="M26.15-10.5L26.15-37.55Q26.15-39.95 29.1-39.95L29.1-39.95Q32.05-39.95 32.05-37.55L32.05-37.55 32.05-3.05Q32.05-1.3 30.2-0.5L30.2-0.5 30.25-0.5Q29.45-0.15 28.55 0.05 27.65 0.25 26.8 0.25L26.8 0.25Q26.15 0.25 25.45 0.13 24.75 0 24.13-0.28 23.5-0.55 22.98-1.03 22.45-1.5 22.15-2.2L22.15-2.2 11.3-29.25 9.95-29.1 9.95-2.1Q9.95 0.3 6.95 0.3L6.95 0.3Q4 0.3 4-2.1L4-2.1 4-36.55Q4-38.6 5.8-39.3L5.8-39.3Q7.45-39.95 9.3-39.95L9.3-39.95Q10.6-39.95 11.93-39.43 13.25-38.9 13.95-37.45L13.95-37.45 24.75-10.35 26.15-10.5ZM61 0.05L42.7 0.05Q40.85 0.05 40.2-0.9 39.55-1.85 39.55-3L39.55-3 39.55-36.7Q39.55-37.85 40.2-38.78 40.85-39.7 42.7-39.7L42.7-39.7 60.1-39.7Q61.95-39.7 62.05-37.2L62.05-37.2Q62.15-34.65 60.1-34.65L60.1-34.65 45.45-34.65 45.45-5 61-5Q62.85-5 62.9-2.55L62.9-2.55Q63 0.05 61 0.05L61 0.05ZM58.25-20.65L58.25-20.65Q58.25-18.9 57.02-17.7 55.8-16.5 54.05-16.5L54.05-16.5Q52.35-16.5 51.15-17.7 49.95-18.9 49.95-20.65L49.95-20.65Q49.95-22.4 51.15-23.6 52.35-24.8 54.05-24.8L54.05-24.8Q55.8-24.8 57.02-23.6 58.25-22.4 58.25-20.65ZM80-24L88.75-38.8Q89.15-39.35 89.57-39.7 90-40.05 90.7-40.05L90.7-40.05Q91.4-40.05 92.3-39.6L92.3-39.6Q94.2-38.7 94.2-37.3L94.2-37.3Q94.2-36.95 94.12-36.58 94.05-36.2 93.84-35.95L93.84-35.95 93.84-36 84.2-19.6 93.59-3.7Q93.84-3.1 93.84-2.5L93.84-2.5Q93.84-1.05 92.25-0.2L92.25-0.2Q91.05 0.4 90.25 0.4L90.25 0.4Q89.25 0.4 88.45-0.75L88.45-0.75 79.84-15.3Q78.9-13.65 77.8-11.8 76.7-9.95 75.57-8.03 74.45-6.1 73.32-4.25 72.2-2.4 71.25-0.75L71.25-0.75Q70.84-0.2 70.45 0.1 70.05 0.4 69.45 0.4L69.45 0.4Q68.59 0.4 67.5-0.2L67.5-0.2Q65.8-1.15 65.8-2.5L65.8-2.5Q65.8-2.85 65.89-3.13 66-3.4 66.14-3.75L66.14-3.75 66.14-3.7Q68.45-7.65 70.87-11.7 73.3-15.75 75.65-19.75L75.65-19.75 66.09-36Q65.95-36.3 65.8-36.7 65.64-37.1 65.64-37.35L65.64-37.35Q65.64-38.7 67.64-39.6L67.64-39.6Q68.45-40.05 69.25-40.05L69.25-40.05Q69.89-40.05 70.34-39.7 70.8-39.35 71.2-38.8L71.2-38.8 80-24ZM112.39-34.65L112.39-2Q112.39 0.4 109.39 0.4L109.39 0.4Q106.44 0.4 106.44-2L106.44-2 106.44-34.65 97.69-34.65Q95.89-34.65 95.79-37.2L95.79-37.2Q95.79-39.7 97.69-39.7L97.69-39.7 121.14-39.7Q123.04-39.7 122.94-37.2L122.94-37.2Q122.94-34.65 121.14-34.65L121.14-34.65 112.39-34.65Z" opacity="1" transform="matrix(1,0,0,1,0,0)" fill="#ffffff" class="wordmark-text-0" data-fill-palette-color="quaternary" id="text-0"></path></svg></g></svg></g></svg></g></svg></g></svg></g></svg></g></svg></g><defs></defs></svg><rect width="342.85155851775386" height="342.85155851775386" fill="none" stroke="none" visibility="hidden"></rect></g></svg></g></svg>