<svg width="14.000000" height="8.500000" viewBox="0 0 14 8.5" fill="none" xmlns="http://www.w3.org/2000/svg" xmlns:xlink="http://www.w3.org/1999/xlink">
	<desc>
			Created with Pixso.
	</desc>
	<defs/>
	<path id="Union" d="M0 0.75C0 0.33 0.39 0 0.87 0L13.12 0C13.6 0 14 0.33 14 0.75C14 1.16 13.6 1.5 13.12 1.5L0.87 1.5C0.39 1.5 0 1.16 0 0.75ZM0 4.25C0 3.83 0.39 3.5 0.87 3.5L13.12 3.5C13.6 3.5 14 3.83 14 4.25C14 4.66 13.6 5 13.12 5L0.87 5C0.39 5 0 4.66 0 4.25ZM0 7.75C0 7.33 0.39 7 0.87 7L13.12 7C13.6 7 14 7.33 14 7.75C14 8.16 13.6 8.5 13.12 8.5L0.87 8.5C0.39 8.5 0 8.16 0 7.75Z" fill="#0F0F11" fill-opacity="1.000000" fill-rule="evenodd"/>
</svg>
