<?xml version="1.0" encoding="UTF-8"?>
<!-- Uploaded to: SVG Find, www.svgfind.com, Generator: SVG Find Mixer Tools -->
<svg fill="#000000" width="800px" height="800px" version="1.1" viewBox="144 144 512 512" xmlns="http://www.w3.org/2000/svg">
 <path d="m442.33 190c-92.34 0-167.65 75.309-167.65 167.65 0 38.641 13.32 74.176 35.426 102.58l-113.94 113.94c-3.9336 3.9375-6.1445 9.2773-6.1445 14.844 0 5.5664 2.2109 10.906 6.1445 14.844 3.9375 3.9336 9.2773 6.1445 14.844 6.1445 5.5664 0 10.906-2.2109 14.84-6.1445l113.94-113.94c28.398 22.082 63.922 35.383 102.54 35.383 92.34 0 167.65-75.309 167.65-167.65s-75.309-167.65-167.65-167.65zm0 41.984c69.652 0 125.66 56.016 125.66 125.66 0 69.652-56.016 125.66-125.66 125.66-69.652 0-125.66-56.016-125.66-125.66 0-69.652 56.016-125.66 125.66-125.66z"/>
</svg>