<svg version="1.1" xmlns="http://www.w3.org/2000/svg" xmlns:xlink="http://www.w3.org/1999/xlink" width="14" height="15" viewBox="0 0 14 15">
<g id="user_icon">
<path id="user_icon" d="M13.320,12.255 C13.320,10.238 12.847,7.140 10.231,7.140 C9.955,7.140 8.785,8.381 7.036,8.381 C5.286,8.381 4.117,7.140 3.840,7.140 C1.224,7.140 0.751,10.238 0.751,12.255 C0.751,13.701 1.715,14.567 3.135,14.567 C3.135,14.567 10.936,14.567 10.936,14.567 C12.356,14.567 13.320,13.701 13.320,12.255 zM10.463,4.284 C10.463,2.391 8.928,0.856 7.036,0.856 C5.143,0.856 3.608,2.391 3.608,4.284 C3.608,6.176 5.143,7.712 7.036,7.712 C8.928,7.712 10.463,6.176 10.463,4.284 z" fill="#999999" />
</g>
</svg>
