<?xml version="1.0" encoding="iso-8859-1"?>
<!-- Uploaded to: SVG Repo, www.svgrepo.com, Generator: SVG Repo Mixer Tools -->
<svg version="1.1" id="Capa_1" xmlns="http://www.w3.org/2000/svg" xmlns:xlink="http://www.w3.org/1999/xlink" 
	 viewBox="0 0 454.58 454.58" xml:space="preserve">
<g>
	<g id="XMLID_70_">
		<g>
			<path style="fill:#95EFEF;" d="M325.665,79.19v281.07h-196.75V79.19H325.665z M289.885,199.16c0-9.38-3.58-18.76-10.74-25.92
				c-7.16-7.16-16.54-10.74-25.93-10.74c-9.38,0-18.76,3.58-25.92,10.74c-14.32-14.32-37.54-14.32-51.85,0
				c-7.16,7.16-10.74,16.54-10.74,25.92c0,9.39,3.58,18.77,10.74,25.93l51.85,51.85l51.85-51.85
				C286.305,217.93,289.885,208.55,289.885,199.16z"/>
			<path style="fill:#F297D6;" d="M227.295,384.58c8.83,0,16,7.16,16,16c0,8.84-7.17,16-16,16c-8.84,0-16-7.16-16-16
				C211.295,391.74,218.455,384.58,227.295,384.58z"/>
			<path style="fill:#7EE085;" d="M357.015,42.95v368.69c0,18.19-14.75,32.94-32.94,32.94h-193.56c-18.2,0-32.95-14.75-32.95-32.94
				V42.95c0-18.2,14.75-32.95,32.95-32.95h193.56C342.265,10,357.015,24.75,357.015,42.95z M325.665,360.26V79.19h-196.75v281.07
				H325.665z M243.295,400.58c0-8.84-7.17-16-16-16c-8.84,0-16,7.16-16,16c0,8.84,7.16,16,16,16
				C236.125,416.58,243.295,409.42,243.295,400.58z"/>
			<path style="fill:#F297D6;" d="M279.145,173.24c7.16,7.16,10.74,16.54,10.74,25.92c0,9.39-3.58,18.77-10.74,25.93l-51.85,51.85
				l-51.85-51.85c-7.16-7.16-10.74-16.54-10.74-25.93c0-9.38,3.58-18.76,10.74-25.92c14.31-14.32,37.53-14.32,51.85,0
				c7.16-7.16,16.54-10.74,25.92-10.74C262.605,162.5,271.985,166.08,279.145,173.24z"/>
		</g>
		<g>
			<path style="fill:none;stroke:#000000;stroke-width:20;stroke-linejoin:round;stroke-miterlimit:10;" d="M324.075,444.58h-193.56
				c-18.2,0-32.95-14.75-32.95-32.94V42.95c0-18.2,14.75-32.95,32.95-32.95h193.56c18.19,0,32.94,14.75,32.94,32.95v368.69
				C357.015,429.83,342.265,444.58,324.075,444.58z"/>
			
				<rect x="128.915" y="79.19" style="fill:none;stroke:#000000;stroke-width:20;stroke-linejoin:round;stroke-miterlimit:10;" width="196.75" height="281.07"/>
			<path style="fill:none;stroke:#000000;stroke-width:20;stroke-linejoin:round;stroke-miterlimit:10;" d="M243.295,400.58
				c0-8.84-7.17-16-16-16c-8.84,0-16,7.16-16,16c0,8.84,7.16,16,16,16C236.125,416.58,243.295,409.42,243.295,400.58z"/>
			
				<line style="fill:none;stroke:#000000;stroke-width:20;stroke-linecap:round;stroke-linejoin:round;stroke-miterlimit:10;" x1="200.295" y1="46.58" x2="254.295" y2="46.58"/>
			<path style="fill:none;stroke:#000000;stroke-width:20;stroke-linejoin:round;stroke-miterlimit:10;" d="M227.295,173.24
				c-14.32-14.32-37.54-14.32-51.85,0c-7.16,7.16-10.74,16.54-10.74,25.92c0,9.39,3.58,18.77,10.74,25.93l51.85,51.85l51.85-51.85
				c7.16-7.16,10.74-16.54,10.74-25.93c0-9.38-3.58-18.76-10.74-25.92c-7.16-7.16-16.54-10.74-25.93-10.74
				C243.835,162.5,234.455,166.08,227.295,173.24z"/>
		</g>
	</g>
</g>
</svg>