<?xml version="1.0" standalone="no"?>
<!DOCTYPE svg PUBLIC "-//W3C//DTD SVG 20010904//EN"
 "http://www.w3.org/TR/2001/REC-SVG-20010904/DTD/svg10.dtd">
<svg version="1.0" xmlns="http://www.w3.org/2000/svg"
 width="1063.000000pt" height="320.000000pt" viewBox="0 0 1063.000000 320.000000"
 preserveAspectRatio="xMidYMid meet">

<g transform="translate(0.000000,320.000000) scale(0.100000,-0.100000)"
fill="#000000" stroke="none">
<path d="M525 3014 c-94 -20 -187 -61 -243 -107 -81 -68 -172 -194 -172 -239
0 -8 -4 -18 -9 -23 -6 -6 -18 -44 -27 -85 -15 -66 -18 -164 -21 -852 -5 -768
2 -1031 28 -1108 6 -19 30 -73 53 -120 56 -118 124 -187 237 -245 77 -38 102
-45 191 -55 185 -21 340 -4 463 50 52 23 162 106 177 133 6 11 21 32 34 46 13
14 24 30 24 35 0 5 13 34 28 65 55 108 61 174 64 738 2 281 -1 515 -5 520 -10
10 -524 17 -585 8 l-42 -6 2 -192 3 -192 105 -5 105 -5 3 -275 c1 -153 -2
-305 -8 -342 -13 -89 -48 -141 -117 -175 -47 -23 -62 -25 -116 -19 -76 8 -143
46 -173 99 -41 74 -46 179 -42 982 4 860 3 849 75 920 28 28 54 45 68 45 13 0
27 5 31 11 5 8 29 10 76 5 90 -8 148 -45 178 -114 18 -40 22 -74 27 -222 4
-143 8 -177 21 -187 11 -9 67 -13 199 -13 174 0 183 1 193 21 8 14 10 70 5
177 -10 248 -24 318 -93 462 -19 39 -179 200 -199 200 -7 0 -21 4 -31 9 -90
48 -169 61 -346 60 -78 -1 -150 -3 -161 -5z"/>
<path d="M5270 3001 c-192 -50 -334 -182 -389 -361 -6 -19 -19 -57 -28 -85
-16 -46 -18 -121 -21 -870 -4 -1009 -2 -1033 84 -1210 71 -146 187 -239 359
-286 66 -19 364 -19 426 0 78 23 185 82 235 130 47 46 109 118 109 130 1 3 11
28 23 54 11 26 32 85 44 130 23 81 23 90 23 612 l0 530 -280 3 c-154 1 -295 0
-312 -3 l-33 -6 0 -183 c0 -139 3 -186 13 -194 7 -6 53 -12 103 -14 l89 -3 0
-335 0 -335 -26 -40 c-36 -54 -55 -70 -114 -90 -103 -36 -230 8 -277 97 l-23
43 0 871 0 871 28 55 c15 30 40 64 55 74 106 77 275 43 331 -67 21 -40 23 -63
28 -226 4 -128 9 -186 18 -193 8 -7 84 -9 206 -8 l194 3 -1 190 c-1 187 -12
297 -33 318 -6 6 -11 22 -11 35 0 26 -33 89 -87 169 -34 49 -131 133 -160 137
-7 1 -19 8 -25 14 -7 7 -19 12 -28 12 -9 0 -21 5 -26 10 -39 39 -371 54 -494
21z"/>
<path d="M9720 3013 c-19 -3 -39 -9 -44 -14 -6 -5 -19 -9 -30 -9 -12 0 -41
-14 -66 -30 -25 -16 -50 -30 -56 -30 -19 0 -150 -143 -174 -189 -44 -88 -78
-213 -85 -322 -7 -110 8 -306 25 -323 6 -6 10 -19 10 -29 0 -37 102 -228 161
-303 70 -87 189 -209 345 -351 61 -56 137 -137 170 -180 32 -43 62 -80 66 -83
3 -3 10 -19 14 -35 4 -17 18 -50 30 -74 19 -35 24 -62 27 -144 6 -203 -19
-264 -131 -318 -92 -45 -231 0 -279 91 -23 43 -40 151 -46 285 l-2 60 -200 0
-200 0 -3 -115 c-3 -113 20 -293 39 -314 5 -6 9 -22 9 -36 0 -30 76 -164 117
-205 78 -78 152 -122 253 -151 80 -23 365 -26 446 -5 107 29 187 76 262 155
78 83 101 121 139 235 23 67 27 96 30 251 6 227 -11 329 -80 470 -22 47 -43
87 -46 90 -4 3 -28 34 -56 70 -91 119 -159 191 -276 290 -132 112 -235 220
-287 300 -43 65 -72 126 -72 149 0 9 -5 22 -11 28 -7 7 -11 58 -12 130 0 133
10 168 66 220 56 53 131 66 220 39 49 -15 60 -23 93 -71 33 -47 47 -102 53
-215 l6 -105 189 -3 c130 -2 193 1 202 9 22 18 13 232 -15 364 -18 82 -89 210
-151 271 -65 63 -170 120 -260 139 -61 14 -300 18 -390 8z"/>
<path d="M1980 2971 c-5 -11 -10 -32 -10 -48 0 -15 -4 -43 -9 -60 -5 -18 -17
-86 -26 -150 -8 -65 -18 -129 -21 -143 -3 -14 -9 -50 -14 -80 -4 -30 -15 -95
-24 -145 -9 -49 -21 -117 -26 -150 -5 -33 -19 -116 -30 -185 -44 -261 -61
-367 -70 -430 -6 -36 -14 -92 -19 -125 -6 -33 -19 -120 -30 -193 -12 -73 -23
-143 -26 -155 -7 -26 -33 -185 -46 -277 -5 -36 -11 -71 -14 -79 -3 -8 -10 -44
-15 -80 -5 -36 -17 -109 -25 -161 -37 -225 -44 -294 -32 -302 7 -4 95 -7 197
-5 l185 2 7 25 c9 34 38 217 48 314 8 67 21 138 36 194 3 9 57 12 231 12 125
0 238 -3 249 -6 19 -5 23 -18 33 -97 7 -51 16 -119 21 -152 5 -33 14 -103 20
-155 18 -148 4 -140 238 -140 108 0 203 4 211 9 10 7 11 16 3 42 -13 43 -32
152 -43 249 -13 122 -30 224 -40 242 -5 10 -9 34 -9 53 0 20 -6 68 -14 108 -8
40 -17 92 -20 117 -6 42 -17 109 -51 305 -21 122 -25 142 -41 250 -8 55 -19
120 -24 145 -5 25 -12 74 -15 110 -4 36 -10 69 -14 75 -5 5 -11 42 -15 80 -3
39 -12 108 -20 155 -19 111 -40 233 -61 350 -9 52 -20 124 -25 160 -4 36 -10
72 -14 80 -3 8 -10 49 -16 90 -6 41 -14 95 -18 120 l-7 45 -292 3 c-281 2
-293 2 -303 -17z m301 -571 c1 -36 6 -76 10 -90 5 -14 13 -65 19 -115 21 -180
29 -237 39 -283 5 -26 15 -87 22 -137 6 -49 15 -119 20 -155 5 -36 13 -105 19
-155 6 -49 15 -100 20 -113 6 -13 10 -40 10 -61 0 -20 5 -64 11 -96 8 -46 8
-60 -3 -66 -19 -12 -362 -11 -374 1 -10 10 -9 24 20 220 9 58 18 119 21 135 2
17 9 73 15 125 6 52 18 133 25 180 8 47 19 126 25 175 6 50 17 133 25 185 8
52 21 140 29 195 8 55 18 108 22 118 12 32 23 4 25 -63z"/>
<path d="M3247 2984 c-4 -4 -7 -630 -7 -1390 l0 -1384 26 -6 c48 -12 803 1
816 14 7 7 28 12 48 12 21 0 68 17 118 43 143 73 242 192 279 337 8 30 19 73
25 95 17 63 23 1559 8 1705 -15 131 -60 277 -106 337 -52 70 -139 148 -194
175 -114 55 -187 63 -616 66 -214 1 -393 -1 -397 -4z m723 -399 c50 -11 106
-54 124 -95 32 -74 36 -178 36 -897 0 -836 -3 -865 -77 -934 -49 -46 -70 -51
-225 -57 l-148 -5 0 990 c0 778 3 992 13 1002 13 13 206 10 277 -4z"/>
<path d="M6437 2983 c-4 -3 -7 -628 -7 -1389 0 -1251 1 -1382 16 -1388 20 -8
1138 -8 1158 0 14 5 16 32 16 194 0 162 -2 189 -16 194 -9 3 -177 6 -374 6
-317 0 -359 2 -364 16 -9 23 -7 807 2 821 6 10 81 13 297 15 l290 3 3 198 2
197 -288 0 c-211 0 -291 3 -300 12 -16 16 -17 690 -2 719 10 18 25 19 368 19
196 0 363 4 370 8 9 7 12 52 10 193 l-3 184 -586 3 c-322 1 -589 -1 -592 -5z"/>
<path d="M7767 2983 c-4 -3 -7 -91 -7 -195 l0 -188 225 0 c124 0 226 -1 227
-2 2 -2 5 -541 8 -1198 l5 -1195 210 0 210 0 5 1195 c3 657 6 1196 8 1197 1 2
102 4 225 5 l222 3 3 193 2 192 -668 0 c-368 0 -672 -3 -675 -7z"/>
</g>
</svg>
