<?xml version="1.0" encoding="UTF-8"?>
<svg version="1.1" viewBox="0 0 1600 448" width="1280" height="1280" xmlns="http://www.w3.org/2000/svg">
<path transform="translate(0)" d="m0 0h1600v448h-1600v-448z" fill="#FDFDFD"/>
<path transform="translate(158 120)" d="m0 0c6.25 2.47 12.5 4.7 19 6.62 0.693 0.211 1.39 0.421 2.1 0.638 16.4 4.77 34.4 3.35 50.1-3.39 25-10.3 53.1-16 79.1-5.66 11.7 4.98 22.3 11.3 31.9 19.7 1.21 0.959 2.42 1.92 3.62 2.88 0.784 0.701 1.57 1.4 2.38 2.12v2c0.866 0.309 0.866 0.309 1.75 0.625 3.13 1.91 4.47 4.2 6.25 7.38v4h-2c-0.33 0.99-0.66 1.98-1 3-2.11 1.43-2.11 1.43-4.75 2.88-4.11 2.35-7.03 4.7-10.2 8.12h-2c-0.248 0.557-0.495 1.11-0.75 1.69-1.47 2.71-3.3 4.93-5.25 7.31-0.33 0.66-0.66 1.32-1 2h-2c-0.391 1.03-0.391 1.03-0.789 2.09-1.36 3.26-2.95 6.34-4.59 9.47-9.82 19.4-13.3 42.7-6.89 63.9 3.29 10 3.29 10 7.99 19.4 1.28 2.13 1.28 2.13 1.28 5.13 0.99 0.33 1.98 0.66 3 1 0.946 1.39 1.89 2.78 2.78 4.2 8.96 13.3 22.6 22.8 37.2 28.8v2h2c-1.93 10.7-6.63 19.3-12.1 28.7-1.5 2.6-2.96 5.2-4.38 7.84-8.61 15.5-19.2 29.9-30.6 43.5-0.704 0.927-1.41 1.85-2.13 2.81-0.616 0.723-1.23 1.45-1.87 2.19h-2c-0.268 0.639-0.536 1.28-0.812 1.94-1.19 2.06-1.19 2.06-4.19 3.06-0.676 1.33-1.34 2.66-2 4-1.73 1.56-1.73 1.56-3.75 3-1.08 0.77-1.08 0.77-2.18 1.55-0.683 0.477-1.37 0.954-2.07 1.45-0.949 0.701-1.9 1.4-2.88 2.12-12.5 7.5-27.5 8.96-41.7 5.63-7.35-2.27-14.3-5.66-21.2-8.94-18.9-8.78-43.2-7.97-62.9-1.64-3.17 1.19-6.27 2.47-9.37 3.83-1.26 0.547-1.26 0.547-2.55 1.11-3.38 1.48-6.73 3.02-10.1 4.58-11 4.29-26.9 3.89-37.8-0.723-12.8-6.07-25.9-14.9-33.6-27-1.32-1.34-2.66-2.67-4-4-6.07-6.92-11.2-14.2-16-22-1.25-1.94-2.5-3.88-3.75-5.81-2.32-3.65-4.38-7.28-6.25-11.2-0.746-1.31-1.5-2.63-2.25-3.94-7.39-13.2-13.7-27.5-17.8-42.1-0.476-1.58-0.956-3.17-1.44-4.75-0.246-0.834-0.492-1.67-0.746-2.53-0.574-1.92-1.17-3.82-1.79-5.73-2.58-8.32-3.98-16.5-5.08-25.2-0.112-0.873-0.223-1.75-0.338-2.65-0.095-0.785-0.19-1.57-0.288-2.38-0.149-1.83-0.149-1.83-1.33-2.82-0.245-2.38-0.428-4.74-0.562-7.12-0.0417-0.718-0.0835-1.44-0.126-2.18-0.747-13.9-1.35-28.6 2.09-42.2 1.1-4.57 1.87-9.21 2.72-13.8 0.917-3.8 2.25-7.1 3.88-10.6 0.351-0.794 0.701-1.59 1.06-2.41 0.309-0.691 0.619-1.38 0.938-2.09 1.7-3.82 3.36-7.65 5-11.5h2c0.309-1.21 0.309-1.21 0.625-2.44 2.73-7.08 6.79-12.6 12.9-17.2 1.64-1.33 1.64-1.33 2.48-3.37 1.27-2.46 2.65-3.45 4.91-5.02 3.02-2.11 5.52-4.39 8.12-7 27.7-22.1 62.8-27.9 95.9-14.9z" fill="#000102"/>
<path transform="translate(906 195)" d="m0 0c2.49 2.23 4.46 4.35 6.45 7.02 1.8 2.41 3.58 4.73 5.56 7 4.39 6.05 6.66 13.4 8.81 20.5 0.258 0.835 0.516 1.67 0.781 2.53 2.36 8.41 2.73 16.5 2.66 25.2-0.00238 0.706-0.00475 1.41-0.0072 2.14-0.0556 10.5-0.797 20.1-4.43 30.1-0.347 1.05-0.694 2.1-1.05 3.18-1.65 4.8-3.54 9.36-5.95 13.8h-2c-0.278 0.99-0.278 0.99-0.562 2-6.13 12.8-19.3 20.1-32 24.9-6.6 2.1-12.8 2.28-19.7 2.28-0.891 0.0122-1.78 0.0245-2.7 0.0371-13.7 0.0298-24-3.61-34.9-11.8-2.16-1.66-2.16-1.66-5.16-1.39-0.33 22.8-0.66 45.5-1 69-29 0-29 0-31-1-1.25-39.6-1.19-79.3-1.19-119-3.56e-4 -7.41-0.0121-14.8-0.0259-22.2-0.013-7.23-0.0184-14.5-0.0178-21.7 2.54e-4 -4.28-0.00256-8.57-0.0132-12.9-0.00962-3.99-0.0098-7.97-0.00248-12 0.00105-1.46-0.00134-2.92-0.00736-4.39-0.00766-1.99-0.0019-3.97 0.00463-5.96-5.45e-4 -1.11-0.00109-2.22-0.00165-3.37 0.249-2.6 0.249-2.6 2.25-4.6 2.51-0.243 2.51-0.243 5.63-0.23 1.12 0.00193 2.23 0.00387 3.38 0.00586 1.76 0.0184 1.76 0.0184 3.55 0.0371 1.17 6.45e-4 2.35 0.00129 3.56 0.00195 8.74 0.0454 8.74 0.0454 9.88 1.19 0.287 3.26 0.449 6.53 0.621 9.8 0.348 2.94 0.856 4.7 2.38 7.2 3.09-2.51 5.96-4.96 8.75-7.81 2.25-2.19 2.25-2.19 4.25-2.19v-2c23-13.7 52.3-12.4 73.2 4.48z" fill="#000102"/>
<path transform="translate(746 194)" d="m0 0c14.1 11.8 23.5 29.9 25.5 48.2 0.307 4.49 0.334 8.98 0.285 13.5-0.0214 2.3-7.03e-5 4.6 0.0254 6.9 0.0249 12.9-2.22 24.6-7.55 36.5-0.304 0.699-0.608 1.4-0.922 2.12-3.56 7.56-8.83 14.3-15.1 19.9-0.99 0.33-1.98 0.66-3 1v2c-10.9 9.8-25.8 12.2-39.9 12.2-0.847 0.0122-1.69 0.0245-2.57 0.0371-13.1 0.03-24.1-3.91-34.4-11.8-2.12-1.66-2.12-1.66-5.13-1.39-0.33 22.8-0.66 45.5-1 69-29 0-29 0-31-1-0.177-26.6-0.343-53.1-0.495-79.7-0.0708-12.3-0.145-24.7-0.229-37-0.0727-10.7-0.138-21.5-0.196-32.2-0.0305-5.69-0.0646-11.4-0.107-17.1-0.0398-5.35-0.0703-10.7-0.0935-16.1-0.0102-1.97-0.0239-3.94-0.0412-5.91-0.0231-2.68-0.0339-5.36-0.0415-8.04-0.00972-0.788-0.0194-1.58-0.0294-2.39 0.00375-5.37 0.00375-5.37 2.23-7.6 2.49-0.259 2.49-0.259 5.59-0.266 1.11-0.00258 2.22-0.00516 3.37-0.00781 1.17 0.00773 2.33 0.0155 3.54 0.0234 1.17-0.00773 2.33-0.0155 3.54-0.0234 1.11 0.00258 2.22 0.00516 3.37 0.00781 1.02 0.00226 2.05 0.00451 3.1 0.00684 2.49 0.259 2.49 0.259 4.49 2.26 0.301 2.37 0.495 4.74 0.625 7.12 0.0748 1.28 0.15 2.56 0.227 3.88 0.049 0.987 0.098 1.97 0.148 2.99h3c1.1-1.14 2.21-2.28 3.29-3.44 3.78-3.46 8.32-5.95 12.7-8.56 0.955-0.609 0.955-0.609 1.93-1.23 19.7-11.4 47.3-6.63 64.8 6.23z" fill="#000102"/>
<path transform="translate(1326,192)" d="m0 0c1.47 0.88 1.47 0.88 2.96 1.78 14.8 9.81 23.6 26.4 28 43.2 1.35 6.84 1.18 13.7 1.19 20.7 0.0122 1.2 0.0245 2.41 0.0371 3.65 0.0162 10-0.881 19.6-4.16 29.1-0.318 0.947-0.637 1.89-0.965 2.87-1.13 2.78-2.5 5.16-4.1 7.69-0.498 0.851-0.995 1.7-1.51 2.58-7.74 12.8-19.4 24-34.1 28.4-1.48 0.359-2.96 0.714-4.44 1.06-0.908 0.371-1.82 0.742-2.75 1.12-6.38 2.48-13.3 2.06-20 2.06-1.03 0.0122-2.07 0.0245-3.13 0.0371-18.5 0.035-34.4-6.81-48-19.2-0.548-0.498-1.1-0.997-1.66-1.51-11.6-10.9-18.8-28.5-19.6-44.3-0.0247-3.16-0.0404-6.32-0.0422-9.48-0.0122-1.09-0.0245-2.18-0.0371-3.3-0.0116-6.43 0.49-12.2 2.22-18.4 0.289-1.09 0.289-1.09 0.585-2.21 0.592-2.19 1.22-4.37 1.85-6.54 0.204-0.728 0.409-1.46 0.619-2.21 1.19-4.09 2.54-7.48 4.94-11 0.532-0.802 1.06-1.6 1.61-2.43 6.49-9.34 12.6-16.4 22.4-22.6h2v-2c2.43-0.98 4.86-1.95 7.29-2.92 1.58-0.632 3.17-1.28 4.73-1.95 20.4-8.41 45.4-5.35 64 5.86z" fill="#000102"/>
<path transform="translate(519 129)" d="m0 0c1.39 1.59e-4 2.78 0.00585 4.17 0.0159 1.1 0.00212 1.1 0.00212 2.22 0.00429 2.34 0.00561 4.69 0.0182 7.03 0.0309 1.59 0.00501 3.17 0.00958 4.76 0.0137 3.89 0.011 7.79 0.0283 11.7 0.0488 0.265 0.665 0.53 1.33 0.802 2.01 0.353 0.884 0.705 1.77 1.07 2.68 0.347 0.871 0.695 1.74 1.05 2.64 1.03 2.54 2.08 5.08 3.14 7.61 1.78 4.42 3.03 8.89 4.23 13.5 0.773 2.81 1.76 5.51 2.83 8.22 1.19 3.19 2.25 6.42 3.32 9.66 1.49 4.53 3.03 9.03 4.69 13.5 1.57 4.25 2.9 8.53 4.17 12.9 0.823 2.69 1.81 5.31 2.83 7.93 1.18 3.21 2.25 6.45 3.32 9.7 1.77 5.37 3.64 10.7 5.59 16 1.75 4.86 3.35 9.78 4.97 14.7 2.06 6.23 4.19 12.4 6.38 18.6 2.96 8.43 5.82 16.9 8.62 25.4 0.873 2.63 1.75 5.25 2.62 7.88 0.414 1.24 0.828 2.49 1.25 3.77 0.65 1.95 1.3 3.9 1.96 5.84 6.16 18.2 6.16 18.2 6.16 21.5-4.34 0.149-8.68 0.257-13 0.33-1.48 0.0301-2.95 0.071-4.43 0.123-2.13 0.073-4.25 0.107-6.37 0.133-1.28 0.0314-2.56 0.0628-3.87 0.0952-3.3-0.681-3.3-0.681-5.68-3.54-1.55-3.01-2.64-5.76-3.56-9.02-0.327-1.13-0.655-2.25-0.992-3.41-0.53-1.84-0.53-1.84-1.07-3.71-0.84-2.78-1.7-5.54-2.56-8.31-0.198-0.645-0.396-1.29-0.599-1.95-1.45-4.67-3.12-9.14-4.84-13.7-1.98-5.94-3.96-11.9-6-18h-66c-2.47 6.57-2.47 6.57-4.76 13.2-0.466 1.4-0.466 1.4-0.941 2.83-0.325 0.983-0.65 1.97-0.985 2.98-0.343 1.03-0.686 2.07-1.04 3.13-1.09 3.29-2.18 6.58-3.27 9.87-1.46 4.4-2.92 8.79-4.38 13.2-0.5 1.51-0.5 1.51-1.01 3.06-0.47 1.42-0.47 1.42-0.95 2.86-0.411 1.24-0.411 1.24-0.83 2.5-0.87 2.49-1.85 4.94-2.83 7.39-9.9 0.33-19.8 0.66-30 1-1.02-5.09-0.81-6.59 0.75-11.3 0.518-1.6 0.518-1.6 1.05-3.24 0.855-2.45 1.74-4.88 2.66-7.3 1.64-4.34 3.1-8.73 4.55-13.1 1.66-5.06 3.38-10.1 5.27-15 1.22-3.29 2.32-6.62 3.42-9.96 0.533-1.61 1.07-3.21 1.6-4.82 0.86-2.6 1.72-5.19 2.58-7.79 4.88-14.7 9.87-29.4 14.9-44.1 4.18-12.1 8.29-24.3 12-36.6 1.05-3.38 2.1-6.5 3.71-9.67 2.01-4.06 3.14-8.24 4.37-12.6 2.33-8 4.96-15.7 8.12-23.4 0.356-0.919 0.712-1.84 1.08-2.79 1.33-3.19 1.33-3.19 5.06-3.33z" fill="#000102"/>
<path transform="translate(1556 190)" d="m0 0c4.99 3.78 9.11 8.16 13 13.1 1.05 1.18 1.05 1.18 2.12 2.38 3.88 5.43 6.13 11.8 8.1 18.1 0.5 1.61 1.02 3.21 1.56 4.8 2.5 8 2.56 15.5 2.4 23.9-0.0151 1.35-0.0288 2.69-0.041 4.04-0.035 3.26-0.0841 6.51-0.146 9.77-2.75 0.776-5.19 1.12-8.04 1.11-0.795-7.05e-5 -1.59-1.41e-4 -2.41-2.14e-4 -0.863-0.00517-1.73-0.0103-2.62-0.0157-0.916-0.00146-1.83-0.00292-2.78-0.00443-1.99-0.0038-3.97-0.00992-5.96-0.0181-3.14-0.0128-6.28-0.0193-9.42-0.0241-6.66-0.0114-13.3-0.0307-20-0.051-7.72-0.0236-15.4-0.0439-23.2-0.0559-3.1-0.00651-6.2-0.019-9.3-0.0317-1.89-0.00363-3.78-0.00698-5.66-0.01-0.869-0.00517-1.74-0.0103-2.63-0.0157-2.02-1.81e-4 -4.03 0.0509-6.05 0.113-1.33 1.11-1.33 1.11-1.19 3.94 0.114 6.89 1.29 13.3 5.19 19.1 0.144 0.722 0.289 1.44 0.438 2.19 0.388 1.99 0.388 1.99 2.38 2.81 1.08 0.495 1.08 0.495 2.19 1 1.33 1.33 2.67 2.67 4 4 13.8 11.3 30.5 10.7 47.4 9.3 6.39-0.73 12.5-2.52 18.6-4.3 1.66-0.354 3.33-0.696 5-1 2.85 3.27 3.76 6.17 4.69 10.4 0.251 1.1 0.503 2.2 0.762 3.34 0.531 3.17 0.652 6.08 0.551 9.29-25.1 11.4-55 12.2-81.2 4.1-15.8-6.1-29.1-19.8-35.8-35.1-0.352-0.766-0.704-1.53-1.07-2.32-5.91-14.3-5.62-30.7-4.12-45.8 0.0699-0.753 0.14-1.51 0.212-2.28 0.579-5.26 1.99-9.71 3.98-14.6 0.448-1.46 0.888-2.91 1.31-4.38 1.75-5.36 4.68-9.89 7.69-14.6 0.529-0.892 1.06-1.78 1.6-2.7 1.33-2.18 2.54-3.58 4.4-5.3 0.681-0.722 1.36-1.44 2.06-2.19 21.2-20.9 55.9-28.5 82-11.9z" fill="#000102"/>
<path transform="translate(1079 126)" d="m0 0c2.88 0.645 5.77 1.11 8.69 1.58 8.04 1.35 16.2 3.08 22.1 9.04-0.202 6.38-1.74 11.6-4.06 17.5-0.814 2.15-1.44 4.24-1.94 6.48-5.06-0.43-8.79-1.64-13.3-3.96-8.37-3.21-17-3.37-25.8-3.35-1.13-0.0161-2.26-0.0322-3.42-0.0488-9.5-0.00555-15.7 1.99-23.5 7.36h-2c-0.268 0.743-0.536 1.49-0.812 2.25-1.19 2.75-1.19 2.75-2.69 4.69-3.72 5.12-4.29 10.9-3.5 17.1 1.71 6.21 3.97 10.8 9 15 0.754 0.641 1.51 1.28 2.29 1.94 2.8 2.13 5.54 3.6 8.71 5.12 2.95 1.42 5.8 2.81 8.58 4.53 2.41 1.4 4.49 2.14 7.17 2.84 18.8 5.42 38.3 17.7 48 35.1 7.54 15.4 6.49 33.3 2.21 49.5-1.47 3.23-1.47 3.23-3 6-0.385 0.699-0.771 1.4-1.17 2.12-0.944 1.63-1.89 3.26-2.83 4.88h-2c-0.227 0.557-0.454 1.11-0.688 1.69-6.44 11.3-21.2 16.8-33 20.5-18.2 4.52-43.1 4.28-60.3-3.17-1.46-0.468-2.91-0.926-4.38-1.38-5.14-1.68-9.85-4.1-14.6-6.62 0.513-4.82 1.56-9.08 3.18-13.6 0.561-1.61 1.07-3.25 1.54-4.89 0.354-1.22 0.354-1.22 0.715-2.46 0.205-0.742 0.41-1.48 0.621-2.25 0.941-1.75 0.941-1.75 2.64-2.7 3.51-0.0713 5.71 1.51 8.74 3.2 5.9 3.17 11.5 4.98 18.1 6.24 2.45 0.508 2.45 0.508 3.45 1.51 14.9 2.32 31.1 2.82 44-6 5.83-5.28 9.61-10.9 10.4-18.9 0.284-10.1-0.503-17.9-7.68-25.6-0.557-0.495-1.11-0.99-1.69-1.5v-2c-0.578-0.282-1.15-0.565-1.75-0.855-2.13-1.08-4.18-2.26-6.25-3.46-7.57-4.22-15.7-7.19-23.8-10.2-19.6-7.53-36.2-19.1-45.2-38.4-0.536-0.955-0.536-0.955-1.08-1.93-4.38-9.89-3.05-23.7 0.707-33.6 3.4-8.4 7.69-15.3 14.4-21.5 0.593-0.633 1.19-1.27 1.8-1.92 10.4-9.79 24-13.3 37.6-15.5 8.9-1.53 16.7-2.38 25.8-0.238z" fill="#000102"/>
<path transform="translate(1174,152)" d="m0 0c0.33 10.6 0.66 21.1 1 32 3.65 0.0735 3.65 0.0735 7.37 0.148 2.35 0.054 4.7 0.111 7.05 0.169 1.64 0.0383 3.27 0.0732 4.91 0.104 2.35 0.0456 4.7 0.104 7.04 0.164 1.1 0.0173 1.1 0.0173 2.22 0.035 5.18 0.151 5.18 0.151 7.41 2.38 0.227 2.34 0.227 2.34 0.195 5.23-0.00645 1.03-0.0129 2.06-0.0195 3.12-0.0251 1.62-0.0251 1.62-0.0508 3.27-0.00902 1.09-0.018 2.18-0.0273 3.3-0.0236 2.69-0.0566 5.39-0.0977 8.08-1.06 0.0251-2.11 0.0501-3.2 0.0759-3.9 0.0939-7.8 0.194-11.7 0.296-1.69 0.0434-3.38 0.0851-5.07 0.125-2.43 0.0576-4.85 0.121-7.28 0.186-1.14 0.0251-1.14 0.0251-2.3 0.0506-3.52-0.213-3.52-0.213-6.45 1.27-0.385 3.52-0.434 7.08-0.562 10.6-0.0626 1.69-0.0626 1.69-0.126 3.42-0.345 10.6-0.421 21.3-0.436 31.9-0.00388 1.21-0.00388 1.21-0.00784 2.44-0.0227 8.96 0.0952 17.9 0.453 26.9 0.022 0.774 0.044 1.55 0.0666 2.35 0.306 6.46 1.79 11.2 5.99 16.3 3.96 3.2 7.74 3.25 12.7 3.22 0.84-0.0025 1.68-5e-3 2.55-0.00757 1.05-0.0091 2.1-0.0182 3.18-0.0276 3.36-0.0206 6.72-0.0412 10.2-0.0625v24c-7.94 2.65-15.1 3.2-23.4 3.25-1.34 0.0309-1.34 0.0309-2.71 0.0625-10.4 0.0603-20.9-3.31-28.6-10.5-13.3-14.3-11.5-34.5-11.6-52.7-0.0206-1.8-0.0416-3.6-0.063-5.4-0.0547-4.7-0.104-9.39-0.153-14.1-0.0506-4.81-0.106-9.61-0.161-14.4-0.107-9.4-0.209-18.8-0.307-28.2-0.901-0.0376-0.901-0.0376-1.82-0.0759-2.71-0.116-5.41-0.239-8.12-0.362-0.946-0.0393-1.89-0.0786-2.87-0.119-1.35-0.0628-1.35-0.0628-2.72-0.127-0.833-0.0367-1.67-0.0733-2.52-0.111-1.95-0.205-1.95-0.205-2.95-1.21-0.252-3.64-0.185-7.29-0.188-10.9-0.0122-1.03-0.0245-2.06-0.0371-3.12-0.00193-0.982-0.00387-1.96-0.00586-2.97-0.00411-0.905-0.00822-1.81-0.0125-2.74 0.243-2.23 0.243-2.23 2.24-4.23 2.06-0.227 2.06-0.227 4.57-0.195 0.896 0.00645 1.79 0.0129 2.71 0.0195 0.937 0.0168 1.87 0.0335 2.84 0.0508 0.945 0.00902 1.89 0.018 2.86 0.0273 2.34 0.0236 4.67 0.0565 7.01 0.0977-0.0105-0.717-0.0209-1.43-0.0317-2.17-0.0415-3.23-0.0676-6.47-0.0933-9.7-0.0168-1.13-0.0335-2.26-0.0508-3.42-0.00645-1.08-0.0129-2.15-0.0195-3.26-0.0105-0.995-0.0209-1.99-0.0317-3.02 0.227-2.43 0.227-2.43 2.23-4.43 2.52-0.881 5.01-1.68 7.56-2.44 1.45-0.438 2.91-0.877 4.36-1.32 0.702-0.212 1.4-0.423 2.13-0.641 2.43-0.754 4.81-1.61 7.2-2.48 3.75-1.12 3.75-1.12 7.75-0.125z" fill="#000102"/>
<path transform="translate(1307,212)" d="m0 0c2.94 2.44 2.94 2.44 5 5 0.825 0.928 1.65 1.86 2.5 2.81 0.845 1.05 1.68 2.12 2.5 3.19 0.424 0.539 0.848 1.08 1.29 1.63 7.52 10.6 8.1 22.9 8.21 35.5 0.0184 1.17 0.0369 2.33 0.0559 3.54-0.109 15.3-5.24 28.3-15.6 39.5-2.48 2.25-4.71 3.24-8 3.82v2c-10.5 3.08-20.2 4.05-30.8 0.875-13.1-7.56-20.6-16.3-25.2-30.9-4.34-18.3-2.81-37.1 6.45-53.6 2.99-4.74 6.06-8.08 10.6-11.4 1.08-1.05 1.08-1.05 2.19-2.12 11.9-7.97 28.8-6.84 40.8 0.125z" fill="#FDFDFD"/>
<path transform="translate(722 214)" d="m0 0c4.05 3.25 6.91 7.04 9.81 11.3 1.08 1.36 1.08 1.36 2.19 2.75 2.28 4.08 3.19 8.1 4.2 12.6 0.499 2.57 0.499 2.57 1.61 4.61 1.17 15.8 1 31.2-5 46h-2c-0.165 0.825-0.33 1.65-0.5 2.5-3.28 7.65-9.71 12.2-17.1 15.6-8.65 3.28-20.7 3.2-29.4-0.102-7.04-3.64-12.2-7.78-17-14-0.66-0.33-1.32-0.66-2-1-1.04-1.86-1.04-1.86-2.06-4.19-0.342-0.757-0.683-1.51-1.04-2.29-1.91-5.32-2.05-10.7-2.04-16.3-9.57e-4 -0.727-0.00191-1.45-0.0029-2.2-6.77e-4 -1.53 0.00115-3.06 0.00534-4.59 0.00534-2.32 4.77e-5 -4.64-0.00635-6.96 6.61e-4 -1.5 0.00194-2.99 0.00391-4.49-0.00202-0.684-0.00405-1.37-0.00613-2.07 0.0331-6.94 0.128-13.1 4.14-18.9 0.712-1.45 0.712-1.45 1.44-2.94 5.16-10.1 12.1-15.8 22.6-20.1 11.1-2.89 22.7-1.84 32.2 4.69z" fill="#FDFDFD"/>
<path transform="translate(876,210)" d="m0 0c1.03 0.966 2.04 1.97 3 3 1.21 0.681 1.21 0.681 2.44 1.38 2.94 1.87 4.5 3.83 6.56 6.62 0.99 1.14 0.99 1.14 2 2.31 10.4 14 10.7 34.2 8.5 50.9-1.84 10.4-5.34 20.5-13.5 27.7h-2c-0.495 1.49-0.495 1.49-1 3-10.5 6.28-22.9 7.77-34.7 4.83-9.19-3.31-16.8-9.18-21.5-17.7-0.526-0.899-0.526-0.899-1.06-1.82-3.59-6.36-3.84-12.3-3.86-19.5-0.00333-0.772-0.00666-1.54-0.0101-2.34-0.00504-1.63-0.00741-3.25-0.00725-4.88-0.00218-2.47-0.0204-4.93-0.0393-7.4-0.00294-1.59-0.00492-3.17-0.00586-4.76-0.00719-0.727-0.0144-1.45-0.0218-2.2 0.0529-12.1 4.88-22.6 13.3-31.2 11.9-9.57 27-14.1 42-8z" fill="#FDFDFD"/>
<path transform="translate(1453,184)" d="m0 0c0.341 2.8 0.341 2.8 0.293 6.32-0.00967 1.26-0.0193 2.51-0.0293 3.81-0.0251 1.32-0.0503 2.64-0.0762 4-0.015 1.34-0.0287 2.68-0.041 4.02-0.0355 3.29-0.0849 6.57-0.146 9.86-0.579-0.0087-1.16-0.0174-1.76-0.0264-12.1-0.105-23.2 1.48-32.2 10-1.31 2.12-1.31 2.12-2 4h-2c-0.182 0.545-0.364 1.09-0.551 1.65-2.45 7.35-2.45 7.35-3.18 9.27-2.03 5.55-2.71 10.4-2.7 16.3-0.0102 0.869-0.0204 1.74-0.0309 2.63-0.0299 2.84-0.0394 5.68-0.0485 8.52-0.0169 1.98-0.035 3.97-0.0544 5.95-0.0473 5.19-0.0773 10.4-0.103 15.6-0.0299 5.31-0.0764 10.6-0.121 15.9-0.0858 10.4-0.153 20.8-0.209 31.2-4.25 0.0247-8.51 0.0428-12.8 0.0549-1.45 0.00504-2.9 0.0119-4.34 0.0205-2.08 0.0121-4.16 0.0178-6.23 0.0222-1.25 0.00524-2.5 0.0105-3.79 0.0159-2.87-0.114-2.87-0.114-3.87-1.11-0.115-1.85-0.16-3.71-0.178-5.57-0.0141-1.21-0.0282-2.42-0.0428-3.66-0.0107-1.35-0.0213-2.7-0.0317-4.06-0.0145-1.41-0.0294-2.83-0.0446-4.24-0.04-3.85-0.0733-7.7-0.105-11.6-0.0197-2.4-0.0405-4.81-0.0618-7.21-0.066-7.52-0.128-15-0.184-22.5-0.065-8.69-0.143-17.4-0.233-26.1-0.0684-6.71-0.125-13.4-0.173-20.1-0.0289-4.01-0.0628-8.02-0.109-12-0.0428-3.77-0.0713-7.54-0.0887-11.3-0.00887-1.39-0.0229-2.77-0.0425-4.16-0.0259-1.89-0.0314-3.78-0.0358-5.67-0.00884-1.06-0.0177-2.12-0.0268-3.21 0.356-2.62 0.356-2.62 1.72-4.46 2.39-1.69 4.24-1.51 7.15-1.49 1.6 0.00773 1.6 0.00773 3.24 0.0156 1.12 0.0206 2.23 0.0412 3.38 0.0625 1.68 0.00773 1.68 0.00773 3.4 0.0156 8.32 0.0805 8.32 0.0805 9.47 1.23 0.237 2.86 0.422 5.7 0.562 8.56 0.0432 0.806 0.0864 1.61 0.131 2.44 0.106 2 0.207 4 0.307 5.99 3.44-2.83 6.58-5.45 9.31-9 7.51-9.27 27.9-17.2 38.7-10z" fill="#000102"/>
<path transform="translate(268,18)" d="m0 0c2.78 2.78 1.31 11 1.32 14.7-0.183 15.3-4.23 30.7-13.3 43.3-0.694 1.32-1.38 2.65-2 4h-2c-0.186 0.66-0.371 1.32-0.562 2-2.71 5.65-7.22 10.5-12.4 14h-2c-0.248 0.639-0.495 1.28-0.75 1.94-1.25 2.06-1.25 2.06-3.31 2.62-0.959 0.217-0.959 0.217-1.94 0.438-0.495 1.48-0.495 1.48-1 3-1.53 1.03-1.53 1.03-3.5 1.94-0.718 0.336-1.44 0.673-2.18 1.02-0.767 0.344-1.53 0.688-2.32 1.04-0.777 0.354-1.55 0.709-2.36 1.07-2.21 0.995-4.42 1.97-6.64 2.93-0.808 0.345-1.62 0.691-2.45 1.05-7.76 2.9-16.3 3.61-24.6 2.95-1.93-1.93-1.17-4.77-1.19-7.34 0.0308-25.2 10.6-46.6 28.2-64.7 1.94-1.78 3.91-3.38 6-5 0.825-0.681 1.65-1.36 2.5-2.06 12.7-9.85 29.9-19.7 46.5-18.9z" fill="#000102"/>
<path transform="translate(530,168)" d="m0 0h2c3.82 10.1 6.98 20.3 10.1 30.6 1.79 5.88 3.68 11.6 5.9 17.4 2.35 6.28 4.58 12.6 6.75 18.9 0.428 1.25 0.856 2.49 1.3 3.78 0.953 3.29 0.953 3.29 0.953 7.29h-50c-1.31-2.62-0.763-3.37 0.125-6.12 0.281-0.887 0.562-1.77 0.852-2.69 0.338-1.05 0.675-2.1 1.02-3.19 0.405-1.31 0.809-2.62 1.21-3.94 2.46-8.02 5.13-15.9 8.23-23.7 1.85-4.9 3.18-9.95 4.59-15 0.781-2.72 1.61-5.4 2.54-8.08 1.73-5.03 3.08-10.2 4.44-15.3z" fill="#FDFDFD"/>
<path transform="translate(1524 205)" d="m0 0c1.64 0.118 1.64 0.118 3.32 0.238 6.83 0.983 12.1 4.24 16.7 9.26 4.08 5.47 6.66 10.6 8.38 17.2 0.33 0.33 0.66 0.66 1 1v9h-68c-1.78-8.88 3.25-16.2 8.08-23.5 4.97-6.42 12.8-11.4 20.8-13.1 3.35-0.396 6.37-0.328 9.73-0.0625z" fill="#FDFDFD"/>
</svg>
