<svg width="80" height="27" viewBox="0 0 80 27" fill="none" xmlns="http://www.w3.org/2000/svg">
<path d="M10.2627 0.158193V11.7289H7.82062L3.08173 5.05087H3.00614V11.7289H0.127921V0.158193H2.60494L7.29149 6.82489H7.39034V0.158193H10.2627Z" fill="#F1F2F9"/>
<path d="M14.9508 0.158193V11.7289H12.0725V0.158193H14.9508Z" fill="#F1F2F9"/>
<path d="M27.567 4.3503H24.6597C24.6209 4.06028 24.5414 3.79851 24.4213 3.56499C24.3011 3.33146 24.1422 3.13184 23.9445 2.96611C23.7468 2.80039 23.5123 2.67421 23.2409 2.58758C22.9734 2.49719 22.6769 2.45199 22.3513 2.45199C21.7737 2.45199 21.2756 2.58946 20.8569 2.86442C20.4422 3.13937 20.1224 3.53674 19.8975 4.05651C19.6766 4.57629 19.5661 5.2053 19.5661 5.94353C19.5661 6.71189 19.6785 7.35596 19.9033 7.87574C20.132 8.39175 20.4518 8.78158 20.8627 9.04524C21.2775 9.30512 21.7679 9.43507 22.3338 9.43507C22.6517 9.43507 22.9405 9.39552 23.2002 9.31642C23.4638 9.23733 23.6944 9.12245 23.8921 8.97179C24.0937 8.81736 24.2585 8.63092 24.3864 8.41247C24.5182 8.19024 24.6093 7.93977 24.6597 7.66105L27.567 7.678C27.5166 8.19024 27.3635 8.69495 27.1076 9.19213C26.8556 9.68931 26.5087 10.1432 26.0668 10.5537C25.6249 10.9605 25.0861 11.2844 24.4503 11.5255C23.8185 11.7665 23.0936 11.8871 22.2757 11.8871C21.198 11.8871 20.2328 11.6573 19.38 11.1978C18.5311 10.7345 17.8605 10.0603 17.3682 9.17518C16.8759 8.29005 16.6297 7.21284 16.6297 5.94353C16.6297 4.67045 16.8797 3.59135 17.3798 2.70623C17.8799 1.8211 18.5563 1.14878 19.4091 0.689269C20.2619 0.229756 21.2174 0 22.2757 0C22.9967 0 23.6634 0.097929 24.2759 0.293787C24.8884 0.485878 25.4272 0.768365 25.8924 1.14125C26.3575 1.51036 26.7355 1.96423 27.0262 2.50284C27.3169 3.04144 27.4972 3.65727 27.567 4.3503Z" fill="#F1F2F9"/>
<path d="M29.2139 11.7289V0.158193H37.5172V2.42939H32.0922V4.80228H37.0927V7.07913H32.0922V9.45767H37.5172V11.7289H29.2139Z" fill="#F1F2F9"/>
<path d="M7.94273 18.5217C7.87683 18.2844 7.77992 18.0754 7.652 17.8946C7.52408 17.7101 7.36708 17.5537 7.18102 17.4257C6.99495 17.2976 6.78175 17.2016 6.54141 17.1375C6.30107 17.0697 6.03748 17.0359 5.75063 17.0359C5.17305 17.0359 4.67299 17.1714 4.25046 17.4426C3.83181 17.7138 3.50813 18.1093 3.27943 18.6291C3.05072 19.1451 2.93637 19.7722 2.93637 20.5104C2.93637 21.2524 3.04684 21.8852 3.2678 22.4088C3.48875 22.9323 3.80856 23.3315 4.22721 23.6065C4.64586 23.8815 5.15366 24.0189 5.75063 24.0189C6.27782 24.0189 6.7236 23.9361 7.08798 23.7703C7.45624 23.6009 7.73534 23.3617 7.92528 23.0528C8.11523 22.744 8.2102 22.3805 8.2102 21.9624L8.74514 22.0246H5.84947V19.985H10.9838V21.5161C10.9838 22.5519 10.757 23.4389 10.3034 24.1771C9.85379 24.9154 9.23357 25.4822 8.44278 25.8777C7.65587 26.2732 6.75074 26.4709 5.72737 26.4709C4.59159 26.4709 3.59342 26.2317 2.73286 25.7534C1.8723 25.2751 1.20168 24.5933 0.721009 23.7082C0.240336 22.8193 0 21.7647 0 20.5443C0 19.5952 0.145365 18.7534 0.436094 18.0189C0.726824 17.2807 1.13191 16.6554 1.65134 16.1432C2.17466 15.6309 2.77937 15.243 3.46549 14.9793C4.15549 14.7157 4.89782 14.5839 5.69248 14.5839C6.38248 14.5839 7.02402 14.6799 7.61711 14.872C8.21407 15.0641 8.74126 15.3353 9.19868 15.6856C9.65997 16.0358 10.034 16.452 10.3209 16.9342C10.6077 17.4163 10.7861 17.9455 10.8558 18.5217H7.94273Z" fill="#F1F2F9"/>
<path d="M14.8883 26.3127H11.7949L15.8128 14.7421H19.6446L23.6625 26.3127H20.5691L17.7723 17.6573H17.6793L14.8883 26.3127ZM14.4754 21.759H20.9412V23.8833H14.4754V21.759Z" fill="#F1F2F9"/>
<path d="M29.3462 26.3127H24.9446V14.7421H29.3404C30.5537 14.7421 31.5984 14.9737 32.4745 15.437C33.3544 15.8965 34.0328 16.5594 34.5096 17.4257C34.9864 18.2882 35.2248 19.3202 35.2248 20.5217C35.2248 21.727 34.9864 22.7628 34.5096 23.6291C34.0367 24.4954 33.3602 25.1602 32.4803 25.6235C31.6003 26.083 30.5557 26.3127 29.3462 26.3127ZM27.8228 23.9285H29.2357C29.9025 23.9285 30.4665 23.8193 30.9278 23.6009C31.393 23.3786 31.7438 23.0189 31.9802 22.5218C32.2206 22.0208 32.3407 21.3541 32.3407 20.5217C32.3407 19.6893 32.2206 19.0264 31.9802 18.533C31.7399 18.0359 31.3852 17.678 30.9162 17.4596C30.451 17.2374 29.8773 17.1262 29.195 17.1262H27.8228V23.9285Z" fill="#F1F2F9"/>
<path d="M44.72 18.5217C44.6541 18.2844 44.5572 18.0754 44.4293 17.8946C44.3013 17.7101 44.1443 17.5537 43.9583 17.4257C43.7722 17.2976 43.559 17.2016 43.3187 17.1375C43.0783 17.0697 42.8147 17.0359 42.5279 17.0359C41.9503 17.0359 41.4503 17.1714 41.0277 17.4426C40.6091 17.7138 40.2854 18.1093 40.0567 18.6291C39.828 19.1451 39.7136 19.7722 39.7136 20.5104C39.7136 21.2524 39.8241 21.8852 40.0451 22.4088C40.266 22.9323 40.5858 23.3315 41.0045 23.6065C41.4231 23.8815 41.9309 24.0189 42.5279 24.0189C43.0551 24.0189 43.5009 23.9361 43.8652 23.7703C44.2335 23.6009 44.5126 23.3617 44.7025 23.0528C44.8925 22.744 44.9875 22.3805 44.9875 21.9624L45.5224 22.0246H42.6267V19.985H47.761V21.5161C47.761 22.5519 47.5343 23.4389 47.0807 24.1771C46.6311 24.9154 46.0108 25.4822 45.22 25.8777C44.4331 26.2732 43.528 26.4709 42.5046 26.4709C41.3689 26.4709 40.3707 26.2317 39.5101 25.7534C38.6496 25.2751 37.979 24.5933 37.4983 23.7082C37.0176 22.8193 36.7773 21.7647 36.7773 20.5443C36.7773 19.5952 36.9226 18.7534 37.2134 18.0189C37.5041 17.2807 37.9092 16.6554 38.4286 16.1432C38.9519 15.6309 39.5566 15.243 40.2428 14.9793C40.9328 14.7157 41.6751 14.5839 42.4697 14.5839C43.1597 14.5839 43.8013 14.6799 44.3944 14.872C44.9913 15.0641 45.5185 15.3353 45.9759 15.6856C46.4372 16.0358 46.8113 16.452 47.0982 16.9342C47.385 17.4163 47.5633 17.9455 47.6331 18.5217H44.72Z" fill="#F1F2F9"/>
<path d="M49.4574 26.3127V14.7421H57.7607V17.0133H52.3357V19.3861H57.3362V21.663H52.3357V24.0415H57.7607V26.3127H49.4574Z" fill="#F1F2F9"/>
<path d="M59.1736 17.0133V14.7421H69.2387V17.0133H65.6278V26.3127H62.7903V17.0133H59.1736Z" fill="#F1F2F9"/>
<path d="M77.0811 18.211C77.0423 17.7967 76.8698 17.4746 76.5636 17.2449C76.2612 17.0114 75.829 16.8946 75.2669 16.8946C74.8948 16.8946 74.5847 16.9417 74.3366 17.0359C74.0885 17.13 73.9024 17.26 73.7784 17.4257C73.6544 17.5876 73.5904 17.7741 73.5865 17.985C73.5788 18.1583 73.6136 18.3108 73.6912 18.4426C73.7726 18.5745 73.8889 18.6912 74.0401 18.7929C74.1951 18.8909 74.3812 18.9775 74.5983 19.0528C74.8153 19.1281 75.0595 19.1941 75.3309 19.2506L76.3543 19.4765C76.9435 19.6008 77.4629 19.7666 77.9126 19.9737C78.3661 20.1809 78.746 20.4276 79.0522 20.7138C79.3623 21.0001 79.5969 21.3297 79.7558 21.7025C79.9147 22.0754 79.9961 22.4935 80 22.9568C79.9961 23.6875 79.8062 24.3146 79.4302 24.8381C79.0542 25.3617 78.5134 25.7628 77.8079 26.0415C77.1063 26.3203 76.2593 26.4596 75.2669 26.4596C74.2707 26.4596 73.4024 26.3146 72.662 26.0246C71.9216 25.7346 71.346 25.2939 70.9351 24.7026C70.5242 24.1112 70.3129 23.3636 70.3013 22.4596H73.0574C73.0807 22.8325 73.1834 23.1432 73.3656 23.3918C73.5478 23.6404 73.7978 23.8287 74.1156 23.9568C74.4374 24.0848 74.8095 24.1489 75.232 24.1489C75.6197 24.1489 75.9492 24.098 76.2205 23.9963C76.4957 23.8946 76.707 23.7534 76.8543 23.5726C77.0016 23.3918 77.0772 23.1847 77.0811 22.9511C77.0772 22.7327 77.0074 22.5462 76.8718 22.3918C76.7361 22.2336 76.5268 22.098 76.2438 21.985C75.9647 21.8683 75.6081 21.7609 75.1739 21.663L73.9296 21.3805C72.8985 21.1507 72.0863 20.7797 71.4933 20.2675C70.9002 19.7515 70.6056 19.0547 70.6095 18.1771C70.6056 17.4615 70.8033 16.8343 71.2025 16.2957C71.6018 15.7571 72.1542 15.3372 72.8597 15.0358C73.5652 14.7345 74.3696 14.5839 75.2728 14.5839C76.1953 14.5839 76.9958 14.7364 77.6742 15.0415C78.3564 15.3428 78.8855 15.7665 79.2616 16.3127C79.6376 16.8588 79.8294 17.4916 79.8372 18.211H77.0811Z" fill="#F1F2F9"/>
</svg>
