<?xml version="1.0" encoding="utf-8"?><svg version="1.1" id="Layer_1" xmlns="http://www.w3.org/2000/svg" xmlns:xlink="http://www.w3.org/1999/xlink" x="0px" y="0px" viewBox="0 0 106.06 122.88" style="enable-background:new 0 0 106.06 122.88" xml:space="preserve"><style type="text/css">.st0{fill-rule:evenodd;clip-rule:evenodd;fill:#D3141B;} .st1{fill-rule:evenodd;clip-rule:evenodd;fill:#7DB820;} .st2{fill-rule:evenodd;clip-rule:evenodd;fill:#537918;} .st3{fill-rule:evenodd;clip-rule:evenodd;fill:#543429;} .st4{fill-rule:evenodd;clip-rule:evenodd;fill:#FFFFFF;}</style><g><path class="st0" d="M41.57,31.85C7.85,21.26-10.8,60.03,6.67,90.74c5.23,9.19,11.57,18.65,21.4,27.25 c9.35,6.7,17.58,5.78,25.19,1.63c6.05,2.87,12.45,4.01,19.33,1.43c10.11-3.8,20.41-18.8,25.26-28.07 c10.6-20.27,14.2-46.28-9.44-58.96c-6.45-3.46-14.52-4.47-24.74-2.18C56.87,34.18,48.42,33.94,41.57,31.85L41.57,31.85z"/><path class="st1" d="M33.99,28.12c5.16,0.64,10.71-0.55,16.69-3.75l1.14-5.83C45.3,7.04,34.29,1.09,16.17,3.86L9.05,4.61 C14.26,15.44,20.69,26.49,33.99,28.12L33.99,28.12L33.99,28.12z"/><path class="st2" d="M17.3,8.52c11.85,4.1,19.55,5.74,29.5,13.44C35.06,18.1,27.61,15.57,17.3,8.52L17.3,8.52z"/><path class="st3" d="M50.08,25.82l0.07-0.04c-0.34,2.54-0.49,4.89-0.46,7.69L56,33.6c-0.07-5.33,0.62-9.87,1.99-14.06 c1.83-5.58,4.92-10.23,9.07-14.07c1.28-1.18,1.36-3.17,0.19-4.45c-1.18-1.28-3.17-1.36-4.45-0.19c-4.95,4.57-8.61,10.1-10.8,16.76 c-0.28,0.86-0.55,1.75-0.78,2.65l-0.04-0.07L50.08,25.82L50.08,25.82z"/><path class="st4" d="M16.87,78.58c1.25-0.42,2.61,0.25,3.03,1.51c1.35,4.04,3.37,7.67,5.88,10.98c2.56,3.35,5.63,6.38,9.07,9.18 c1.02,0.83,1.18,2.34,0.35,3.37c-0.83,1.02-2.34,1.18-3.37,0.35c-3.73-3.03-7.06-6.33-9.85-9.99c-2.83-3.71-5.09-7.79-6.62-12.36 C14.95,80.36,15.62,79.01,16.87,78.58L16.87,78.58L16.87,78.58z"/></g></svg>