<svg>
  <symbol id="icon-cart" width="inherit" height="inherit" viewBox="0 0 16 16" xmlns="http://www.w3.org/2000/svg">
    <path fill-rule="evenodd" clip-rule="evenodd" d="M3.46683 0.933323C3.59273 0.765453 3.79032 0.666656 4.00016 0.666656H12.0002C12.21 0.666656 12.4076 0.765453 12.5335 0.933323L14.5335 3.59999C14.62 3.71539 14.6668 3.85574 14.6668 3.99999V13.3333C14.6668 13.8638 14.4561 14.3725 14.081 14.7475C13.706 15.1226 13.1973 15.3333 12.6668 15.3333H3.3335C2.80306 15.3333 2.29436 15.1226 1.91928 14.7475C1.54421 14.3725 1.3335 13.8638 1.3335 13.3333V3.99999C1.3335 3.85574 1.38028 3.71539 1.46683 3.59999L3.46683 0.933323ZM4.3335 1.99999L2.66683 4.22221V13.3333C2.66683 13.5101 2.73707 13.6797 2.86209 13.8047C2.98712 13.9298 3.15669 14 3.3335 14H12.6668C12.8436 14 13.0132 13.9298 13.1382 13.8047C13.2633 13.6797 13.3335 13.5101 13.3335 13.3333V4.22221L11.6668 1.99999H4.3335Z" fill="inherit"/>
    <path fill-rule="evenodd" clip-rule="evenodd" d="M1.3335 4.00001C1.3335 3.63182 1.63197 3.33334 2.00016 3.33334H14.0002C14.3684 3.33334 14.6668 3.63182 14.6668 4.00001C14.6668 4.3682 14.3684 4.66668 14.0002 4.66668H2.00016C1.63197 4.66668 1.3335 4.3682 1.3335 4.00001Z" fill="inherit"/>
    <path fill-rule="evenodd" clip-rule="evenodd" d="M5.33341 6C5.7016 6 6.00008 6.29848 6.00008 6.66667C6.00008 7.1971 6.21079 7.70581 6.58587 8.08088C6.96094 8.45595 7.46965 8.66667 8.00008 8.66667C8.53051 8.66667 9.03922 8.45595 9.41429 8.08088C9.78937 7.70581 10.0001 7.1971 10.0001 6.66667C10.0001 6.29848 10.2986 6 10.6667 6C11.0349 6 11.3334 6.29848 11.3334 6.66667C11.3334 7.55072 10.9822 8.39857 10.3571 9.02369C9.73198 9.64881 8.88414 10 8.00008 10C7.11603 10 6.26818 9.64881 5.64306 9.02369C5.01794 8.39857 4.66675 7.55072 4.66675 6.66667C4.66675 6.29848 4.96522 6 5.33341 6Z" fill="inherit"/>
  </symbol>

  <symbol id="icon-search" width="inherit" height="inherit" viewBox="0 0 16 16" xmlns="http://www.w3.org/2000/svg">
   <path fill-rule="evenodd" clip-rule="evenodd" d="M2.66683 7.33334C2.66683 4.75601 4.75617 2.66668 7.3335 2.66668C9.91083 2.66668 12.0002 4.75601 12.0002 7.33334C12.0002 8.59061 11.503 9.73176 10.6945 10.5709C10.6716 10.5884 10.6497 10.6077 10.6287 10.6286C10.6078 10.6495 10.5886 10.6715 10.571 10.6943C9.73189 11.5028 8.59075 12 7.3335 12C4.75617 12 2.66683 9.91067 2.66683 7.33334ZM11.0786 12.0213C10.0522 12.8424 8.75016 13.3333 7.3335 13.3333C4.01979 13.3333 1.3335 10.6471 1.3335 7.33334C1.3335 4.01963 4.01979 1.33334 7.3335 1.33334C10.6472 1.33334 13.3335 4.01963 13.3335 7.33334C13.3335 8.75003 12.8425 10.052 12.0214 11.0785L14.4715 13.5286C14.7319 13.789 14.7319 14.2111 14.4715 14.4714C14.2112 14.7318 13.7891 14.7318 13.5287 14.4714L11.0786 12.0213Z" fill="inherit"/>
  </symbol>

  <symbol id="icon-home" width="inherit" height="inherit" viewBox="0 0 16 16" xmlns="http://www.w3.org/2000/svg">
    <path fill-rule="evenodd" clip-rule="evenodd" d="M7.59087 0.807088C7.83161 0.619846 8.16872 0.619846 8.40946 0.807088L14.4095 5.47375C14.5718 5.60006 14.6668 5.79426 14.6668 5.99999V13.3333C14.6668 13.8638 14.4561 14.3725 14.081 14.7475C13.706 15.1226 13.1973 15.3333 12.6668 15.3333H3.3335C2.80306 15.3333 2.29436 15.1226 1.91928 14.7475C1.54421 14.3725 1.3335 13.8638 1.3335 13.3333V5.99999C1.3335 5.79426 1.42848 5.60006 1.59087 5.47375L7.59087 0.807088ZM2.66683 6.32605V13.3333C2.66683 13.5101 2.73707 13.6797 2.86209 13.8047C2.98712 13.9298 3.15669 14 3.3335 14H12.6668C12.8436 14 13.0132 13.9298 13.1382 13.8047C13.2633 13.6797 13.3335 13.5101 13.3335 13.3333V6.32605L8.00016 2.1779L2.66683 6.32605Z" fill="inherit"/>
    <path fill-rule="evenodd" clip-rule="evenodd" d="M5.3335 8.00001C5.3335 7.63182 5.63197 7.33334 6.00016 7.33334H10.0002C10.3684 7.33334 10.6668 7.63182 10.6668 8.00001V14.6667C10.6668 15.0349 10.3684 15.3333 10.0002 15.3333C9.63197 15.3333 9.3335 15.0349 9.3335 14.6667V8.66668H6.66683V14.6667C6.66683 15.0349 6.36835 15.3333 6.00016 15.3333C5.63197 15.3333 5.3335 15.0349 5.3335 14.6667V8.00001Z" fill="inherit"/>
  </symbol>

  <symbol id="icon-heart" width="inherit" height="inherit" viewBox="0 0 23 20" xmlns="http://www.w3.org/2000/svg">
    <path fill-rule="evenodd" clip-rule="evenodd" d="M12 6.00019C10.2006 3.90317 7.19377 3.2551 4.93923 5.17534C2.68468 7.09558 2.36727 10.3061 4.13778 12.5772C5.60984 14.4654 10.0648 18.4479 11.5249 19.7369C11.6882 19.8811 11.7699 19.9532 11.8652 19.9815C11.9483 20.0062 12.0393 20.0062 12.1225 19.9815C12.2178 19.9532 12.2994 19.8811 12.4628 19.7369C13.9229 18.4479 18.3778 14.4654 19.8499 12.5772C21.6204 10.3061 21.3417 7.07538 19.0484 5.17534C16.7551 3.2753 13.7994 3.90317 12 6.00019Z" stroke="inherit" stroke-width="1" stroke-linecap="round" stroke-linejoin="round"/>
  </symbol>

  <symbol id="icon-arrow-right" width="inherit" height="inherit" xmlns="http://www.w3.org/2000/svg">
    <path fill-rule="evenodd" clip-rule="evenodd" d="M5.52876 3.52861C5.78911 3.26826 6.21122 3.26826 6.47157 3.52861L10.4716 7.52861C10.7319 7.78896 10.7319 8.21107 10.4716 8.47141L6.47157 12.4714C6.21122 12.7318 5.78911 12.7318 5.52876 12.4714C5.26841 12.2111 5.26841 11.789 5.52876 11.5286L9.05735 8.00001L5.52876 4.47141C5.26841 4.21107 5.26841 3.78896 5.52876 3.52861Z" fill="inherit"/>
  </symbol>

  <symbol id="icon-arrow-left" width="inherit" height="inherit" xmlns="http://www.w3.org/2000/svg">
    <path fill-rule="evenodd" clip-rule="evenodd" d="M10.4715 3.52861C10.2111 3.26826 9.78903 3.26826 9.52868 3.52861L5.52868 7.52861C5.26833 7.78896 5.26833 8.21107 5.52868 8.47141L9.52868 12.4714C9.78903 12.7318 10.2111 12.7318 10.4715 12.4714C10.7318 12.2111 10.7318 11.789 10.4715 11.5286L6.94289 8.00001L10.4715 4.47141C10.7318 4.21107 10.7318 3.78896 10.4715 3.52861Z" fill="inherit"/>
  </symbol>

  <svg id="icon-arrow-down" width="inherit" height="inherit" xmlns="http://www.w3.org/2000/svg">
    <path fill-rule="evenodd" clip-rule="evenodd" d="M12.4714 5.52864C12.7317 5.78899 12.7317 6.2111 12.4714 6.47145L8.47136 10.4714C8.21101 10.7318 7.7889 10.7318 7.52855 10.4714L3.52855 6.47144C3.2682 6.2111 3.2682 5.78899 3.52855 5.52864C3.7889 5.26829 4.21101 5.26829 4.47136 5.52864L7.99996 9.05723L11.5286 5.52864C11.7889 5.26829 12.211 5.26829 12.4714 5.52864Z" fill="inherit"/>
  </svg>

  <svg id="icon-minus" width="inherit" height="inherit" xmlns="http://www.w3.org/2000/svg">
    <path fill-rule="evenodd" clip-rule="evenodd" d="M0.666504 0.999995C0.666504 0.631805 0.964981 0.333328 1.33317 0.333328H10.6665C11.0347 0.333328 11.3332 0.631805 11.3332 0.999995C11.3332 1.36818 11.0347 1.66666 10.6665 1.66666H1.33317C0.964981 1.66666 0.666504 1.36818 0.666504 0.999995Z" fill="inherit"/>
  </svg>

  <svg id="icon-plus" width="inherit" height="inherit" xmlns="http://www.w3.org/2000/svg">
    <path fill-rule="evenodd" clip-rule="evenodd" d="M6.6665 1.33334C6.6665 0.965149 6.36803 0.666672 5.99984 0.666672C5.63165 0.666672 5.33317 0.965149 5.33317 1.33334V5.33334H1.33317C0.964981 5.33334 0.666504 5.63182 0.666504 6.00001C0.666504 6.3682 0.964981 6.66667 1.33317 6.66667H5.33317V10.6667C5.33317 11.0349 5.63165 11.3333 5.99984 11.3333C6.36803 11.3333 6.6665 11.0349 6.6665 10.6667V6.66667H10.6665C11.0347 6.66667 11.3332 6.3682 11.3332 6.00001C11.3332 5.63182 11.0347 5.33334 10.6665 5.33334H6.6665V1.33334Z" fill="inherit"/>
  </svg>

  <svg id="icon-cross" width="inherit" height="inherit" xmlns="http://www.w3.org/2000/svg">
    <path fill-rule="evenodd" clip-rule="evenodd" d="M9.47157 1.4714C9.73192 1.21105 9.73192 0.78894 9.47157 0.52859C9.21122 0.268241 8.78911 0.268241 8.52876 0.52859L5.00016 4.05719L1.47157 0.52859C1.21122 0.268241 0.789108 0.268241 0.528758 0.52859C0.268409 0.78894 0.268409 1.21105 0.528758 1.4714L4.05735 4.99999L0.528758 8.52859C0.268409 8.78894 0.268409 9.21105 0.528758 9.4714C0.789108 9.73175 1.21122 9.73175 1.47157 9.4714L5.00016 5.9428L8.52876 9.4714C8.78911 9.73175 9.21122 9.73175 9.47157 9.4714C9.73192 9.21105 9.73192 8.78894 9.47157 8.52859L5.94297 4.99999L9.47157 1.4714Z" fill="inherit"/>
  </svg>

</svg>
