<?xml version="1.0" ?><!DOCTYPE svg  PUBLIC '-//W3C//DTD SVG 1.1//EN'  'http://www.w3.org/Graphics/SVG/1.1/DTD/svg11.dtd'><svg enable-background="new 0 0 30 30" height="30px" id="Capa_1" version="1.1" viewBox="0 0 30 30" width="30px" xml:space="preserve" xmlns="http://www.w3.org/2000/svg" xmlns:xlink="http://www.w3.org/1999/xlink"><g><g><path d="M14.6,15.9H7.9c-1.5,0-2.7,1.2-2.7,2.7v1.9c0,1.5,1.2,2.7,2.7,2.7h6.7c1.5,0,2.7-1.2,2.7-2.7v-1.9    C17.3,17.1,16.1,15.9,14.6,15.9z M15.8,20.5c0,0.7-0.5,1.2-1.2,1.2H7.9c-0.7,0-1.2-0.5-1.2-1.2v-1.9c0-0.7,0.5-1.2,1.2-1.2h6.7    c0.7,0,1.2,0.5,1.2,1.2V20.5z M29.6,10.9l-1.4-7.4c-0.1-0.4-0.4-0.6-0.7-0.6h-25c-0.4,0-0.7,0.3-0.7,0.6L0.6,9.6    c-0.2,0.5-0.3,1-0.3,1.5c0,1.5,0.8,2.9,2.1,3.6v10.3c0,1.2,1,2.2,2.2,2.2h14c0.4,0,0.8-0.3,0.8-0.8c0,0,0,0,0-0.1c0,0,0,0,0-0.1    v-9h4v9c0,0,0,0,0,0.1c0,0,0,0,0,0.1c0,0.4,0.3,0.8,0.8,0.8h1.4c1.2,0,2.2-1,2.2-2.2V14.5c1.1-0.7,1.8-1.9,1.9-3.2    C29.7,11.2,29.7,11,29.6,10.9z M26.2,24.9c0,0.4-0.3,0.7-0.7,0.7h-0.7v-9.1c0-0.4-0.3-0.8-0.8-0.8h-5.5c-0.4,0-0.8,0.3-0.8,0.8    v9.1H4.6c-0.4,0-0.7-0.3-0.7-0.7v-9.7c0.2,0,0.4,0.1,0.6,0.1c1.4,0,2.7-0.7,3.5-1.8c0.8,1.1,2,1.8,3.5,1.8s2.7-0.7,3.5-1.8    c0.8,1.1,2,1.8,3.5,1.8s2.7-0.7,3.5-1.8c0.8,1.1,2,1.8,3.5,1.8c0.3,0,0.6,0,0.8-0.1V24.9z M28.1,11c0,1.5-1.2,2.7-2.7,2.7    s-2.7-1.2-2.7-2.7c0-0.4-0.3-0.8-0.8-0.8s-0.8,0.3-0.8,0.8c0,1.5-1.2,2.7-2.7,2.7s-2.7-1.2-2.7-2.7c0-0.4-0.3-0.8-0.8-0.8    s-0.8,0.3-0.8,0.8c0,1.5-1.2,2.7-2.7,2.7c-1.5,0-2.7-1.2-2.7-2.7c0-0.4-0.3-0.8-0.8-0.8S7.3,10.6,7.3,11c0,1.5-1.2,2.7-2.7,2.7    c-1.5,0-2.7-1.2-2.7-2.7c0-0.3,0.1-0.7,0.2-1c0,0,0-0.1,0-0.1l1.1-5.5h23.8l1.2,6.5C28.1,11,28.1,11,28.1,11z" fill="#262324"/></g></g></svg>