<svg width="40" height="40" viewBox="0 0 40 40" fill="none" xmlns="http://www.w3.org/2000/svg">
<g clip-path="url(#clip0_716_395)">
<path d="M19.9918 0C8.9346 0 0 8.95104 0 19.9918C0 28.4656 5.26532 35.7055 12.7026 38.6178C12.5216 37.0382 12.3735 34.603 12.7684 32.8754C13.1304 31.3122 15.1049 22.9371 15.1049 22.9371C15.1049 22.9371 14.5126 21.7359 14.5126 19.9753C14.5126 17.1946 16.125 15.1214 18.1324 15.1214C19.8437 15.1214 20.6664 16.4048 20.6664 17.935C20.6664 19.6462 19.5804 22.2131 19.0045 24.5989C18.5274 26.5899 20.0082 28.2188 21.9663 28.2188C25.5204 28.2188 28.2518 24.4673 28.2518 19.0704C28.2518 14.2822 24.8128 10.942 19.893 10.942C14.1999 10.942 10.8597 15.2036 10.8597 19.6133C10.8597 21.3246 11.5179 23.1674 12.3406 24.1711C12.5052 24.3686 12.5216 24.5496 12.4722 24.747C12.3242 25.3723 11.9786 26.738 11.9128 27.0177C11.8305 27.3797 11.6166 27.462 11.2382 27.281C8.77004 26.0962 7.22336 22.4434 7.22336 19.5146C7.22336 13.2127 11.7976 7.4208 20.436 7.4208C27.3632 7.4208 32.7602 12.357 32.7602 18.9716C32.7602 25.8659 28.4163 31.411 22.3941 31.411C20.3702 31.411 18.4615 30.3579 17.8198 29.1074C17.8198 29.1074 16.8161 32.9247 16.5693 33.8626C16.125 35.6068 14.9074 37.7787 14.0847 39.1115C15.9605 39.6874 17.935 40 20.0082 40C31.049 40 40 31.049 40 20.0082C39.9836 8.95104 31.0325 0 19.9918 0Z" fill="#BE1427"/>
</g>
<defs>
<clipPath id="clip0_716_395">
<rect width="40" height="40" rx="6" fill="white"/>
</clipPath>
</defs>
</svg>
