<svg width="40" height="40" viewBox="0 0 40 40" fill="none" xmlns="http://www.w3.org/2000/svg">
<path d="M28.6534 14.4388C31.2256 16.2841 34.3768 17.3698 37.7801 17.3698V10.7974C37.1361 10.7975 36.4936 10.7301 35.8635 10.5961V15.7696C32.4604 15.7696 29.3096 14.6838 26.7367 12.8387V26.2511C26.7367 32.9607 21.3169 38.3995 14.6315 38.3995C12.1371 38.3995 9.81855 37.6427 7.89258 36.3447C10.0908 38.6004 13.1563 39.9996 16.5478 39.9996C23.2335 39.9996 28.6537 34.5608 28.6537 27.851V14.4388H28.6534ZM31.0178 7.808C29.7033 6.36672 28.8402 4.50413 28.6534 2.44497V1.59961H26.8371C27.2943 4.21681 28.8537 6.45279 31.0178 7.808ZM12.1211 31.196C11.3866 30.2296 10.9897 29.0473 10.9915 27.8317C10.9915 24.763 13.4705 22.2749 16.5289 22.2749C17.0989 22.2747 17.6655 22.3623 18.2087 22.5353V15.816C17.5739 15.7286 16.9332 15.6916 16.2928 15.7052V20.9352C15.7492 20.7622 15.1824 20.6744 14.6122 20.6749C11.5538 20.6749 9.07493 23.1628 9.07493 26.2319C9.07493 28.402 10.314 30.2808 12.1211 31.196Z" fill="#BE1427"/>
<path d="M26.7366 12.8385C29.3096 14.6837 32.4603 15.7694 35.8634 15.7694V10.596C33.9638 10.1899 32.2822 9.19368 31.0178 7.808C28.8535 6.45265 27.2942 4.21667 26.837 1.59961H22.066V27.8507C22.0552 30.911 19.5804 33.389 16.5286 33.389C14.7302 33.389 13.1325 32.5287 12.1206 31.196C10.3137 30.2808 9.0746 28.4019 9.0746 26.232C9.0746 23.1632 11.5535 20.675 14.6119 20.675C15.1979 20.675 15.7627 20.7666 16.2925 20.9353V15.7053C9.72456 15.8415 4.44238 21.2272 4.44238 27.8508C4.44238 31.1573 5.75777 34.1548 7.89265 36.3449C9.81863 37.6427 12.1371 38.3997 14.6316 38.3997C21.3171 38.3997 26.7368 32.9606 26.7368 26.2511V12.8385H26.7366Z" fill="#BE1427"/>
</svg>
