<svg width="16.000000" height="16.000000" viewBox="0 0 16 16" fill="none" xmlns="http://www.w3.org/2000/svg" xmlns:xlink="http://www.w3.org/1999/xlink">
	<desc>
			Created with Pixso.
	</desc>
	<defs/>
	<rect id="Icons/Home" width="16.000000" height="16.000000" fill="#FFFFFF" fill-opacity="0"/>
	<path id="Vector (Stroke)" d="M7.59 0.8C7.83 0.61 8.16 0.61 8.41 0.8L14.41 5.47C14.57 5.6 14.66 5.79 14.66 5.99L14.66 13.33C14.66 13.86 14.45 14.37 14.08 14.74C13.7 15.12 13.19 15.33 12.66 15.33L3.33 15.33C2.8 15.33 2.29 15.12 1.91 14.74C1.54 14.37 1.33 13.86 1.33 13.33L1.33 5.99C1.33 5.79 1.42 5.6 1.59 5.47L7.59 0.8ZM2.66 6.32L2.66 13.33C2.66 13.51 2.73 13.67 2.86 13.8C2.98 13.92 3.15 14 3.33 14L12.66 14C12.84 14 13.01 13.92 13.13 13.8C13.26 13.67 13.33 13.51 13.33 13.33L13.33 6.32L8 2.17L2.66 6.32Z" fill="#0F0F11" fill-opacity="1.000000" fill-rule="evenodd"/>
	<path id="Vector (Stroke)" d="M5.33 8C5.33 7.63 5.63 7.33 6 7.33L10 7.33C10.36 7.33 10.66 7.63 10.66 8L10.66 14.66C10.66 15.03 10.36 15.33 10 15.33C9.63 15.33 9.33 15.03 9.33 14.66L9.33 8.66L6.66 8.66L6.66 14.66C6.66 15.03 6.36 15.33 6 15.33C5.63 15.33 5.33 15.03 5.33 14.66L5.33 8Z" fill="#0F0F11" fill-opacity="1.000000" fill-rule="evenodd"/>
</svg>
