<svg width="10" height="10" viewBox="0 0 10 10" fill="none" xmlns="http://www.w3.org/2000/svg">
<path fill-rule="evenodd" clip-rule="evenodd" d="M9.47144 1.4714C9.73179 1.21105 9.73179 0.78894 9.47144 0.52859C9.21109 0.268241 8.78899 0.268241 8.52864 0.52859L5.00004 4.05719L1.47145 0.52859C1.2111 0.268241 0.788986 0.268241 0.528636 0.52859C0.268287 0.78894 0.268287 1.21105 0.528636 1.4714L4.05723 4.99999L0.528636 8.52859C0.268287 8.78894 0.268287 9.21105 0.528636 9.4714C0.788986 9.73175 1.2111 9.73175 1.47145 9.4714L5.00004 5.9428L8.52864 9.4714C8.78899 9.73175 9.21109 9.73175 9.47144 9.4714C9.73179 9.21105 9.73179 8.78894 9.47144 8.52859L5.94285 4.99999L9.47144 1.4714Z" fill="#F1F2F9"/>
</svg>
