<svg width="49" height="48" viewBox="0 0 49 48" fill="none" xmlns="http://www.w3.org/2000/svg">
<g filter="url(#filter0_d_36513_2574)">
<rect width="48" height="48" transform="translate(1)" fill="white"/>
<path fill-rule="evenodd" clip-rule="evenodd" d="M26.6285 17.6314C27.1584 17.4118 27.7264 17.2988 28.3 17.2988C28.8737 17.2988 29.4416 17.4118 29.9716 17.6314C30.5015 17.8509 30.983 18.1728 31.3885 18.5785C31.7941 18.9839 32.1158 19.4653 32.3353 19.9951C32.5549 20.5251 32.6679 21.0931 32.6679 21.6667C32.6679 22.2403 32.5549 22.8083 32.3353 23.3382C32.1158 23.8681 31.794 24.3495 31.3884 24.755C31.3883 24.755 31.3884 24.7549 31.3884 24.755L25.495 30.6483C25.2217 30.9217 24.7784 30.9217 24.5051 30.6483L18.6117 24.755C17.7927 23.9359 17.3325 22.825 17.3325 21.6667C17.3325 20.5083 17.7927 19.3974 18.6117 18.5784C19.4308 17.7593 20.5417 17.2991 21.7 17.2991C22.8584 17.2991 23.9693 17.7593 24.7884 18.5784L25 18.7901L25.2116 18.5785C25.2116 18.5785 25.2117 18.5784 25.2116 18.5785C25.6171 18.1728 26.0986 17.8509 26.6285 17.6314ZM30.3983 19.5682C30.1228 19.2926 29.7957 19.0739 29.4357 18.9247C29.0756 18.7756 28.6898 18.6988 28.3 18.6988C27.9103 18.6988 27.5245 18.7756 27.1644 18.9247C26.8044 19.0739 26.4773 19.2926 26.2018 19.5682L25.495 20.275C25.2217 20.5483 24.7784 20.5483 24.5051 20.275L23.7984 19.5683C23.2419 19.0118 22.4871 18.6991 21.7 18.6991C20.913 18.6991 20.1582 19.0118 19.6017 19.5683C19.0452 20.1248 18.7325 20.8796 18.7325 21.6667C18.7325 22.4537 19.0452 23.2085 19.6017 23.765L25 29.1634L30.3984 23.765C30.674 23.4895 30.8928 23.1623 31.042 22.8023C31.1911 22.4423 31.2679 22.0564 31.2679 21.6667C31.2679 21.277 31.1911 20.8911 31.042 20.531C30.8928 20.171 30.6739 19.8437 30.3983 19.5682Z" fill="#0F0F11"/>
</g>
<defs>
<filter id="filter0_d_36513_2574" x="0" y="0" width="49" height="48" filterUnits="userSpaceOnUse" color-interpolation-filters="sRGB">
<feFlood flood-opacity="0" result="BackgroundImageFix"/>
<feColorMatrix in="SourceAlpha" type="matrix" values="0 0 0 0 0 0 0 0 0 0 0 0 0 0 0 0 0 0 127 0" result="hardAlpha"/>
<feOffset dx="-1"/>
<feColorMatrix type="matrix" values="0 0 0 0 0.886275 0 0 0 0 0.901961 0 0 0 0 0.913725 0 0 0 1 0"/>
<feBlend mode="normal" in2="BackgroundImageFix" result="effect1_dropShadow_36513_2574"/>
<feBlend mode="normal" in="SourceGraphic" in2="effect1_dropShadow_36513_2574" result="shape"/>
</filter>
</defs>
</svg>
