<svg width="46" height="25" viewBox="0 0 46 25" fill="none" xmlns="http://www.w3.org/2000/svg">
<path d="M9.06093 11.8608H11.1054L6.36228 0.53398H4.59589L0 11.8608H1.99537L2.96034 9.40129H8.0796L9.06093 11.8608ZM5.51179 2.96117L7.42538 7.73463H3.61456L5.51179 2.96117Z" fill="black"/>
<path d="M16.8797 2.91262C15.604 2.91262 14.4918 3.39806 13.6904 4.20712L13.347 3.12298H12.1366V15H13.9521V11.0356C14.7208 11.699 15.7349 12.0874 16.8797 12.0874C19.513 12.0874 21.4593 10.1133 21.4593 7.49191C21.4593 4.87055 19.513 2.91262 16.8797 2.91262ZM16.7325 10.3722C15.0643 10.3722 13.8376 9.1424 13.8376 7.49191C13.8376 5.85761 15.0643 4.62783 16.7325 4.62783C18.4008 4.62783 19.6111 5.85761 19.6111 7.49191C19.6111 9.1424 18.4008 10.3722 16.7325 10.3722Z" fill="black"/>
<path d="M27.6654 2.91262C26.3897 2.91262 25.2775 3.39806 24.4761 4.20712L24.1326 3.12298H22.9223V15H24.7378V11.0356C25.5065 11.699 26.5205 12.0874 27.6654 12.0874C30.2986 12.0874 32.2449 10.1133 32.2449 7.49191C32.2449 4.87055 30.2986 2.91262 27.6654 2.91262ZM27.5182 10.3722C25.8499 10.3722 24.6233 9.1424 24.6233 7.49191C24.6233 5.85761 25.8499 4.62783 27.5182 4.62783C29.1865 4.62783 30.3968 5.85761 30.3968 7.49191C30.3968 9.1424 29.1865 10.3722 27.5182 10.3722Z" fill="black"/>
<path d="M33.708 11.8608H35.5234V0H33.708V11.8608Z" fill="black"/>
<path d="M46 7.52427C46 4.98382 44.2009 2.91262 41.4859 2.91262C38.9017 2.91262 36.9554 4.88673 36.9554 7.49191C36.9554 10.1133 38.9017 12.0874 41.4859 12.0874C43.4649 12.0874 45.0841 10.9547 45.7874 9.11003H43.8738C43.3995 9.91909 42.549 10.4045 41.4859 10.4045C40.0466 10.4045 39.0162 9.53074 38.7872 8.1068H45.9509C45.9836 7.91262 46 7.71845 46 7.52427ZM41.4859 4.54693C42.8434 4.54693 43.8411 5.32362 44.1682 6.65049H38.8363C39.1307 5.35599 40.1284 4.54693 41.4859 4.54693Z" fill="black"/>
<path d="M2.51409 18.1436H0V24.8468H2.51409C4.47585 24.8468 5.89479 23.4391 5.89479 21.4952C5.89479 19.5513 4.47585 18.1436 2.51409 18.1436ZM2.48553 23.5062H1.43799V19.4938H2.48553C3.6283 19.4938 4.41871 20.3078 4.41871 21.4952C4.41871 22.6635 3.6283 23.5062 2.48553 23.5062Z" fill="#89939A"/>
<path d="M10.725 24.8468H12.3344L10.8583 22.3187C11.6011 21.9549 12.0773 21.2462 12.0773 20.3653C12.0773 19.0725 11.0774 18.1436 9.74412 18.1436H7.05862V24.8468H8.4966V22.5677H9.42034L10.725 24.8468ZM8.4966 19.4843H9.64889C10.2584 19.4843 10.6107 19.8577 10.6107 20.3557C10.6107 20.8632 10.2584 21.2271 9.64889 21.2271H8.4966V19.4843Z" fill="#89939A"/>
<path d="M16.4605 25C18.4889 25 20.0031 23.4966 20.0031 21.4952C20.0031 19.5034 18.4889 18 16.4605 18C14.4226 18 12.8989 19.513 12.8989 21.4952C12.8989 23.487 14.4226 25 16.4605 25ZM16.4605 23.6306C15.2701 23.6306 14.3654 22.7018 14.3654 21.4952C14.3654 20.2886 15.2701 19.3694 16.4605 19.3694C17.6509 19.3694 18.5365 20.2791 18.5365 21.4952C18.5365 22.7114 17.6509 23.6306 16.4605 23.6306Z" fill="#89939A"/>
<path d="M24.1956 25C25.8431 25 27.1382 23.8892 27.4429 22.2326H25.9859C25.7478 23.0752 25.0717 23.6115 24.1956 23.6115C23.0623 23.6115 22.2148 22.7114 22.2148 21.5048C22.2148 20.2982 23.0623 19.3885 24.1956 19.3885C25.0336 19.3885 25.7002 19.8865 25.9764 20.6717H27.4144C27.1096 19.0821 25.8145 18 24.1956 18C22.2338 18 20.7482 19.513 20.7482 21.5048C20.7482 23.487 22.2338 25 24.1956 25Z" fill="#89939A"/>
<path d="M32.4376 18.1436V20.7291H29.9235V18.1436H28.4856V24.8468H29.9235V22.0793H32.4376V24.8468H33.8756V18.1436H32.4376Z" fill="#89939A"/>
<path d="M36.8427 23.5062V22.1272H39.1568V20.8153H36.8427V19.4843H39.4044V18.1436H35.4047V24.8468H39.5091V23.5062H36.8427Z" fill="#89939A"/>
<path d="M44.3906 24.8468H46L44.5239 22.3187C45.2667 21.9549 45.7429 21.2462 45.7429 20.3653C45.7429 19.0725 44.743 18.1436 43.4097 18.1436H40.7242V24.8468H42.1622V22.5677H43.0859L44.3906 24.8468ZM42.1622 19.4843H43.3145C43.924 19.4843 44.2763 19.8577 44.2763 20.3557C44.2763 20.8632 43.924 21.2271 43.3145 21.2271H42.1622V19.4843Z" fill="#89939A"/>
</svg>
