<svg width="64" height="21" viewBox="0 0 64 21" fill="none" xmlns="http://www.w3.org/2000/svg">
<path d="M8.2102 0.124294V9.21554H6.2565L2.46538 3.96854H2.40491V9.21554H0.102337V0.124294H2.08395L5.83319 5.36241H5.91227V0.124294H8.2102Z" fill="#313237"/>
<path d="M11.9606 0.124294V9.21554H9.65803V0.124294H11.9606Z" fill="#313237"/>
<path d="M22.0536 3.41809H19.7277C19.6967 3.19022 19.6331 2.98454 19.537 2.80106C19.4409 2.61758 19.3137 2.46073 19.1556 2.33052C18.9974 2.20031 18.8098 2.10117 18.5927 2.0331C18.3787 1.96207 18.1415 1.92656 17.881 1.92656C17.419 1.92656 17.0205 2.03458 16.6855 2.25061C16.3537 2.46665 16.0979 2.77887 15.918 3.18726C15.7413 3.59566 15.6529 4.08987 15.6529 4.66992C15.6529 5.27363 15.7428 5.77969 15.9227 6.18808C16.1056 6.59352 16.3615 6.89981 16.6902 7.10697C17.022 7.31117 17.4143 7.41327 17.8671 7.41327C18.1214 7.41327 18.3524 7.38219 18.5602 7.32005C18.771 7.2579 18.9556 7.16764 19.1137 7.04926C19.275 6.92793 19.4068 6.78144 19.5091 6.60979C19.6145 6.43519 19.6874 6.23839 19.7277 6.0194L22.0536 6.03271C22.0133 6.43519 21.8908 6.83175 21.6861 7.22239C21.4845 7.61303 21.207 7.96963 20.8534 8.29221C20.4999 8.61182 20.0689 8.86633 19.5603 9.05573C19.0548 9.24513 18.4749 9.33983 17.8205 9.33983C16.9584 9.33983 16.1863 9.15931 15.504 8.79826C14.8249 8.43426 14.2884 7.90453 13.8945 7.20907C13.5007 6.51361 13.3038 5.66723 13.3038 4.66992C13.3038 3.66964 13.5038 2.82178 13.9038 2.12632C14.3039 1.43086 14.845 0.902614 15.5273 0.541568C16.2095 0.180523 16.9739 0 17.8205 0C18.3974 0 18.9307 0.0769442 19.4207 0.230833C19.9107 0.381761 20.3418 0.603715 20.7139 0.896694C21.086 1.18671 21.3884 1.54332 21.621 1.96651C21.8535 2.38971 21.9977 2.87357 22.0536 3.41809Z" fill="#313237"/>
<path d="M23.3712 9.21554V0.124294H30.0137V1.90881H25.6737V3.77322H29.6742V5.56217H25.6737V7.43102H30.0137V9.21554H23.3712Z" fill="#313237"/>
<path d="M6.35418 14.5528C6.30146 14.3663 6.22393 14.2021 6.1216 14.0601C6.01926 13.915 5.89367 13.7922 5.74481 13.6916C5.59596 13.591 5.4254 13.5155 5.23313 13.4652C5.04086 13.4119 4.82998 13.3853 4.6005 13.3853C4.13844 13.3853 3.73839 13.4919 3.40037 13.7049C3.06545 13.918 2.80651 14.2287 2.62354 14.6371C2.44058 15.0426 2.34909 15.5353 2.34909 16.1153C2.34909 16.6983 2.43748 17.1955 2.61424 17.6069C2.791 18.0182 3.04684 18.3319 3.38176 18.548C3.71668 18.764 4.12293 18.872 4.6005 18.872C5.02225 18.872 5.37888 18.8069 5.67039 18.6767C5.96499 18.5435 6.18827 18.3556 6.34023 18.1129C6.49218 17.8703 6.56816 17.5847 6.56816 17.2562L6.99611 17.305H4.67958V15.7025H8.78701V16.9055C8.78701 17.7193 8.60559 18.4163 8.24276 18.9963C7.88303 19.5764 7.38685 20.0217 6.75422 20.3325C6.1247 20.6432 5.40059 20.7986 4.5819 20.7986C3.67327 20.7986 2.87473 20.6107 2.18628 20.2348C1.49784 19.859 0.961345 19.3233 0.576807 18.6279C0.192269 17.9295 0 17.1008 0 16.142C0 15.3962 0.116292 14.7348 0.348875 14.1577C0.581459 13.5777 0.905525 13.0864 1.32107 12.6839C1.73972 12.2815 2.2235 11.9766 2.77239 11.7695C3.32439 11.5623 3.91826 11.4588 4.55398 11.4588C5.10598 11.4588 5.61922 11.5342 6.09369 11.6851C6.57126 11.8361 6.99301 12.0491 7.35894 12.3244C7.72797 12.5996 8.02723 12.9266 8.25671 13.3054C8.4862 13.6842 8.62885 14.1 8.68467 14.5528H6.35418Z" fill="#313237"/>
<path d="M11.9106 20.6743H9.43591L12.6502 11.583H15.7157L18.93 20.6743H16.4553L14.2178 13.8736H14.1434L11.9106 20.6743ZM11.5803 17.0964H16.753V18.7655H11.5803V17.0964Z" fill="#313237"/>
<path d="M23.477 20.6743H19.9557V11.583H23.4723C24.443 11.583 25.2787 11.765 25.9796 12.1291C26.6835 12.4901 27.2262 13.011 27.6077 13.6916C27.9891 14.3693 28.1798 15.1802 28.1798 16.1242C28.1798 17.0712 27.9891 17.8851 27.6077 18.5657C27.2293 19.2464 26.6882 19.7687 25.9842 20.1327C25.2803 20.4938 24.4445 20.6743 23.477 20.6743ZM22.2582 18.801H23.3886C23.922 18.801 24.3732 18.7152 24.7422 18.5435C25.1144 18.3689 25.395 18.0863 25.5842 17.6957C25.7765 17.3021 25.8726 16.7783 25.8726 16.1242C25.8726 15.4702 25.7765 14.9493 25.5842 14.5617C25.3919 14.171 25.1082 13.8899 24.7329 13.7182C24.3608 13.5436 23.9018 13.4563 23.356 13.4563H22.2582V18.801Z" fill="#313237"/>
<path d="M35.776 14.5528C35.7233 14.3663 35.6457 14.2021 35.5434 14.0601C35.4411 13.915 35.3155 13.7922 35.1666 13.6916C35.0178 13.591 34.8472 13.5155 34.6549 13.4652C34.4627 13.4119 34.2518 13.3853 34.0223 13.3853C33.5602 13.3853 33.1602 13.4919 32.8222 13.7049C32.4873 13.918 32.2283 14.2287 32.0454 14.6371C31.8624 15.0426 31.7709 15.5353 31.7709 16.1153C31.7709 16.6983 31.8593 17.1955 32.036 17.6069C32.2128 18.0182 32.4687 18.3319 32.8036 18.548C33.1385 18.764 33.5447 18.872 34.0223 18.872C34.4441 18.872 34.8007 18.8069 35.0922 18.6767C35.3868 18.5435 35.6101 18.3556 35.762 18.1129C35.914 17.8703 35.99 17.5847 35.99 17.2562L36.4179 17.305H34.1014V15.7025H38.2088V16.9055C38.2088 17.7193 38.0274 18.4163 37.6646 18.9963C37.3048 19.5764 36.8087 20.0217 36.176 20.3325C35.5465 20.6432 34.8224 20.7986 34.0037 20.7986C33.0951 20.7986 32.2965 20.6107 31.6081 20.2348C30.9196 19.859 30.3832 19.3233 29.9986 18.6279C29.6141 17.9295 29.4218 17.1008 29.4218 16.142C29.4218 15.3962 29.5381 14.7348 29.7707 14.1577C30.0033 13.5777 30.3273 13.0864 30.7429 12.6839C31.1615 12.2815 31.6453 11.9766 32.1942 11.7695C32.7462 11.5623 33.3401 11.4588 33.9758 11.4588C34.5278 11.4588 35.041 11.5342 35.5155 11.6851C35.9931 11.8361 36.4148 12.0491 36.7808 12.3244C37.1498 12.5996 37.449 12.9266 37.6785 13.3054C37.908 13.6842 38.0507 14.1 38.1065 14.5528H35.776Z" fill="#313237"/>
<path d="M39.5659 20.6743V11.583H46.2085V13.3676H41.8685V15.232H45.869V17.0209H41.8685V18.8898H46.2085V20.6743H39.5659Z" fill="#313237"/>
<path d="M47.3389 13.3676V11.583H55.3909V13.3676H52.5022V20.6743H50.2322V13.3676H47.3389Z" fill="#313237"/>
<path d="M61.6649 14.3086C61.6339 13.9831 61.4959 13.7301 61.2509 13.5496C61.009 13.3661 60.6632 13.2743 60.2135 13.2743C59.9158 13.2743 59.6677 13.3113 59.4693 13.3853C59.2708 13.4593 59.1219 13.5614 59.0227 13.6916C58.9235 13.8189 58.8723 13.9654 58.8692 14.1311C58.863 14.2672 58.8909 14.3871 58.9529 14.4906C59.0181 14.5942 59.1111 14.686 59.232 14.7659C59.3561 14.8428 59.5049 14.9109 59.6786 14.9701C59.8523 15.0293 60.0476 15.081 60.2647 15.1254L61.0834 15.303C61.5548 15.4007 61.9703 15.5309 62.3301 15.6936C62.6929 15.8564 62.9968 16.0502 63.2418 16.2752C63.4899 16.5001 63.6775 16.759 63.8046 17.052C63.9318 17.345 63.9969 17.6735 64 18.0375C63.9969 18.6116 63.8449 19.1043 63.5441 19.5157C63.2433 19.927 62.8107 20.2422 62.2463 20.4612C61.685 20.6802 61.0074 20.7897 60.2135 20.7897C59.4166 20.7897 58.7219 20.6758 58.1296 20.4479C57.5373 20.22 57.0768 19.8738 56.748 19.4091C56.4193 18.9445 56.2503 18.3571 56.241 17.6468H58.4459C58.4645 17.9398 58.5467 18.184 58.6924 18.3793C58.8382 18.5746 59.0382 18.7226 59.2925 18.8232C59.5499 18.9238 59.8476 18.9741 60.1856 18.9741C60.4957 18.9741 60.7593 18.9342 60.9764 18.8543C61.1966 18.7744 61.3656 18.6634 61.4834 18.5213C61.6013 18.3793 61.6618 18.2165 61.6649 18.033C61.6618 17.8614 61.6059 17.7149 61.4974 17.5936C61.3889 17.4693 61.2214 17.3627 60.995 17.274C60.7717 17.1822 60.4864 17.0979 60.1391 17.0209L59.1437 16.799C58.3188 16.6184 57.6691 16.3269 57.1946 15.9245C56.7201 15.519 56.4845 14.9715 56.4876 14.282C56.4845 13.7197 56.6426 13.227 56.962 12.8038C57.2814 12.3806 57.7233 12.0506 58.2877 11.8139C58.8522 11.5771 59.4956 11.4588 60.2182 11.4588C60.9563 11.4588 61.5966 11.5786 62.1393 11.8183C62.6851 12.0551 63.1084 12.388 63.4092 12.8171C63.71 13.2462 63.8636 13.7434 63.8698 14.3086H61.6649Z" fill="#313237"/>
</svg>
