<?xml version="1.0" standalone="no"?>
<!DOCTYPE svg PUBLIC "-//W3C//DTD SVG 20010904//EN"
 "http://www.w3.org/TR/2001/REC-SVG-20010904/DTD/svg10.dtd">
<svg version="1.0" xmlns="http://www.w3.org/2000/svg"
 width="932.000000pt" height="932.000000pt" viewBox="0 0 932.000000 932.000000"
 preserveAspectRatio="xMidYMid meet">
<metadata>
Created by potrace 1.14, written by Peter Selinger 2001-2017
</metadata>
<g transform="translate(0.000000,932.000000) scale(0.100000,-0.100000)"
fill="#000000" stroke="none">
<path d="M5949 8296 c-2 -3 -23 -7 -45 -10 -94 -11 -260 -70 -399 -141 -90
-47 -128 -68 -135 -75 -3 -3 -32 -23 -65 -45 -71 -48 -322 -295 -299 -295 2 0
-8 -14 -23 -31 -16 -17 -26 -33 -25 -36 2 -3 0 -9 -5 -12 -20 -14 -100 -152
-101 -175 0 -5 -4 -12 -10 -15 -5 -3 -22 -40 -38 -81 -16 -41 -32 -76 -36 -78
-4 -2 -4 -10 -1 -18 3 -8 1 -20 -5 -27 -5 -6 -8 -20 -7 -29 2 -10 -1 -18 -7
-18 -6 0 -8 -9 -5 -20 3 -11 1 -22 -4 -25 -4 -3 -6 -12 -3 -19 3 -8 0 -17 -5
-21 -6 -3 -9 -10 -6 -15 3 -5 1 -18 -5 -29 -7 -13 -7 -22 0 -26 6 -4 7 -11 4
-17 -12 -19 -11 -192 0 -207 9 -12 8 -13 -4 -6 -12 7 -13 6 -3 -7 7 -8 10 -18
6 -21 -8 -8 215 -1 272 8 22 4 73 17 113 30 39 13 72 21 72 18 0 -2 7 3 16 12
9 9 23 14 30 11 7 -3 17 1 21 8 5 6 23 18 41 25 17 8 32 17 32 22 0 5 3 8 8 7
7 -3 79 39 98 57 6 5 24 19 39 30 35 24 197 187 243 242 86 106 222 344 247
436 2 4 3 8 4 10 2 1 4 13 7 26 2 14 9 29 14 35 5 7 11 25 14 41 2 17 5 30 6
30 2 0 4 9 5 20 2 11 6 34 10 50 3 17 8 44 11 60 7 52 13 297 7 311 -5 13 -73
20 -84 10z"/>
<path d="M5824 6731 c-2 -2 -16 -5 -31 -6 -38 -2 -127 -16 -134 -21 -4 -2 -24
-6 -45 -10 -22 -3 -43 -9 -49 -12 -5 -4 -17 -7 -25 -8 -31 -2 -110 -28 -110
-37 0 -4 -4 -6 -9 -3 -5 4 -22 1 -38 -5 -15 -7 -34 -13 -41 -15 -8 -1 -21 -6
-30 -10 -9 -4 -21 -8 -27 -10 -5 -1 -70 -25 -142 -52 -73 -28 -133 -48 -133
-45 0 3 -7 0 -15 -7 -8 -7 -15 -9 -15 -5 0 4 -7 2 -15 -5 -8 -7 -15 -9 -15 -5
0 4 -6 3 -12 -3 -11 -8 -67 -24 -83 -23 -2 0 -22 -6 -42 -13 -21 -7 -47 -10
-58 -6 -11 4 -30 6 -42 5 -13 -1 -23 1 -23 5 0 4 -6 7 -12 8 -32 3 -108 26
-108 33 0 4 -8 6 -17 5 -9 -2 -28 3 -42 10 -13 7 -28 11 -33 8 -4 -3 -8 -1 -8
5 0 5 -15 13 -32 16 -18 4 -37 10 -43 14 -5 3 -12 6 -15 6 -6 0 -112 41 -150
58 -14 6 -29 11 -35 11 -10 1 -104 31 -135 43 -8 4 -28 8 -45 10 -16 3 -34 8
-40 13 -5 4 -30 11 -55 14 -25 4 -68 10 -96 14 -42 7 -124 7 -274 1 -8 0 -22
-3 -30 -6 -8 -3 -33 -7 -55 -9 -22 -1 -76 -13 -120 -24 -44 -12 -86 -22 -92
-23 -7 0 -13 -3 -13 -7 0 -4 -6 -7 -14 -7 -8 0 -31 -8 -52 -18 -22 -11 -44
-20 -51 -21 -19 -3 -127 -58 -141 -71 -7 -7 -18 -13 -23 -13 -12 0 -73 -40
-169 -109 -78 -57 -280 -252 -280 -270 0 -6 -4 -11 -10 -11 -5 0 -10 -6 -10
-14 0 -8 -4 -16 -9 -18 -13 -4 -124 -171 -124 -185 0 -7 -4 -13 -8 -13 -8 0
-75 -132 -71 -142 1 -5 -3 -8 -9 -8 -6 0 -9 -6 -6 -14 3 -8 0 -17 -8 -19 -7
-3 -16 -21 -20 -39 -4 -18 -12 -39 -17 -45 -6 -7 -7 -13 -3 -13 4 0 2 -6 -4
-13 -6 -8 -8 -17 -4 -20 3 -4 2 -7 -4 -7 -6 0 -14 -15 -18 -32 -4 -18 -9 -37
-11 -43 -14 -46 -36 -135 -39 -155 -2 -14 -4 -26 -6 -27 -2 -4 -4 -13 -13 -63
-5 -25 -10 -54 -13 -65 -4 -20 -6 -35 -18 -155 -4 -36 -9 -67 -11 -69 -2 -2 1
-10 7 -18 7 -8 7 -13 2 -13 -6 0 -8 -12 -6 -27 5 -35 5 -41 0 -75 -2 -16 0
-28 6 -28 6 0 6 -5 0 -12 -5 -7 -8 -24 -6 -38 4 -25 3 -63 -1 -112 -1 -16 2
-28 7 -28 5 0 4 -6 -2 -13 -6 -8 -9 -16 -6 -19 3 -3 8 -39 10 -80 3 -42 8 -86
10 -98 2 -12 7 -49 10 -83 4 -34 11 -64 15 -67 5 -3 5 -12 0 -19 -5 -8 -2 -30
6 -53 7 -21 10 -46 7 -55 -4 -9 -2 -14 3 -11 5 4 10 -4 10 -15 1 -12 4 -35 8
-52 3 -16 9 -49 12 -72 4 -24 11 -43 16 -43 5 0 7 -4 4 -9 -6 -8 63 -262 73
-271 3 -3 7 -14 9 -25 2 -11 6 -27 9 -35 3 -8 7 -19 8 -25 4 -14 45 -126 55
-150 5 -11 19 -45 31 -75 26 -66 37 -92 82 -190 18 -41 40 -90 48 -107 8 -18
18 -33 22 -33 5 0 6 -4 2 -9 -3 -6 3 -14 12 -20 10 -5 16 -12 14 -16 -5 -9 20
-65 30 -65 5 0 9 -9 9 -20 0 -11 4 -20 8 -20 4 0 13 -12 19 -27 14 -33 91
-154 115 -182 9 -11 15 -21 12 -23 -2 -2 9 -18 25 -35 16 -18 26 -34 23 -37
-3 -3 0 -6 7 -6 7 0 10 -4 7 -9 -4 -5 -3 -11 2 -13 9 -4 102 -126 102 -134 0
-4 11 -17 26 -30 14 -13 23 -24 20 -24 -6 0 24 -37 55 -70 8 -9 18 -24 22 -33
3 -9 11 -17 17 -17 5 0 10 -4 10 -9 0 -15 168 -179 269 -264 12 -9 25 -17 30
-17 5 0 11 -4 13 -9 6 -17 155 -89 227 -111 56 -16 95 -21 182 -19 60 1 127 5
147 10 20 6 48 12 62 15 47 9 265 86 288 101 13 8 26 12 29 9 4 -3 11 -1 18 4
21 17 197 71 300 92 109 21 278 29 359 16 28 -4 68 -10 88 -13 20 -3 60 -12
90 -21 29 -8 62 -16 73 -18 17 -2 214 -77 280 -106 60 -26 229 -71 275 -74 19
-1 40 -4 45 -8 12 -7 187 -2 230 6 68 15 174 53 185 67 3 3 16 10 30 14 30 9
141 87 190 132 76 72 126 123 155 156 57 66 142 173 170 211 11 16 29 40 41
55 11 14 42 59 70 99 27 41 54 81 61 90 24 35 88 137 88 142 0 3 16 32 36 65
19 33 48 87 64 120 17 33 35 63 40 67 6 4 7 8 2 8 -4 0 -1 10 8 23 8 13 12 27
8 30 -3 4 -1 7 5 7 9 0 19 19 27 50 1 3 8 19 15 35 7 17 14 32 15 35 0 3 8 21
17 40 16 33 57 144 62 165 2 6 9 24 15 40 19 46 20 59 5 73 -8 7 -14 10 -14 7
0 -7 -99 45 -106 56 -3 5 -10 7 -15 4 -5 -4 -9 -1 -9 4 0 6 -4 11 -10 11 -13
0 -164 109 -215 154 -77 69 -175 171 -175 181 0 3 -11 17 -25 31 -14 14 -32
38 -40 54 -9 17 -19 30 -23 30 -4 0 -13 15 -21 33 -8 17 -17 34 -21 37 -10 8
-78 155 -86 184 -3 14 -10 26 -16 26 -5 0 -6 4 -3 10 3 5 -1 23 -10 40 -8 16
-13 30 -11 30 3 0 1 12 -5 28 -6 15 -13 38 -15 52 -2 14 -7 36 -9 50 -12 60
-15 78 -21 125 -9 77 -9 283 0 345 4 30 9 71 11 90 1 19 5 42 8 50 4 8 9 26
11 40 3 14 14 57 26 95 12 39 22 76 22 83 1 6 5 12 10 12 4 0 8 4 8 9 0 25
105 222 122 229 4 2 8 10 8 18 0 8 5 14 10 14 6 0 10 4 10 10 0 6 7 18 16 28
8 9 30 33 47 53 57 64 115 123 147 149 17 14 45 37 61 52 16 15 29 25 29 22 0
-5 11 4 49 36 9 8 33 24 52 34 19 11 37 24 41 30 14 21 -200 276 -233 276 -6
0 -7 5 -4 10 3 6 0 10 -9 10 -8 0 -16 4 -18 8 -3 10 -145 115 -168 125 -8 4
-37 20 -65 36 -27 16 -57 30 -67 30 -9 1 -18 6 -20 12 -2 5 -10 11 -18 13 -8
1 -33 10 -54 20 -22 9 -51 19 -65 23 -14 3 -31 10 -38 15 -7 5 -17 7 -24 3 -6
-4 -15 -2 -19 4 -3 7 -20 13 -36 15 -16 2 -29 5 -29 6 0 2 -27 8 -65 15 -14 2
-36 7 -50 10 -14 3 -43 7 -65 10 -22 3 -58 8 -80 11 -49 6 -255 11 -261 5z"/>
</g>
</svg>
