<svg width="66" height="65" viewBox="0 0 66 65" fill="none" xmlns="http://www.w3.org/2000/svg">
<g filter="url(#filter0_d_2_103)">
<rect x="1" width="64" height="64" fill="white"/>
</g>
<path fill-rule="evenodd" clip-rule="evenodd" d="M28.4667 24.9333C28.5926 24.7655 28.7902 24.6667 29 24.6667H37C37.2099 24.6667 37.4075 24.7655 37.5334 24.9333L39.5334 27.6C39.6199 27.7154 39.6667 27.8557 39.6667 28V37.3333C39.6667 37.8638 39.456 38.3725 39.0809 38.7475C38.7058 39.1226 38.1971 39.3333 37.6667 39.3333H28.3334C27.8029 39.3333 27.2942 39.1226 26.9192 38.7475C26.5441 38.3725 26.3334 37.8638 26.3334 37.3333V28C26.3334 27.8557 26.3802 27.7154 26.4667 27.6L28.4667 24.9333ZM29.3334 26L27.6667 28.2222V37.3333C27.6667 37.5101 27.7369 37.6797 27.862 37.8047C27.987 37.9298 28.1566 38 28.3334 38H37.6667C37.8435 38 38.0131 37.9298 38.1381 37.8047C38.2631 37.6797 38.3334 37.5101 38.3334 37.3333V28.2222L36.6667 26H29.3334Z" fill="#313237"/>
<path fill-rule="evenodd" clip-rule="evenodd" d="M26.3334 28C26.3334 27.6318 26.6319 27.3333 27 27.3333H39C39.3682 27.3333 39.6667 27.6318 39.6667 28C39.6667 28.3682 39.3682 28.6667 39 28.6667H27C26.6319 28.6667 26.3334 28.3682 26.3334 28Z" fill="#313237"/>
<path fill-rule="evenodd" clip-rule="evenodd" d="M30.3333 30C30.7015 30 31 30.2985 31 30.6667C31 31.1971 31.2107 31.7058 31.5857 32.0809C31.9608 32.456 32.4695 32.6667 33 32.6667C33.5304 32.6667 34.0391 32.456 34.4142 32.0809C34.7892 31.7058 35 31.1971 35 30.6667C35 30.2985 35.2984 30 35.6666 30C36.0348 30 36.3333 30.2985 36.3333 30.6667C36.3333 31.5507 35.9821 32.3986 35.357 33.0237C34.7319 33.6488 33.884 34 33 34C32.1159 34 31.2681 33.6488 30.6429 33.0237C30.0178 32.3986 29.6666 31.5507 29.6666 30.6667C29.6666 30.2985 29.9651 30 30.3333 30Z" fill="#313237"/>
<defs>
<filter id="filter0_d_2_103" x="0" y="0" width="65" height="64" filterUnits="userSpaceOnUse" color-interpolation-filters="sRGB">
<feFlood flood-opacity="0" result="BackgroundImageFix"/>
<feColorMatrix in="SourceAlpha" type="matrix" values="0 0 0 0 0 0 0 0 0 0 0 0 0 0 0 0 0 0 127 0" result="hardAlpha"/>
<feOffset dx="-1"/>
<feColorMatrix type="matrix" values="0 0 0 0 0.886275 0 0 0 0 0.901961 0 0 0 0 0.913725 0 0 0 1 0"/>
<feBlend mode="normal" in2="BackgroundImageFix" result="effect1_dropShadow_2_103"/>
<feBlend mode="normal" in="SourceGraphic" in2="effect1_dropShadow_2_103" result="shape"/>
</filter>
</defs>
</svg>
