<svg width="16" height="16" viewBox="0 0 16 16" fill="none" xmlns="http://www.w3.org/2000/svg">
<path fill-rule="evenodd" clip-rule="evenodd" d="M9.62848 1.63136C10.1584 1.41178 10.7264 1.29877 11.3 1.29877C11.8736 1.29877 12.4416 1.41178 12.9715 1.63136C13.5014 1.85093 13.9829 2.17276 14.3884 2.57846C14.794 2.98392 15.1158 3.46531 15.3353 3.99513C15.5549 4.52505 15.6679 5.09304 15.6679 5.66665C15.6679 6.24026 15.5549 6.80825 15.3353 7.33817C15.1157 7.86805 14.794 8.34947 14.3883 8.75496C14.3883 8.755 14.3883 8.75492 14.3883 8.75496L8.49498 14.6483C8.22161 14.9217 7.77839 14.9217 7.50503 14.6483L1.61169 8.75496C0.792623 7.93589 0.332474 6.82499 0.332474 5.66665C0.332474 4.50831 0.792623 3.39741 1.61169 2.57834C2.43076 1.75927 3.54166 1.29912 4.7 1.29912C5.85834 1.29912 6.96924 1.75927 7.78831 2.57834L8 2.79003L8.21158 2.57846C8.21154 2.5785 8.21162 2.57842 8.21158 2.57846C8.61706 2.17281 9.0986 1.85091 9.62848 1.63136ZM13.3982 3.56818C13.1227 3.29255 12.7956 3.0739 12.4356 2.92472C12.0756 2.77555 11.6897 2.69877 11.3 2.69877C10.9103 2.69877 10.5244 2.77555 10.1644 2.92472C9.80436 3.0739 9.47726 3.29255 9.20176 3.56818L8.49498 4.27496C8.22161 4.54833 7.77839 4.54833 7.50503 4.27496L6.79836 3.56829C6.24184 3.01177 5.48704 2.69912 4.7 2.69912C3.91296 2.69912 3.15816 3.01177 2.60164 3.56829C2.04512 4.12481 1.73247 4.87961 1.73247 5.66665C1.73247 6.45369 2.04512 7.20849 2.60164 7.76501L8 13.1634L13.3984 7.76501C13.674 7.48951 13.8927 7.16229 14.0419 6.80227C14.1911 6.44224 14.2679 6.05635 14.2679 5.66665C14.2679 5.27695 14.1911 4.89106 14.0419 4.53103C13.8927 4.17101 13.6739 3.84367 13.3982 3.56818Z" fill="#333333"/>
</svg>
