<svg width="16" height="14" viewBox="0 0 16 14" fill="none" xmlns="http://www.w3.org/2000/svg">
<path fill-rule="evenodd" clip-rule="evenodd" d="M11.2996 0.298767C10.7259 0.298767 10.158 0.411782 9.62803 0.631356C9.09816 0.850909 8.61662 1.17281 8.21113 1.57846L7.99956 1.79003L7.78787 1.57834C6.9688 0.759273 5.8579 0.299124 4.69956 0.299124C3.54122 0.299124 2.43032 0.759273 1.61125 1.57834C0.79218 2.39741 0.332031 3.50831 0.332031 4.66665C0.332031 5.82499 0.79218 6.93589 1.61125 7.75496L7.50458 13.6483C7.77795 13.9217 8.22117 13.9217 8.49453 13.6483L14.3879 7.75496C14.7935 7.34947 15.1153 6.86805 15.3349 6.33817C15.5544 5.80825 15.6674 5.24026 15.6674 4.66665C15.6674 4.09304 15.5544 3.52505 15.3349 2.99513C15.1153 2.46531 14.7936 1.98392 14.388 1.57846C13.9825 1.17276 13.501 0.85093 12.9711 0.631356C12.4412 0.411782 11.8732 0.298767 11.2996 0.298767Z" fill="#EB5757"/>
</svg>
