<?xml version="1.0" encoding="utf-8"?>
<!-- Generator: Adobe Illustrator 25.2.3, SVG Export Plug-In . SVG Version: 6.00 Build 0)  -->
<svg version="1.1" id="Layer_1" xmlns="http://www.w3.org/2000/svg" xmlns:xlink="http://www.w3.org/1999/xlink" x="0px" y="0px"
	 viewBox="0 0 787.9 603.7" style="enable-background:new 0 0 787.9 603.7;" xml:space="preserve">
<style type="text/css">
	.st0{fill:#C2D9F0;}
	.st1{fill:#4B4065;}
	.st2{fill:#FFFFFF;stroke:#F27932;stroke-width:2;stroke-miterlimit:10;}
	.st3{fill:#FFFFFF;stroke:#495894;stroke-miterlimit:10;}
	.st4{fill:none;stroke:#B9C6E4;stroke-miterlimit:10;}
	.st5{opacity:0.26;fill:#B9C6E4;enable-background:new    ;}
	.st6{fill:#FFFFFF;stroke:#C2D9F0;stroke-miterlimit:10;}
	.st7{fill:#B9C6E4;}
	.st8{fill:none;stroke:#F7C689;stroke-miterlimit:10;}
	.st9{fill:#495894;}
	.st10{fill:none;stroke:#495894;stroke-width:7;stroke-miterlimit:10;}
	.st11{fill:#F7C689;}
	.st12{fill:none;stroke:#F27932;stroke-miterlimit:10;}
	.st13{fill:#FFFFFF;}
	.st14{fill:#4B4065;stroke:#4B4065;stroke-width:0.25;stroke-linejoin:round;}
	.st15{fill:none;stroke:#4B4065;stroke-miterlimit:10;}
	.st16{fill:none;stroke:#495894;stroke-miterlimit:10;}
	.st17{opacity:0.21;fill:#EF749B;enable-background:new    ;}
	.st18{opacity:0.19;fill:#495894;enable-background:new    ;}
	.st19{fill:#FFFFFF;stroke:#F27932;stroke-miterlimit:10;}
	.st20{fill:#ED4F2E;}
</style>
<g id="Layer_2_1_">
	<g id="Layer_1-2">
		<path class="st0" d="M67.9,97.9h219.9c-8.6-9.8-23.1-13.3-35.9-10.5c-6.4-5.3-12.9-11.1-19.3-16.5c-7.5-6.3-15.1-12.6-24.2-16.2
			s-20-4-28.1,1.3c-8.1,5.3-12,17.4-6.5,25.4c-4.8-4.5-23.9-17.2-36.3-3.5c-3.5,3.9-3.1,10.3-6.7,14.2c-5.4,5.8-22.2,1.9-30.1,0.8
			C77.2,89.7,81.5,97.9,67.9,97.9z"/>
		<path class="st1" d="M596.6,165.6c25.2-0.5,41.8-22.2,60-36.5c5.3-4.3,11.1-7.8,17.4-10.4c1.8-0.7,1-3.6-0.8-2.9
			c-22.6,9-36.1,31-57.6,41.8c-5.9,3.1-12.4,4.8-19,5C594.7,162.6,594.7,165.6,596.6,165.6L596.6,165.6z"/>
		<polyline class="st2" points="627.3,395.7 635.8,418.1 681.8,387.7 668.4,427.9 698.3,416.4 687.3,445.6 719.8,454.7 		"/>
		<path class="st3" d="M392.1,95.2h190c8.6,0,15.6,7,15.6,15.6v382.8c0,8.6-7,15.6-15.6,15.6h-190c-8.6,0-15.6-7-15.6-15.6V110.7
			C376.5,102.1,383.5,95.2,392.1,95.2z"/>
		<rect x="406.7" y="145.3" class="st4" width="163.3" height="151.9"/>
		<line class="st4" x1="430.4" y1="274" x2="479.3" y2="274"/>
		<line class="st4" x1="430.4" y1="257.2" x2="515.4" y2="257.2"/>
		<line class="st4" x1="535.1" y1="164.1" x2="560.6" y2="164.1"/>
		<path class="st5" d="M457.2,207.8c20.4-7.1,42.8-5.3,61.8,5c3.6-18.5-8.5-36.3-27-39.9c-18.5-3.6-36.3,8.5-39.9,27
			c-0.4,2.1-0.6,4.3-0.6,6.5c0,1.2,0.1,2.4,0.2,3.6C453.5,209.1,455.3,208.4,457.2,207.8z"/>
		<polyline class="st4" points="546.5,322.6 570,322.6 570,474.5 406.7,474.5 406.7,322.6 422.1,322.6 		"/>
		<line class="st4" x1="430.4" y1="451.4" x2="479.3" y2="451.4"/>
		<line class="st4" x1="430.4" y1="434.5" x2="515.4" y2="434.5"/>
		<line class="st4" x1="535.1" y1="341.4" x2="560.6" y2="341.4"/>
		<path class="st5" d="M502.9,354.3c-11.9,3.3-24.3,3.7-36.4,1.1c-15.6,10.5-19.7,31.7-9.2,47.3c10.5,15.6,31.7,19.7,47.3,9.2
			c15.6-10.5,19.7-31.7,9.2-47.3C511,360.4,507.3,356.9,502.9,354.3z"/>
		<polygon class="st6" points="552.3,316.8 413.4,313.9 404.3,283.3 411.4,251.1 552.3,251.1 559.3,283.9 		"/>
		<polygon class="st7" points="431.8,265.5 431.8,302.3 447.6,291.5 463.3,302.3 463.3,265.5 		"/>
		<path class="st8" d="M519.1,267.4l2.3,6.1c0.6,1.5,2,2.5,3.5,2.6l6.5,0.3c2.2,0.1,3.9,2,3.7,4.2c-0.1,1.1-0.6,2.1-1.4,2.8
			l-5.1,4.1c-1.2,1-1.8,2.6-1.4,4.2l1.7,6.3c0.5,2.1-0.7,4.3-2.9,4.9c-1.1,0.3-2.2,0.1-3.1-0.5l-5.4-3.6c-1.3-0.9-3-0.9-4.4,0
			l-5.4,3.6c-1.9,1.2-4.3,0.6-5.5-1.3c-0.6-0.9-0.8-2.1-0.5-3.1l1.7-6.3c0.4-1.5-0.1-3.2-1.4-4.2l-5.1-4.1c-1.7-1.4-1.9-3.9-0.5-5.6
			c0.7-0.9,1.7-1.4,2.8-1.4l6.5-0.3c1.6-0.1,3-1.1,3.5-2.6l2.3-6.1c0.8-2,3.2-3,5.2-2.2C517.9,265.6,518.7,266.4,519.1,267.4z"/>
		<path class="st9" d="M440.7,345.4l15.9,7.8l0,0l-36,73.4c-2.2,4.4-7.5,6.2-11.9,4.1l0,0l0,0c-4.4-2.2-6.2-7.5-4.1-11.9l0,0
			L440.7,345.4L440.7,345.4z"/>
		<polygon class="st1" points="436.5,354 450.5,365.8 455.4,355.8 439,348.9 		"/>
		<path class="st10" d="M542.7,232.6c26.3,33.3,20.7,81.6-12.5,107.9s-81.6,20.7-107.9-12.5c-26.3-33.3-20.7-81.6,12.5-107.9
			c6.7-5.3,14.3-9.5,22.4-12.3C488.1,196.9,522.4,206.9,542.7,232.6"/>
		<path class="st1" d="M254.3,257.2c-6.2-8-8.6-18.4-8.9-28.5c-0.4-11,2.5-22,1.7-32.7c-0.7-10.1,1.5-20.2,6.5-29
			c10.3-18.2,32.7-29.7,53.5-24.4c8,2,14.9,7,22.6,10.2c14.2,6,32.9,3.4,46.8-3.3c0.1,0.3-0.1,3.2,0,3.5v94
			c-6,9.1-13.9,18.2-23.6,23s-21.2,6.3-31.7,3.4c-13.5-3.8-24.9-14.6-39-15.3c-5.4-0.3-10.7,1-16.1,1.2
			C260.7,259.5,257.6,261.5,254.3,257.2z"/>
		<path class="st7" d="M249.7,272.8l20.1-53.1l-7.4-23.8c-2.8-9-1.7-18.7,3.1-26.8l3.9-6.5c6.6-11.3,19.3-17.7,32.3-16.2l0,0
			c10.3,1.2,19.6,7.1,24.9,16l0,0c3.3,5.5,5.2,11.8,5.5,18.2l2.5,50.1c0.3,5.6-3.2,10.8-8.5,12.7l0,0c-2.5,0.9-5.2,1-7.8,0.2
			l-16.6-4.8l-0.4,44.8l11.1,45.8l-41,6.2L249.7,272.8z"/>
		<path class="st11" d="M308.9,281.4c0,0-3.6-0.8-7.8-1.5l-5,34c-0.7,4.4-4,7.8-8.4,8.7c-4.3,0.8-8.6-1.2-10.9-4.9l-27-45.4
			c-9.5-1-17.6-1.4-21.6-0.6c-14.7,2.9-40.8,17-61.7,93.7l-0.3,1.9c-1.2,6.7,1.3,13.5,6.5,17.9l9.9,8.3l67.1,12.4l84.9-18.9
			l13.6-21.5C348.2,365.4,332.3,285.6,308.9,281.4z"/>
		<path class="st1" d="M252.2,190.4c13.6,6.3,31.8,5.1,45.8-0.1s24.9-21.1,26.5-36c-5.9-8.3-16.8-11.6-26.9-10.6
			c-10.1,1-19.6,6.3-26.7,13.6S256.3,181.1,252.2,190.4z"/>
		<line class="st12" x1="257.1" y1="326.7" x2="247.3" y2="413.9"/>
		<path class="st7" d="M458.6,382.2l-31-10.1l9-18.1l-51.1,23.1l-141,27l2.8-19.7c-9.4,0-18.5-5.1-26.5-10.4
			c-9.1-6-18.5-12.8-29.4-13.5c-2.6-0.2-5.2,0-7.8,0.6c-5.7,20.8-17,67.8-9.3,84.7c10.1,21.9,18.3,43.3,130,0l86.3-24.9
			c0,0,21.8-2.2,39.4-2.8c5.1-1.1,10.1-2.7,14.9-4.6c3.1-1.4,5-4.4,5-7.8v-3.2c0,0,3.9-2.2,5-4.5s0-7.4,0-7.4s6.3,0.2,7.8-3.3
			S458.6,382.2,458.6,382.2z"/>
		<path class="st12" d="M167.1,371c5.9-7.1,14.9-11,24.2-10.5c10.9,0.7,20.3,7.5,29.4,13.5s19.6,11.8,30.4,10.1"/>
		<path class="st12" d="M321.2,337.8c12,12.1,14,32.8,4.6,47"/>
		<path class="st7" d="M276.8,195.7c-1.7-6.4-8.3-10.1-14.7-8.3c-6.4,1.7-10.1,8.3-8.3,14.7l0,0c1.3,4.8,5.5,8.4,10.2,9.8
			c4.7,1.4,9.9,0.8,14.6-0.7"/>
		<path class="st13" d="M300.8,197.1c4.9-5.4,13.3-5.8,18.7-0.8c1.8,1.7,3.1,3.8,3.8,6.1C315.4,205,306.7,203,300.8,197.1z"/>
		<path class="st1" d="M310.4,199.4c-0.2-2.3,0.4-4.6,1.6-6.6c5.4,0.5,9.9,4.3,11.4,9.5c-3.9,1.3-8,1.5-12,0.6
			C310.8,201.8,310.5,200.7,310.4,199.4z"/>
		<path class="st14" d="M304.3,185.7c4.9-4.4,12.4-3.9,16.8,1l0.1,0.1C315.3,186.6,310.1,186,304.3,185.7z"/>
		<path class="st1" d="M301.7,197.4c2.2-2.8,5.5-4.5,9-4.6c3.4-0.1,6.7,1.4,9,4c1.3,1.4,2.2,3.2,2.6,5.1c0.1,0.6,1.1,0.4,1-0.3
			c-0.9-3.6-3.3-6.6-6.6-8.4c-5.4-2.7-12-1.3-15.8,3.5C300.6,197.2,301.3,198,301.7,197.4L301.7,197.4z"/>
		<path class="st7" d="M331,199.9c2,1.3,3.9,2.8,5.7,4.4c0.7,0.5,1.3,1.3,1.7,2.1c0.5,1.6-0.7,3.3-2.1,4.2s-3.1,1.5-4.3,2.6"/>
		<path class="st15" d="M312.1,212.3c3.6,4,9,5.8,14.3,4.6"/>
		<line class="st16" x1="454.9" y1="390.6" x2="419.1" y2="389.1"/>
		<line class="st16" x1="450" y1="402.4" x2="416.6" y2="405.8"/>
		<line class="st16" x1="233.6" y1="416.2" x2="244.4" y2="404.1"/>
		<circle class="st17" cx="299.3" cy="212.3" r="9"/>
		<path class="st18" d="M301.5,267.2c-5,0.2-9.7-4.1-11.8-8.7c-2.1-4.6-2.6-9.7-3.7-14.6c-1.1-4.9-2.2-11.6-6.3-14.6l22.4,9.3
			C302,248,301.5,258,301.5,267.2z"/>
		<path class="st1" d="M648,197.5c14.7-7,28.8-15.2,42.2-24.5c-2.6-16.7-6-33.3-10.1-49.8c-21.4,6.5-38.6,25.4-59.4,35.4
			c-7.3,3.5-15.1,6-23.1,7.4v108.4c34.1,5,68.9-0.7,99.5-16.5c-0.2-23.1-1.8-46.2-4.7-69.2L648,197.5z"/>
		<polyline class="st7" points="570.8,455.8 555.1,508.4 570.4,508.3 		"/>
		<polygon class="st19" points="666.2,551.2 601.3,551.2 570.8,520 570.8,455.8 666.2,455.8 		"/>
		<path class="st20" d="M646.3,493.5c-0.7-6-6.9-10-12.3-9c-5,0.9-9.5,5.5-11.8,10.6c-2.5-5-7.2-9.4-12.2-10.1
			c-5.5-0.7-11.5,3.6-11.9,9.6c-0.3,4.6,2.3,8.8,5.3,12c5.3,5.7,19.4,14.2,19.4,14.2c5.5-3.5,13.7-9.2,18.8-15.1
			C644.4,502.3,646.9,498,646.3,493.5z"/>
		<path class="st9" d="M422.3,95.2l7.1,19.7c1.8,5,6.5,8.3,11.8,8.3H530c5.4,0,10.2-3.4,11.9-8.5l6.6-19.5L422.3,95.2z"/>
		<path class="st1" d="M261.7,153.4c3.4-6.8-0.8-15.8-7.8-18.8c-7-3-15.4-0.9-21.2,4s-9.1,12.2-10.9,19.6c-1.7,7.1-1,16.3,5.6,19.4
			c6.4,3,13.9-1.9,18.1-7.6c4.2-5.7,7.3-12.7,13.4-16.3"/>
	</g>
</g>
</svg>
