<svg width="14" height="10" viewBox="0 0 14 10" fill="none" xmlns="http://www.w3.org/2000/svg">
<path d="M0 1.5C0 1.08579 0.391751 0.75 0.875 0.75H13.125C13.6082 0.75 14 1.08579 14 1.5C14 1.91421 13.6082 2.25 13.125 2.25H0.875C0.391751 2.25 0 1.91421 0 1.5Z" fill="#F1F2F9"/>
<path d="M0 5C0 4.58579 0.391751 4.25 0.875 4.25H13.125C13.6082 4.25 14 4.58579 14 5C14 5.41421 13.6082 5.75 13.125 5.75H0.875C0.391751 5.75 0 5.41421 0 5Z" fill="#F1F2F9"/>
<path d="M0.875 7.75C0.391751 7.75 0 8.08579 0 8.5C0 8.91421 0.391751 9.25 0.875 9.25H13.125C13.6082 9.25 14 8.91421 14 8.5C14 8.08579 13.6082 7.75 13.125 7.75H0.875Z" fill="#F1F2F9"/>
</svg>
