<?xml version="1.0" encoding="iso-8859-1"?>
<!-- Generator: Adobe Illustrator 19.0.0, SVG Export Plug-In . SVG Version: 6.00 Build 0)  -->
<svg version="1.1" id="Layer_1" xmlns="http://www.w3.org/2000/svg" xmlns:xlink="http://www.w3.org/1999/xlink" x="0px" y="0px"
	 viewBox="0 0 307.415 307.415" style="enable-background:new 0 0 307.415 307.415;" xml:space="preserve">
<g>
	<path style="fill:#7D868C;" d="M294.668,111.232V90.175L153.707,0L12.747,90.175v21.057v25.01v151.003
		c0,11.093,9.076,20.169,20.169,20.169h241.582c11.094,0,20.17-9.076,20.17-20.169V136.243V111.232z"/>
	<path style="fill:#005CB9;" d="M293.585,102.391L153.707,12.909L13.83,102.391c-0.699-2.039-1.083-4.22-1.083-6.488v-5.728
		L153.707,0l140.961,90.175v5.728C294.668,98.171,294.284,100.352,293.585,102.391z"/>
	<g>
		<rect x="62.28" y="55.436" style="fill:#FFFFFF;" width="182.854" height="219.029"/>
		<path style="fill:#1E252B;" d="M215.423,98.778H91.992c-2.673,0-4.841-2.167-4.841-4.841c0-2.673,2.167-4.841,4.841-4.841h123.431
			c2.673,0,4.84,2.167,4.84,4.841S218.095,98.778,215.423,98.778z"/>
		<path style="fill:#333E48;" d="M215.423,129.436H91.992c-1.782,0-3.228-1.445-3.228-3.227s1.445-3.227,3.228-3.227h123.431
			c1.781,0,3.227,1.445,3.227,3.227C218.649,127.991,217.204,129.436,215.423,129.436z"/>
		<path style="fill:#333E48;" d="M215.423,147.185H91.992c-1.782,0-3.228-1.445-3.228-3.227s1.445-3.227,3.228-3.227h123.431
			c1.781,0,3.227,1.445,3.227,3.227C218.649,145.74,217.204,147.185,215.423,147.185z"/>
		<path style="fill:#333E48;" d="M207.527,164.934H99.887c-1.783,0-3.227-1.445-3.227-3.227s1.444-3.227,3.227-3.227h107.641
			c1.783,0,3.228,1.445,3.228,3.227C210.755,163.489,209.311,164.934,207.527,164.934z"/>
		<path style="fill:#333E48;" d="M215.423,182.683H91.992c-1.782,0-3.228-1.445-3.228-3.227s1.445-3.227,3.228-3.227h123.431
			c1.781,0,3.227,1.445,3.227,3.227C218.649,181.238,217.204,182.683,215.423,182.683z"/>
		<path style="fill:#333E48;" d="M205.852,200.432h-104.29c-1.782,0-3.227-1.445-3.227-3.227s1.445-3.227,3.227-3.227h104.291
			c1.782,0,3.227,1.445,3.227,3.227C209.08,198.987,207.634,200.432,205.852,200.432z"/>
		<path style="fill:#333E48;" d="M179.348,218.182h-51.282c-1.782,0-3.227-1.445-3.227-3.227s1.445-3.228,3.227-3.228h51.282
			c1.783,0,3.228,1.445,3.228,3.228C182.576,216.736,181.13,218.182,179.348,218.182z"/>
	</g>
	<path style="fill:#C3C6C8;" d="M153.707,232.146L12.747,141.971v145.275c0,11.093,9.076,20.169,20.169,20.169h241.583
		c11.094,0,20.17-9.076,20.17-20.169V141.97L153.707,232.146z"/>
	<path style="fill:#E8E8E8;" d="M153.707,191.342L12.747,281.518v5.728c0,11.093,9.076,20.169,20.169,20.169h241.583
		c11.094,0,20.17-9.076,20.17-20.169v-5.728L153.707,191.342z"/>
</g>
<g>
</g>
<g>
</g>
<g>
</g>
<g>
</g>
<g>
</g>
<g>
</g>
<g>
</g>
<g>
</g>
<g>
</g>
<g>
</g>
<g>
</g>
<g>
</g>
<g>
</g>
<g>
</g>
<g>
</g>
</svg>
