<?xml version="1.0" encoding="iso-8859-1"?>
<!-- Generator: Adobe Illustrator 19.0.0, SVG Export Plug-In . SVG Version: 6.00 Build 0)  -->
<svg version="1.1" id="Layer_1" xmlns="http://www.w3.org/2000/svg" xmlns:xlink="http://www.w3.org/1999/xlink" x="0px" y="0px"
	 viewBox="0 0 512.001 512.001" style="enable-background:new 0 0 512.001 512.001;" xml:space="preserve">
<path style="fill:#DBDDDD;" d="M400.859,153.84v313.121c0,20.438-16.568,37.005-37.005,37.005H148.148
	c-20.436,0-37.005-16.568-37.005-37.005V45.039c0-20.438,16.57-37.005,37.005-37.005h215.706c20.438,0,37.005,16.568,37.005,37.005
	v83.093"/>
<rect x="148.528" y="72.121" style="fill:#53CAF9;" width="214.95" height="345.386"/>
<rect x="179.849" y="140.987" style="fill:#A8E2EF;" width="152.105" height="44.668"/>
<rect x="148.528" y="72.121" style="fill:#F5F5F5;" width="214.95" height="36.741"/>
<g style="opacity:0.2;">
	<path style="fill:#231F20;" d="M136.175,466.961V45.039c0-20.438,16.57-37.005,37.005-37.005h-25.033
		c-20.436,0-37.005,16.568-37.005,37.005v421.923c0,20.438,16.57,37.005,37.005,37.005h25.033
		C152.745,503.966,136.175,487.4,136.175,466.961z"/>
</g>
<circle style="fill:#EAE9E8;" cx="250.053" cy="459.122" r="17.853"/>
<rect x="148.528" y="72.121" style="fill:#F2304D;" width="40.961" height="36.741"/>
<g>
	<path style="fill:#231F20;" d="M224.161,459.122c0,14.274,11.614,25.887,25.888,25.887c14.273,0,25.886-11.612,25.886-25.887
		s-11.612-25.887-25.886-25.887C235.774,433.235,224.161,444.848,224.161,459.122z M259.867,459.122
		c0,5.414-4.405,9.819-9.818,9.819c-5.416,0-9.82-4.405-9.82-9.819s4.405-9.819,9.82-9.819
		C255.462,449.303,259.867,453.707,259.867,459.122z"/>
	<path style="fill:#231F20;" d="M400.859,136.166c4.438,0,8.034-3.597,8.034-8.034V45.039C408.892,20.204,388.688,0,363.853,0
		H148.148c-24.835,0-45.039,20.204-45.039,45.039v421.923c0,24.835,20.204,45.039,45.039,45.039h215.706
		c24.835,0,45.039-20.204,45.039-45.039V153.84c0-4.437-3.596-8.034-8.034-8.034s-8.034,3.597-8.034,8.034v313.121
		c0,15.975-12.996,28.972-28.972,28.972H148.148c-15.975,0-28.972-12.996-28.972-28.972V45.039
		c0-15.975,12.996-28.972,28.972-28.972h215.706c15.975,0,28.972,12.996,28.972,28.972v83.093
		C392.825,132.569,396.421,136.166,400.859,136.166z"/>
	<path style="fill:#231F20;" d="M371.511,417.502v-308.65V72.116c0-4.437-3.596-8.034-8.034-8.034H189.486h-40.959
		c-4.438,0-8.034,3.597-8.034,8.034v36.736v308.65c0,4.437,3.596,8.034,8.034,8.034h214.95
		C367.914,425.536,371.511,421.939,371.511,417.502z M355.444,100.818H197.52V80.15h157.924V100.818z M156.561,80.15h24.892v20.668
		h-24.892V80.15z M156.561,409.468V116.885h32.925h165.957v292.583L156.561,409.468L156.561,409.468z"/>
	<path style="fill:#231F20;" d="M291.82,48.553c4.438,0,8.034-3.597,8.034-8.034s-3.596-8.034-8.034-8.034h-83.546
		c-4.438,0-8.034,3.597-8.034,8.034s3.596,8.034,8.034,8.034H291.82z"/>
	<path style="fill:#231F20;" d="M322.639,46.205c1.489-1.5,2.345-3.578,2.345-5.688c0-2.11-0.857-4.188-2.345-5.677
		c-1.5-1.5-3.567-2.357-5.689-2.357c-2.11,0-4.176,0.857-5.677,2.357c-1.5,1.489-2.357,3.567-2.357,5.677
		c0,2.11,0.857,4.188,2.357,5.688c1.5,1.489,3.567,2.346,5.677,2.346C319.072,48.55,321.139,47.694,322.639,46.205z"/>
	<path style="fill:#231F20;" d="M331.951,132.953H179.846c-4.438,0-8.034,3.597-8.034,8.034v44.667c0,4.437,3.596,8.034,8.034,8.034
		h152.105c4.438,0,8.034-3.597,8.034-8.034v-44.667C339.985,136.55,336.389,132.953,331.951,132.953z M323.917,177.62H187.879v-28.6
		h136.038V177.62z"/>
	<path style="fill:#231F20;" d="M331.951,216.597H179.846c-4.438,0-8.034,3.597-8.034,8.034c0,4.437,3.596,8.034,8.034,8.034
		h152.105c4.438,0,8.034-3.597,8.034-8.034C339.985,220.194,336.389,216.597,331.951,216.597z"/>
	<path style="fill:#231F20;" d="M331.951,254.319H179.846c-4.438,0-8.034,3.597-8.034,8.034c0,4.437,3.596,8.034,8.034,8.034
		h152.105c4.438,0,8.034-3.597,8.034-8.034C339.985,257.916,336.389,254.319,331.951,254.319z"/>
	<path style="fill:#231F20;" d="M331.951,292.042H179.846c-4.438,0-8.034,3.597-8.034,8.034c0,4.437,3.596,8.034,8.034,8.034
		h152.105c4.438,0,8.034-3.597,8.034-8.034C339.985,295.639,336.389,292.042,331.951,292.042z"/>
	<path style="fill:#231F20;" d="M331.951,329.764H179.846c-4.438,0-8.034,3.597-8.034,8.034s3.596,8.034,8.034,8.034h152.105
		c4.438,0,8.034-3.597,8.034-8.034S336.389,329.764,331.951,329.764z"/>
	<path style="fill:#231F20;" d="M331.951,367.486H179.846c-4.438,0-8.034,3.597-8.034,8.034c0,4.437,3.596,8.034,8.034,8.034
		h152.105c4.438,0,8.034-3.597,8.034-8.034C339.985,371.083,336.389,367.486,331.951,367.486z"/>
</g>
<g style="opacity:0.2;">
	<rect x="148.528" y="72.121" style="fill:#231F20;" width="25.172" height="345.386"/>
</g>
<g>
</g>
<g>
</g>
<g>
</g>
<g>
</g>
<g>
</g>
<g>
</g>
<g>
</g>
<g>
</g>
<g>
</g>
<g>
</g>
<g>
</g>
<g>
</g>
<g>
</g>
<g>
</g>
<g>
</g>
</svg>
