<svg width="15" height="14" viewBox="0 0 15 14" fill="none" xmlns="http://www.w3.org/2000/svg">
<path d="M11.5239 11.4818C11.0278 12.2229 10.5019 12.9461 9.70109 12.958C8.90026 12.9759 8.64328 12.4859 7.73487 12.4859C6.82048 12.4859 6.53959 12.9461 5.78059 12.9759C4.99769 13.0058 4.40603 12.1871 3.90401 11.4639C2.88205 9.98775 2.09915 7.2685 3.15099 5.43973C3.67094 4.53132 4.60325 3.95759 5.61326 3.93966C6.37823 3.92771 7.10735 4.45961 7.57948 4.45961C8.04564 4.45961 8.93014 3.82013 9.85648 3.91576C10.2449 3.93369 11.3326 4.07114 12.0319 5.09908C11.9781 5.13494 10.735 5.86405 10.747 7.37608C10.7649 9.18094 12.3307 9.78455 12.3486 9.79053C12.3307 9.83236 12.0976 10.6511 11.5239 11.4818ZM8.11138 1.91965C8.54765 1.42361 9.27079 1.0471 9.86843 1.02319C9.94612 1.72243 9.66524 2.42764 9.24689 2.92966C8.83452 3.43765 8.15321 3.83209 7.48386 3.7783C7.39421 3.09102 7.72889 2.37385 8.11138 1.91965Z" fill="white"/>
</svg>
