<svg width="16" height="14" viewBox="0 0 16 14" fill="none" xmlns="http://www.w3.org/2000/svg">
<path fill-rule="evenodd" clip-rule="evenodd" d="M9.296 0.332589C9.82592 0.113015 10.3939 0 10.9675 0C11.5411 0 12.1091 0.113015 12.6391 0.332589C13.169 0.552163 13.6504 0.873992 14.056 1.27969C14.4615 1.68515 14.7833 2.16654 15.0028 2.69636C15.2224 3.22628 15.3354 3.79427 15.3354 4.36788C15.3354 4.9415 15.2224 5.50949 15.0028 6.03941C14.7833 6.56928 14.4615 7.05071 14.0558 7.45619C14.0558 7.45623 14.0559 7.45615 14.0558 7.45619L8.1625 13.3495C7.88913 13.6229 7.44592 13.6229 7.17255 13.3495L1.27922 7.45619C0.460149 6.63712 0 5.52622 0 4.36788C0 3.20954 0.460149 2.09865 1.27922 1.27958C2.09829 0.460505 3.20919 0.000356495 4.36753 0.000356495C5.52587 0.000356495 6.63676 0.460505 7.45583 1.27958L7.66753 1.49127L7.8791 1.27969C7.87906 1.27973 7.87914 1.27965 7.8791 1.27969C8.28459 0.874047 8.76613 0.552142 9.296 0.332589ZM13.0658 2.26941C12.7903 1.99378 12.4632 1.77513 12.1031 1.62596C11.7431 1.47678 11.3572 1.4 10.9675 1.4C10.5778 1.4 10.1919 1.47678 9.83191 1.62596C9.47189 1.77513 9.14478 1.99378 8.86928 2.26941L8.1625 2.97619C7.88913 3.24956 7.44592 3.24956 7.17255 2.97619L6.46589 2.26953C5.90937 1.71301 5.15456 1.40036 4.36753 1.40036C3.58049 1.40036 2.82569 1.71301 2.26917 2.26953C1.71265 2.82604 1.4 3.58085 1.4 4.36788C1.4 5.15492 1.71265 5.90972 2.26917 6.46624L7.66753 11.8646L13.0659 6.46624C13.3415 6.19074 13.5603 5.86352 13.7095 5.5035C13.8586 5.14347 13.9354 4.75759 13.9354 4.36788C13.9354 3.97818 13.8586 3.59229 13.7095 3.23227C13.5603 2.87224 13.3414 2.54491 13.0658 2.26941Z" fill="#313237"/>
</svg>
