<svg width="195" height="63" viewBox="0 0 195 63" fill="none" xmlns="http://www.w3.org/2000/svg">
<path d="M0.176 24.088C0.176 20.4613 0.816 17.1973 2.096 14.296C3.376 11.352 5.12533 8.856 7.344 6.808C9.60533 4.76 12.272 3.18133 15.344 2.072C18.416 0.962664 21.744 0.407997 25.328 0.407997C28.912 0.407997 32.24 0.962664 35.312 2.072C38.384 3.18133 41.0507 4.76 43.312 6.808C45.5733 8.856 47.344 11.352 48.624 14.296C49.904 17.1973 50.544 20.4613 50.544 24.088C50.544 27.7147 49.904 31.0213 48.624 34.008C47.344 36.9947 45.5733 39.5547 43.312 41.688C41.0507 43.7787 38.384 45.4 35.312 46.552C32.24 47.704 28.912 48.28 25.328 48.28C21.744 48.28 18.416 47.704 15.344 46.552C12.272 45.4 9.60533 43.7787 7.344 41.688C5.12533 39.5547 3.376 36.9947 2.096 34.008C0.816 31.0213 0.176 27.7147 0.176 24.088ZM16.368 24.088C16.368 25.5813 16.5813 26.9467 17.008 28.184C17.4773 29.4213 18.096 30.488 18.864 31.384C19.6747 32.28 20.6347 32.984 21.744 33.496C22.8533 33.9653 24.048 34.2 25.328 34.2C26.608 34.2 27.7813 33.9653 28.848 33.496C29.9573 32.984 30.9173 32.28 31.728 31.384C32.5387 30.488 33.1573 29.4213 33.584 28.184C34.0533 26.9467 34.288 25.5813 34.288 24.088C34.288 22.6373 34.0533 21.3147 33.584 20.12C33.1573 18.8827 32.5387 17.8587 31.728 17.048C30.9173 16.1947 29.9573 15.5333 28.848 15.064C27.7813 14.5947 26.608 14.36 25.328 14.36C24.048 14.36 22.8533 14.5947 21.744 15.064C20.6347 15.5333 19.6747 16.1947 18.864 17.048C18.096 17.8587 17.4773 18.8827 17.008 20.12C16.5813 21.3147 16.368 22.6373 16.368 24.088ZM93.198 30.04C93.198 32.9413 92.6647 35.5227 91.598 37.784C90.574 40.0453 89.166 41.9653 87.374 43.544C85.6247 45.08 83.5767 46.2533 81.23 47.064C78.926 47.8747 76.494 48.28 73.934 48.28C71.4167 48.28 68.9847 47.8747 66.638 47.064C64.334 46.2533 62.3073 45.08 60.558 43.544C58.8087 41.9653 57.4007 40.0453 56.334 37.784C55.31 35.5227 54.798 32.9413 54.798 30.04C54.798 27.1813 55.31 24.6427 56.334 22.424C57.4007 20.1627 58.8087 18.264 60.558 16.728C62.3073 15.192 64.334 14.04 66.638 13.272C68.9847 12.4613 71.4167 12.056 73.934 12.056C76.494 12.056 78.926 12.4613 81.23 13.272C83.5767 14.04 85.6247 15.192 87.374 16.728C89.166 18.264 90.574 20.1627 91.598 22.424C92.6647 24.6427 93.198 27.1813 93.198 30.04ZM73.934 24.472C72.3127 24.472 70.99 25.0267 69.966 26.136C68.9847 27.2453 68.494 28.5467 68.494 30.04C68.494 31.6187 69.006 32.9627 70.03 34.072C71.054 35.1813 72.3767 35.736 73.998 35.736C75.6193 35.736 76.942 35.1813 77.966 34.072C78.99 32.9627 79.502 31.6187 79.502 30.04C79.502 28.5467 78.9687 27.2453 77.902 26.136C76.878 25.0267 75.5553 24.472 73.934 24.472ZM122.322 47.896C120.658 47.896 119.015 47.5973 117.394 47C115.773 46.36 114.45 45.4853 113.426 44.376H113.298V62.36H98.642V13.336H112.53V16.728H112.658C113.895 15.32 115.389 14.2533 117.138 13.528C118.887 12.8027 120.594 12.44 122.258 12.44C124.775 12.44 126.994 12.952 128.914 13.976C130.834 15 132.434 16.344 133.714 18.008C134.994 19.672 135.954 21.5493 136.594 23.64C137.277 25.7307 137.618 27.864 137.618 30.04C137.618 32.2587 137.277 34.4347 136.594 36.568C135.954 38.7013 134.994 40.6213 133.714 42.328C132.434 43.992 130.834 45.336 128.914 46.36C127.037 47.384 124.839 47.896 122.322 47.896ZM123.922 30.04C123.922 28.5467 123.453 27.2453 122.514 26.136C121.575 25.0267 120.21 24.472 118.418 24.472C116.669 24.472 115.261 25.0267 114.194 26.136C113.17 27.2453 112.658 28.5467 112.658 30.04C112.658 31.6187 113.17 32.9627 114.194 34.072C115.261 35.1813 116.669 35.736 118.418 35.736C120.21 35.736 121.575 35.2027 122.514 34.136C123.453 33.0267 123.922 31.6613 123.922 30.04ZM170.664 36.312C170.664 38.5733 170.173 40.472 169.192 42.008C168.253 43.544 167.037 44.7813 165.544 45.72C164.093 46.616 162.493 47.256 160.744 47.64C158.994 48.0667 157.33 48.28 155.752 48.28C152.85 48.28 149.992 47.8533 147.176 47C144.402 46.1893 141.992 45.016 139.944 43.48L147.176 35.096C148.2 36.0347 149.394 36.8027 150.76 37.4C152.168 37.9547 153.512 38.232 154.792 38.232C155.304 38.232 155.773 38.1467 156.2 37.976C156.669 37.7627 156.904 37.4 156.904 36.888C156.904 36.3333 156.498 35.9067 155.688 35.608C154.92 35.2667 153.554 34.8613 151.592 34.392C150.525 34.136 149.437 33.7733 148.328 33.304C147.218 32.792 146.194 32.1307 145.256 31.32C144.36 30.5093 143.613 29.528 143.016 28.376C142.418 27.1813 142.12 25.7733 142.12 24.152C142.12 21.976 142.589 20.12 143.528 18.584C144.509 17.048 145.725 15.8107 147.176 14.872C148.669 13.8907 150.269 13.1867 151.976 12.76C153.725 12.2907 155.368 12.056 156.904 12.056C159.506 12.056 162.088 12.44 164.648 13.208C167.208 13.976 169.512 15.0427 171.56 16.408L164.648 24.664C163.581 23.9813 162.493 23.448 161.384 23.064C160.274 22.68 159.186 22.488 158.12 22.488C157.394 22.488 156.797 22.5947 156.328 22.808C155.858 22.9787 155.624 23.3413 155.624 23.896C155.624 24.3227 155.88 24.664 156.392 24.92C156.946 25.1333 158.184 25.432 160.104 25.816C161.426 26.072 162.706 26.4773 163.944 27.032C165.224 27.544 166.354 28.2267 167.336 29.08C168.36 29.8907 169.17 30.8933 169.768 32.088C170.365 33.2827 170.664 34.6907 170.664 36.312ZM186.836 48.024C185.727 48.024 184.681 47.8107 183.7 47.384C182.761 47 181.929 46.4667 181.204 45.784C180.479 45.1013 179.903 44.2907 179.476 43.352C179.092 42.4133 178.9 41.3893 178.9 40.28C178.9 39.2133 179.092 38.2107 179.476 37.272C179.903 36.3333 180.479 35.5227 181.204 34.84C181.929 34.1147 182.761 33.56 183.7 33.176C184.681 32.7493 185.727 32.536 186.836 32.536C187.945 32.536 188.969 32.7493 189.908 33.176C190.889 33.56 191.743 34.1147 192.468 34.84C193.193 35.5227 193.748 36.3333 194.132 37.272C194.559 38.2107 194.772 39.2133 194.772 40.28C194.772 41.3893 194.559 42.4133 194.132 43.352C193.748 44.2907 193.193 45.1013 192.468 45.784C191.743 46.4667 190.889 47 189.908 47.384C188.969 47.8107 187.945 48.024 186.836 48.024ZM179.156 1.688H194.516V30.36H179.156V1.688Z" fill="black"/>
</svg>
