<svg width="523" height="490" viewBox="0 0 523 490" fill="none" xmlns="http://www.w3.org/2000/svg">
<path fill-rule="evenodd" clip-rule="evenodd" d="M36.9628 234.537C36.9628 234.537 14.7335 215.548 45.9196 149.983C77.1058 84.4186 140.264 98.7893 180.634 73.0003C240.282 34.8959 215.834 5.07634 290.211 0.269718C383.857 -5.78219 389.161 92.0171 436.013 92.0171C439.095 92.0171 512.053 62.7016 522.732 142.954C528.11 183.37 436.013 245.002 436.013 245.002C436.013 245.002 397.683 279.745 395.578 296.902C386.75 368.852 405.16 451.26 198.857 489.197C172.176 494.104 127.872 476.356 103.43 443.572C84.2814 417.887 7.46809 436.11 0.297781 351.669C-3.3162 309.108 36.9628 234.537 36.9628 234.537Z" fill="#64FCD9"/>
<path d="M174.572 177.491C175.268 177.08 176.165 177.311 176.575 178.007L178.231 180.801C184.806 191.832 187.436 195.414 190.231 197.034C192.529 198.365 194.904 197.952 199.252 195.402L199.833 195.053C202.568 193.349 215.082 184.752 219.92 181.666C220.601 181.231 221.505 181.431 221.94 182.112C222.374 182.793 222.174 183.698 221.493 184.132L220.749 184.611C215.357 188.107 203.245 196.425 201.101 197.707C195.837 200.855 192.424 201.562 189.003 199.699L188.765 199.565C185.09 197.436 182.232 193.352 174.056 179.494C173.645 178.798 173.876 177.901 174.572 177.491Z" fill="white"/>
<path d="M198.26 194.398C199.061 194.291 199.797 194.853 199.904 195.654C200.402 199.375 201.595 203.106 203.49 206.851C203.854 207.572 203.565 208.452 202.844 208.816C202.124 209.181 201.244 208.892 200.879 208.171C198.841 204.141 197.547 200.097 197.004 196.042C196.897 195.242 197.459 194.506 198.26 194.398Z" fill="white"/>
<path fill-rule="evenodd" clip-rule="evenodd" d="M368.664 283.737C368.428 284.334 367.911 285.161 367.31 285.943L367.828 286.48L368.428 287.119L368.561 287.247C368.62 287.299 368.665 287.33 368.699 287.339C368.893 287.367 369.028 287.546 369.002 287.741C368.974 287.932 368.796 288.07 368.602 288.042C368.426 288.038 367.787 287.789 367.027 287.171C366.889 287.059 366.752 286.93 366.612 286.788C366.173 287.278 365.73 287.699 365.347 287.96C364.784 288.349 364.295 288.38 364.062 288.222C363.833 288.069 363.613 287.554 363.986 286.513C364.044 286.324 364.245 286.225 364.432 286.284C364.617 286.343 364.72 286.541 364.661 286.729C364.605 286.922 364.597 287.099 364.596 287.24L364.812 287.093C364.889 287.038 364.967 286.976 365.039 286.904C365.3 286.647 365.592 286.334 365.885 285.996C365.421 285.456 364.948 284.823 364.565 284.092C364.378 283.735 364.23 283.357 364.088 282.959C363.99 282.737 364.091 282.476 364.315 282.377C364.537 282.279 364.798 282.381 364.896 282.603C365.322 283.496 365.866 284.265 366.404 284.924L366.583 285.139C367.073 284.499 367.493 283.851 367.684 283.357C367.79 283.088 368.095 282.954 368.365 283.057C368.637 283.164 368.771 283.468 368.664 283.737Z" fill="white"/>
<path fill-rule="evenodd" clip-rule="evenodd" d="M151.022 99.2101L150.131 99.0487C145.152 98.1231 141.335 96.9868 134.204 94.5145C133.386 94.231 132.953 93.3382 133.237 92.5204C133.52 91.7027 134.413 91.2696 135.231 91.5531L137.008 92.1647C143.263 94.2995 146.773 95.2782 151.567 96.1234C167.696 98.9674 179.773 90.6865 180.761 74.8936C180.815 74.0298 181.559 73.3733 182.423 73.4273C183.287 73.4814 183.943 74.2255 183.889 75.0893C182.778 92.8508 168.905 102.363 151.022 99.2101Z" fill="#00160A"/>
<path fill-rule="evenodd" clip-rule="evenodd" d="M191.325 116.123L192.225 118.123L194.277 118.712C194.388 118.744 194.452 118.86 194.42 118.97C194.41 119.005 194.392 119.036 194.367 119.061L192.808 120.613L192.895 122.846C192.9 122.961 192.81 123.058 192.695 123.063C192.656 123.064 192.617 123.055 192.583 123.035L190.818 122.03C190.763 121.999 190.697 121.994 190.638 122.018L188.751 122.767C188.643 122.81 188.522 122.758 188.479 122.65C188.465 122.614 188.461 122.574 188.468 122.536L188.865 120.337L187.537 118.583C187.468 118.491 187.486 118.36 187.578 118.291C187.606 118.269 187.64 118.255 187.675 118.25L189.788 117.953L190.958 116.098C191.02 116 191.149 115.971 191.246 116.032C191.281 116.054 191.308 116.086 191.325 116.123Z" fill="#00160A"/>
<path d="M397.475 65.8584C398.281 65.801 398.981 66.4076 399.038 67.2133C399.096 68.0191 398.489 68.7189 397.683 68.7764C391.911 69.1882 387.378 71.4249 385.364 76.9578C385.243 77.2908 385.143 77.6123 385.061 77.9178L385.007 78.1277L385.096 77.9434C387.631 72.7663 392.521 69.1691 398.188 68.2562L398.559 68.2005C399.359 68.0888 400.098 68.6468 400.21 69.4469C400.321 70.247 399.763 70.9861 398.963 71.0978C393.698 71.8326 389.195 75.3315 387.23 80.3499L387.103 80.6868C386.17 83.2517 383.929 84.4817 382.486 82.2866C381.607 80.9477 381.665 78.5699 382.615 75.9572C385.028 69.3302 390.562 66.3516 397.475 65.8584Z" fill="white"/>
<path d="M390.813 54.9614C391.618 54.9039 392.318 55.5105 392.376 56.3163C392.433 57.122 391.826 57.8219 391.021 57.8793C381.839 58.5344 373.788 64.497 370.585 73.2983C369.635 75.9073 369.459 78.138 369.799 79.2676L369.84 79.3937L369.905 79.3004C370.068 79.0527 370.252 78.6969 370.433 78.2355L370.51 78.0313C373.893 68.7348 382.097 62.2242 391.719 60.8811C392.519 60.7694 393.259 61.3274 393.37 62.1275C393.482 62.9276 392.924 63.6667 392.124 63.7783C383.706 64.9533 376.512 70.5711 373.413 78.6205L373.258 79.0319C372.004 82.4793 369.29 83.9686 367.556 81.3288C366.367 79.5199 366.45 76.105 367.836 72.2978C371.438 62.4024 380.49 55.6978 390.813 54.9614Z" fill="white"/>
<path d="M381.834 40.4318C382.64 40.3743 383.339 40.9809 383.397 41.7867C383.454 42.5924 382.848 43.2922 382.042 43.3497C368.947 44.284 357.464 52.7885 352.895 65.3417C351.34 69.6138 351.21 73.2347 352.059 74.7398L352.137 74.867C352.263 75.0584 352.22 75.064 352.253 75.0376L352.272 75.0248C352.702 74.7887 353.271 73.9841 353.789 72.6497L353.892 72.3757C358.559 59.5543 369.873 50.5755 383.144 48.7231C383.944 48.6114 384.683 49.1694 384.795 49.9695C384.907 50.7696 384.349 51.5087 383.549 51.6204C371.498 53.3024 361.205 61.369 356.812 72.9186L356.641 73.3763C355.018 77.8367 351.762 79.6237 349.692 76.4735C348.149 74.1249 348.261 69.5197 350.146 64.3411C355.113 50.6939 367.598 41.4474 381.834 40.4318Z" fill="white"/>
<path d="M365.806 26.7768C366.598 26.6215 367.367 27.1383 367.522 27.9311C367.677 28.7238 367.161 29.4923 366.368 29.6476C354.513 31.9693 344.979 41.0242 342.214 53.0013C341.278 57.0548 341.561 60.3507 342.479 61.6081L342.601 61.7658L342.611 61.7877L342.628 61.7745C342.957 61.4777 343.341 60.7196 343.639 59.5443L343.702 59.2861C346.546 46.968 355.937 37.433 367.932 34.2309C368.713 34.0225 369.514 34.4863 369.723 35.2668C369.931 36.0473 369.467 36.8489 368.687 37.0573C357.88 39.9422 349.389 48.4506 346.664 59.4768L346.552 59.9442C345.549 64.2886 342.669 66.3625 340.337 63.6124C338.63 61.601 338.211 57.333 339.363 52.3432C342.39 39.2316 352.828 29.3183 365.806 26.7768Z" fill="white"/>
<path d="M203.663 207.173L204.508 206.866C212.488 204.002 219.222 202.739 220.932 204.479C222.432 206.005 223.769 208.769 225.036 212.823C225.277 213.594 224.847 214.414 224.076 214.655C223.305 214.896 222.485 214.466 222.244 213.695C221.148 210.19 220.03 207.83 218.972 206.664L218.929 206.618L218.891 206.62C218.691 206.579 218.39 206.558 218.008 206.566C217.165 206.582 216.013 206.731 214.637 207.003C211.806 207.564 208.229 208.607 204.676 209.918C198.735 212.109 193.786 214.684 191.052 217.01C190.048 217.864 188.216 215.485 189.979 214.123C193.152 211.671 197.965 209.275 203.663 207.173Z" fill="white"/>
<path d="M199.647 179.541C199.647 184.42 204.807 189.703 205.905 190.003C206.684 190.216 193.26 198.963 193.26 198.963C188.409 199.601 185.561 195.501 185.561 189.394C185.561 188.586 199.647 178.733 199.647 179.541Z" fill="white"/>
<path fill-rule="evenodd" clip-rule="evenodd" d="M183.818 182.105C185.518 181.775 186.672 180.359 186.397 178.943C186.121 177.527 184.521 176.647 182.822 176.977C181.122 177.307 179.968 178.723 180.243 180.139C180.518 181.555 182.119 182.435 183.818 182.105Z" fill="#FFB61D"/>
<path d="M356.958 18.6655C357.754 18.5269 358.511 19.0597 358.65 19.8555C358.789 20.6513 358.256 21.4089 357.46 21.5475C353.675 22.2068 349.858 24.4978 345.923 28.1419C340.812 32.8738 337.437 39.4122 335.576 48.1298C334.077 55.1534 335.461 63.9297 339.38 71.6448C343.839 80.4224 351.727 82.5918 360.924 84.2717C370.366 85.9962 372.975 84.9312 381.896 81.7595L382.718 81.4612C383.937 80.9993 389.638 78.7687 391.009 78.3542C393.893 77.4819 395.86 77.5549 397.287 79.0753C397.84 79.6643 397.811 80.59 397.222 81.1428C396.669 81.661 395.821 81.6676 395.262 81.181L395.154 81.0771C394.733 80.6286 393.863 80.5766 392.112 81.0788L391.855 81.1543C390.537 81.553 384.355 83.9795 383.554 84.2717C373.918 87.7892 370.65 89.0218 360.398 87.1494C350.24 85.294 341.621 82.5163 336.772 72.9697C332.557 64.673 331.072 55.2169 332.715 47.5191C334.702 38.2149 338.38 31.1392 343.935 25.9954C348.284 21.9689 352.616 19.4218 356.958 18.6655Z" fill="white"/>
<path d="M425.768 135.052C417.429 134.626 410.863 141.066 410.794 149.711C410.736 156.995 414.839 162.993 420.475 164.155C422.754 164.624 427.129 164.059 430.375 162.239C435.303 159.596 439.07 154.163 439.545 149.533C440.32 141.99 434.213 135.484 425.768 135.052Z" fill="white"/>
<path d="M274.668 133.529C277.332 138.909 281.468 151.334 279.679 151.274C274.71 151.108 268.062 143.471 263.412 133.146L263.045 132.315C258.985 122.94 256.554 117.051 259.377 115.922C262.297 114.755 269.171 122.427 274.668 133.529Z" fill="white"/>
<path fill-rule="evenodd" clip-rule="evenodd" d="M259.377 115.805C262.297 114.638 269.272 121.959 274.77 133.061C277.433 138.441 279.24 143.601 279.712 147.302C279.712 147.302 270.717 128.349 265.23 121.407C263.123 118.74 259.377 115.805 259.377 115.805Z" fill="#E7EAEE"/>
<path d="M257.845 163.537C258.059 162.758 258.864 162.301 259.643 162.515C260.422 162.729 260.88 163.534 260.665 164.313C260.39 165.315 256.515 167.943 248.062 173.154L242.726 176.42C232.192 182.832 225.163 186.936 224.284 186.936C218.468 186.936 213.227 181.449 209.401 172.792C206.06 165.233 204.325 156.235 205.109 150.339C205.353 148.498 211.485 143.734 220.952 137.351L222.308 136.443C230.684 130.863 237.843 126.725 240.433 126.202C241.225 126.042 241.996 126.555 242.156 127.347C242.256 127.842 219.169 147.302 216.914 160.218C215.387 168.964 221.16 183.869 224.025 184.004L224.284 184.01C224.051 184.01 224.126 183.956 224.153 183.941L224.417 183.805C224.611 183.703 224.842 183.578 225.108 183.432L226.325 182.752C226.79 182.488 227.309 182.191 227.877 181.863L229.328 181.02C232.1 179.402 235.558 177.341 239.085 175.207L242.44 173.168C246.519 170.675 250.205 168.377 252.975 166.593L254.402 165.665C255.286 165.086 256.032 164.584 256.629 164.168L256.846 164.016C257.175 163.784 257.449 163.584 257.662 163.421C257.662 163.421 257.903 163.325 257.845 163.537Z" fill="white"/>
<path fill-rule="evenodd" clip-rule="evenodd" d="M260.745 134.347C257.21 126.499 255.649 119.307 256.832 114.952C254.694 115.632 252.02 116.853 249.366 118.376C245.838 120.4 243.039 122.662 242.973 123.153C242.291 128.286 244.908 138.273 249.258 147.176C253.91 156.7 259.444 162.817 263.729 162.817C264.139 162.817 265.313 162.575 266.489 162.163C268.163 161.579 269.731 160.727 271.015 159.611C271.654 159.056 272.315 158.429 273.006 157.729L273.838 156.869C274.328 156.35 274.835 155.792 275.625 154.906L276.726 153.677L276.773 153.625C271.262 151.611 265.497 144.512 261.185 135.306L260.745 134.347ZM240.073 122.768C240.528 119.343 253.349 111.941 259.2 111.463C259.445 111.309 259.707 111.176 259.986 111.065C265.053 109.04 272.774 117.713 278.967 129.916L279.391 130.764C282.187 136.409 284.094 141.857 284.614 145.932C285.235 150.802 283.825 154.03 280.128 154.195C280.029 154.579 279.778 154.9 279.446 155.093L279.389 155.122L279.245 155.266C279.1 155.415 278.929 155.6 278.666 155.893L276.848 157.922C276.189 158.649 275.721 159.142 275.088 159.783C274.348 160.534 273.634 161.212 272.934 161.819C270.102 164.279 265.916 165.742 263.729 165.742C262.569 165.742 261.396 165.472 260.22 164.957C258.965 166.267 255.101 168.815 248.062 173.154L242.726 176.42C232.192 182.832 225.163 186.936 224.284 186.936C222.293 186.936 220.368 186.292 218.545 185.098C218.528 185.11 218.511 185.121 218.493 185.132L217.749 185.612C215.157 187.292 211.013 190.086 207.17 192.677L207.169 192.678L206.929 192.84C207.427 196.392 208.558 199.953 210.328 203.527C216.61 201.585 221.586 200.928 223.022 202.389C224.522 203.916 225.859 206.679 227.126 210.733C227.367 211.504 226.937 212.325 226.166 212.566C225.395 212.807 224.575 212.377 224.334 211.606C223.238 208.1 222.12 205.741 221.062 204.574L221.018 204.529L220.981 204.531C220.781 204.49 220.48 204.469 220.098 204.476C219.255 204.493 218.103 204.641 216.727 204.914C213.896 205.475 210.319 206.518 206.766 207.829C198.644 210.825 192.376 214.537 191.087 217.35C190.71 218.174 190.758 219.379 191.209 221.224L191.293 221.556C191.361 221.818 191.431 222.077 191.524 222.405L192.052 224.274L192.075 224.358C192.089 224.415 192.105 224.475 192.123 224.545C192.326 225.327 191.857 226.125 191.075 226.328C190.293 226.531 189.495 226.062 189.292 225.28L189.032 224.334L188.599 222.807C188.55 222.627 188.505 222.46 188.461 222.29C187.776 219.648 187.666 217.796 188.428 216.132C189.719 213.312 193.759 210.39 199.385 207.734L198.161 204.573L197.859 203.774C197.396 202.528 196.856 200.838 196.526 199.605C192.131 201.974 189.07 202.37 186.003 200.7L185.765 200.565C185.158 200.214 184.574 199.809 183.985 199.316L166.842 209.729C167.001 210.072 167.162 210.418 167.324 210.767C168.094 212.417 166.737 213.585 164.656 214.494L164.432 214.589C162.643 215.33 161.029 215.5 160.068 214.445C156.082 210.07 151.862 199.603 154.132 197.209C154.568 196.75 155.719 196.065 157.895 194.924L158.069 194.834C158.113 194.803 158.16 194.774 158.208 194.748L174.233 186.066C174.27 186.046 174.307 186.028 174.345 186.011C173.355 184.375 172.27 182.552 171.071 180.519C170.888 180.225 170.821 179.88 170.867 179.549C170.896 179.338 170.971 179.132 171.092 178.949C171.158 178.847 171.238 178.753 171.33 178.67C174.624 175.545 179.114 172.287 184.745 168.779L185.428 168.356C187.865 166.854 192.808 164.034 197.008 161.639C200.265 159.781 203.075 158.179 203.921 157.643L204.126 157.508C204.432 157.284 204.796 157.196 205.146 157.234C204.867 154.696 204.843 152.339 205.109 150.338C205.353 148.498 211.485 143.734 220.952 137.351L222.308 136.442C230.243 131.156 237.087 127.164 239.987 126.314C239.909 125.004 239.935 123.811 240.073 122.768ZM240.308 129.28C237.466 130.319 230.351 134.543 222.588 139.777L221.344 140.62C217.85 143.004 214.623 145.329 212.185 147.223L211.507 147.754C210.419 148.616 209.539 149.359 208.901 149.955C208.581 150.254 208.328 150.51 208.15 150.713L208.025 150.86C207.998 150.888 207.991 150.877 208.001 150.785L208.009 150.724C208.006 150.747 208.003 150.768 208.001 150.785L207.963 151.099C206.556 163.443 215.482 183.602 224.026 184.004L224.227 184.009C224.243 184.01 224.262 184.01 224.284 184.01L224.227 184.009C224.065 184 224.129 183.954 224.154 183.941L224.417 183.805C224.611 183.703 224.842 183.578 225.108 183.432L226.325 182.752C226.79 182.488 227.309 182.191 227.877 181.863L229.328 181.02C232.1 179.402 235.558 177.341 239.085 175.207L242.44 173.168C246.519 170.675 250.205 168.377 252.975 166.592L254.402 165.665C255.286 165.086 256.033 164.584 256.63 164.168L256.846 164.016C257.163 163.793 257.427 163.6 257.637 163.44C253.869 160.675 250.159 155.569 246.866 148.941L246.629 148.46C243.455 141.963 241.16 134.926 240.308 129.28ZM205.549 160.07C204.494 160.734 201.38 162.512 197.916 164.49C193.811 166.834 189.214 169.459 186.963 170.847C181.647 174.124 177.36 177.162 174.177 180.023L175.231 181.801C179.844 189.54 182.515 193.613 184.664 195.914C183.95 194.221 183.58 192.072 183.58 189.378C183.58 189.254 183.596 189.133 183.625 189.018C183.483 188.458 183.682 187.842 184.177 187.479L185.173 186.739C185.771 186.287 186.754 185.536 187.872 184.681C190.318 182.812 193.409 180.45 194.512 179.66C197.981 177.175 200.538 175.781 202.866 175.297C203.978 175.066 204.842 175.724 205.092 176.742L205.133 176.928C205.191 177.231 205.202 177.529 205.201 178.181L205.2 178.387C205.188 180.821 205.429 182.226 206.46 183.848C207.166 184.958 208.202 185.971 209.646 186.879C209.797 186.974 209.925 187.092 210.028 187.225C212.358 185.661 214.54 184.206 216.15 183.162C213.613 180.706 211.328 177.151 209.401 172.792C207.607 168.732 206.276 164.256 205.549 160.07ZM281.712 146.302C281.24 142.601 279.433 137.441 276.77 132.062C271.273 120.959 263.992 112.614 261.071 113.781C258.248 114.909 258.985 122.94 263.045 132.315L263.412 133.146C268.062 143.471 274.71 151.108 279.679 151.274C281.468 151.334 282.167 149.873 281.712 146.302ZM175.856 188.484C178.394 192.587 180.248 195.297 181.863 197.182L165.611 207.053C163.946 203.404 162.457 200.007 161.012 196.556L175.627 188.638C175.709 188.593 175.786 188.541 175.856 188.484ZM207.522 204.45C205.945 201.188 204.856 197.918 204.257 194.64C202.157 196.053 200.33 197.277 199.155 198.04C199.356 199.049 200.104 201.444 200.748 203.148L201.949 206.238L202.063 206.539C203.243 206.041 204.476 205.555 205.753 205.084L206.598 204.777C206.908 204.665 207.216 204.556 207.522 204.45ZM207.47 188.946C205.972 187.908 204.823 186.726 203.991 185.417C202.644 183.297 202.29 181.486 202.275 178.751L202.274 178.506L202.067 178.584C200.584 179.16 198.814 180.201 196.591 181.771L196.216 182.038C195.157 182.796 192.144 185.099 189.713 186.956L189.712 186.957C188.361 187.989 187.191 188.884 186.636 189.299L186.505 189.396C186.508 194.262 187.723 196.495 189.982 197.578L190.163 197.661C190.701 197.9 191.086 198.019 192.183 198.32C192.205 198.326 192.227 198.332 192.248 198.339C193.387 197.956 194.693 197.317 196.252 196.402L196.833 196.053C198.121 195.251 201.577 192.92 205.38 190.356C206.069 189.891 206.769 189.419 207.47 188.946ZM158.427 197.955L158.651 198.489C160.205 202.172 161.819 205.82 163.651 209.798L164.364 211.342C164.13 211.499 163.823 211.665 163.485 211.813C163 212.025 162.508 212.173 162.138 212.223L162.02 212.235L161.842 212.021C160.457 210.317 158.85 207.42 157.689 204.54C157.07 203.006 156.63 201.599 156.431 200.518C156.35 200.077 156.313 199.707 156.316 199.427L156.325 199.242C156.328 199.197 156.328 199.173 156.317 199.17L156.36 199.14C156.608 198.97 157.239 198.6 158.178 198.09L158.427 197.955ZM178.604 194.732C178.038 194.156 177.112 194.147 176.536 194.712C175.521 195.707 174.1 196.634 171.617 198.013L169.09 199.415C168.423 199.795 167.876 200.123 167.381 200.444C166.967 200.712 166.598 200.971 166.266 201.228C165.626 201.722 165.509 202.641 166.003 203.28C166.497 203.919 167.415 204.037 168.054 203.543C168.318 203.339 168.623 203.125 168.973 202.898C169.296 202.689 169.651 202.471 170.062 202.231L170.868 201.77L173.434 200.348C175.9 198.964 177.386 197.976 178.584 196.801C179.161 196.235 179.17 195.309 178.604 194.732Z" fill="#00160A"/>
<path d="M145.886 343.27C153.2 384.051 180.615 414.709 215.598 421.937C222.019 423.264 233.138 423.438 244.653 421.948C259.488 420.028 273.925 415.624 286.623 408.486C321.503 389.739 347.971 351.479 351.402 317.987C354.415 288.567 343.176 261.389 322.829 242C322.829 242 258.914 273.393 227.539 291.237C200.237 306.764 145.886 343.27 145.886 343.27Z" fill="white"/>
<path d="M294.736 221.658C281.626 215.19 265.2 210.08 249.094 209.256C190.021 206.236 143.562 253.427 143.077 314.295C143.077 314.295 209.008 272.3 243.261 252.038C260.302 241.957 294.736 221.658 294.736 221.658Z" fill="white"/>
<path fill-rule="evenodd" clip-rule="evenodd" d="M416.241 190.637C416.042 200.806 405.281 217.733 387.982 236.887C375.451 250.762 360.87 264.174 348.644 273.211L347.883 273.769L348.388 276.015C351.361 289.045 355.242 303.21 353.776 317.495C350.217 352.165 323.098 391.281 287.261 410.499C274.191 417.832 259.334 422.354 244.094 424.322L242.641 424.501C231.278 425.84 220.404 425.618 213.759 424.248C187.966 418.93 166.129 400.9 152.927 374.805C152.883 374.718 152.848 374.628 152.822 374.536C151.084 375.528 148.746 376.636 147.678 376.998L144.752 377.987C113.219 388.593 81.9588 397.466 69.1884 391.928C64.3268 389.82 62.6652 385.765 64.6983 380.318C66.6742 375.024 72.1527 368.203 81.3442 359.714L81.8492 359.249C90.5589 351.265 109.901 336.676 139.874 315.481L139.882 315.092C141.344 252.29 190.127 204.415 251.445 208.323C270.2 209.518 285.136 216.183 292.596 220.276L295.877 218.515C326.647 202.062 351.336 190.497 370.173 183.575C401.152 172.191 416.472 177.513 416.241 190.637ZM371.182 190.321C336.542 203.05 281.798 231.679 205.576 277.73L203.26 279.131C143.908 315.06 104.607 342.356 83.826 361.405L82.8018 362.351L81.8306 363.262C66.2307 378.001 63.4656 386.258 70.3523 389.244C82.1413 394.357 113.8 385.738 144.804 375.569L147.678 374.621C150.443 373.705 152.276 373.179 153.411 372.936C153.461 372.901 153.515 372.869 153.572 372.84C153.96 372.644 154.394 372.637 154.768 372.784C154.85 372.8 154.903 372.825 154.93 372.86C155.183 372.997 155.398 373.209 155.537 373.485C168.354 398.817 189.472 414.254 214.35 419.383C220.807 420.714 231.702 420.909 243.039 419.507L243.719 419.421C258.608 417.498 273.109 415.084 285.854 407.935C320.874 389.154 347.408 350.883 350.866 317.196C352.344 302.799 350.458 288.667 345.443 275.514C345.03 275.803 344.619 276.087 344.212 276.365C343.442 276.89 343.729 276.039 345.074 273.814C345.145 273.524 345.305 273.259 345.535 273.061L345.949 272.405C346.094 272.176 346.247 271.939 346.407 271.691L348.141 270.229C364.48 256.409 377.037 244.642 385.811 234.926L386.813 233.811C403.047 215.644 413.138 199.596 413.305 190.583C413.488 180.695 400.442 179.568 371.182 190.321ZM224.303 375.301C228.228 387.296 222.291 395.011 211.84 395.41C202.183 395.778 193.389 389.693 193.837 381.046C194.225 373.573 199.342 365.583 205.641 362.65C213.26 359.101 220.411 363.406 224.303 375.301ZM207.185 365.965C202.144 368.312 197.808 375.082 197.489 381.235C197.171 387.364 203.946 392.051 211.7 391.756C219.807 391.446 223.969 386.038 220.828 376.438C217.557 366.443 212.585 363.45 207.185 365.965ZM304.097 350.859C309.105 360.321 307.794 369.617 300.094 373.783L299.878 373.897L299.766 374.009C289.44 384.233 276.541 385.474 268.129 378.063L267.841 377.804C258.151 368.927 260.46 353.678 275.878 341.723C285.801 334.03 297.921 339.189 304.097 350.859ZM277.799 344.2C263.801 355.053 261.834 368.05 269.958 375.492C275.785 380.83 284.395 381.125 292.436 375.945L292.593 375.84L292.534 375.828C291.977 375.681 291.531 375.232 291.404 374.646L291.379 374.497C291.277 373.638 291.891 372.859 292.751 372.757C294.717 372.524 296.423 372.049 297.87 371.37L298.067 371.273L298.307 371.025C299.251 370.032 300.172 368.952 301.065 367.783L301.361 367.39C301.696 366.941 302.226 366.723 302.745 366.765L302.786 366.769L302.807 366.73C304.684 363.019 304.239 357.992 301.491 352.64L301.327 352.325C295.956 342.177 285.919 337.904 277.799 344.2ZM371.008 231.724C370.203 234.586 367.751 238.513 363.994 243.164C357.443 251.271 347.602 260.707 339 267.16L340.908 265.061C340.889 265.045 340.873 265.022 340.859 264.997L340.201 263.787C335.896 255.93 331.101 248.18 323.351 241.862C303.289 250.133 280.287 261.439 259.33 273.261L252.461 277.144C201.876 305.799 175.262 322.954 146.802 344.044C147.876 348.881 149.23 353.602 150.851 358.176C151.105 358.894 147.782 361.58 147.173 361.248C141.496 365.052 132.605 367.815 127.544 367.959C122.611 368.099 119.761 366.102 121.229 362.121C122.458 358.79 127.084 354.039 135.41 347.673L136.359 346.953L138.278 345.511C169.613 322.051 200.634 303.014 257.893 270.713L260.29 269.369C299.561 247.447 345.039 227.698 365.869 225.876C370.15 225.501 372.093 227.87 371.008 231.724ZM142.992 346.882L136.426 351.836C130.57 356.277 126.347 359.561 124.066 361.668L123.899 361.824C121.115 364.435 124.266 365.125 127.461 365.035C132.3 364.898 139.714 361.228 145.989 357.888C144.829 354.295 143.829 350.622 142.992 346.882ZM245.685 331C246.468 331.198 246.942 331.994 246.743 332.777C246.544 333.56 245.748 334.034 244.965 333.835C241.032 332.836 238.708 333.22 237.955 334.279C237.455 334.982 237.732 336.18 238.667 336.945C239.398 337.543 240.371 337.828 241.04 337.683C241.622 337.556 241.948 337.107 241.948 335.984C241.948 335.176 242.603 334.521 243.411 334.521C244.219 334.521 244.874 335.176 244.874 335.984C244.874 338.426 243.652 340.108 241.662 340.541C240.063 340.889 238.199 340.342 236.814 339.209C234.77 337.536 234.102 334.648 235.571 332.583C237.182 330.319 240.712 329.737 245.685 331ZM181.433 325.63C183.689 326.306 184.661 328.038 184.967 330.636L184.998 330.918L185.035 331.346C185.04 331.417 185.045 331.49 185.05 331.568L185.127 333.053L185.15 333.388C185.162 333.535 185.175 333.655 185.19 333.762L185.229 333.985L185.252 334.084L185.293 334.12C185.745 334.562 185.865 335.255 185.573 335.827L185.498 335.957C185.06 336.636 184.155 336.831 183.476 336.393C182.542 335.791 182.329 335.171 182.216 333.392L182.123 331.65C182.113 331.493 182.101 331.357 182.086 331.203C181.92 329.499 181.504 328.705 180.594 328.432C178.039 327.667 176.573 328.448 176.108 330.156C175.695 331.678 176.293 333.277 177.341 333.721L177.607 333.82C178.292 334.113 178.655 334.884 178.424 335.609C178.179 336.378 177.356 336.803 176.586 336.558C173.801 335.67 172.477 332.361 173.285 329.388C174.187 326.071 177.324 324.399 181.433 325.63ZM286.962 303.233C291.012 308.927 290.259 316.173 283.761 319.451C283.039 319.815 282.16 319.526 281.796 318.804C281.432 318.083 281.722 317.203 282.443 316.84C287.148 314.466 287.685 309.297 284.578 304.928C281.559 300.684 277.358 300.218 274.47 304.803C271.409 309.665 271.631 312.518 273.835 313.803C275.585 314.824 278.402 314.609 279.177 313.775L279.252 313.684C279.72 313.026 280.634 312.872 281.292 313.34C281.95 313.809 282.104 314.722 281.635 315.38C280.009 317.664 275.369 318.084 272.362 316.331C268.512 314.086 268.144 309.36 271.995 303.245C276.118 296.696 282.844 297.443 286.962 303.233ZM226.318 294.845C227.078 294.845 227.703 295.426 227.774 296.167L227.781 296.308C227.781 296.566 228.02 296.853 228.878 297.483L229.691 298.066C230.576 298.711 231.003 299.112 231.406 299.75C232.329 301.208 232.851 302.693 232.851 304.439C232.851 308.909 226.136 314.989 218.806 317.695C210.018 320.938 202.819 318.533 200.86 309.516C200.688 308.726 201.189 307.947 201.978 307.776C202.768 307.604 203.547 308.105 203.718 308.895C205.239 315.893 210.488 317.646 217.793 314.95C224.1 312.622 229.926 307.348 229.926 304.439C229.926 303.313 229.584 302.341 228.934 301.314L228.846 301.19C228.697 301.002 228.464 300.798 228.045 300.487L227.08 299.792C225.476 298.61 224.855 297.812 224.855 296.308C224.855 295.5 225.51 294.845 226.318 294.845ZM233.184 213.773L232.26 213.877C182.348 219.88 144.904 259.801 142.862 313.372L148.218 309.604C163.589 298.814 181.432 286.489 201.745 272.628L205.703 270.236C217.52 263.107 228.818 256.398 239.604 250.104C239.407 249.759 239.352 249.335 239.485 248.928C240.239 246.626 240.936 245.079 242.213 243.53C246.21 238.682 251.685 236.314 255.564 239.358C255.946 239.658 256.139 240.109 256.123 240.56L259.569 238.594C270.42 232.417 280.687 226.712 290.378 221.472L286.593 220.395C280.98 218.815 273.997 216.941 267.041 215.499C267.104 220.127 263.64 223.823 257.883 226.366C252.99 228.527 246.613 229.69 242.079 229.419C233.597 228.914 228.823 221.474 233.184 213.773ZM320.739 277.295C324.319 287.074 321.365 295.967 312.428 295.909C299.694 295.826 287.259 284.707 289.269 274.746C290.166 270.303 293.506 266.372 299.315 264.41C308.592 261.277 317.096 267.34 320.739 277.295ZM300.251 267.182C295.451 268.803 292.831 271.886 292.137 275.325C290.541 283.231 301.368 292.911 312.447 292.984C318.794 293.025 320.976 286.453 317.992 278.301C314.835 269.674 307.776 264.641 300.251 267.182ZM192.696 232.555L192.801 232.706L193.505 233.825C193.849 234.394 194.158 234.951 194.452 235.553C197.692 242.176 197.608 250.859 192.126 262.912C189.642 268.372 183.315 275.71 177.79 280.089C170.735 285.681 165.468 286.951 159.181 286.26L157.315 286.041L157.088 286.02C156.963 286.011 156.883 286.011 156.796 286.013L156.668 286.019C156.57 286.023 156.537 286.019 156.531 286.006L156.531 285.996L156.484 286.072C156.06 286.68 155.235 286.88 154.574 286.512C153.868 286.119 153.614 285.229 154.006 284.523C154.532 283.577 155.411 283.15 156.529 283.097C156.825 283.083 157.139 283.093 157.512 283.124L157.948 283.166L159.154 283.313C164.881 284.007 169.438 282.976 175.973 277.797C181.163 273.684 187.195 266.688 189.463 261.701C194.593 250.422 194.668 242.652 191.824 236.838C191.635 236.451 191.438 236.083 191.223 235.713L190.917 235.202L190.304 234.232C189.875 233.548 190.082 232.645 190.766 232.216C191.408 231.813 192.241 231.97 192.696 232.555ZM366.124 228.79C356.773 229.608 342.115 234.227 325.216 241.098L325.71 241.535C330.413 245.754 339.901 255.76 342.871 262.897L345.83 259.616C353.129 251.497 358.426 245.4 361.718 241.325L362.385 240.49C365.532 236.496 367.566 233.159 368.192 230.932L368.281 230.594C368.672 228.987 368.22 228.606 366.124 228.79ZM226.068 233.541C229.708 235.301 231.185 239.22 228.79 242.772C228.339 243.442 227.43 243.619 226.76 243.167C226.09 242.716 225.913 241.807 226.365 241.137C227.682 239.183 226.939 237.212 224.794 236.175C222.536 235.083 220.061 235.711 218.784 238.095C217.607 240.292 217.526 243.265 218.466 245.213C219.29 246.923 220.491 247.251 222.323 245.872C222.968 245.386 223.885 245.515 224.371 246.161C224.857 246.806 224.728 247.723 224.082 248.209C220.744 250.722 217.44 249.82 215.831 246.484C214.482 243.688 214.589 239.729 216.205 236.713C218.266 232.867 222.467 231.801 226.068 233.541ZM244.471 245.391C243.789 246.218 243.301 247.091 242.85 248.211C246.619 246.022 250.324 243.882 253.966 241.794L253.86 241.732L253.758 241.659C251.525 239.906 247.588 241.609 244.471 245.391ZM238.233 213.326L236.954 213.416L236.868 213.524C231.812 219.914 233.759 225.1 240.664 225.837C245.624 226.366 258.789 222.686 260.333 221.395C261.837 220.137 263.74 217.245 264.033 214.901C259.565 214.061 255.194 213.444 251.295 213.244C247.311 213.041 243.382 213.045 239.518 213.25L238.233 213.326Z" fill="#00160A"/>
<path d="M370.295 190.684C401.273 179.3 400.563 182.677 371.304 193.43C336.664 206.159 205.906 285.92 205.906 285.92C146.555 321.848 142.115 316.302 199.642 281.34L203.189 279.189C203.857 278.785 269.352 237.448 316.153 215.333C321.42 212.844 366.768 191.98 370.295 190.684Z" fill="white"/>
<path fill-rule="evenodd" clip-rule="evenodd" d="M423.785 134.01C414.185 133.519 406.693 140.979 406.615 150.739C406.55 158.917 411.241 165.86 417.963 167.246C419.734 167.611 424.842 167.611 429.273 165.125L429.639 164.923C435.226 161.76 439.026 155.742 439.534 150.791C440.435 142.014 433.384 134.501 423.785 134.01ZM408.704 150.756C408.705 150.693 408.706 150.63 408.707 150.567C408.767 150.548 408.826 150.523 408.883 150.492C416.409 146.438 421.055 143.348 422.91 141.117C424.135 139.645 424.732 137.983 424.684 136.178C425.947 136.318 427.152 136.595 428.281 136.992C428.275 137.046 428.272 137.102 428.274 137.158C428.366 139.756 427.673 141.832 426.201 143.449C424.509 145.308 422.459 147.076 420.129 148.743C417.638 150.526 414.962 152.1 412.287 153.448C411.663 153.763 411.069 154.049 410.511 154.308L409.704 154.674C409.588 154.725 409.481 154.772 409.382 154.815L409.142 154.916C408.846 153.599 408.693 152.203 408.704 150.756ZM409.729 156.936C410.391 158.771 411.349 160.397 412.535 161.722L413.16 161.362C422.981 155.676 429.078 151.209 431.386 148.058C433.719 144.872 434.551 142.426 434.029 140.762C434.017 140.723 434.007 140.684 433.999 140.644C432.971 139.565 431.748 138.638 430.368 137.905C430.31 140.667 429.437 142.999 427.746 144.856C425.947 146.832 423.788 148.695 421.345 150.443C418.758 152.294 415.992 153.921 413.227 155.314C412.42 155.721 411.661 156.083 410.962 156.4L410.148 156.761L409.729 156.936ZM417.551 164.989C416.317 164.62 415.167 164.015 414.133 163.213C424.243 157.366 430.534 152.758 433.072 149.293C434.646 147.143 435.652 145.21 436.061 143.485C436.57 144.435 436.955 145.448 437.202 146.505C437.149 146.613 437.114 146.732 437.101 146.858C436.846 149.301 435.587 151.725 433.285 154.14C431.076 156.457 426.308 159.8 419.022 164.123L417.551 164.989ZM421.083 165.327C423.325 165.185 426.069 164.527 428.285 163.284C432.408 161.073 435.718 156.91 436.968 152.898C436.363 153.804 435.64 154.698 434.797 155.582C432.529 157.961 427.969 161.196 421.083 165.327ZM409.312 147.88L408.94 148.082C410.126 141.178 415.642 136.224 422.589 136.08C422.662 137.437 422.241 138.654 421.303 139.782C419.788 141.604 415.767 144.332 409.312 147.88Z" fill="#00160A"/>
<path fill-rule="evenodd" clip-rule="evenodd" d="M499.211 113.99C499.406 114.012 499.542 114.188 499.52 114.382C499.519 114.667 499.336 114.821 499.089 114.921C498.866 115.011 498.511 114.976 498.305 115.004C496.042 115.179 494.264 113.514 493.481 111.368C492.73 109.307 492.929 106.842 494.294 105.322C494.451 105.143 494.723 105.125 494.902 105.282C495.081 105.439 496.099 105.712 495.942 105.891C494.817 107.204 494.056 108.001 495.117 111.118C496.179 114.235 499.066 113.973 499.211 113.99Z" fill="#E7EAEE"/>
<path fill-rule="evenodd" clip-rule="evenodd" d="M138.956 136.306C138.361 135.898 137.548 136.049 137.14 136.644C136.732 137.238 136.883 138.051 137.477 138.459C138.131 138.908 138.708 139.322 139.217 139.707C138.669 140.143 138.121 140.643 137.551 141.213L136.396 142.386C135.888 142.898 135.892 143.725 136.404 144.233C136.916 144.741 137.743 144.737 138.251 144.225L139.637 142.824C140.201 142.275 140.729 141.816 141.261 141.434C142.442 142.604 142.801 143.463 142.821 144.316L142.821 144.535L142.827 144.668C142.894 145.327 143.45 145.841 144.127 145.841C144.848 145.841 145.433 145.256 145.433 144.535L145.432 144.278C145.408 142.948 144.939 141.682 143.675 140.236C144.509 139.988 145.45 139.848 146.591 139.789C147.311 139.751 147.865 139.137 147.827 138.417C147.79 137.696 147.175 137.143 146.455 137.18C144.474 137.284 142.935 137.614 141.564 138.241C140.991 137.773 140.342 137.282 139.61 136.762L138.956 136.306Z" fill="#00160A"/>
<path fill-rule="evenodd" clip-rule="evenodd" d="M334.643 422.476L335.549 422.48C340.613 422.527 344.569 422.983 352.021 424.179C352.876 424.317 353.457 425.121 353.32 425.975C353.183 426.83 352.379 427.411 351.524 427.274L349.082 426.89C342.916 425.943 339.363 425.61 334.643 425.61C318.265 425.61 307.809 435.862 309.579 451.587C309.675 452.447 309.057 453.222 308.197 453.319C307.337 453.416 306.561 452.797 306.464 451.937C304.474 434.252 316.484 422.476 334.643 422.476ZM347.327 428.804L347.174 428.669C347.027 428.542 346.8 428.56 346.675 428.708C346.546 428.857 346.566 429.08 346.713 429.208L346.871 429.341C347.019 429.468 347.241 429.451 347.37 429.302C347.494 429.154 347.48 428.93 347.327 428.804ZM318.928 432.081C318.366 431.629 317.544 431.719 317.092 432.281C315.268 434.551 313.938 436.763 313.109 438.922C312.302 441.022 312.027 444.551 312.236 449.597L312.287 450.662C312.325 451.382 312.939 451.936 313.659 451.898C314.38 451.86 314.933 451.245 314.895 450.525C314.618 445.254 314.854 441.663 315.547 439.859C316.273 437.97 317.464 435.987 319.128 433.917C319.58 433.355 319.49 432.533 318.928 432.081ZM333.181 427.76C333.821 427.429 334.61 427.679 334.941 428.319C335.273 428.96 335.023 429.748 334.382 430.079C331.73 431.454 329.704 433.757 328.292 437.041C326.777 440.566 325.537 443.711 324.573 446.475C324.335 447.156 323.59 447.516 322.909 447.278C322.228 447.04 321.869 446.296 322.106 445.615C323.092 442.788 324.354 439.587 325.893 436.01C327.534 432.192 329.968 429.425 333.181 427.76ZM340.774 427.692C340.298 427.149 339.473 427.095 338.931 427.57C336.751 429.48 335.076 431.217 333.904 432.792C332.74 434.356 331.377 436.695 329.8 439.825C329.475 440.469 329.734 441.254 330.378 441.579C331.022 441.904 331.807 441.645 332.132 441C333.647 437.994 334.942 435.773 335.999 434.351C337.048 432.942 338.6 431.332 340.652 429.534C341.194 429.059 341.249 428.234 340.774 427.692ZM336.005 442.44C335.463 442.915 334.638 442.861 334.162 442.318C333.687 441.776 333.742 440.951 334.284 440.475C336.336 438.678 337.888 437.068 338.937 435.658C339.994 434.237 341.288 432.016 342.804 429.009C343.129 428.365 343.914 428.106 344.558 428.431C345.202 428.756 345.461 429.541 345.136 430.185C343.559 433.314 342.196 435.654 341.032 437.218C339.86 438.793 338.185 440.53 336.005 442.44ZM326.117 428.825C325.524 428.415 324.711 428.564 324.301 429.158C321.381 433.386 319.517 436.545 318.692 438.691C317.865 440.845 317.293 443.748 316.962 447.417C316.897 448.135 317.426 448.77 318.145 448.835C318.863 448.9 319.498 448.37 319.563 447.652C319.875 444.203 320.403 441.523 321.131 439.628C321.809 437.861 323.391 435.136 325.864 431.498L326.45 430.642C326.86 430.048 326.711 429.235 326.117 428.825Z" fill="#00160A"/>
<path fill-rule="evenodd" clip-rule="evenodd" d="M301.325 421.123L302.225 423.123L304.277 423.712C304.388 423.744 304.452 423.86 304.42 423.97C304.41 424.005 304.392 424.036 304.367 424.061L302.808 425.613L302.895 427.846C302.9 427.961 302.81 428.058 302.695 428.063C302.656 428.064 302.617 428.055 302.583 428.035L300.818 427.03C300.763 426.999 300.697 426.994 300.638 427.018L298.751 427.767C298.643 427.81 298.522 427.758 298.479 427.65C298.465 427.614 298.461 427.574 298.468 427.536L298.865 425.337L297.537 423.583C297.468 423.491 297.486 423.36 297.578 423.291C297.606 423.269 297.64 423.255 297.675 423.25L299.788 422.953L300.958 421.098C301.02 421 301.149 420.971 301.246 421.032C301.281 421.054 301.308 421.086 301.325 421.123Z" fill="#00160A"/>
<path fill-rule="evenodd" clip-rule="evenodd" d="M373.996 141.138C374.476 141.564 375.076 142.332 375.606 143.164L376.287 142.861L377.093 142.516C377.256 142.442 377.36 142.384 377.392 142.337C377.485 142.164 377.699 142.098 377.874 142.19C378.044 142.282 378.113 142.496 378.02 142.669C377.956 142.833 377.504 143.347 376.663 143.851C376.511 143.942 376.342 144.027 376.162 144.11C376.471 144.689 376.715 145.25 376.829 145.699C377.002 146.361 376.864 146.831 376.637 146.996C376.414 147.159 375.855 147.189 375.004 146.483C374.847 146.364 374.823 146.141 374.941 145.986C375.06 145.832 375.282 145.803 375.439 145.922C375.601 146.042 375.764 146.109 375.896 146.158L375.832 145.905C375.807 145.814 375.776 145.72 375.732 145.627C375.58 145.294 375.386 144.913 375.168 144.522C374.502 144.773 373.745 145.001 372.927 145.111C372.528 145.164 372.122 145.175 371.7 145.171C371.457 145.187 371.247 145.003 371.23 144.76C371.214 144.517 371.399 144.307 371.641 144.291C372.626 144.196 373.536 143.947 374.339 143.668L374.602 143.573C374.167 142.894 373.702 142.277 373.303 141.929C373.087 141.737 373.065 141.405 373.254 141.186C373.448 140.968 373.78 140.946 373.996 141.138Z" fill="#00160A"/>
<path fill-rule="evenodd" clip-rule="evenodd" d="M86.4401 317.942C85.0742 318.031 82.9081 318.379 81.1375 319.081C79.6229 319.683 79.6229 336.033 84.8009 337.337C89.9491 339.054 95.5782 336.781 94.9061 328.031C94.894 327.848 94.7458 327.35 94.576 326.78C94.3273 325.945 94.0321 324.953 94.0499 324.565C94.1198 323.191 93.7588 322.033 92.806 321.306C91.7795 319.13 89.7679 317.727 86.4401 317.942ZM85.6988 333.357C83.1646 331.463 83.2536 322.626 86.1458 322.036C87.9457 323.42 89.5886 325.417 90.1429 329.266C89.5227 331.386 88.2134 332.613 87.0687 333.685C86.9462 333.8 86.8256 333.913 86.708 334.025C86.3811 333.839 86.0445 333.612 85.6988 333.357Z" fill="white"/>
<path fill-rule="evenodd" clip-rule="evenodd" d="M82.6217 328.205C82.3919 326.831 82.5486 325.292 83.2398 323.649C83.5532 322.905 84.3773 322.299 85.4081 321.892C86.6133 321.416 88.0875 321.18 89.0171 321.119C91.2818 320.973 92.6504 321.921 93.3483 323.393C93.9966 323.884 94.2419 324.668 94.194 325.597C94.1734 326.038 94.7555 327.636 94.7757 327.941C95.2306 333.858 91.3992 335.397 87.8962 334.238C86.5653 334.914 85.2815 335.026 84.3154 334.308C83.4488 333.667 82.7835 332.314 82.6312 329.929C82.5905 329.314 82.5874 328.739 82.6217 328.205ZM88.8352 324.308C86.8252 324.703 86.7412 330.505 88.4963 331.742C88.7357 331.909 88.9689 332.057 89.1954 332.178C90.0438 331.413 90.6765 330.795 91.0354 329.529C91.3944 328.264 90.0816 325.212 88.8352 324.308Z" fill="#FFB61D"/>
<path fill-rule="evenodd" clip-rule="evenodd" d="M219.783 473.115C219.189 472.706 218.376 472.858 217.968 473.452C217.559 474.047 217.71 474.86 218.305 475.268C218.958 475.716 219.536 476.131 220.045 476.515C219.496 476.952 218.948 477.452 218.379 478.021L217.224 479.195C216.716 479.707 216.72 480.534 217.232 481.041C217.744 481.549 218.571 481.546 219.079 481.033L220.464 479.633C221.028 479.083 221.557 478.624 222.088 478.242C223.269 479.413 223.629 480.271 223.648 481.125L223.648 481.344L223.655 481.477C223.722 482.136 224.278 482.65 224.954 482.65C225.676 482.65 226.26 482.065 226.26 481.344L226.26 481.087C226.236 479.756 225.766 478.491 224.502 477.045C225.337 476.796 226.278 476.657 227.419 476.597C228.139 476.56 228.692 475.945 228.655 475.225C228.617 474.505 228.003 473.951 227.283 473.989C225.302 474.093 223.763 474.423 222.391 475.05C221.819 474.582 221.17 474.091 220.437 473.571L219.783 473.115Z" fill="#00160A"/>
<path fill-rule="evenodd" clip-rule="evenodd" d="M219.783 473.115C219.189 472.706 218.376 472.858 217.968 473.452C217.559 474.047 217.71 474.86 218.305 475.268C218.958 475.716 219.536 476.131 220.045 476.515C219.496 476.952 218.948 477.452 218.379 478.021L217.224 479.195C216.716 479.707 216.72 480.534 217.232 481.041C217.744 481.549 218.571 481.546 219.079 481.033L220.464 479.633C221.028 479.083 221.557 478.624 222.088 478.242C223.269 479.413 223.629 480.271 223.648 481.125L223.648 481.344L223.655 481.477C223.722 482.136 224.278 482.65 224.954 482.65C225.676 482.65 226.26 482.065 226.26 481.344L226.26 481.087C226.236 479.756 225.766 478.491 224.502 477.045C225.337 476.796 226.278 476.657 227.419 476.597C228.139 476.56 228.692 475.945 228.655 475.225C228.617 474.505 228.003 473.951 227.283 473.989C225.302 474.093 223.763 474.423 222.391 475.05C221.819 474.582 221.17 474.091 220.437 473.571L219.783 473.115Z" fill="#00160A"/>
<path fill-rule="evenodd" clip-rule="evenodd" d="M264.417 437.336L265.317 439.336L267.369 439.925C267.479 439.957 267.544 440.072 267.512 440.183C267.502 440.218 267.484 440.249 267.458 440.274L265.9 441.825L265.987 444.059C265.991 444.174 265.902 444.271 265.786 444.275C265.747 444.277 265.709 444.268 265.675 444.248L263.91 443.243C263.855 443.212 263.789 443.207 263.73 443.231L261.842 443.98C261.735 444.023 261.614 443.97 261.571 443.863C261.557 443.827 261.553 443.787 261.56 443.749L261.957 441.55L260.629 439.796C260.56 439.704 260.578 439.573 260.67 439.504C260.698 439.482 260.732 439.468 260.767 439.463L262.88 439.166L264.05 437.31C264.111 437.213 264.24 437.184 264.338 437.245C264.373 437.267 264.4 437.299 264.417 437.336Z" fill="#00160A"/>
<path fill-rule="evenodd" clip-rule="evenodd" d="M151.197 423.595L152.727 425.166L154.856 425.018C154.971 425.01 155.071 425.097 155.079 425.212C155.082 425.247 155.075 425.283 155.06 425.315L154.126 427.306L154.972 429.375C155.016 429.482 154.964 429.604 154.858 429.647C154.821 429.662 154.782 429.667 154.743 429.66L152.742 429.319C152.679 429.309 152.615 429.327 152.568 429.369L151.05 430.719C150.964 430.796 150.832 430.788 150.755 430.702C150.73 430.673 150.712 430.637 150.706 430.598L150.327 428.396L148.48 427.202C148.383 427.139 148.355 427.01 148.417 426.913C148.437 426.883 148.463 426.859 148.495 426.842L150.379 425.84L150.844 423.696C150.868 423.584 150.979 423.512 151.092 423.536C151.132 423.545 151.169 423.565 151.197 423.595Z" fill="#00160A"/>
<path fill-rule="evenodd" clip-rule="evenodd" d="M127.31 280.379L128.21 282.379L130.262 282.968C130.373 283 130.437 283.115 130.405 283.226C130.395 283.26 130.377 283.292 130.351 283.317L128.793 284.868L128.88 287.101C128.885 287.217 128.795 287.314 128.679 287.318C128.64 287.32 128.602 287.311 128.568 287.291L126.803 286.286C126.748 286.255 126.682 286.25 126.623 286.274L124.735 287.023C124.628 287.066 124.507 287.013 124.464 286.906C124.45 286.87 124.446 286.83 124.453 286.792L124.85 284.593L123.522 282.839C123.453 282.747 123.471 282.616 123.563 282.546C123.591 282.525 123.625 282.511 123.66 282.506L125.773 282.209L126.943 280.353C127.004 280.256 127.133 280.227 127.231 280.288C127.266 280.31 127.293 280.342 127.31 280.379Z" fill="#00160A"/>
<path fill-rule="evenodd" clip-rule="evenodd" d="M127.101 282.371L127.483 283.221L128.355 283.471C128.402 283.484 128.429 283.533 128.416 283.581C128.411 283.595 128.404 283.608 128.393 283.619L127.731 284.278L127.768 285.227C127.77 285.276 127.732 285.317 127.683 285.319C127.666 285.319 127.65 285.315 127.635 285.307L126.886 284.88C126.862 284.867 126.834 284.865 126.809 284.875L126.007 285.193C125.962 285.211 125.91 285.189 125.892 285.144C125.886 285.128 125.884 285.111 125.887 285.095L126.056 284.161L125.492 283.416C125.463 283.377 125.47 283.321 125.509 283.292C125.521 283.283 125.536 283.277 125.551 283.275L126.448 283.148L126.945 282.36C126.971 282.319 127.026 282.306 127.067 282.333C127.082 282.342 127.094 282.355 127.101 282.371Z" fill="#E7EAEE"/>
<path fill-rule="evenodd" clip-rule="evenodd" d="M20.3253 368.123L21.2252 370.123L23.2767 370.712C23.3877 370.744 23.4518 370.86 23.4199 370.97C23.4101 371.005 23.3917 371.036 23.3665 371.061L21.8078 372.613L21.8952 374.846C21.8997 374.961 21.8098 375.058 21.6945 375.063C21.6555 375.064 21.6169 375.055 21.583 375.035L19.8184 374.03C19.7632 373.999 19.6968 373.994 19.6378 374.018L17.7506 374.767C17.6433 374.81 17.5218 374.758 17.4792 374.65C17.4648 374.614 17.4609 374.574 17.4678 374.536L17.865 372.337L16.5375 370.583C16.4678 370.491 16.4859 370.36 16.578 370.291C16.6063 370.269 16.6397 370.255 16.675 370.25L18.7884 369.953L19.958 368.098C20.0195 368 20.1485 367.971 20.2462 368.032C20.2809 368.054 20.3084 368.086 20.3253 368.123Z" fill="#00160A"/>
<path fill-rule="evenodd" clip-rule="evenodd" d="M110.747 188.545L111.401 189.001C112.134 189.521 114.873 192.103 115.446 192.571C116.815 191.942 118.354 191.612 120.335 191.509C121.056 191.471 121.67 192.025 121.708 192.745C121.745 193.465 121.192 194.08 120.472 194.117C119.33 194.177 118.389 194.316 117.554 194.565C118.819 196.012 119.289 197.277 119.313 198.606L119.313 198.863C119.313 199.585 118.728 200.169 118.007 200.169C117.331 200.169 116.775 199.655 116.708 198.997L116.701 198.863L116.701 198.644C116.682 197.791 116.322 196.933 115.142 195.762C114.61 196.144 114.081 196.603 113.517 197.152L112.132 198.553C111.624 199.065 110.797 199.069 110.285 198.561C109.772 198.053 109.769 197.227 110.277 196.714L111.432 195.541C112.001 194.972 112.549 194.472 113.098 194.035C112.134 191.835 108.523 189.477 108.931 188.882C109.339 188.288 110.152 188.137 110.747 188.545Z" fill="#00160A"/>
<path fill-rule="evenodd" clip-rule="evenodd" d="M362.722 339.161L364.501 340.443L366.572 339.928C366.684 339.9 366.797 339.968 366.825 340.08C366.834 340.114 366.833 340.151 366.824 340.185L366.25 342.308L367.442 344.198C367.504 344.296 367.475 344.425 367.377 344.487C367.344 344.507 367.306 344.519 367.267 344.519L365.236 344.531C365.173 344.531 365.113 344.56 365.073 344.61L363.814 346.203C363.742 346.293 363.611 346.309 363.52 346.237C363.49 346.213 363.466 346.181 363.453 346.144L362.698 344.041L360.671 343.186C360.565 343.141 360.515 343.018 360.56 342.912C360.574 342.879 360.596 342.851 360.624 342.829L362.305 341.514L362.391 339.323C362.395 339.208 362.492 339.118 362.608 339.122C362.649 339.124 362.688 339.137 362.722 339.161Z" fill="#00160A"/>
<path fill-rule="evenodd" clip-rule="evenodd" d="M383.16 257.311L383.699 259.437L385.618 260.373C385.721 260.423 385.764 260.549 385.714 260.652C385.698 260.684 385.675 260.712 385.645 260.732L383.841 261.989L383.539 264.204C383.524 264.318 383.418 264.398 383.304 264.383C383.265 264.377 383.229 264.361 383.199 264.336L381.635 263.04C381.587 263 381.522 262.984 381.46 262.997L379.471 263.407C379.358 263.43 379.248 263.358 379.224 263.245C379.216 263.206 379.219 263.167 379.233 263.13L380.006 261.033L379.003 259.076C378.95 258.973 378.991 258.847 379.094 258.795C379.125 258.778 379.161 258.771 379.196 258.772L381.329 258.846L382.803 257.222C382.881 257.136 383.013 257.13 383.098 257.208C383.129 257.235 383.15 257.271 383.16 257.311Z" fill="#00160A"/>
<path fill-rule="evenodd" clip-rule="evenodd" d="M336.616 171.757L337.155 173.882L339.073 174.819C339.177 174.869 339.22 174.994 339.169 175.098C339.154 175.13 339.13 175.157 339.101 175.178L337.296 176.435L336.995 178.65C336.979 178.764 336.874 178.844 336.759 178.828C336.721 178.823 336.684 178.807 336.654 178.782L335.091 177.486C335.042 177.446 334.978 177.43 334.915 177.442L332.927 177.853C332.814 177.876 332.703 177.803 332.68 177.69C332.672 177.652 332.675 177.613 332.688 177.576L333.461 175.479L332.459 173.522C332.406 173.419 332.447 173.293 332.549 173.24C332.581 173.224 332.616 173.216 332.652 173.218L334.785 173.292L336.259 171.668C336.336 171.582 336.468 171.576 336.554 171.653C336.584 171.681 336.606 171.717 336.616 171.757Z" fill="#00160A"/>
<path fill-rule="evenodd" clip-rule="evenodd" d="M474.122 192.586L474.916 192.515C475.812 192.442 476.625 192.401 477.365 192.392C478.01 191.03 478.977 189.788 480.428 188.435C480.956 187.943 481.782 187.972 482.274 188.5C482.766 189.028 482.737 189.854 482.209 190.346C481.373 191.125 480.742 191.837 480.262 192.564C482.161 192.859 483.334 193.526 484.207 194.53L484.373 194.726C484.836 195.279 484.764 196.102 484.212 196.566C483.694 197.001 482.937 196.965 482.463 196.503L482.372 196.405L482.231 196.237C481.668 195.596 480.841 195.17 479.184 195.032C479.022 195.666 478.912 196.358 478.833 197.141L478.672 199.105C478.612 199.823 477.981 200.358 477.262 200.298C476.543 200.238 476.009 199.607 476.069 198.889L476.2 197.248C476.27 196.445 476.368 195.71 476.508 195.023C475.871 195.055 475.162 195.109 474.373 195.186C473.655 195.255 473.017 194.729 472.948 194.011C472.878 193.293 473.404 192.655 474.122 192.586Z" fill="#00160A"/>
<path fill-rule="evenodd" clip-rule="evenodd" d="M368.664 282.737C368.428 283.334 367.911 284.161 367.31 284.943L367.828 285.48L368.428 286.119L368.561 286.247C368.62 286.299 368.665 286.33 368.699 286.339C368.893 286.367 369.028 286.546 369.002 286.741C368.974 286.932 368.796 287.07 368.602 287.042C368.426 287.038 367.787 286.789 367.027 286.171C366.889 286.059 366.752 285.93 366.612 285.788C366.173 286.278 365.73 286.699 365.347 286.96C364.784 287.349 364.295 287.38 364.062 287.222C363.833 287.069 363.613 286.554 363.986 285.513C364.044 285.324 364.245 285.225 364.432 285.284C364.617 285.343 364.72 285.541 364.661 285.729C364.605 285.922 364.597 286.099 364.596 286.24L364.812 286.093C364.889 286.038 364.967 285.976 365.039 285.904C365.3 285.647 365.592 285.334 365.885 284.996C365.421 284.456 364.948 283.823 364.565 283.092C364.378 282.735 364.23 282.357 364.088 281.959C363.99 281.737 364.091 281.476 364.315 281.377C364.537 281.279 364.798 281.381 364.896 281.603C365.322 282.496 365.866 283.265 366.404 283.924L366.583 284.139C367.073 283.499 367.493 282.851 367.684 282.357C367.79 282.088 368.095 281.954 368.365 282.057C368.637 282.164 368.771 282.468 368.664 282.737Z" fill="#E7EAEE"/>
<path fill-rule="evenodd" clip-rule="evenodd" d="M355.913 16.5761C356.709 16.4375 357.466 16.9703 357.605 17.7661C357.744 18.562 357.211 19.3195 356.415 19.4581C352.63 20.1174 348.075 22.3799 344.139 26.024C339.029 30.7559 335.259 37.4344 333.398 46.1521C331.899 53.1757 333.277 62.4232 337.196 70.1383C341.655 78.9159 348.822 84.8838 358.019 86.5637C367.461 88.2882 375.449 87.2172 384.37 84.0455L385.192 83.7472C385.452 83.6485 385.917 83.4691 386.501 83.2439L386.502 83.2434C388.651 82.4145 392.405 80.9661 393.482 80.6402C396.367 79.7679 398.334 79.8409 399.761 81.3613C400.314 81.9503 400.284 82.876 399.695 83.4288C399.143 83.947 398.295 83.9536 397.736 83.467L397.628 83.3631C397.207 82.9146 396.337 82.8626 394.585 83.3648L394.329 83.4403C393.379 83.7277 389.902 85.0682 387.735 85.904L387.735 85.9041L387.735 85.9042L387.734 85.9044C386.894 86.2282 386.251 86.4761 386.028 86.5577C376.392 90.0752 367.745 91.3138 357.494 89.4414C347.335 87.586 339.437 81.0098 334.588 71.4632C330.373 63.1665 328.894 53.2392 330.537 45.5414C332.524 36.2372 336.596 29.0213 342.152 23.8775C346.5 19.851 351.571 17.3325 355.913 16.5761ZM365.805 23.6424C366.598 23.4872 367.367 24.004 367.522 24.7968C367.677 25.5895 367.16 26.358 366.368 26.5133C354.513 28.835 344.979 37.8899 342.214 49.8669C341.278 53.9204 341.561 57.2163 342.479 58.4738L342.601 58.6314L342.611 58.6534L342.628 58.6401C342.957 58.3434 343.341 57.5853 343.639 56.41L343.702 56.1518C346.546 43.8337 355.937 34.2987 367.932 31.0965C368.713 30.8882 369.514 31.352 369.723 32.1325C369.931 32.913 369.467 33.7146 368.687 33.9229C357.88 36.8079 349.389 45.3163 346.664 56.3425L346.552 56.8098C345.549 61.1543 342.669 63.2282 340.336 60.4781C338.63 58.4667 338.211 54.1986 339.363 49.2089C342.39 36.0973 352.828 26.184 365.805 23.6424ZM383.397 39.6971C383.34 38.8913 382.64 38.2847 381.834 38.3422C367.598 39.3579 355.113 48.6043 350.146 62.2516C348.261 67.4301 348.149 72.0354 349.692 74.3839C351.762 77.5342 355.018 75.7472 356.642 71.2867L356.812 70.829C361.205 59.2794 371.498 51.2129 383.549 49.5308C384.349 49.4191 384.907 48.68 384.795 47.8799C384.683 47.0799 383.944 46.5218 383.144 46.6335C369.873 48.486 358.559 57.4648 353.893 70.2862L353.79 70.5601C353.271 71.8946 352.702 72.6991 352.272 72.9353L352.253 72.9481C352.25 72.9507 352.247 72.9529 352.245 72.9548C352.242 72.9579 352.24 72.9597 352.238 72.9594C352.236 72.9591 352.234 72.955 352.23 72.9453C352.221 72.9237 352.201 72.8744 352.137 72.7775L352.059 72.6502C351.21 71.1451 351.34 67.5242 352.895 63.2521C357.464 50.699 368.947 42.1944 382.042 41.2602C382.848 41.2027 383.455 40.5029 383.397 39.6971ZM389.768 53.9165C390.573 53.859 391.273 54.4656 391.331 55.2714C391.388 56.0771 390.782 56.7769 389.976 56.8344C380.794 57.4895 372.743 63.4521 369.54 72.2534C368.59 74.8624 368.414 77.093 368.754 78.2227L368.795 78.3488L368.86 78.2555C369.023 78.0078 369.207 77.652 369.388 77.1906L369.465 76.9864C372.848 67.6899 381.052 61.1793 390.674 59.8361C391.475 59.7245 392.214 60.2825 392.325 61.0826C392.437 61.8826 391.879 62.6217 391.079 62.7334C382.661 63.9084 375.467 69.5262 372.368 77.5756L372.214 77.9869C370.959 81.4344 368.245 82.9237 366.511 80.2839C365.322 78.475 365.405 75.0601 366.791 71.2529C370.393 61.3574 379.445 54.6529 389.768 53.9165ZM397.477 65.7015C397.419 64.8957 396.719 64.2891 395.914 64.3466C389.001 64.8398 382.938 69.33 380.526 75.957C379.575 78.5697 379.517 80.9475 380.397 82.2864C381.839 84.4815 384.08 83.2515 385.014 80.6866L385.141 80.3497C387.106 75.3313 391.609 71.8324 396.874 71.0976C397.674 70.9859 398.232 70.2468 398.12 69.4467C398.008 68.6466 397.269 68.0886 396.469 68.2003L396.098 68.256C390.431 69.1689 385.541 72.7661 383.006 77.9432L382.917 78.1275L382.972 77.9176C383.053 77.6121 383.154 77.2906 383.275 76.9576C385.289 71.4247 390.35 67.6764 396.122 67.2646C396.927 67.2071 397.534 66.5073 397.477 65.7015Z" fill="#00160A"/>
<path fill-rule="evenodd" clip-rule="evenodd" d="M389.768 53.9165C390.573 53.859 391.273 54.4656 391.331 55.2714C391.388 56.0771 390.782 56.7769 389.976 56.8344C380.794 57.4895 372.743 63.4521 369.54 72.2534C368.59 74.8624 368.414 77.093 368.754 78.2227L368.795 78.3488L368.86 78.2555C369.023 78.0078 369.207 77.652 369.388 77.1906L369.465 76.9864C372.848 67.6899 381.052 61.1793 390.675 59.8361C391.475 59.7245 392.214 60.2825 392.325 61.0826C392.437 61.8826 391.879 62.6217 391.079 62.7334C382.661 63.9084 375.467 69.5262 372.368 77.5756L372.214 77.9869C370.959 81.4344 368.245 82.9237 366.511 80.2839C365.322 78.475 365.405 75.0601 366.791 71.2529C370.393 61.3574 379.445 54.6529 389.768 53.9165Z" fill="#00160A"/>
<path d="M298.673 244.355C329.338 230.012 354.977 222.435 370.939 221.044C375.827 220.618 378.044 223.313 376.806 227.697C375.887 230.951 373.088 235.418 368.797 240.708C361.318 249.928 351.456 257.819 341.635 265.158C357.347 250.656 361.354 244.59 366.2 238.616L366.961 237.666C370.554 233.123 372.876 229.328 373.591 226.795L373.693 226.411C374.138 224.583 373.622 224.15 371.23 224.359C355.629 225.718 330.088 233.31 299.536 247.634C268.934 261.981 268.058 258.675 298.673 244.355Z" fill="white"/>
<path d="M158.427 197.955L158.651 198.488C160.205 202.172 161.819 205.819 163.651 209.798L164.364 211.342C164.13 211.498 163.823 211.665 163.485 211.813C163 212.024 162.508 212.173 162.138 212.223L162.02 212.235L161.842 212.021C160.457 210.316 158.85 207.42 157.689 204.54C157.07 203.006 156.63 201.598 156.431 200.517C156.35 200.077 156.313 199.707 156.316 199.426L156.325 199.241C156.328 199.196 156.328 199.173 156.317 199.17L156.36 199.14C156.608 198.969 157.239 198.6 158.178 198.09L158.427 197.955Z" fill="white"/>
<path fill-rule="evenodd" clip-rule="evenodd" d="M197.191 184.611C198.151 183.436 199.396 183.612 200.972 184.568L201.377 184.823L202.51 185.574C202.827 185.777 202.965 185.848 203.149 185.921C203.578 186.092 203.788 186.578 203.617 187.007C203.446 187.436 202.96 187.645 202.531 187.474L202.378 187.411C202.089 187.287 201.87 187.158 201.282 186.769L200.469 186.227C200.335 186.14 200.219 186.066 200.105 185.997C199.162 185.425 198.734 185.365 198.486 185.669C198.329 185.86 198.368 186.269 198.679 187.106L199.02 187.985C199.698 189.784 199.702 190.589 198.494 191.276C197.455 191.867 196.921 191.591 195.428 190.128L195.066 189.769C194.11 188.814 193.609 188.482 193.286 188.55C193.179 188.573 193.054 188.649 192.901 188.811C192.722 189.002 192.671 189.613 192.781 190.696L192.949 192.111C193.146 193.84 193.067 194.289 192.353 194.766C191.37 195.424 190.061 194.681 187.637 192.503C187.293 192.195 187.265 191.666 187.573 191.323C187.882 190.979 188.41 190.951 188.754 191.259C189.79 192.19 190.573 192.797 191.12 193.107L191.242 193.174L191.344 193.225L191.347 193.12L191.34 192.87C191.329 192.665 191.304 192.417 191.253 191.996L191.146 191.127C190.943 189.367 191.006 188.388 191.682 187.668C192.057 187.268 192.478 187.012 192.94 186.915C194.014 186.687 194.776 187.146 196.043 188.384L196.682 189.013C197.372 189.676 197.627 189.845 197.668 189.823C197.824 189.733 197.8 189.457 197.377 188.369L197.192 187.898C196.601 186.381 196.488 185.472 197.191 184.611Z" fill="#00160A"/>
<path fill-rule="evenodd" clip-rule="evenodd" d="M288.439 48.5671L287.645 48.6379C286.928 48.7074 286.402 49.3457 286.471 50.0636C286.513 50.4976 286.763 50.8614 287.113 51.0659L286.975 51.164C286.386 51.5803 286.246 52.3952 286.662 52.9842C287.079 53.5732 287.894 53.7132 288.483 53.2969L289.825 52.3465C289.786 52.6539 289.752 52.9712 289.723 53.2998L289.593 54.9408C289.533 55.6596 290.067 56.2907 290.786 56.3503C291.505 56.41 292.136 55.8757 292.196 55.1569L292.357 53.1932C292.399 52.773 292.45 52.3791 292.514 52.0063C292.972 52.8763 293.064 53.5465 292.967 54.1804L292.929 54.396L292.912 54.5286C292.864 55.1888 293.322 55.7915 293.988 55.9089C294.699 56.0341 295.376 55.5598 295.501 54.8495L295.546 54.5966C295.684 53.7153 295.621 52.828 295.264 51.8431C295.451 51.9772 295.611 52.1265 295.755 52.2897L295.896 52.4573L295.986 52.5553C296.461 53.0168 297.217 53.053 297.735 52.6183C298.288 52.1547 298.36 51.3309 297.896 50.7784L297.731 50.5818C297.672 50.5145 297.613 50.4486 297.551 50.3843C298.233 50.4241 298.837 49.9274 298.922 49.2398C299.01 48.524 298.501 47.8723 297.785 47.7843C296.554 47.6328 295.477 47.5988 294.487 47.6877C294.842 47.2696 295.254 46.8449 295.733 46.398C296.261 45.9062 296.29 45.0798 295.798 44.5522C295.306 44.0246 294.48 43.9956 293.952 44.4874C293.067 45.3125 292.362 46.0965 291.8 46.8916C291.583 46.6615 291.355 46.4257 291.116 46.1837L290.552 45.621C290.037 45.1157 289.21 45.1233 288.705 45.638C288.2 46.1527 288.207 46.9795 288.722 47.4848C289.079 47.8357 289.409 48.1677 289.713 48.4823C289.308 48.5027 288.884 48.531 288.439 48.5671Z" fill="#00160A"/>
<path fill-rule="evenodd" clip-rule="evenodd" d="M238.109 57.616C237.796 57.2946 237.288 57.3036 236.975 57.636C236.663 57.9685 236.663 58.4986 236.977 58.82C237.274 59.1248 237.54 59.4074 237.777 59.6703C237.275 59.8832 236.771 60.159 236.231 60.4994L235.412 61.0248C235.052 61.2538 234.974 61.7121 235.237 62.0483C235.499 62.3845 236.004 62.4714 236.364 62.2424L237.345 61.6158C237.858 61.3017 238.321 61.064 238.785 60.8972C239.491 61.8789 239.639 62.5082 239.549 63.0916L239.525 63.23L239.514 63.3152C239.481 63.7386 239.759 64.1228 240.168 64.1947C240.603 64.2715 241.021 63.9641 241.102 63.508L241.13 63.3457C241.264 62.4994 241.12 61.6469 240.514 60.5937C240.925 60.5874 241.374 60.6179 241.882 60.6829C242.325 60.7395 242.723 60.4588 242.77 60.0559C242.817 59.653 242.497 59.2805 242.054 59.2239C241.083 59.0998 240.269 59.0856 239.524 59.1863C239.218 58.8094 238.862 58.4071 238.453 57.9739L238.109 57.616Z" fill="#E7EAEE"/>
<path fill-rule="evenodd" clip-rule="evenodd" d="M69.8082 275.336L70.7081 277.336L72.7597 277.925C72.8706 277.957 72.9347 278.072 72.9029 278.183C72.893 278.218 72.8747 278.249 72.8494 278.274L71.2908 279.825L71.3781 282.059C71.3826 282.174 71.2928 282.271 71.1774 282.275C71.1384 282.277 71.0998 282.268 71.0659 282.248L69.3013 281.243C69.2461 281.212 69.1797 281.207 69.1207 281.231L67.2335 281.98C67.1262 282.023 67.0047 281.97 66.9621 281.863C66.9477 281.827 66.9438 281.787 66.9507 281.749L67.348 279.55L66.0204 277.796C65.9507 277.704 65.9689 277.573 66.0609 277.504C66.0892 277.482 66.1226 277.468 66.1579 277.463L68.2714 277.166L69.4409 275.31C69.5024 275.213 69.6315 275.184 69.7291 275.245C69.7638 275.267 69.7913 275.299 69.8082 275.336Z" fill="#00160A"/>
<path fill-rule="evenodd" clip-rule="evenodd" d="M81.8082 164.336L82.7081 166.336L84.7597 166.925C84.8706 166.957 84.9347 167.072 84.9029 167.183C84.893 167.218 84.8747 167.249 84.8494 167.274L83.2908 168.825L83.3781 171.059C83.3826 171.174 83.2928 171.271 83.1774 171.275C83.1384 171.277 83.0998 171.268 83.0659 171.248L81.3013 170.243C81.2461 170.212 81.1797 170.207 81.1207 170.231L79.2335 170.98C79.1262 171.023 79.0047 170.97 78.9621 170.863C78.9477 170.827 78.9438 170.787 78.9507 170.749L79.348 168.55L78.0204 166.796C77.9507 166.704 77.9689 166.573 78.0609 166.504C78.0892 166.482 78.1226 166.468 78.1579 166.463L80.2714 166.166L81.4409 164.31C81.5024 164.213 81.6315 164.184 81.7291 164.245C81.7638 164.267 81.7913 164.299 81.8082 164.336Z" fill="#00160A"/>
<path d="M108.99 341.061C109.66 340.574 110.599 340.723 111.085 341.393C111.572 342.064 90.3506 359.348 82.1183 367.27L81.1615 368.198C76.4594 372.799 72.9925 376.783 71.0383 379.932C68.9676 383.27 68.8348 385.082 70.1717 385.823C75.2438 388.634 82.5365 390.004 92.981 388.273L94.0543 388.09C98.03 387.394 127.936 380.872 127.463 381.045L127.279 381.1C126.336 381.35 114.159 385.561 109.956 386.631L109.448 386.759C103.022 388.376 97.9945 389.484 93.4713 390.233C82.4186 392.064 74.5219 391.664 68.7175 388.447C65.368 386.591 65.6347 382.951 68.4892 378.351C70.7342 374.732 74.6833 370.261 80.0382 365.108C88.3807 357.081 100.114 347.506 108.99 341.061Z" fill="white"/>
</svg>
