<svg width="16.000000" height="16.000000" viewBox="0 0 16 16" fill="none" xmlns="http://www.w3.org/2000/svg" xmlns:xlink="http://www.w3.org/1999/xlink">
	<desc>
			Created with Pixso.
	</desc>
	<defs/>
	<rect id="Icons/Shopping bag (Cart)" width="16.000000" height="16.000000" fill="#FFFFFF" fill-opacity="0"/>
	<path id="Vector (Stroke)" d="M3.46 0.93C3.59 0.76 3.79 0.66 4 0.66L12 0.66C12.21 0.66 12.4 0.76 12.53 0.93L14.53 3.59C14.62 3.71 14.66 3.85 14.66 3.99L14.66 13.33C14.66 13.86 14.45 14.37 14.08 14.74C13.7 15.12 13.19 15.33 12.66 15.33L3.33 15.33C2.8 15.33 2.29 15.12 1.91 14.74C1.54 14.37 1.33 13.86 1.33 13.33L1.33 3.99C1.33 3.85 1.38 3.71 1.46 3.59L3.46 0.93ZM4.33 1.99L2.66 4.22L2.66 13.33C2.66 13.51 2.73 13.67 2.86 13.8C2.98 13.92 3.15 14 3.33 14L12.66 14C12.84 14 13.01 13.92 13.13 13.8C13.26 13.67 13.33 13.51 13.33 13.33L13.33 4.22L11.66 1.99L4.33 1.99Z" fill="#0F0F11" fill-opacity="1.000000" fill-rule="evenodd"/>
	<path id="Vector (Stroke)" d="M1.33 4C1.33 3.63 1.63 3.33 2 3.33L14 3.33C14.36 3.33 14.66 3.63 14.66 4C14.66 4.36 14.36 4.66 14 4.66L2 4.66C1.63 4.66 1.33 4.36 1.33 4Z" fill="#0F0F11" fill-opacity="1.000000" fill-rule="evenodd"/>
	<path id="Vector (Stroke)" d="M5.33 6C5.7 6 5.99 6.29 5.99 6.66C5.99 7.19 6.21 7.7 6.58 8.08C6.96 8.45 7.46 8.66 7.99 8.66C8.53 8.66 9.03 8.45 9.41 8.08C9.78 7.7 9.99 7.19 9.99 6.66C9.99 6.29 10.29 6 10.66 6C11.03 6 11.33 6.29 11.33 6.66C11.33 7.55 10.98 8.39 10.35 9.02C9.73 9.64 8.88 10 7.99 10C7.11 10 6.26 9.64 5.64 9.02C5.01 8.39 4.66 7.55 4.66 6.66C4.66 6.29 4.96 6 5.33 6Z" fill="#0F0F11" fill-opacity="1.000000" fill-rule="evenodd"/>
</svg>
