<svg width="15.335449" height="13.554550" viewBox="0 0 15.3354 13.5546" fill="none" xmlns="http://www.w3.org/2000/svg" xmlns:xlink="http://www.w3.org/1999/xlink">
	<desc>
			Created with Pixso.
	</desc>
	<defs/>
	<path id="Vector (Stroke)" d="M9.29 0.33C9.82 0.11 10.39 0 10.96 0C11.54 0 12.1 0.11 12.63 0.33C13.16 0.55 13.65 0.87 14.05 1.27C14.46 1.68 14.78 2.16 15 2.69C15.22 3.22 15.33 3.79 15.33 4.36C15.33 4.94 15.22 5.5 15 6.03C14.78 6.56 14.46 7.05 14.05 7.45L8.16 13.34C7.88 13.62 7.44 13.62 7.17 13.34L1.27 7.45C0.46 6.63 0 5.52 0 4.36C0 3.2 0.46 2.09 1.27 1.27C2.09 0.46 3.2 0 4.36 0C5.52 0 6.63 0.46 7.45 1.27L7.66 1.49L7.87 1.27C8.28 0.87 8.76 0.55 9.29 0.33ZM13.06 2.26C12.79 1.99 12.46 1.77 12.1 1.62C11.74 1.47 11.35 1.39 10.96 1.39C10.57 1.39 10.19 1.47 9.83 1.62C9.47 1.77 9.14 1.99 8.86 2.26L8.16 2.97C7.88 3.24 7.44 3.24 7.17 2.97L6.46 2.26C5.9 1.71 5.15 1.4 4.36 1.4C3.58 1.4 2.82 1.71 2.26 2.26C1.71 2.82 1.39 3.58 1.39 4.36C1.39 5.15 1.71 5.9 2.26 6.46L7.66 11.86L13.06 6.46C13.34 6.19 13.56 5.86 13.7 5.5C13.85 5.14 13.93 4.75 13.93 4.36C13.93 3.97 13.85 3.59 13.7 3.23C13.56 2.87 13.34 2.54 13.06 2.26Z" fill="#0F0F11" fill-opacity="1.000000" fill-rule="evenodd"/>
</svg>
