<svg width="16" height="16" viewBox="0 0 16 16" fill="none" xmlns="http://www.w3.org/2000/svg">
<path fill-rule="evenodd" clip-rule="evenodd" d="M7.33331 2.66668C4.75598 2.66668 2.66665 4.75601 2.66665 7.33334C2.66665 9.91067 4.75598 12 7.33331 12C9.91064 12 12 9.91067 12 7.33334C12 4.75601 9.91064 2.66668 7.33331 2.66668ZM1.33331 7.33334C1.33331 4.01963 4.0196 1.33334 7.33331 1.33334C10.647 1.33334 13.3333 4.01963 13.3333 7.33334C13.3333 10.6471 10.647 13.3333 7.33331 13.3333C4.0196 13.3333 1.33331 10.6471 1.33331 7.33334Z" fill="#313237"/>
<path fill-rule="evenodd" clip-rule="evenodd" d="M10.6286 10.6286C10.889 10.3683 11.3111 10.3683 11.5714 10.6286L14.4714 13.5286C14.7318 13.789 14.7318 14.2111 14.4714 14.4714C14.2111 14.7318 13.789 14.7318 13.5286 14.4714L10.6286 11.5714C10.3683 11.3111 10.3683 10.889 10.6286 10.6286Z" fill="#313237"/>
</svg>
