<?xml version="1.0" standalone="no"?>
<!DOCTYPE svg PUBLIC "-//W3C//DTD SVG 20010904//EN"
 "http://www.w3.org/TR/2001/REC-SVG-20010904/DTD/svg10.dtd">
<svg version="1.0" xmlns="http://www.w3.org/2000/svg"
 width="512.000000pt" height="512.000000pt" viewBox="0 0 512.000000 512.000000"
 preserveAspectRatio="xMidYMid meet">

<g transform="translate(0.000000,512.000000) scale(0.100000,-0.100000)"
fill="#000000" stroke="none">
<path d="M2495 4786 c-41 -18 -83 -69 -90 -109 -4 -18 -5 -118 -3 -224 3 -210
5 -218 72 -267 39 -29 133 -29 172 0 68 51 69 53 69 294 0 205 -1 220 -21 246
-11 15 -32 37 -46 47 -33 25 -113 32 -153 13z"/>
<path d="M1025 4176 c-41 -18 -83 -69 -91 -111 -14 -79 -2 -101 144 -248 76
-76 149 -145 164 -153 61 -32 159 -8 200 48 23 33 34 102 23 145 -8 35 -268
300 -312 319 -40 17 -89 17 -128 0z"/>
<path d="M2392 3830 c-563 -79 -1001 -502 -1098 -1060 -24 -140 -15 -381 19
-510 131 -499 494 -848 997 -956 118 -25 381 -26 500 -1 249 53 472 171 644
341 184 181 293 375 359 636 18 73 21 114 21 280 0 214 -9 274 -74 451 -145
402 -513 714 -945 804 -93 19 -332 28 -423 15z m168 -1271 l0 -962 -73 7
c-177 16 -371 90 -508 194 -173 132 -301 329 -356 548 -24 95 -24 333 0 428
96 382 391 661 774 730 43 8 97 15 121 15 l42 1 0 -961z"/>
<path d="M415 2706 c-97 -43 -124 -171 -54 -251 45 -51 78 -57 301 -53 215 3
223 5 272 72 29 39 29 133 0 172 -50 67 -55 69 -282 71 -157 2 -214 0 -237
-11z"/>
<path d="M1255 1461 c-23 -11 -98 -77 -177 -157 -146 -149 -158 -170 -143
-251 9 -49 69 -109 118 -118 81 -15 102 -3 251 143 91 90 145 152 158 181 58
128 -80 263 -207 202z"/>
<path d="M2495 946 c-41 -18 -83 -69 -90 -109 -4 -18 -5 -118 -3 -224 3 -210
5 -218 72 -267 39 -29 133 -29 172 0 68 51 69 53 69 294 0 205 -1 220 -21 246
-11 15 -32 37 -46 47 -33 25 -113 32 -153 13z"/>
</g>
</svg>
