<?xml version="1.0" encoding="UTF-8" standalone="no"?>
<svg
   width="16"
   height="16"
   viewBox="0 0 16 16"
   fill="none"
   version="1.1"
   id="svg8"
   sodipodi:docname="menu.svg"
   inkscape:version="1.1.2 (b8e25be833, 2022-02-05)"
   xmlns:inkscape="http://www.inkscape.org/namespaces/inkscape"
   xmlns:sodipodi="http://sodipodi.sourceforge.net/DTD/sodipodi-0.dtd"
   xmlns="http://www.w3.org/2000/svg"
   xmlns:svg="http://www.w3.org/2000/svg">
  <defs
     id="defs12" />
  <sodipodi:namedview
     id="namedview10"
     pagecolor="#ffffff"
     bordercolor="#666666"
     borderopacity="1.0"
     inkscape:pageshadow="2"
     inkscape:pageopacity="0.0"
     inkscape:pagecheckerboard="0"
     showgrid="false"
     inkscape:zoom="22.46875"
     inkscape:cx="6.54242"
     inkscape:cy="3.093185"
     inkscape:window-width="1271"
     inkscape:window-height="970"
     inkscape:window-x="177"
     inkscape:window-y="103"
     inkscape:window-maximized="0"
     inkscape:current-layer="svg8" />
  <path
     d="M1 4.5C1 4.08579 1.39175 3.75 1.875 3.75H14.125C14.6082 3.75 15 4.08579 15 4.5C15 4.91421 14.6082 5.25 14.125 5.25H1.875C1.39175 5.25 1 4.91421 1 4.5Z"
     fill="#0F0F11"
     id="path2"
     style="fill:#f1f2f9;fill-opacity:1" />
  <path
     d="M1 8C1 7.58579 1.39175 7.25 1.875 7.25H14.125C14.6082 7.25 15 7.58579 15 8C15 8.41421 14.6082 8.75 14.125 8.75H1.875C1.39175 8.75 1 8.41421 1 8Z"
     fill="#0F0F11"
     id="path4"
     style="fill:#f1f2f9;fill-opacity:1" />
  <path
     d="M1.875 10.75C1.39175 10.75 1 11.0858 1 11.5C1 11.9142 1.39175 12.25 1.875 12.25H14.125C14.6082 12.25 15 11.9142 15 11.5C15 11.0858 14.6082 10.75 14.125 10.75H1.875Z"
     fill="#0F0F11"
     id="path6"
     style="fill:#f1f2f9;fill-opacity:1" />
</svg>
